<svg xmlns="http://www.w3.org/2000/svg" viewBox="0 0 173.5 47.59"><defs><style>.a,.b,.c,.d{fill:none;stroke-linecap:round;stroke-linejoin:round;stroke-width:0.21px;}.a{stroke:#000;}.b{stroke:#00b800;}.c{stroke:#00bfff;}.d{stroke:blue;}</style></defs><title>cad0.5</title><polyline class="a" points="18.17 28.71 18.3 28.65 18.5 28.46 18.5 29.79"/><line class="a" x1="18.34" y1="31.43" x2="18.34" y2="35.13"/><line class="a" x1="2.05" y1="26.81" x2="171.68" y2="26.81"/><line class="a" x1="18.34" y1="31.43" x2="171.68" y2="31.43"/><line class="a" x1="18.34" y1="35.13" x2="171.68" y2="35.13"/><line class="a" x1="18.34" y1="40.66" x2="171.68" y2="40.66"/><polyline class="a" points="18.34 46.2 171.68 46.2 171.68 26.81"/><line class="a" x1="21.89" y1="31.43" x2="21.89" y2="35.13"/><polyline class="a" points="19.05 32.89 19.14 32.84 19.28 32.71 19.28 33.64"/><polygon class="a" points="19.9 33.55 19.85 33.59 19.9 33.64 19.94 33.59 19.9 33.55"/><path class="a" d="M20.81,32.71h-.45l-.05.4.05,0c.78-.3.66.92-.05.49l0-.1"/><polygon class="a" points="17.64 37.98 17.71 38.1 17.9 38.19 18.2 38.23 18.39 38.23 18.7 38.19 18.89 38.1 18.95 37.98 18.95 37.9 18.89 37.76 18.7 37.68 18.39 37.64 18.2 37.64 17.9 37.68 17.71 37.76 17.64 37.9 17.64 37.98"/><polyline class="a" points="17.9 45.61 17.83 45.53 17.64 45.41 18.95 45.41"/><path class="a" d="M17.65,44.69l.06.13.13,0H18l.13,0,.05-.09.06-.17.06-.13.13-.09.13,0h.19l.13,0,.06,0,.06.12v.17l-.06.13c-.92.43-.49-.76-1.18-.43l-.06.12Z"/><polyline class="a" points="18.09 43.5 18.26 43.55 18.39 43.64 18.45 43.76 18.45 43.8 18.39 43.93 18.26 44.02 18.09 44.05 18.02 44.05 17.83 44.02 17.71 43.93 17.64 43.8 17.64 43.76 17.71 43.64 17.83 43.55 18.09 43.5 18.39 43.5 18.7 43.55 18.89 43.64 18.95 43.76 18.95 43.84 18.89 43.97 18.76 44.02"/><polygon class="a" points="18.82 43.12 18.89 43.16 18.95 43.12 18.89 43.09 18.82 43.12"/><polyline class="a" points="17.64 42.37 18.51 42.78 18.51 42.15"/><line class="a" x1="17.65" y1="42.37" x2="18.95" y2="42.37"/><polygon class="a" points="17.64 41.73 17.71 41.85 17.83 41.9 17.96 41.9 18.09 41.85 18.14 41.77 18.2 41.6 18.26 41.48 18.39 41.39 18.51 41.35 18.7 41.35 18.82 41.39 18.89 41.43 18.95 41.56 18.95 41.73 18.89 41.85 18.82 41.9 18.7 41.94 18.51 41.94 18.39 41.9 18.26 41.82 18.2 41.68 18.14 41.51 18.09 41.43 17.96 41.39 17.83 41.39 17.71 41.43 17.64 41.56 17.64 41.73"/><line class="a" x1="41.4" y1="26.81" x2="41.4" y2="4.76"/><line class="a" x1="168.12" y1="26.81" x2="168.12" y2="8.3"/><line class="a" x1="157.5" y1="26.81" x2="157.5" y2="8.13"/><line class="a" x1="145.31" y1="26.81" x2="145.31" y2="7.81"/><line class="a" x1="123.24" y1="26.81" x2="123.24" y2="7.4"/><line class="a" x1="103.62" y1="26.81" x2="103.62" y2="6.94"/><line class="a" x1="82.92" y1="26.81" x2="82.92" y2="6.42"/><line class="a" x1="73.06" y1="26.81" x2="73.06" y2="5.97"/><line class="a" x1="63.46" y1="26.81" x2="63.46" y2="5.36"/><line class="a" x1="54.99" y1="26.81" x2="54.99" y2="5.27"/><line class="a" x1="46.67" y1="26.81" x2="46.67" y2="1.95"/><polyline class="a" points="43.82 26.81 43.82 4.51 42.4 4.72"/><line class="a" x1="43.82" y1="4.51" x2="46.67" y2="1.95"/><polyline class="a" points="54.99 5.27 63.46 5.36 73.06 5.97 82.92 6.42 93.92 6.72 103.62 6.95 113.35 7.22 123.24 7.4 135.95 7.74 145.31 7.81 157.5 8.13 168.12 8.3"/><line class="a" x1="18.34" y1="26.81" x2="18.34" y2="4.94"/><line class="a" x1="36" y1="26.81" x2="36" y2="4.69"/><line class="a" x1="31.96" y1="26.81" x2="31.96" y2="2.1"/><line class="a" x1="26.65" y1="26.81" x2="26.65" y2="3.61"/><polyline class="a" points="21.89 26.81 21.89 4.48 18.34 4.94"/><polyline class="a" points="21.89 4.48 26.66 3.61 31.96 2.1 34.08 2.6 36 4.69"/><polyline class="a" points="37.71 4.64 38.8 4.64 40.11 4.59 40.86 4.69"/><polyline class="a" points="36.71 26.81 36.71 4.69 37.71 4.64"/><polyline class="a" points="40.86 4.69 41.4 4.76 42.4 4.72"/><polyline class="a" points="46.67 1.95 49.24 2.21 54.99 5.27"/><polyline class="a" points="21.51 28.78 21.51 28.71 21.57 28.58 21.65 28.52 21.77 28.46 22.04 28.46 22.16 28.52 22.23 28.58 22.29 28.71 22.29 28.84 22.23 28.96 22.1 29.16 21.45 29.79 22.36 29.79"/><polyline class="a" points="26.34 28.46 27.06 28.46 26.67 28.96 26.87 28.96 26.99 29.03 27.06 29.09 27.12 29.28 27.12 29.41 27.06 29.59 26.93 29.73 26.73 29.79 26.54 29.79 26.34 29.73 26.28 29.66 26.22 29.53"/><polyline class="a" points="32.14 28.46 31.5 29.35 32.47 29.35"/><line class="a" x1="32.14" y1="28.46" x2="32.14" y2="29.79"/><polyline class="a" points="36.18 28.46 35.53 28.46 35.46 29.03 35.53 28.96 35.73 28.9 35.91 28.9 36.12 28.96 36.24 29.09 36.3 29.28 36.3 29.41 36.24 29.59 36.12 29.73 35.91 29.79 35.73 29.79 35.53 29.73 35.46 29.66 35.4 29.53"/><polyline class="a" points="37.52 28.65 37.46 28.52 37.26 28.46 37.13 28.46 36.93 28.52 36.81 28.71 36.74 29.03 36.74 29.35 36.81 29.59 36.93 29.73 37.13 29.79 37.2 29.79 37.38 29.73 37.52 29.59 37.58 29.41 37.58 29.35 37.52 29.16 37.38 29.03 37.2 28.96 37.13 28.96 36.93 29.03 36.81 29.16 36.74 29.35"/><polyline class="a" points="41.21 29.79 41.86 28.46 40.95 28.46"/><path class="a" d="M43.71,28.46l-.2.06-.06.13v.12l.06.12.14.06.26.07.19.06.13.12.08.13v.18l-.08.12-.06.07-.19.06h-.26l-.2-.06c-.63-.94,1.09-.47.65-1.21L44,28.46Z"/><polyline class="a" points="47.11 28.9 47.05 29.09 46.91 29.22 46.72 29.28 46.66 29.28 46.45 29.22 46.33 29.09 46.26 28.9 46.26 28.84 46.33 28.65 46.45 28.52 46.66 28.46 46.72 28.46 46.91 28.52 47.05 28.65 47.11 28.9 47.11 29.22 47.05 29.53 46.91 29.73 46.72 29.79 46.58 29.79 46.39 29.73 46.33 29.59"/><polyline class="a" points="54 28.71 54.12 28.65 54.32 28.46 54.32 29.79"/><polygon class="a" points="55.49 28.46 55.3 28.52 55.16 28.71 55.1 29.03 55.1 29.22 55.16 29.53 55.3 29.73 55.49 29.79 55.63 29.79 55.82 29.73 55.95 29.53 56.02 29.22 56.02 29.03 55.95 28.71 55.82 28.52 55.63 28.46 55.49 28.46"/><polyline class="a" points="62.66 28.71 62.79 28.65 62.98 28.46 62.98 29.79"/><polyline class="a" points="63.96 28.71 64.08 28.65 64.29 28.46 64.29 29.79"/><polyline class="a" points="72.07 28.71 72.19 28.65 72.39 28.46 72.39 29.79"/><polyline class="a" points="73.23 28.78 73.23 28.71 73.31 28.58 73.37 28.52 73.5 28.46 73.76 28.46 73.89 28.52 73.95 28.58 74.02 28.71 74.02 28.84 73.95 28.96 73.82 29.16 73.17 29.79 74.09 29.79"/><polyline class="a" points="81.93 28.71 82.07 28.65 82.25 28.46 82.25 29.79"/><polyline class="a" points="83.17 28.46 83.89 28.46 83.5 28.96 83.69 28.96 83.82 29.03 83.89 29.09 83.95 29.28 83.95 29.41 83.89 29.59 83.75 29.73 83.56 29.79 83.36 29.79 83.17 29.73 83.09 29.66 83.03 29.53"/><polyline class="a" points="102.59 28.71 102.73 28.65 102.92 28.46 102.92 29.79"/><polyline class="a" points="104.35 28.46 103.7 29.35 104.68 29.35"/><line class="a" x1="104.35" y1="28.46" x2="104.35" y2="29.79"/><polyline class="a" points="122.25 28.71 122.37 28.65 122.57 28.46 122.57 29.79"/><polyline class="a" points="124.13 28.46 123.47 28.46 123.41 29.03 123.47 28.96 123.67 28.9 123.86 28.9 124.06 28.96 124.19 29.09 124.25 29.28 124.25 29.41 124.19 29.59 124.06 29.73 123.86 29.79 123.67 29.79 123.47 29.73 123.41 29.66 123.35 29.53"/><polyline class="a" points="144.32 28.71 144.46 28.65 144.64 28.46 144.64 29.79"/><polyline class="a" points="146.27 28.65 146.2 28.52 146.01 28.46 145.88 28.46 145.69 28.52 145.56 28.71 145.48 29.03 145.48 29.35 145.56 29.59 145.69 29.73 145.88 29.79 145.95 29.79 146.14 29.73 146.27 29.59 146.34 29.41 146.34 29.35 146.27 29.16 146.14 29.03 145.95 28.96 145.88 28.96 145.69 29.03 145.56 29.16 145.48 29.35"/><polyline class="a" points="156.5 28.71 156.64 28.65 156.83 28.46 156.83 29.79"/><polyline class="a" points="157.87 29.79 158.52 28.46 157.62 28.46"/><polyline class="a" points="167.13 28.71 167.25 28.65 167.46 28.46 167.46 29.79"/><polygon class="a" points="168.56 28.46 168.37 28.52 168.3 28.65 168.3 28.78 168.37 28.9 168.5 28.96 168.76 29.03 168.95 29.09 169.09 29.22 169.15 29.35 169.15 29.53 169.09 29.66 169.01 29.73 168.82 29.79 168.56 29.79 168.37 29.73 168.3 29.66 168.23 29.53 168.23 29.35 168.3 29.22 168.43 29.09 168.62 29.03 168.89 28.96 169.01 28.9 169.09 28.78 169.09 28.65 169.01 28.52 168.82 28.46 168.56 28.46"/><line class="a" x1="36" y1="4.69" x2="36.71" y2="4.69"/><line class="a" x1="26.65" y1="31.43" x2="26.65" y2="35.13"/><line class="a" x1="31.96" y1="31.43" x2="31.96" y2="35.13"/><line class="a" x1="36" y1="31.43" x2="36" y2="35.13"/><line class="a" x1="36.71" y1="31.43" x2="36.71" y2="35.13"/><line class="a" x1="41.4" y1="31.43" x2="41.4" y2="35.13"/><line class="a" x1="43.82" y1="31.43" x2="43.82" y2="35.13"/><line class="a" x1="46.67" y1="31.43" x2="46.67" y2="35.13"/><line class="a" x1="54.99" y1="31.43" x2="54.99" y2="35.13"/><line class="a" x1="63.46" y1="31.43" x2="63.46" y2="35.13"/><line class="a" x1="73.06" y1="31.43" x2="73.06" y2="35.13"/><line class="a" x1="82.92" y1="31.43" x2="82.92" y2="35.13"/><line class="a" x1="103.62" y1="31.43" x2="103.62" y2="35.13"/><line class="a" x1="123.24" y1="31.43" x2="123.24" y2="35.13"/><line class="a" x1="145.31" y1="31.43" x2="145.31" y2="35.13"/><line class="a" x1="157.5" y1="31.43" x2="157.5" y2="35.13"/><line class="a" x1="168.12" y1="31.43" x2="168.12" y2="35.13"/><polyline class="a" points="23.95 32.93 23.95 32.89 23.98 32.79 24.03 32.76 24.12 32.71 24.31 32.71 24.4 32.76 24.43 32.79 24.48 32.89 24.48 32.98 24.43 33.06 24.35 33.2 23.89 33.64 24.53 33.64"/><polyline class="a" points="28.14 32.93 28.14 32.89 28.19 32.79 28.24 32.76 28.32 32.71 28.5 32.71 28.59 32.76 28.64 32.79 28.69 32.89 28.69 32.98 28.64 33.06 28.55 33.2 28.1 33.64 28.73 33.64"/><polygon class="a" points="29.09 33.55 29.04 33.59 29.09 33.64 29.14 33.59 29.09 33.55"/><polyline class="a" points="29.49 32.93 29.49 32.89 29.54 32.79 29.59 32.76 29.68 32.71 29.86 32.71 29.94 32.76 29.99 32.79 30.03 32.89 30.03 32.98 29.99 33.06 29.91 33.2 29.45 33.64 30.08 33.64"/><polyline class="a" points="32.89 32.89 32.98 32.84 33.12 32.71 33.12 33.64"/><polygon class="a" points="33.74 33.55 33.71 33.59 33.74 33.64 33.8 33.59 33.74 33.55"/><polyline class="a" points="34.28 33.64 34.74 32.71 34.11 32.71"/><polygon class="a" points="36.28 33.12 36.24 33.17 36.28 33.22 36.33 33.17 36.28 33.12"/><polyline class="a" points="38.9 32.93 38.9 32.89 38.95 32.79 38.99 32.76 39.09 32.71 39.27 32.71 39.35 32.76 39.4 32.79 39.44 32.89 39.44 32.98 39.4 33.06 39.32 33.2 38.86 33.64 39.49 33.64"/><polyline class="a" points="42.47 32.96 42.55 32.92 42.69 32.78 42.69 33.71"/><polyline class="a" points="44.16 32.89 44.25 32.84 44.38 32.71 44.38 33.64"/><polygon class="a" points="45.01 33.55 44.98 33.59 45.01 33.64 45.06 33.59 45.01 33.55"/><polyline class="a" points="45.43 32.93 45.43 32.89 45.46 32.79 45.51 32.76 45.6 32.71 45.79 32.71 45.88 32.76 45.92 32.79 45.97 32.89 45.97 32.98 45.92 33.06 45.83 33.2 45.38 33.64 46.02 33.64"/><polyline class="a" points="49.51 32.71 49.99 32.71 49.73 33.06 49.87 33.06 49.96 33.11 49.99 33.15 50.04 33.28 50.04 33.37 49.99 33.5 49.91 33.59 49.77 33.64 49.64 33.64 49.51 33.59 49.45 33.55 49.42 33.45"/><polygon class="a" points="50.41 33.55 50.36 33.59 50.41 33.64 50.45 33.59 50.41 33.55"/><path class="a" d="M51.31,32.71h-.45l-.05.4.05,0c.78-.3.66.92-.05.49l0-.1"/><polyline class="a" points="58.35 32.71 58.84 32.71 58.58 33.06 58.7 33.06 58.8 33.11 58.84 33.15 58.89 33.28 58.89 33.37 58.84 33.5 58.75 33.59 58.61 33.64 58.48 33.64 58.35 33.59 58.3 33.55 58.25 33.45"/><polygon class="a" points="59.25 33.55 59.2 33.59 59.25 33.64 59.29 33.59 59.25 33.55"/><polyline class="a" points="60.2 32.84 60.15 32.76 60.02 32.71 59.92 32.71 59.79 32.76 59.71 32.89 59.66 33.11 59.66 33.33 59.71 33.5 59.79 33.59 59.92 33.64 59.97 33.64 60.11 33.59 60.2 33.5 60.25 33.37 60.25 33.33 60.2 33.2 60.11 33.11 59.97 33.06 59.92 33.06 59.79 33.11 59.71 33.2 59.66 33.33"/><polyline class="a" points="67.36 32.71 66.91 33.33 67.59 33.33"/><line class="a" x1="67.36" y1="32.71" x2="67.36" y2="33.64"/><polygon class="a" points="67.91 33.55 67.86 33.59 67.91 33.64 67.95 33.59 67.91 33.55"/><polyline class="a" points="68.4 32.89 68.49 32.84 68.63 32.71 68.63 33.64"/><polyline class="a" points="77.5 32.71 77.05 33.33 77.72 33.33"/><line class="a" x1="77.5" y1="32.71" x2="77.5" y2="33.64"/><polygon class="a" points="78.04 33.55 78 33.59 78.04 33.64 78.09 33.59 78.04 33.55"/><polyline class="a" points="78.45 32.93 78.45 32.89 78.49 32.79 78.54 32.76 78.63 32.71 78.82 32.71 78.9 32.76 78.94 32.79 78.99 32.89 78.99 32.98 78.94 33.06 78.85 33.2 78.4 33.64 79.04 33.64"/><polygon class="a" points="92.33 32.71 92.19 32.76 92.14 32.84 92.14 32.93 92.19 33.01 92.28 33.06 92.47 33.11 92.59 33.15 92.69 33.23 92.73 33.33 92.73 33.45 92.69 33.55 92.64 33.59 92.51 33.64 92.33 33.64 92.19 33.59 92.14 33.55 92.11 33.45 92.11 33.33 92.14 33.23 92.24 33.15 92.37 33.11 92.56 33.06 92.64 33.01 92.69 32.93 92.69 32.84 92.64 32.76 92.51 32.71 92.33 32.71"/><polygon class="a" points="93.1 33.55 93.05 33.59 93.1 33.64 93.15 33.59 93.1 33.55"/><polyline class="a" points="93.64 33.64 94.09 32.71 93.46 32.71"/><polygon class="a" points="112.83 32.71 112.7 32.76 112.66 32.84 112.66 32.93 112.7 33.01 112.8 33.06 112.97 33.11 113.11 33.15 113.2 33.23 113.25 33.33 113.25 33.45 113.2 33.55 113.15 33.59 113.02 33.64 112.83 33.64 112.7 33.59 112.66 33.55 112.61 33.45 112.61 33.33 112.66 33.23 112.75 33.15 112.88 33.11 113.06 33.06 113.15 33.01 113.2 32.93 113.2 32.84 113.15 32.76 113.02 32.71 112.83 32.71"/><polygon class="a" points="113.6 33.55 113.56 33.59 113.6 33.64 113.65 33.59 113.6 33.55"/><polyline class="a" points="114.05 32.71 114.55 32.71 114.28 33.06 114.42 33.06 114.5 33.11 114.55 33.15 114.6 33.28 114.6 33.37 114.55 33.5 114.47 33.59 114.33 33.64 114.19 33.64 114.05 33.59 114.01 33.55 113.96 33.45"/><polyline class="a" points="134.57 33.01 134.52 33.15 134.43 33.23 134.29 33.28 134.25 33.28 134.12 33.23 134.03 33.15 133.98 33.01 133.98 32.98 134.03 32.84 134.12 32.76 134.25 32.71 134.29 32.71 134.43 32.76 134.52 32.84 134.57 33.01 134.57 33.23 134.52 33.45 134.43 33.59 134.29 33.64 134.2 33.64 134.06 33.59 134.03 33.5"/><polygon class="a" points="134.97 33.55 134.93 33.59 134.97 33.64 135.02 33.59 134.97 33.55"/><polyline class="a" points="135.42 32.71 135.92 32.71 135.65 33.06 135.78 33.06 135.87 33.11 135.92 33.15 135.96 33.28 135.96 33.37 135.92 33.5 135.83 33.59 135.7 33.64 135.56 33.64 135.42 33.59 135.38 33.55 135.33 33.45"/><polyline class="a" points="150.96 32.71 150.5 32.71 150.47 33.11 150.5 33.06 150.64 33.01 150.78 33.01 150.92 33.06 151 33.15 151.04 33.28 151.04 33.37 151 33.5 150.92 33.59 150.78 33.64 150.64 33.64 150.5 33.59 150.47 33.55 150.41 33.45"/><polygon class="a" points="151.41 33.55 151.37 33.59 151.41 33.64 151.46 33.59 151.41 33.55"/><polyline class="a" points="151.91 32.89 152 32.84 152.13 32.71 152.13 33.64"/><polyline class="a" points="162.05 32.71 161.59 33.33 162.27 33.33"/><line class="a" x1="162.05" y1="32.71" x2="162.05" y2="33.64"/><polygon class="a" points="162.59 33.55 162.54 33.59 162.59 33.64 162.62 33.59 162.59 33.55"/><path class="a" d="M163.49,32.71H163l-.05.4.05,0c.78-.3.66.92-.05.49l0-.1"/><polyline class="a" points="21.45 38.8 21.39 38.72 21.2 38.59 22.5 38.59"/><polygon class="a" points="22.38 37.99 22.44 38.04 22.5 37.99 22.44 37.96 22.38 37.99"/><polyline class="a" points="21.2 37.15 21.2 37.58 21.76 37.62 21.7 37.58 21.64 37.45 21.64 37.32 21.7 37.19 21.82 37.12 22.01 37.07 22.14 37.07 22.31 37.12 22.44 37.19 22.5 37.32 22.5 37.45 22.44 37.58 22.38 37.62 22.25 37.66"/><polyline class="a" points="25.96 38.78 25.96 38.31 26.47 38.57 26.47 38.45 26.53 38.36 26.59 38.31 26.78 38.28 26.89 38.28 27.08 38.31 27.21 38.4 27.27 38.53 27.27 38.65 27.21 38.78 27.14 38.83 27.02 38.86"/><polygon class="a" points="27.14 37.93 27.21 37.98 27.27 37.93 27.21 37.9 27.14 37.93"/><path class="a" d="M26,37.09v.42l.56,0-.06,0c-.43-.75,1.31-.6.68,0l-.13,0"/><path class="a" d="M31.27,38.36v.42l.56,0-.06,0c-.42-.72,1.27-.64.69,0l-.13,0"/><polygon class="a" points="32.47 37.93 32.52 37.98 32.58 37.93 32.52 37.9 32.47 37.93"/><polygon class="a" points="31.27 37.38 31.34 37.51 31.46 37.55 31.59 37.55 31.71 37.51 31.77 37.43 31.84 37.26 31.9 37.13 32.02 37.04 32.15 37.01 32.34 37.01 32.47 37.04 32.52 37.09 32.58 37.21 32.58 37.38 32.52 37.51 32.47 37.55 32.34 37.59 32.15 37.59 32.02 37.55 31.9 37.47 31.84 37.35 31.77 37.18 31.71 37.09 31.59 37.04 31.46 37.04 31.34 37.09 31.27 37.21 31.27 37.38"/><polyline class="a" points="36.1 38.69 34.8 38.28 34.8 38.86"/><polygon class="a" points="35.98 37.93 36.04 37.98 36.1 37.93 36.04 37.9 35.98 37.93"/><path class="a" d="M34.8,37.09v.42l.55,0-.05,0c-.43-.75,1.31-.6.68,0l-.13,0"/><polyline class="a" points="37.61 38.69 36.3 38.28 36.3 38.86"/><polygon class="a" points="37.48 37.93 37.55 37.98 37.61 37.93 37.55 37.9 37.48 37.93"/><polygon class="a" points="36.3 37.38 36.37 37.51 36.49 37.55 36.62 37.55 36.74 37.51 36.81 37.43 36.87 37.26 36.93 37.13 37.06 37.04 37.18 37.01 37.37 37.01 37.48 37.04 37.55 37.09 37.61 37.21 37.61 37.38 37.55 37.51 37.48 37.55 37.37 37.59 37.18 37.59 37.06 37.55 36.93 37.47 36.87 37.35 36.81 37.18 36.74 37.09 36.62 37.04 36.49 37.04 36.37 37.09 36.3 37.21 36.3 37.38"/><polyline class="a" points="41.19 38.31 41.37 38.36 41.5 38.45 41.56 38.57 41.56 38.62 41.5 38.74 41.37 38.83 41.19 38.86 41.12 38.86 40.93 38.83 40.81 38.74 40.75 38.62 40.75 38.57 40.81 38.45 40.93 38.36 41.19 38.31 41.5 38.31 41.81 38.36 41.99 38.45 42.05 38.57 42.05 38.65 41.99 38.78 41.88 38.83"/><polygon class="a" points="41.94 37.93 41.99 37.98 42.05 37.93 41.99 37.9 41.94 37.93"/><polyline class="a" points="42.05 37.43 40.75 37.01 40.75 37.59"/><polyline class="a" points="43.44 39.23 43.38 39.14 43.19 39.01 44.5 39.01"/><polygon class="a" points="43.19 38.25 43.26 38.37 43.44 38.46 43.76 38.51 43.95 38.51 44.26 38.46 44.44 38.37 44.5 38.25 44.5 38.17 44.44 38.04 44.26 37.96 43.95 37.91 43.76 37.91 43.44 37.96 43.26 38.04 43.19 38.17 43.19 38.25"/><polygon class="a" points="44.37 37.58 44.44 37.62 44.5 37.58 44.44 37.53 44.37 37.58"/><path class="a" d="M43.19,37l.06.12.13,0h.13l.13,0,.06-.09.06-.17.06-.12.13-.09.13,0h.19l.11,0,.06,0,.06.13V37l-.06.12c-.92.42-.45-.72-1.18-.43l-.06.13Z"/><polyline class="a" points="46.23 38.59 46.17 38.51 45.98 38.37 47.28 38.37"/><polyline class="a" points="46.29 37.82 46.23 37.82 46.1 37.79 46.04 37.75 45.98 37.66 45.98 37.49 46.04 37.41 46.1 37.36 46.23 37.32 46.35 37.32 46.48 37.36 46.67 37.45 47.28 37.87 47.28 37.27"/><polyline class="a" points="54.55 39.23 54.49 39.14 54.3 39.01 55.6 39.01"/><polyline class="a" points="54.3 37.99 54.3 38.42 54.86 38.46 54.8 38.42 54.74 38.3 54.74 38.17 54.8 38.04 54.92 37.96 55.11 37.91 55.24 37.91 55.43 37.96 55.54 38.04 55.6 38.17 55.6 38.3 55.54 38.42 55.48 38.46 55.37 38.51"/><polygon class="a" points="55.48 37.58 55.54 37.62 55.6 37.58 55.54 37.53 55.48 37.58"/><polyline class="a" points="54.3 36.73 54.3 37.15 54.86 37.19 54.8 37.15 54.74 37.03 54.74 36.9 54.8 36.77 54.92 36.69 55.11 36.64 55.24 36.64 55.43 36.69 55.54 36.77 55.6 36.9 55.6 37.03 55.54 37.15 55.48 37.19 55.37 37.24"/><polyline class="a" points="63.02 38.57 62.96 38.48 62.77 38.36 64.07 38.36"/><polyline class="a" points="63.21 37.3 63.4 37.35 63.51 37.43 63.57 37.55 63.57 37.59 63.51 37.73 63.4 37.81 63.21 37.85 63.14 37.85 62.96 37.81 62.83 37.73 62.77 37.59 62.77 37.55 62.83 37.43 62.96 37.35 63.21 37.3 63.51 37.3 63.82 37.35 64.01 37.43 64.07 37.55 64.07 37.64 64.01 37.76 63.88 37.81"/><polyline class="a" points="72.68 39.12 72.62 39.12 72.49 39.08 72.43 39.03 72.37 38.95 72.37 38.78 72.43 38.69 72.49 38.65 72.62 38.62 72.74 38.62 72.87 38.65 73.06 38.74 73.67 39.17 73.67 38.57"/><polyline class="a" points="72.37 38.23 72.37 37.76 72.87 38.02 72.87 37.9 72.93 37.81 72.99 37.76 73.18 37.73 73.31 37.73 73.5 37.76 73.61 37.85 73.67 37.98 73.67 38.1 73.61 38.23 73.55 38.28 73.43 38.31"/><polygon class="a" points="73.55 37.38 73.61 37.43 73.67 37.38 73.61 37.35 73.55 37.38"/><polyline class="a" points="72.62 36.92 72.56 36.84 72.37 36.71 73.67 36.71"/><polyline class="a" points="82.54 39.25 82.48 39.25 82.36 39.2 82.31 39.17 82.24 39.08 82.24 38.91 82.31 38.83 82.36 38.78 82.48 38.74 82.61 38.74 82.73 38.78 82.92 38.86 83.55 39.29 83.55 38.69"/><polyline class="a" points="83.55 38.28 82.24 37.85 82.24 38.45"/><polygon class="a" points="83.42 37.51 83.48 37.55 83.55 37.51 83.48 37.47 83.42 37.51"/><polyline class="a" points="82.54 37.13 82.48 37.13 82.36 37.09 82.31 37.04 82.24 36.96 82.24 36.8 82.31 36.71 82.36 36.66 82.48 36.63 82.61 36.63 82.73 36.66 82.92 36.75 83.55 37.18 83.55 36.58"/><polyline class="a" points="102.93 38.57 102.93 38.1 103.44 38.36 103.44 38.23 103.5 38.14 103.56 38.1 103.75 38.07 103.88 38.07 104.05 38.1 104.18 38.19 104.24 38.31 104.24 38.45 104.18 38.57 104.11 38.62 103.99 38.65"/><polyline class="a" points="103.12 37.26 103 37.3 102.93 37.43 102.93 37.51 103 37.64 103.19 37.73 103.5 37.76 103.81 37.76 104.05 37.73 104.18 37.64 104.24 37.51 104.24 37.47 104.18 37.35 104.05 37.26 103.88 37.21 103.81 37.21 103.62 37.26 103.5 37.35 103.44 37.47 103.44 37.51 103.5 37.64 103.62 37.73 103.81 37.76"/><polyline class="a" points="122.55 38.86 123.41 39.29 123.41 38.65"/><line class="a" x1="122.55" y1="38.86" x2="123.85" y2="38.86"/><polyline class="a" points="122.55 38.02 123.41 38.45 123.41 37.81"/><line class="a" x1="122.55" y1="38.02" x2="123.85" y2="38.02"/><polygon class="a" points="123.73 37.51 123.79 37.55 123.85 37.51 123.79 37.47 123.73 37.51"/><polyline class="a" points="122.86 37.13 122.8 37.13 122.67 37.09 122.61 37.04 122.55 36.96 122.55 36.8 122.61 36.71 122.67 36.66 122.8 36.63 122.92 36.63 123.05 36.66 123.24 36.75 123.85 37.18 123.85 36.58"/><polyline class="a" points="144.63 38.78 144.63 39.2 145.18 39.25 145.12 39.2 145.06 39.08 145.06 38.95 145.12 38.83 145.25 38.74 145.43 38.69 145.56 38.69 145.75 38.74 145.87 38.83 145.92 38.95 145.92 39.08 145.87 39.2 145.81 39.25 145.69 39.29"/><polyline class="a" points="144.63 38.36 144.63 37.9 145.12 38.14 145.12 38.02 145.18 37.93 145.25 37.9 145.43 37.85 145.56 37.85 145.75 37.9 145.87 37.98 145.92 38.1 145.92 38.23 145.87 38.36 145.81 38.4 145.69 38.45"/><polygon class="a" points="145.81 37.51 145.87 37.55 145.92 37.51 145.87 37.47 145.81 37.51"/><polyline class="a" points="144.81 36.63 144.68 36.66 144.63 36.8 144.63 36.88 144.68 37.01 144.87 37.09 145.18 37.13 145.5 37.13 145.75 37.09 145.87 37.01 145.92 36.88 145.92 36.84 145.87 36.71 145.75 36.63 145.56 36.58 145.5 36.58 145.31 36.63 145.18 36.71 145.12 36.84 145.12 36.88 145.18 37.01 145.31 37.09 145.5 37.13"/><path class="a" d="M156.81,38.78v.43l.55,0-.06,0c-.4-.77,1.31-.6.69,0l-.13,0"/><path class="a" d="M156.81,38.23l.06.13.13,0h.13l.13,0,.05-.09.06-.17.06-.12.13-.09.13,0h.19l.13,0,.06,0,.06.13v.16l-.06.13c-.94.42-.46-.72-1.18-.43l-.06.13Z"/><polygon class="a" points="157.99 37.51 158.06 37.55 158.12 37.51 158.06 37.47 157.99 37.51"/><polyline class="a" points="158.12 37.01 156.81 36.58 156.81 37.18"/><polyline class="a" points="167.62 38.76 167.49 38.8 167.43 38.94 167.43 39.01 167.49 39.14 167.68 39.23 168 39.27 168.31 39.27 168.56 39.23 168.67 39.14 168.74 39.01 168.74 38.97 168.67 38.85 168.56 38.76 168.37 38.72 168.31 38.72 168.12 38.76 168 38.85 167.93 38.97 167.93 39.01 168 39.14 168.12 39.23 168.31 39.27"/><polyline class="a" points="167.43 38.37 167.43 37.91 167.93 38.17 167.93 38.04 168 37.96 168.06 37.91 168.25 37.87 168.37 37.87 168.56 37.91 168.67 37.99 168.74 38.13 168.74 38.25 168.67 38.37 168.62 38.42 168.5 38.46"/><polygon class="a" points="168.62 37.53 168.67 37.58 168.74 37.53 168.67 37.49 168.62 37.53"/><polyline class="a" points="167.74 37.15 167.68 37.15 167.56 37.12 167.49 37.07 167.43 36.98 167.43 36.81 167.49 36.73 167.56 36.69 167.68 36.64 167.81 36.64 167.93 36.69 168.12 36.77 168.74 37.19 168.74 36.6"/><polyline class="a" points="21.5 45.61 21.43 45.53 21.25 45.41 22.55 45.41"/><path class="a" d="M21.25,44.69l.06.13.13,0h.11l.13,0,.06-.09.06-.17.06-.13.13-.09.13,0h.19l.13,0,.06,0,.06.12v.17l-.06.13c-.92.43-.5-.75-1.18-.43l-.06.12Z"/><polyline class="a" points="21.67 43.5 21.86 43.55 21.99 43.64 22.05 43.76 22.05 43.8 21.99 43.93 21.86 44.02 21.67 44.05 21.61 44.05 21.43 44.02 21.31 43.93 21.25 43.8 21.25 43.76 21.31 43.64 21.43 43.55 21.67 43.5 21.99 43.5 22.3 43.55 22.49 43.64 22.55 43.76 22.55 43.84 22.49 43.97 22.36 44.02"/><polygon class="a" points="22.43 43.12 22.49 43.16 22.55 43.12 22.49 43.09 22.43 43.12"/><polyline class="a" points="21.43 42.23 21.31 42.28 21.25 42.4 21.25 42.49 21.31 42.61 21.5 42.7 21.8 42.74 22.11 42.74 22.36 42.7 22.49 42.61 22.55 42.49 22.55 42.45 22.49 42.32 22.36 42.23 22.18 42.2 22.11 42.2 21.92 42.23 21.8 42.32 21.74 42.45 21.74 42.49 21.8 42.61 21.92 42.7 22.11 42.74"/><polygon class="a" points="21.25 41.73 21.31 41.85 21.43 41.9 21.55 41.9 21.67 41.85 21.74 41.77 21.8 41.6 21.86 41.48 21.99 41.39 22.11 41.35 22.3 41.35 22.43 41.39 22.49 41.43 22.55 41.56 22.55 41.73 22.49 41.85 22.43 41.9 22.3 41.94 22.11 41.94 21.99 41.9 21.86 41.82 21.8 41.68 21.74 41.51 21.67 41.43 21.55 41.39 21.43 41.39 21.31 41.43 21.25 41.56 21.25 41.73"/><polyline class="a" points="26.25 45.61 26.19 45.53 26.02 45.41 27.32 45.41"/><polyline class="a" points="26.44 44.34 26.63 44.39 26.75 44.48 26.82 44.6 26.82 44.65 26.75 44.77 26.63 44.86 26.44 44.91 26.38 44.91 26.19 44.86 26.08 44.77 26.02 44.65 26.02 44.6 26.08 44.48 26.19 44.39 26.44 44.34 26.75 44.34 27.07 44.39 27.26 44.48 27.32 44.6 27.32 44.69 27.26 44.82 27.13 44.86"/><polygon class="a" points="26.02 43.8 26.08 43.93 26.25 44.02 26.57 44.05 26.75 44.05 27.07 44.02 27.26 43.93 27.32 43.8 27.32 43.72 27.26 43.59 27.07 43.5 26.75 43.47 26.57 43.47 26.25 43.5 26.08 43.59 26.02 43.72 26.02 43.8"/><polygon class="a" points="27.19 43.12 27.26 43.16 27.32 43.12 27.26 43.09 27.19 43.12"/><polygon class="a" points="26.02 42.54 26.08 42.66 26.25 42.74 26.57 42.78 26.75 42.78 27.07 42.74 27.26 42.66 27.32 42.54 27.32 42.45 27.26 42.32 27.07 42.23 26.75 42.2 26.57 42.2 26.25 42.23 26.08 42.32 26.02 42.45 26.02 42.54"/><polyline class="a" points="26.19 41.39 26.08 41.43 26.02 41.56 26.02 41.65 26.08 41.77 26.25 41.85 26.57 41.9 26.88 41.9 27.13 41.85 27.26 41.77 27.32 41.65 27.32 41.6 27.26 41.48 27.13 41.39 26.94 41.35 26.88 41.35 26.69 41.39 26.57 41.48 26.5 41.6 26.5 41.65 26.57 41.77 26.69 41.85 26.88 41.9"/><polyline class="a" points="31.57 45.49 31.51 45.41 31.32 45.28 32.63 45.28"/><polyline class="a" points="31.76 44.22 31.94 44.27 32.06 44.34 32.13 44.48 32.13 44.52 32.06 44.65 31.94 44.73 31.76 44.77 31.7 44.77 31.51 44.73 31.39 44.65 31.32 44.52 31.32 44.48 31.39 44.34 31.51 44.27 31.76 44.22 32.06 44.22 32.38 44.27 32.56 44.34 32.63 44.48 32.63 44.56 32.56 44.69 32.44 44.73"/><polygon class="a" points="31.32 43.67 31.39 43.8 31.57 43.88 31.88 43.93 32.06 43.93 32.38 43.88 32.56 43.8 32.63 43.67 32.63 43.59 32.56 43.47 32.38 43.38 32.06 43.33 31.88 43.33 31.57 43.38 31.39 43.47 31.32 43.59 31.32 43.67"/><polygon class="a" points="32.5 43 32.56 43.04 32.63 43 32.56 42.95 32.5 43"/><polyline class="a" points="32.63 42.49 31.32 42.06 31.32 42.66"/><polyline class="a" points="31.57 41.68 31.51 41.6 31.32 41.48 32.63 41.48"/><polyline class="a" points="35.09 45.6 35.02 45.52 34.84 45.38 36.14 45.38"/><path class="a" d="M34.84,44.66l.06.13.13,0h.13l.13,0,.06-.09.06-.17.05-.12.13-.09.13,0h.19l.13,0,.06,0,.06.13v.16l-.06.13c-1,.41-.43-.71-1.18-.43l-.06.13Z"/><polyline class="a" points="35.27 43.48 35.45 43.53 35.58 43.61 35.64 43.73 35.64 43.78 35.58 43.91 35.45 43.99 35.27 44.04 35.21 44.04 35.02 43.99 34.9 43.91 34.84 43.78 34.84 43.73 34.9 43.61 35.02 43.53 35.27 43.48 35.58 43.48 35.89 43.53 36.08 43.61 36.14 43.73 36.14 43.82 36.08 43.95 35.95 43.99"/><polygon class="a" points="36.02 43.1 36.08 43.15 36.14 43.1 36.08 43.06 36.02 43.1"/><polyline class="a" points="34.84 42.26 34.84 42.68 35.4 42.72 35.34 42.68 35.27 42.55 35.27 42.43 35.34 42.29 35.45 42.22 35.64 42.17 35.77 42.17 35.95 42.22 36.08 42.29 36.14 42.43 36.14 42.55 36.08 42.68 36.02 42.72 35.89 42.77"/><polyline class="a" points="35.27 41.37 35.45 41.41 35.58 41.5 35.64 41.62 35.64 41.66 35.58 41.79 35.45 41.88 35.27 41.91 35.21 41.91 35.02 41.88 34.9 41.79 34.84 41.66 34.84 41.62 34.9 41.5 35.02 41.41 35.27 41.37 35.58 41.37 35.89 41.41 36.08 41.5 36.14 41.62 36.14 41.71 36.08 41.83 35.95 41.88"/><polyline class="a" points="36.64 45.6 36.58 45.52 36.39 45.38 37.7 45.38"/><path class="a" d="M36.39,44.66l.06.13.13,0h.13l.13,0,.06-.09.06-.17.06-.12.11-.09.13,0h.19l.13,0,.06,0,.06.13v.16l-.06.13c-.92.42-.45-.72-1.18-.43l-.06.13Z"/><polyline class="a" points="36.83 43.48 37.02 43.53 37.13 43.61 37.2 43.73 37.2 43.78 37.13 43.91 37.02 43.99 36.83 44.04 36.77 44.04 36.58 43.99 36.45 43.91 36.39 43.78 36.39 43.73 36.45 43.61 36.58 43.53 36.83 43.48 37.13 43.48 37.45 43.53 37.63 43.61 37.7 43.73 37.7 43.82 37.63 43.95 37.51 43.99"/><polygon class="a" points="37.57 43.1 37.63 43.15 37.7 43.1 37.63 43.06 37.57 43.1"/><polyline class="a" points="36.39 42.26 36.39 42.68 36.96 42.72 36.89 42.68 36.83 42.55 36.83 42.43 36.89 42.29 37.02 42.22 37.2 42.17 37.32 42.17 37.51 42.22 37.63 42.29 37.7 42.43 37.7 42.55 37.63 42.68 37.57 42.72 37.45 42.77"/><polyline class="a" points="36.83 41.37 37.02 41.41 37.13 41.5 37.2 41.62 37.2 41.66 37.13 41.79 37.02 41.88 36.83 41.91 36.77 41.91 36.58 41.88 36.45 41.79 36.39 41.66 36.39 41.62 36.45 41.5 36.58 41.41 36.83 41.37 37.13 41.37 37.45 41.41 37.63 41.5 37.7 41.62 37.7 41.71 37.63 41.83 37.51 41.88"/><polyline class="a" points="41 45.61 40.94 45.53 40.75 45.41 42.05 45.41"/><polygon class="a" points="40.75 44.69 40.81 44.82 40.94 44.86 41.06 44.86 41.19 44.82 41.25 44.73 41.31 44.56 41.37 44.43 41.5 44.34 41.63 44.31 41.81 44.31 41.94 44.34 41.99 44.39 42.05 44.52 42.05 44.69 41.99 44.82 41.94 44.86 41.81 44.91 41.63 44.91 41.5 44.86 41.37 44.77 41.31 44.65 41.25 44.48 41.19 44.39 41.06 44.34 40.94 44.34 40.81 44.39 40.75 44.52 40.75 44.69"/><polyline class="a" points="41.19 43.5 41.37 43.55 41.5 43.64 41.56 43.76 41.56 43.8 41.5 43.93 41.37 44.02 41.19 44.05 41.12 44.05 40.93 44.02 40.81 43.93 40.75 43.8 40.75 43.76 40.81 43.64 40.93 43.55 41.19 43.5 41.5 43.5 41.81 43.55 41.99 43.64 42.05 43.76 42.05 43.84 41.99 43.97 41.88 44.02"/><polygon class="a" points="41.94 43.12 41.99 43.16 42.05 43.12 41.99 43.09 41.94 43.12"/><path class="a" d="M40.75,42.28v.42l.56,0-.06,0c-.42-.72,1.27-.64.69,0l-.13,0"/><polyline class="a" points="40.94 41.39 40.81 41.43 40.75 41.56 40.75 41.65 40.81 41.77 41 41.85 41.31 41.9 41.63 41.9 41.88 41.85 41.99 41.77 42.05 41.65 42.05 41.6 41.99 41.48 41.88 41.39 41.69 41.35 41.63 41.35 41.44 41.39 41.31 41.48 41.25 41.6 41.25 41.65 41.31 41.77 41.44 41.85 41.63 41.9"/><polyline class="a" points="43.49 45.61 43.43 45.53 43.24 45.41 44.55 45.41"/><path class="a" d="M43.24,44.69l.06.13.13,0h.13l.13,0,.06-.09.06-.17.06-.13.13-.09.13,0h.19l.11,0,.06,0,.06.12v.17l-.06.13c-.9.43-.49-.76-1.18-.43l-.06.12Z"/><polyline class="a" points="43.68 43.5 43.87 43.55 44 43.64 44.06 43.76 44.06 43.8 44 43.93 43.87 44.02 43.68 44.05 43.62 44.05 43.43 44.02 43.31 43.93 43.24 43.8 43.24 43.76 43.31 43.64 43.43 43.55 43.68 43.5 44 43.5 44.31 43.55 44.49 43.64 44.55 43.76 44.55 43.84 44.49 43.97 44.36 44.02"/><polygon class="a" points="44.42 43.12 44.49 43.16 44.55 43.12 44.49 43.09 44.42 43.12"/><polyline class="a" points="43.43 42.23 43.31 42.28 43.24 42.4 43.24 42.49 43.31 42.61 43.49 42.7 43.81 42.74 44.12 42.74 44.36 42.7 44.49 42.61 44.55 42.49 44.55 42.45 44.49 42.32 44.36 42.23 44.18 42.2 44.12 42.2 43.93 42.23 43.81 42.32 43.74 42.45 43.74 42.49 43.81 42.61 43.93 42.7 44.12 42.74"/><polyline class="a" points="44.55 41.77 43.24 41.35 43.24 41.94"/><polyline class="a" points="46.27 45.61 46.2 45.53 46.03 45.41 47.32 45.41"/><polyline class="a" points="46.46 44.34 46.64 44.39 46.77 44.48 46.83 44.6 46.83 44.65 46.77 44.77 46.64 44.86 46.46 44.91 46.39 44.91 46.2 44.86 46.08 44.77 46.03 44.65 46.03 44.6 46.08 44.48 46.2 44.39 46.46 44.34 46.77 44.34 47.08 44.39 47.27 44.48 47.32 44.6 47.32 44.69 47.27 44.82 47.15 44.86"/><polygon class="a" points="46.03 43.8 46.08 43.93 46.27 44.02 46.58 44.05 46.77 44.05 47.08 44.02 47.27 43.93 47.32 43.8 47.32 43.72 47.27 43.59 47.08 43.5 46.77 43.47 46.58 43.47 46.27 43.5 46.08 43.59 46.03 43.72 46.03 43.8"/><polygon class="a" points="47.21 43.12 47.27 43.16 47.32 43.12 47.27 43.09 47.21 43.12"/><polyline class="a" points="47.32 42.61 46.03 42.2 46.03 42.78"/><path class="a" d="M46,41.73l.05.12.13,0c.56.09.15-.83,1.07-.48l.05.13v.17l-.05.12-.06,0-.13,0h-.19l-.13,0-.13-.09-.06-.13-.06-.17-.06-.09-.13,0H46.2l-.13,0-.05.13Z"/><polyline class="a" points="54.6 45.64 54.54 45.55 54.35 45.43 55.65 45.43"/><polygon class="a" points="54.35 44.71 54.41 44.83 54.54 44.88 54.66 44.88 54.77 44.83 54.84 44.75 54.9 44.59 54.96 44.45 55.09 44.37 55.21 44.33 55.4 44.33 55.53 44.37 55.59 44.42 55.65 44.54 55.65 44.71 55.59 44.83 55.53 44.88 55.4 44.92 55.21 44.92 55.09 44.88 54.96 44.8 54.9 44.66 54.84 44.5 54.77 44.42 54.66 44.37 54.54 44.37 54.41 44.42 54.35 44.54 54.35 44.71"/><polyline class="a" points="54.77 43.53 54.96 43.56 55.09 43.65 55.15 43.78 55.15 43.82 55.09 43.95 54.96 44.04 54.77 44.08 54.73 44.08 54.54 44.04 54.41 43.95 54.35 43.82 54.35 43.78 54.41 43.65 54.54 43.56 54.77 43.53 55.09 43.53 55.4 43.56 55.59 43.65 55.65 43.78 55.65 43.87 55.59 43.99 55.47 44.04"/><polygon class="a" points="55.53 43.15 55.59 43.18 55.65 43.15 55.59 43.1 55.53 43.15"/><polyline class="a" points="54.35 42.72 54.35 42.26 54.84 42.51 54.84 42.38 54.9 42.29 54.96 42.26 55.15 42.22 55.28 42.22 55.47 42.26 55.59 42.34 55.65 42.46 55.65 42.6 55.59 42.72 55.53 42.77 55.4 42.81"/><polyline class="a" points="54.35 41.54 55.21 41.96 55.21 41.33"/><line class="a" x1="54.35" y1="41.54" x2="55.65" y2="41.54"/><polyline class="a" points="63.06 45.2 62.99 45.11 62.81 44.98 64.11 44.98"/><polygon class="a" points="62.81 44.27 62.87 44.39 62.99 44.43 63.12 44.43 63.24 44.39 63.31 44.31 63.37 44.14 63.43 44.02 63.56 43.93 63.68 43.88 63.87 43.88 64 43.93 64.05 43.97 64.11 44.1 64.11 44.27 64.05 44.39 64 44.43 63.87 44.48 63.68 44.48 63.56 44.43 63.43 44.34 63.37 44.22 63.31 44.05 63.24 43.97 63.12 43.93 62.99 43.93 62.87 43.97 62.81 44.1 62.81 44.27"/><polyline class="a" points="63.24 43.09 63.43 43.12 63.56 43.21 63.62 43.33 63.62 43.38 63.56 43.5 63.43 43.59 63.24 43.64 63.18 43.64 62.99 43.59 62.87 43.5 62.81 43.38 62.81 43.33 62.87 43.21 62.99 43.12 63.24 43.09 63.56 43.09 63.87 43.12 64.05 43.21 64.11 43.33 64.11 43.42 64.05 43.55 63.94 43.59"/><polygon class="a" points="64 42.7 64.05 42.74 64.11 42.7 64.05 42.66 64 42.7"/><polyline class="a" points="62.81 42.28 62.81 41.82 63.31 42.06 63.31 41.94 63.37 41.85 63.43 41.82 63.62 41.77 63.75 41.77 63.94 41.82 64.05 41.9 64.11 42.02 64.11 42.15 64.05 42.28 64 42.32 63.87 42.37"/><polyline class="a" points="72.67 45.64 72.61 45.55 72.42 45.43 73.72 45.43"/><polygon class="a" points="72.42 44.71 72.48 44.83 72.61 44.88 72.73 44.88 72.84 44.83 72.91 44.75 72.97 44.59 73.03 44.45 73.16 44.37 73.28 44.33 73.47 44.33 73.6 44.37 73.66 44.42 73.72 44.54 73.72 44.71 73.66 44.83 73.6 44.88 73.47 44.92 73.28 44.92 73.16 44.88 73.03 44.8 72.97 44.66 72.91 44.5 72.84 44.42 72.73 44.37 72.61 44.37 72.48 44.42 72.42 44.54 72.42 44.71"/><polyline class="a" points="72.84 43.53 73.03 43.56 73.16 43.65 73.22 43.78 73.22 43.82 73.16 43.95 73.03 44.04 72.84 44.08 72.79 44.08 72.61 44.04 72.48 43.95 72.42 43.82 72.42 43.78 72.48 43.65 72.61 43.56 72.84 43.53 73.16 43.53 73.47 43.56 73.66 43.65 73.72 43.78 73.72 43.87 73.66 43.99 73.53 44.04"/><polygon class="a" points="73.6 43.15 73.66 43.18 73.72 43.15 73.66 43.1 73.6 43.15"/><polygon class="a" points="72.42 42.55 72.48 42.68 72.67 42.77 72.97 42.81 73.16 42.81 73.47 42.77 73.66 42.68 73.72 42.55 73.72 42.46 73.66 42.34 73.47 42.26 73.16 42.22 72.97 42.22 72.67 42.26 72.48 42.34 72.42 42.46 72.42 42.55"/><polyline class="a" points="72.42 41.54 73.28 41.96 73.28 41.33"/><line class="a" x1="72.42" y1="41.54" x2="73.72" y2="41.54"/><polyline class="a" points="82.53 45.64 82.47 45.55 82.28 45.43 83.58 45.43"/><polygon class="a" points="82.28 44.71 82.34 44.83 82.47 44.88 82.59 44.88 82.72 44.83 82.78 44.75 82.84 44.59 82.89 44.45 83.02 44.37 83.15 44.33 83.33 44.33 83.46 44.37 83.52 44.42 83.58 44.54 83.58 44.71 83.52 44.83 83.46 44.88 83.33 44.92 83.15 44.92 83.02 44.88 82.89 44.8 82.84 44.66 82.78 44.5 82.72 44.42 82.59 44.37 82.47 44.37 82.34 44.42 82.28 44.54 82.28 44.71"/><polygon class="a" points="82.28 43.87 82.34 43.99 82.47 44.04 82.59 44.04 82.72 43.99 82.78 43.91 82.84 43.73 82.89 43.61 83.02 43.53 83.15 43.48 83.33 43.48 83.46 43.53 83.52 43.56 83.58 43.7 83.58 43.87 83.52 43.99 83.46 44.04 83.33 44.08 83.15 44.08 83.02 44.04 82.89 43.95 82.84 43.82 82.78 43.65 82.72 43.56 82.59 43.53 82.47 43.53 82.34 43.56 82.28 43.7 82.28 43.87"/><polygon class="a" points="83.46 43.15 83.52 43.18 83.58 43.15 83.52 43.1 83.46 43.15"/><polygon class="a" points="82.28 42.6 82.34 42.72 82.47 42.77 82.59 42.77 82.72 42.72 82.78 42.63 82.84 42.46 82.89 42.34 83.02 42.26 83.15 42.22 83.33 42.22 83.46 42.26 83.52 42.29 83.58 42.43 83.58 42.6 83.52 42.72 83.46 42.77 83.33 42.81 83.15 42.81 83.02 42.77 82.89 42.68 82.84 42.55 82.78 42.38 82.72 42.29 82.59 42.26 82.47 42.26 82.34 42.29 82.28 42.43 82.28 42.6"/><polyline class="a" points="82.28 41.54 83.15 41.96 83.15 41.33"/><line class="a" x1="82.28" y1="41.54" x2="83.58" y2="41.54"/><polyline class="a" points="103.23 45.49 103.17 45.41 102.98 45.28 104.29 45.28"/><polygon class="a" points="102.98 44.56 103.05 44.69 103.17 44.73 103.28 44.73 103.41 44.69 103.47 44.6 103.54 44.43 103.6 44.31 103.72 44.22 103.85 44.19 104.04 44.19 104.16 44.22 104.23 44.27 104.29 44.39 104.29 44.56 104.23 44.69 104.16 44.73 104.04 44.77 103.85 44.77 103.72 44.73 103.6 44.65 103.54 44.52 103.47 44.34 103.41 44.27 103.28 44.22 103.17 44.22 103.05 44.27 102.98 44.39 102.98 44.56"/><path class="a" d="M103,43.72l.06.12.13,0h.11l.13,0,.06-.09.06-.17.06-.12.13-.09.13,0H104l.13,0,.06,0,.06.13v.17l-.06.12c-.92.42-.48-.71-1.18-.43l-.06.13Z"/><polygon class="a" points="104.16 43 104.23 43.04 104.29 43 104.23 42.95 104.16 43"/><polyline class="a" points="103.17 42.11 103.05 42.15 102.98 42.28 102.98 42.37 103.05 42.49 103.23 42.57 103.54 42.61 103.85 42.61 104.1 42.57 104.23 42.49 104.29 42.37 104.29 42.32 104.23 42.2 104.1 42.11 103.91 42.06 103.85 42.06 103.66 42.11 103.54 42.2 103.47 42.32 103.47 42.37 103.54 42.49 103.66 42.57 103.85 42.61"/><polyline class="a" points="103.23 41.68 103.17 41.6 102.98 41.48 104.29 41.48"/><polyline class="a" points="122.83 45.61 122.77 45.53 122.6 45.41 123.9 45.41"/><path class="a" d="M122.6,44.69l.06.13.11,0h.13l.13,0,.06-.09.06-.17.06-.13.13-.09.13,0h.19l.13,0,.06,0,.06.12v.17l-.06.13c-.92.43-.5-.75-1.18-.43l-.06.12Z"/><polygon class="a" points="122.6 43.84 122.66 43.97 122.77 44.02 122.9 44.02 123.02 43.97 123.09 43.88 123.15 43.72 123.21 43.59 123.34 43.5 123.46 43.47 123.65 43.47 123.78 43.5 123.84 43.55 123.9 43.67 123.9 43.84 123.84 43.97 123.78 44.02 123.65 44.05 123.46 44.05 123.34 44.02 123.21 43.93 123.15 43.8 123.09 43.64 123.02 43.55 122.9 43.5 122.77 43.5 122.66 43.55 122.6 43.67 122.6 43.84"/><polygon class="a" points="123.78 43.12 123.84 43.16 123.9 43.12 123.84 43.09 123.78 43.12"/><polyline class="a" points="122.6 42.37 123.46 42.78 123.46 42.15"/><line class="a" x1="122.6" y1="42.37" x2="123.9" y2="42.37"/><polyline class="a" points="122.9 41.9 122.83 41.9 122.71 41.85 122.66 41.82 122.6 41.73 122.6 41.56 122.66 41.48 122.71 41.43 122.83 41.39 122.96 41.39 123.09 41.43 123.27 41.51 123.9 41.94 123.9 41.35"/><polyline class="a" points="144.92 45.64 144.86 45.55 144.67 45.43 145.97 45.43"/><polygon class="a" points="144.67 44.71 144.73 44.83 144.86 44.88 144.98 44.88 145.11 44.83 145.17 44.75 145.22 44.59 145.28 44.45 145.41 44.37 145.53 44.33 145.72 44.33 145.85 44.37 145.91 44.42 145.97 44.54 145.97 44.71 145.91 44.83 145.85 44.88 145.72 44.92 145.53 44.92 145.41 44.88 145.28 44.8 145.22 44.66 145.17 44.5 145.11 44.42 144.98 44.37 144.86 44.37 144.73 44.42 144.67 44.54 144.67 44.71"/><polygon class="a" points="144.67 43.87 144.73 43.99 144.86 44.04 144.98 44.04 145.11 43.99 145.17 43.91 145.22 43.73 145.28 43.61 145.41 43.53 145.53 43.48 145.72 43.48 145.85 43.53 145.91 43.56 145.97 43.7 145.97 43.87 145.91 43.99 145.85 44.04 145.72 44.08 145.53 44.08 145.41 44.04 145.28 43.95 145.22 43.82 145.17 43.65 145.11 43.56 144.98 43.53 144.86 43.53 144.73 43.56 144.67 43.7 144.67 43.87"/><polygon class="a" points="145.85 43.15 145.91 43.18 145.97 43.15 145.91 43.1 145.85 43.15"/><polyline class="a" points="144.98 42.77 144.92 42.77 144.79 42.72 144.73 42.68 144.67 42.6 144.67 42.43 144.73 42.34 144.79 42.29 144.92 42.26 145.04 42.26 145.17 42.29 145.35 42.38 145.97 42.81 145.97 42.22"/><polyline class="a" points="144.67 41.54 145.53 41.96 145.53 41.33"/><line class="a" x1="144.67" y1="41.54" x2="145.97" y2="41.54"/><polyline class="a" points="157.1 45.06 157.04 44.98 156.85 44.86 158.16 44.86"/><path class="a" d="M156.85,44.14l.06.13.13,0h.13l.13,0,.06-.09.06-.17.06-.13.13-.09.13,0h.18l.13,0,.06,0,.06.12v.17l-.06.13c-1,.39-.46-.74-1.18-.43l-.06.12Z"/><polygon class="a" points="156.85 43.29 156.91 43.42 157.04 43.47 157.17 43.47 157.29 43.42 157.35 43.33 157.42 43.16 157.48 43.04 157.6 42.95 157.73 42.92 157.91 42.92 158.03 42.95 158.09 43 158.16 43.12 158.16 43.29 158.09 43.42 158.03 43.47 157.91 43.5 157.73 43.5 157.6 43.47 157.48 43.38 157.42 43.24 157.35 43.09 157.29 43 157.17 42.95 157.04 42.95 156.91 43 156.85 43.12 156.85 43.29"/><polygon class="a" points="158.03 42.57 158.09 42.61 158.16 42.57 158.09 42.54 158.03 42.57"/><polyline class="a" points="157.1 42.11 157.04 42.02 156.85 41.9 158.16 41.9"/><polyline class="a" points="167.73 45.61 167.67 45.53 167.48 45.41 168.78 45.41"/><path class="a" d="M167.48,44.69l.06.13.13,0h.13l.13,0,.05-.09.06-.17.06-.13.13-.09.13,0h.19l.13,0,.06,0,.06.12v.17l-.06.13c-.92.43-.49-.76-1.18-.43l-.06.12Z"/><polygon class="a" points="167.48 43.84 167.54 43.97 167.67 44.02 167.79 44.02 167.92 43.97 167.97 43.88 168.03 43.72 168.09 43.59 168.22 43.5 168.35 43.47 168.53 43.47 168.66 43.5 168.72 43.55 168.78 43.67 168.78 43.84 168.72 43.97 168.66 44.02 168.53 44.05 168.35 44.05 168.22 44.02 168.09 43.93 168.03 43.8 167.97 43.64 167.92 43.55 167.79 43.5 167.67 43.5 167.54 43.55 167.48 43.67 167.48 43.84"/><polygon class="a" points="168.66 43.12 168.72 43.16 168.78 43.12 168.72 43.09 168.66 43.12"/><polygon class="a" points="167.48 42.54 167.54 42.66 167.73 42.74 168.03 42.78 168.22 42.78 168.53 42.74 168.72 42.66 168.78 42.54 168.78 42.45 168.72 42.32 168.53 42.23 168.22 42.2 168.03 42.2 167.73 42.23 167.54 42.32 167.48 42.45 167.48 42.54"/><polyline class="a" points="167.79 41.9 167.73 41.9 167.61 41.85 167.54 41.82 167.48 41.73 167.48 41.56 167.54 41.48 167.61 41.43 167.73 41.39 167.86 41.39 167.97 41.43 168.16 41.51 168.78 41.94 168.78 41.35"/><polygon class="a" points="3.08 37.4 3.08 36.47 3.39 36.47 3.53 36.52 3.62 36.6 3.67 36.69 3.71 36.82 3.71 37.04 3.67 37.18 3.62 37.26 3.53 37.36 3.39 37.4 3.08 37.4"/><line class="a" x1="4.03" y1="36.47" x2="4.03" y2="37.4"/><path class="a" d="M5,36.6l-.1-.09-.13,0c-.23,0-.59.08-.33.35l.09,0L4.8,37l.09,0,.05,0,.05.09v.13l-.1.1-.13,0H4.57l-.14,0-.09-.1"/><line class="a" x1="5.47" y1="36.47" x2="5.47" y2="37.4"/><line class="a" x1="5.16" y1="36.47" x2="5.8" y2="36.47"/><polygon class="a" points="6.06 37.31 6.03 37.36 6.06 37.4 6.11 37.36 6.06 37.31"/><polyline class="a" points="7.43 37.4 7.43 36.47 7.85 36.47 7.97 36.52 8.02 36.55 8.07 36.65 8.07 36.77 8.02 36.87 7.97 36.91 7.85 36.96 7.43 36.96"/><polyline class="a" points="8.38 37.4 8.38 36.47 8.8 36.47 8.93 36.52 8.97 36.55 9.03 36.65 9.03 36.74 8.97 36.82 8.93 36.87 8.8 36.91 8.38 36.91"/><line class="a" x1="8.7" y1="36.91" x2="9.03" y2="37.4"/><path class="a" d="M9.56,36.47l-.09,0-.09.09a.53.53,0,0,0,.18.79h.19l.09,0,.09-.1.05-.09L10,37v-.22l0-.13-.05-.09-.09-.09-.09,0Z"/><polyline class="a" points="10.97 36.69 10.93 36.6 10.83 36.52 10.74 36.47 10.57 36.47 10.48 36.52 10.38 36.6 10.34 36.69 10.29 36.82 10.29 37.04 10.34 37.18 10.38 37.26 10.48 37.36 10.57 37.4 10.74 37.4 10.83 37.36 10.93 37.26 10.97 37.18 10.97 37.04 10.74 37.04"/><polyline class="a" points="11.3 37.4 11.3 36.47 11.7 36.47 11.84 36.52 11.89 36.55 11.92 36.65 11.92 36.74 11.89 36.82 11.84 36.87 11.7 36.91 11.3 36.91"/><line class="a" x1="11.61" y1="36.91" x2="11.92" y2="37.4"/><polyline class="a" points="12.25 37.4 12.25 36.47 12.84 36.47"/><line class="a" x1="12.25" y1="36.91" x2="12.61" y2="36.91"/><line class="a" x1="12.25" y1="37.4" x2="12.84" y2="37.4"/><polyline class="a" points="13.69 36.6 13.61 36.52 13.47 36.47 13.29 36.47 13.15 36.52 13.07 36.6 13.07 36.69 13.1 36.77 13.15 36.82 13.24 36.87 13.52 36.96 13.61 37.01 13.65 37.04 13.69 37.13 13.69 37.26 13.61 37.36 13.47 37.4 13.29 37.4 13.15 37.36 13.07 37.26"/><path class="a" d="M14.61,36.6l-.09-.09-.14,0c-.23,0-.59.08-.33.35l.1,0,.26.09c.33.12.26.51-.23.44l-.14,0-.09-.1"/><line class="a" x1="14.92" y1="36.47" x2="14.92" y2="37.4"/><polyline class="a" points="15.15 36.47 15.51 37.4 15.88 36.47"/><polyline class="a" points="15.96 37.4 16.33 36.47 16.69 37.4"/><line class="a" x1="16.1" y1="37.09" x2="16.55" y2="37.09"/><path class="a" d="M3.39,38l-.09.09a.94.94,0,0,0,0,1.23l.09.1"/><line class="a" x1="3.7" y1="38.51" x2="3.7" y2="39.12"/><polyline class="a" points="3.71 38.68 3.84 38.54 3.93 38.51 4.07 38.51 4.16 38.54 4.21 38.68 4.21 39.12"/><polyline class="a" points="4.21 38.68 4.34 38.54 4.43 38.51 4.57 38.51 4.66 38.54 4.71 38.68 4.71 39.12"/><path class="a" d="M5,38l.09.09a.9.9,0,0,1,0,1.23l-.09.1"/><polygon class="a" points="3.08 32.56 3.08 31.63 3.39 31.63 3.53 31.68 3.62 31.77 3.67 31.85 3.71 31.99 3.71 32.21 3.67 32.34 3.62 32.44 3.53 32.52 3.39 32.56 3.08 32.56"/><line class="a" x1="4.03" y1="31.63" x2="4.03" y2="32.56"/><polyline class="a" points="4.99 31.77 4.88 31.68 4.76 31.63 4.57 31.63 4.43 31.68 4.34 31.77 4.34 31.85 4.39 31.95 4.43 31.99 4.52 32.04 4.8 32.12 4.88 32.17 4.93 32.21 4.99 32.3 4.99 32.44 4.88 32.52 4.76 32.56 4.57 32.56 4.43 32.52 4.34 32.44"/><line class="a" x1="5.47" y1="31.63" x2="5.47" y2="32.56"/><line class="a" x1="5.16" y1="31.63" x2="5.8" y2="31.63"/><polygon class="a" points="6.06 32.48 6.03 32.52 6.06 32.56 6.11 32.52 6.06 32.48"/><polyline class="a" points="7.43 32.56 7.43 31.63 7.85 31.63 7.97 31.68 8.02 31.73 8.07 31.82 8.07 31.95 8.02 32.04 7.97 32.09 7.85 32.12 7.43 32.12"/><polyline class="a" points="8.25 32.56 8.61 31.63 8.97 32.56"/><line class="a" x1="8.39" y1="32.26" x2="8.84" y2="32.26"/><polyline class="a" points="9.2 32.56 9.2 31.63 9.62 31.63 9.75 31.68 9.79 31.73 9.84 31.82 9.84 31.9 9.79 31.99 9.75 32.04 9.62 32.09 9.2 32.09"/><line class="a" x1="9.53" y1="32.09" x2="9.84" y2="32.56"/><polyline class="a" points="10.12 32.56 10.74 31.63 10.12 31.63"/><line class="a" x1="10.12" y1="32.56" x2="10.74" y2="32.56"/><line class="a" x1="11.07" y1="31.63" x2="11.07" y2="32.56"/><polyline class="a" points="11.3 32.56 11.66 31.63 12.02 32.56"/><line class="a" x1="11.43" y1="32.26" x2="11.89" y2="32.26"/><polyline class="a" points="12.25 31.63 12.25 32.56 12.79 32.56"/><polyline class="a" points="13.02 32.56 13.02 31.63 13.61 31.63"/><line class="a" x1="13.02" y1="32.09" x2="13.38" y2="32.09"/><line class="a" x1="13.02" y1="32.56" x2="13.61" y2="32.56"/><path class="a" d="M3.39,33.18l-.09.09a1,1,0,0,0,0,1.25l.09.09"/><line class="a" x1="3.7" y1="33.67" x2="3.7" y2="34.3"/><polyline class="a" points="3.71 33.84 3.84 33.71 3.93 33.67 4.07 33.67 4.16 33.71 4.21 33.84 4.21 34.3"/><polyline class="a" points="4.21 33.84 4.34 33.71 4.43 33.67 4.57 33.67 4.66 33.71 4.71 33.84 4.71 34.3"/><path class="a" d="M5,33.18l.09.09a.92.92,0,0,1,0,1.25L5,34.6"/><polyline class="a" points="3.08 29.62 3.08 28.69 3.48 28.69 3.62 28.74 3.67 28.78 3.71 28.86 3.71 29 3.67 29.08 3.62 29.13 3.48 29.18 3.08 29.18"/><line class="a" x1="4.03" y1="28.69" x2="4.03" y2="29.62"/><path class="a" d="M5,28.91l0-.09-.1-.09-.09,0H4.62l-.1,0-.09.09,0,.09L4.34,29v.22c.05.26.28.48.54.31l.1-.09,0-.09"/><path class="a" d="M6,28.91l0-.09-.1-.09-.09,0H5.57l-.1,0-.09.09,0,.09L5.3,29v.22c.05.26.28.48.54.31l.1-.09,0-.09"/><line class="a" x1="6.3" y1="28.69" x2="6.3" y2="29.62"/><line class="a" x1="6.93" y1="28.69" x2="6.93" y2="29.62"/><line class="a" x1="6.3" y1="29.13" x2="6.93" y2="29.13"/><polyline class="a" points="7.29 29.62 7.29 28.69 7.88 28.69"/><line class="a" x1="7.29" y1="29.13" x2="7.66" y2="29.13"/><line class="a" x1="7.29" y1="29.62" x2="7.88" y2="29.62"/><line class="a" x1="8.33" y1="28.69" x2="8.33" y2="29.62"/><line class="a" x1="8.02" y1="28.69" x2="8.66" y2="28.69"/><line class="a" x1="9.06" y1="28.69" x2="9.06" y2="29.62"/><line class="a" x1="8.75" y1="28.69" x2="9.39" y2="28.69"/><path class="a" d="M9.84,28.69l-.09,0-.1.09a.54.54,0,0,0,.19.79H10l.1,0a.56.56,0,0,0,0-.83l-.1,0Z"/><path class="a" d="M3.34,42l-.09,0-.09.09c-.17.21-.12.71.18.79h.19l.09,0a.55.55,0,0,0,0-.84l-.09,0Z"/><line class="a" x1="3.48" y1="42.79" x2="3.75" y2="43.05"/><polyline class="a" points="4.12 42.04 4.12 42.7 4.16 42.83 4.26 42.93 4.39 42.97 4.48 42.97 4.62 42.93 4.71 42.83 4.76 42.7 4.76 42.04"/><path class="a" d="M5.35,42l-.1,0-.09.09c-.17.2-.12.73.19.79h.18l.09,0a.55.55,0,0,0,0-.84l-.09,0Z"/><line class="a" x1="6.3" y1="42.04" x2="6.3" y2="42.96"/><line class="a" x1="5.98" y1="42.04" x2="6.62" y2="42.04"/><polyline class="a" points="6.7 42.97 7.07 42.04 7.43 42.97"/><line class="a" x1="6.84" y1="42.66" x2="7.29" y2="42.66"/><line class="a" x1="8.8" y1="42.04" x2="8.8" y2="42.96"/><line class="a" x1="8.47" y1="42.04" x2="9.11" y2="42.04"/><polyline class="a" points="9.34 42.97 9.34 42.04 9.93 42.04"/><line class="a" x1="9.34" y1="42.48" x2="9.7" y2="42.48"/><line class="a" x1="9.34" y1="42.96" x2="9.93" y2="42.96"/><polyline class="a" points="10.21 42.97 10.21 42.04 10.61 42.04 10.74 42.09 10.79 42.12 10.83 42.22 10.83 42.3 10.79 42.39 10.74 42.44 10.61 42.48 10.21 42.48"/><line class="a" x1="10.52" y1="42.48" x2="10.83" y2="42.96"/><polyline class="a" points="11.16 42.97 11.16 42.04 11.56 42.04 11.7 42.09 11.75 42.12 11.79 42.22 11.79 42.3 11.75 42.39 11.7 42.44 11.56 42.48 11.16 42.48"/><line class="a" x1="11.47" y1="42.48" x2="11.79" y2="42.96"/><polyline class="a" points="12.11 42.97 12.11 42.04 12.7 42.04"/><line class="a" x1="12.11" y1="42.48" x2="12.48" y2="42.48"/><line class="a" x1="12.11" y1="42.96" x2="12.7" y2="42.96"/><polyline class="a" points="12.98 42.97 12.98 42.04 13.61 42.97 13.61 42.04"/><path class="a" d="M14.19,42l-.09,0-.09.09c-.17.21-.12.71.18.79h.19l.09,0,.09-.1.05-.09,0-.13v-.22l0-.13-.05-.09-.09-.09-.09,0Z"/><path class="a" d="M3.39,43.59l-.09.09a.94.94,0,0,0,0,1.23l.09.1"/><line class="a" x1="3.7" y1="44.08" x2="3.7" y2="44.69"/><polyline class="a" points="3.71 44.25 3.84 44.11 3.93 44.08 4.07 44.08 4.16 44.11 4.21 44.25 4.21 44.69"/><polyline class="a" points="4.21 44.25 4.34 44.11 4.43 44.08 4.57 44.08 4.66 44.11 4.71 44.25 4.71 44.69"/><polyline class="a" points="6.48 44.2 6.43 44.11 6.3 44.08 6.16 44.08 6.03 44.11 5.98 44.2 6.03 44.3 6.11 44.33 6.34 44.38 6.43 44.43 6.48 44.52 6.48 44.55 6.43 44.65 6.3 44.69 6.16 44.69 6.03 44.65 5.98 44.55"/><polygon class="a" points="6.84 44.6 6.79 44.65 6.84 44.69 6.89 44.65 6.84 44.6"/><line class="a" x1="7.26" y1="43.76" x2="7.26" y2="44.69"/><polygon class="a" points="7.66 44.6 7.62 44.65 7.66 44.69 7.71 44.65 7.66 44.6"/><line class="a" x1="8.07" y1="44.08" x2="8.07" y2="44.69"/><polyline class="a" points="8.07 44.25 8.21 44.11 8.3 44.08 8.44 44.08 8.52 44.11 8.57 44.25 8.57 44.69"/><polyline class="a" points="8.57 44.25 8.7 44.11 8.8 44.08 8.93 44.08 9.03 44.11 9.06 44.25 9.06 44.69"/><polygon class="a" points="9.48 44.6 9.43 44.65 9.48 44.69 9.53 44.65 9.48 44.6"/><path class="a" d="M9.84,43.59l.09.09a.93.93,0,0,1,0,1.23l-.09.1"/><line class="a" x1="4.95" y1="25.42" x2="7.24" y2="25.42"/><polygon class="a" points="9.54 25.42 7.24 26.81 7.24 25.42 9.54 25.42"/><line class="a" x1="9.16" y1="25.65" x2="9.4" y2="25.42"/><line class="a" x1="7.38" y1="26.74" x2="8.74" y2="25.42"/><line class="a" x1="7.24" y1="26.21" x2="8.06" y2="25.42"/><line class="a" x1="7.24" y1="25.55" x2="7.39" y2="25.42"/><line class="a" x1="8.32" y1="26.15" x2="7.57" y2="25.42"/><line class="a" x1="7.92" y1="26.41" x2="7.24" y2="25.76"/><line class="a" x1="7.51" y1="26.66" x2="7.24" y2="26.41"/><line class="a" x1="8.74" y1="25.91" x2="8.23" y2="25.42"/><line class="a" x1="9.15" y1="25.65" x2="8.91" y2="25.42"/><line class="a" x1="4.95" y1="25.42" x2="7.24" y2="26.81"/><path class="a" d="M2.42,23.51l-.11.06-.11.11a.69.69,0,0,0,.23,1h.24l.11-.06a.7.7,0,0,0,0-1.05l-.11-.06Z"/><line class="a" x1="2.6" y1="24.47" x2="2.94" y2="24.8"/><line class="a" x1="3.33" y1="24.17" x2="3.33" y2="24.69"/><polyline class="a" points="3.33 24.39 3.37 24.28 3.44 24.21 3.52 24.17 3.63 24.17"/><polygon class="a" points="3.78 23.95 3.81 23.99 3.84 23.95 3.81 23.92 3.78 23.95"/><line class="a" x1="3.81" y1="24.21" x2="3.81" y2="24.69"/><polyline class="a" points="4.33 23.92 4.26 23.92 4.18 23.95 4.14 24.06 4.14 24.69"/><line class="a" x1="4.03" y1="24.17" x2="4.29" y2="24.17"/><line class="a" x1="4.65" y1="24.01" x2="5.67" y2="24.01"/><line class="a" x1="4.65" y1="24.36" x2="5.67" y2="24.36"/><polyline class="a" points="6.24 23.73 6.37 23.68 6.53 23.51 6.53 24.69"/><polygon class="a" points="7.51 23.51 7.33 23.57 7.28 23.68 7.28 23.8 7.33 23.9 7.44 23.97 7.68 24.01 7.85 24.07 7.97 24.18 8.02 24.3 8.02 24.47 7.97 24.58 7.91 24.63 7.73 24.69 7.51 24.69 7.33 24.63 7.28 24.58 7.22 24.47 7.22 24.3 7.28 24.18 7.39 24.07 7.57 24.01 7.79 23.97 7.91 23.9 7.97 23.8 7.97 23.68 7.91 23.57 7.73 23.51 7.51 23.51"/><polygon class="a" points="8.71 23.51 8.54 23.57 8.42 23.73 8.37 24.01 8.37 24.18 8.42 24.47 8.54 24.63 8.71 24.69 8.82 24.69 9 24.63 9.11 24.47 9.18 24.18 9.18 24.01 9.11 23.73 9 23.57 8.82 23.51 8.71 23.51"/><line class="a" x1="10.77" y1="23.9" x2="10.77" y2="24.69"/><polyline class="a" points="10.77 24.12 10.95 23.97 11.06 23.9 11.23 23.9 11.35 23.97 11.41 24.12 11.41 24.69"/><polyline class="a" points="11.41 24.12 11.57 23.97 11.7 23.9 11.86 23.9 11.97 23.97 12.04 24.12 12.04 24.69"/><polyline class="a" points="14.27 24.07 14.22 23.97 14.04 23.9 13.87 23.9 13.71 23.97 13.64 24.07 13.71 24.18 13.82 24.23 14.11 24.3 14.22 24.36 14.27 24.47 14.27 24.52 14.22 24.63 14.04 24.69 13.87 24.69 13.71 24.63 13.64 24.52"/><polygon class="a" points="14.73 24.58 14.67 24.63 14.73 24.69 14.79 24.63 14.73 24.58"/><line class="a" x1="15.25" y1="23.51" x2="15.25" y2="24.69"/><polygon class="a" points="15.76 24.58 15.7 24.63 15.76 24.69 15.83 24.63 15.76 24.58"/><line class="a" x1="16.28" y1="23.9" x2="16.28" y2="24.69"/><polyline class="a" points="16.28 24.12 16.45 23.96 16.57 23.9 16.74 23.9 16.86 23.96 16.91 24.12 16.91 24.69"/><polyline class="a" points="16.91 24.12 17.08 23.96 17.19 23.9 17.37 23.9 17.48 23.96 17.55 24.12 17.55 24.69"/><polygon class="a" points="18.06 24.58 18 24.63 18.06 24.69 18.11 24.63 18.06 24.58"/><line class="b" x1="46.17" y1="2.44" x2="47.17" y2="1.46"/><line class="b" x1="47.17" y1="2.44" x2="46.17" y2="1.46"/><line class="b" x1="31.46" y1="2.59" x2="32.46" y2="1.61"/><line class="b" x1="32.46" y1="2.59" x2="31.46" y2="1.61"/><line class="c" x1="35.5" y1="5.17" x2="36.51" y2="4.2"/><line class="c" x1="36.51" y1="5.17" x2="35.5" y2="4.2"/><line class="c" x1="43.32" y1="5" x2="44.32" y2="4.03"/><line class="c" x1="44.32" y1="5" x2="43.32" y2="4.03"/><line class="d" x1="41.4" y1="4.08" x2="41.4" y2="5.45"/><path class="d" d="M40.7,4.76h1.42l0-.17L42,4.42a.72.72,0,0,0-1.3.17l0,.17,0,.18a.72.72,0,0,0,1.3.17l.06-.17,0-.18"/></svg>