<svg xmlns="http://www.w3.org/2000/svg" viewBox="0 0 151.46 47.04"><defs><style>.a,.b,.c,.d{fill:none;stroke-linecap:round;stroke-linejoin:round;stroke-width:0.21px;}.a{stroke:#000;}.b{stroke:#00bfff;}.c{stroke:#00b800;}.d{stroke:blue;}</style></defs><title>cad0.3</title><polyline class="a" points="16.61 28.46 16.73 28.4 16.93 28.21 16.93 29.54"/><line class="a" x1="16.77" y1="31.19" x2="16.77" y2="34.89"/><line class="a" x1="0.9" y1="26.57" x2="150.23" y2="26.57"/><line class="a" x1="16.77" y1="31.19" x2="150.23" y2="31.19"/><line class="a" x1="16.77" y1="34.89" x2="150.23" y2="34.89"/><line class="a" x1="16.77" y1="40.44" x2="150.23" y2="40.44"/><polyline class="a" points="16.77 45.99 150.23 45.99 150.23 26.57"/><line class="a" x1="24.88" y1="31.19" x2="24.88" y2="34.89"/><line class="a" x1="30.07" y1="31.19" x2="30.07" y2="34.89"/><line class="a" x1="32.13" y1="31.19" x2="32.13" y2="34.89"/><line class="a" x1="34" y1="31.19" x2="34" y2="34.89"/><line class="a" x1="39.48" y1="31.19" x2="39.48" y2="34.89"/><line class="a" x1="38" y1="31.19" x2="38" y2="34.89"/><line class="a" x1="43.67" y1="31.19" x2="43.67" y2="34.89"/><line class="a" x1="48.06" y1="31.19" x2="48.06" y2="34.89"/><line class="a" x1="58.51" y1="31.19" x2="58.51" y2="34.89"/><line class="a" x1="74.52" y1="31.19" x2="74.52" y2="34.89"/><line class="a" x1="94.1" y1="31.19" x2="94.1" y2="34.89"/><line class="a" x1="112.1" y1="31.19" x2="112.1" y2="34.89"/><line class="a" x1="130.45" y1="31.19" x2="130.45" y2="34.89"/><line class="a" x1="146.75" y1="31.19" x2="146.75" y2="34.89"/><polyline class="a" points="19.86 32.48 20.34 32.48 20.08 32.82 20.22 32.82 20.3 32.87 20.34 32.92 20.39 33.04 20.39 33.14 20.34 33.26 20.26 33.36 20.12 33.4 20 33.4 19.86 33.36 19.82 33.31 19.78 33.22"/><polygon class="a" points="20.75 33.31 20.7 33.36 20.75 33.4 20.78 33.36 20.75 33.31"/><polyline class="a" points="21.63 32.48 21.18 32.48 21.14 32.87 21.18 32.82 21.32 32.78 21.44 32.78 21.58 32.82 21.66 32.92 21.71 33.04 21.71 33.14 21.66 33.26 21.58 33.36 21.44 33.4 21.32 33.4 21.18 33.36 21.14 33.31 21.1 33.22"/><polygon class="a" points="16.09 37.75 16.16 37.87 16.34 37.96 16.65 38.01 16.82 38.01 17.12 37.96 17.31 37.87 17.37 37.75 17.37 37.67 17.31 37.54 17.12 37.46 16.82 37.41 16.65 37.41 16.34 37.46 16.16 37.54 16.09 37.67 16.09 37.75"/><polyline class="a" points="16.43 45.39 16.38 45.3 16.19 45.17 17.46 45.17"/><path class="a" d="M16.19,44.46l.06.12.12,0h.11l.12,0,.06-.09.06-.17.06-.12.12-.09.12,0h.18l.12,0,.06,0,.06.14v.17l-.06.12c-.9.42-.47-.71-1.15-.43l-.06.14Z"/><polyline class="a" points="16.61 43.27 16.79 43.31 16.91 43.39 16.98 43.52 16.98 43.56 16.91 43.69 16.79 43.77 16.61 43.82 16.55 43.82 16.38 43.77 16.25 43.69 16.19 43.56 16.19 43.52 16.25 43.39 16.38 43.31 16.61 43.27 16.91 43.27 17.22 43.31 17.4 43.39 17.47 43.52 17.47 43.6 17.4 43.74 17.28 43.77"/><polygon class="a" points="17.34 42.88 17.4 42.93 17.46 42.88 17.4 42.84 17.34 42.88"/><polygon class="a" points="16.19 42.29 16.25 42.41 16.43 42.5 16.73 42.55 16.91 42.55 17.22 42.5 17.41 42.41 17.47 42.29 17.47 42.21 17.41 42.08 17.22 42 16.91 41.95 16.73 41.95 16.43 42 16.25 42.08 16.19 42.21 16.19 42.29"/><path class="a" d="M16.19,41.61v-.46l.48.26v-.12c.21-.4,1.16-.07.67.38l-.12,0"/><line class="a" x1="146.75" y1="8.37" x2="146.75" y2="26.57"/><line class="a" x1="130.45" y1="8.14" x2="130.45" y2="26.57"/><line class="a" x1="112.1" y1="7.81" x2="112.1" y2="26.57"/><line class="a" x1="94.1" y1="7.59" x2="94.1" y2="26.57"/><line class="a" x1="74.52" y1="7.26" x2="74.52" y2="26.57"/><line class="a" x1="58.51" y1="6.63" x2="58.51" y2="26.57"/><line class="a" x1="48.06" y1="6.57" x2="48.06" y2="26.57"/><line class="a" x1="43.67" y1="4.7" x2="43.67" y2="26.57"/><line class="a" x1="39.48" y1="2.14" x2="39.48" y2="26.57"/><polyline class="a" points="34.07 5.43 35.5 4.96 36.73 5.38"/><polyline class="a" points="41.74 3.68 43.66 4.7 45.98 5.46 48.06 6.57 51.15 6.51 58.51 6.63 66.23 6.9 74.52 7.26 83.99 7.39 94.09 7.59 103.09 7.68 112.1 7.81 121.3 8.02 130.45 8.14 137.6 8.27 146.75 8.37"/><line class="a" x1="16.77" y1="26.57" x2="16.77" y2="5.69"/><line class="a" x1="38" y1="26.57" x2="38" y2="5.34"/><line class="a" x1="34" y1="26.57" x2="34" y2="5.43"/><line class="a" x1="32.13" y1="26.57" x2="32.13" y2="3.34"/><line class="a" x1="30.07" y1="26.57" x2="30.07" y2="2.84"/><line class="a" x1="24.88" y1="26.57" x2="24.88" y2="4.36"/><polyline class="a" points="16.77 5.69 20.23 5.22 24.88 4.36 30.07 2.84 32.13 3.34 34 5.43 34.07 5.43"/><polyline class="a" points="36.73 5.38 38 5.33 39.06 2.26 39.48 2.14 40.69 2.44 41.74 3.68"/><polyline class="a" points="24.39 28.52 24.39 28.46 24.45 28.34 24.53 28.28 24.65 28.21 24.91 28.21 25.03 28.28 25.09 28.34 25.15 28.46 25.15 28.6 25.09 28.72 24.97 28.9 24.33 29.54 25.22 29.54"/><polyline class="a" points="29.64 28.21 30.34 28.21 29.96 28.72 30.14 28.72 30.27 28.78 30.34 28.84 30.4 29.04 30.4 29.16 30.34 29.36 30.2 29.48 30.02 29.54 29.83 29.54 29.64 29.48 29.57 29.42 29.51 29.3"/><polyline class="a" points="32.17 28.21 31.54 29.1 32.49 29.1"/><line class="a" x1="32.17" y1="28.21" x2="32.17" y2="29.54"/><polyline class="a" points="34.21 28.21 33.57 28.21 33.51 28.78 33.57 28.72 33.75 28.66 33.95 28.66 34.15 28.72 34.27 28.84 34.33 29.04 34.33 29.16 34.27 29.36 34.15 29.48 33.95 29.54 33.75 29.54 33.57 29.48 33.51 29.42 33.45 29.3"/><polyline class="a" points="38.23 28.4 38.17 28.28 37.99 28.21 37.85 28.21 37.67 28.28 37.53 28.46 37.47 28.78 37.47 29.1 37.53 29.36 37.67 29.48 37.85 29.54 37.91 29.54 38.11 29.48 38.23 29.36 38.29 29.16 38.29 29.1 38.23 28.91 38.11 28.78 37.91 28.72 37.85 28.72 37.67 28.78 37.53 28.91 37.47 29.1"/><polyline class="a" points="39.3 29.54 39.93 28.21 39.04 28.21"/><polygon class="a" points="43.42 28.21 43.24 28.28 43.18 28.4 43.18 28.52 43.24 28.66 43.36 28.72 43.62 28.78 43.8 28.84 43.94 28.98 44 29.1 44 29.3 43.94 29.42 43.87 29.48 43.68 29.54 43.42 29.54 43.24 29.48 43.18 29.42 43.1 29.3 43.1 29.1 43.18 28.98 43.3 28.84 43.49 28.78 43.74 28.72 43.87 28.66 43.94 28.52 43.94 28.4 43.87 28.28 43.68 28.21 43.42 28.21"/><polyline class="a" points="48.35 28.66 48.29 28.84 48.17 28.98 47.97 29.04 47.91 29.04 47.73 28.98 47.59 28.84 47.53 28.66 47.53 28.6 47.59 28.4 47.73 28.28 47.91 28.21 47.97 28.21 48.17 28.28 48.29 28.4 48.35 28.66 48.35 28.98 48.29 29.3 48.17 29.48 47.97 29.54 47.85 29.54 47.66 29.48 47.59 29.36"/><polyline class="a" points="57.42 28.46 57.54 28.4 57.74 28.21 57.74 29.54"/><polygon class="a" points="58.88 28.21 58.68 28.28 58.56 28.46 58.5 28.78 58.5 28.98 58.56 29.3 58.68 29.48 58.88 29.54 59 29.54 59.2 29.48 59.32 29.3 59.38 28.98 59.38 28.78 59.32 28.46 59.2 28.28 59 28.21 58.88 28.21"/><polyline class="a" points="73.61 28.46 73.73 28.4 73.93 28.21 73.93 29.54"/><polyline class="a" points="74.88 28.46 75 28.4 75.19 28.21 75.19 29.54"/><polyline class="a" points="111 28.46 111.13 28.4 111.31 28.21 111.31 29.54"/><polyline class="a" points="112.21 28.21 112.91 28.21 112.53 28.72 112.71 28.72 112.83 28.78 112.91 28.84 112.97 29.04 112.97 29.16 112.91 29.36 112.77 29.48 112.59 29.54 112.39 29.54 112.21 29.48 112.13 29.42 112.07 29.3"/><polyline class="a" points="129.33 28.46 129.45 28.4 129.65 28.21 129.65 29.54"/><polyline class="a" points="131.04 28.21 130.4 29.1 131.36 29.1"/><line class="a" x1="131.04" y1="28.21" x2="131.04" y2="29.54"/><polyline class="a" points="145.66 28.46 145.79 28.4 145.98 28.21 145.98 29.54"/><polyline class="a" points="147.5 28.21 146.86 28.21 146.8 28.78 146.86 28.72 147.06 28.66 147.24 28.66 147.44 28.72 147.56 28.84 147.63 29.04 147.63 29.16 147.56 29.36 147.44 29.48 147.24 29.54 147.06 29.54 146.86 29.48 146.8 29.42 146.74 29.3"/><polyline class="a" points="26.47 32.7 26.47 32.65 26.52 32.56 26.57 32.51 26.66 32.48 26.83 32.48 26.91 32.51 26.96 32.56 27.01 32.65 27.01 32.73 26.96 32.82 26.88 32.95 26.43 33.4 27.05 33.4"/><polygon class="a" points="27.4 33.31 27.35 33.36 27.4 33.4 27.44 33.36 27.4 33.31"/><polyline class="a" points="27.79 32.7 27.79 32.65 27.84 32.56 27.88 32.51 27.98 32.48 28.15 32.48 28.23 32.51 28.28 32.56 28.32 32.65 28.32 32.73 28.28 32.82 28.2 32.95 27.76 33.4 28.37 33.4"/><polygon class="a" points="30.6 33.62 30.63 33.74 30.77 33.84 30.99 33.87 31.12 33.87 31.34 33.84 31.48 33.74 31.51 33.62 31.51 33.52 31.48 33.4 31.34 33.3 31.12 33.26 30.99 33.26 30.77 33.3 30.63 33.4 30.6 33.52 30.6 33.62"/><polygon class="a" points="31.43 32.91 31.48 32.95 31.51 32.91 31.48 32.86 31.43 32.91"/><polyline class="a" points="30.9 31.98 31.04 32.02 31.12 32.11 31.17 32.24 31.17 32.29 31.12 32.42 31.04 32.51 30.9 32.55 30.85 32.55 30.73 32.51 30.63 32.42 30.6 32.29 30.6 32.24 30.63 32.11 30.73 32.02 30.9 31.98 31.12 31.98 31.34 32.02 31.48 32.11 31.51 32.24 31.51 32.33 31.48 32.47 31.39 32.51"/><polygon class="a" points="32.54 33.6 32.58 33.74 32.71 33.82 32.93 33.86 33.07 33.86 33.29 33.82 33.42 33.74 33.46 33.6 33.46 33.52 33.42 33.38 33.29 33.3 33.07 33.25 32.93 33.25 32.71 33.3 32.58 33.38 32.54 33.52 32.54 33.6"/><polygon class="a" points="33.37 32.89 33.42 32.94 33.46 32.89 33.42 32.86 33.37 32.89"/><polygon class="a" points="32.54 32.32 32.58 32.45 32.66 32.5 32.76 32.5 32.85 32.45 32.88 32.37 32.93 32.2 32.98 32.06 33.07 31.98 33.15 31.93 33.29 31.93 33.37 31.98 33.42 32.01 33.46 32.15 33.46 32.32 33.42 32.45 33.37 32.5 33.29 32.54 33.15 32.54 33.07 32.5 32.98 32.42 32.93 32.28 32.88 32.1 32.85 32.01 32.76 31.98 32.66 31.98 32.58 32.01 32.54 32.15 32.54 32.32"/><polyline class="a" points="35.2 32.65 35.28 32.6 35.42 32.48 35.42 33.4"/><polygon class="a" points="36.03 33.31 35.99 33.36 36.03 33.4 36.08 33.36 36.03 33.31"/><polyline class="a" points="36.57 33.4 37.01 32.48 36.38 32.48"/><polygon class="a" points="38.31 33.76 38.34 33.88 38.48 33.98 38.7 34.02 38.83 34.02 39.05 33.98 39.19 33.88 39.22 33.76 39.22 33.66 39.19 33.54 39.05 33.45 38.83 33.41 38.7 33.41 38.48 33.45 38.34 33.54 38.31 33.66 38.31 33.76"/><polygon class="a" points="39.14 33.05 39.19 33.1 39.22 33.05 39.19 33 39.14 33.05"/><polyline class="a" points="38.43 32.12 38.34 32.17 38.31 32.31 38.31 32.39 38.34 32.53 38.48 32.61 38.7 32.66 38.92 32.66 39.09 32.61 39.19 32.53 39.22 32.39 39.22 32.34 39.19 32.22 39.09 32.12 38.97 32.09 38.92 32.09 38.78 32.12 38.7 32.22 38.65 32.34 38.65 32.39 38.7 32.53 38.78 32.61 38.92 32.66"/><polyline class="a" points="40.52 32.65 40.61 32.6 40.74 32.48 40.74 33.4"/><polygon class="a" points="41.35 33.31 41.32 33.36 41.35 33.4 41.4 33.36 41.35 33.31"/><path class="a" d="M41.93,32.48l-.14,0,0,.09v.1l0,.09.09,0,.18,0,.13,0,.09.08,0,.09v.13l0,.09,0,0-.14,0h-.17l-.14,0c-.43-.65.77-.35.44-.84l-.14,0Z"/><polyline class="a" points="44.93 32.65 45.01 32.6 45.15 32.48 45.15 33.4"/><polygon class="a" points="45.76 33.31 45.72 33.36 45.76 33.4 45.81 33.36 45.76 33.31"/><polyline class="a" points="46.69 32.78 46.64 32.92 46.55 33 46.42 33.04 46.38 33.04 46.25 33 46.16 32.92 46.11 32.78 46.11 32.73 46.16 32.6 46.25 32.52 46.38 32.48 46.42 32.48 46.55 32.52 46.64 32.6 46.69 32.78 46.69 33 46.64 33.23 46.55 33.36 46.42 33.4 46.33 33.4 46.2 33.36 46.16 33.26"/><polyline class="a" points="52.72 32.48 52.28 33.09 52.94 33.09"/><line class="a" x1="52.72" y1="32.48" x2="52.72" y2="33.4"/><polygon class="a" points="53.25 33.31 53.2 33.36 53.25 33.4 53.3 33.36 53.25 33.31"/><polyline class="a" points="54.13 32.48 53.69 32.48 53.64 32.87 53.69 32.82 53.82 32.78 53.96 32.78 54.08 32.82 54.18 32.92 54.22 33.04 54.22 33.14 54.18 33.26 54.08 33.36 53.96 33.4 53.82 33.4 53.69 33.36 53.64 33.31 53.6 33.22"/><polyline class="a" points="65.77 32.6 65.72 32.51 65.59 32.48 65.5 32.48 65.37 32.51 65.28 32.65 65.24 32.87 65.24 33.09 65.28 33.26 65.37 33.36 65.5 33.4 65.55 33.4 65.68 33.36 65.77 33.26 65.81 33.14 65.81 33.09 65.77 32.95 65.68 32.87 65.55 32.82 65.5 32.82 65.37 32.87 65.28 32.95 65.24 33.09"/><polygon class="a" points="66.16 33.31 66.12 33.36 66.16 33.4 66.21 33.36 66.16 33.31"/><polyline class="a" points="67.09 32.78 67.04 32.92 66.95 33 66.82 33.04 66.78 33.04 66.65 33 66.56 32.92 66.51 32.78 66.51 32.73 66.56 32.6 66.65 32.52 66.78 32.48 66.82 32.48 66.95 32.52 67.04 32.6 67.09 32.78 67.09 33 67.04 33.23 66.95 33.36 66.82 33.4 66.73 33.4 66.6 33.36 66.56 33.26"/><polygon class="a" points="83.86 32.48 83.73 32.52 83.68 32.6 83.68 32.7 83.73 32.78 83.82 32.82 83.99 32.87 84.12 32.92 84.21 33 84.26 33.09 84.26 33.22 84.21 33.31 84.17 33.36 84.04 33.4 83.86 33.4 83.73 33.36 83.68 33.31 83.64 33.22 83.64 33.09 83.68 33 83.77 32.92 83.9 32.87 84.08 32.82 84.17 32.78 84.21 32.7 84.21 32.6 84.17 32.52 84.04 32.48 83.86 32.48"/><polygon class="a" points="84.61 33.31 84.56 33.36 84.61 33.4 84.65 33.36 84.61 33.31"/><polyline class="a" points="85.49 32.48 85.05 32.48 85 32.87 85.05 32.82 85.19 32.78 85.31 32.78 85.44 32.82 85.53 32.92 85.58 33.04 85.58 33.14 85.53 33.26 85.44 33.36 85.31 33.4 85.19 33.4 85.05 33.36 85 33.31 84.97 33.22"/><polyline class="a" points="102.54 33.4 102.98 32.48 102.36 32.48"/><polygon class="a" points="103.33 33.31 103.29 33.36 103.33 33.4 103.37 33.36 103.33 33.31"/><polygon class="a" points="103.9 32.48 103.78 32.52 103.73 32.6 103.73 32.7 103.78 32.78 103.86 32.82 104.03 32.87 104.17 32.92 104.25 33 104.3 33.09 104.3 33.22 104.25 33.31 104.22 33.36 104.08 33.4 103.9 33.4 103.78 33.36 103.73 33.31 103.68 33.22 103.68 33.09 103.73 33 103.81 32.92 103.95 32.87 104.12 32.82 104.22 32.78 104.25 32.7 104.25 32.6 104.22 32.52 104.08 32.48 103.9 32.48"/><polyline class="a" points="120.81 33.4 121.25 32.48 120.64 32.48"/><polygon class="a" points="121.61 33.31 121.57 33.36 121.61 33.4 121.65 33.36 121.61 33.31"/><polyline class="a" points="122.53 32.78 122.49 32.92 122.4 33 122.27 33.04 122.23 33.04 122.09 33 122.01 32.92 121.96 32.78 121.96 32.73 122.01 32.6 122.09 32.52 122.23 32.48 122.27 32.48 122.4 32.52 122.49 32.6 122.53 32.78 122.53 33 122.49 33.23 122.4 33.36 122.27 33.4 122.18 33.4 122.05 33.36 122.01 33.26"/><polyline class="a" points="138.03 33.4 138.47 32.48 137.86 32.48"/><polygon class="a" points="138.82 33.31 138.77 33.36 138.82 33.4 138.87 33.36 138.82 33.31"/><polyline class="a" points="139.31 32.65 139.4 32.6 139.53 32.48 139.53 33.4"/><polyline class="a" points="24.21 38.56 24.21 38.09 24.7 38.34 24.7 38.22 24.76 38.13 24.82 38.09 25 38.05 25.13 38.05 25.3 38.09 25.42 38.18 25.48 38.3 25.48 38.42 25.42 38.56 25.36 38.6 25.25 38.65"/><polygon class="a" points="25.36 37.72 25.42 37.75 25.48 37.72 25.42 37.67 25.36 37.72"/><polyline class="a" points="24.21 36.86 24.21 37.29 24.76 37.32 24.7 37.29 24.64 37.15 24.64 37.03 24.7 36.91 24.82 36.82 25 36.77 25.13 36.77 25.3 36.82 25.42 36.91 25.48 37.03 25.48 37.15 25.42 37.29 25.36 37.32 25.25 37.37"/><polyline class="a" points="29.4 38.13 29.4 38.56 29.93 38.6 29.87 38.56 29.81 38.43 29.81 38.3 29.87 38.18 30 38.09 30.18 38.05 30.3 38.05 30.49 38.09 30.61 38.18 30.67 38.3 30.67 38.43 30.61 38.56 30.55 38.6 30.43 38.65"/><polygon class="a" points="30.55 37.72 30.61 37.75 30.67 37.72 30.61 37.67 30.55 37.72"/><path class="a" d="M29.4,37.15l.06.14.12,0h.11l.12,0,.06-.09.06-.17.06-.12.12-.08.12,0h.18l.12,0,.06,0,.06.13v.16l-.06.14c-.9.42-.47-.71-1.15-.43L29.4,37Z"/><polyline class="a" points="31.64 38.11 31.51 38.16 31.45 38.28 31.45 38.36 31.51 38.5 31.7 38.58 31.99 38.62 32.3 38.62 32.54 38.58 32.66 38.5 32.73 38.36 32.73 38.33 32.66 38.19 32.54 38.11 32.36 38.07 32.3 38.07 32.11 38.11 31.99 38.19 31.93 38.33 31.93 38.36 31.99 38.5 32.11 38.58 32.3 38.62"/><polygon class="a" points="32.6 37.73 32.66 37.78 32.73 37.73 32.66 37.69 32.6 37.73"/><polyline class="a" points="31.64 36.85 31.51 36.88 31.45 37.01 31.45 37.09 31.51 37.23 31.7 37.31 31.99 37.35 32.3 37.35 32.54 37.31 32.66 37.23 32.73 37.09 32.73 37.05 32.66 36.92 32.54 36.85 32.36 36.8 32.3 36.8 32.11 36.85 31.99 36.92 31.93 37.05 31.93 37.09 31.99 37.23 32.11 37.31 32.3 37.35"/><polyline class="a" points="34.6 38.47 33.33 38.05 33.33 38.65"/><polygon class="a" points="34.48 37.72 34.54 37.75 34.6 37.72 34.54 37.67 34.48 37.72"/><polyline class="a" points="33.33 36.86 33.33 37.29 33.88 37.32 33.81 37.29 33.75 37.15 33.75 37.03 33.81 36.91 33.92 36.82 34.11 36.77 34.23 36.77 34.41 36.82 34.54 36.91 34.6 37.03 34.6 37.15 34.54 37.29 34.48 37.32 34.35 37.37"/><polyline class="a" points="37.5 38.13 37.68 38.17 37.79 38.25 37.85 38.38 37.85 38.43 37.79 38.55 37.68 38.63 37.5 38.68 37.44 38.68 37.25 38.63 37.13 38.55 37.07 38.43 37.07 38.38 37.13 38.25 37.25 38.17 37.5 38.13 37.79 38.13 38.1 38.17 38.28 38.25 38.34 38.38 38.34 38.46 38.28 38.6 38.16 38.63"/><polygon class="a" points="38.22 37.74 38.28 37.79 38.34 37.74 38.28 37.7 38.22 37.74"/><polyline class="a" points="37.38 37.36 37.31 37.36 37.19 37.32 37.13 37.27 37.07 37.19 37.07 37.02 37.13 36.95 37.19 36.9 37.31 36.86 37.44 36.86 37.56 36.9 37.74 36.98 38.34 37.41 38.34 36.81"/><polyline class="a" points="39.27 38.12 39.46 38.17 39.58 38.25 39.64 38.38 39.64 38.42 39.58 38.55 39.46 38.63 39.27 38.67 39.21 38.67 39.03 38.63 38.91 38.55 38.84 38.42 38.84 38.38 38.91 38.25 39.03 38.17 39.27 38.12 39.58 38.12 39.87 38.17 40.06 38.25 40.12 38.38 40.12 38.46 40.06 38.58 39.93 38.63"/><polygon class="a" points="39.99 37.74 40.06 37.79 40.12 37.74 40.06 37.7 39.99 37.74"/><polygon class="a" points="38.84 37.19 38.91 37.31 39.03 37.36 39.15 37.36 39.27 37.31 39.33 37.24 39.4 37.07 39.46 36.93 39.58 36.85 39.7 36.81 39.87 36.81 39.99 36.85 40.06 36.9 40.12 37.02 40.12 37.19 40.06 37.31 39.99 37.36 39.87 37.4 39.7 37.4 39.58 37.36 39.46 37.27 39.4 37.15 39.33 36.98 39.27 36.9 39.15 36.85 39.03 36.85 38.91 36.9 38.84 37.02 38.84 37.19"/><polyline class="a" points="43.24 39 43.18 38.91 42.99 38.79 44.27 38.79"/><polyline class="a" points="43.24 38.16 43.18 38.07 42.99 37.95 44.27 37.95"/><polygon class="a" points="44.14 37.35 44.2 37.4 44.27 37.35 44.2 37.31 44.14 37.35"/><polyline class="a" points="43.18 36.45 43.05 36.5 42.99 36.63 42.99 36.71 43.05 36.85 43.24 36.92 43.53 36.97 43.84 36.97 44.08 36.92 44.2 36.85 44.27 36.71 44.27 36.67 44.2 36.54 44.08 36.45 43.9 36.42 43.84 36.42 43.65 36.45 43.53 36.54 43.47 36.67 43.47 36.71 43.53 36.85 43.65 36.92 43.84 36.97"/><polyline class="a" points="47.63 39 47.57 38.91 47.39 38.79 48.66 38.79"/><polyline class="a" points="47.39 38.19 47.39 37.73 47.88 37.98 47.88 37.86 47.92 37.78 47.99 37.73 48.17 37.69 48.29 37.69 48.48 37.73 48.6 37.81 48.66 37.95 48.66 38.07 48.6 38.19 48.54 38.24 48.41 38.28"/><polygon class="a" points="48.54 37.35 48.6 37.4 48.66 37.35 48.6 37.31 48.54 37.35"/><path class="a" d="M47.39,36.5v.42l.54,0,0,0c-.42-.75,1.27-.6.66,0l-.12,0"/><polyline class="a" points="58.08 38.88 58.02 38.79 57.84 38.66 59.11 38.66"/><path class="a" d="M57.84,37.95l.06.12.12,0h.12l.12,0,.06-.09.06-.17.06-.12.11-.09.12,0h.18l.12,0,.06,0,.06.14v.17l-.06.12c-.92.42-.43-.71-1.15-.43l-.06.14Z"/><polygon class="a" points="58.99 37.23 59.05 37.26 59.11 37.23 59.05 37.18 58.99 37.23"/><polyline class="a" points="58.08 36.76 58.02 36.67 57.84 36.54 59.11 36.54"/><polyline class="a" points="74.15 38.39 74.09 38.39 73.97 38.34 73.9 38.3 73.84 38.22 73.84 38.05 73.9 37.96 73.97 37.92 74.09 37.88 74.21 37.88 74.32 37.92 74.5 38.01 75.12 38.43 75.12 37.84"/><path class="a" d="M73.84,37.08v.42l.54,0-.06,0c-.42-.75,1.29-.61.67,0l-.12,0"/><path class="a" d="M93.42,39v-.46l.49.26v-.13c.24-.38,1.14-.06.66.39l-.11,0"/><polyline class="a" points="93.42 38.16 93.42 37.69 93.91 37.95 93.91 37.81 93.97 37.73 94.03 37.69 94.22 37.64 94.34 37.64 94.52 37.69 94.64 37.78 94.7 37.9 94.7 38.03 94.64 38.16 94.57 38.19 94.46 38.24"/><polygon class="a" points="94.57 37.31 94.63 37.35 94.69 37.31 94.63 37.26 94.57 37.31"/><polyline class="a" points="93.42 36.54 94.28 36.97 94.28 36.33"/><line class="a" x1="93.42" y1="36.54" x2="94.7" y2="36.54"/><polyline class="a" points="111.42 38.65 112.27 39.06 112.27 38.43"/><line class="a" x1="111.42" y1="38.65" x2="112.7" y2="38.65"/><polyline class="a" points="111.66 38.09 111.61 38.01 111.42 37.88 112.7 37.88"/><polygon class="a" points="112.57 37.29 112.64 37.32 112.7 37.29 112.64 37.24 112.57 37.29"/><polyline class="a" points="111.72 36.91 111.66 36.91 111.55 36.86 111.48 36.82 111.42 36.74 111.42 36.56 111.48 36.48 111.55 36.44 111.66 36.39 111.78 36.39 111.9 36.44 112.08 36.53 112.7 36.95 112.7 36.36"/><polyline class="a" points="129.78 38.65 130.62 39.06 130.62 38.43"/><line class="a" x1="129.78" y1="38.65" x2="131.05" y2="38.65"/><polyline class="a" points="130.21 37.67 130.39 37.72 130.51 37.79 130.56 37.92 130.56 37.96 130.51 38.09 130.39 38.18 130.21 38.22 130.15 38.22 129.96 38.18 129.84 38.09 129.78 37.96 129.78 37.92 129.84 37.79 129.96 37.72 130.21 37.67 130.51 37.67 130.81 37.72 130.99 37.79 131.05 37.92 131.05 38.01 130.99 38.13 130.87 38.18"/><polygon class="a" points="130.93 37.29 130.99 37.32 131.05 37.29 130.99 37.24 130.93 37.29"/><polyline class="a" points="130.09 36.91 130.03 36.91 129.9 36.86 129.84 36.82 129.78 36.74 129.78 36.56 129.84 36.48 129.9 36.44 130.03 36.39 130.15 36.39 130.27 36.44 130.45 36.53 131.05 36.95 131.05 36.36"/><path class="a" d="M146.08,38.56V39l.55,0-.06,0c-.42-.75,1.27-.6.66,0l-.11,0"/><polyline class="a" points="146.39 38.18 146.32 38.18 146.2 38.13 146.14 38.09 146.08 38.01 146.08 37.84 146.14 37.75 146.2 37.72 146.32 37.67 146.45 37.67 146.75 37.79 147.35 38.22 147.35 37.63"/><polygon class="a" points="147.23 37.29 147.29 37.32 147.35 37.29 147.29 37.24 147.23 37.29"/><polyline class="a" points="146.39 36.91 146.32 36.91 146.2 36.86 146.14 36.82 146.08 36.74 146.08 36.56 146.14 36.48 146.2 36.44 146.32 36.39 146.45 36.39 146.57 36.44 146.75 36.53 147.35 36.95 147.35 36.36"/><polyline class="a" points="24.49 45.25 24.43 45.17 24.25 45.05 25.52 45.05"/><path class="a" d="M24.25,44.32l.06.14.12,0h.12l.12,0,.06-.09.06-.17.06-.13L25,44l.12,0h.17l.12,0,.06,0,.06.12v.17l-.06.14c-.93.39-.45-.74-1.15-.43l-.06.12Z"/><polyline class="a" points="24.67 43.14 24.86 43.19 24.98 43.27 25.04 43.39 25.04 43.43 24.98 43.56 24.86 43.65 24.67 43.69 24.61 43.69 24.43 43.65 24.31 43.56 24.25 43.43 24.25 43.39 24.31 43.27 24.43 43.19 24.67 43.14 24.98 43.14 25.27 43.19 25.46 43.27 25.52 43.39 25.52 43.48 25.46 43.6 25.33 43.65"/><polygon class="a" points="25.39 42.76 25.46 42.79 25.52 42.76 25.46 42.71 25.39 42.76"/><polyline class="a" points="24.43 41.86 24.31 41.91 24.25 42.03 24.25 42.12 24.31 42.24 24.49 42.33 24.8 42.38 25.1 42.38 25.34 42.33 25.46 42.24 25.52 42.12 25.52 42.08 25.46 41.95 25.34 41.86 25.16 41.83 25.1 41.83 24.92 41.86 24.8 41.95 24.73 42.08 24.73 42.12 24.8 42.24 24.92 42.33 25.1 42.38"/><polyline class="a" points="24.49 41.45 24.43 41.36 24.25 41.23 25.52 41.23"/><polyline class="a" points="29.67 45.39 29.61 45.3 29.43 45.17 30.71 45.17"/><polyline class="a" points="29.85 44.12 30.03 44.15 30.16 44.24 30.22 44.37 30.22 44.41 30.16 44.53 30.03 44.62 29.85 44.67 29.79 44.67 29.61 44.62 29.5 44.53 29.43 44.41 29.43 44.37 29.5 44.24 29.61 44.15 29.85 44.12 30.16 44.12 30.46 44.15 30.64 44.24 30.71 44.37 30.71 44.46 30.64 44.58 30.52 44.62"/><path class="a" d="M29.43,43.56l.06.12.17.09.31,0h.18l.31,0,.18-.09.06-.12v-.09l-.06-.13a1.38,1.38,0,0,0-1.15,0l-.06.13Z"/><polygon class="a" points="30.58 42.88 30.64 42.93 30.71 42.88 30.64 42.84 30.58 42.88"/><polyline class="a" points="29.73 42.5 29.67 42.5 29.54 42.46 29.5 42.41 29.43 42.33 29.43 42.16 29.5 42.08 29.54 42.03 29.67 42 29.79 42 29.91 42.03 30.09 42.12 30.71 42.55 30.71 41.95"/><polyline class="a" points="29.61 41.14 29.5 41.19 29.43 41.31 29.43 41.4 29.5 41.52 29.67 41.61 29.97 41.66 30.28 41.66 30.52 41.61 30.64 41.52 30.71 41.4 30.71 41.36 30.64 41.23 30.52 41.14 30.34 41.1 30.28 41.1 30.09 41.14 29.97 41.23 29.91 41.36 29.91 41.4 29.97 41.52 30.09 41.61 30.28 41.66"/><polyline class="a" points="31.73 45.4 31.67 45.33 31.49 45.19 32.76 45.19"/><polyline class="a" points="31.91 44.14 32.09 44.18 32.21 44.26 32.27 44.38 32.27 44.43 32.21 44.56 32.09 44.64 31.91 44.69 31.84 44.69 31.67 44.64 31.55 44.56 31.49 44.43 31.49 44.38 31.55 44.26 31.67 44.18 31.91 44.14 32.21 44.14 32.52 44.18 32.7 44.26 32.76 44.38 32.76 44.47 32.7 44.6 32.58 44.64"/><polygon class="a" points="31.49 43.58 31.55 43.71 31.73 43.8 32.03 43.83 32.21 43.83 32.52 43.8 32.7 43.71 32.76 43.58 32.76 43.5 32.7 43.37 32.52 43.28 32.21 43.25 32.03 43.25 31.73 43.28 31.55 43.37 31.49 43.5 31.49 43.58"/><polygon class="a" points="32.64 42.9 32.7 42.95 32.76 42.9 32.7 42.87 32.64 42.9"/><polygon class="a" points="31.49 42.32 31.55 42.44 31.73 42.52 32.03 42.56 32.21 42.56 32.52 42.52 32.7 42.44 32.76 42.32 32.76 42.23 32.7 42.1 32.52 42.01 32.21 41.97 32.03 41.97 31.73 42.01 31.55 42.1 31.49 42.23 31.49 42.32"/><polyline class="a" points="31.49 41.29 32.33 41.72 32.33 41.08"/><line class="a" x1="31.49" y1="41.29" x2="32.76" y2="41.29"/><polyline class="a" points="33.61 45.4 33.55 45.33 33.36 45.19 34.63 45.19"/><path class="a" d="M33.36,44.47l.06.14.12,0h.12l.11,0,.06-.09.06-.17.06-.13.12-.07.12,0h.18l.12,0,.06,0,.06.12v.17l-.06.14c-.9.42-.47-.72-1.15-.43l-.06.12Z"/><polyline class="a" points="33.78 43.28 33.96 43.33 34.08 43.42 34.15 43.54 34.15 43.58 34.08 43.71 33.96 43.8 33.78 43.84 33.73 43.84 33.55 43.8 33.42 43.71 33.36 43.58 33.36 43.54 33.42 43.42 33.55 43.33 33.78 43.28 34.08 43.28 34.39 43.33 34.57 43.42 34.63 43.54 34.63 43.63 34.57 43.75 34.45 43.8"/><polygon class="a" points="34.51 42.9 34.57 42.95 34.63 42.9 34.57 42.87 34.51 42.9"/><polyline class="a" points="33.61 42.44 33.55 42.35 33.36 42.23 34.63 42.23"/><polyline class="a" points="33.36 41.29 34.21 41.72 34.21 41.08"/><line class="a" x1="33.36" y1="41.29" x2="34.63" y2="41.29"/><polyline class="a" points="37.36 45.39 37.3 45.3 37.12 45.17 38.39 45.17"/><path class="a" d="M37.12,44.46l.06.12.12,0h.12l.12,0,.06-.09.06-.17.06-.12.12-.09.12,0h.18l.11,0,.06,0,.06.14v.17l-.06.12c-.88.42-.45-.72-1.15-.43l-.06.14Z"/><polyline class="a" points="37.55 43.27 37.73 43.31 37.85 43.39 37.91 43.52 37.91 43.56 37.85 43.69 37.73 43.77 37.55 43.82 37.49 43.82 37.3 43.77 37.18 43.69 37.12 43.56 37.12 43.52 37.18 43.39 37.3 43.31 37.55 43.27 37.85 43.27 38.16 43.31 38.33 43.39 38.39 43.52 38.39 43.6 38.33 43.74 38.22 43.77"/><polygon class="a" points="38.27 42.88 38.33 42.93 38.39 42.88 38.33 42.84 38.27 42.88"/><polyline class="a" points="37.36 42.41 37.3 42.33 37.12 42.21 38.39 42.21"/><polygon class="a" points="37.12 41.48 37.18 41.61 37.3 41.66 37.42 41.66 37.55 41.61 37.61 41.52 37.67 41.36 37.73 41.23 37.85 41.14 37.98 41.11 38.16 41.11 38.27 41.14 38.33 41.19 38.39 41.31 38.39 41.48 38.33 41.61 38.27 41.66 38.16 41.69 37.98 41.69 37.85 41.66 37.73 41.57 37.67 41.45 37.61 41.28 37.55 41.19 37.42 41.14 37.3 41.14 37.18 41.19 37.12 41.31 37.12 41.48"/><polyline class="a" points="39.09 45.39 39.03 45.3 38.84 45.17 40.12 45.17"/><polyline class="a" points="39.27 44.12 39.46 44.15 39.58 44.24 39.64 44.37 39.64 44.41 39.58 44.53 39.46 44.62 39.27 44.67 39.21 44.67 39.03 44.62 38.91 44.53 38.84 44.41 38.84 44.37 38.91 44.24 39.03 44.15 39.27 44.12 39.58 44.12 39.87 44.15 40.06 44.24 40.12 44.37 40.12 44.46 40.06 44.58 39.93 44.62"/><path class="a" d="M38.84,43.56l.06.12.18.09.31,0h.18l.29,0,.18-.09.06-.12v-.09l-.06-.13a1.39,1.39,0,0,0-1.15,0l-.06.13Z"/><polygon class="a" points="39.99 42.88 40.06 42.93 40.12 42.88 40.06 42.84 39.99 42.88"/><polyline class="a" points="38.84 42.03 38.84 42.46 39.4 42.5 39.33 42.46 39.27 42.33 39.27 42.21 39.33 42.08 39.46 42 39.64 41.95 39.76 41.95 39.93 42 40.06 42.08 40.12 42.21 40.12 42.33 40.06 42.46 39.99 42.5 39.87 42.55"/><polyline class="a" points="39.03 41.14 38.91 41.19 38.84 41.31 38.84 41.4 38.91 41.52 39.09 41.61 39.4 41.66 39.7 41.66 39.93 41.61 40.06 41.52 40.12 41.4 40.12 41.36 40.06 41.23 39.93 41.14 39.76 41.1 39.7 41.1 39.52 41.14 39.4 41.23 39.33 41.36 39.33 41.4 39.4 41.52 39.52 41.61 39.7 41.66"/><polyline class="a" points="43.27 45.39 43.21 45.3 43.03 45.17 44.3 45.17"/><path class="a" d="M43,44.46l.06.12.12,0h.12l.11,0,.06-.09.06-.17.06-.12.12-.09.12,0h.18l.12,0,.06,0,.06.14v.17l-.06.12c-.9.42-.47-.72-1.15-.43l-.06.14Z"/><polyline class="a" points="43.45 43.27 43.63 43.31 43.75 43.39 43.81 43.52 43.81 43.56 43.75 43.69 43.63 43.77 43.45 43.82 43.38 43.82 43.21 43.77 43.09 43.69 43.03 43.56 43.03 43.52 43.09 43.39 43.21 43.31 43.45 43.27 43.75 43.27 44.06 43.31 44.24 43.39 44.3 43.52 44.3 43.6 44.24 43.74 44.12 43.77"/><polygon class="a" points="44.18 42.88 44.24 42.93 44.3 42.88 44.24 42.84 44.18 42.88"/><polyline class="a" points="43.03 42.12 43.87 42.55 43.87 41.91"/><line class="a" x1="43.03" y1="42.12" x2="44.3" y2="42.12"/><polyline class="a" points="43.21 41.14 43.09 41.19 43.03 41.31 43.03 41.4 43.09 41.52 43.27 41.61 43.57 41.66 43.87 41.66 44.12 41.61 44.24 41.52 44.3 41.4 44.3 41.36 44.24 41.23 44.12 41.14 43.94 41.1 43.87 41.1 43.69 41.14 43.57 41.23 43.51 41.36 43.51 41.4 43.57 41.52 43.69 41.61 43.87 41.66"/><polyline class="a" points="47.67 45.39 47.61 45.3 47.42 45.17 48.7 45.17"/><path class="a" d="M47.42,44.46l.06.12.12,0h.12l.11,0,.06-.09.06-.17L48,44.2l.12-.09.12,0h.18l.12,0,.06,0,.06.14v.17l-.06.12c-.9.42-.47-.72-1.15-.43l-.06.14Z"/><path class="a" d="M47.42,43.6l.06.14.12,0h.12l.11,0,.06-.09.06-.17.06-.13.12-.07.12,0h.18l.12,0,.06,0,.06.12v.17l-.06.14c-.9.42-.47-.72-1.15-.43l-.06.12Z"/><polygon class="a" points="48.57 42.88 48.63 42.93 48.7 42.88 48.63 42.84 48.57 42.88"/><polyline class="a" points="47.61 42 47.48 42.04 47.42 42.16 47.42 42.24 47.48 42.38 47.67 42.46 47.96 42.5 48.27 42.5 48.51 42.46 48.63 42.38 48.7 42.24 48.7 42.21 48.63 42.09 48.51 42 48.33 41.95 48.27 41.95 48.08 42 47.96 42.09 47.9 42.21 47.9 42.24 47.96 42.38 48.08 42.46 48.27 42.5"/><path class="a" d="M47.42,41.19v.42l.54,0-.06,0c-.42-.75,1.29-.61.67,0l-.12,0"/><polyline class="a" points="58.12 45.39 58.06 45.3 57.87 45.17 59.15 45.17"/><path class="a" d="M57.87,44.46l.06.12.12,0h.12l.12,0,.06-.09.06-.17,0-.12.12-.09.12,0h.18l.12,0,.06,0,.06.14v.17l-.06.12c-.93.41-.42-.71-1.15-.43l-.06.14Z"/><path class="a" d="M57.87,43.6l.06.14.12,0h.12l.12,0,.06-.09.06-.17,0-.13.12-.07.12,0h.18l.12,0,.06,0,.06.12v.17l-.06.14c-.93.41-.42-.72-1.15-.43l-.06.12Z"/><polygon class="a" points="59.02 42.88 59.09 42.93 59.15 42.88 59.09 42.84 59.02 42.88"/><polyline class="a" points="58.06 42 57.94 42.04 57.87 42.16 57.87 42.24 57.94 42.38 58.12 42.46 58.42 42.5 58.72 42.5 58.96 42.46 59.09 42.38 59.15 42.24 59.15 42.21 59.09 42.09 58.96 42 58.78 41.95 58.72 41.95 58.53 42 58.42 42.09 58.36 42.21 58.36 42.24 58.42 42.38 58.53 42.46 58.72 42.5"/><polyline class="a" points="58.18 41.66 58.12 41.66 57.99 41.61 57.93 41.57 57.87 41.48 57.87 41.31 57.93 41.23 57.99 41.19 58.12 41.14 58.24 41.14 58.36 41.19 58.53 41.28 59.15 41.69 59.15 41.1"/><polyline class="a" points="74.11 45.39 74.06 45.3 73.88 45.17 75.15 45.17"/><path class="a" d="M73.88,44.46l.06.12.12,0h.11l.12,0,.06-.09.06-.17.06-.12.12-.09.12,0h.18l.12,0,.06,0,.06.14v.17l-.06.12c-.9.42-.46-.71-1.15-.43l-.06.14Z"/><path class="a" d="M73.88,43.6l.06.14.12,0h.11l.12,0,.06-.09.06-.17.06-.13.12-.07.12,0h.18l.12,0,.06,0,.06.12v.17l-.06.14c-.9.42-.46-.71-1.15-.43l-.06.12Z"/><polygon class="a" points="75.03 42.88 75.09 42.93 75.15 42.88 75.09 42.84 75.03 42.88"/><polyline class="a" points="73.88 42.46 73.88 42 74.36 42.24 74.36 42.12 74.42 42.04 74.48 42 74.66 41.95 74.79 41.95 74.97 42 75.09 42.09 75.15 42.21 75.15 42.33 75.09 42.46 75.03 42.5 74.91 42.55"/><path class="a" d="M73.88,41.19v.42l.54,0-.06,0c-.42-.75,1.29-.61.67,0l-.12,0"/><polyline class="a" points="93.7 45.25 93.64 45.17 93.46 45.05 94.73 45.05"/><path class="a" d="M93.46,44.32l.06.14.12,0h.12l.12,0,.06-.09L94,44.2l.06-.13.12-.09.12,0h.17l.12,0,.06,0,.06.12v.17l-.06.14c-.93.39-.45-.74-1.15-.43l-.06.12Z"/><polygon class="a" points="93.46 43.48 93.52 43.6 93.64 43.65 93.77 43.65 93.89 43.6 93.95 43.52 94.01 43.34 94.07 43.22 94.19 43.14 94.32 43.1 94.49 43.1 94.61 43.14 94.67 43.19 94.73 43.31 94.73 43.48 94.67 43.6 94.61 43.65 94.49 43.69 94.32 43.69 94.19 43.65 94.07 43.56 94.01 43.43 93.95 43.27 93.89 43.19 93.77 43.14 93.64 43.14 93.52 43.19 93.46 43.31 93.46 43.48"/><polygon class="a" points="94.61 42.76 94.67 42.79 94.73 42.76 94.67 42.71 94.61 42.76"/><polyline class="a" points="93.77 42.38 93.7 42.38 93.58 42.33 93.52 42.29 93.46 42.21 93.46 42.03 93.52 41.95 93.58 41.91 93.7 41.86 93.83 41.86 93.95 41.91 94.13 42 94.73 42.41 94.73 41.83"/><polyline class="a" points="93.7 41.45 93.64 41.36 93.46 41.23 94.73 41.23"/><polyline class="a" points="111.69 45.25 111.63 45.17 111.46 45.05 112.72 45.05"/><path class="a" d="M111.46,44.32l0,.14.12,0h.12l.12,0,.06-.09.06-.17.06-.13.12-.09.12,0h.18l.12,0,.06,0,0,.12v.17l0,.14c-.94.39-.46-.74-1.16-.43l0,.12Z"/><polygon class="a" points="111.46 43.48 111.51 43.6 111.63 43.65 111.75 43.65 111.88 43.6 111.94 43.52 112 43.34 112.06 43.22 112.18 43.14 112.31 43.1 112.49 43.1 112.61 43.14 112.67 43.19 112.72 43.31 112.72 43.48 112.67 43.6 112.61 43.65 112.49 43.69 112.31 43.69 112.18 43.65 112.06 43.56 112 43.43 111.94 43.27 111.88 43.19 111.75 43.14 111.63 43.14 111.51 43.19 111.46 43.31 111.46 43.48"/><polygon class="a" points="112.61 42.76 112.67 42.79 112.72 42.76 112.67 42.71 112.61 42.76"/><polyline class="a" points="111.69 42.29 111.63 42.21 111.46 42.08 112.72 42.08"/><polyline class="a" points="111.69 41.45 111.63 41.36 111.46 41.23 112.72 41.23"/><polyline class="a" points="130.06 45.39 130 45.3 129.82 45.17 131.09 45.17"/><path class="a" d="M129.82,44.46l.06.12.12,0h.12l.12,0,.06-.09.06-.17,0-.12.12-.09.12,0h.18l.12,0,.06,0,.06.14v.17l-.06.12c-.93.41-.42-.71-1.15-.43l-.06.14Z"/><polyline class="a" points="131.09 43.65 129.82 43.22 129.82 43.82"/><polygon class="a" points="130.97 42.88 131.03 42.93 131.09 42.88 131.03 42.84 130.97 42.88"/><polyline class="a" points="130.25 42 130.42 42.04 130.54 42.12 130.6 42.24 130.6 42.29 130.54 42.41 130.42 42.5 130.25 42.55 130.18 42.55 130 42.5 129.88 42.41 129.82 42.29 129.82 42.24 129.88 42.12 130 42.04 130.25 42 130.54 42 130.84 42.04 131.03 42.12 131.09 42.24 131.09 42.33 131.03 42.46 130.91 42.5"/><polyline class="a" points="131.09 41.52 129.82 41.1 129.82 41.69"/><polyline class="a" points="146.36 45.39 146.3 45.3 146.12 45.17 147.39 45.17"/><path class="a" d="M146.12,44.46l.06.12.12,0h.12l.12,0,.06-.09.06-.17.06-.12.12-.09.12,0h.17l.12,0,.06,0,.06.14v.17l-.06.12c-.88.42-.45-.72-1.15-.43l-.06.14Z"/><polyline class="a" points="147.39 43.65 146.12 43.22 146.12 43.82"/><polygon class="a" points="147.27 42.88 147.33 42.93 147.39 42.88 147.33 42.84 147.27 42.88"/><path class="a" d="M146.12,42.33l.06.14.12,0h.12l.12,0,.06-.09.06-.17.06-.12.12-.08.12,0h.17l.12,0,.06,0,.06.12v.17l-.06.14c-.88.42-.45-.72-1.15-.43l-.06.12Z"/><polyline class="a" points="147.39 41.52 146.12 41.1 146.12 41.69"/><polygon class="a" points="1.89 37.18 1.89 36.25 2.19 36.25 2.33 36.3 2.41 36.38 2.46 36.48 2.5 36.6 2.5 36.83 2.46 36.96 2.41 37.05 2.33 37.14 2.19 37.18 1.89 37.18"/><line class="a" x1="2.82" y1="36.25" x2="2.82" y2="37.18"/><polyline class="a" points="3.75 36.38 3.66 36.3 3.53 36.25 3.34 36.25 3.21 36.3 3.12 36.38 3.12 36.48 3.17 36.57 3.21 36.6 3.31 36.65 3.56 36.74 3.66 36.79 3.7 36.84 3.75 36.92 3.75 37.05 3.66 37.14 3.53 37.18 3.34 37.18 3.21 37.14 3.12 37.05"/><line class="a" x1="4.24" y1="36.25" x2="4.24" y2="37.18"/><line class="a" x1="3.92" y1="36.25" x2="4.54" y2="36.25"/><polygon class="a" points="4.81 37.09 4.76 37.14 4.81 37.18 4.85 37.14 4.81 37.09"/><polyline class="a" points="6.13 37.18 6.13 36.25 6.54 36.25 6.67 36.3 6.71 36.34 6.76 36.43 6.76 36.56 6.71 36.65 6.67 36.7 6.54 36.74 6.13 36.74"/><polyline class="a" points="7.06 37.18 7.06 36.25 7.47 36.25 7.6 36.3 7.64 36.34 7.69 36.43 7.69 36.52 7.64 36.6 7.6 36.65 7.47 36.7 7.06 36.7"/><line class="a" x1="7.38" y1="36.7" x2="7.69" y2="37.18"/><path class="a" d="M8.21,36.25l-.09,0L8,36.38c-.16.22-.13.71.17.79H8.4l.08,0a.56.56,0,0,0,0-.84l-.08,0Z"/><path class="a" d="M9.6,36.48l0-.1-.09-.09c-.27-.17-.48,0-.54.31v.23L9,37l0,.1.1.09.08,0h.17l.1,0,.09-.09,0-.1v-.12H9.36"/><path class="a" d="M9.9,37.18v-.93h.39c.31.06.31.4,0,.45H9.9"/><line class="a" x1="10.21" y1="36.7" x2="10.53" y2="37.18"/><polyline class="a" points="10.83 37.18 10.83 36.25 11.41 36.25"/><line class="a" x1="10.83" y1="36.7" x2="11.19" y2="36.7"/><line class="a" x1="10.83" y1="37.18" x2="11.41" y2="37.18"/><path class="a" d="M12.25,36.38l-.1-.09-.12,0h-.18l-.13,0-.09.09v.1l0,.09,0,0,.08,0,.27.09c.39.21.16.5-.22.44l-.13,0-.09-.09"/><polyline class="a" points="13.13 36.38 13.05 36.3 12.91 36.25 12.73 36.25 12.61 36.3 12.51 36.38 12.51 36.48 12.56 36.57 12.61 36.6 12.69 36.65 12.96 36.74 13.05 36.79 13.09 36.84 13.13 36.92 13.13 37.05 13.05 37.14 12.91 37.18 12.73 37.18 12.61 37.14 12.51 37.05"/><line class="a" x1="13.44" y1="36.25" x2="13.44" y2="37.18"/><polyline class="a" points="13.66 36.25 14.02 37.18 14.37 36.25"/><polyline class="a" points="14.47 37.18 14.82 36.25 15.18 37.18"/><line class="a" x1="14.59" y1="36.87" x2="15.04" y2="36.87"/><path class="a" d="M2.19,37.8l-.09.09a1,1,0,0,0,0,1.25l.09.09"/><line class="a" x1="2.5" y1="38.29" x2="2.5" y2="38.91"/><polyline class="a" points="2.5 38.46 2.63 38.34 2.73 38.29 2.85 38.29 2.95 38.34 2.99 38.46 2.99 38.91"/><polyline class="a" points="2.99 38.46 3.12 38.34 3.21 38.29 3.34 38.29 3.43 38.34 3.48 38.46 3.48 38.91"/><path class="a" d="M3.78,37.8l.1.09a1,1,0,0,1,0,1.25l-.1.09"/><polygon class="a" points="1.89 32.34 1.89 31.41 2.19 31.41 2.33 31.45 2.41 31.55 2.46 31.63 2.5 31.77 2.5 31.99 2.46 32.12 2.41 32.21 2.33 32.29 2.19 32.34 1.89 32.34"/><line class="a" x1="2.82" y1="31.41" x2="2.82" y2="32.34"/><path class="a" d="M3.75,31.55l-.09-.1-.13,0c-.26,0-.57.07-.32.35l.1,0,.26.1.1,0,0,0,0,.08v.14l-.09.08-.13,0H3.34l-.13,0-.09-.08"/><line class="a" x1="4.24" y1="31.41" x2="4.24" y2="32.34"/><line class="a" x1="3.92" y1="31.41" x2="4.54" y2="31.41"/><polygon class="a" points="4.81 32.24 4.76 32.29 4.81 32.34 4.85 32.29 4.81 32.24"/><polyline class="a" points="6.13 32.34 6.13 31.41 6.54 31.41 6.67 31.45 6.71 31.5 6.76 31.58 6.76 31.72 6.71 31.8 6.67 31.85 6.54 31.9 6.13 31.9"/><polyline class="a" points="6.93 32.34 7.28 31.41 7.64 32.34"/><line class="a" x1="7.06" y1="32.03" x2="7.5" y2="32.03"/><polyline class="a" points="7.86 32.34 7.86 31.41 8.26 31.41 8.4 31.45 8.43 31.5 8.48 31.58 8.48 31.67 8.43 31.77 8.4 31.8 8.26 31.85 7.86 31.85"/><line class="a" x1="8.18" y1="31.85" x2="8.48" y2="32.34"/><polyline class="a" points="8.75 32.34 9.37 31.41 8.75 31.41"/><line class="a" x1="8.75" y1="32.34" x2="9.36" y2="32.34"/><line class="a" x1="9.68" y1="31.41" x2="9.68" y2="32.34"/><polyline class="a" points="9.9 32.34 10.26 31.41 10.61 32.34"/><line class="a" x1="10.04" y1="32.03" x2="10.48" y2="32.03"/><polyline class="a" points="10.83 31.41 10.83 32.34 11.36 32.34"/><polyline class="a" points="11.58 32.34 11.58 31.41 12.15 31.41"/><line class="a" x1="11.58" y1="31.85" x2="11.93" y2="31.85"/><line class="a" x1="11.58" y1="32.34" x2="12.15" y2="32.34"/><path class="a" d="M2.19,33l-.09.1a1,1,0,0,0,0,1.24l.09.09"/><line class="a" x1="2.5" y1="33.44" x2="2.5" y2="34.07"/><polyline class="a" points="2.5 33.63 2.63 33.49 2.73 33.44 2.85 33.44 2.95 33.49 2.99 33.63 2.99 34.07"/><polyline class="a" points="2.99 33.63 3.12 33.49 3.21 33.44 3.34 33.44 3.43 33.49 3.48 33.63 3.48 34.07"/><path class="a" d="M3.78,33l.1.1a1,1,0,0,1,0,1.24l-.1.09"/><polyline class="a" points="1.89 29.38 1.89 28.45 2.28 28.45 2.41 28.5 2.46 28.54 2.5 28.64 2.5 28.77 2.46 28.86 2.41 28.89 2.28 28.94 1.89 28.94"/><line class="a" x1="2.82" y1="28.45" x2="2.82" y2="29.38"/><path class="a" d="M3.78,28.67l0-.09-.08-.08-.1,0H3.39l-.08,0-.1.08,0,.09,0,.14V29c.07.28.23.45.54.32l.08-.1,0-.09"/><path class="a" d="M4.71,28.67l0-.09-.08-.08-.1,0H4.32l-.08,0-.1.08,0,.09,0,.14V29c.07.28.23.45.54.32l.08-.1,0-.09"/><line class="a" x1="5.03" y1="28.45" x2="5.03" y2="29.38"/><line class="a" x1="5.64" y1="28.45" x2="5.64" y2="29.38"/><line class="a" x1="5.03" y1="28.89" x2="5.64" y2="28.89"/><polyline class="a" points="6 29.38 6 28.45 6.57 28.45"/><line class="a" x1="6" y1="28.89" x2="6.35" y2="28.89"/><line class="a" x1="6" y1="29.38" x2="6.57" y2="29.38"/><line class="a" x1="7.03" y1="28.45" x2="7.03" y2="29.38"/><line class="a" x1="6.71" y1="28.45" x2="7.33" y2="28.45"/><line class="a" x1="7.74" y1="28.45" x2="7.74" y2="29.38"/><line class="a" x1="7.42" y1="28.45" x2="8.04" y2="28.45"/><path class="a" d="M8.48,28.45l-.09,0-.08.09a.54.54,0,0,0,.17.79h.18l.08,0,.09-.1,0-.09,0-.13v-.22l0-.14,0-.08-.09-.09-.08,0Z"/><path class="a" d="M2.16,41.83l-.1,0L2,42c-.16.21-.13.73.18.79h.17l.09,0a.56.56,0,0,0,0-.84l-.09,0Z"/><line class="a" x1="2.28" y1="42.59" x2="2.55" y2="42.85"/><polyline class="a" points="2.9 41.83 2.9 42.5 2.95 42.63 3.04 42.72 3.17 42.76 3.26 42.76 3.39 42.72 3.48 42.63 3.53 42.5 3.53 41.83"/><path class="a" d="M4.1,41.83l-.09,0-.1.09c-.15.25-.13.69.18.79h.17l.09,0a.56.56,0,0,0,0-.84l-.09,0Z"/><line class="a" x1="5.03" y1="41.83" x2="5.03" y2="42.76"/><line class="a" x1="4.71" y1="41.83" x2="5.34" y2="41.83"/><polyline class="a" points="5.42 42.76 5.78 41.83 6.13 42.76"/><line class="a" x1="5.56" y1="42.45" x2="6" y2="42.45"/><line class="a" x1="7.47" y1="41.83" x2="7.47" y2="42.76"/><line class="a" x1="7.15" y1="41.83" x2="7.77" y2="41.83"/><polyline class="a" points="7.99 42.76 7.99 41.83 8.57 41.83"/><line class="a" x1="7.99" y1="42.28" x2="8.35" y2="42.28"/><line class="a" x1="7.99" y1="42.76" x2="8.57" y2="42.76"/><path class="a" d="M8.84,42.76v-.93h.4c.3.07.3.38,0,.45h-.4"/><line class="a" x1="9.14" y1="42.28" x2="9.46" y2="42.76"/><path class="a" d="M9.77,42.76v-.93h.4c.3.07.3.38,0,.45h-.4"/><line class="a" x1="10.07" y1="42.28" x2="10.39" y2="42.76"/><polyline class="a" points="10.7 42.76 10.7 41.83 11.27 41.83"/><line class="a" x1="10.7" y1="42.28" x2="11.05" y2="42.28"/><line class="a" x1="10.7" y1="42.76" x2="11.27" y2="42.76"/><polyline class="a" points="11.54 42.76 11.54 41.83 12.15 42.76 12.15 41.83"/><path class="a" d="M12.73,41.83l-.09,0-.08.09c-.16.22-.13.71.17.79h.18l.08,0a.56.56,0,0,0,0-.84l-.08,0Z"/><path class="a" d="M2.19,43.38l-.09.09a1,1,0,0,0,0,1.25l.09.09"/><line class="a" x1="2.5" y1="43.87" x2="2.5" y2="44.49"/><polyline class="a" points="2.5 44.04 2.63 43.92 2.73 43.87 2.85 43.87 2.95 43.92 2.99 44.04 2.99 44.49"/><polyline class="a" points="2.99 44.04 3.12 43.92 3.21 43.87 3.34 43.87 3.43 43.92 3.48 44.04 3.48 44.49"/><polyline class="a" points="5.2 44.01 5.17 43.92 5.03 43.87 4.9 43.87 4.76 43.92 4.71 44.01 4.76 44.09 4.85 44.14 5.07 44.18 5.17 44.23 5.2 44.31 5.2 44.36 5.17 44.45 5.03 44.5 4.9 44.5 4.76 44.45 4.71 44.36"/><polygon class="a" points="5.56 44.4 5.52 44.45 5.56 44.49 5.61 44.45 5.56 44.4"/><line class="a" x1="5.96" y1="43.56" x2="5.96" y2="44.49"/><polygon class="a" points="6.35 44.4 6.32 44.45 6.35 44.49 6.4 44.45 6.35 44.4"/><line class="a" x1="6.76" y1="43.87" x2="6.76" y2="44.49"/><polyline class="a" points="6.76 44.04 6.89 43.92 6.98 43.87 7.11 43.87 7.2 43.92 7.25 44.04 7.25 44.49"/><polyline class="a" points="7.25 44.04 7.38 43.92 7.47 43.87 7.6 43.87 7.69 43.92 7.74 44.04 7.74 44.49"/><rect class="a" x="8.09" y="44.41" width="0.07" height="0.07" transform="translate(-29.05 18.77) rotate(-45)"/><path class="a" d="M8.48,43.38l.09.09a1,1,0,0,1,0,1.25l-.09.09"/><line class="a" x1="3.77" y1="25.16" x2="6.01" y2="25.16"/><polygon class="a" points="8.25 25.16 6.01 26.57 6.01 25.16 8.25 25.16"/><line class="a" x1="7.88" y1="25.39" x2="8.12" y2="25.16"/><line class="a" x1="6.13" y1="26.48" x2="7.46" y2="25.16"/><line class="a" x1="6.01" y1="25.96" x2="6.81" y2="25.16"/><line class="a" x1="6.01" y1="25.31" x2="6.15" y2="25.16"/><line class="a" x1="7.06" y1="25.91" x2="6.32" y2="25.16"/><line class="a" x1="6.66" y1="26.15" x2="6.01" y2="25.5"/><line class="a" x1="6.26" y1="26.41" x2="6.01" y2="26.16"/><line class="a" x1="7.47" y1="25.65" x2="6.98" y2="25.16"/><line class="a" x1="7.87" y1="25.4" x2="7.63" y2="25.16"/><line class="a" x1="3.77" y1="25.16" x2="6.01" y2="26.57"/><path class="a" d="M1.31,23.26l-.11,0-.11.11c-.21.28-.16.9.22,1h.22l.11,0a.7.7,0,0,0,0-1.07l-.11,0Z"/><line class="a" x1="1.48" y1="24.21" x2="1.81" y2="24.55"/><line class="a" x1="2.18" y1="23.92" x2="2.18" y2="24.43"/><polyline class="a" points="2.18 24.14 2.22 24.03 2.29 23.96 2.37 23.92 2.48 23.92"/><rect class="a" x="2.63" y="23.68" width="0.05" height="0.05" transform="translate(-15.98 8.82) rotate(-44.99)"/><line class="a" x1="2.66" y1="23.96" x2="2.66" y2="24.43"/><polyline class="a" points="3.17 23.67 3.1 23.67 3.02 23.7 2.99 23.81 2.99 24.43"/><line class="a" x1="2.88" y1="23.92" x2="3.14" y2="23.92"/><line class="a" x1="3.47" y1="23.76" x2="4.47" y2="23.76"/><line class="a" x1="3.47" y1="24.1" x2="4.47" y2="24.1"/><polyline class="a" points="5.03 23.48 5.14 23.42 5.31 23.26 5.31 24.43"/><polygon class="a" points="6.27 23.26 6.1 23.31 6.04 23.42 6.04 23.53 6.1 23.64 6.21 23.7 6.43 23.77 6.6 23.81 6.71 23.92 6.77 24.03 6.77 24.2 6.71 24.32 6.66 24.38 6.49 24.43 6.27 24.43 6.1 24.38 6.04 24.32 5.99 24.2 5.99 24.03 6.04 23.92 6.16 23.81 6.32 23.77 6.55 23.7 6.66 23.64 6.71 23.53 6.71 23.42 6.66 23.31 6.49 23.26 6.27 23.26"/><polygon class="a" points="7.44 23.26 7.27 23.31 7.16 23.48 7.1 23.77 7.1 23.92 7.16 24.2 7.27 24.38 7.44 24.43 7.55 24.43 7.71 24.38 7.83 24.2 7.88 23.92 7.88 23.77 7.83 23.48 7.71 23.31 7.55 23.26 7.44 23.26"/><line class="a" x1="9.45" y1="23.64" x2="9.45" y2="24.43"/><polyline class="a" points="9.45 23.88 9.62 23.7 9.73 23.64 9.9 23.64 10.01 23.7 10.06 23.88 10.06 24.43"/><polyline class="a" points="10.06 23.88 10.23 23.7 10.34 23.64 10.52 23.64 10.63 23.7 10.69 23.88 10.69 24.43"/><polyline class="a" points="12.86 23.81 12.8 23.7 12.64 23.64 12.47 23.64 12.3 23.7 12.25 23.81 12.3 23.92 12.41 23.98 12.69 24.03 12.8 24.09 12.86 24.21 12.86 24.27 12.8 24.38 12.64 24.43 12.47 24.43 12.3 24.38 12.25 24.27"/><polygon class="a" points="13.3 24.32 13.26 24.38 13.3 24.43 13.37 24.38 13.3 24.32"/><line class="a" x1="13.82" y1="23.26" x2="13.82" y2="24.43"/><polygon class="a" points="14.32 24.32 14.26 24.38 14.32 24.43 14.37 24.38 14.32 24.32"/><line class="a" x1="14.82" y1="23.64" x2="14.82" y2="24.43"/><polyline class="a" points="14.82 23.88 14.99 23.7 15.1 23.64 15.26 23.64 15.37 23.7 15.43 23.88 15.43 24.43"/><polyline class="a" points="15.43 23.88 15.61 23.7 15.71 23.64 15.89 23.64 16 23.7 16.05 23.88 16.05 24.43"/><polygon class="a" points="16.55 24.32 16.5 24.38 16.55 24.43 16.61 24.38 16.55 24.32"/><line class="b" x1="37.51" y1="5.83" x2="38.49" y2="4.83"/><line class="b" x1="38.49" y1="5.83" x2="37.51" y2="4.83"/><line class="b" x1="33.51" y1="5.92" x2="34.49" y2="4.94"/><line class="b" x1="34.49" y1="5.92" x2="33.51" y2="4.94"/><line class="c" x1="29.58" y1="3.33" x2="30.56" y2="2.35"/><line class="c" x1="30.56" y1="3.33" x2="29.58" y2="2.35"/><line class="c" x1="38.99" y1="2.63" x2="39.97" y2="1.65"/><line class="c" x1="39.97" y1="2.63" x2="38.99" y2="1.65"/><line class="d" x1="34" y1="4.74" x2="34" y2="6.12"/><path class="d" d="M33.3,5.43H34.7l0-.18-.07-.17a.7.7,0,0,0-1.27.17l0,.18,0,.17a.7.7,0,0,0,1.27.17l.07-.17,0-.17"/><polyline class="a" points="93.07 28.46 93.19 28.4 93.39 28.21 93.39 29.54"/><polyline class="a" points="94.21 28.52 94.21 28.46 94.27 28.34 94.33 28.28 94.46 28.21 94.72 28.21 94.84 28.28 94.9 28.34 94.97 28.46 94.97 28.6 94.9 28.72 94.78 28.9 94.14 29.54 95.03 29.54"/></svg>