<svg xmlns="http://www.w3.org/2000/svg" viewBox="0 0 143.78 47.97"><defs><style>.a,.b,.c,.d{fill:none;stroke-linecap:round;stroke-linejoin:round;stroke-width:0.21px;}.a{stroke:#000;}.b{stroke:#00b800;}.c{stroke:#00bfff;}.d{stroke:blue;}</style></defs><title>cad0.6</title><polyline class="a" points="17.3 29.1 17.44 29.04 17.63 28.84 17.63 30.17"/><line class="a" x1="17.46" y1="31.81" x2="17.46" y2="35.51"/><line class="a" x1="1.19" y1="27.19" x2="142.5" y2="27.19"/><line class="a" x1="17.46" y1="31.81" x2="142.5" y2="31.81"/><line class="a" x1="17.46" y1="35.51" x2="142.5" y2="35.51"/><line class="a" x1="17.46" y1="41.04" x2="142.5" y2="41.04"/><polyline class="a" points="17.46 46.58 142.5 46.58 142.5 27.19"/><polyline class="a" points="20.75 33.09 21.25 33.09 20.98 33.45 21.12 33.45 21.2 33.49 21.25 33.53 21.3 33.67 21.3 33.75 21.25 33.88 21.17 33.97 21.03 34.02 20.89 34.02 20.75 33.97 20.71 33.93 20.66 33.84"/><polygon class="a" points="21.66 33.93 21.62 33.97 21.66 34.02 21.71 33.97 21.66 33.93"/><polyline class="a" points="22.56 33.09 22.11 33.09 22.07 33.49 22.11 33.45 22.25 33.4 22.38 33.4 22.52 33.45 22.61 33.53 22.66 33.67 22.66 33.75 22.61 33.88 22.52 33.97 22.38 34.02 22.25 34.02 22.11 33.97 22.07 33.93 22.02 33.84"/><polygon class="a" points="16.77 38.37 16.84 38.49 17.02 38.57 17.34 38.61 17.53 38.61 17.83 38.57 18.02 38.49 18.08 38.37 18.08 38.28 18.02 38.15 17.83 38.06 17.53 38.02 17.34 38.02 17.02 38.06 16.84 38.15 16.77 38.28 16.77 38.37"/><polyline class="a" points="17.02 45.88 16.96 45.79 16.77 45.67 18.08 45.67"/><polygon class="a" points="16.77 44.95 16.84 45.07 16.96 45.12 17.09 45.12 17.21 45.07 17.28 44.98 17.34 44.81 17.4 44.69 17.53 44.61 17.65 44.57 17.83 44.57 17.95 44.61 18.02 44.66 18.08 44.78 18.08 44.95 18.02 45.07 17.95 45.12 17.83 45.16 17.65 45.16 17.53 45.12 17.4 45.03 17.34 44.9 17.28 44.73 17.21 44.66 17.09 44.61 16.96 44.61 16.84 44.66 16.77 44.78 16.77 44.95"/><polyline class="a" points="17.21 43.76 17.4 43.8 17.53 43.88 17.59 44.02 17.59 44.06 17.53 44.18 17.4 44.26 17.21 44.31 17.15 44.31 16.96 44.26 16.84 44.18 16.77 44.06 16.77 44.02 16.84 43.88 16.96 43.8 17.21 43.76 17.53 43.76 17.83 43.8 18.02 43.88 18.08 44.02 18.08 44.1 18.02 44.23 17.89 44.26"/><polygon class="a" points="17.95 43.38 18.02 43.42 18.08 43.38 18.02 43.34 17.95 43.38"/><polyline class="a" points="16.96 42.49 16.84 42.53 16.77 42.66 16.77 42.75 16.84 42.87 17.02 42.96 17.34 42.99 17.65 42.99 17.89 42.96 18.02 42.87 18.08 42.75 18.08 42.7 18.02 42.58 17.89 42.49 17.71 42.45 17.65 42.45 17.46 42.49 17.34 42.58 17.28 42.7 17.28 42.75 17.34 42.87 17.46 42.96 17.65 42.99"/><polyline class="a" points="17.02 42.07 16.96 41.98 16.77 41.86 18.08 41.86"/><line class="a" x1="17.46" y1="27.19" x2="17.46" y2="5.02"/><line class="a" x1="138.94" y1="27.19" x2="138.94" y2="8.11"/><line class="a" x1="104.47" y1="27.19" x2="104.47" y2="7.27"/><line class="a" x1="92.99" y1="27.19" x2="92.99" y2="7.11"/><line class="a" x1="70.02" y1="27.19" x2="70.02" y2="6.24"/><line class="a" x1="53.84" y1="27.19" x2="53.84" y2="6.06"/><line class="a" x1="43.07" y1="27.19" x2="43.07" y2="2.07"/><line class="a" x1="40.44" y1="27.19" x2="40.44" y2="4.81"/><line class="a" x1="35.13" y1="27.19" x2="35.13" y2="4.75"/><line class="a" x1="31.1" y1="27.19" x2="31.1" y2="2.18"/><line class="a" x1="25.8" y1="27.19" x2="25.8" y2="3.68"/><polyline class="a" points="17.46 5.02 21.03 4.56 25.8 3.68 31.1 2.18 33.21 2.66 35.13 4.75 36.84 4.71 37.93 4.71 39.23 4.65 40.44 4.81 41.58 2.6 43.08 2.07 45.57 2.66 48.83 4.06 53.84 6.06 61.91 6.07 70.02 6.24 80.78 6.86 92.99 7.11 104.47 7.27 117.22 7.78 138.94 8.11"/><polyline class="a" points="25.41 29.16 25.41 29.1 25.47 28.96 25.53 28.9 25.66 28.84 25.92 28.84 26.05 28.9 26.12 28.96 26.18 29.1 26.18 29.22 26.12 29.34 25.98 29.54 25.33 30.17 26.25 30.17"/><polyline class="a" points="30.78 28.84 31.49 28.84 31.1 29.34 31.3 29.34 31.43 29.42 31.49 29.48 31.56 29.66 31.56 29.8 31.49 29.98 31.37 30.11 31.17 30.17 30.98 30.17 30.78 30.11 30.71 30.04 30.65 29.92"/><polyline class="a" points="35.3 28.84 34.64 29.73 35.62 29.73"/><line class="a" x1="35.3" y1="28.84" x2="35.3" y2="30.17"/><polyline class="a" points="40.78 28.84 40.13 28.84 40.06 29.42 40.13 29.34 40.31 29.28 40.52 29.28 40.7 29.34 40.84 29.48 40.9 29.66 40.9 29.8 40.84 29.98 40.7 30.11 40.52 30.17 40.31 30.17 40.13 30.11 40.06 30.04 39.99 29.92"/><polyline class="a" points="43.44 29.04 43.38 28.9 43.17 28.84 43.05 28.84 42.85 28.9 42.72 29.1 42.66 29.42 42.66 29.73 42.72 29.98 42.85 30.11 43.05 30.17 43.11 30.17 43.31 30.11 43.44 29.98 43.5 29.8 43.5 29.73 43.44 29.54 43.31 29.42 43.11 29.34 43.05 29.34 42.85 29.42 42.72 29.54 42.66 29.73"/><polyline class="a" points="53.65 30.17 54.3 28.84 53.39 28.84"/><path class="a" d="M69.89,28.84l-.2.06-.06.13v.12l.06.12.14.06.25.07.2.06.13.12.06.13v.18L70.4,30l-.06.07-.19.06h-.26l-.2-.06c-.63-1,1.1-.47.65-1.21l-.19-.06Z"/><polyline class="a" points="93.42 29.28 93.35 29.48 93.22 29.6 93.03 29.66 92.97 29.66 92.77 29.6 92.64 29.48 92.58 29.28 92.58 29.22 92.64 29.04 92.77 28.9 92.97 28.84 93.03 28.84 93.22 28.9 93.35 29.04 93.42 29.28 93.42 29.6 93.35 29.92 93.22 30.11 93.03 30.17 92.9 30.17 92.7 30.11 92.64 29.98"/><polyline class="a" points="103.47 29.1 103.59 29.04 103.79 28.84 103.79 30.17"/><polygon class="a" points="104.96 28.84 104.76 28.9 104.64 29.1 104.57 29.42 104.57 29.6 104.64 29.92 104.76 30.11 104.96 30.17 105.09 30.17 105.29 30.11 105.41 29.92 105.48 29.6 105.48 29.42 105.41 29.1 105.29 28.9 105.09 28.84 104.96 28.84"/><polyline class="a" points="138.14 29.1 138.26 29.04 138.46 28.84 138.46 30.17"/><polyline class="a" points="139.44 29.1 139.57 29.04 139.76 28.84 139.76 30.17"/><line class="a" x1="25.8" y1="31.81" x2="25.8" y2="35.51"/><line class="a" x1="31.1" y1="31.81" x2="31.1" y2="35.51"/><line class="a" x1="35.13" y1="31.81" x2="35.13" y2="35.51"/><line class="a" x1="40.44" y1="31.81" x2="40.44" y2="35.51"/><line class="a" x1="43.07" y1="31.81" x2="43.07" y2="35.51"/><line class="a" x1="53.84" y1="31.81" x2="53.84" y2="35.51"/><line class="a" x1="70.02" y1="31.81" x2="70.02" y2="35.51"/><line class="a" x1="92.99" y1="31.81" x2="92.99" y2="35.51"/><line class="a" x1="104.47" y1="31.81" x2="104.47" y2="35.51"/><line class="a" x1="138.94" y1="31.81" x2="138.94" y2="35.51"/><polyline class="a" points="27.33 33.31 27.33 33.27 27.38 33.18 27.41 33.14 27.52 33.09 27.69 33.09 27.78 33.14 27.83 33.18 27.87 33.27 27.87 33.36 27.83 33.45 27.74 33.58 27.29 34.02 27.92 34.02"/><polygon class="a" points="28.28 33.93 28.23 33.97 28.28 34.02 28.32 33.97 28.28 33.93"/><polyline class="a" points="28.68 33.31 28.68 33.27 28.73 33.18 28.77 33.14 28.87 33.09 29.05 33.09 29.13 33.14 29.18 33.18 29.22 33.27 29.22 33.36 29.18 33.45 29.1 33.58 28.64 34.02 29.27 34.02"/><polyline class="a" points="31.95 33.27 32.03 33.23 32.17 33.09 32.17 34.02"/><polygon class="a" points="32.81 33.93 32.76 33.97 32.81 34.02 32.85 33.97 32.81 33.93"/><polyline class="a" points="33.35 34.02 33.8 33.09 33.16 33.09"/><polyline class="a" points="36.61 33.31 36.61 33.27 36.65 33.18 36.7 33.14 36.79 33.09 36.98 33.09 37.06 33.14 37.1 33.18 37.15 33.27 37.15 33.36 37.1 33.45 37.01 33.58 36.56 34.02 37.2 34.02"/><polygon class="a" points="37.55 33.93 37.52 33.97 37.55 34.02 37.6 33.97 37.55 33.93"/><polyline class="a" points="37.97 33.31 37.97 33.27 38.01 33.18 38.06 33.14 38.14 33.09 38.33 33.09 38.42 33.14 38.46 33.18 38.51 33.27 38.51 33.36 38.46 33.45 38.37 33.58 37.92 34.02 38.56 34.02"/><polyline class="a" points="40.83 33.27 40.92 33.23 41.05 33.09 41.05 34.02"/><polygon class="a" points="41.69 33.93 41.64 33.97 41.69 34.02 41.73 33.97 41.69 33.93"/><polyline class="a" points="42.18 33.27 42.27 33.23 42.41 33.09 42.41 34.02"/><polyline class="a" points="47.1 33.09 46.65 33.71 47.33 33.71"/><line class="a" x1="47.1" y1="33.09" x2="47.1" y2="34.02"/><polygon class="a" points="47.64 33.93 47.6 33.97 47.64 34.02 47.69 33.97 47.64 33.93"/><polyline class="a" points="48.55 33.09 48.09 33.09 48.06 33.49 48.09 33.45 48.23 33.4 48.37 33.4 48.51 33.45 48.6 33.53 48.63 33.67 48.63 33.75 48.6 33.88 48.51 33.97 48.37 34.02 48.23 34.02 48.09 33.97 48.06 33.93 48.01 33.84"/><polyline class="a" points="61.22 33.23 61.17 33.14 61.03 33.09 60.94 33.09 60.8 33.14 60.72 33.27 60.67 33.49 60.67 33.71 60.72 33.88 60.8 33.97 60.94 34.02 60.99 34.02 61.12 33.97 61.22 33.88 61.26 33.75 61.26 33.71 61.22 33.58 61.12 33.49 60.99 33.45 60.94 33.45 60.8 33.49 60.72 33.58 60.67 33.71"/><polygon class="a" points="61.62 33.93 61.57 33.97 61.62 34.02 61.67 33.97 61.62 33.93"/><polygon class="a" points="62.21 33.09 62.07 33.14 62.02 33.23 62.02 33.31 62.07 33.4 62.16 33.45 62.35 33.49 62.47 33.53 62.57 33.62 62.61 33.71 62.61 33.84 62.57 33.93 62.52 33.97 62.39 34.02 62.21 34.02 62.07 33.97 62.02 33.93 61.98 33.84 61.98 33.71 62.02 33.62 62.12 33.53 62.25 33.49 62.44 33.45 62.52 33.4 62.57 33.31 62.57 33.23 62.52 33.14 62.39 33.09 62.21 33.09"/><polyline class="a" points="81.32 33.4 81.27 33.53 81.18 33.62 81.05 33.67 81.01 33.67 80.87 33.62 80.78 33.53 80.73 33.4 80.73 33.36 80.78 33.23 80.87 33.14 81.01 33.09 81.05 33.09 81.18 33.14 81.27 33.23 81.32 33.4 81.32 33.62 81.27 33.84 81.18 33.97 81.05 34.02 80.96 34.02 80.82 33.97 80.78 33.88"/><polygon class="a" points="81.72 33.93 81.69 33.97 81.72 34.02 81.77 33.97 81.72 33.93"/><polyline class="a" points="82.26 34.02 82.71 33.09 82.09 33.09"/><polyline class="a" points="98.14 33.09 97.68 33.71 98.36 33.71"/><line class="a" x1="98.14" y1="33.09" x2="98.14" y2="34.02"/><polygon class="a" points="98.67 33.93 98.62 33.97 98.67 34.02 98.71 33.97 98.67 33.93"/><polygon class="a" points="99.26 33.09 99.13 33.14 99.08 33.23 99.08 33.31 99.13 33.4 99.21 33.45 99.39 33.49 99.53 33.53 99.62 33.62 99.67 33.71 99.67 33.84 99.62 33.93 99.58 33.97 99.44 34.02 99.26 34.02 99.13 33.97 99.08 33.93 99.04 33.84 99.04 33.71 99.08 33.62 99.16 33.53 99.3 33.49 99.49 33.45 99.58 33.4 99.62 33.31 99.62 33.23 99.58 33.14 99.44 33.09 99.26 33.09"/><polyline class="a" points="119.99 33.27 120.09 33.23 120.22 33.09 120.22 34.02"/><polyline class="a" points="121.22 33.09 120.77 33.71 121.45 33.71"/><line class="a" x1="121.22" y1="33.09" x2="121.22" y2="34.02"/><polygon class="a" points="121.76 33.93 121.71 33.97 121.76 34.02 121.8 33.97 121.76 33.93"/><path class="a" d="M122.67,33.09h-.45l-.05.4.05,0c.78-.3.66.92-.05.49l0-.1"/><polyline class="a" points="25.17 39.16 25.17 38.7 25.67 38.95 25.67 38.83 25.73 38.74 25.8 38.7 25.98 38.66 26.11 38.66 26.29 38.7 26.41 38.78 26.47 38.92 26.47 39.04 26.41 39.16 26.35 39.21 26.22 39.25"/><polygon class="a" points="26.35 38.32 26.41 38.37 26.47 38.32 26.41 38.28 26.35 38.32"/><path class="a" d="M25.17,37.48v.42l.56,0-.06,0c-.43-.75,1.31-.6.68,0l-.13,0"/><path class="a" d="M30.49,38.74v.42l.55,0-.06,0c-.43-.75,1.32-.6.69,0l-.13,0"/><polygon class="a" points="31.67 38.32 31.73 38.37 31.79 38.32 31.73 38.28 31.67 38.32"/><polygon class="a" points="30.49 37.77 30.55 37.89 30.66 37.94 30.79 37.94 30.92 37.89 30.98 37.82 31.04 37.65 31.1 37.51 31.23 37.43 31.36 37.39 31.54 37.39 31.67 37.43 31.73 37.48 31.79 37.6 31.79 37.77 31.73 37.89 31.67 37.94 31.54 37.98 31.36 37.98 31.23 37.94 31.1 37.85 31.04 37.73 30.98 37.56 30.92 37.48 30.79 37.43 30.66 37.43 30.55 37.48 30.49 37.6 30.49 37.77"/><polyline class="a" points="35.82 39.08 34.52 38.66 34.52 39.25"/><polygon class="a" points="35.7 38.32 35.76 38.37 35.82 38.32 35.76 38.28 35.7 38.32"/><path class="a" d="M34.52,37.48v.42l.55,0-.06,0c-.4-.76,1.31-.59.69,0l-.13,0"/><polyline class="a" points="40.26 38.7 40.45 38.74 40.58 38.83 40.64 38.95 40.64 39 40.58 39.12 40.45 39.21 40.26 39.25 40.2 39.25 40.01 39.21 39.89 39.12 39.83 39 39.83 38.95 39.89 38.83 40.01 38.74 40.26 38.7 40.58 38.7 40.88 38.74 41.07 38.83 41.13 38.95 41.13 39.04 41.07 39.16 40.94 39.21"/><polygon class="a" points="41 38.32 41.07 38.37 41.13 38.32 41.07 38.28 41 38.32"/><polyline class="a" points="41.13 37.82 39.83 37.39 39.83 37.98"/><polyline class="a" points="42.71 39.61 42.65 39.53 42.46 39.39 43.77 39.39"/><polygon class="a" points="42.46 38.63 42.52 38.76 42.71 38.84 43.01 38.89 43.2 38.89 43.51 38.84 43.7 38.76 43.77 38.63 43.77 38.55 43.7 38.43 43.51 38.34 43.2 38.29 43.01 38.29 42.71 38.34 42.52 38.43 42.46 38.55 42.46 38.63"/><polygon class="a" points="43.64 37.96 43.7 38 43.77 37.96 43.7 37.91 43.64 37.96"/><path class="a" d="M42.46,37.41l.06.12.13,0h.13l.13,0,.06-.09.05-.17.06-.12.13-.09.13,0h.19l.13,0,.06,0,.06.13v.17l-.06.12c-1,.42-.44-.71-1.18-.43l-.06.13Z"/><polyline class="a" points="53.48 39.61 53.41 39.53 53.23 39.39 54.53 39.39"/><polyline class="a" points="53.23 38.38 53.23 38.81 53.78 38.84 53.72 38.81 53.66 38.68 53.66 38.55 53.72 38.43 53.84 38.34 54.03 38.29 54.16 38.29 54.34 38.34 54.47 38.43 54.53 38.55 54.53 38.68 54.47 38.81 54.41 38.84 54.28 38.89"/><polygon class="a" points="54.41 37.96 54.47 38 54.53 37.96 54.47 37.91 54.41 37.96"/><polyline class="a" points="53.23 37.54 53.23 37.07 53.72 37.33 53.72 37.19 53.78 37.11 53.84 37.07 54.03 37.02 54.16 37.02 54.34 37.07 54.47 37.16 54.53 37.28 54.53 37.41 54.47 37.54 54.41 37.57 54.28 37.62"/><polyline class="a" points="69.7 39.64 69.65 39.64 69.53 39.59 69.46 39.55 69.4 39.47 69.4 39.29 69.46 39.21 69.53 39.16 69.65 39.12 69.76 39.12 69.89 39.16 70.08 39.25 70.7 39.67 70.7 39.08"/><polyline class="a" points="69.7 38.78 69.65 38.78 69.53 38.74 69.46 38.7 69.4 38.61 69.4 38.45 69.46 38.37 69.53 38.32 69.65 38.28 69.76 38.28 69.89 38.32 70.08 38.4 70.7 38.83 70.7 38.23"/><polygon class="a" points="70.58 37.89 70.64 37.94 70.7 37.89 70.64 37.85 70.58 37.89"/><polyline class="a" points="69.7 37.51 69.65 37.51 69.53 37.48 69.46 37.43 69.4 37.34 69.4 37.18 69.46 37.1 69.53 37.05 69.65 37.01 69.76 37.01 69.89 37.05 70.08 37.13 70.7 37.56 70.7 36.96"/><path class="a" d="M92.38,39.56V39.1l.49.26v-.12c.22-.4,1.19-.07.69.38l-.13,0"/><polyline class="a" points="92.63 38.68 92.56 38.6 92.38 38.46 93.68 38.46"/><polygon class="a" points="93.56 37.88 93.62 37.91 93.68 37.88 93.62 37.83 93.56 37.88"/><polyline class="a" points="92.81 36.99 92.99 37.02 93.12 37.11 93.18 37.24 93.18 37.28 93.12 37.41 92.99 37.5 92.81 37.54 92.75 37.54 92.56 37.5 92.44 37.41 92.38 37.28 92.38 37.24 92.44 37.11 92.56 37.02 92.81 36.99 93.12 36.99 93.43 37.02 93.62 37.11 93.68 37.24 93.68 37.33 93.62 37.45 93.49 37.5"/><polyline class="a" points="103.86 39.59 103.86 39.12 104.35 39.38 104.35 39.25 104.41 39.16 104.47 39.12 104.66 39.08 104.78 39.08 104.97 39.12 105.1 39.21 105.15 39.33 105.15 39.47 105.1 39.59 105.04 39.64 104.91 39.67"/><polyline class="a" points="104.03 38.28 103.91 38.32 103.86 38.45 103.86 38.52 103.91 38.66 104.09 38.74 104.41 38.78 104.72 38.78 104.97 38.74 105.1 38.66 105.15 38.52 105.15 38.49 105.1 38.37 104.97 38.28 104.78 38.23 104.72 38.23 104.53 38.28 104.41 38.37 104.35 38.49 104.35 38.52 104.41 38.66 104.53 38.74 104.72 38.78"/><polygon class="a" points="105.04 37.89 105.1 37.94 105.15 37.89 105.1 37.85 105.04 37.89"/><polyline class="a" points="105.15 37.39 103.86 36.96 103.86 37.56"/><path class="a" d="M138.33,39.16v.43l.56,0-.06,0c-.43-.75,1.3-.61.68,0l-.13,0"/><polyline class="a" points="138.58 38.7 138.51 38.61 138.33 38.49 139.63 38.49"/><polygon class="a" points="139.51 37.89 139.57 37.94 139.63 37.89 139.57 37.85 139.51 37.89"/><polyline class="a" points="138.64 37.51 138.58 37.51 138.45 37.48 138.39 37.43 138.33 37.34 138.33 37.18 138.39 37.1 138.45 37.05 138.58 37.01 138.7 37.01 138.83 37.05 139.02 37.13 139.63 37.56 139.63 36.96"/><polyline class="a" points="25.38 45.58 25.32 45.5 25.14 45.36 26.45 45.36"/><polyline class="a" points="25.57 44.31 25.76 44.35 25.88 44.44 25.95 44.57 25.95 44.61 25.88 44.73 25.76 44.81 25.57 44.86 25.51 44.86 25.32 44.81 25.21 44.73 25.14 44.61 25.14 44.57 25.21 44.44 25.32 44.35 25.57 44.31 25.88 44.31 26.2 44.35 26.39 44.44 26.45 44.57 26.45 44.66 26.39 44.78 26.26 44.81"/><path class="a" d="M25.14,43.76l.06.12.18.09.31,0h.19l.31,0,.19-.09.06-.12v-.09l-.06-.13a1.46,1.46,0,0,0-1.18,0l-.06.13Z"/><polygon class="a" points="26.32 43.08 26.39 43.13 26.45 43.08 26.39 43.04 26.32 43.08"/><polyline class="a" points="25.45 42.7 25.38 42.7 25.27 42.66 25.21 42.62 25.14 42.53 25.14 42.36 25.21 42.29 25.27 42.24 25.38 42.2 25.51 42.2 25.63 42.24 25.82 42.32 26.45 42.75 26.45 42.15"/><polyline class="a" points="30.7 46 30.64 45.91 30.45 45.79 31.76 45.79"/><polyline class="a" points="30.89 44.73 31.07 44.78 31.19 44.86 31.25 44.98 31.25 45.03 31.19 45.16 31.07 45.24 30.89 45.29 30.83 45.29 30.64 45.24 30.51 45.16 30.45 45.03 30.45 44.98 30.51 44.86 30.64 44.78 30.89 44.73 31.19 44.73 31.51 44.78 31.69 44.86 31.76 44.98 31.76 45.07 31.69 45.2 31.57 45.24"/><polygon class="a" points="30.45 44.18 30.51 44.31 30.7 44.4 31 44.44 31.19 44.44 31.51 44.4 31.69 44.31 31.76 44.18 31.76 44.1 31.69 43.97 31.51 43.88 31.19 43.85 31 43.85 30.7 43.88 30.51 43.97 30.45 44.1 30.45 44.18"/><polygon class="a" points="31.63 43.51 31.69 43.54 31.76 43.51 31.69 43.47 31.63 43.51"/><polygon class="a" points="30.45 42.96 30.51 43.08 30.64 43.13 30.77 43.13 30.89 43.08 30.95 42.99 31 42.84 31.07 42.7 31.19 42.62 31.32 42.58 31.51 42.58 31.63 42.62 31.69 42.66 31.76 42.79 31.76 42.96 31.69 43.08 31.63 43.13 31.51 43.16 31.32 43.16 31.19 43.13 31.07 43.04 31 42.92 30.95 42.75 30.89 42.66 30.77 42.62 30.64 42.62 30.51 42.66 30.45 42.79 30.45 42.96"/><path class="a" d="M30.45,41.81v.43l.55,0-.05,0c-.43-.75,1.31-.6.68,0l-.13,0"/><polyline class="a" points="34.73 46 34.67 45.91 34.48 45.79 35.78 45.79"/><path class="a" d="M34.48,45.07l.06.13.13,0h.13l.13,0,.06-.09.06-.17.06-.13.13-.09.11,0h.19l.13,0,.06,0,.06.12v.17l-.06.13c-.9.43-.49-.75-1.18-.43l-.06.12Z"/><polyline class="a" points="34.92 43.88 35.11 43.93 35.23 44.02 35.3 44.14 35.3 44.18 35.23 44.31 35.11 44.4 34.92 44.44 34.86 44.44 34.67 44.4 34.54 44.31 34.48 44.18 34.48 44.14 34.54 44.02 34.67 43.93 34.92 43.88 35.23 43.88 35.53 43.93 35.72 44.02 35.78 44.14 35.78 44.23 35.72 44.35 35.6 44.4"/><polygon class="a" points="35.66 43.51 35.72 43.54 35.78 43.51 35.72 43.47 35.66 43.51"/><polyline class="a" points="35.78 42.99 34.48 42.58 34.48 43.16"/><polyline class="a" points="34.48 42.24 34.48 41.77 34.98 42.03 34.98 41.9 35.04 41.81 35.11 41.77 35.3 41.74 35.41 41.74 35.6 41.77 35.72 41.86 35.78 41.98 35.78 42.12 35.72 42.24 35.66 42.29 35.53 42.32"/><polyline class="a" points="40.04 45.58 39.98 45.5 39.79 45.36 41.09 45.36"/><polygon class="a" points="39.79 44.66 39.85 44.78 39.98 44.81 40.1 44.81 40.23 44.78 40.29 44.69 40.35 44.52 40.41 44.4 40.54 44.31 40.67 44.26 40.85 44.26 40.98 44.31 41.03 44.35 41.09 44.48 41.09 44.66 41.03 44.78 40.98 44.81 40.85 44.86 40.67 44.86 40.54 44.81 40.41 44.73 40.35 44.61 40.29 44.44 40.23 44.35 40.1 44.31 39.98 44.31 39.85 44.35 39.79 44.48 39.79 44.66"/><polyline class="a" points="40.23 43.47 40.41 43.51 40.54 43.59 40.6 43.71 40.6 43.76 40.54 43.88 40.41 43.97 40.23 44.02 40.16 44.02 39.98 43.97 39.85 43.88 39.79 43.76 39.79 43.71 39.85 43.59 39.98 43.51 40.23 43.47 40.54 43.47 40.85 43.51 41.03 43.59 41.09 43.71 41.09 43.8 41.03 43.93 40.92 43.97"/><polygon class="a" points="40.98 43.08 41.03 43.13 41.09 43.08 41.03 43.04 40.98 43.08"/><polyline class="a" points="41.09 42.58 39.79 42.15 39.79 42.75"/><polyline class="a" points="42.67 45.99 42.61 45.9 42.42 45.77 43.73 45.77"/><polyline class="a" points="42.86 44.72 43.05 44.75 43.17 44.84 43.24 44.97 43.24 45.01 43.17 45.13 43.05 45.22 42.86 45.27 42.8 45.27 42.61 45.22 42.48 45.13 42.42 45.01 42.42 44.97 42.48 44.84 42.61 44.75 42.86 44.72 43.17 44.72 43.48 44.75 43.66 44.84 43.73 44.97 43.73 45.05 43.66 45.18 43.54 45.22"/><polygon class="a" points="42.42 44.17 42.48 44.29 42.67 44.37 42.99 44.42 43.17 44.42 43.48 44.37 43.66 44.29 43.73 44.17 43.73 44.08 43.66 43.95 43.48 43.86 43.17 43.82 42.99 43.82 42.67 43.86 42.48 43.95 42.42 44.08 42.42 44.17"/><polygon class="a" points="43.6 43.48 43.66 43.53 43.73 43.48 43.66 43.45 43.6 43.48"/><path class="a" d="M42.42,42.93l.06.13.13,0h.13l.13,0,.06-.09.06-.17.06-.13.13-.07.13,0h.18l.13,0,.06,0,.06.12v.17l-.06.13c-.9.42-.46-.72-1.18-.43l-.06.12Z"/><polyline class="a" points="42.86 41.75 43.05 41.8 43.17 41.88 43.24 42.01 43.24 42.04 43.17 42.18 43.05 42.26 42.86 42.3 42.8 42.3 42.61 42.26 42.48 42.18 42.42 42.04 42.42 42.01 42.48 41.88 42.61 41.8 42.86 41.75 43.17 41.75 43.48 41.8 43.66 41.88 43.73 42.01 43.73 42.09 43.66 42.21 43.54 42.26"/><polyline class="a" points="53.44 46 53.38 45.91 53.19 45.79 54.49 45.79"/><path class="a" d="M53.19,45.07l.06.13.13,0h.13l.13,0,.06-.09.06-.17.06-.13.13-.09.11,0h.19l.13,0,.06,0,.06.12v.17l-.06.13c-.9.43-.49-.75-1.18-.43l-.06.12Z"/><polyline class="a" points="53.63 43.88 53.82 43.93 53.94 44.02 54 44.14 54 44.18 53.94 44.31 53.82 44.4 53.63 44.44 53.56 44.44 53.38 44.4 53.25 44.31 53.19 44.18 53.19 44.14 53.25 44.02 53.38 43.93 53.63 43.88 53.94 43.88 54.24 43.93 54.43 44.02 54.49 44.14 54.49 44.23 54.43 44.35 54.3 44.4"/><polygon class="a" points="54.37 43.51 54.43 43.54 54.49 43.51 54.43 43.47 54.37 43.51"/><polyline class="a" points="53.44 43.04 53.38 42.96 53.19 42.84 54.49 42.84"/><polyline class="a" points="53.38 41.77 53.25 41.81 53.19 41.94 53.19 42.03 53.25 42.15 53.44 42.24 53.75 42.29 54.05 42.29 54.3 42.24 54.43 42.15 54.49 42.03 54.49 41.98 54.43 41.86 54.3 41.77 54.12 41.74 54.05 41.74 53.88 41.77 53.75 41.86 53.69 41.98 53.69 42.03 53.75 42.15 53.88 42.24 54.05 42.29"/><polyline class="a" points="69.61 46 69.55 45.91 69.36 45.79 70.67 45.79"/><path class="a" d="M69.36,45.07l.06.13.13,0h.13l.13,0,.06-.09.06-.17.05-.13.13-.09.13,0h.19l.13,0,.06,0,.06.12v.17l-.06.13c-.95.42-.46-.75-1.18-.43l-.06.12Z"/><polyline class="a" points="69.8 43.88 69.98 43.93 70.1 44.02 70.17 44.14 70.17 44.18 70.1 44.31 69.98 44.4 69.8 44.44 69.74 44.44 69.55 44.4 69.42 44.31 69.36 44.18 69.36 44.14 69.42 44.02 69.55 43.93 69.8 43.88 70.1 43.88 70.42 43.93 70.61 44.02 70.67 44.14 70.67 44.23 70.61 44.35 70.48 44.4"/><polygon class="a" points="70.54 43.51 70.61 43.54 70.67 43.51 70.61 43.47 70.54 43.51"/><polygon class="a" points="69.36 42.92 69.42 43.04 69.61 43.13 69.93 43.16 70.1 43.16 70.42 43.13 70.61 43.04 70.67 42.92 70.67 42.84 70.61 42.7 70.42 42.62 70.1 42.58 69.93 42.58 69.61 42.62 69.42 42.7 69.36 42.84 69.36 42.92"/><polygon class="a" points="69.36 42.12 69.42 42.24 69.55 42.29 69.68 42.29 69.8 42.24 69.86 42.15 69.93 41.98 69.98 41.86 70.1 41.77 70.23 41.74 70.42 41.74 70.54 41.77 70.61 41.81 70.67 41.94 70.67 42.12 70.61 42.24 70.54 42.29 70.42 42.32 70.23 42.32 70.1 42.29 69.98 42.2 69.93 42.07 69.86 41.9 69.8 41.81 69.68 41.77 69.55 41.77 69.42 41.81 69.36 41.94 69.36 42.12"/><polyline class="a" points="92.59 45.88 92.53 45.79 92.34 45.67 93.64 45.67"/><polygon class="a" points="92.34 44.95 92.4 45.07 92.53 45.12 92.65 45.12 92.78 45.07 92.84 44.98 92.9 44.81 92.97 44.69 93.09 44.61 93.2 44.57 93.39 44.57 93.52 44.61 93.58 44.66 93.64 44.78 93.64 44.95 93.58 45.07 93.52 45.12 93.39 45.16 93.2 45.16 93.09 45.12 92.97 45.03 92.9 44.9 92.84 44.73 92.78 44.66 92.65 44.61 92.53 44.61 92.4 44.66 92.34 44.78 92.34 44.95"/><path class="a" d="M92.34,44.11l.06.12.13,0h.13l.13,0,.06-.09L92.9,44l.06-.12.13-.09.11,0h.19l.13,0,.06,0,.06.13v.17l-.06.12c-.9.42-.46-.72-1.18-.43l-.06.13Z"/><polygon class="a" points="93.52 43.38 93.58 43.42 93.64 43.38 93.58 43.34 93.52 43.38"/><polyline class="a" points="93.64 42.87 92.34 42.45 92.34 43.04"/><polyline class="a" points="92.59 42.07 92.53 41.98 92.34 41.86 93.64 41.86"/><polyline class="a" points="104.07 46.02 104.01 45.94 103.82 45.81 105.12 45.81"/><polygon class="a" points="103.82 45.09 103.88 45.22 104.01 45.27 104.13 45.27 104.25 45.22 104.31 45.13 104.37 44.97 104.43 44.84 104.56 44.75 104.69 44.72 104.87 44.72 105 44.75 105.06 44.8 105.12 44.92 105.12 45.09 105.06 45.22 105 45.27 104.87 45.3 104.69 45.3 104.56 45.27 104.43 45.18 104.37 45.05 104.31 44.89 104.25 44.8 104.13 44.75 104.01 44.75 103.88 44.8 103.82 44.92 103.82 45.09"/><polygon class="a" points="103.82 44.25 103.88 44.37 104.01 44.42 104.13 44.42 104.25 44.37 104.31 44.29 104.37 44.12 104.43 43.99 104.56 43.91 104.69 43.86 104.87 43.86 105 43.91 105.06 43.95 105.12 44.08 105.12 44.25 105.06 44.37 105 44.42 104.87 44.46 104.69 44.46 104.56 44.42 104.43 44.34 104.37 44.2 104.31 44.03 104.25 43.95 104.13 43.91 104.01 43.91 103.88 43.95 103.82 44.08 103.82 44.25"/><polygon class="a" points="105 43.53 105.06 43.57 105.12 43.53 105.06 43.48 105 43.53"/><polyline class="a" points="105.12 43.02 103.82 42.6 103.82 43.19"/><polyline class="a" points="103.82 41.92 104.69 42.35 104.69 41.71"/><line class="a" x1="103.82" y1="41.92" x2="105.12" y2="41.92"/><polyline class="a" points="138.54 46 138.48 45.91 138.3 45.79 139.59 45.79"/><path class="a" d="M138.3,45.07l.05.13.13,0h.13l.13,0,.06-.09.06-.17.06-.13.13-.09.13,0h.19l.13,0,.06,0,.05.12v.17l-.05.13c-.92.43-.49-.75-1.19-.43l-.05.12Z"/><polygon class="a" points="138.3 44.23 138.35 44.35 138.48 44.4 138.6 44.4 138.73 44.35 138.79 44.26 138.85 44.1 138.92 43.97 139.04 43.88 139.17 43.85 139.35 43.85 139.48 43.88 139.54 43.93 139.59 44.06 139.59 44.23 139.54 44.35 139.48 44.4 139.35 44.44 139.17 44.44 139.04 44.4 138.92 44.31 138.85 44.18 138.79 44.02 138.73 43.93 138.6 43.88 138.48 43.88 138.35 43.93 138.3 44.06 138.3 44.23"/><polygon class="a" points="139.48 43.51 139.54 43.54 139.59 43.51 139.54 43.47 139.48 43.51"/><polyline class="a" points="138.6 43.13 138.54 43.13 138.41 43.08 138.35 43.04 138.3 42.96 138.3 42.79 138.35 42.7 138.41 42.66 138.54 42.62 138.66 42.62 138.79 42.66 138.98 42.75 139.59 43.16 139.59 42.58"/><polyline class="a" points="139.59 42.15 138.3 41.74 138.3 42.32"/><polygon class="a" points="2.21 37.93 2.21 37 2.52 37 2.66 37.05 2.75 37.13 2.8 37.22 2.85 37.35 2.85 37.57 2.8 37.71 2.75 37.79 2.66 37.89 2.52 37.93 2.21 37.93"/><line class="a" x1="3.16" y1="37" x2="3.16" y2="37.93"/><path class="a" d="M4.11,37.13,4,37l-.14,0H3.7l-.13,0-.1.09v.09l.05.09.05,0,.09,0,.28.09c.33.15.22.51-.24.44l-.13,0-.1-.1"/><line class="a" x1="4.62" y1="37" x2="4.62" y2="37.93"/><line class="a" x1="4.3" y1="37" x2="4.93" y2="37"/><polygon class="a" points="5.21 37.84 5.16 37.89 5.21 37.93 5.25 37.89 5.21 37.84"/><polyline class="a" points="6.56 37.93 6.56 37 6.97 37 7.11 37.05 7.16 37.08 7.2 37.18 7.2 37.3 7.16 37.4 7.11 37.44 6.97 37.49 6.56 37.49"/><polyline class="a" points="7.51 37.93 7.51 37 7.93 37 8.07 37.05 8.12 37.08 8.15 37.18 8.15 37.27 8.12 37.35 8.07 37.4 7.93 37.44 7.51 37.44"/><line class="a" x1="7.84" y1="37.44" x2="8.15" y2="37.93"/><path class="a" d="M8.71,37l-.1,0-.09.09c-.17.2-.12.73.19.79h.18l.09,0A.55.55,0,0,0,9,37l-.09,0Z"/><polyline class="a" points="10.11 37.22 10.06 37.13 9.97 37.05 9.89 37 9.7 37 9.61 37.05 9.52 37.13 9.47 37.22 9.42 37.35 9.42 37.57 9.47 37.71 9.52 37.79 9.61 37.89 9.7 37.93 9.89 37.93 9.97 37.89 10.06 37.79 10.11 37.71 10.11 37.57 9.89 37.57"/><polyline class="a" points="10.43 37.93 10.43 37 10.84 37 10.98 37.05 11.02 37.08 11.06 37.18 11.06 37.27 11.02 37.35 10.98 37.4 10.84 37.44 10.43 37.44"/><line class="a" x1="10.74" y1="37.44" x2="11.07" y2="37.93"/><polyline class="a" points="11.38 37.93 11.38 37 11.97 37"/><line class="a" x1="11.38" y1="37.44" x2="11.74" y2="37.44"/><line class="a" x1="11.38" y1="37.93" x2="11.97" y2="37.93"/><path class="a" d="M12.83,37.13,12.75,37l-.14,0c-.23,0-.59.08-.33.35l.1,0,.26.09c.33.12.26.51-.23.44l-.14,0-.09-.1"/><polyline class="a" points="13.74 37.13 13.65 37.05 13.51 37 13.34 37 13.2 37.05 13.11 37.13 13.11 37.22 13.15 37.3 13.2 37.35 13.29 37.4 13.56 37.49 13.65 37.54 13.7 37.57 13.74 37.66 13.74 37.79 13.65 37.89 13.51 37.93 13.34 37.93 13.2 37.89 13.11 37.79"/><line class="a" x1="14.06" y1="37" x2="14.06" y2="37.93"/><polyline class="a" points="14.29 37 14.65 37.93 15.02 37"/><polyline class="a" points="15.11 37.93 15.47 37 15.83 37.93"/><line class="a" x1="15.24" y1="37.62" x2="15.7" y2="37.62"/><path class="a" d="M2.52,38.55l-.09.09a.94.94,0,0,0,0,1.23l.09.1"/><line class="a" x1="2.85" y1="39.04" x2="2.85" y2="39.65"/><polyline class="a" points="2.85 39.21 2.98 39.08 3.07 39.04 3.21 39.04 3.3 39.08 3.35 39.21 3.35 39.65"/><polyline class="a" points="3.35 39.21 3.47 39.08 3.57 39.04 3.7 39.04 3.8 39.08 3.84 39.21 3.84 39.65"/><path class="a" d="M4.16,38.55l.09.09a.94.94,0,0,1,0,1.23l-.09.1"/><polygon class="a" points="2.21 33.09 2.21 32.16 2.52 32.16 2.66 32.21 2.75 32.3 2.8 32.38 2.85 32.52 2.85 32.74 2.8 32.87 2.75 32.97 2.66 33.05 2.52 33.09 2.21 33.09"/><line class="a" x1="3.16" y1="32.16" x2="3.16" y2="33.09"/><polyline class="a" points="4.11 32.3 4.03 32.21 3.89 32.16 3.7 32.16 3.57 32.21 3.47 32.3 3.47 32.38 3.52 32.48 3.57 32.52 3.66 32.57 3.94 32.65 4.03 32.7 4.06 32.74 4.11 32.84 4.11 32.97 4.03 33.05 3.89 33.09 3.7 33.09 3.57 33.05 3.47 32.97"/><line class="a" x1="4.62" y1="32.16" x2="4.62" y2="33.09"/><line class="a" x1="4.3" y1="32.16" x2="4.93" y2="32.16"/><polygon class="a" points="5.21 33.01 5.16 33.05 5.21 33.09 5.25 33.05 5.21 33.01"/><polyline class="a" points="6.56 33.09 6.56 32.16 6.97 32.16 7.11 32.21 7.16 32.26 7.2 32.35 7.2 32.48 7.16 32.57 7.11 32.62 6.97 32.65 6.56 32.65"/><polyline class="a" points="7.39 33.09 7.75 32.16 8.12 33.09"/><line class="a" x1="7.51" y1="32.79" x2="7.98" y2="32.79"/><polyline class="a" points="8.34 33.09 8.34 32.16 8.74 32.16 8.88 32.21 8.93 32.26 8.97 32.35 8.97 32.43 8.93 32.52 8.88 32.57 8.74 32.62 8.34 32.62"/><line class="a" x1="8.66" y1="32.62" x2="8.97" y2="33.09"/><polyline class="a" points="9.25 33.09 9.89 32.16 9.25 32.16"/><line class="a" x1="9.25" y1="33.09" x2="9.89" y2="33.09"/><line class="a" x1="10.2" y1="32.16" x2="10.2" y2="33.09"/><polyline class="a" points="10.43 33.09 10.79 32.16 11.15 33.09"/><line class="a" x1="10.56" y1="32.79" x2="11.01" y2="32.79"/><polyline class="a" points="11.38 32.16 11.38 33.09 11.93 33.09"/><polyline class="a" points="12.16 33.09 12.16 32.16 12.75 32.16"/><line class="a" x1="12.16" y1="32.62" x2="12.52" y2="32.62"/><line class="a" x1="12.16" y1="33.09" x2="12.75" y2="33.09"/><path class="a" d="M2.52,33.71l-.09.09a1,1,0,0,0,0,1.25l.09.09"/><line class="a" x1="2.85" y1="34.2" x2="2.85" y2="34.81"/><polyline class="a" points="2.85 34.37 2.98 34.24 3.07 34.2 3.21 34.2 3.3 34.24 3.35 34.37 3.35 34.81"/><polyline class="a" points="3.35 34.37 3.47 34.24 3.57 34.2 3.7 34.2 3.8 34.24 3.84 34.37 3.84 34.81"/><path class="a" d="M4.16,33.71l.09.09a1,1,0,0,1,0,1.25l-.09.09"/><polyline class="a" points="2.21 30.15 2.21 29.22 2.62 29.22 2.75 29.26 2.8 29.31 2.85 29.39 2.85 29.53 2.8 29.61 2.75 29.66 2.62 29.71 2.21 29.71"/><line class="a" x1="3.16" y1="29.22" x2="3.16" y2="30.15"/><path class="a" d="M4.16,29.44l-.05-.09L4,29.26a.34.34,0,0,0-.5.18l-.05.13v.22l.05.13.05.09.09.09.09,0h.19l.09,0L4.11,30l.05-.09"/><path class="a" d="M5.12,29.44l-.05-.09L5,29.26a.34.34,0,0,0-.5.18l-.05.13v.22l.05.13.05.09.09.09.09,0h.19l.09,0L5.07,30l.05-.09"/><line class="a" x1="5.43" y1="29.22" x2="5.43" y2="30.15"/><line class="a" x1="6.07" y1="29.22" x2="6.07" y2="30.15"/><line class="a" x1="5.43" y1="29.66" x2="6.07" y2="29.66"/><polyline class="a" points="6.43 30.15 6.43 29.22 7.03 29.22"/><line class="a" x1="6.44" y1="29.66" x2="6.8" y2="29.66"/><line class="a" x1="6.44" y1="30.15" x2="7.02" y2="30.15"/><line class="a" x1="7.48" y1="29.22" x2="7.48" y2="30.15"/><line class="a" x1="7.16" y1="29.22" x2="7.79" y2="29.22"/><line class="a" x1="8.2" y1="29.22" x2="8.2" y2="30.15"/><line class="a" x1="7.88" y1="29.22" x2="8.52" y2="29.22"/><path class="a" d="M9,29.22l-.09,0-.09.1a.55.55,0,0,0,.18.79h.19l.09,0L9.33,30l.05-.09,0-.13v-.22l0-.13-.05-.09-.09-.1-.09,0Z"/><path class="a" d="M2.48,42.57l-.09,0-.1.09a.54.54,0,0,0,.19.79h.18l.09,0a.54.54,0,0,0,0-.83l-.09,0Z"/><line class="a" x1="2.62" y1="43.32" x2="2.88" y2="43.58"/><polyline class="a" points="3.25 42.57 3.25 43.23 3.3 43.36 3.39 43.45 3.52 43.49 3.61 43.49 3.75 43.45 3.84 43.36 3.89 43.23 3.89 42.57"/><path class="a" d="M4.48,42.57l-.09,0-.09.09a.53.53,0,0,0,.18.79h.18l.1,0,.09-.09.05-.09,0-.13v-.22l0-.13-.05-.09-.09-.09-.1,0Z"/><line class="a" x1="5.43" y1="42.57" x2="5.43" y2="43.49"/><line class="a" x1="5.12" y1="42.57" x2="5.74" y2="42.57"/><polyline class="a" points="5.84 43.49 6.21 42.57 6.56 43.49"/><line class="a" x1="5.97" y1="43.19" x2="6.43" y2="43.19"/><line class="a" x1="7.93" y1="42.57" x2="7.93" y2="43.49"/><line class="a" x1="7.61" y1="42.57" x2="8.24" y2="42.57"/><polyline class="a" points="8.47 43.49 8.47 42.57 9.07 42.57"/><line class="a" x1="8.47" y1="43.01" x2="8.83" y2="43.01"/><line class="a" x1="8.47" y1="43.49" x2="9.07" y2="43.49"/><polyline class="a" points="9.33 43.49 9.33 42.57 9.75 42.57 9.89 42.62 9.92 42.65 9.97 42.75 9.97 42.84 9.92 42.92 9.89 42.97 9.75 43.01 9.33 43.01"/><line class="a" x1="9.66" y1="43.01" x2="9.97" y2="43.49"/><polyline class="a" points="10.29 43.49 10.29 42.57 10.7 42.57 10.84 42.62 10.88 42.65 10.93 42.75 10.93 42.84 10.88 42.92 10.84 42.97 10.7 43.01 10.29 43.01"/><line class="a" x1="10.61" y1="43.01" x2="10.93" y2="43.49"/><polyline class="a" points="11.24 43.49 11.24 42.57 11.83 42.57"/><line class="a" x1="11.24" y1="43.01" x2="11.6" y2="43.01"/><line class="a" x1="11.24" y1="43.49" x2="11.83" y2="43.49"/><polyline class="a" points="12.11 43.49 12.11 42.57 12.75 43.49 12.75 42.57"/><path class="a" d="M13.34,42.57l-.1,0-.09.09a.54.54,0,0,0,.19.79h.18l.09,0a.54.54,0,0,0,0-.83l-.09,0Z"/><path class="a" d="M2.52,44.12l-.09.09a.94.94,0,0,0,0,1.23l.09.1"/><line class="a" x1="2.85" y1="44.61" x2="2.85" y2="45.22"/><polyline class="a" points="2.85 44.78 2.98 44.64 3.07 44.61 3.21 44.61 3.3 44.64 3.35 44.78 3.35 45.22"/><polyline class="a" points="3.35 44.78 3.47 44.64 3.57 44.61 3.7 44.61 3.8 44.64 3.84 44.78 3.84 45.22"/><polyline class="a" points="5.61 44.73 5.57 44.64 5.43 44.61 5.29 44.61 5.16 44.64 5.12 44.73 5.16 44.83 5.25 44.86 5.48 44.91 5.57 44.96 5.61 45.05 5.61 45.08 5.57 45.18 5.43 45.22 5.29 45.22 5.16 45.18 5.12 45.08"/><polygon class="a" points="5.97 45.13 5.93 45.18 5.97 45.22 6.02 45.18 5.97 45.13"/><line class="a" x1="6.38" y1="44.29" x2="6.38" y2="45.22"/><polygon class="a" points="6.8 45.13 6.75 45.18 6.8 45.22 6.84 45.18 6.8 45.13"/><line class="a" x1="7.2" y1="44.61" x2="7.2" y2="45.22"/><polyline class="a" points="7.2 44.78 7.34 44.64 7.43 44.61 7.56 44.61 7.65 44.64 7.7 44.78 7.7 45.22"/><polyline class="a" points="7.7 44.78 7.84 44.64 7.93 44.61 8.07 44.61 8.15 44.64 8.2 44.78 8.2 45.22"/><polygon class="a" points="8.61 45.13 8.57 45.18 8.61 45.22 8.66 45.18 8.61 45.13"/><path class="a" d="M9,44.12l.1.09a.94.94,0,0,1,0,1.23l-.1.1"/><line class="a" x1="4.04" y1="25.8" x2="6.33" y2="25.8"/><polygon class="a" points="8.63 25.8 6.33 27.19 6.33 25.8 8.63 25.8"/><line class="a" x1="8.25" y1="26.03" x2="8.48" y2="25.8"/><line class="a" x1="6.46" y1="27.12" x2="7.82" y2="25.8"/><line class="a" x1="6.33" y1="26.6" x2="7.14" y2="25.8"/><line class="a" x1="6.33" y1="25.94" x2="6.47" y2="25.8"/><line class="a" x1="7.41" y1="26.55" x2="6.65" y2="25.8"/><line class="a" x1="7" y1="26.79" x2="6.33" y2="26.14"/><line class="a" x1="6.59" y1="27.05" x2="6.33" y2="26.79"/><line class="a" x1="7.83" y1="26.29" x2="7.33" y2="25.8"/><line class="a" x1="8.23" y1="26.03" x2="7.99" y2="25.8"/><line class="a" x1="4.04" y1="25.8" x2="6.33" y2="27.19"/><path class="a" d="M1.52,23.9,1.4,24l-.13.11a.68.68,0,0,0,.24,1h.23L1.85,25,2,24.9,2,24.79l.05-.17v-.27L2,24.18,2,24.07,1.85,24l-.11-.06Z"/><line class="a" x1="1.68" y1="24.85" x2="2.03" y2="25.18"/><line class="a" x1="2.41" y1="24.56" x2="2.41" y2="25.07"/><polyline class="a" points="2.41 24.78 2.44 24.67 2.52 24.59 2.6 24.56 2.71 24.56"/><polygon class="a" points="2.86 24.34 2.9 24.37 2.93 24.34 2.9 24.3 2.86 24.34"/><line class="a" x1="2.9" y1="24.59" x2="2.9" y2="25.07"/><polyline class="a" points="3.42 24.3 3.35 24.3 3.27 24.34 3.23 24.45 3.23 25.07"/><line class="a" x1="3.12" y1="24.56" x2="3.39" y2="24.56"/><line class="a" x1="3.72" y1="24.4" x2="4.75" y2="24.4"/><line class="a" x1="3.72" y1="24.74" x2="4.75" y2="24.74"/><polyline class="a" points="5.33 24.12 5.44 24.07 5.62 23.9 5.62 25.07"/><polygon class="a" points="6.58 23.9 6.42 23.96 6.36 24.07 6.36 24.18 6.42 24.29 6.54 24.35 6.76 24.4 6.94 24.46 7.05 24.57 7.1 24.68 7.1 24.85 7.05 24.96 6.99 25.01 6.82 25.07 6.58 25.07 6.42 25.01 6.36 24.96 6.3 24.85 6.3 24.68 6.36 24.57 6.47 24.46 6.65 24.4 6.87 24.35 6.99 24.29 7.05 24.18 7.05 24.07 6.99 23.96 6.82 23.9 6.58 23.9"/><polygon class="a" points="7.79 23.9 7.63 23.96 7.5 24.12 7.45 24.4 7.45 24.57 7.5 24.85 7.63 25.01 7.79 25.07 7.9 25.07 8.08 25.01 8.19 24.85 8.25 24.57 8.25 24.4 8.19 24.12 8.08 23.96 7.9 23.9 7.79 23.9"/><line class="a" x1="9.86" y1="24.29" x2="9.86" y2="25.07"/><polyline class="a" points="9.86 24.51 10.02 24.35 10.15 24.29 10.31 24.29 10.43 24.35 10.49 24.51 10.49 25.07"/><polyline class="a" points="10.49 24.51 10.66 24.35 10.78 24.29 10.95 24.29 11.06 24.35 11.12 24.51 11.12 25.07"/><polyline class="a" points="13.36 24.46 13.3 24.35 13.12 24.29 12.96 24.29 12.78 24.35 12.72 24.46 12.78 24.57 12.9 24.62 13.19 24.68 13.3 24.74 13.36 24.85 13.36 24.9 13.3 25.01 13.12 25.07 12.96 25.07 12.78 25.01 12.72 24.9"/><polygon class="a" points="13.81 24.96 13.76 25.01 13.81 25.07 13.88 25.01 13.81 24.96"/><line class="a" x1="14.33" y1="23.9" x2="14.33" y2="25.07"/><polygon class="a" points="14.84 24.96 14.79 25.01 14.84 25.07 14.9 25.01 14.84 24.96"/><line class="a" x1="15.36" y1="24.29" x2="15.36" y2="25.07"/><polyline class="a" points="15.36 24.51 15.53 24.35 15.64 24.29 15.82 24.29 15.93 24.35 16 24.51 16 25.07"/><polyline class="a" points="16 24.51 16.16 24.35 16.29 24.29 16.45 24.29 16.56 24.35 16.62 24.51 16.62 25.07"/><polygon class="a" points="17.14 24.96 17.09 25.01 17.14 25.07 17.2 25.01 17.14 24.96"/><line class="b" x1="30.6" y1="2.66" x2="31.61" y2="1.67"/><line class="b" x1="31.61" y1="2.66" x2="30.6" y2="1.67"/><line class="b" x1="42.57" y1="2.55" x2="43.58" y2="1.58"/><line class="b" x1="43.58" y1="2.55" x2="42.57" y2="1.58"/><line class="c" x1="39.94" y1="5.3" x2="40.94" y2="4.32"/><line class="c" x1="40.94" y1="5.3" x2="39.94" y2="4.32"/><line class="c" x1="34.63" y1="5.24" x2="35.63" y2="4.26"/><line class="c" x1="35.63" y1="5.24" x2="34.63" y2="4.26"/><line class="d" x1="40.44" y1="4.12" x2="40.44" y2="5.51"/><path class="d" d="M39.74,4.81h1.42l0-.18-.08-.16a.71.71,0,0,0-1.29.16l0,.18,0,.18a.71.71,0,0,0,1.29.16L41.13,5l0-.18"/></svg>