<svg xmlns="http://www.w3.org/2000/svg" viewBox="0 0 130.01 45.86"><defs><style>.a,.b,.c,.d{fill:none;stroke-linecap:round;stroke-linejoin:round;stroke-width:0.21px;}.a{stroke:#000;}.b{stroke:#00b800;}.c{stroke:#00bfff;}.d{stroke:blue;}</style></defs><title>cad0.1</title><line class="a" x1="24.68" y1="24.96" x2="24.68" y2="1.73"/><line class="a" x1="25.1" y1="24.96" x2="25.1" y2="3.65"/><line class="a" x1="28.29" y1="24.96" x2="28.29" y2="4.16"/><line class="a" x1="29.85" y1="24.96" x2="29.85" y2="4.05"/><line class="a" x1="30.67" y1="24.96" x2="30.67" y2="1.4"/><line class="a" x1="33.46" y1="24.96" x2="33.46" y2="1.29"/><polyline class="a" points="23.12 1.59 24.68 1.73 25.1 3.65 26.79 4 28.29 4.16 29.85 4.05 30.67 1.4 33.46 1.28 35.78 1.37"/><polyline class="a" points="17.25 26.65 17.38 26.59 17.55 26.42 17.55 27.62"/><polyline class="a" points="17.4 33.3 17.4 29.59 128.6 29.59"/><line class="a" x1="17.4" y1="33.3" x2="128.6" y2="33.3"/><line class="a" x1="17.4" y1="38.84" x2="128.6" y2="38.84"/><polyline class="a" points="17.4 44.4 128.6 44.4 128.6 24.99"/><polyline class="a" points="18.05 31.05 18.14 31.01 18.27 30.88 18.27 31.8"/><polygon class="a" points="18.88 31.71 18.84 31.76 18.88 31.8 18.93 31.76 18.88 31.71"/><polyline class="a" points="19.68 30.88 19.24 31.49 19.9 31.49"/><line class="a" x1="19.68" y1="30.87" x2="19.68" y2="31.8"/><polygon class="a" points="16.73 36.16 16.79 36.28 16.97 36.37 17.28 36.41 17.45 36.41 17.76 36.37 17.94 36.28 18 36.16 18 36.08 17.94 35.94 17.76 35.85 17.45 35.82 17.28 35.82 16.97 35.85 16.79 35.94 16.73 36.08 16.73 36.16"/><polyline class="a" points="17.06 43.66 17.01 43.58 16.83 43.45 18.1 43.45"/><polyline class="a" points="17.24 42.39 17.43 42.43 17.55 42.51 17.61 42.65 17.61 42.68 17.55 42.82 17.43 42.9 17.24 42.94 17.18 42.94 17.01 42.9 16.89 42.82 16.83 42.68 16.83 42.65 16.89 42.51 17.01 42.43 17.24 42.39 17.55 42.39 17.85 42.43 18.04 42.51 18.1 42.65 18.1 42.73 18.04 42.85 17.91 42.9"/><polygon class="a" points="16.83 41.84 16.89 41.96 17.06 42.05 17.36 42.1 17.55 42.1 17.85 42.05 18.04 41.96 18.1 41.84 18.1 41.75 18.04 41.63 17.85 41.55 17.55 41.5 17.36 41.5 17.06 41.55 16.89 41.63 16.83 41.75 16.83 41.84"/><polygon class="a" points="17.98 41.15 18.04 41.2 18.1 41.15 18.04 41.12 17.98 41.15"/><polyline class="a" points="17.12 40.77 17.06 40.77 16.95 40.74 16.89 40.69 16.83 40.6 16.83 40.45 16.89 40.36 16.95 40.31 17.06 40.27 17.18 40.27 17.3 40.31 17.49 40.4 18.1 40.82 18.1 40.22"/><polyline class="a" points="17.06 39.84 17.01 39.76 16.83 39.64 18.1 39.64"/><line class="a" x1="17.4" y1="1.36" x2="17.4" y2="24.96"/><polyline class="a" points="20.64 24.96 20.64 1.47 17.4 1.36"/><line class="a" x1="20.64" y1="1.47" x2="23.12" y2="1.59"/><polyline class="a" points="39.13 24.96 39.13 1.96 35.78 1.37"/><polyline class="a" points="53.59 24.96 53.59 3.41 39.13 1.96"/><polyline class="a" points="62.95 24.96 62.95 3.95 53.59 3.41"/><polyline class="a" points="74.54 24.96 74.54 4.61 62.95 3.95"/><polyline class="a" points="86.49 24.96 86.49 5.04 74.54 4.61"/><line class="a" x1="91.01" y1="5.2" x2="86.49" y2="5.04"/><polyline class="a" points="102.79 24.96 102.79 5.62 91.01 5.2"/><polyline class="a" points="114.46 24.96 114.46 5.8 102.79 5.62"/><polyline class="a" points="125.14 24.96 125.14 5.96 114.46 5.8"/><polyline class="a" points="20.3 26.71 20.3 26.65 20.35 26.54 20.41 26.48 20.52 26.42 20.75 26.42 20.86 26.48 20.93 26.54 20.99 26.65 20.99 26.76 20.93 26.89 20.82 27.06 20.24 27.62 21.04 27.62"/><polyline class="a" points="23.9 26.42 24.52 26.42 24.18 26.89 24.35 26.89 24.48 26.93 24.52 27 24.59 27.17 24.59 27.28 24.52 27.45 24.41 27.57 24.24 27.62 24.07 27.62 23.9 27.57 23.84 27.51 23.79 27.4"/><polyline class="a" points="25.6 26.42 25.04 27.23 25.89 27.23"/><line class="a" x1="25.6" y1="26.42" x2="25.6" y2="27.62"/><polyline class="a" points="27.06 26.42 26.48 26.42 26.42 26.93 26.48 26.89 26.65 26.82 26.82 26.82 27 26.89 27.11 27 27.17 27.17 27.17 27.28 27.11 27.45 27 27.57 26.82 27.62 26.65 27.62 26.48 27.57 26.42 27.51 26.37 27.4"/><polyline class="a" points="28.6 26.59 28.55 26.48 28.38 26.42 28.26 26.42 28.09 26.48 27.98 26.65 27.91 26.93 27.91 27.23 27.98 27.45 28.09 27.57 28.26 27.62 28.32 27.62 28.49 27.57 28.6 27.45 28.66 27.28 28.66 27.23 28.6 27.06 28.49 26.93 28.32 26.89 28.26 26.89 28.09 26.93 27.98 27.06 27.91 27.23"/><polyline class="a" points="29.55 27.62 30.13 26.42 29.33 26.42"/><polygon class="a" points="30.97 26.42 30.8 26.48 30.74 26.59 30.74 26.71 30.8 26.82 30.91 26.89 31.14 26.93 31.32 27 31.43 27.11 31.49 27.23 31.49 27.4 31.43 27.51 31.38 27.57 31.21 27.62 30.97 27.62 30.8 27.57 30.74 27.51 30.69 27.4 30.69 27.23 30.74 27.11 30.86 27 31.03 26.93 31.25 26.89 31.38 26.82 31.43 26.71 31.43 26.59 31.38 26.48 31.21 26.42 30.97 26.42"/><polyline class="a" points="33.84 26.82 33.77 27 33.66 27.11 33.49 27.17 33.43 27.17 33.26 27.11 33.15 27 33.09 26.82 33.09 26.76 33.15 26.59 33.26 26.48 33.43 26.42 33.49 26.42 33.66 26.48 33.77 26.59 33.84 26.82 33.84 27.11 33.77 27.4 33.66 27.57 33.49 27.62 33.37 27.62 33.2 27.57 33.15 27.45"/><polyline class="a" points="38.24 26.65 38.36 26.59 38.54 26.42 38.54 27.62"/><polygon class="a" points="39.56 26.42 39.39 26.48 39.27 26.65 39.22 26.93 39.22 27.11 39.27 27.4 39.39 27.57 39.56 27.62 39.67 27.62 39.84 27.57 39.95 27.4 40.02 27.11 40.02 26.93 39.95 26.65 39.84 26.48 39.67 26.42 39.56 26.42"/><polyline class="a" points="52.88 26.65 52.99 26.59 53.16 26.42 53.16 27.62"/><polyline class="a" points="54.02 26.65 54.13 26.59 54.3 26.42 54.3 27.62"/><polyline class="a" points="62.07 26.65 62.18 26.59 62.35 26.42 62.35 27.62"/><polyline class="a" points="63.1 26.71 63.1 26.65 63.16 26.54 63.21 26.48 63.33 26.42 63.55 26.42 63.67 26.48 63.72 26.54 63.78 26.65 63.78 26.76 63.72 26.89 63.61 27.06 63.03 27.62 63.84 27.62"/><polyline class="a" points="73.66 26.65 73.77 26.59 73.94 26.42 73.94 27.62"/><polyline class="a" points="74.73 26.42 75.37 26.42 75.03 26.89 75.2 26.89 75.31 26.93 75.37 27 75.42 27.17 75.42 27.28 75.37 27.45 75.25 27.57 75.08 27.62 74.91 27.62 74.73 27.57 74.69 27.51 74.62 27.4"/><polyline class="a" points="85.58 26.65 85.7 26.59 85.87 26.42 85.87 27.62"/><polyline class="a" points="87.12 26.42 86.56 27.23 87.41 27.23"/><line class="a" x1="87.12" y1="26.42" x2="87.12" y2="27.62"/><polyline class="a" points="101.91 26.65 102.02 26.59 102.19 26.42 102.19 27.62"/><polyline class="a" points="103.56 26.42 103 26.42 102.94 26.93 103 26.89 103.17 26.82 103.34 26.82 103.52 26.89 103.63 27 103.69 27.17 103.69 27.28 103.63 27.45 103.52 27.57 103.34 27.62 103.17 27.62 103 27.57 102.94 27.51 102.88 27.4"/><polyline class="a" points="113.56 26.65 113.69 26.59 113.86 26.42 113.86 27.62"/><polyline class="a" points="115.28 26.59 115.23 26.48 115.06 26.42 114.93 26.42 114.76 26.48 114.65 26.65 114.59 26.93 114.59 27.23 114.65 27.45 114.76 27.57 114.93 27.62 115 27.62 115.17 27.57 115.28 27.45 115.34 27.28 115.34 27.23 115.28 27.06 115.17 26.93 115 26.89 114.93 26.89 114.76 26.93 114.65 27.06 114.59 27.23"/><polyline class="a" points="124.15 26.62 124.28 26.55 124.47 26.36 124.47 27.69"/><polyline class="a" points="125.48 27.69 126.12 26.36 125.24 26.36"/><line class="a" x1="20.64" y1="29.59" x2="20.64" y2="33.3"/><line class="a" x1="24.68" y1="29.59" x2="24.68" y2="33.3"/><line class="a" x1="25.1" y1="29.59" x2="25.1" y2="33.3"/><line class="a" x1="26.79" y1="29.59" x2="26.79" y2="33.3"/><line class="a" x1="28.29" y1="29.59" x2="28.29" y2="33.3"/><line class="a" x1="29.85" y1="29.59" x2="29.85" y2="33.3"/><line class="a" x1="30.67" y1="29.59" x2="30.67" y2="33.3"/><line class="a" x1="33.46" y1="29.59" x2="33.46" y2="33.3"/><line class="a" x1="39.14" y1="29.59" x2="39.14" y2="33.3"/><line class="a" x1="53.59" y1="29.59" x2="53.59" y2="33.3"/><line class="a" x1="62.95" y1="29.59" x2="62.95" y2="33.3"/><line class="a" x1="74.54" y1="29.59" x2="74.54" y2="33.3"/><line class="a" x1="86.49" y1="29.59" x2="86.49" y2="33.3"/><line class="a" x1="102.79" y1="29.59" x2="102.79" y2="33.3"/><line class="a" x1="114.46" y1="29.59" x2="114.46" y2="33.3"/><line class="a" x1="125.14" y1="29.59" x2="125.14" y2="33.3"/><polyline class="a" points="21.65 31.05 21.73 31.01 21.87 30.88 21.87 31.8"/><polygon class="a" points="22.49 31.71 22.44 31.76 22.49 31.8 22.53 31.76 22.49 31.71"/><polyline class="a" points="23.02 31.8 23.46 30.88 22.84 30.88"/><polygon class="a" points="25.38 32 25.42 32.14 25.55 32.22 25.77 32.27 25.91 32.27 26.13 32.22 26.26 32.14 26.3 32 26.3 31.91 26.26 31.78 26.13 31.7 25.91 31.66 25.77 31.66 25.55 31.7 25.42 31.78 25.38 31.91 25.38 32"/><polygon class="a" points="26.21 31.3 26.26 31.34 26.3 31.3 26.26 31.25 26.21 31.3"/><polyline class="a" points="26.3 30.78 25.38 30.34 25.38 30.95"/><polygon class="a" points="24.89 31.33 24.84 31.36 24.89 31.41 24.93 31.36 24.89 31.33"/><polygon class="a" points="30.24 31.29 30.19 31.34 30.24 31.38 30.28 31.34 30.24 31.29"/><polyline class="a" points="30.97 31.05 31.06 31.01 31.19 30.88 31.19 31.8"/><polygon class="a" points="31.8 31.71 31.77 31.76 31.8 31.8 31.85 31.76 31.8 31.71"/><polyline class="a" points="32.21 31.09 32.21 31.05 32.25 30.96 32.3 30.92 32.38 30.88 32.56 30.88 32.65 30.92 32.69 30.96 32.73 31.05 32.73 31.14 32.69 31.23 32.6 31.36 32.16 31.8 32.78 31.8"/><polyline class="a" points="35.24 31.09 35.24 31.05 35.29 30.96 35.33 30.92 35.41 30.88 35.6 30.88 35.69 30.92 35.73 30.96 35.77 31.05 35.77 31.14 35.73 31.23 35.64 31.36 35.2 31.8 35.82 31.8"/><polygon class="a" points="36.17 31.71 36.13 31.76 36.17 31.8 36.21 31.76 36.17 31.71"/><path class="a" d="M37.05,30.87h-.44l0,.39,0,0c.78-.32.62,1,0,.48l0-.09"/><polyline class="a" points="46.09 31.01 46.04 30.92 45.91 30.87 45.82 30.87 45.69 30.92 45.6 31.05 45.56 31.27 45.56 31.49 45.6 31.67 45.69 31.75 45.82 31.8 45.87 31.8 46 31.75 46.09 31.67 46.13 31.54 46.13 31.49 46.09 31.36 46 31.27 45.87 31.23 45.82 31.23 45.69 31.27 45.6 31.36 45.56 31.49"/><polygon class="a" points="46.48 31.71 46.44 31.76 46.48 31.8 46.53 31.76 46.48 31.71"/><polyline class="a" points="46.92 30.88 47.41 30.88 47.14 31.23 47.27 31.23 47.36 31.27 47.41 31.32 47.46 31.45 47.46 31.54 47.41 31.67 47.32 31.76 47.19 31.8 47.05 31.8 46.92 31.76 46.88 31.71 46.83 31.62"/><polyline class="a" points="57.87 30.88 57.43 31.49 58.09 31.49"/><line class="a" x1="57.87" y1="30.87" x2="57.87" y2="31.8"/><polygon class="a" points="58.4 31.71 58.36 31.76 58.4 31.8 58.45 31.76 58.4 31.71"/><polyline class="a" points="58.89 31.05 58.97 31.01 59.11 30.88 59.11 31.8"/><path class="a" d="M69,30.87h-.44l0,.39,0,0c.78-.32.62,1,0,.48l0-.09"/><path class="a" d="M80.08,30.87h-.44l0,.39,0,0c.78-.32.62,1,0,.48l0-.09"/><polygon class="a" points="80.52 31.71 80.47 31.76 80.52 31.8 80.56 31.76 80.52 31.71"/><polyline class="a" points="80.91 31.09 80.91 31.05 80.96 30.96 81 30.92 81.08 30.88 81.27 30.88 81.35 30.92 81.4 30.96 81.44 31.05 81.44 31.14 81.4 31.23 81.31 31.36 80.86 31.8 81.49 31.8"/><polyline class="a" points="93.76 31.8 94.2 30.88 93.59 30.88"/><polygon class="a" points="94.56 31.71 94.52 31.76 94.56 31.8 94.61 31.76 94.56 31.71"/><polyline class="a" points="95.05 31.05 95.13 31.01 95.27 30.88 95.27 31.8"/><path class="a" d="M108.85,30.87h-.44l0,.39,0,0c.78-.32.62,1,0,.48l0-.09"/><polyline class="a" points="119.27 30.88 118.82 31.49 119.48 31.49"/><line class="a" x1="119.27" y1="30.87" x2="119.27" y2="31.8"/><polygon class="a" points="119.79 31.71 119.75 31.76 119.79 31.8 119.84 31.76 119.79 31.71"/><polyline class="a" points="120.72 31.01 120.67 30.92 120.54 30.87 120.45 30.87 120.32 30.92 120.23 31.05 120.19 31.27 120.19 31.49 120.23 31.67 120.32 31.75 120.45 31.8 120.5 31.8 120.64 31.75 120.72 31.67 120.76 31.54 120.76 31.49 120.72 31.36 120.64 31.27 120.5 31.23 120.45 31.23 120.32 31.27 120.23 31.36 120.19 31.49"/><polyline class="a" points="20.23 37.01 20.17 36.92 19.98 36.79 21.26 36.79"/><polygon class="a" points="21.13 36.2 21.2 36.23 21.26 36.2 21.2 36.16 21.13 36.2"/><polyline class="a" points="19.98 35.44 20.83 35.85 20.83 35.22"/><line class="a" x1="19.98" y1="35.44" x2="21.26" y2="35.44"/><polyline class="a" points="22.92 36.83 22.92 36.37 23.41 36.63 23.41 36.49 23.47 36.41 23.53 36.37 23.72 36.32 23.84 36.32 24.02 36.37 24.13 36.45 24.19 36.58 24.19 36.71 24.13 36.83 24.07 36.87 23.96 36.92"/><polygon class="a" points="24.07 35.99 24.13 36.03 24.19 35.99 24.13 35.94 24.07 35.99"/><polyline class="a" points="23.16 35.52 23.1 35.44 22.92 35.3 24.19 35.3"/><polyline class="a" points="24.55 36.96 24.55 36.49 25.02 36.75 25.02 36.63 25.09 36.54 25.15 36.49 25.33 36.45 25.45 36.45 25.64 36.49 25.76 36.58 25.81 36.71 25.81 36.84 25.76 36.96 25.7 37.01 25.58 37.04"/><polygon class="a" points="25.7 36.11 25.76 36.16 25.81 36.11 25.76 36.08 25.7 36.11"/><polyline class="a" points="24.55 35.68 24.55 35.22 25.02 35.48 25.02 35.35 25.09 35.27 25.15 35.22 25.33 35.18 25.45 35.18 25.64 35.22 25.76 35.3 25.81 35.44 25.81 35.56 25.76 35.68 25.7 35.73 25.58 35.77"/><polyline class="a" points="26.13 36.49 26.98 36.92 26.98 36.28"/><line class="a" x1="26.13" y1="36.49" x2="27.4" y2="36.49"/><polygon class="a" points="27.28 35.99 27.34 36.03 27.4 35.99 27.34 35.94 27.28 35.99"/><polyline class="a" points="26.37 35.52 26.31 35.44 26.13 35.3 27.4 35.3"/><polyline class="a" points="27.63 36.63 28.49 37.04 28.49 36.41"/><line class="a" x1="27.63" y1="36.63" x2="28.9" y2="36.63"/><polygon class="a" points="28.78 36.11 28.84 36.16 28.9 36.11 28.84 36.08 28.78 36.11"/><polyline class="a" points="28.91 35.6 27.63 35.18 27.63 35.77"/><path class="a" d="M29.19,36.55V37l.55,0-.06,0c-.42-.74,1.28-.6.66,0l-.11,0"/><polygon class="a" points="30.34 36.14 30.4 36.17 30.46 36.14 30.4 36.09 30.34 36.14"/><polyline class="a" points="29.19 35.37 30.04 35.79 30.04 35.16"/><line class="a" x1="29.19" y1="35.37" x2="30.46" y2="35.37"/><polyline class="a" points="30.77 36.54 30.77 36.96 31.3 37.01 31.24 36.96 31.18 36.84 31.18 36.71 31.24 36.58 31.36 36.49 31.55 36.45 31.67 36.45 31.85 36.49 31.98 36.58 32.02 36.71 32.02 36.84 31.98 36.96 31.91 37.01 31.79 37.04"/><polygon class="a" points="31.91 36.11 31.98 36.16 32.02 36.11 31.98 36.08 31.91 36.11"/><polyline class="a" points="32.02 35.6 30.77 35.18 30.77 35.77"/><polyline class="a" points="32.99 36.49 32.87 36.54 32.81 36.66 32.81 36.75 32.87 36.87 33.05 36.96 33.35 37.01 33.65 37.01 33.9 36.96 34.02 36.87 34.08 36.75 34.08 36.71 34.02 36.58 33.9 36.49 33.71 36.45 33.65 36.45 33.47 36.49 33.35 36.58 33.29 36.71 33.29 36.75 33.35 36.87 33.47 36.96 33.65 37.01"/><polygon class="a" points="33.96 36.11 34.02 36.16 34.08 36.11 34.02 36.08 33.96 36.11"/><polyline class="a" points="33.22 35.22 33.41 35.27 33.53 35.35 33.59 35.48 33.59 35.52 33.53 35.65 33.41 35.73 33.22 35.77 33.16 35.77 32.99 35.73 32.87 35.65 32.81 35.52 32.81 35.48 32.87 35.35 32.99 35.27 33.22 35.22 33.53 35.22 33.84 35.27 34.02 35.35 34.08 35.48 34.08 35.56 34.02 35.68 33.9 35.73"/><polyline class="a" points="38.9 36.52 39.09 36.55 39.21 36.64 39.27 36.77 39.27 36.81 39.21 36.94 39.09 37.03 38.9 37.07 38.84 37.07 38.66 37.03 38.54 36.94 38.48 36.81 38.48 36.77 38.54 36.64 38.66 36.55 38.9 36.52 39.21 36.52 39.52 36.55 39.69 36.64 39.75 36.77 39.75 36.86 39.69 36.98 39.56 37.03"/><polygon class="a" points="39.63 36.14 39.69 36.17 39.75 36.14 39.69 36.09 39.63 36.14"/><polyline class="a" points="38.47 35.37 39.33 35.79 39.33 35.16"/><line class="a" x1="38.47" y1="35.37" x2="39.75" y2="35.37"/><polyline class="a" points="53.17 37.41 53.11 37.32 52.93 37.19 54.2 37.19"/><polyline class="a" points="52.93 36.17 52.93 36.6 53.48 36.64 53.42 36.6 53.35 36.48 53.35 36.34 53.42 36.22 53.54 36.14 53.72 36.09 53.84 36.09 54.03 36.14 54.14 36.22 54.2 36.34 54.2 36.48 54.14 36.6 54.09 36.64 53.97 36.69"/><polygon class="a" points="54.09 35.76 54.14 35.79 54.2 35.76 54.14 35.71 54.09 35.76"/><polyline class="a" points="53.11 34.86 52.99 34.9 52.93 35.03 52.93 35.12 52.99 35.24 53.17 35.33 53.48 35.37 53.78 35.37 54.03 35.33 54.14 35.24 54.2 35.12 54.2 35.07 54.14 34.95 54.03 34.86 53.84 34.81 53.78 34.81 53.6 34.86 53.48 34.95 53.42 35.07 53.42 35.12 53.48 35.24 53.6 35.33 53.78 35.37"/><polyline class="a" points="62.55 37.41 62.48 37.32 62.3 37.19 63.57 37.19"/><polyline class="a" points="62.72 36.14 62.9 36.17 63.02 36.26 63.08 36.39 63.08 36.43 63.02 36.55 62.9 36.64 62.72 36.69 62.67 36.69 62.48 36.64 62.36 36.55 62.3 36.43 62.3 36.39 62.36 36.26 62.48 36.17 62.72 36.14 63.02 36.14 63.33 36.17 63.51 36.26 63.57 36.39 63.57 36.48 63.51 36.6 63.39 36.64"/><polygon class="a" points="63.45 35.76 63.51 35.79 63.57 35.76 63.51 35.71 63.45 35.76"/><polyline class="a" points="63.57 35.24 62.3 34.82 62.3 35.41"/><polyline class="a" points="74.18 37.42 74.12 37.42 74.01 37.38 73.95 37.35 73.89 37.26 73.89 37.09 73.95 37.01 74.01 36.96 74.12 36.92 74.24 36.92 74.37 36.96 74.55 37.04 75.16 37.47 75.16 36.87"/><polyline class="a" points="73.89 36.2 74.73 36.63 74.73 35.99"/><line class="a" x1="73.89" y1="36.2" x2="75.16" y2="36.2"/><polygon class="a" points="75.04 35.68 75.1 35.73 75.16 35.68 75.1 35.65 75.04 35.68"/><polyline class="a" points="75.16 35.18 73.89 34.75 73.89 35.35"/><polyline class="a" points="86.14 37.41 86.08 37.41 85.97 37.36 85.91 37.32 85.84 37.24 85.84 37.07 85.91 36.98 85.97 36.95 86.08 36.9 86.2 36.9 86.32 36.95 86.51 37.03 87.12 37.45 87.12 36.86"/><polyline class="a" points="86.26 36.05 86.44 36.09 86.57 36.17 86.63 36.31 86.63 36.34 86.57 36.48 86.44 36.55 86.26 36.6 86.2 36.6 86.02 36.55 85.91 36.48 85.84 36.34 85.84 36.31 85.91 36.17 86.02 36.09 86.26 36.05 86.57 36.05 86.87 36.09 87.06 36.17 87.12 36.31 87.12 36.39 87.06 36.52 86.93 36.55"/><polygon class="a" points="87 35.67 87.06 35.71 87.12 35.67 87.06 35.62 87 35.67"/><polyline class="a" points="86.26 34.78 86.44 34.81 86.57 34.9 86.63 35.03 86.63 35.07 86.57 35.21 86.44 35.29 86.26 35.33 86.2 35.33 86.02 35.29 85.91 35.21 85.84 35.07 85.84 35.03 85.91 34.9 86.02 34.81 86.26 34.78 86.57 34.78 86.87 34.81 87.06 34.9 87.12 35.03 87.12 35.12 87.06 35.24 86.93 35.29"/><path class="a" d="M102.15,37.36V36.9l.48.26V37c.21-.4,1.16-.07.67.38l-.12,0"/><polyline class="a" points="102.33 36.05 102.21 36.09 102.14 36.22 102.14 36.31 102.21 36.43 102.39 36.52 102.68 36.55 102.99 36.55 103.23 36.52 103.36 36.43 103.42 36.31 103.42 36.26 103.36 36.14 103.23 36.05 103.05 36 102.99 36 102.81 36.05 102.68 36.14 102.62 36.26 102.62 36.31 102.68 36.43 102.81 36.52 102.99 36.55"/><polygon class="a" points="103.3 35.67 103.36 35.71 103.42 35.67 103.36 35.62 103.3 35.67"/><polyline class="a" points="102.57 34.78 102.74 34.81 102.87 34.9 102.93 35.03 102.93 35.07 102.87 35.21 102.74 35.29 102.57 35.33 102.51 35.33 102.33 35.29 102.21 35.21 102.14 35.07 102.14 35.03 102.21 34.9 102.33 34.81 102.57 34.78 102.87 34.78 103.17 34.81 103.36 34.9 103.42 35.03 103.42 35.12 103.36 35.24 103.23 35.29"/><polyline class="a" points="113.8 36.41 114.65 36.83 114.65 36.2"/><line class="a" x1="113.8" y1="36.41" x2="115.07" y2="36.41"/><polyline class="a" points="114.1 35.94 114.04 35.94 113.92 35.9 113.86 35.85 113.8 35.77 113.8 35.6 113.86 35.52 113.92 35.48 114.04 35.44 114.16 35.44 114.28 35.48 114.47 35.56 115.07 35.99 115.07 35.39"/><polyline class="a" points="124.48 37.04 125.33 37.47 125.33 36.83"/><line class="a" x1="124.48" y1="37.04" x2="125.75" y2="37.04"/><polyline class="a" points="124.66 36.08 124.54 36.11 124.48 36.23 124.48 36.32 124.54 36.45 124.72 36.54 125.03 36.58 125.33 36.58 125.57 36.54 125.69 36.45 125.75 36.32 125.75 36.28 125.69 36.16 125.57 36.08 125.4 36.03 125.33 36.03 125.15 36.08 125.03 36.16 124.97 36.28 124.97 36.32 125.03 36.45 125.15 36.54 125.33 36.58"/><polygon class="a" points="125.63 35.68 125.69 35.73 125.75 35.68 125.69 35.65 125.63 35.68"/><polyline class="a" points="124.66 34.8 124.54 34.84 124.48 34.97 124.48 35.05 124.54 35.18 124.72 35.27 125.03 35.3 125.33 35.3 125.57 35.27 125.69 35.18 125.75 35.05 125.75 35.01 125.69 34.89 125.57 34.8 125.4 34.75 125.33 34.75 125.15 34.8 125.03 34.89 124.97 35.01 124.97 35.05 125.03 35.18 125.15 35.27 125.33 35.3"/><polyline class="a" points="20.23 43.78 20.17 43.7 19.98 43.58 21.26 43.58"/><polyline class="a" points="20.4 42.51 20.58 42.56 20.71 42.65 20.77 42.77 20.77 42.82 20.71 42.94 20.58 43.03 20.4 43.06 20.35 43.06 20.17 43.03 20.05 42.94 19.98 42.82 19.98 42.77 20.05 42.65 20.17 42.56 20.4 42.51 20.71 42.51 21.01 42.56 21.2 42.65 21.26 42.77 21.26 42.85 21.2 42.98 21.07 43.03"/><polygon class="a" points="19.98 41.96 20.05 42.1 20.23 42.18 20.52 42.22 20.71 42.22 21.01 42.18 21.2 42.1 21.26 41.96 21.26 41.88 21.2 41.75 21.01 41.67 20.71 41.63 20.52 41.63 20.23 41.67 20.05 41.75 19.98 41.88 19.98 41.96"/><polygon class="a" points="21.13 41.29 21.2 41.33 21.26 41.29 21.2 41.24 21.13 41.29"/><polyline class="a" points="20.23 40.82 20.17 40.74 19.98 40.6 21.26 40.6"/><polyline class="a" points="20.17 39.55 20.05 39.59 19.98 39.72 19.98 39.81 20.05 39.93 20.23 40.02 20.52 40.05 20.83 40.05 21.07 40.02 21.2 39.93 21.26 39.81 21.26 39.76 21.2 39.64 21.07 39.55 20.89 39.5 20.83 39.5 20.64 39.55 20.52 39.64 20.46 39.76 20.46 39.81 20.52 39.93 20.64 40.02 20.83 40.05"/><polyline class="a" points="23.23 43.78 23.17 43.7 22.98 43.58 24.25 43.58"/><polyline class="a" points="23.41 42.51 23.59 42.56 23.72 42.65 23.78 42.77 23.78 42.82 23.72 42.94 23.59 43.03 23.41 43.06 23.35 43.06 23.16 43.03 23.04 42.94 22.98 42.82 22.98 42.77 23.04 42.65 23.16 42.56 23.41 42.51 23.72 42.51 24.01 42.56 24.19 42.65 24.25 42.77 24.25 42.85 24.19 42.98 24.07 43.03"/><polygon class="a" points="22.98 41.96 23.04 42.1 23.23 42.18 23.53 42.22 23.72 42.22 24.01 42.18 24.19 42.1 24.25 41.96 24.25 41.88 24.19 41.75 24.01 41.67 23.72 41.63 23.53 41.63 23.23 41.67 23.04 41.75 22.98 41.88 22.98 41.96"/><polygon class="a" points="24.13 41.29 24.19 41.33 24.25 41.29 24.19 41.24 24.13 41.29"/><polygon class="a" points="22.98 40.69 23.04 40.82 23.23 40.91 23.53 40.95 23.72 40.95 24.01 40.91 24.19 40.82 24.25 40.69 24.25 40.6 24.19 40.48 24.01 40.4 23.72 40.36 23.53 40.36 23.23 40.4 23.04 40.48 22.98 40.6 22.98 40.69"/><polyline class="a" points="22.98 39.59 22.98 40.02 23.53 40.05 23.47 40.02 23.41 39.89 23.41 39.76 23.47 39.64 23.59 39.55 23.78 39.5 23.9 39.5 24.07 39.55 24.19 39.64 24.25 39.76 24.25 39.89 24.19 40.02 24.13 40.05 24.01 40.1"/><polyline class="a" points="24.68 43.78 24.62 43.7 24.44 43.58 25.71 43.58"/><polygon class="a" points="24.44 42.85 24.5 42.98 24.62 43.03 24.74 43.03 24.87 42.98 24.93 42.9 24.99 42.73 25.05 42.6 25.17 42.51 25.3 42.48 25.48 42.48 25.59 42.51 25.65 42.56 25.71 42.68 25.71 42.85 25.65 42.98 25.59 43.03 25.48 43.06 25.3 43.06 25.17 43.03 25.05 42.94 24.99 42.82 24.93 42.65 24.87 42.56 24.74 42.51 24.62 42.51 24.5 42.56 24.44 42.68 24.44 42.85"/><polyline class="a" points="24.87 41.67 25.05 41.72 25.17 41.79 25.23 41.92 25.23 41.96 25.17 42.1 25.05 42.18 24.87 42.22 24.8 42.22 24.62 42.18 24.5 42.1 24.44 41.96 24.44 41.92 24.5 41.79 24.62 41.72 24.87 41.67 25.17 41.67 25.48 41.72 25.65 41.79 25.71 41.92 25.71 42.01 25.65 42.13 25.54 42.18"/><polygon class="a" points="25.59 41.29 25.65 41.33 25.71 41.29 25.65 41.24 25.59 41.29"/><polyline class="a" points="24.74 40.91 24.68 40.91 24.56 40.86 24.5 40.82 24.44 40.74 24.44 40.57 24.5 40.48 24.56 40.44 24.68 40.4 24.8 40.4 24.93 40.44 25.11 40.53 25.71 40.95 25.71 40.36"/><polyline class="a" points="24.74 40.05 24.68 40.05 24.56 40.02 24.5 39.97 24.44 39.89 24.44 39.72 24.5 39.64 24.56 39.59 24.68 39.55 24.8 39.55 24.93 39.59 25.11 39.67 25.71 40.1 25.71 39.5"/><polyline class="a" points="26.37 43.78 26.31 43.7 26.13 43.58 27.4 43.58"/><polygon class="a" points="26.13 42.85 26.19 42.98 26.31 43.03 26.43 43.03 26.55 42.98 26.62 42.9 26.68 42.73 26.74 42.6 26.85 42.51 26.97 42.48 27.16 42.48 27.28 42.51 27.34 42.56 27.4 42.68 27.4 42.85 27.34 42.98 27.28 43.03 27.16 43.06 26.97 43.06 26.85 43.03 26.74 42.94 26.68 42.82 26.62 42.65 26.55 42.56 26.43 42.51 26.31 42.51 26.19 42.56 26.13 42.68 26.13 42.85"/><polyline class="a" points="26.55 41.67 26.74 41.72 26.85 41.79 26.91 41.92 26.91 41.96 26.85 42.1 26.74 42.18 26.55 42.22 26.49 42.22 26.31 42.18 26.19 42.1 26.13 41.96 26.13 41.92 26.19 41.79 26.31 41.72 26.55 41.67 26.85 41.67 27.16 41.72 27.34 41.79 27.4 41.92 27.4 42.01 27.34 42.13 27.22 42.18"/><polygon class="a" points="27.28 41.29 27.34 41.33 27.4 41.29 27.34 41.24 27.28 41.29"/><polygon class="a" points="26.13 40.69 26.19 40.82 26.37 40.91 26.68 40.95 26.85 40.95 27.16 40.91 27.34 40.82 27.4 40.69 27.4 40.6 27.34 40.48 27.16 40.4 26.85 40.36 26.68 40.36 26.37 40.4 26.19 40.48 26.13 40.6 26.13 40.69"/><polyline class="a" points="27.4 39.93 26.13 39.5 26.13 40.1"/><polyline class="a" points="27.88 42.71 27.82 42.62 27.63 42.5 28.91 42.5"/><polygon class="a" points="27.63 41.78 27.69 41.9 27.82 41.95 27.94 41.95 28.06 41.9 28.12 41.81 28.17 41.64 28.23 41.52 28.35 41.44 28.48 41.4 28.66 41.4 28.78 41.44 28.84 41.47 28.91 41.61 28.91 41.78 28.84 41.9 28.78 41.95 28.66 41.99 28.48 41.99 28.35 41.95 28.23 41.86 28.17 41.73 28.12 41.56 28.06 41.47 27.94 41.44 27.82 41.44 27.69 41.47 27.63 41.61 27.63 41.78"/><polyline class="a" points="28.06 40.59 28.23 40.63 28.35 40.71 28.41 40.84 28.41 40.88 28.35 41.01 28.23 41.09 28.06 41.14 28 41.14 27.82 41.09 27.69 41.01 27.63 40.88 27.63 40.84 27.69 40.71 27.82 40.63 28.06 40.59 28.35 40.59 28.66 40.63 28.84 40.71 28.9 40.84 28.9 40.92 28.84 41.06 28.72 41.09"/><polyline class="a" points="29.43 43.78 29.37 43.7 29.19 43.58 30.46 43.58"/><polygon class="a" points="29.19 42.85 29.25 42.98 29.37 43.03 29.49 43.03 29.61 42.98 29.68 42.9 29.74 42.73 29.8 42.6 29.91 42.51 30.03 42.48 30.21 42.48 30.34 42.51 30.4 42.56 30.46 42.68 30.46 42.85 30.4 42.98 30.34 43.03 30.21 43.06 30.03 43.06 29.91 43.03 29.8 42.94 29.74 42.82 29.68 42.65 29.61 42.56 29.49 42.51 29.37 42.51 29.25 42.56 29.19 42.68 29.19 42.85"/><polyline class="a" points="29.61 41.67 29.8 41.72 29.91 41.79 29.97 41.92 29.97 41.96 29.91 42.1 29.8 42.18 29.61 42.22 29.55 42.22 29.37 42.18 29.25 42.1 29.19 41.96 29.19 41.92 29.25 41.79 29.37 41.72 29.61 41.67 29.91 41.67 30.21 41.72 30.4 41.79 30.46 41.92 30.46 42.01 30.4 42.13 30.27 42.18"/><polygon class="a" points="30.34 41.29 30.4 41.33 30.46 41.29 30.4 41.24 30.34 41.29"/><polygon class="a" points="29.19 40.69 29.25 40.82 29.43 40.91 29.74 40.95 29.91 40.95 30.21 40.91 30.4 40.82 30.46 40.69 30.46 40.6 30.4 40.48 30.21 40.4 29.91 40.36 29.74 40.36 29.43 40.4 29.25 40.48 29.19 40.6 29.19 40.69"/><polyline class="a" points="29.19 39.59 29.19 40.02 29.74 40.05 29.68 40.02 29.61 39.89 29.61 39.76 29.68 39.64 29.8 39.55 29.97 39.5 30.09 39.5 30.27 39.55 30.4 39.64 30.46 39.76 30.46 39.89 30.4 40.02 30.34 40.05 30.21 40.1"/><polyline class="a" points="30.94 43.77 30.88 43.69 30.69 43.55 31.96 43.55"/><polyline class="a" points="31.11 42.5 31.29 42.54 31.41 42.62 31.47 42.74 31.47 42.79 31.41 42.92 31.29 43 31.11 43.05 31.05 43.05 30.88 43 30.75 42.92 30.69 42.79 30.69 42.74 30.75 42.62 30.88 42.54 31.11 42.5 31.41 42.5 31.72 42.54 31.9 42.62 31.96 42.74 31.96 42.83 31.9 42.97 31.78 43"/><polygon class="a" points="30.69 41.95 30.75 42.07 30.94 42.16 31.23 42.2 31.41 42.2 31.72 42.16 31.9 42.07 31.96 41.95 31.96 41.86 31.9 41.73 31.72 41.64 31.41 41.61 31.23 41.61 30.94 41.64 30.75 41.73 30.69 41.86 30.69 41.95"/><polygon class="a" points="31.84 41.26 31.9 41.31 31.96 41.26 31.9 41.23 31.84 41.26"/><polyline class="a" points="30.94 40.8 30.88 40.71 30.69 40.59 31.96 40.59"/><polyline class="a" points="31.11 39.53 31.29 39.58 31.41 39.65 31.47 39.78 31.47 39.82 31.41 39.95 31.29 40.04 31.11 40.08 31.05 40.08 30.88 40.04 30.75 39.95 30.69 39.82 30.69 39.78 30.75 39.65 30.88 39.58 31.11 39.53 31.41 39.53 31.72 39.58 31.9 39.65 31.96 39.78 31.96 39.87 31.9 39.99 31.78 40.04"/><polyline class="a" points="33.04 43.81 32.98 43.72 32.81 43.6 34.07 43.6"/><polyline class="a" points="33.22 42.54 33.41 42.59 33.53 42.66 33.59 42.79 33.59 42.83 33.53 42.97 33.41 43.05 33.22 43.09 33.16 43.09 32.98 43.05 32.86 42.97 32.81 42.83 32.81 42.79 32.86 42.66 32.98 42.59 33.22 42.54 33.53 42.54 33.84 42.59 34.01 42.66 34.07 42.79 34.07 42.88 34.01 43 33.9 43.05"/><polygon class="a" points="32.81 41.99 32.86 42.11 33.04 42.19 33.35 42.24 33.53 42.24 33.84 42.19 34.01 42.11 34.07 41.99 34.07 41.9 34.01 41.78 33.84 41.69 33.53 41.64 33.35 41.64 33.04 41.69 32.86 41.78 32.81 41.9 32.81 41.99"/><polygon class="a" points="33.96 41.31 34.01 41.35 34.07 41.31 34.01 41.26 33.96 41.31"/><polyline class="a" points="33.1 40.92 33.04 40.92 32.92 40.88 32.86 40.84 32.81 40.76 32.81 40.59 32.86 40.51 32.92 40.46 33.04 40.42 33.16 40.42 33.29 40.46 33.47 40.54 34.07 40.97 34.07 40.37"/><polyline class="a" points="32.81 39.7 33.65 40.13 33.65 39.49"/><line class="a" x1="32.81" y1="39.7" x2="34.07" y2="39.7"/><polyline class="a" points="38.72 43.78 38.66 43.7 38.47 43.58 39.75 43.58"/><polygon class="a" points="38.47 42.85 38.53 42.98 38.66 43.03 38.78 43.03 38.9 42.98 38.96 42.9 39.02 42.73 39.09 42.6 39.2 42.51 39.32 42.48 39.5 42.48 39.62 42.51 39.69 42.56 39.75 42.68 39.75 42.85 39.69 42.98 39.62 43.03 39.5 43.06 39.32 43.06 39.2 43.03 39.09 42.94 39.02 42.82 38.96 42.65 38.9 42.56 38.78 42.51 38.66 42.51 38.53 42.56 38.47 42.68 38.47 42.85"/><polyline class="a" points="38.9 41.67 39.09 41.72 39.2 41.79 39.26 41.92 39.26 41.96 39.2 42.1 39.09 42.18 38.9 42.22 38.84 42.22 38.66 42.18 38.54 42.1 38.48 41.96 38.48 41.92 38.54 41.79 38.66 41.72 38.9 41.67 39.2 41.67 39.5 41.72 39.69 41.79 39.75 41.92 39.75 42.01 39.69 42.13 39.56 42.18"/><polygon class="a" points="39.63 41.29 39.69 41.33 39.75 41.29 39.69 41.24 39.63 41.29"/><polyline class="a" points="38.9 40.4 39.09 40.44 39.2 40.53 39.26 40.65 39.26 40.69 39.2 40.82 39.09 40.91 38.9 40.95 38.84 40.95 38.66 40.91 38.54 40.82 38.48 40.69 38.48 40.65 38.54 40.53 38.66 40.44 38.9 40.4 39.2 40.4 39.5 40.44 39.69 40.53 39.75 40.65 39.75 40.74 39.69 40.86 39.56 40.91"/><polyline class="a" points="38.47 39.59 38.47 40.02 39.02 40.05 38.96 40.02 38.9 39.89 38.9 39.76 38.96 39.64 39.09 39.55 39.26 39.5 39.38 39.5 39.56 39.55 39.69 39.64 39.75 39.76 39.75 39.89 39.69 40.02 39.62 40.05 39.5 40.1"/><polyline class="a" points="53.17 43.78 53.11 43.7 52.93 43.58 54.2 43.58"/><polygon class="a" points="52.93 42.85 52.99 42.98 53.11 43.03 53.23 43.03 53.35 42.98 53.42 42.9 53.48 42.73 53.54 42.6 53.66 42.51 53.77 42.48 53.95 42.48 54.08 42.51 54.14 42.56 54.2 42.68 54.2 42.85 54.14 42.98 54.08 43.03 53.95 43.06 53.77 43.06 53.66 43.03 53.54 42.94 53.48 42.82 53.42 42.65 53.35 42.56 53.23 42.51 53.11 42.51 52.99 42.56 52.93 42.68 52.93 42.85"/><polyline class="a" points="53.35 41.67 53.54 41.72 53.66 41.79 53.72 41.92 53.72 41.96 53.66 42.1 53.54 42.18 53.35 42.22 53.29 42.22 53.11 42.18 52.99 42.1 52.93 41.96 52.93 41.92 52.99 41.79 53.11 41.72 53.35 41.67 53.66 41.67 53.95 41.72 54.14 41.79 54.2 41.92 54.2 42.01 54.14 42.13 54.02 42.18"/><polygon class="a" points="54.08 41.29 54.14 41.33 54.2 41.29 54.14 41.24 54.08 41.29"/><path class="a" d="M52.93,40.86V40.4l.49.26v-.12c.21-.41,1.15-.06.66.38l-.12,0"/><polyline class="a" points="53.23 40.05 53.17 40.05 53.05 40.02 52.99 39.97 52.93 39.89 52.93 39.72 52.99 39.64 53.05 39.59 53.17 39.55 53.29 39.55 53.42 39.59 53.6 39.67 54.2 40.1 54.2 39.5"/><polyline class="a" points="62.53 43.77 62.47 43.69 62.3 43.55 63.56 43.55"/><path class="a" d="M62.3,42.83l0,.14.12,0h.12l.12,0,.06-.09.06-.17.06-.12L63,42.5l.12,0h.18l.12,0,.06,0,0,.12v.17l0,.14c-.9.42-.46-.72-1.16-.43l0,.12Z"/><polyline class="a" points="62.72 41.64 62.9 41.69 63.02 41.78 63.08 41.9 63.08 41.95 63.02 42.07 62.9 42.16 62.72 42.2 62.66 42.2 62.47 42.16 62.35 42.07 62.3 41.95 62.3 41.9 62.35 41.78 62.47 41.69 62.72 41.64 63.02 41.64 63.33 41.69 63.51 41.78 63.56 41.9 63.56 41.99 63.51 42.11 63.39 42.16"/><polygon class="a" points="63.45 41.26 63.51 41.31 63.56 41.26 63.51 41.23 63.45 41.26"/><polygon class="a" points="62.3 40.68 62.35 40.8 62.53 40.88 62.84 40.92 63.02 40.92 63.33 40.88 63.51 40.8 63.56 40.68 63.56 40.59 63.51 40.46 63.33 40.37 63.02 40.33 62.84 40.33 62.53 40.37 62.35 40.46 62.3 40.59 62.3 40.68"/><polyline class="a" points="62.72 39.53 62.9 39.58 63.02 39.65 63.08 39.78 63.08 39.82 63.02 39.95 62.9 40.04 62.72 40.08 62.66 40.08 62.47 40.04 62.35 39.95 62.3 39.82 62.3 39.78 62.35 39.65 62.47 39.58 62.72 39.53 63.02 39.53 63.33 39.58 63.51 39.65 63.56 39.78 63.56 39.87 63.51 39.99 63.39 40.04"/><polyline class="a" points="74.12 43.37 74.06 43.28 73.88 43.15 75.15 43.15"/><path class="a" d="M73.88,42.43l.06.14.12,0h.12l.12,0,.06-.09.06-.17.06-.12.12-.08.12,0h.17l.12,0,.06,0,.06.13v.16l-.06.14c-.88.42-.45-.72-1.15-.43l-.06.13Z"/><path class="a" d="M73.88,41.58l.06.14.12,0h.12l.12,0,.06-.09.06-.17.06-.14.12-.09.12,0h.17l.12,0,.06,0,.06.12v.17l-.06.14c-.93.39-.45-.74-1.15-.43l-.06.12Z"/><polygon class="a" points="75.03 40.86 75.09 40.91 75.15 40.86 75.09 40.82 75.03 40.86"/><path class="a" d="M73.88,40.31l.06.14.12,0h.12l.12,0,.06-.09.06-.17.06-.14.12-.09.12,0h.17L75,40l.06,0,.06.12v.17l-.06.14c-.88.43-.47-.76-1.15-.43l-.06.12Z"/><polyline class="a" points="86.08 43.78 86.02 43.7 85.83 43.58 87.11 43.58"/><polygon class="a" points="85.83 42.85 85.89 42.98 86.02 43.03 86.14 43.03 86.26 42.98 86.32 42.9 86.38 42.73 86.44 42.6 86.57 42.51 86.69 42.48 86.86 42.48 86.98 42.51 87.05 42.56 87.11 42.68 87.11 42.85 87.05 42.98 86.98 43.03 86.86 43.06 86.69 43.06 86.57 43.03 86.44 42.94 86.38 42.82 86.32 42.65 86.26 42.56 86.14 42.51 86.02 42.51 85.89 42.56 85.83 42.68 85.83 42.85"/><polygon class="a" points="85.83 42.01 85.89 42.13 86.02 42.18 86.14 42.18 86.26 42.13 86.32 42.05 86.38 41.88 86.44 41.75 86.57 41.67 86.69 41.63 86.86 41.63 86.98 41.67 87.05 41.72 87.11 41.84 87.11 42.01 87.05 42.13 86.98 42.18 86.86 42.22 86.69 42.22 86.57 42.18 86.44 42.1 86.38 41.96 86.32 41.79 86.26 41.72 86.14 41.67 86.02 41.67 85.89 41.72 85.83 41.84 85.83 42.01"/><polygon class="a" points="86.98 41.29 87.04 41.33 87.11 41.29 87.04 41.24 86.98 41.29"/><polyline class="a" points="86.02 40.4 85.89 40.44 85.83 40.57 85.83 40.65 85.89 40.77 86.08 40.86 86.38 40.91 86.69 40.91 86.92 40.86 87.04 40.77 87.11 40.65 87.11 40.6 87.04 40.48 86.92 40.4 86.75 40.36 86.69 40.36 86.51 40.4 86.38 40.48 86.32 40.6 86.32 40.65 86.38 40.77 86.51 40.86 86.69 40.91"/><polyline class="a" points="86.14 40.05 86.08 40.05 85.95 40.02 85.89 39.97 85.83 39.89 85.83 39.72 85.89 39.64 85.95 39.59 86.08 39.55 86.2 39.55 86.32 39.59 86.51 39.67 87.11 40.1 87.11 39.5"/><polyline class="a" points="102.38 43.78 102.32 43.7 102.15 43.58 103.42 43.58"/><polygon class="a" points="102.14 42.85 102.21 42.98 102.32 43.03 102.44 43.03 102.56 42.98 102.62 42.9 102.68 42.73 102.75 42.6 102.87 42.51 102.99 42.48 103.17 42.48 103.3 42.51 103.36 42.56 103.42 42.68 103.42 42.85 103.36 42.98 103.3 43.03 103.17 43.06 102.99 43.06 102.87 43.03 102.75 42.94 102.68 42.82 102.62 42.65 102.56 42.56 102.44 42.51 102.32 42.51 102.21 42.56 102.14 42.68 102.14 42.85"/><polygon class="a" points="102.14 42.01 102.21 42.13 102.32 42.18 102.44 42.18 102.56 42.13 102.62 42.05 102.68 41.88 102.75 41.75 102.87 41.67 102.99 41.63 103.17 41.63 103.3 41.67 103.36 41.72 103.42 41.84 103.42 42.01 103.36 42.13 103.3 42.18 103.17 42.22 102.99 42.22 102.87 42.18 102.75 42.1 102.68 41.96 102.62 41.79 102.56 41.72 102.44 41.67 102.32 41.67 102.21 41.72 102.14 41.84 102.14 42.01"/><polygon class="a" points="103.3 41.29 103.36 41.33 103.42 41.29 103.36 41.24 103.3 41.29"/><path class="a" d="M102.15,40.86V40.4l.48.26v-.12c.21-.4,1.16-.07.67.38l-.12,0"/><polyline class="a" points="103.42 39.93 102.14 39.5 102.14 40.1"/><polyline class="a" points="114.04 43.77 113.98 43.69 113.8 43.55 115.07 43.55"/><path class="a" d="M113.8,42.83l.06.14.12,0h.12l.12,0,.06-.09.06-.17.06-.12.11-.08.12,0h.18l.12,0,.06,0,.06.12v.17L115,43c-.9.42-.44-.72-1.15-.43l-.06.12Z"/><polygon class="a" points="113.8 41.99 113.86 42.11 113.98 42.16 114.1 42.16 114.22 42.11 114.28 42.02 114.35 41.86 114.41 41.73 114.52 41.64 114.64 41.61 114.82 41.61 114.94 41.64 115.01 41.69 115.07 41.81 115.07 41.99 115.01 42.11 114.94 42.16 114.82 42.19 114.64 42.19 114.52 42.16 114.41 42.07 114.35 41.95 114.28 41.78 114.22 41.69 114.1 41.64 113.98 41.64 113.86 41.69 113.8 41.81 113.8 41.99"/><polygon class="a" points="114.94 41.26 115.01 41.31 115.07 41.26 115.01 41.23 114.94 41.26"/><polyline class="a" points="114.1 40.88 114.04 40.88 113.92 40.84 113.86 40.8 113.8 40.71 113.8 40.54 113.86 40.46 113.92 40.42 114.04 40.37 114.16 40.37 114.28 40.42 114.46 40.51 115.07 40.92 115.07 40.33"/><polyline class="a" points="114.22 39.53 114.41 39.58 114.52 39.65 114.58 39.78 114.58 39.82 114.52 39.95 114.41 40.04 114.22 40.08 114.16 40.08 113.98 40.04 113.86 39.95 113.8 39.82 113.8 39.78 113.86 39.65 113.98 39.58 114.22 39.53 114.52 39.53 114.82 39.58 115.01 39.65 115.07 39.78 115.07 39.87 115.01 39.99 114.88 40.04"/><polyline class="a" points="124.72 43.78 124.66 43.7 124.48 43.58 125.75 43.58"/><polygon class="a" points="124.48 42.85 124.54 42.98 124.66 43.03 124.78 43.03 124.91 42.98 124.97 42.9 125.03 42.73 125.09 42.6 125.2 42.51 125.32 42.48 125.51 42.48 125.63 42.51 125.69 42.56 125.75 42.68 125.75 42.85 125.69 42.98 125.63 43.03 125.51 43.06 125.32 43.06 125.2 43.03 125.09 42.94 125.03 42.82 124.97 42.65 124.91 42.56 124.78 42.51 124.66 42.51 124.54 42.56 124.48 42.68 124.48 42.85"/><polygon class="a" points="124.48 42.01 124.54 42.13 124.66 42.18 124.78 42.18 124.91 42.13 124.97 42.05 125.03 41.88 125.09 41.75 125.2 41.67 125.32 41.63 125.51 41.63 125.63 41.67 125.69 41.72 125.75 41.84 125.75 42.01 125.69 42.13 125.63 42.18 125.51 42.22 125.32 42.22 125.2 42.18 125.09 42.1 125.03 41.96 124.97 41.79 124.91 41.72 124.78 41.67 124.66 41.67 124.54 41.72 124.48 41.84 124.48 42.01"/><polygon class="a" points="125.63 41.29 125.69 41.33 125.75 41.29 125.69 41.24 125.63 41.29"/><polyline class="a" points="124.78 40.91 124.72 40.91 124.6 40.86 124.54 40.82 124.48 40.74 124.48 40.57 124.54 40.48 124.6 40.44 124.72 40.4 124.84 40.4 124.97 40.44 125.15 40.53 125.75 40.95 125.75 40.36"/><polyline class="a" points="124.78 40.05 124.72 40.05 124.6 40.02 124.54 39.97 124.48 39.89 124.48 39.72 124.54 39.64 124.6 39.59 124.72 39.55 124.84 39.55 124.97 39.59 125.15 39.67 125.75 40.1 125.75 39.5"/><line class="a" x1="4.27" y1="23.57" x2="6.51" y2="23.57"/><polygon class="a" points="8.75 23.57 6.51 24.96 6.51 23.57 8.75 23.57"/><line class="a" x1="8.38" y1="23.8" x2="8.6" y2="23.57"/><line class="a" x1="6.63" y1="24.89" x2="7.95" y2="23.57"/><line class="a" x1="6.51" y1="24.36" x2="7.29" y2="23.57"/><line class="a" x1="6.51" y1="23.7" x2="6.65" y2="23.57"/><line class="a" x1="7.56" y1="24.32" x2="6.82" y2="23.57"/><line class="a" x1="7.16" y1="24.56" x2="6.51" y2="23.91"/><line class="a" x1="6.76" y1="24.82" x2="6.51" y2="24.56"/><line class="a" x1="7.97" y1="24.06" x2="7.48" y2="23.57"/><line class="a" x1="8.36" y1="23.8" x2="8.13" y2="23.57"/><line class="a" x1="4.27" y1="23.57" x2="6.51" y2="24.96"/><path class="a" d="M1.81,21.66l-.12.06-.11.11,0,.11-.06.17v.28l.06.16,0,.11.11.12.12,0H2l.11,0a.73.73,0,0,0,0-1.07L2,21.66Z"/><line class="a" x1="1.97" y1="22.61" x2="2.31" y2="22.94"/><line class="a" x1="2.68" y1="22.32" x2="2.68" y2="22.83"/><polyline class="a" points="2.68 22.54 2.72 22.43 2.79 22.36 2.86 22.32 2.97 22.32"/><rect class="a" x="3.13" y="22.07" width="0.05" height="0.05" transform="translate(-14.7 8.7) rotate(-44.98)"/><line class="a" x1="3.16" y1="22.36" x2="3.16" y2="22.83"/><polyline class="a" points="3.67 22.06 3.6 22.06 3.52 22.1 3.49 22.21 3.49 22.84"/><line class="a" x1="3.38" y1="22.32" x2="3.63" y2="22.32"/><line class="a" x1="3.96" y1="22.16" x2="4.97" y2="22.16"/><line class="a" x1="3.96" y1="22.5" x2="4.97" y2="22.5"/><polyline class="a" points="5.53 21.88 5.64 21.83 5.81 21.66 5.81 22.84"/><polygon class="a" points="6.75 21.66 6.6 21.72 6.54 21.83 6.54 21.94 6.6 22.05 6.71 22.11 6.93 22.16 7.1 22.22 7.21 22.33 7.26 22.44 7.26 22.61 7.21 22.73 7.15 22.79 6.99 22.84 6.75 22.84 6.6 22.79 6.54 22.73 6.47 22.61 6.47 22.44 6.54 22.33 6.64 22.22 6.82 22.16 7.04 22.11 7.15 22.05 7.21 21.94 7.21 21.83 7.15 21.72 6.99 21.66 6.75 21.66"/><polygon class="a" points="7.93 21.66 7.77 21.72 7.65 21.88 7.6 22.16 7.6 22.33 7.65 22.61 7.77 22.79 7.93 22.84 8.04 22.84 8.21 22.79 8.32 22.61 8.38 22.33 8.38 22.16 8.32 21.88 8.21 21.72 8.04 21.66 7.93 21.66"/><line class="a" x1="9.95" y1="22.05" x2="9.95" y2="22.83"/><polyline class="a" points="9.95 22.27 10.11 22.11 10.23 22.05 10.39 22.05 10.5 22.11 10.56 22.27 10.56 22.84"/><polyline class="a" points="10.56 22.27 10.73 22.11 10.84 22.05 11.01 22.05 11.12 22.11 11.17 22.27 11.17 22.84"/><polyline class="a" points="13.35 22.22 13.3 22.11 13.13 22.05 12.97 22.05 12.8 22.11 12.74 22.22 12.8 22.33 12.91 22.39 13.19 22.44 13.3 22.5 13.35 22.61 13.35 22.66 13.3 22.79 13.13 22.84 12.97 22.84 12.8 22.79 12.74 22.66"/><polygon class="a" points="13.8 22.73 13.74 22.79 13.8 22.84 13.87 22.79 13.8 22.73"/><line class="a" x1="14.31" y1="21.66" x2="14.31" y2="22.84"/><polygon class="a" points="14.81 22.73 14.76 22.79 14.81 22.84 14.87 22.79 14.81 22.73"/><line class="a" x1="15.31" y1="22.05" x2="15.31" y2="22.83"/><polyline class="a" points="15.31 22.27 15.48 22.11 15.59 22.05 15.76 22.05 15.87 22.11 15.93 22.27 15.93 22.84"/><polyline class="a" points="15.93 22.27 16.09 22.11 16.21 22.05 16.37 22.05 16.48 22.11 16.55 22.27 16.55 22.84"/><polygon class="a" points="17.05 22.73 17 22.79 17.05 22.84 17.11 22.79 17.05 22.73"/><polygon class="a" points="2.52 35.61 2.52 34.68 2.83 34.68 2.96 34.73 3.05 34.82 3.1 34.91 3.13 35.04 3.13 35.26 3.1 35.39 3.05 35.49 2.96 35.57 2.83 35.61 2.52 35.61"/><line class="a" x1="3.45" y1="34.68" x2="3.45" y2="35.61"/><polyline class="a" points="4.38 34.81 4.29 34.73 4.16 34.68 3.98 34.68 3.84 34.73 3.76 34.81 3.76 34.91 3.81 35 3.84 35.03 3.94 35.08 4.2 35.17 4.29 35.22 4.33 35.26 4.38 35.35 4.38 35.49 4.29 35.57 4.16 35.61 3.98 35.61 3.84 35.57 3.76 35.49"/><line class="a" x1="4.87" y1="34.68" x2="4.87" y2="35.61"/><line class="a" x1="4.55" y1="34.68" x2="5.18" y2="34.68"/><polygon class="a" points="5.45 35.52 5.4 35.57 5.45 35.61 5.48 35.57 5.45 35.52"/><polyline class="a" points="6.77 35.61 6.77 34.68 7.17 34.68 7.3 34.73 7.34 34.78 7.39 34.87 7.39 35 7.34 35.09 7.3 35.13 7.17 35.17 6.77 35.17"/><polyline class="a" points="7.7 35.61 7.7 34.68 8.1 34.68 8.23 34.73 8.27 34.78 8.32 34.87 8.32 34.95 8.27 35.04 8.23 35.09 8.1 35.13 7.7 35.13"/><line class="a" x1="8.02" y1="35.13" x2="8.32" y2="35.61"/><path class="a" d="M8.85,34.68l-.09,0-.08.09c-.15.21-.13.71.17.8H9l.08,0a.56.56,0,0,0,0-.84l-.08,0Z"/><path class="a" d="M10.23,34.91l0-.1-.09-.09c-.27-.17-.48,0-.54.31v.22l0,.13,0,.1.1.09.08,0H10l.1,0,.09-.09,0-.1v-.13H10"/><path class="a" d="M10.54,35.61v-.93h.39c.31.06.31.4,0,.45h-.39"/><line class="a" x1="10.84" y1="35.13" x2="11.16" y2="35.61"/><polyline class="a" points="11.47 35.61 11.47 34.68 12.04 34.68"/><line class="a" x1="11.47" y1="35.13" x2="11.82" y2="35.13"/><line class="a" x1="11.47" y1="35.61" x2="12.04" y2="35.61"/><polyline class="a" points="12.89 34.81 12.79 34.73 12.67 34.68 12.48 34.68 12.35 34.73 12.26 34.81 12.26 34.91 12.31 35 12.35 35.03 12.43 35.08 12.7 35.17 12.79 35.22 12.84 35.26 12.89 35.35 12.89 35.49 12.79 35.57 12.67 35.61 12.48 35.61 12.35 35.57 12.26 35.49"/><polyline class="a" points="13.77 34.81 13.68 34.73 13.55 34.68 13.36 34.68 13.24 34.73 13.14 34.81 13.14 34.91 13.19 35 13.24 35.03 13.33 35.08 13.6 35.17 13.68 35.22 13.72 35.26 13.77 35.35 13.77 35.49 13.68 35.57 13.55 35.61 13.36 35.61 13.24 35.57 13.14 35.49"/><line class="a" x1="14.07" y1="34.68" x2="14.07" y2="35.61"/><polyline class="a" points="14.29 34.68 14.65 35.61 15 34.68"/><polyline class="a" points="15.1 35.61 15.46 34.68 15.81 35.61"/><line class="a" x1="15.22" y1="35.3" x2="15.68" y2="35.3"/><path class="a" d="M2.83,36.23l-.09.09a1,1,0,0,0,0,1.25l.09.09"/><line class="a" x1="3.13" y1="36.72" x2="3.13" y2="37.35"/><polyline class="a" points="3.13 36.9 3.27 36.76 3.37 36.73 3.49 36.73 3.59 36.76 3.62 36.9 3.62 37.35"/><polyline class="a" points="3.62 36.9 3.76 36.76 3.84 36.73 3.98 36.73 4.06 36.76 4.11 36.9 4.11 37.35"/><path class="a" d="M4.42,36.23l.1.09a1,1,0,0,1,0,1.25l-.1.09"/><polygon class="a" points="2.52 30.78 2.52 29.85 2.83 29.85 2.96 29.88 3.05 29.98 3.1 30.07 3.13 30.2 3.13 30.42 3.1 30.56 3.05 30.64 2.96 30.73 2.83 30.78 2.52 30.78"/><line class="a" x1="3.45" y1="29.85" x2="3.45" y2="30.78"/><path class="a" d="M4.38,30l-.09-.1-.13,0c-.26,0-.57.07-.32.35l.1,0,.26.09.1,0,0,0,0,.08v.14l-.09.09-.13,0H4l-.13,0-.09-.09"/><line class="a" x1="4.87" y1="29.85" x2="4.87" y2="30.78"/><line class="a" x1="4.55" y1="29.85" x2="5.18" y2="29.85"/><polygon class="a" points="5.45 30.68 5.4 30.73 5.45 30.78 5.48 30.73 5.45 30.68"/><polyline class="a" points="6.77 30.78 6.77 29.85 7.17 29.85 7.3 29.88 7.34 29.93 7.39 30.02 7.39 30.15 7.34 30.24 7.3 30.29 7.17 30.32 6.77 30.32"/><polyline class="a" points="7.56 30.78 7.92 29.85 8.27 30.78"/><line class="a" x1="7.7" y1="30.46" x2="8.14" y2="30.46"/><polyline class="a" points="8.49 30.78 8.49 29.85 8.9 29.85 9.03 29.88 9.07 29.93 9.12 30.02 9.12 30.1 9.07 30.2 9.03 30.24 8.9 30.29 8.49 30.29"/><line class="a" x1="8.81" y1="30.29" x2="9.12" y2="30.78"/><polyline class="a" points="9.39 30.78 10 29.85 9.39 29.85"/><line class="a" x1="9.39" y1="30.78" x2="10" y2="30.78"/><line class="a" x1="10.32" y1="29.85" x2="10.32" y2="30.78"/><polyline class="a" points="10.54 30.78 10.89 29.85 11.25 30.78"/><line class="a" x1="10.67" y1="30.46" x2="11.11" y2="30.46"/><polyline class="a" points="11.47 29.85 11.47 30.78 11.99 30.78"/><polyline class="a" points="12.21 30.78 12.21 29.85 12.79 29.85"/><line class="a" x1="12.21" y1="30.29" x2="12.57" y2="30.29"/><line class="a" x1="12.21" y1="30.78" x2="12.79" y2="30.78"/><path class="a" d="M2.83,31.39l-.09.1a1,1,0,0,0,0,1.24l.09.09"/><line class="a" x1="3.13" y1="31.88" x2="3.13" y2="32.5"/><polyline class="a" points="3.13 32.06 3.27 31.93 3.37 31.88 3.49 31.88 3.59 31.93 3.62 32.06 3.62 32.5"/><polyline class="a" points="3.62 32.06 3.76 31.93 3.84 31.88 3.98 31.88 4.06 31.93 4.11 32.06 4.11 32.5"/><path class="a" d="M4.42,31.39l.1.1a1,1,0,0,1,0,1.24l-.1.09"/><polyline class="a" points="2.52 27.82 2.52 26.89 2.91 26.89 3.05 26.93 3.1 26.97 3.13 27.07 3.13 27.2 3.1 27.29 3.05 27.33 2.91 27.38 2.52 27.38"/><line class="a" x1="3.45" y1="26.89" x2="3.45" y2="27.82"/><path class="a" d="M4.42,27.11l0-.09-.08-.08-.1,0H4l-.08,0-.1.08,0,.09,0,.14v.22c.07.28.23.45.54.32l.08-.1,0-.09"/><path class="a" d="M5.35,27.11l0-.09-.08-.08-.1,0H5l-.08,0-.1.08,0,.09,0,.14v.22c.07.28.23.45.54.32l.08-.1,0-.09"/><line class="a" x1="5.67" y1="26.89" x2="5.67" y2="27.82"/><line class="a" x1="6.28" y1="26.89" x2="6.28" y2="27.82"/><line class="a" x1="5.67" y1="27.33" x2="6.28" y2="27.33"/><polyline class="a" points="6.63 27.82 6.63 26.89 7.21 26.89"/><line class="a" x1="6.63" y1="27.33" x2="6.99" y2="27.33"/><line class="a" x1="6.63" y1="27.82" x2="7.21" y2="27.82"/><line class="a" x1="7.66" y1="26.89" x2="7.66" y2="27.82"/><line class="a" x1="7.34" y1="26.89" x2="7.97" y2="26.89"/><line class="a" x1="8.37" y1="26.89" x2="8.37" y2="27.82"/><line class="a" x1="8.05" y1="26.89" x2="8.68" y2="26.89"/><path class="a" d="M9.12,26.89l-.09,0L8.95,27a.54.54,0,0,0,.17.8H9.3l.08,0,.09-.1,0-.08,0-.14v-.22l0-.14,0-.08-.09-.09-.08,0Z"/><path class="a" d="M2.79,40.26l-.1,0-.09.09,0,.08,0,.14v.22l0,.14,0,.1.09.08.1,0H3l.09,0a.56.56,0,0,0,0-.84l-.09,0Z"/><line class="a" x1="2.91" y1="41.02" x2="3.18" y2="41.29"/><polyline class="a" points="3.54 40.26 3.54 40.93 3.59 41.07 3.67 41.15 3.81 41.19 3.89 41.19 4.03 41.15 4.11 41.07 4.16 40.93 4.16 40.26"/><path class="a" d="M4.74,40.26l-.09,0-.1.09c-.15.25-.13.69.18.8h.17l.09,0a.56.56,0,0,0,0-.84l-.09,0Z"/><line class="a" x1="5.67" y1="40.26" x2="5.67" y2="41.19"/><line class="a" x1="5.35" y1="40.26" x2="5.97" y2="40.26"/><polyline class="a" points="6.06 41.19 6.41 40.26 6.77 41.19"/><line class="a" x1="6.19" y1="40.88" x2="6.63" y2="40.88"/><line class="a" x1="8.1" y1="40.26" x2="8.1" y2="41.19"/><line class="a" x1="7.78" y1="40.26" x2="8.41" y2="40.26"/><polyline class="a" points="8.63 41.19 8.63 40.26 9.2 40.26"/><line class="a" x1="8.63" y1="40.71" x2="8.98" y2="40.71"/><line class="a" x1="8.63" y1="41.19" x2="9.2" y2="41.19"/><path class="a" d="M9.47,41.19v-.93h.4c.3.07.3.38,0,.45h-.4"/><line class="a" x1="9.78" y1="40.71" x2="10.1" y2="41.19"/><path class="a" d="M10.4,41.19v-.93h.4c.3.07.3.38,0,.45h-.4"/><line class="a" x1="10.71" y1="40.71" x2="11.03" y2="41.19"/><polyline class="a" points="11.33 41.19 11.33 40.26 11.91 40.26"/><line class="a" x1="11.33" y1="40.71" x2="11.69" y2="40.71"/><line class="a" x1="11.33" y1="41.19" x2="11.91" y2="41.19"/><polyline class="a" points="12.18 41.19 12.18 40.26 12.79 41.19 12.79 40.26"/><path class="a" d="M13.36,40.26l-.09,0-.08.09,0,.08,0,.14v.22l0,.14,0,.1.08.08.09,0h.18l.08,0a.56.56,0,0,0,0-.84l-.08,0Z"/><path class="a" d="M2.83,41.81l-.09.09a1,1,0,0,0,0,1.25l.09.09"/><line class="a" x1="3.13" y1="42.3" x2="3.13" y2="42.93"/><polyline class="a" points="3.13 42.48 3.27 42.34 3.37 42.3 3.49 42.3 3.59 42.34 3.62 42.48 3.62 42.93"/><polyline class="a" points="3.62 42.48 3.76 42.34 3.84 42.3 3.98 42.3 4.06 42.34 4.11 42.48 4.11 42.93"/><polyline class="a" points="5.84 42.44 5.8 42.34 5.67 42.3 5.53 42.3 5.4 42.34 5.35 42.44 5.4 42.52 5.48 42.57 5.7 42.61 5.8 42.66 5.84 42.74 5.84 42.79 5.8 42.88 5.67 42.93 5.53 42.93 5.4 42.88 5.35 42.79"/><polygon class="a" points="6.19 42.83 6.16 42.88 6.19 42.93 6.24 42.88 6.19 42.83"/><line class="a" x1="6.6" y1="42" x2="6.6" y2="42.93"/><polygon class="a" points="6.99 42.83 6.95 42.88 6.99 42.93 7.04 42.88 6.99 42.83"/><line class="a" x1="7.39" y1="42.3" x2="7.39" y2="42.93"/><polyline class="a" points="7.39 42.48 7.53 42.34 7.61 42.3 7.75 42.3 7.83 42.34 7.88 42.48 7.88 42.93"/><polyline class="a" points="7.88 42.48 8.02 42.34 8.1 42.3 8.24 42.3 8.32 42.34 8.37 42.48 8.37 42.93"/><rect class="a" x="8.73" y="42.85" width="0.07" height="0.07" transform="translate(-27.76 18.76) rotate(-45)"/><path class="a" d="M9.12,41.81l.09.09a1,1,0,0,1,0,1.25l-.09.09"/><polygon class="a" points="27.08 32 27.12 32.14 27.25 32.22 27.47 32.27 27.61 32.27 27.83 32.22 27.96 32.14 28 32 28 31.91 27.96 31.78 27.83 31.7 27.61 31.66 27.47 31.66 27.25 31.7 27.12 31.78 27.08 31.91 27.08 32"/><polygon class="a" points="27.91 31.3 27.96 31.34 28 31.3 27.96 31.25 27.91 31.3"/><polyline class="a" points="28 30.78 27.08 30.34 27.08 30.95"/><polygon class="a" points="28.61 32 28.65 32.14 28.78 32.22 29 32.27 29.14 32.27 29.36 32.22 29.49 32.14 29.53 32 29.53 31.91 29.49 31.78 29.36 31.7 29.14 31.66 29 31.66 28.78 31.7 28.65 31.78 28.61 31.91 28.61 32"/><polygon class="a" points="29.44 31.3 29.49 31.34 29.53 31.3 29.49 31.25 29.44 31.3"/><polyline class="a" points="29.53 30.78 28.61 30.34 28.61 30.95"/><line class="a" x1="26.79" y1="24.96" x2="26.79" y2="4"/><line class="a" x1="1.53" y1="24.96" x2="128.6" y2="24.96"/><line class="b" x1="24.19" y1="2.21" x2="25.17" y2="1.24"/><line class="b" x1="25.17" y1="2.21" x2="24.19" y2="1.24"/><line class="b" x1="30.18" y1="1.9" x2="31.16" y2="0.91"/><line class="b" x1="31.16" y1="1.9" x2="30.18" y2="0.91"/><line class="c" x1="29.36" y1="4.54" x2="30.34" y2="3.56"/><line class="c" x1="30.34" y1="4.54" x2="29.36" y2="3.56"/><line class="c" x1="24.61" y1="4.15" x2="25.59" y2="3.16"/><line class="c" x1="25.59" y1="4.15" x2="24.61" y2="3.16"/><line class="d" x1="28.29" y1="3.46" x2="28.29" y2="4.86"/><path class="d" d="M27.6,4.16H29L29,4l-.06-.16A.69.69,0,0,0,27.62,4l0,.18,0,.18a.69.69,0,0,0,1.27.16L29,4.34l0-.18"/></svg>