<svg xmlns="http://www.w3.org/2000/svg" viewBox="0 0 141.9 46.8"><defs><style>.a,.b,.c,.d{fill:none;stroke-linecap:round;stroke-linejoin:round;stroke-width:0.21px;}.a{stroke:#000;}.b{stroke:#00b800;}.c{stroke:#00bfff;}.d{stroke:blue;}</style></defs><title>cad0.2</title><polyline class="a" points="24.58 37.92 24.58 37.45 25.05 37.71 25.05 37.58 25.12 37.49 25.18 37.45 25.36 37.42 25.48 37.42 25.67 37.45 25.79 37.54 25.84 37.66 25.84 37.8 25.79 37.92 25.73 37.97 25.61 38.01"/><polygon class="a" points="25.73 37.08 25.79 37.11 25.84 37.08 25.79 37.03 25.73 37.08"/><polyline class="a" points="24.58 36.3 25.42 36.73 25.42 36.1"/><line class="a" x1="24.58" y1="36.3" x2="25.84" y2="36.3"/><polyline class="a" points="17.28 34.24 17.28 30.53 140.86 30.53"/><line class="a" x1="17.28" y1="34.24" x2="140.86" y2="34.24"/><line class="a" x1="17.28" y1="39.78" x2="140.86" y2="39.78"/><polyline class="a" points="17.28 45.34 140.86 45.34 140.86 25.9"/><line class="a" x1="48.84" y1="5.33" x2="48.84" y2="25.9"/><line class="a" x1="33.69" y1="4.38" x2="33.69" y2="4.96"/><line class="a" x1="33.69" y1="5.8" x2="33.69" y2="6.35"/><line class="a" x1="33.69" y1="7.18" x2="33.69" y2="7.74"/><line class="a" x1="33.69" y1="8.57" x2="33.69" y2="9.12"/><line class="a" x1="33.69" y1="9.96" x2="33.69" y2="10.51"/><line class="a" x1="33.69" y1="11.34" x2="33.69" y2="11.9"/><line class="a" x1="33.69" y1="12.73" x2="33.69" y2="13.29"/><line class="a" x1="33.69" y1="14.12" x2="33.69" y2="14.67"/><line class="a" x1="33.69" y1="15.5" x2="33.69" y2="16.06"/><line class="a" x1="33.69" y1="16.9" x2="33.69" y2="17.45"/><line class="a" x1="33.69" y1="18.28" x2="33.69" y2="18.84"/><line class="a" x1="33.69" y1="19.67" x2="33.69" y2="20.22"/><line class="a" x1="33.69" y1="21.06" x2="33.69" y2="21.61"/><line class="a" x1="33.69" y1="22.44" x2="33.69" y2="23"/><line class="a" x1="33.69" y1="23.83" x2="33.69" y2="24.38"/><line class="a" x1="33.69" y1="25.22" x2="33.69" y2="25.8"/><line class="a" x1="137.39" y1="6.75" x2="137.39" y2="7.53"/><line class="a" x1="137.39" y1="8.37" x2="137.39" y2="8.92"/><line class="a" x1="137.39" y1="9.76" x2="137.39" y2="10.31"/><line class="a" x1="137.39" y1="11.14" x2="137.39" y2="11.69"/><line class="a" x1="137.39" y1="12.53" x2="137.39" y2="13.09"/><line class="a" x1="137.39" y1="13.92" x2="137.39" y2="14.47"/><line class="a" x1="137.39" y1="15.3" x2="137.39" y2="15.86"/><line class="a" x1="137.39" y1="16.69" x2="137.39" y2="17.25"/><line class="a" x1="137.39" y1="18.08" x2="137.39" y2="18.63"/><line class="a" x1="137.39" y1="19.47" x2="137.39" y2="20.03"/><line class="a" x1="137.39" y1="20.86" x2="137.39" y2="21.41"/><line class="a" x1="137.39" y1="22.24" x2="137.39" y2="22.79"/><line class="a" x1="137.39" y1="23.63" x2="137.39" y2="24.19"/><line class="a" x1="137.39" y1="25.02" x2="137.39" y2="25.8"/><line class="a" x1="81.73" y1="6" x2="81.73" y2="25.9"/><line class="a" x1="74.26" y1="5.8" x2="74.26" y2="25.9"/><line class="a" x1="59.34" y1="5.66" x2="59.34" y2="25.9"/><polyline class="a" points="54.14 25.9 54.14 5.53 48.84 5.33"/><polyline class="a" points="54.14 5.53 59.34 5.66 65.92 5.71 74.26 5.8 81.73 6 89.99 6.08 98.41 6.29 106.29 6.33 114.24 6.42 121.67 6.52 129.27 6.65 137.39 6.75"/><polyline class="a" points="17.34 4.05 25.21 2.61 29.32 1.93"/><line class="a" x1="33.69" y1="4.38" x2="35.73" y2="4.38"/><line class="a" x1="17.35" y1="25.9" x2="17.35" y2="4.05"/><line class="a" x1="35.73" y1="25.9" x2="35.73" y2="4.38"/><line class="a" x1="33.69" y1="25.9" x2="33.69" y2="4.38"/><line class="a" x1="29.33" y1="25.9" x2="29.33" y2="1.93"/><line class="a" x1="25.21" y1="25.9" x2="25.21" y2="2.61"/><line class="a" x1="25.21" y1="30.53" x2="25.21" y2="34.24"/><line class="a" x1="29.33" y1="30.53" x2="29.33" y2="34.24"/><line class="a" x1="31.5" y1="30.53" x2="31.5" y2="34.24"/><line class="a" x1="33.69" y1="30.53" x2="33.69" y2="34.24"/><line class="a" x1="35.73" y1="30.53" x2="35.73" y2="34.24"/><line class="a" x1="37.6" y1="30.53" x2="37.6" y2="34.24"/><line class="a" x1="48.84" y1="30.53" x2="48.84" y2="34.24"/><line class="a" x1="54.14" y1="30.53" x2="54.14" y2="34.24"/><line class="a" x1="59.34" y1="30.53" x2="59.34" y2="34.24"/><line class="a" x1="74.26" y1="30.53" x2="74.26" y2="34.24"/><line class="a" x1="81.73" y1="30.53" x2="81.73" y2="34.24"/><line class="a" x1="89.99" y1="30.53" x2="89.99" y2="34.24"/><line class="a" x1="106.29" y1="30.53" x2="106.29" y2="34.24"/><line class="a" x1="121.67" y1="30.53" x2="121.67" y2="34.24"/><line class="a" x1="137.39" y1="30.53" x2="137.39" y2="34.24"/><polyline class="a" points="84.21 31.81 84.69 31.81 84.43 32.17 84.56 32.17 84.65 32.2 84.69 32.25 84.74 32.39 84.74 32.47 84.69 32.61 84.6 32.69 84.47 32.74 84.34 32.74 84.21 32.69 84.16 32.65 84.12 32.56"/><polygon class="a" points="85.09 32.65 85.04 32.69 85.09 32.74 85.13 32.69 85.09 32.65"/><path class="a" d="M86,31.81h-.44l0,.39,0,0c.77-.32.62,1,0,.48l0-.09"/><polyline class="a" points="86.5 32.74 86.94 31.81 86.33 31.81"/><path class="a" d="M28.73,37.48v.42l.55,0-.06,0c-.42-.75,1.27-.6.66,0l-.12,0"/><polygon class="a" points="29.88 37.05 29.94 37.1 30 37.05 29.94 37.01 29.88 37.05"/><polyline class="a" points="29.03 36.67 28.97 36.67 28.85 36.62 28.79 36.59 28.73 36.5 28.73 36.33 28.79 36.24 28.85 36.21 28.97 36.16 29.09 36.16 29.22 36.21 29.4 36.29 30 36.71 30 36.12"/><polyline class="a" points="31.11 37.9 30.99 37.94 30.93 38.07 30.93 38.15 30.99 38.29 31.17 38.36 31.47 38.41 31.77 38.41 32.02 38.36 32.14 38.29 32.2 38.15 32.2 38.12 32.14 37.98 32.02 37.9 31.83 37.86 31.77 37.86 31.59 37.9 31.47 37.98 31.42 38.12 31.42 38.15 31.47 38.29 31.59 38.36 31.77 38.41"/><polygon class="a" points="32.08 37.52 32.14 37.56 32.2 37.52 32.14 37.48 32.08 37.52"/><polyline class="a" points="31.17 37.05 31.11 36.96 30.93 36.84 32.2 36.84"/><polyline class="a" points="30.93 35.91 31.77 36.33 31.77 35.69"/><line class="a" x1="30.93" y1="35.91" x2="32.2" y2="35.91"/><polyline class="a" points="34.38 38.21 33.11 37.8 33.11 38.38"/><polygon class="a" points="34.26 37.45 34.32 37.49 34.38 37.45 34.32 37.42 34.26 37.45"/><polygon class="a" points="33.11 36.85 33.17 36.99 33.35 37.07 33.65 37.11 33.83 37.11 34.13 37.07 34.32 36.99 34.38 36.85 34.38 36.78 34.32 36.65 34.13 36.56 33.83 36.52 33.65 36.52 33.35 36.56 33.17 36.65 33.11 36.78 33.11 36.85"/><polyline class="a" points="33.52 35.72 33.71 35.75 33.83 35.84 33.89 35.97 33.89 36.01 33.83 36.14 33.71 36.23 33.52 36.27 33.46 36.27 33.29 36.23 33.17 36.14 33.11 36.01 33.11 35.97 33.17 35.84 33.29 35.75 33.52 35.72 33.83 35.72 34.13 35.75 34.32 35.84 34.38 35.97 34.38 36.06 34.32 36.18 34.2 36.23"/><polyline class="a" points="36.5 38.24 35.24 37.81 35.24 38.41"/><polygon class="a" points="36.39 37.48 36.45 37.52 36.5 37.48 36.45 37.43 36.39 37.48"/><polyline class="a" points="35.65 36.59 35.84 36.62 35.96 36.71 36.02 36.84 36.02 36.88 35.96 37.01 35.84 37.1 35.65 37.14 35.59 37.14 35.41 37.1 35.29 37.01 35.24 36.88 35.24 36.84 35.29 36.71 35.41 36.62 35.65 36.59 35.96 36.59 36.27 36.62 36.45 36.71 36.5 36.84 36.5 36.93 36.45 37.05 36.33 37.1"/><polyline class="a" points="36.5 36.12 35.24 35.69 35.24 36.29"/><path class="a" d="M37,38.2l.06.12.12,0h.11l.12,0,.06-.08.06-.17.06-.12.12-.09.12,0H38l.12,0,.06,0,.06.14v.17l-.06.12c-.92.42-.45-.71-1.15-.43L37,38Z"/><polygon class="a" points="38.12 37.48 38.19 37.52 38.25 37.48 38.19 37.43 38.12 37.48"/><polyline class="a" points="38.25 36.97 36.97 36.54 36.97 37.14"/><path class="a" d="M37,36.07l.06.14.12,0h.11l.12,0,.06-.09.06-.17.06-.12.12-.08.12,0H38l.12,0,.06,0,.06.13v.16l-.06.14c-.9.42-.46-.71-1.15-.43l-.06.13Z"/><polyline class="a" points="48.56 38.79 48.5 38.7 48.32 38.58 49.59 38.58"/><polyline class="a" points="48.32 37.98 48.32 37.52 48.81 37.77 48.81 37.65 48.87 37.56 48.93 37.52 49.11 37.48 49.24 37.48 49.41 37.52 49.53 37.6 49.59 37.72 49.59 37.86 49.53 37.98 49.47 38.03 49.35 38.07"/><polygon class="a" points="49.47 37.14 49.53 37.17 49.59 37.14 49.53 37.1 49.47 37.14"/><polyline class="a" points="48.5 36.24 48.38 36.29 48.32 36.41 48.32 36.5 48.38 36.62 48.56 36.71 48.87 36.76 49.17 36.76 49.41 36.71 49.53 36.62 49.59 36.5 49.59 36.46 49.53 36.33 49.41 36.24 49.24 36.21 49.17 36.21 48.99 36.24 48.87 36.33 48.81 36.46 48.81 36.5 48.87 36.62 48.99 36.71 49.17 36.76"/><polyline class="a" points="48.32 35.52 49.17 35.95 49.17 35.31"/><line class="a" x1="48.32" y1="35.52" x2="49.59" y2="35.52"/><polyline class="a" points="53.67 38.76 53.62 38.68 53.43 38.55 54.71 38.55"/><polyline class="a" points="53.43 37.54 53.43 37.97 53.97 38.01 53.91 37.97 53.85 37.83 53.85 37.71 53.91 37.58 54.03 37.49 54.22 37.45 54.34 37.45 54.52 37.49 54.64 37.58 54.71 37.71 54.71 37.83 54.64 37.97 54.58 38.01 54.46 38.04"/><polygon class="a" points="54.58 37.11 54.65 37.16 54.71 37.11 54.65 37.07 54.58 37.11"/><polyline class="a" points="53.85 36.23 54.03 36.27 54.16 36.35 54.22 36.48 54.22 36.52 54.16 36.65 54.03 36.73 53.85 36.78 53.79 36.78 53.62 36.73 53.49 36.65 53.43 36.52 53.43 36.48 53.49 36.35 53.62 36.27 53.85 36.23 54.16 36.23 54.46 36.27 54.64 36.35 54.71 36.48 54.71 36.56 54.64 36.7 54.52 36.73"/><path class="a" d="M53.43,35.84v-.46l.48.26v-.12c.21-.4,1.16-.07.67.38l-.12,0"/><polyline class="a" points="58.99 38.76 58.93 38.68 58.74 38.55 60.02 38.55"/><path class="a" d="M58.74,37.83l.06.14.12,0h.12l.11,0,.06-.09.06-.17.06-.14.12-.09.12,0h.18l.12,0,.06,0,.06.12v.17L60,38c-.94.39-.47-.74-1.15-.43l-.06.12Z"/><polygon class="a" points="59.9 37.11 59.96 37.16 60.02 37.11 59.96 37.07 59.9 37.11"/><polyline class="a" points="58.99 36.65 58.93 36.56 58.74 36.44 60.02 36.44"/><polygon class="a" points="58.74 35.72 58.8 35.84 58.93 35.89 59.05 35.89 59.16 35.84 59.22 35.75 59.28 35.59 59.34 35.46 59.47 35.37 59.59 35.34 59.77 35.34 59.89 35.37 59.95 35.42 60.02 35.55 60.02 35.72 59.95 35.84 59.89 35.89 59.77 35.92 59.59 35.92 59.47 35.89 59.34 35.8 59.28 35.67 59.22 35.51 59.16 35.42 59.05 35.37 58.93 35.37 58.8 35.42 58.74 35.55 58.74 35.72"/><polyline class="a" points="73.94 38.79 73.88 38.79 73.76 38.75 73.7 38.7 73.64 38.62 73.64 38.45 73.7 38.36 73.76 38.32 73.88 38.29 74 38.29 74.13 38.32 74.31 38.41 74.91 38.84 74.91 38.24"/><polyline class="a" points="73.64 37.56 74.48 37.98 74.48 37.34"/><line class="a" x1="73.64" y1="37.56" x2="74.91" y2="37.56"/><polygon class="a" points="74.79 37.05 74.85 37.1 74.91 37.05 74.85 37.01 74.79 37.05"/><polyline class="a" points="73.82 36.16 73.7 36.21 73.64 36.33 73.64 36.41 73.7 36.54 73.88 36.62 74.19 36.67 74.48 36.67 74.73 36.62 74.85 36.54 74.91 36.41 74.91 36.38 74.85 36.24 74.73 36.16 74.54 36.12 74.48 36.12 74.31 36.16 74.19 36.24 74.13 36.38 74.13 36.41 74.19 36.54 74.31 36.62 74.48 36.67"/><polyline class="a" points="73.64 35.78 73.64 35.31 74.13 35.57 74.13 35.44 74.19 35.35 74.25 35.31 74.42 35.28 74.54 35.28 74.73 35.31 74.85 35.4 74.91 35.52 74.91 35.66 74.85 35.78 74.79 35.83 74.67 35.86"/><polyline class="a" points="81.56 38.79 81.49 38.79 81.38 38.75 81.32 38.7 81.26 38.62 81.26 38.45 81.32 38.36 81.38 38.32 81.49 38.29 81.62 38.29 81.74 38.32 81.92 38.41 82.53 38.84 82.53 38.24"/><polyline class="a" points="82.53 37.81 81.26 37.39 81.26 37.98"/><polygon class="a" points="82.41 37.05 82.47 37.1 82.53 37.05 82.47 37.01 82.41 37.05"/><polygon class="a" points="81.26 36.5 81.32 36.62 81.43 36.67 81.56 36.67 81.68 36.62 81.74 36.54 81.8 36.38 81.86 36.24 81.98 36.16 82.11 36.12 82.29 36.12 82.41 36.16 82.47 36.21 82.53 36.33 82.53 36.5 82.47 36.62 82.41 36.67 82.29 36.71 82.11 36.71 81.98 36.67 81.86 36.59 81.8 36.46 81.74 36.29 81.68 36.21 81.56 36.16 81.43 36.16 81.32 36.21 81.26 36.33 81.26 36.5"/><polyline class="a" points="81.43 35.31 81.32 35.35 81.26 35.48 81.26 35.57 81.32 35.69 81.49 35.78 81.8 35.83 82.11 35.83 82.35 35.78 82.47 35.69 82.53 35.57 82.53 35.52 82.47 35.4 82.35 35.31 82.17 35.28 82.11 35.28 81.92 35.31 81.8 35.4 81.74 35.52 81.74 35.57 81.8 35.69 81.92 35.78 82.11 35.83"/><polyline class="a" points="89.48 38.75 89.48 38.29 89.97 38.53 89.97 38.41 90.02 38.32 90.08 38.29 90.27 38.24 90.39 38.24 90.57 38.29 90.7 38.36 90.76 38.49 90.76 38.62 90.7 38.75 90.64 38.79 90.51 38.84"/><polyline class="a" points="89.73 37.86 89.67 37.77 89.48 37.65 90.76 37.65"/><polygon class="a" points="90.64 37.05 90.7 37.1 90.76 37.05 90.7 37.01 90.64 37.05"/><polyline class="a" points="89.48 36.29 90.33 36.71 90.33 36.07"/><line class="a" x1="89.48" y1="36.29" x2="90.76" y2="36.29"/><polyline class="a" points="89.48 35.78 89.48 35.31 89.97 35.57 89.97 35.44 90.02 35.35 90.08 35.31 90.27 35.28 90.39 35.28 90.57 35.31 90.7 35.4 90.76 35.52 90.76 35.66 90.7 35.78 90.64 35.83 90.51 35.86"/><polyline class="a" points="105.71 38.75 105.71 38.29 106.19 38.53 106.19 38.41 106.25 38.32 106.31 38.29 106.49 38.24 106.62 38.24 106.8 38.29 106.92 38.36 106.98 38.49 106.98 38.62 106.92 38.75 106.86 38.79 106.74 38.84"/><polygon class="a" points="105.71 37.77 105.77 37.89 105.88 37.94 106 37.94 106.13 37.89 106.19 37.81 106.25 37.65 106.31 37.52 106.43 37.43 106.56 37.39 106.74 37.39 106.86 37.43 106.92 37.48 106.98 37.6 106.98 37.77 106.92 37.89 106.86 37.94 106.74 37.98 106.56 37.98 106.43 37.94 106.31 37.86 106.25 37.72 106.19 37.56 106.13 37.48 106 37.43 105.88 37.43 105.77 37.48 105.71 37.6 105.71 37.77"/><polygon class="a" points="106.86 37.05 106.92 37.1 106.98 37.05 106.92 37.01 106.86 37.05"/><polyline class="a" points="105.71 36.29 106.56 36.71 106.56 36.07"/><line class="a" x1="105.71" y1="36.29" x2="106.98" y2="36.29"/><polygon class="a" points="105.71 35.66 105.77 35.78 105.88 35.83 106 35.83 106.13 35.78 106.19 35.69 106.25 35.52 106.31 35.4 106.43 35.31 106.56 35.28 106.74 35.28 106.86 35.31 106.92 35.35 106.98 35.48 106.98 35.66 106.92 35.78 106.86 35.83 106.74 35.86 106.56 35.86 106.43 35.83 106.31 35.74 106.25 35.61 106.19 35.44 106.13 35.35 106 35.31 105.88 35.31 105.77 35.35 105.71 35.48 105.71 35.66"/><polyline class="a" points="120.9 38.41 121.74 38.84 121.74 38.2"/><line class="a" x1="120.9" y1="38.41" x2="122.17" y2="38.41"/><path class="a" d="M120.9,37.48v.42l.54,0-.06,0c-.42-.75,1.29-.61.67,0l-.12,0"/><polygon class="a" points="122.05 37.05 122.11 37.1 122.17 37.05 122.11 37.01 122.05 37.05"/><polyline class="a" points="121.14 36.59 121.08 36.5 120.9 36.38 122.17 36.38"/><polyline class="a" points="120.9 35.78 120.9 35.31 121.38 35.57 121.38 35.44 121.44 35.35 121.5 35.31 121.68 35.28 121.8 35.28 121.99 35.31 122.11 35.4 122.17 35.52 122.17 35.66 122.11 35.78 122.05 35.83 121.93 35.86"/><polyline class="a" points="136.61 38.32 136.61 38.75 137.15 38.79 137.09 38.75 137.03 38.62 137.03 38.49 137.09 38.36 137.21 38.29 137.39 38.24 137.52 38.24 137.7 38.29 137.82 38.36 137.88 38.49 137.88 38.62 137.82 38.75 137.76 38.79 137.64 38.84"/><polyline class="a" points="136.84 37.86 136.78 37.77 136.61 37.65 137.88 37.65"/><polygon class="a" points="137.76 37.05 137.82 37.1 137.88 37.05 137.82 37.01 137.76 37.05"/><polyline class="a" points="137.03 36.16 137.21 36.21 137.33 36.29 137.39 36.41 137.39 36.46 137.33 36.59 137.21 36.67 137.03 36.71 136.97 36.71 136.78 36.67 136.67 36.59 136.61 36.46 136.61 36.41 136.67 36.29 136.78 36.21 137.03 36.16 137.33 36.16 137.64 36.21 137.82 36.29 137.88 36.41 137.88 36.5 137.82 36.62 137.7 36.67"/><polyline class="a" points="136.61 35.78 136.61 35.31 137.09 35.57 137.09 35.44 137.15 35.35 137.21 35.31 137.39 35.28 137.52 35.28 137.7 35.31 137.82 35.4 137.88 35.52 137.88 35.66 137.82 35.78 137.76 35.83 137.64 35.86"/><polygon class="a" points="16.62 37.1 16.67 37.22 16.86 37.31 17.16 37.34 17.34 37.34 17.65 37.31 17.82 37.22 17.88 37.1 17.88 37.01 17.82 36.88 17.65 36.79 17.34 36.76 17.16 36.76 16.86 36.79 16.67 36.88 16.62 37.01 16.62 37.1"/><polyline class="a" points="16.95 44.72 16.89 44.64 16.71 44.52 17.98 44.52"/><polygon class="a" points="16.71 43.79 16.77 43.91 16.89 43.96 17.02 43.96 17.14 43.91 17.2 43.84 17.26 43.67 17.32 43.54 17.43 43.45 17.55 43.41 17.74 43.41 17.86 43.45 17.92 43.5 17.98 43.62 17.98 43.79 17.92 43.91 17.86 43.96 17.74 44 17.55 44 17.43 43.96 17.32 43.88 17.26 43.76 17.2 43.59 17.14 43.5 17.02 43.45 16.89 43.45 16.77 43.5 16.71 43.62 16.71 43.79"/><polyline class="a" points="17.14 42.61 17.32 42.66 17.43 42.73 17.49 42.86 17.49 42.9 17.43 43.03 17.32 43.12 17.14 43.16 17.08 43.16 16.89 43.12 16.77 43.03 16.71 42.9 16.71 42.86 16.77 42.73 16.89 42.66 17.14 42.61 17.43 42.61 17.74 42.66 17.92 42.73 17.98 42.86 17.98 42.95 17.92 43.07 17.8 43.12"/><polygon class="a" points="17.86 42.23 17.92 42.26 17.98 42.23 17.92 42.18 17.86 42.23"/><polyline class="a" points="16.71 41.47 17.55 41.88 17.55 41.25"/><line class="a" x1="16.71" y1="41.47" x2="17.98" y2="41.47"/><polyline class="a" points="16.71 40.53 16.71 40.95 17.26 40.99 17.2 40.95 17.14 40.83 17.14 40.7 17.2 40.58 17.32 40.49 17.49 40.44 17.61 40.44 17.8 40.49 17.92 40.58 17.98 40.7 17.98 40.83 17.92 40.95 17.86 40.99 17.74 41.04"/><polyline class="a" points="28.93 44.49 28.87 44.41 28.69 44.28 29.96 44.28"/><polyline class="a" points="29.12 43.22 29.29 43.26 29.41 43.34 29.47 43.48 29.47 43.51 29.41 43.65 29.29 43.73 29.12 43.77 29.06 43.77 28.87 43.73 28.75 43.65 28.69 43.51 28.69 43.48 28.75 43.34 28.87 43.26 29.12 43.22 29.41 43.22 29.72 43.26 29.9 43.34 29.96 43.48 29.96 43.56 29.9 43.68 29.78 43.73"/><polygon class="a" points="28.69 42.67 28.75 42.79 28.93 42.88 29.24 42.92 29.41 42.92 29.72 42.88 29.9 42.79 29.96 42.67 29.96 42.58 29.9 42.46 29.72 42.37 29.41 42.32 29.24 42.32 28.93 42.37 28.75 42.46 28.69 42.58 28.69 42.67"/><polygon class="a" points="29.84 41.99 29.9 42.03 29.96 41.99 29.9 41.95 29.84 41.99"/><polyline class="a" points="28.69 41.57 28.69 41.1 29.18 41.36 29.18 41.22 29.24 41.14 29.29 41.1 29.47 41.05 29.59 41.05 29.78 41.1 29.9 41.19 29.96 41.31 29.96 41.43 29.9 41.57 29.84 41.6 29.72 41.65"/><polyline class="a" points="29.96 40.64 28.69 40.21 28.69 40.81"/><polyline class="a" points="53.74 44.65 53.69 44.56 53.51 44.44 54.78 44.44"/><path class="a" d="M53.51,43.72l.06.14.12,0h.11l.12,0,.06-.09L54,43.6l.06-.14.12-.09.12,0h.18l.12,0,.06,0,.06.12v.17l-.06.14c-.94.39-.46-.74-1.15-.43l-.06.12Z"/><polygon class="a" points="53.51 42.88 53.57 43 53.69 43.05 53.8 43.05 53.92 43 53.98 42.91 54.05 42.74 54.11 42.62 54.23 42.53 54.35 42.5 54.53 42.5 54.66 42.53 54.72 42.58 54.78 42.7 54.78 42.88 54.72 43 54.66 43.05 54.53 43.08 54.35 43.08 54.23 43.05 54.11 42.96 54.05 42.83 53.98 42.67 53.92 42.58 53.8 42.53 53.69 42.53 53.57 42.58 53.51 42.7 53.51 42.88"/><polygon class="a" points="54.66 42.15 54.72 42.19 54.78 42.15 54.72 42.1 54.66 42.15"/><polyline class="a" points="54.78 41.64 53.51 41.22 53.51 41.81"/><polyline class="a" points="54.78 40.8 53.51 40.37 53.51 40.97"/><polyline class="a" points="81.33 44.49 81.27 44.41 81.09 44.28 82.36 44.28"/><polygon class="a" points="81.09 43.56 81.15 43.68 81.27 43.73 81.4 43.73 81.52 43.68 81.58 43.6 81.64 43.42 81.7 43.3 81.82 43.22 81.93 43.18 82.12 43.18 82.24 43.22 82.3 43.25 82.36 43.39 82.36 43.56 82.3 43.68 82.24 43.73 82.12 43.77 81.93 43.77 81.82 43.73 81.7 43.65 81.64 43.51 81.58 43.34 81.52 43.25 81.4 43.22 81.27 43.22 81.15 43.25 81.09 43.39 81.09 43.56"/><path class="a" d="M81.09,42.7l.06.14.12,0h.12l.12,0,.06-.09.06-.17.06-.12.12-.08.11,0h.18l.12,0,.06,0,.06.13v.16l-.06.14c-.88.42-.45-.72-1.15-.43l-.06.13Z"/><polygon class="a" points="82.24 41.99 82.3 42.03 82.36 41.99 82.3 41.95 82.24 41.99"/><polyline class="a" points="81.09 41.14 81.09 41.57 81.64 41.6 81.58 41.57 81.52 41.43 81.52 41.31 81.58 41.19 81.7 41.1 81.87 41.05 82 41.05 82.18 41.1 82.3 41.19 82.36 41.31 82.36 41.43 82.3 41.57 82.24 41.6 82.12 41.65"/><polyline class="a" points="81.27 40.24 81.15 40.29 81.09 40.41 81.09 40.5 81.15 40.64 81.33 40.72 81.64 40.76 81.93 40.76 82.18 40.72 82.3 40.64 82.36 40.5 82.36 40.46 82.3 40.33 82.18 40.24 82 40.21 81.93 40.21 81.76 40.24 81.64 40.33 81.58 40.46 81.58 40.5 81.64 40.64 81.76 40.72 81.93 40.76"/><polyline class="a" points="121.28 44.52 121.22 44.43 121.03 44.3 122.31 44.3"/><path class="a" d="M121,43.57l.06.14.12,0h.11l.12,0,.06-.09.06-.17.06-.12.12-.08.12,0h.18l.12,0,.06,0,.06.13v.16l-.06.14c-.9.42-.46-.71-1.15-.43l-.06.13Z"/><path class="a" d="M121,42.73l.06.14.12,0h.11l.12,0,.06-.09.06-.17.06-.14.12-.09.12,0h.18l.12,0,.06,0,.06.12v.17l-.06.14c-.94.39-.46-.74-1.15-.43l-.06.12Z"/><polygon class="a" points="122.18 42.01 122.24 42.05 122.31 42.01 122.24 41.97 122.18 42.01"/><polyline class="a" points="121.03 41.59 121.03 41.11 121.51 41.37 121.51 41.25 121.57 41.16 121.63 41.11 121.81 41.08 121.94 41.08 122.12 41.11 122.24 41.2 122.31 41.33 122.31 41.45 122.24 41.59 122.18 41.63 122.06 41.68"/><polyline class="a" points="121.03 40.4 121.88 40.82 121.88 40.18"/><line class="a" x1="121.03" y1="40.4" x2="122.31" y2="40.4"/><polyline class="a" points="25.04 44.72 24.98 44.64 24.81 44.52 26.07 44.52"/><polyline class="a" points="25.23 43.45 25.41 43.5 25.53 43.59 25.59 43.71 25.59 43.76 25.53 43.88 25.41 43.96 25.23 44 25.16 44 24.98 43.96 24.87 43.88 24.81 43.76 24.81 43.71 24.87 43.59 24.98 43.5 25.23 43.45 25.53 43.45 25.84 43.5 26.02 43.59 26.07 43.71 26.07 43.79 26.02 43.91 25.9 43.96"/><polygon class="a" points="24.81 42.9 24.87 43.03 25.04 43.12 25.35 43.16 25.53 43.16 25.84 43.12 26.02 43.03 26.07 42.9 26.07 42.81 26.02 42.69 25.84 42.61 25.53 42.57 25.35 42.57 25.04 42.61 24.87 42.69 24.81 42.81 24.81 42.9"/><polygon class="a" points="25.96 42.23 26.02 42.26 26.07 42.23 26.02 42.18 25.96 42.23"/><polygon class="a" points="24.81 41.63 24.87 41.76 25.04 41.85 25.35 41.88 25.53 41.88 25.84 41.85 26.02 41.76 26.07 41.63 26.07 41.54 26.02 41.42 25.84 41.33 25.53 41.3 25.35 41.3 25.04 41.33 24.87 41.42 24.81 41.54 24.81 41.63"/><polyline class="a" points="26.07 40.87 24.81 40.44 24.81 41.04"/><polyline class="a" points="48.44 44.28 48.38 44.2 48.21 44.08 49.48 44.08"/><polygon class="a" points="48.21 43.35 48.27 43.47 48.38 43.52 48.5 43.52 48.62 43.47 48.69 43.39 48.75 43.22 48.81 43.09 48.93 43.01 49.05 42.96 49.24 42.96 49.36 43.01 49.42 43.05 49.48 43.18 49.48 43.35 49.42 43.47 49.36 43.52 49.24 43.56 49.05 43.56 48.93 43.52 48.81 43.44 48.75 43.3 48.69 43.13 48.62 43.05 48.5 43.01 48.38 43.01 48.27 43.05 48.21 43.18 48.21 43.35"/><path class="a" d="M48.21,42.5l.06.14.11,0h.12l.12,0,.06-.09.06-.17.06-.12.12-.08.12,0h.18l.12,0,.06,0,.06.13v.16l-.06.14c-.9.42-.47-.72-1.15-.43l-.06.13Z"/><polygon class="a" points="49.36 41.77 49.42 41.82 49.48 41.77 49.42 41.74 49.36 41.77"/><polyline class="a" points="48.62 40.89 48.81 40.93 48.93 41.02 48.99 41.15 48.99 41.19 48.93 41.31 48.81 41.4 48.62 41.44 48.56 41.44 48.38 41.4 48.27 41.31 48.21 41.19 48.21 41.15 48.27 41.02 48.38 40.93 48.62 40.89 48.93 40.89 49.24 40.93 49.42 41.02 49.48 41.15 49.48 41.22 49.42 41.36 49.3 41.4"/><polyline class="a" points="58.94 44.72 58.88 44.64 58.71 44.52 59.98 44.52"/><polygon class="a" points="58.71 43.79 58.77 43.91 58.88 43.96 59 43.96 59.12 43.91 59.19 43.84 59.25 43.67 59.31 43.54 59.43 43.45 59.55 43.41 59.74 43.41 59.86 43.45 59.92 43.5 59.98 43.62 59.98 43.79 59.92 43.91 59.86 43.96 59.74 44 59.55 44 59.43 43.96 59.31 43.88 59.25 43.76 59.19 43.59 59.12 43.5 59 43.45 58.88 43.45 58.77 43.5 58.71 43.62 58.71 43.79"/><polygon class="a" points="58.71 42.95 58.77 43.07 58.88 43.12 59 43.12 59.12 43.07 59.19 42.99 59.25 42.81 59.31 42.69 59.43 42.61 59.55 42.57 59.74 42.57 59.86 42.61 59.92 42.66 59.98 42.78 59.98 42.95 59.92 43.07 59.86 43.12 59.74 43.16 59.55 43.16 59.43 43.12 59.31 43.03 59.25 42.9 59.19 42.73 59.12 42.66 59 42.61 58.88 42.61 58.77 42.66 58.71 42.78 58.71 42.95"/><polygon class="a" points="59.86 42.23 59.92 42.26 59.98 42.23 59.92 42.18 59.86 42.23"/><polyline class="a" points="59.98 41.71 58.71 41.3 58.71 41.88"/><polyline class="a" points="58.71 40.53 58.71 40.95 59.25 40.99 59.19 40.95 59.12 40.83 59.12 40.7 59.19 40.58 59.31 40.49 59.49 40.44 59.61 40.44 59.8 40.49 59.92 40.58 59.98 40.7 59.98 40.83 59.92 40.95 59.86 40.99 59.74 41.04"/><polyline class="a" points="73.86 44.71 73.8 44.63 73.61 44.49 74.89 44.49"/><path class="a" d="M73.61,43.77l.06.14.12,0h.12l.12,0,.06-.09.06-.17.06-.12.12-.08.12,0h.18l.11,0,.06,0,.06.12v.17l-.06.14c-.88.42-.45-.72-1.15-.43l-.06.12Z"/><polygon class="a" points="73.61 42.92 73.67 43.05 73.8 43.09 73.92 43.09 74.04 43.05 74.1 42.96 74.16 42.8 74.22 42.67 74.35 42.58 74.47 42.55 74.65 42.55 74.76 42.58 74.83 42.63 74.89 42.75 74.89 42.92 74.83 43.05 74.76 43.09 74.65 43.13 74.47 43.13 74.35 43.09 74.22 43.01 74.16 42.89 74.1 42.72 74.04 42.63 73.92 42.58 73.8 42.58 73.67 42.63 73.61 42.75 73.61 42.92"/><polygon class="a" points="74.76 42.2 74.82 42.25 74.89 42.2 74.82 42.16 74.76 42.2"/><polyline class="a" points="73.8 41.31 73.67 41.36 73.61 41.48 73.61 41.57 73.67 41.7 73.86 41.77 74.16 41.82 74.47 41.82 74.71 41.77 74.82 41.7 74.89 41.57 74.89 41.53 74.82 41.4 74.71 41.31 74.53 41.27 74.47 41.27 74.29 41.31 74.16 41.4 74.1 41.53 74.1 41.57 74.16 41.7 74.29 41.77 74.47 41.82"/><polyline class="a" points="74.04 40.46 74.22 40.51 74.35 40.59 74.41 40.72 74.41 40.76 74.35 40.89 74.22 40.98 74.04 41.02 73.98 41.02 73.8 40.98 73.67 40.89 73.61 40.76 73.61 40.72 73.67 40.59 73.8 40.51 74.04 40.46 74.35 40.46 74.65 40.51 74.82 40.59 74.89 40.72 74.89 40.81 74.82 40.93 74.71 40.98"/><polyline class="a" points="89.58 44.72 89.52 44.64 89.34 44.52 90.61 44.52"/><polygon class="a" points="89.34 43.79 89.4 43.91 89.52 43.96 89.64 43.96 89.77 43.91 89.83 43.84 89.89 43.67 89.95 43.54 90.07 43.45 90.19 43.41 90.38 43.41 90.5 43.45 90.55 43.5 90.61 43.62 90.61 43.79 90.55 43.91 90.5 43.96 90.38 44 90.19 44 90.07 43.96 89.95 43.88 89.89 43.76 89.83 43.59 89.77 43.5 89.64 43.45 89.52 43.45 89.4 43.5 89.34 43.62 89.34 43.79"/><polygon class="a" points="89.34 42.95 89.4 43.07 89.52 43.12 89.64 43.12 89.77 43.07 89.83 42.99 89.89 42.81 89.95 42.69 90.07 42.61 90.19 42.57 90.38 42.57 90.5 42.61 90.55 42.66 90.61 42.78 90.61 42.95 90.55 43.07 90.5 43.12 90.38 43.16 90.19 43.16 90.07 43.12 89.95 43.03 89.89 42.9 89.83 42.73 89.77 42.66 89.64 42.61 89.52 42.61 89.4 42.66 89.34 42.78 89.34 42.95"/><polygon class="a" points="90.5 42.23 90.55 42.26 90.61 42.23 90.55 42.18 90.5 42.23"/><path class="a" d="M89.34,41.38v.42l.55,0-.06,0c-.41-.73,1.24-.64.67,0l-.12,0"/><polyline class="a" points="90.61 40.87 89.34 40.44 89.34 41.04"/><polyline class="a" points="105.89 44.72 105.83 44.64 105.65 44.52 106.92 44.52"/><polygon class="a" points="105.65 43.79 105.71 43.91 105.83 43.96 105.96 43.96 106.07 43.91 106.13 43.84 106.19 43.67 106.25 43.54 106.37 43.45 106.49 43.41 106.68 43.41 106.8 43.45 106.86 43.5 106.92 43.62 106.92 43.79 106.86 43.91 106.8 43.96 106.68 44 106.49 44 106.37 43.96 106.25 43.88 106.19 43.76 106.13 43.59 106.07 43.5 105.96 43.45 105.83 43.45 105.71 43.5 105.65 43.62 105.65 43.79"/><polygon class="a" points="105.65 42.95 105.71 43.07 105.83 43.12 105.96 43.12 106.07 43.07 106.13 42.99 106.19 42.81 106.25 42.69 106.37 42.61 106.49 42.57 106.68 42.57 106.8 42.61 106.86 42.66 106.92 42.78 106.92 42.95 106.86 43.07 106.8 43.12 106.68 43.16 106.49 43.16 106.37 43.12 106.25 43.03 106.19 42.9 106.13 42.73 106.07 42.66 105.96 42.61 105.83 42.61 105.71 42.66 105.65 42.78 105.65 42.95"/><polygon class="a" points="106.8 42.23 106.86 42.26 106.92 42.23 106.86 42.18 106.8 42.23"/><polyline class="a" points="105.65 41.47 106.49 41.88 106.49 41.25"/><line class="a" x1="105.65" y1="41.47" x2="106.92" y2="41.47"/><polyline class="a" points="105.83 40.49 105.71 40.53 105.65 40.66 105.65 40.75 105.71 40.87 105.89 40.95 106.19 40.99 106.5 40.99 106.74 40.95 106.86 40.87 106.92 40.75 106.92 40.7 106.86 40.58 106.74 40.49 106.56 40.44 106.5 40.44 106.31 40.49 106.19 40.58 106.13 40.7 106.13 40.75 106.19 40.87 106.31 40.95 106.5 40.99"/><polyline class="a" points="136.99 44.75 136.93 44.66 136.75 44.54 138.02 44.54"/><polygon class="a" points="136.75 43.82 136.81 43.94 136.93 43.99 137.05 43.99 137.17 43.94 137.24 43.85 137.3 43.68 137.36 43.56 137.48 43.48 137.6 43.44 137.78 43.44 137.91 43.48 137.96 43.52 138.02 43.65 138.02 43.82 137.96 43.94 137.91 43.99 137.78 44.03 137.6 44.03 137.48 43.99 137.36 43.9 137.3 43.77 137.24 43.6 137.17 43.52 137.05 43.48 136.93 43.48 136.81 43.52 136.75 43.65 136.75 43.82"/><polygon class="a" points="136.75 42.96 136.81 43.1 136.93 43.13 137.05 43.13 137.17 43.1 137.24 43.01 137.3 42.84 137.36 42.72 137.48 42.63 137.6 42.58 137.78 42.58 137.91 42.63 137.96 42.67 138.02 42.8 138.02 42.96 137.96 43.1 137.91 43.13 137.78 43.18 137.6 43.18 137.48 43.13 137.36 43.05 137.3 42.92 137.24 42.75 137.17 42.67 137.05 42.63 136.93 42.63 136.81 42.67 136.75 42.8 136.75 42.96"/><polygon class="a" points="137.91 42.25 137.96 42.29 138.02 42.25 137.96 42.2 137.91 42.25"/><polyline class="a" points="137.05 41.86 136.99 41.86 136.87 41.82 136.81 41.77 136.75 41.7 136.75 41.53 136.81 41.44 136.87 41.4 136.99 41.36 137.11 41.36 137.24 41.4 137.42 41.48 138.02 41.91 138.02 41.31"/><polyline class="a" points="136.75 40.64 137.6 41.06 137.6 40.43"/><line class="a" x1="136.75" y1="40.64" x2="138.02" y2="40.64"/><polyline class="a" points="24.58 37.92 24.58 37.45 25.05 37.71 25.05 37.58 25.12 37.49 25.18 37.45 25.36 37.42 25.48 37.42 25.67 37.45 25.79 37.54 25.84 37.66 25.84 37.8 25.79 37.92 25.73 37.97 25.61 38.01"/><polygon class="a" points="25.73 37.08 25.79 37.11 25.84 37.08 25.79 37.03 25.73 37.08"/><polyline class="a" points="24.58 36.3 25.42 36.73 25.42 36.1"/><line class="a" x1="24.58" y1="36.3" x2="25.84" y2="36.3"/><polyline class="a" points="17.09 28.07 17.21 28.01 17.41 27.81 17.41 29.14"/><polyline class="a" points="17.28 34.24 17.28 30.53 140.86 30.53"/><line class="a" x1="17.28" y1="34.24" x2="140.86" y2="34.24"/><line class="a" x1="17.28" y1="39.78" x2="140.86" y2="39.78"/><line class="a" x1="17.28" y1="45.33" x2="140.86" y2="45.33"/><line class="a" x1="48.84" y1="5.33" x2="48.84" y2="25.9"/><line class="a" x1="33.69" y1="4.38" x2="33.69" y2="4.96"/><line class="a" x1="33.69" y1="5.8" x2="33.69" y2="6.35"/><line class="a" x1="33.69" y1="7.18" x2="33.69" y2="7.74"/><line class="a" x1="33.69" y1="8.57" x2="33.69" y2="9.12"/><line class="a" x1="33.69" y1="9.96" x2="33.69" y2="10.51"/><line class="a" x1="33.69" y1="11.34" x2="33.69" y2="11.9"/><line class="a" x1="33.69" y1="12.73" x2="33.69" y2="13.29"/><line class="a" x1="33.69" y1="14.12" x2="33.69" y2="14.67"/><line class="a" x1="33.69" y1="15.5" x2="33.69" y2="16.06"/><line class="a" x1="33.69" y1="16.9" x2="33.69" y2="17.45"/><line class="a" x1="33.69" y1="18.28" x2="33.69" y2="18.84"/><line class="a" x1="33.69" y1="19.67" x2="33.69" y2="20.22"/><line class="a" x1="33.69" y1="21.06" x2="33.69" y2="21.61"/><line class="a" x1="33.69" y1="22.44" x2="33.69" y2="23"/><line class="a" x1="33.69" y1="23.83" x2="33.69" y2="24.38"/><line class="a" x1="33.69" y1="25.22" x2="33.69" y2="25.8"/><line class="a" x1="137.39" y1="6.75" x2="137.39" y2="7.53"/><line class="a" x1="137.39" y1="8.37" x2="137.39" y2="8.92"/><line class="a" x1="137.39" y1="9.76" x2="137.39" y2="10.31"/><line class="a" x1="137.39" y1="11.14" x2="137.39" y2="11.69"/><line class="a" x1="137.39" y1="12.53" x2="137.39" y2="13.09"/><line class="a" x1="137.39" y1="13.92" x2="137.39" y2="14.47"/><line class="a" x1="137.39" y1="15.3" x2="137.39" y2="15.86"/><line class="a" x1="137.39" y1="16.69" x2="137.39" y2="17.25"/><line class="a" x1="137.39" y1="18.08" x2="137.39" y2="18.63"/><line class="a" x1="137.39" y1="19.47" x2="137.39" y2="20.03"/><line class="a" x1="137.39" y1="20.86" x2="137.39" y2="21.41"/><line class="a" x1="137.39" y1="22.24" x2="137.39" y2="22.79"/><line class="a" x1="137.39" y1="23.63" x2="137.39" y2="24.19"/><line class="a" x1="137.39" y1="25.02" x2="137.39" y2="25.8"/><line class="a" x1="137.39" y1="6.75" x2="137.39" y2="25.9"/><line class="a" x1="106.29" y1="6.33" x2="106.29" y2="25.9"/><line class="a" x1="89.99" y1="6.08" x2="89.99" y2="25.9"/><line class="a" x1="81.73" y1="6" x2="81.73" y2="25.9"/><line class="a" x1="74.26" y1="5.8" x2="74.26" y2="25.9"/><line class="a" x1="59.34" y1="5.66" x2="59.34" y2="25.9"/><polyline class="a" points="54.14 25.9 54.14 5.53 48.84 5.33"/><polyline class="a" points="54.14 5.53 59.34 5.66 65.92 5.71 74.26 5.8 81.73 6 89.99 6.08 98.41 6.29 106.29 6.33 114.24 6.42 121.67 6.52 129.27 6.65 137.39 6.75"/><polyline class="a" points="17.34 4.05 25.21 2.61 29.32 1.93 31.5 4.25 33.69 4.38 35.73 4.38 37.6 1.43"/><line class="a" x1="17.35" y1="25.9" x2="17.35" y2="4.05"/><line class="a" x1="35.73" y1="25.9" x2="35.73" y2="4.38"/><line class="a" x1="33.69" y1="25.9" x2="33.69" y2="4.38"/><line class="a" x1="29.33" y1="25.9" x2="29.33" y2="1.93"/><line class="a" x1="25.21" y1="25.9" x2="25.21" y2="2.61"/><polyline class="a" points="37.6 1.43 40.03 1.92 43.23 3.32 48.1 5.33 48.84 5.33"/><polyline class="a" points="24.82 28.13 24.82 28.07 24.89 27.95 24.96 27.88 25.08 27.81 25.34 27.81 25.46 27.88 25.52 27.95 25.59 28.07 25.59 28.2 25.52 28.32 25.4 28.51 24.76 29.14 25.65 29.14"/><polyline class="a" points="29.01 27.81 29.71 27.81 29.33 28.32 29.51 28.32 29.64 28.39 29.71 28.45 29.77 28.64 29.77 28.77 29.71 28.96 29.58 29.08 29.39 29.14 29.2 29.14 29.01 29.08 28.95 29.02 28.89 28.9"/><polyline class="a" points="31.66 27.81 31.03 28.7 31.97 28.7"/><line class="a" x1="31.66" y1="27.81" x2="31.66" y2="29.15"/><polyline class="a" points="34.01 27.81 33.38 27.81 33.31 28.39 33.38 28.32 33.57 28.26 33.76 28.26 33.95 28.32 34.07 28.45 34.13 28.64 34.13 28.77 34.07 28.96 33.95 29.08 33.76 29.14 33.57 29.14 33.38 29.08 33.31 29.02 33.25 28.9"/><polyline class="a" points="36.08 28.01 36.02 27.89 35.82 27.81 35.7 27.81 35.51 27.89 35.38 28.07 35.32 28.39 35.32 28.7 35.38 28.96 35.51 29.08 35.7 29.14 35.76 29.14 35.96 29.08 36.08 28.96 36.14 28.77 36.14 28.7 36.08 28.51 35.96 28.39 35.76 28.32 35.7 28.32 35.51 28.39 35.38 28.51 35.32 28.7"/><polyline class="a" points="37.41 29.14 38.05 27.81 37.16 27.81"/><polygon class="a" points="48.72 27.81 48.53 27.88 48.47 28.01 48.47 28.13 48.53 28.26 48.65 28.32 48.91 28.39 49.1 28.45 49.22 28.58 49.28 28.7 49.28 28.9 49.22 29.02 49.16 29.08 48.97 29.14 48.72 29.14 48.53 29.08 48.47 29.02 48.4 28.9 48.4 28.7 48.47 28.58 48.59 28.45 48.78 28.39 49.03 28.32 49.16 28.26 49.22 28.13 49.22 28.01 49.16 27.88 48.97 27.81 48.72 27.81"/><polyline class="a" points="54.55 28.26 54.49 28.45 54.36 28.58 54.17 28.64 54.11 28.64 53.91 28.58 53.79 28.45 53.73 28.26 53.73 28.2 53.79 28.01 53.91 27.89 54.11 27.81 54.17 27.81 54.36 27.89 54.49 28.01 54.55 28.26 54.55 28.58 54.49 28.9 54.36 29.08 54.17 29.14 54.05 29.14 53.85 29.08 53.79 28.96"/><polyline class="a" points="58.35 28.07 58.49 28.01 58.67 27.81 58.67 29.14"/><polygon class="a" points="59.82 27.81 59.63 27.88 59.5 28.07 59.44 28.39 59.44 28.58 59.5 28.9 59.63 29.08 59.82 29.14 59.94 29.14 60.14 29.08 60.26 28.9 60.32 28.58 60.32 28.39 60.26 28.07 60.14 27.88 59.94 27.81 59.82 27.81"/><polyline class="a" points="73.47 28.07 73.59 28.01 73.78 27.81 73.78 29.14"/><polyline class="a" points="74.74 28.07 74.86 28.01 75.06 27.81 75.06 29.14"/><polyline class="a" points="80.75 28.07 80.87 28.01 81.06 27.81 81.06 29.14"/><polyline class="a" points="81.89 28.13 81.89 28.07 81.95 27.95 82.01 27.88 82.14 27.81 82.4 27.81 82.52 27.88 82.58 27.95 82.64 28.07 82.64 28.2 82.58 28.32 82.46 28.51 81.82 29.14 82.7 29.14"/><polyline class="a" points="89 28.07 89.13 28.01 89.31 27.81 89.31 29.14"/><polyline class="a" points="90.21 27.81 90.91 27.81 90.53 28.32 90.71 28.32 90.84 28.39 90.91 28.45 90.97 28.64 90.97 28.77 90.91 28.96 90.78 29.08 90.59 29.14 90.39 29.14 90.21 29.08 90.15 29.02 90.08 28.9"/><polyline class="a" points="105.27 28.07 105.39 28.01 105.59 27.81 105.59 29.14"/><polyline class="a" points="106.98 27.81 106.35 28.7 107.3 28.7"/><line class="a" x1="106.98" y1="27.81" x2="106.98" y2="29.15"/><polyline class="a" points="120.68 28.07 120.81 28.01 121 27.81 121 29.14"/><polyline class="a" points="122.53 27.81 121.89 27.81 121.83 28.39 121.89 28.32 122.07 28.26 122.27 28.26 122.45 28.32 122.59 28.45 122.65 28.64 122.65 28.77 122.59 28.96 122.45 29.08 122.27 29.14 122.07 29.14 121.89 29.08 121.83 29.02 121.75 28.9"/><polyline class="a" points="136.4 28.07 136.54 28.01 136.72 27.81 136.72 29.14"/><polyline class="a" points="138.31 28.01 138.25 27.89 138.06 27.81 137.93 27.81 137.74 27.89 137.61 28.07 137.55 28.39 137.55 28.7 137.61 28.96 137.74 29.08 137.93 29.14 137.99 29.14 138.19 29.08 138.31 28.96 138.37 28.77 138.37 28.7 138.31 28.51 138.19 28.39 137.99 28.32 137.93 28.32 137.74 28.39 137.61 28.51 137.55 28.7"/><line class="a" x1="25.21" y1="30.53" x2="25.21" y2="34.24"/><line class="a" x1="29.33" y1="30.53" x2="29.33" y2="34.24"/><line class="a" x1="31.5" y1="30.53" x2="31.5" y2="34.24"/><line class="a" x1="33.69" y1="30.53" x2="33.69" y2="34.24"/><line class="a" x1="35.73" y1="30.53" x2="35.73" y2="34.24"/><line class="a" x1="37.6" y1="30.53" x2="37.6" y2="34.24"/><line class="a" x1="48.84" y1="30.53" x2="48.84" y2="34.24"/><line class="a" x1="54.14" y1="30.53" x2="54.14" y2="34.24"/><line class="a" x1="59.34" y1="30.53" x2="59.34" y2="34.24"/><line class="a" x1="74.26" y1="30.53" x2="74.26" y2="34.24"/><line class="a" x1="81.73" y1="30.53" x2="81.73" y2="34.24"/><line class="a" x1="89.99" y1="30.53" x2="89.99" y2="34.24"/><line class="a" x1="106.29" y1="30.53" x2="106.29" y2="34.24"/><line class="a" x1="121.67" y1="30.53" x2="121.67" y2="34.24"/><line class="a" x1="137.39" y1="30.53" x2="137.39" y2="34.24"/><polyline class="a" points="20.36 31.81 20.84 31.81 20.58 32.17 20.71 32.17 20.8 32.2 20.84 32.25 20.89 32.39 20.89 32.47 20.84 32.61 20.76 32.69 20.63 32.74 20.49 32.74 20.36 32.69 20.32 32.65 20.27 32.56"/><polygon class="a" points="21.24 32.65 21.2 32.69 21.24 32.74 21.29 32.69 21.24 32.65"/><polyline class="a" points="22.03 31.81 21.59 32.42 22.25 32.42"/><line class="a" x1="22.03" y1="31.81" x2="22.03" y2="32.74"/><polyline class="a" points="26.25 31.98 26.34 31.95 26.47 31.81 26.47 32.74"/><polygon class="a" points="27.09 32.65 27.05 32.69 27.09 32.74 27.14 32.69 27.09 32.65"/><path class="a" d="M27.66,31.81l-.14,0,0,.09V32l0,.09.09,0,.18,0,.13,0,.09.08,0,.09v.13l0,.09,0,0-.14,0h-.17l-.14,0c-.43-.65.76-.34.44-.83l-.14,0Z"/><polygon class="a" points="29.99 33.49 30.04 33.62 30.17 33.71 30.39 33.75 30.51 33.75 30.73 33.71 30.87 33.62 30.92 33.49 30.92 33.4 30.87 33.27 30.73 33.18 30.51 33.13 30.39 33.13 30.17 33.18 30.04 33.27 29.99 33.4 29.99 33.49"/><polygon class="a" points="30.83 32.78 30.87 32.83 30.92 32.78 30.87 32.74 30.83 32.78"/><polyline class="a" points="30.29 31.86 30.43 31.9 30.51 31.98 30.56 32.12 30.56 32.17 30.51 32.3 30.43 32.39 30.29 32.42 30.26 32.42 30.12 32.39 30.04 32.3 29.99 32.17 29.99 32.12 30.04 31.98 30.12 31.9 30.29 31.86 30.51 31.86 30.73 31.9 30.87 31.98 30.92 32.12 30.92 32.2 30.87 32.34 30.78 32.39"/><polyline class="a" points="29.99 31.1 30.61 31.54 30.61 30.88"/><line class="a" x1="29.99" y1="31.1" x2="30.92" y2="31.1"/><polyline class="a" points="42.3 31.81 41.86 32.42 42.52 32.42"/><line class="a" x1="42.3" y1="31.81" x2="42.3" y2="32.74"/><polygon class="a" points="42.82 32.65 42.79 32.69 42.82 32.74 42.87 32.69 42.82 32.65"/><path class="a" d="M43.4,31.81l-.14,0,0,.09V32l0,.09.1,0,.17,0,.13,0,.09.08,0,.09v.13l0,.09,0,0-.12,0H43.4l-.14,0c-.43-.65.76-.34.44-.83l-.12,0Z"/><polyline class="a" points="44.63 31.95 44.59 31.86 44.46 31.81 44.37 31.81 44.24 31.86 44.15 31.98 44.11 32.2 44.11 32.42 44.15 32.61 44.24 32.69 44.37 32.74 44.41 32.74 44.55 32.69 44.63 32.61 44.68 32.47 44.68 32.42 44.63 32.3 44.55 32.2 44.41 32.17 44.37 32.17 44.24 32.2 44.15 32.3 44.11 32.42"/><polyline class="a" points="50.04 32.03 50.04 31.98 50.08 31.9 50.13 31.86 50.22 31.81 50.4 31.81 50.48 31.86 50.52 31.9 50.57 31.98 50.57 32.08 50.52 32.17 50.44 32.3 49.99 32.74 50.62 32.74"/><polygon class="a" points="50.96 32.65 50.92 32.69 50.96 32.74 51.01 32.69 50.96 32.65"/><polyline class="a" points="51.37 32.03 51.37 31.98 51.4 31.9 51.45 31.86 51.54 31.81 51.72 31.81 51.81 31.86 51.84 31.9 51.89 31.98 51.89 32.08 51.84 32.17 51.76 32.3 51.32 32.74 51.94 32.74"/><polyline class="a" points="52.77 32.12 52.72 32.25 52.64 32.34 52.5 32.39 52.47 32.39 52.33 32.34 52.25 32.25 52.2 32.12 52.2 32.08 52.25 31.95 52.33 31.86 52.47 31.81 52.5 31.81 52.64 31.86 52.72 31.95 52.77 32.12 52.77 32.34 52.72 32.56 52.64 32.69 52.5 32.74 52.42 32.74 52.28 32.69 52.25 32.61"/><polyline class="a" points="55.22 32.03 55.22 31.98 55.26 31.9 55.31 31.86 55.39 31.81 55.58 31.81 55.66 31.86 55.7 31.9 55.75 31.98 55.75 32.08 55.7 32.17 55.61 32.3 55.17 32.74 55.8 32.74"/><polygon class="a" points="56.14 32.65 56.1 32.69 56.14 32.74 56.19 32.69 56.14 32.65"/><polyline class="a" points="56.54 32.03 56.54 31.98 56.58 31.9 56.63 31.86 56.71 31.81 56.9 31.81 56.98 31.86 57.02 31.9 57.07 31.98 57.07 32.08 57.02 32.17 56.93 32.3 56.49 32.74 57.12 32.74"/><polyline class="a" points="57.9 31.81 57.46 31.81 57.42 32.2 57.46 32.17 57.59 32.12 57.73 32.12 57.86 32.17 57.95 32.25 58 32.39 58 32.47 57.95 32.61 57.86 32.69 57.73 32.74 57.59 32.74 57.46 32.69 57.42 32.65 57.37 32.56"/><polyline class="a" points="65.46 31.95 65.43 31.86 65.29 31.81 65.21 31.81 65.07 31.86 64.99 31.98 64.94 32.2 64.94 32.42 64.99 32.61 65.07 32.69 65.21 32.74 65.24 32.74 65.38 32.69 65.46 32.61 65.51 32.47 65.51 32.42 65.46 32.3 65.38 32.2 65.24 32.17 65.21 32.17 65.07 32.2 64.99 32.3 64.94 32.42"/><polygon class="a" points="65.87 32.65 65.82 32.69 65.87 32.74 65.9 32.69 65.87 32.65"/><polyline class="a" points="66.65 31.81 66.21 32.42 66.87 32.42"/><line class="a" x1="66.65" y1="31.81" x2="66.65" y2="32.74"/><path class="a" d="M67.63,31.81h-.44l0,.39,0,0c.78-.32.62,1,0,.48l0-.09"/><polyline class="a" points="76.59 31.81 77.08 31.81 76.81 32.17 76.94 32.17 77.03 32.2 77.08 32.25 77.12 32.39 77.12 32.47 77.08 32.61 76.99 32.69 76.86 32.74 76.72 32.74 76.59 32.69 76.55 32.65 76.5 32.56"/><polygon class="a" points="77.47 32.65 77.43 32.69 77.47 32.74 77.52 32.69 77.47 32.65"/><polyline class="a" points="77.87 32.03 77.87 31.98 77.91 31.9 77.96 31.86 78.04 31.81 78.23 31.81 78.31 31.86 78.35 31.9 78.4 31.98 78.4 32.08 78.35 32.17 78.26 32.3 77.82 32.74 78.45 32.74"/><polyline class="a" points="78.79 31.81 79.28 31.81 79.01 32.17 79.14 32.17 79.23 32.2 79.28 32.25 79.33 32.39 79.33 32.47 79.28 32.61 79.19 32.69 79.06 32.74 78.92 32.74 78.79 32.69 78.75 32.65 78.7 32.56"/><polyline class="a" points="84.21 31.81 84.69 31.81 84.43 32.17 84.56 32.17 84.65 32.2 84.69 32.25 84.74 32.39 84.74 32.47 84.69 32.61 84.6 32.69 84.47 32.74 84.34 32.74 84.21 32.69 84.16 32.65 84.12 32.56"/><polygon class="a" points="85.09 32.65 85.04 32.69 85.09 32.74 85.13 32.69 85.09 32.65"/><path class="a" d="M86,31.81h-.44l0,.39,0,0c.77-.32.62,1,0,.48l0-.09"/><polyline class="a" points="86.5 32.74 86.94 31.81 86.33 31.81"/><polyline class="a" points="96.79 32.74 97.23 31.81 96.62 31.81"/><polygon class="a" points="97.59 32.65 97.54 32.69 97.59 32.74 97.62 32.69 97.59 32.65"/><polygon class="a" points="98.2 31.81 98.06 31.86 97.98 31.98 97.94 32.2 97.94 32.34 97.98 32.56 98.06 32.69 98.2 32.74 98.28 32.74 98.42 32.69 98.5 32.56 98.55 32.34 98.55 32.2 98.5 31.98 98.42 31.86 98.28 31.81 98.2 31.81"/><path class="a" d="M99.35,31.81h-.44l0,.39,0,0c.77-.32.62,1,0,.48l0-.09"/><polyline class="a" points="113.51 31.95 113.46 31.86 113.32 31.81 113.24 31.81 113.1 31.86 113.02 31.98 112.98 32.2 112.98 32.42 113.02 32.61 113.1 32.69 113.24 32.74 113.29 32.74 113.42 32.69 113.51 32.61 113.54 32.47 113.54 32.42 113.51 32.3 113.42 32.2 113.29 32.17 113.24 32.17 113.1 32.2 113.02 32.3 112.98 32.42"/><polygon class="a" points="113.9 32.65 113.86 32.69 113.9 32.74 113.95 32.69 113.9 32.65"/><polyline class="a" points="114.83 31.95 114.78 31.86 114.64 31.81 114.56 31.81 114.42 31.86 114.34 31.98 114.3 32.2 114.3 32.42 114.34 32.61 114.42 32.69 114.56 32.74 114.61 32.74 114.74 32.69 114.83 32.61 114.86 32.47 114.86 32.42 114.83 32.3 114.74 32.2 114.61 32.17 114.56 32.17 114.42 32.2 114.34 32.3 114.3 32.42"/><polyline class="a" points="115.66 31.81 115.22 31.81 115.18 32.2 115.22 32.17 115.35 32.12 115.49 32.12 115.62 32.17 115.71 32.25 115.75 32.39 115.75 32.47 115.71 32.61 115.62 32.69 115.49 32.74 115.35 32.74 115.22 32.69 115.18 32.65 115.13 32.56"/><polyline class="a" points="129.67 31.95 129.63 31.86 129.5 31.81 129.41 31.81 129.28 31.86 129.19 31.98 129.15 32.2 129.15 32.42 129.19 32.61 129.28 32.69 129.41 32.74 129.45 32.74 129.59 32.69 129.67 32.61 129.72 32.47 129.72 32.42 129.67 32.3 129.59 32.2 129.45 32.17 129.41 32.17 129.28 32.2 129.19 32.3 129.15 32.42"/><polygon class="a" points="130.08 32.65 130.03 32.69 130.08 32.74 130.11 32.69 130.08 32.65"/><polygon class="a" points="130.65 31.81 130.52 31.86 130.47 31.95 130.47 32.03 130.52 32.12 130.6 32.17 130.77 32.2 130.91 32.25 130.99 32.34 131.04 32.42 131.04 32.56 130.99 32.65 130.96 32.69 130.82 32.74 130.65 32.74 130.52 32.69 130.47 32.65 130.43 32.56 130.43 32.42 130.47 32.34 130.55 32.25 130.69 32.2 130.87 32.17 130.96 32.12 130.99 32.03 130.99 31.95 130.96 31.86 130.82 31.81 130.65 31.81"/><path class="a" d="M28.73,37.48v.42l.55,0-.06,0c-.42-.75,1.27-.6.66,0l-.12,0"/><polygon class="a" points="29.88 37.05 29.94 37.1 30 37.05 29.94 37.01 29.88 37.05"/><polyline class="a" points="29.03 36.67 28.97 36.67 28.85 36.62 28.79 36.59 28.73 36.5 28.73 36.33 28.79 36.24 28.85 36.21 28.97 36.16 29.09 36.16 29.22 36.21 29.4 36.29 30 36.71 30 36.12"/><polyline class="a" points="31.11 37.9 30.99 37.94 30.93 38.07 30.93 38.15 30.99 38.29 31.17 38.36 31.47 38.41 31.77 38.41 32.02 38.36 32.14 38.29 32.2 38.15 32.2 38.12 32.14 37.98 32.02 37.9 31.83 37.86 31.77 37.86 31.59 37.9 31.47 37.98 31.42 38.12 31.42 38.15 31.47 38.29 31.59 38.36 31.77 38.41"/><polygon class="a" points="32.08 37.52 32.14 37.56 32.2 37.52 32.14 37.48 32.08 37.52"/><polyline class="a" points="31.17 37.05 31.11 36.96 30.93 36.84 32.2 36.84"/><polyline class="a" points="30.93 35.91 31.77 36.33 31.77 35.69"/><line class="a" x1="30.93" y1="35.91" x2="32.2" y2="35.91"/><polyline class="a" points="34.38 38.21 33.11 37.8 33.11 38.38"/><polygon class="a" points="34.26 37.45 34.32 37.49 34.38 37.45 34.32 37.42 34.26 37.45"/><polygon class="a" points="33.11 36.85 33.17 36.99 33.35 37.07 33.65 37.11 33.83 37.11 34.13 37.07 34.32 36.99 34.38 36.85 34.38 36.78 34.32 36.65 34.13 36.56 33.83 36.52 33.65 36.52 33.35 36.56 33.17 36.65 33.11 36.78 33.11 36.85"/><polyline class="a" points="33.52 35.72 33.71 35.75 33.83 35.84 33.89 35.97 33.89 36.01 33.83 36.14 33.71 36.23 33.52 36.27 33.46 36.27 33.29 36.23 33.17 36.14 33.11 36.01 33.11 35.97 33.17 35.84 33.29 35.75 33.52 35.72 33.83 35.72 34.13 35.75 34.32 35.84 34.38 35.97 34.38 36.06 34.32 36.18 34.2 36.23"/><polyline class="a" points="36.5 38.24 35.24 37.81 35.24 38.41"/><polygon class="a" points="36.39 37.48 36.45 37.52 36.5 37.48 36.45 37.43 36.39 37.48"/><polyline class="a" points="35.65 36.59 35.84 36.62 35.96 36.71 36.02 36.84 36.02 36.88 35.96 37.01 35.84 37.1 35.65 37.14 35.59 37.14 35.41 37.1 35.29 37.01 35.24 36.88 35.24 36.84 35.29 36.71 35.41 36.62 35.65 36.59 35.96 36.59 36.27 36.62 36.45 36.71 36.5 36.84 36.5 36.93 36.45 37.05 36.33 37.1"/><polyline class="a" points="36.5 36.12 35.24 35.69 35.24 36.29"/><path class="a" d="M37,38.2l.06.12.12,0h.11l.12,0,.06-.08.06-.17.06-.12.12-.09.12,0H38l.12,0,.06,0,.06.14v.17l-.06.12c-.92.42-.45-.71-1.15-.43L37,38Z"/><polygon class="a" points="38.12 37.48 38.19 37.52 38.25 37.48 38.19 37.43 38.12 37.48"/><polyline class="a" points="38.25 36.97 36.97 36.54 36.97 37.14"/><path class="a" d="M37,36.07l.06.14.12,0h.11l.12,0,.06-.09.06-.17.06-.12.12-.08.12,0H38l.12,0,.06,0,.06.13v.16l-.06.14c-.9.42-.46-.71-1.15-.43l-.06.13Z"/><polyline class="a" points="48.56 38.79 48.5 38.7 48.32 38.58 49.59 38.58"/><polyline class="a" points="48.32 37.98 48.32 37.52 48.81 37.77 48.81 37.65 48.87 37.56 48.93 37.52 49.11 37.48 49.24 37.48 49.41 37.52 49.53 37.6 49.59 37.72 49.59 37.86 49.53 37.98 49.47 38.03 49.35 38.07"/><polygon class="a" points="49.47 37.14 49.53 37.17 49.59 37.14 49.53 37.1 49.47 37.14"/><polyline class="a" points="48.5 36.24 48.38 36.29 48.32 36.41 48.32 36.5 48.38 36.62 48.56 36.71 48.87 36.76 49.17 36.76 49.41 36.71 49.53 36.62 49.59 36.5 49.59 36.46 49.53 36.33 49.41 36.24 49.24 36.21 49.17 36.21 48.99 36.24 48.87 36.33 48.81 36.46 48.81 36.5 48.87 36.62 48.99 36.71 49.17 36.76"/><polyline class="a" points="48.32 35.52 49.17 35.95 49.17 35.31"/><line class="a" x1="48.32" y1="35.52" x2="49.59" y2="35.52"/><polyline class="a" points="53.67 38.76 53.62 38.68 53.43 38.55 54.71 38.55"/><polyline class="a" points="53.43 37.54 53.43 37.97 53.97 38.01 53.91 37.97 53.85 37.83 53.85 37.71 53.91 37.58 54.03 37.49 54.22 37.45 54.34 37.45 54.52 37.49 54.64 37.58 54.71 37.71 54.71 37.83 54.64 37.97 54.58 38.01 54.46 38.04"/><polygon class="a" points="54.58 37.11 54.65 37.16 54.71 37.11 54.65 37.07 54.58 37.11"/><polyline class="a" points="53.85 36.23 54.03 36.27 54.16 36.35 54.22 36.48 54.22 36.52 54.16 36.65 54.03 36.73 53.85 36.78 53.79 36.78 53.62 36.73 53.49 36.65 53.43 36.52 53.43 36.48 53.49 36.35 53.62 36.27 53.85 36.23 54.16 36.23 54.46 36.27 54.64 36.35 54.71 36.48 54.71 36.56 54.64 36.7 54.52 36.73"/><path class="a" d="M53.43,35.84v-.46l.48.26v-.12c.21-.4,1.16-.07.67.38l-.12,0"/><polyline class="a" points="58.99 38.76 58.93 38.68 58.74 38.55 60.02 38.55"/><path class="a" d="M58.74,37.83l.06.14.12,0h.12l.11,0,.06-.09.06-.17.06-.14.12-.09.12,0h.18l.12,0,.06,0,.06.12v.17L60,38c-.94.39-.47-.74-1.15-.43l-.06.12Z"/><polygon class="a" points="59.9 37.11 59.96 37.16 60.02 37.11 59.96 37.07 59.9 37.11"/><polyline class="a" points="58.99 36.65 58.93 36.56 58.74 36.44 60.02 36.44"/><polygon class="a" points="58.74 35.72 58.8 35.84 58.93 35.89 59.05 35.89 59.16 35.84 59.22 35.75 59.28 35.59 59.34 35.46 59.47 35.37 59.59 35.34 59.77 35.34 59.89 35.37 59.95 35.42 60.02 35.55 60.02 35.72 59.95 35.84 59.89 35.89 59.77 35.92 59.59 35.92 59.47 35.89 59.34 35.8 59.28 35.67 59.22 35.51 59.16 35.42 59.05 35.37 58.93 35.37 58.8 35.42 58.74 35.55 58.74 35.72"/><polyline class="a" points="73.94 38.79 73.88 38.79 73.76 38.75 73.7 38.7 73.64 38.62 73.64 38.45 73.7 38.36 73.76 38.32 73.88 38.29 74 38.29 74.13 38.32 74.31 38.41 74.91 38.84 74.91 38.24"/><polyline class="a" points="73.64 37.56 74.48 37.98 74.48 37.34"/><line class="a" x1="73.64" y1="37.56" x2="74.91" y2="37.56"/><polygon class="a" points="74.79 37.05 74.85 37.1 74.91 37.05 74.85 37.01 74.79 37.05"/><polyline class="a" points="73.82 36.16 73.7 36.21 73.64 36.33 73.64 36.41 73.7 36.54 73.88 36.62 74.19 36.67 74.48 36.67 74.73 36.62 74.85 36.54 74.91 36.41 74.91 36.38 74.85 36.24 74.73 36.16 74.54 36.12 74.48 36.12 74.31 36.16 74.19 36.24 74.13 36.38 74.13 36.41 74.19 36.54 74.31 36.62 74.48 36.67"/><polyline class="a" points="73.64 35.78 73.64 35.31 74.13 35.57 74.13 35.44 74.19 35.35 74.25 35.31 74.42 35.28 74.54 35.28 74.73 35.31 74.85 35.4 74.91 35.52 74.91 35.66 74.85 35.78 74.79 35.83 74.67 35.86"/><polyline class="a" points="81.56 38.79 81.49 38.79 81.38 38.75 81.32 38.7 81.26 38.62 81.26 38.45 81.32 38.36 81.38 38.32 81.49 38.29 81.62 38.29 81.74 38.32 81.92 38.41 82.53 38.84 82.53 38.24"/><polyline class="a" points="82.53 37.81 81.26 37.39 81.26 37.98"/><polygon class="a" points="82.41 37.05 82.47 37.1 82.53 37.05 82.47 37.01 82.41 37.05"/><polygon class="a" points="81.26 36.5 81.32 36.62 81.43 36.67 81.56 36.67 81.68 36.62 81.74 36.54 81.8 36.38 81.86 36.24 81.98 36.16 82.11 36.12 82.29 36.12 82.41 36.16 82.47 36.21 82.53 36.33 82.53 36.5 82.47 36.62 82.41 36.67 82.29 36.71 82.11 36.71 81.98 36.67 81.86 36.59 81.8 36.46 81.74 36.29 81.68 36.21 81.56 36.16 81.43 36.16 81.32 36.21 81.26 36.33 81.26 36.5"/><polyline class="a" points="81.43 35.31 81.32 35.35 81.26 35.48 81.26 35.57 81.32 35.69 81.49 35.78 81.8 35.83 82.11 35.83 82.35 35.78 82.47 35.69 82.53 35.57 82.53 35.52 82.47 35.4 82.35 35.31 82.17 35.28 82.11 35.28 81.92 35.31 81.8 35.4 81.74 35.52 81.74 35.57 81.8 35.69 81.92 35.78 82.11 35.83"/><polyline class="a" points="89.48 38.75 89.48 38.29 89.97 38.53 89.97 38.41 90.02 38.32 90.08 38.29 90.27 38.24 90.39 38.24 90.57 38.29 90.7 38.36 90.76 38.49 90.76 38.62 90.7 38.75 90.64 38.79 90.51 38.84"/><polyline class="a" points="89.73 37.86 89.67 37.77 89.48 37.65 90.76 37.65"/><polygon class="a" points="90.64 37.05 90.7 37.1 90.76 37.05 90.7 37.01 90.64 37.05"/><polyline class="a" points="89.48 36.29 90.33 36.71 90.33 36.07"/><line class="a" x1="89.48" y1="36.29" x2="90.76" y2="36.29"/><polyline class="a" points="89.48 35.78 89.48 35.31 89.97 35.57 89.97 35.44 90.02 35.35 90.08 35.31 90.27 35.28 90.39 35.28 90.57 35.31 90.7 35.4 90.76 35.52 90.76 35.66 90.7 35.78 90.64 35.83 90.51 35.86"/><polyline class="a" points="105.71 38.75 105.71 38.29 106.19 38.53 106.19 38.41 106.25 38.32 106.31 38.29 106.49 38.24 106.62 38.24 106.8 38.29 106.92 38.36 106.98 38.49 106.98 38.62 106.92 38.75 106.86 38.79 106.74 38.84"/><polygon class="a" points="105.71 37.77 105.77 37.89 105.88 37.94 106 37.94 106.13 37.89 106.19 37.81 106.25 37.65 106.31 37.52 106.43 37.43 106.56 37.39 106.74 37.39 106.86 37.43 106.92 37.48 106.98 37.6 106.98 37.77 106.92 37.89 106.86 37.94 106.74 37.98 106.56 37.98 106.43 37.94 106.31 37.86 106.25 37.72 106.19 37.56 106.13 37.48 106 37.43 105.88 37.43 105.77 37.48 105.71 37.6 105.71 37.77"/><polygon class="a" points="106.86 37.05 106.92 37.1 106.98 37.05 106.92 37.01 106.86 37.05"/><polyline class="a" points="105.71 36.29 106.56 36.71 106.56 36.07"/><line class="a" x1="105.71" y1="36.29" x2="106.98" y2="36.29"/><polygon class="a" points="105.71 35.66 105.77 35.78 105.88 35.83 106 35.83 106.13 35.78 106.19 35.69 106.25 35.52 106.31 35.4 106.43 35.31 106.56 35.28 106.74 35.28 106.86 35.31 106.92 35.35 106.98 35.48 106.98 35.66 106.92 35.78 106.86 35.83 106.74 35.86 106.56 35.86 106.43 35.83 106.31 35.74 106.25 35.61 106.19 35.44 106.13 35.35 106 35.31 105.88 35.31 105.77 35.35 105.71 35.48 105.71 35.66"/><polyline class="a" points="120.9 38.41 121.74 38.84 121.74 38.2"/><line class="a" x1="120.9" y1="38.41" x2="122.17" y2="38.41"/><path class="a" d="M120.9,37.48v.42l.54,0-.06,0c-.42-.75,1.29-.61.67,0l-.12,0"/><polygon class="a" points="122.05 37.05 122.11 37.1 122.17 37.05 122.11 37.01 122.05 37.05"/><polyline class="a" points="121.14 36.59 121.08 36.5 120.9 36.38 122.17 36.38"/><polyline class="a" points="120.9 35.78 120.9 35.31 121.38 35.57 121.38 35.44 121.44 35.35 121.5 35.31 121.68 35.28 121.8 35.28 121.99 35.31 122.11 35.4 122.17 35.52 122.17 35.66 122.11 35.78 122.05 35.83 121.93 35.86"/><polyline class="a" points="136.61 38.32 136.61 38.75 137.15 38.79 137.09 38.75 137.03 38.62 137.03 38.49 137.09 38.36 137.21 38.29 137.39 38.24 137.52 38.24 137.7 38.29 137.82 38.36 137.88 38.49 137.88 38.62 137.82 38.75 137.76 38.79 137.64 38.84"/><polyline class="a" points="136.84 37.86 136.78 37.77 136.61 37.65 137.88 37.65"/><polygon class="a" points="137.76 37.05 137.82 37.1 137.88 37.05 137.82 37.01 137.76 37.05"/><polyline class="a" points="137.03 36.16 137.21 36.21 137.33 36.29 137.39 36.41 137.39 36.46 137.33 36.59 137.21 36.67 137.03 36.71 136.97 36.71 136.78 36.67 136.67 36.59 136.61 36.46 136.61 36.41 136.67 36.29 136.78 36.21 137.03 36.16 137.33 36.16 137.64 36.21 137.82 36.29 137.88 36.41 137.88 36.5 137.82 36.62 137.7 36.67"/><polyline class="a" points="136.61 35.78 136.61 35.31 137.09 35.57 137.09 35.44 137.15 35.35 137.21 35.31 137.39 35.28 137.52 35.28 137.7 35.31 137.82 35.4 137.88 35.52 137.88 35.66 137.82 35.78 137.76 35.83 137.64 35.86"/><polygon class="a" points="16.62 37.1 16.67 37.22 16.86 37.31 17.16 37.34 17.34 37.34 17.65 37.31 17.82 37.22 17.88 37.1 17.88 37.01 17.82 36.88 17.65 36.79 17.34 36.76 17.16 36.76 16.86 36.79 16.67 36.88 16.62 37.01 16.62 37.1"/><polyline class="a" points="16.95 44.72 16.89 44.64 16.71 44.52 17.98 44.52"/><polygon class="a" points="16.71 43.79 16.77 43.91 16.89 43.96 17.02 43.96 17.14 43.91 17.2 43.84 17.26 43.67 17.32 43.54 17.43 43.45 17.55 43.41 17.74 43.41 17.86 43.45 17.92 43.5 17.98 43.62 17.98 43.79 17.92 43.91 17.86 43.96 17.74 44 17.55 44 17.43 43.96 17.32 43.88 17.26 43.76 17.2 43.59 17.14 43.5 17.02 43.45 16.89 43.45 16.77 43.5 16.71 43.62 16.71 43.79"/><polyline class="a" points="17.14 42.61 17.32 42.66 17.43 42.73 17.49 42.86 17.49 42.9 17.43 43.03 17.32 43.12 17.14 43.16 17.08 43.16 16.89 43.12 16.77 43.03 16.71 42.9 16.71 42.86 16.77 42.73 16.89 42.66 17.14 42.61 17.43 42.61 17.74 42.66 17.92 42.73 17.98 42.86 17.98 42.95 17.92 43.07 17.8 43.12"/><polygon class="a" points="17.86 42.23 17.92 42.26 17.98 42.23 17.92 42.18 17.86 42.23"/><polyline class="a" points="16.71 41.47 17.55 41.88 17.55 41.25"/><line class="a" x1="16.71" y1="41.47" x2="17.98" y2="41.47"/><polyline class="a" points="16.71 40.53 16.71 40.95 17.26 40.99 17.2 40.95 17.14 40.83 17.14 40.7 17.2 40.58 17.32 40.49 17.49 40.44 17.61 40.44 17.8 40.49 17.92 40.58 17.98 40.7 17.98 40.83 17.92 40.95 17.86 40.99 17.74 41.04"/><polyline class="a" points="28.93 44.49 28.87 44.41 28.69 44.28 29.96 44.28"/><polyline class="a" points="29.12 43.22 29.29 43.26 29.41 43.34 29.47 43.48 29.47 43.51 29.41 43.65 29.29 43.73 29.12 43.77 29.06 43.77 28.87 43.73 28.75 43.65 28.69 43.51 28.69 43.48 28.75 43.34 28.87 43.26 29.12 43.22 29.41 43.22 29.72 43.26 29.9 43.34 29.96 43.48 29.96 43.56 29.9 43.68 29.78 43.73"/><polygon class="a" points="28.69 42.67 28.75 42.79 28.93 42.88 29.24 42.92 29.41 42.92 29.72 42.88 29.9 42.79 29.96 42.67 29.96 42.58 29.9 42.46 29.72 42.37 29.41 42.32 29.24 42.32 28.93 42.37 28.75 42.46 28.69 42.58 28.69 42.67"/><polygon class="a" points="29.84 41.99 29.9 42.03 29.96 41.99 29.9 41.95 29.84 41.99"/><polyline class="a" points="28.69 41.57 28.69 41.1 29.18 41.36 29.18 41.22 29.24 41.14 29.29 41.1 29.47 41.05 29.59 41.05 29.78 41.1 29.9 41.19 29.96 41.31 29.96 41.43 29.9 41.57 29.84 41.6 29.72 41.65"/><polyline class="a" points="29.96 40.64 28.69 40.21 28.69 40.81"/><polyline class="a" points="31.1 44.49 31.04 44.41 30.87 44.28 32.14 44.28"/><polygon class="a" points="30.87 43.56 30.93 43.68 31.04 43.73 31.16 43.73 31.28 43.68 31.34 43.6 31.41 43.42 31.47 43.3 31.59 43.22 31.71 43.18 31.9 43.18 32.02 43.22 32.08 43.25 32.14 43.39 32.14 43.56 32.08 43.68 32.02 43.73 31.9 43.77 31.71 43.77 31.59 43.73 31.47 43.65 31.41 43.51 31.34 43.34 31.28 43.25 31.16 43.22 31.04 43.22 30.93 43.25 30.87 43.39 30.87 43.56"/><polyline class="a" points="31.28 42.37 31.47 42.41 31.59 42.49 31.65 42.62 31.65 42.67 31.59 42.79 31.47 42.88 31.28 42.92 31.22 42.92 31.04 42.88 30.93 42.79 30.87 42.67 30.87 42.62 30.93 42.49 31.04 42.41 31.28 42.37 31.59 42.37 31.9 42.41 32.08 42.49 32.14 42.62 32.14 42.7 32.08 42.84 31.96 42.88"/><polygon class="a" points="32.02 41.99 32.08 42.03 32.14 41.99 32.08 41.95 32.02 41.99"/><polyline class="a" points="30.87 41.57 30.87 41.1 31.34 41.36 31.34 41.22 31.41 41.14 31.47 41.1 31.65 41.05 31.77 41.05 31.96 41.1 32.08 41.19 32.14 41.31 32.14 41.43 32.08 41.57 32.02 41.6 31.9 41.65"/><polyline class="a" points="32.14 40.64 30.87 40.21 30.87 40.81"/><polyline class="a" points="35.33 44.63 35.27 44.54 35.09 44.41 36.36 44.41"/><path class="a" d="M35.09,43.7l.06.12.12,0h.12l.12,0,.06-.08.06-.17.06-.12.12-.09.12,0h.18l.11,0,.06,0,.06.14v.17l-.06.12c-.9.42-.44-.72-1.15-.43l-.06.14Z"/><polyline class="a" points="35.52 42.51 35.7 42.55 35.82 42.63 35.88 42.75 35.88 42.8 35.82 42.92 35.7 43.01 35.52 43.06 35.46 43.06 35.27 43.01 35.15 42.92 35.09 42.8 35.09 42.75 35.15 42.63 35.27 42.55 35.52 42.51 35.82 42.51 36.13 42.55 36.3 42.63 36.36 42.75 36.36 42.84 36.3 42.97 36.19 43.01"/><polygon class="a" points="36.24 42.12 36.3 42.17 36.36 42.12 36.3 42.08 36.24 42.12"/><polyline class="a" points="35.4 41.74 35.34 41.74 35.21 41.7 35.15 41.65 35.09 41.57 35.09 41.41 35.15 41.32 35.21 41.27 35.34 41.23 35.46 41.23 35.58 41.27 35.76 41.36 36.36 41.79 36.36 41.19"/><polyline class="a" points="36.36 40.77 35.09 40.34 35.09 40.93"/><polyline class="a" points="37.21 44.47 37.15 44.38 36.96 44.26 38.23 44.26"/><polyline class="a" points="37.39 43.19 37.57 43.24 37.7 43.33 37.76 43.45 37.76 43.5 37.7 43.62 37.57 43.71 37.39 43.74 37.33 43.74 37.15 43.71 37.02 43.62 36.96 43.5 36.96 43.45 37.02 43.33 37.15 43.24 37.39 43.19 37.7 43.19 38 43.24 38.17 43.33 38.23 43.45 38.23 43.54 38.17 43.66 38.06 43.71"/><polygon class="a" points="36.96 42.64 37.02 42.78 37.21 42.86 37.51 42.9 37.7 42.9 38 42.86 38.17 42.78 38.23 42.64 38.23 42.56 38.17 42.44 38 42.35 37.7 42.31 37.51 42.31 37.21 42.35 37.02 42.44 36.96 42.56 36.96 42.64"/><polygon class="a" points="38.12 41.97 38.17 42.01 38.23 41.97 38.17 41.92 38.12 41.97"/><path class="a" d="M37,41.11v.43l.55,0-.06,0c-.41-.73,1.24-.63.67,0l-.12,0"/><polyline class="a" points="37.39 40.23 37.57 40.27 37.7 40.35 37.76 40.49 37.76 40.53 37.7 40.65 37.57 40.73 37.39 40.78 37.33 40.78 37.15 40.73 37.02 40.65 36.96 40.53 36.96 40.49 37.02 40.35 37.15 40.27 37.39 40.23 37.7 40.23 38 40.27 38.17 40.35 38.23 40.49 38.23 40.56 38.17 40.7 38.06 40.73"/><polyline class="a" points="53.74 44.65 53.69 44.56 53.51 44.44 54.78 44.44"/><path class="a" d="M53.51,43.72l.06.14.12,0h.11l.12,0,.06-.09L54,43.6l.06-.14.12-.09.12,0h.18l.12,0,.06,0,.06.12v.17l-.06.14c-.94.39-.46-.74-1.15-.43l-.06.12Z"/><polygon class="a" points="53.51 42.88 53.57 43 53.69 43.05 53.8 43.05 53.92 43 53.98 42.91 54.05 42.74 54.11 42.62 54.23 42.53 54.35 42.5 54.53 42.5 54.66 42.53 54.72 42.58 54.78 42.7 54.78 42.88 54.72 43 54.66 43.05 54.53 43.08 54.35 43.08 54.23 43.05 54.11 42.96 54.05 42.83 53.98 42.67 53.92 42.58 53.8 42.53 53.69 42.53 53.57 42.58 53.51 42.7 53.51 42.88"/><polygon class="a" points="54.66 42.15 54.72 42.19 54.78 42.15 54.72 42.1 54.66 42.15"/><polyline class="a" points="54.78 41.64 53.51 41.22 53.51 41.81"/><polyline class="a" points="54.78 40.8 53.51 40.37 53.51 40.97"/><polyline class="a" points="81.33 44.49 81.27 44.41 81.09 44.28 82.36 44.28"/><polygon class="a" points="81.09 43.56 81.15 43.68 81.27 43.73 81.4 43.73 81.52 43.68 81.58 43.6 81.64 43.42 81.7 43.3 81.82 43.22 81.93 43.18 82.12 43.18 82.24 43.22 82.3 43.25 82.36 43.39 82.36 43.56 82.3 43.68 82.24 43.73 82.12 43.77 81.93 43.77 81.82 43.73 81.7 43.65 81.64 43.51 81.58 43.34 81.52 43.25 81.4 43.22 81.27 43.22 81.15 43.25 81.09 43.39 81.09 43.56"/><path class="a" d="M81.09,42.7l.06.14.12,0h.12l.12,0,.06-.09.06-.17.06-.12.12-.08.11,0h.18l.12,0,.06,0,.06.13v.16l-.06.14c-.88.42-.45-.72-1.15-.43l-.06.13Z"/><polygon class="a" points="82.24 41.99 82.3 42.03 82.36 41.99 82.3 41.95 82.24 41.99"/><polyline class="a" points="81.09 41.14 81.09 41.57 81.64 41.6 81.58 41.57 81.52 41.43 81.52 41.31 81.58 41.19 81.7 41.1 81.87 41.05 82 41.05 82.18 41.1 82.3 41.19 82.36 41.31 82.36 41.43 82.3 41.57 82.24 41.6 82.12 41.65"/><polyline class="a" points="81.27 40.24 81.15 40.29 81.09 40.41 81.09 40.5 81.15 40.64 81.33 40.72 81.64 40.76 81.93 40.76 82.18 40.72 82.3 40.64 82.36 40.5 82.36 40.46 82.3 40.33 82.18 40.24 82 40.21 81.93 40.21 81.76 40.24 81.64 40.33 81.58 40.46 81.58 40.5 81.64 40.64 81.76 40.72 81.93 40.76"/><polyline class="a" points="121.28 44.52 121.22 44.43 121.03 44.3 122.31 44.3"/><path class="a" d="M121,43.57l.06.14.12,0h.11l.12,0,.06-.09.06-.17.06-.12.12-.08.12,0h.18l.12,0,.06,0,.06.13v.16l-.06.14c-.9.42-.46-.71-1.15-.43l-.06.13Z"/><path class="a" d="M121,42.73l.06.14.12,0h.11l.12,0,.06-.09.06-.17.06-.14.12-.09.12,0h.18l.12,0,.06,0,.06.12v.17l-.06.14c-.94.39-.46-.74-1.15-.43l-.06.12Z"/><polygon class="a" points="122.18 42.01 122.24 42.05 122.31 42.01 122.24 41.97 122.18 42.01"/><polyline class="a" points="121.03 41.59 121.03 41.11 121.51 41.37 121.51 41.25 121.57 41.16 121.63 41.11 121.81 41.08 121.94 41.08 122.12 41.11 122.24 41.2 122.31 41.33 122.31 41.45 122.24 41.59 122.18 41.63 122.06 41.68"/><polyline class="a" points="121.03 40.4 121.88 40.82 121.88 40.18"/><line class="a" x1="121.03" y1="40.4" x2="122.31" y2="40.4"/><polyline class="a" points="25.04 44.72 24.98 44.64 24.81 44.52 26.07 44.52"/><polyline class="a" points="25.23 43.45 25.41 43.5 25.53 43.59 25.59 43.71 25.59 43.76 25.53 43.88 25.41 43.96 25.23 44 25.16 44 24.98 43.96 24.87 43.88 24.81 43.76 24.81 43.71 24.87 43.59 24.98 43.5 25.23 43.45 25.53 43.45 25.84 43.5 26.02 43.59 26.07 43.71 26.07 43.79 26.02 43.91 25.9 43.96"/><polygon class="a" points="24.81 42.9 24.87 43.03 25.04 43.12 25.35 43.16 25.53 43.16 25.84 43.12 26.02 43.03 26.07 42.9 26.07 42.81 26.02 42.69 25.84 42.61 25.53 42.57 25.35 42.57 25.04 42.61 24.87 42.69 24.81 42.81 24.81 42.9"/><polygon class="a" points="25.96 42.23 26.02 42.26 26.07 42.23 26.02 42.18 25.96 42.23"/><polygon class="a" points="24.81 41.63 24.87 41.76 25.04 41.85 25.35 41.88 25.53 41.88 25.84 41.85 26.02 41.76 26.07 41.63 26.07 41.54 26.02 41.42 25.84 41.33 25.53 41.3 25.35 41.3 25.04 41.33 24.87 41.42 24.81 41.54 24.81 41.63"/><polyline class="a" points="26.07 40.87 24.81 40.44 24.81 41.04"/><polyline class="a" points="33.3 44.47 33.24 44.39 33.06 44.26 34.33 44.26"/><path class="a" d="M33.06,43.54l.06.14.12,0h.12l.11,0,.06-.09.06-.17.06-.14.12-.07.12,0h.18l.12,0,.06,0,.06.12v.17l-.06.14c-.9.42-.47-.72-1.15-.43l-.06.12Z"/><polyline class="a" points="33.47 42.35 33.66 42.4 33.78 42.48 33.84 42.61 33.84 42.64 33.78 42.78 33.66 42.86 33.47 42.9 33.42 42.9 33.24 42.86 33.12 42.78 33.06 42.64 33.06 42.61 33.12 42.48 33.24 42.4 33.47 42.35 33.78 42.35 34.09 42.4 34.27 42.48 34.33 42.61 34.33 42.69 34.27 42.81 34.15 42.86"/><polygon class="a" points="34.21 41.97 34.27 42.02 34.33 41.97 34.27 41.93 34.21 41.97"/><polyline class="a" points="33.36 41.59 33.3 41.59 33.18 41.54 33.12 41.5 33.06 41.42 33.06 41.25 33.12 41.16 33.18 41.13 33.3 41.08 33.42 41.08 33.53 41.13 33.72 41.21 34.33 41.63 34.33 41.04"/><polyline class="a" points="34.33 40.61 33.06 40.2 33.06 40.78"/><polyline class="a" points="48.44 44.28 48.38 44.2 48.21 44.08 49.48 44.08"/><polygon class="a" points="48.21 43.35 48.27 43.47 48.38 43.52 48.5 43.52 48.62 43.47 48.69 43.39 48.75 43.22 48.81 43.09 48.93 43.01 49.05 42.96 49.24 42.96 49.36 43.01 49.42 43.05 49.48 43.18 49.48 43.35 49.42 43.47 49.36 43.52 49.24 43.56 49.05 43.56 48.93 43.52 48.81 43.44 48.75 43.3 48.69 43.13 48.62 43.05 48.5 43.01 48.38 43.01 48.27 43.05 48.21 43.18 48.21 43.35"/><path class="a" d="M48.21,42.5l.06.14.11,0h.12l.12,0,.06-.09.06-.17.06-.12.12-.08.12,0h.18l.12,0,.06,0,.06.13v.16l-.06.14c-.9.42-.47-.72-1.15-.43l-.06.13Z"/><polygon class="a" points="49.36 41.77 49.42 41.82 49.48 41.77 49.42 41.74 49.36 41.77"/><polyline class="a" points="48.62 40.89 48.81 40.93 48.93 41.02 48.99 41.15 48.99 41.19 48.93 41.31 48.81 41.4 48.62 41.44 48.56 41.44 48.38 41.4 48.27 41.31 48.21 41.19 48.21 41.15 48.27 41.02 48.38 40.93 48.62 40.89 48.93 40.89 49.24 40.93 49.42 41.02 49.48 41.15 49.48 41.22 49.42 41.36 49.3 41.4"/><polyline class="a" points="58.94 44.72 58.88 44.64 58.71 44.52 59.98 44.52"/><polygon class="a" points="58.71 43.79 58.77 43.91 58.88 43.96 59 43.96 59.12 43.91 59.19 43.84 59.25 43.67 59.31 43.54 59.43 43.45 59.55 43.41 59.74 43.41 59.86 43.45 59.92 43.5 59.98 43.62 59.98 43.79 59.92 43.91 59.86 43.96 59.74 44 59.55 44 59.43 43.96 59.31 43.88 59.25 43.76 59.19 43.59 59.12 43.5 59 43.45 58.88 43.45 58.77 43.5 58.71 43.62 58.71 43.79"/><polygon class="a" points="58.71 42.95 58.77 43.07 58.88 43.12 59 43.12 59.12 43.07 59.19 42.99 59.25 42.81 59.31 42.69 59.43 42.61 59.55 42.57 59.74 42.57 59.86 42.61 59.92 42.66 59.98 42.78 59.98 42.95 59.92 43.07 59.86 43.12 59.74 43.16 59.55 43.16 59.43 43.12 59.31 43.03 59.25 42.9 59.19 42.73 59.12 42.66 59 42.61 58.88 42.61 58.77 42.66 58.71 42.78 58.71 42.95"/><polygon class="a" points="59.86 42.23 59.92 42.26 59.98 42.23 59.92 42.18 59.86 42.23"/><polyline class="a" points="59.98 41.71 58.71 41.3 58.71 41.88"/><polyline class="a" points="58.71 40.53 58.71 40.95 59.25 40.99 59.19 40.95 59.12 40.83 59.12 40.7 59.19 40.58 59.31 40.49 59.49 40.44 59.61 40.44 59.8 40.49 59.92 40.58 59.98 40.7 59.98 40.83 59.92 40.95 59.86 40.99 59.74 41.04"/><polyline class="a" points="73.86 44.71 73.8 44.63 73.61 44.49 74.89 44.49"/><path class="a" d="M73.61,43.77l.06.14.12,0h.12l.12,0,.06-.09.06-.17.06-.12.12-.08.12,0h.18l.11,0,.06,0,.06.12v.17l-.06.14c-.88.42-.45-.72-1.15-.43l-.06.12Z"/><polygon class="a" points="73.61 42.92 73.67 43.05 73.8 43.09 73.92 43.09 74.04 43.05 74.1 42.96 74.16 42.8 74.22 42.67 74.35 42.58 74.47 42.55 74.65 42.55 74.76 42.58 74.83 42.63 74.89 42.75 74.89 42.92 74.83 43.05 74.76 43.09 74.65 43.13 74.47 43.13 74.35 43.09 74.22 43.01 74.16 42.89 74.1 42.72 74.04 42.63 73.92 42.58 73.8 42.58 73.67 42.63 73.61 42.75 73.61 42.92"/><polygon class="a" points="74.76 42.2 74.82 42.25 74.89 42.2 74.82 42.16 74.76 42.2"/><polyline class="a" points="73.8 41.31 73.67 41.36 73.61 41.48 73.61 41.57 73.67 41.7 73.86 41.77 74.16 41.82 74.47 41.82 74.71 41.77 74.82 41.7 74.89 41.57 74.89 41.53 74.82 41.4 74.71 41.31 74.53 41.27 74.47 41.27 74.29 41.31 74.16 41.4 74.1 41.53 74.1 41.57 74.16 41.7 74.29 41.77 74.47 41.82"/><polyline class="a" points="74.04 40.46 74.22 40.51 74.35 40.59 74.41 40.72 74.41 40.76 74.35 40.89 74.22 40.98 74.04 41.02 73.98 41.02 73.8 40.98 73.67 40.89 73.61 40.76 73.61 40.72 73.67 40.59 73.8 40.51 74.04 40.46 74.35 40.46 74.65 40.51 74.82 40.59 74.89 40.72 74.89 40.81 74.82 40.93 74.71 40.98"/><polyline class="a" points="89.58 44.72 89.52 44.64 89.34 44.52 90.61 44.52"/><polygon class="a" points="89.34 43.79 89.4 43.91 89.52 43.96 89.64 43.96 89.77 43.91 89.83 43.84 89.89 43.67 89.95 43.54 90.07 43.45 90.19 43.41 90.38 43.41 90.5 43.45 90.55 43.5 90.61 43.62 90.61 43.79 90.55 43.91 90.5 43.96 90.38 44 90.19 44 90.07 43.96 89.95 43.88 89.89 43.76 89.83 43.59 89.77 43.5 89.64 43.45 89.52 43.45 89.4 43.5 89.34 43.62 89.34 43.79"/><polygon class="a" points="89.34 42.95 89.4 43.07 89.52 43.12 89.64 43.12 89.77 43.07 89.83 42.99 89.89 42.81 89.95 42.69 90.07 42.61 90.19 42.57 90.38 42.57 90.5 42.61 90.55 42.66 90.61 42.78 90.61 42.95 90.55 43.07 90.5 43.12 90.38 43.16 90.19 43.16 90.07 43.12 89.95 43.03 89.89 42.9 89.83 42.73 89.77 42.66 89.64 42.61 89.52 42.61 89.4 42.66 89.34 42.78 89.34 42.95"/><polygon class="a" points="90.5 42.23 90.55 42.26 90.61 42.23 90.55 42.18 90.5 42.23"/><path class="a" d="M89.34,41.38v.42l.55,0-.06,0c-.41-.73,1.24-.64.67,0l-.12,0"/><polyline class="a" points="90.61 40.87 89.34 40.44 89.34 41.04"/><polyline class="a" points="105.89 44.72 105.83 44.64 105.65 44.52 106.92 44.52"/><polygon class="a" points="105.65 43.79 105.71 43.91 105.83 43.96 105.96 43.96 106.07 43.91 106.13 43.84 106.19 43.67 106.25 43.54 106.37 43.45 106.49 43.41 106.68 43.41 106.8 43.45 106.86 43.5 106.92 43.62 106.92 43.79 106.86 43.91 106.8 43.96 106.68 44 106.49 44 106.37 43.96 106.25 43.88 106.19 43.76 106.13 43.59 106.07 43.5 105.96 43.45 105.83 43.45 105.71 43.5 105.65 43.62 105.65 43.79"/><polygon class="a" points="105.65 42.95 105.71 43.07 105.83 43.12 105.96 43.12 106.07 43.07 106.13 42.99 106.19 42.81 106.25 42.69 106.37 42.61 106.49 42.57 106.68 42.57 106.8 42.61 106.86 42.66 106.92 42.78 106.92 42.95 106.86 43.07 106.8 43.12 106.68 43.16 106.49 43.16 106.37 43.12 106.25 43.03 106.19 42.9 106.13 42.73 106.07 42.66 105.96 42.61 105.83 42.61 105.71 42.66 105.65 42.78 105.65 42.95"/><polygon class="a" points="106.8 42.23 106.86 42.26 106.92 42.23 106.86 42.18 106.8 42.23"/><polyline class="a" points="105.65 41.47 106.49 41.88 106.49 41.25"/><line class="a" x1="105.65" y1="41.47" x2="106.92" y2="41.47"/><polyline class="a" points="105.83 40.49 105.71 40.53 105.65 40.66 105.65 40.75 105.71 40.87 105.89 40.95 106.19 40.99 106.5 40.99 106.74 40.95 106.86 40.87 106.92 40.75 106.92 40.7 106.86 40.58 106.74 40.49 106.56 40.44 106.5 40.44 106.31 40.49 106.19 40.58 106.13 40.7 106.13 40.75 106.19 40.87 106.31 40.95 106.5 40.99"/><polyline class="a" points="136.99 44.75 136.93 44.66 136.75 44.54 138.02 44.54"/><polygon class="a" points="136.75 43.82 136.81 43.94 136.93 43.99 137.05 43.99 137.17 43.94 137.24 43.85 137.3 43.68 137.36 43.56 137.48 43.48 137.6 43.44 137.78 43.44 137.91 43.48 137.96 43.52 138.02 43.65 138.02 43.82 137.96 43.94 137.91 43.99 137.78 44.03 137.6 44.03 137.48 43.99 137.36 43.9 137.3 43.77 137.24 43.6 137.17 43.52 137.05 43.48 136.93 43.48 136.81 43.52 136.75 43.65 136.75 43.82"/><polygon class="a" points="136.75 42.96 136.81 43.1 136.93 43.13 137.05 43.13 137.17 43.1 137.24 43.01 137.3 42.84 137.36 42.72 137.48 42.63 137.6 42.58 137.78 42.58 137.91 42.63 137.96 42.67 138.02 42.8 138.02 42.96 137.96 43.1 137.91 43.13 137.78 43.18 137.6 43.18 137.48 43.13 137.36 43.05 137.3 42.92 137.24 42.75 137.17 42.67 137.05 42.63 136.93 42.63 136.81 42.67 136.75 42.8 136.75 42.96"/><polygon class="a" points="137.91 42.25 137.96 42.29 138.02 42.25 137.96 42.2 137.91 42.25"/><polyline class="a" points="137.05 41.86 136.99 41.86 136.87 41.82 136.81 41.77 136.75 41.7 136.75 41.53 136.81 41.44 136.87 41.4 136.99 41.36 137.11 41.36 137.24 41.4 137.42 41.48 138.02 41.91 138.02 41.31"/><polyline class="a" points="136.75 40.64 137.6 41.06 137.6 40.43"/><line class="a" x1="136.75" y1="40.64" x2="138.02" y2="40.64"/><polygon class="a" points="2.4 36.6 2.4 35.67 2.72 35.67 2.85 35.72 2.94 35.8 2.98 35.89 3.03 36.02 3.03 36.24 2.98 36.38 2.94 36.46 2.85 36.56 2.72 36.6 2.4 36.6"/><line class="a" x1="3.33" y1="35.67" x2="3.33" y2="36.6"/><polyline class="a" points="4.26 35.8 4.18 35.72 4.04 35.67 3.87 35.67 3.74 35.72 3.65 35.8 3.65 35.89 3.69 35.99 3.74 36.02 3.82 36.07 4.09 36.16 4.18 36.21 4.23 36.24 4.26 36.34 4.26 36.46 4.18 36.56 4.04 36.6 3.87 36.6 3.74 36.56 3.65 36.46"/><line class="a" x1="4.75" y1="35.67" x2="4.75" y2="36.6"/><line class="a" x1="4.45" y1="35.67" x2="5.06" y2="35.67"/><polygon class="a" points="5.33 36.51 5.28 36.56 5.33 36.6 5.38 36.56 5.33 36.51"/><polyline class="a" points="6.66 36.6 6.66 35.67 7.05 35.67 7.19 35.72 7.24 35.77 7.27 35.85 7.27 35.98 7.24 36.07 7.19 36.11 7.05 36.16 6.66 36.16"/><polyline class="a" points="7.59 36.6 7.59 35.67 7.98 35.67 8.12 35.72 8.17 35.77 8.2 35.85 8.2 35.94 8.17 36.02 8.12 36.07 7.98 36.11 7.59 36.11"/><line class="a" x1="7.9" y1="36.11" x2="8.2" y2="36.6"/><path class="a" d="M8.74,35.67l-.09,0-.1.09a.55.55,0,0,0,.18.8h.17l.09,0a.56.56,0,0,0,0-.84l-.09,0Z"/><polyline class="a" points="10.11 35.89 10.06 35.8 9.98 35.72 9.89 35.67 9.71 35.67 9.62 35.72 9.54 35.8 9.49 35.89 9.45 36.02 9.45 36.24 9.49 36.38 9.54 36.46 9.62 36.56 9.71 36.6 9.89 36.6 9.98 36.56 10.06 36.46 10.11 36.38 10.11 36.24 9.89 36.24"/><polyline class="a" points="10.42 36.6 10.42 35.67 10.82 35.67 10.96 35.72 10.99 35.77 11.04 35.85 11.04 35.94 10.99 36.02 10.96 36.07 10.82 36.11 10.42 36.11"/><line class="a" x1="10.74" y1="36.11" x2="11.04" y2="36.6"/><polyline class="a" points="11.35 36.6 11.35 35.67 11.92 35.67"/><line class="a" x1="11.35" y1="36.11" x2="11.7" y2="36.11"/><line class="a" x1="11.35" y1="36.6" x2="11.92" y2="36.6"/><path class="a" d="M12.77,35.8l-.09-.09-.13,0h-.17l-.13,0-.1.09v.09l0,.1,0,0,.08,0,.27.09c.3.14.24.51-.22.44l-.13,0-.1-.1"/><polyline class="a" points="13.65 35.8 13.56 35.72 13.43 35.67 13.26 35.67 13.12 35.72 13.04 35.8 13.04 35.89 13.07 35.99 13.12 36.02 13.21 36.07 13.48 36.16 13.56 36.21 13.61 36.24 13.65 36.34 13.65 36.46 13.56 36.56 13.43 36.6 13.26 36.6 13.12 36.56 13.04 36.46"/><line class="a" x1="13.97" y1="35.67" x2="13.97" y2="36.6"/><polyline class="a" points="14.19 35.67 14.54 36.6 14.9 35.67"/><polyline class="a" points="14.98 36.6 15.34 35.67 15.69 36.6"/><line class="a" x1="15.12" y1="36.29" x2="15.56" y2="36.29"/><path class="a" d="M2.72,37.22l-.1.09a1,1,0,0,0,0,1.25l.1.09"/><line class="a" x1="3.03" y1="37.71" x2="3.03" y2="38.32"/><polyline class="a" points="3.03 37.88 3.16 37.75 3.25 37.71 3.38 37.71 3.47 37.75 3.52 37.88 3.52 38.32"/><polyline class="a" points="3.52 37.88 3.65 37.75 3.74 37.71 3.87 37.71 3.96 37.75 4.01 37.88 4.01 38.32"/><path class="a" d="M4.31,37.22l.09.09a1,1,0,0,1,0,1.25l-.09.09"/><polygon class="a" points="2.4 31.76 2.4 30.83 2.72 30.83 2.85 30.87 2.94 30.96 2.98 31.05 3.03 31.18 3.03 31.41 2.98 31.53 2.94 31.63 2.85 31.71 2.72 31.76 2.4 31.76"/><line class="a" x1="3.33" y1="30.83" x2="3.33" y2="31.76"/><polyline class="a" points="4.26 30.96 4.18 30.87 4.04 30.83 3.87 30.83 3.74 30.87 3.65 30.96 3.65 31.05 3.69 31.14 3.74 31.18 3.82 31.23 4.09 31.31 4.18 31.36 4.23 31.41 4.26 31.49 4.26 31.63 4.18 31.71 4.04 31.76 3.87 31.76 3.74 31.71 3.65 31.63"/><line class="a" x1="4.75" y1="30.83" x2="4.75" y2="31.76"/><line class="a" x1="4.45" y1="30.83" x2="5.06" y2="30.83"/><rect class="a" x="5.29" y="31.68" width="0.07" height="0.07" transform="translate(-20.87 13.06) rotate(-45)"/><polyline class="a" points="6.66 31.76 6.66 30.83 7.05 30.83 7.19 30.87 7.24 30.92 7.27 31 7.27 31.14 7.24 31.23 7.19 31.27 7.05 31.31 6.66 31.31"/><polyline class="a" points="7.46 31.76 7.81 30.83 8.17 31.76"/><line class="a" x1="7.59" y1="31.45" x2="8.03" y2="31.45"/><polyline class="a" points="8.39 31.76 8.39 30.83 8.78 30.83 8.91 30.87 8.96 30.92 9 31 9 31.09 8.96 31.18 8.91 31.23 8.78 31.27 8.39 31.27"/><line class="a" x1="8.69" y1="31.27" x2="9" y2="31.76"/><polyline class="a" points="9.27 31.76 9.89 30.83 9.27 30.83"/><line class="a" x1="9.27" y1="31.76" x2="9.89" y2="31.76"/><line class="a" x1="10.2" y1="30.83" x2="10.2" y2="31.76"/><polyline class="a" points="10.42 31.76 10.77 30.83 11.13 31.76"/><line class="a" x1="10.55" y1="31.45" x2="10.99" y2="31.45"/><polyline class="a" points="11.35 30.83 11.35 31.76 11.89 31.76"/><polyline class="a" points="12.11 31.76 12.11 30.83 12.68 30.83"/><line class="a" x1="12.11" y1="31.27" x2="12.46" y2="31.27"/><line class="a" x1="12.11" y1="31.76" x2="12.68" y2="31.76"/><path class="a" d="M2.72,32.38l-.1.09a1,1,0,0,0,0,1.25l.1.09"/><line class="a" x1="3.03" y1="32.87" x2="3.03" y2="33.49"/><polyline class="a" points="3.03 33.04 3.16 32.91 3.25 32.87 3.38 32.87 3.47 32.91 3.52 33.04 3.52 33.49"/><polyline class="a" points="3.52 33.04 3.65 32.91 3.74 32.87 3.87 32.87 3.96 32.91 4.01 33.04 4.01 33.49"/><path class="a" d="M4.31,32.38l.09.09a1,1,0,0,1,0,1.25l-.09.09"/><polyline class="a" points="2.4 28.8 2.4 27.87 2.81 27.87 2.94 27.92 2.98 27.96 3.03 28.06 3.03 28.18 2.98 28.28 2.94 28.31 2.81 28.36 2.4 28.36"/><line class="a" x1="3.33" y1="27.87" x2="3.33" y2="28.8"/><polyline class="a" points="4.31 28.09 4.26 28.01 4.18 27.92 4.09 27.87 3.91 27.87 3.82 27.92 3.74 28.01 3.69 28.09 3.65 28.23 3.65 28.45 3.69 28.58 3.74 28.67 3.82 28.75 3.91 28.8 4.09 28.8 4.18 28.75 4.26 28.67 4.31 28.58"/><polyline class="a" points="5.24 28.09 5.19 28.01 5.11 27.92 5.02 27.87 4.84 27.87 4.75 27.92 4.67 28.01 4.62 28.09 4.58 28.23 4.58 28.45 4.62 28.58 4.67 28.67 4.75 28.75 4.84 28.8 5.02 28.8 5.11 28.75 5.19 28.67 5.24 28.58"/><line class="a" x1="5.55" y1="27.87" x2="5.55" y2="28.8"/><line class="a" x1="6.17" y1="27.87" x2="6.17" y2="28.8"/><line class="a" x1="5.55" y1="28.31" x2="6.17" y2="28.31"/><polyline class="a" points="6.53 28.8 6.53 27.87 7.1 27.87"/><line class="a" x1="6.53" y1="28.31" x2="6.88" y2="28.31"/><line class="a" x1="6.53" y1="28.8" x2="7.1" y2="28.8"/><line class="a" x1="7.54" y1="27.87" x2="7.54" y2="28.8"/><line class="a" x1="7.24" y1="27.87" x2="7.85" y2="27.87"/><line class="a" x1="8.25" y1="27.87" x2="8.25" y2="28.8"/><line class="a" x1="7.95" y1="27.87" x2="8.56" y2="27.87"/><path class="a" d="M9,27.87l-.09,0L8.83,28a.55.55,0,0,0,.17.8h.18l.09,0a.54.54,0,0,0,0-.83l-.09,0Z"/><path class="a" d="M2.67,41.25l-.09,0-.1.09a.55.55,0,0,0,.18.8h.17l.1,0L3,42l0-.08,0-.14V41.6l0-.14,0-.08-.09-.09-.1,0Z"/><line class="a" x1="2.81" y1="42.01" x2="3.08" y2="42.26"/><polyline class="a" points="3.42 41.25 3.42 41.92 3.47 42.04 3.55 42.14 3.69 42.18 3.77 42.18 3.91 42.14 4.01 42.04 4.04 41.92 4.04 41.25"/><path class="a" d="M4.62,41.25l-.09,0-.08.09a.54.54,0,0,0,.17.8H4.8l.09,0L5,42,5,42l0-.14V41.6l0-.14,0-.08-.09-.09-.09,0Z"/><line class="a" x1="5.55" y1="41.25" x2="5.55" y2="42.18"/><line class="a" x1="5.24" y1="41.25" x2="5.87" y2="41.25"/><polyline class="a" points="5.95 42.18 6.31 41.25 6.66 42.18"/><line class="a" x1="6.09" y1="41.87" x2="6.53" y2="41.87"/><line class="a" x1="7.98" y1="41.25" x2="7.98" y2="42.18"/><line class="a" x1="7.68" y1="41.25" x2="8.3" y2="41.25"/><polyline class="a" points="8.52 42.18 8.52 41.25 9.1 41.25"/><line class="a" x1="8.52" y1="41.69" x2="8.88" y2="41.69"/><line class="a" x1="8.52" y1="42.18" x2="9.1" y2="42.18"/><polyline class="a" points="9.35 42.18 9.35 41.25 9.76 41.25 9.89 41.3 9.93 41.33 9.98 41.43 9.98 41.52 9.93 41.6 9.89 41.65 9.76 41.69 9.35 41.69"/><line class="a" x1="9.67" y1="41.69" x2="9.98" y2="42.18"/><polyline class="a" points="10.29 42.18 10.29 41.25 10.69 41.25 10.82 41.3 10.86 41.33 10.91 41.43 10.91 41.52 10.86 41.6 10.82 41.65 10.69 41.69 10.29 41.69"/><line class="a" x1="10.6" y1="41.69" x2="10.91" y2="42.18"/><polyline class="a" points="11.21 42.18 11.21 41.25 11.79 41.25"/><line class="a" x1="11.21" y1="41.69" x2="11.57" y2="41.69"/><line class="a" x1="11.21" y1="42.18" x2="11.79" y2="42.18"/><polyline class="a" points="12.06 42.18 12.06 41.25 12.68 42.18 12.68 41.25"/><path class="a" d="M13.26,41.25l-.09,0-.1.09a.55.55,0,0,0,.18.8h.17l.1,0a.59.59,0,0,0,0-.84l-.1,0Z"/><path class="a" d="M2.72,42.8l-.1.09a1,1,0,0,0,0,1.24l.1.1"/><line class="a" x1="3.03" y1="43.29" x2="3.03" y2="43.9"/><polyline class="a" points="3.03 43.46 3.16 43.33 3.25 43.29 3.38 43.29 3.47 43.33 3.52 43.46 3.52 43.9"/><polyline class="a" points="3.52 43.46 3.65 43.33 3.74 43.29 3.87 43.29 3.96 43.33 4.01 43.46 4.01 43.9"/><polyline class="a" points="5.73 43.43 5.68 43.33 5.55 43.29 5.41 43.29 5.28 43.33 5.24 43.43 5.28 43.51 5.38 43.55 5.6 43.6 5.68 43.65 5.73 43.73 5.73 43.78 5.68 43.87 5.55 43.9 5.41 43.9 5.28 43.87 5.24 43.78"/><polygon class="a" points="6.09 43.82 6.04 43.87 6.09 43.9 6.12 43.87 6.09 43.82"/><line class="a" x1="6.48" y1="42.97" x2="6.48" y2="43.9"/><polygon class="a" points="6.88 43.82 6.83 43.87 6.88 43.9 6.92 43.87 6.88 43.82"/><line class="a" x1="7.27" y1="43.29" x2="7.27" y2="43.9"/><polyline class="a" points="7.27 43.46 7.41 43.33 7.49 43.29 7.63 43.29 7.73 43.33 7.76 43.46 7.76 43.9"/><polyline class="a" points="7.76 43.46 7.9 43.33 7.98 43.29 8.12 43.29 8.21 43.33 8.25 43.46 8.25 43.9"/><polygon class="a" points="8.66 43.82 8.61 43.87 8.66 43.9 8.69 43.87 8.66 43.82"/><path class="a" d="M9,42.8l.1.09a1,1,0,0,1,0,1.24l-.1.1"/><polygon class="a" points="32.14 33.47 32.18 33.6 32.31 33.69 32.53 33.73 32.67 33.73 32.89 33.69 33.02 33.6 33.06 33.47 33.06 33.38 33.02 33.24 32.89 33.16 32.67 33.11 32.53 33.11 32.31 33.16 32.18 33.24 32.14 33.38 32.14 33.47"/><polygon class="a" points="32.97 32.76 33.02 32.8 33.06 32.76 33.02 32.72 32.97 32.76"/><polyline class="a" points="32.45 31.84 32.58 31.87 32.67 31.97 32.72 32.09 32.72 32.14 32.67 32.28 32.58 32.36 32.45 32.41 32.4 32.41 32.27 32.36 32.18 32.28 32.14 32.14 32.14 32.09 32.18 31.97 32.27 31.87 32.45 31.84 32.67 31.84 32.89 31.87 33.02 31.97 33.06 32.09 33.06 32.19 33.02 32.31 32.94 32.36"/><polyline class="a" points="32.14 30.99 32.14 31.43 32.53 31.48 32.49 31.43 32.45 31.31 32.45 31.18 32.49 31.04 32.58 30.96 32.72 30.91 32.8 30.91 32.94 30.96 33.02 31.04 33.06 31.18 33.06 31.31 33.02 31.43 32.97 31.48 32.89 31.53"/><polygon class="a" points="34.27 33.47 34.31 33.6 34.44 33.69 34.66 33.73 34.8 33.73 35.02 33.69 35.15 33.6 35.19 33.47 35.19 33.38 35.15 33.24 35.02 33.16 34.8 33.11 34.66 33.11 34.44 33.16 34.31 33.24 34.27 33.38 34.27 33.47"/><polygon class="a" points="35.1 32.76 35.15 32.8 35.19 32.76 35.15 32.72 35.1 32.76"/><polygon class="a" points="34.27 32.19 34.31 32.31 34.39 32.36 34.49 32.36 34.58 32.31 34.61 32.23 34.66 32.06 34.71 31.92 34.8 31.84 34.88 31.79 35.02 31.79 35.1 31.84 35.15 31.87 35.19 32.01 35.19 32.19 35.15 32.31 35.1 32.36 35.02 32.41 34.88 32.41 34.8 32.36 34.71 32.28 34.66 32.14 34.61 31.97 34.58 31.87 34.49 31.84 34.39 31.84 34.31 31.87 34.27 32.01 34.27 32.19"/><polygon class="a" points="34.27 31.31 34.31 31.43 34.39 31.48 34.49 31.48 34.58 31.43 34.61 31.35 34.66 31.18 34.71 31.04 34.8 30.96 34.88 30.91 35.02 30.91 35.1 30.96 35.15 30.99 35.19 31.13 35.19 31.31 35.15 31.43 35.1 31.48 35.02 31.53 34.88 31.53 34.8 31.48 34.71 31.4 34.66 31.26 34.61 31.09 34.58 30.99 34.49 30.96 34.39 30.96 34.31 30.99 34.27 31.13 34.27 31.31"/><polygon class="a" points="36.2 33.33 36.24 33.47 36.37 33.55 36.59 33.6 36.73 33.6 36.95 33.55 37.08 33.47 37.12 33.33 37.12 33.24 37.08 33.11 36.95 33.02 36.73 32.98 36.59 32.98 36.37 33.02 36.24 33.11 36.2 33.24 36.2 33.33"/><polygon class="a" points="37.03 32.63 37.08 32.67 37.12 32.63 37.08 32.58 37.03 32.63"/><path class="a" d="M36.2,32.06l0,.14.08,0h.1l.09,0,0-.1,0-.17,0-.13.08-.09.09,0H37l.08,0,0,0,0,.12v.18l0,.14c-.64.43-.35-.77-.84-.44l0,.12Z"/><polyline class="a" points="36.38 31.26 36.33 31.18 36.2 31.04 37.12 31.04"/><line class="a" x1="4.25" y1="24.51" x2="6.49" y2="24.51"/><polygon class="a" points="8.73 24.51 6.49 25.9 6.49 24.51 8.73 24.51"/><line class="a" x1="8.36" y1="24.74" x2="8.6" y2="24.51"/><line class="a" x1="6.61" y1="25.83" x2="7.95" y2="24.51"/><line class="a" x1="6.49" y1="25.3" x2="7.29" y2="24.51"/><line class="a" x1="6.49" y1="24.64" x2="6.64" y2="24.51"/><line class="a" x1="7.54" y1="25.24" x2="6.81" y2="24.51"/><line class="a" x1="7.14" y1="25.5" x2="6.49" y2="24.85"/><line class="a" x1="6.75" y1="25.76" x2="6.49" y2="25.5"/><line class="a" x1="7.95" y1="25" x2="7.46" y2="24.51"/><line class="a" x1="8.35" y1="24.74" x2="8.12" y2="24.51"/><line class="a" x1="4.25" y1="24.51" x2="6.49" y2="25.9"/><path class="a" d="M1.79,22.6l-.11.06-.11.11a.7.7,0,0,0,.22,1H2l.12-.06a.72.72,0,0,0,0-1.05L2,22.6Z"/><line class="a" x1="1.96" y1="23.55" x2="2.29" y2="23.88"/><line class="a" x1="2.67" y1="23.26" x2="2.67" y2="23.77"/><polyline class="a" points="2.67 23.48 2.71 23.37 2.78 23.3 2.84 23.26 2.95 23.26"/><rect class="a" x="3.11" y="23.01" width="0.05" height="0.05" transform="translate(-15.37 8.96) rotate(-44.98)"/><line class="a" x1="3.14" y1="23.3" x2="3.14" y2="23.77"/><polyline class="a" points="3.65 23 3.58 23 3.5 23.04 3.47 23.15 3.47 23.77"/><line class="a" x1="3.36" y1="23.26" x2="3.62" y2="23.26"/><line class="a" x1="3.95" y1="23.1" x2="4.96" y2="23.1"/><line class="a" x1="3.95" y1="23.44" x2="4.96" y2="23.44"/><polyline class="a" points="5.51 22.82 5.62 22.77 5.79 22.6 5.79 23.77"/><polygon class="a" points="6.75 22.6 6.58 22.66 6.53 22.77 6.53 22.88 6.58 22.99 6.69 23.05 6.92 23.1 7.08 23.16 7.19 23.27 7.25 23.38 7.25 23.55 7.19 23.66 7.14 23.71 6.97 23.77 6.75 23.77 6.58 23.71 6.53 23.66 6.47 23.55 6.47 23.38 6.53 23.27 6.64 23.16 6.8 23.1 7.03 23.05 7.14 22.99 7.19 22.88 7.19 22.77 7.14 22.66 6.97 22.6 6.75 22.6"/><polygon class="a" points="7.92 22.6 7.75 22.66 7.64 22.82 7.58 23.1 7.58 23.27 7.64 23.55 7.75 23.71 7.92 23.77 8.03 23.77 8.2 23.71 8.31 23.55 8.36 23.27 8.36 23.1 8.31 22.82 8.2 22.66 8.03 22.6 7.92 22.6"/><line class="a" x1="9.93" y1="22.99" x2="9.93" y2="23.77"/><polyline class="a" points="9.93 23.21 10.1 23.05 10.21 22.99 10.38 22.99 10.49 23.05 10.55 23.21 10.55 23.77"/><polyline class="a" points="10.55 23.21 10.71 23.05 10.82 22.99 10.99 22.99 11.11 23.05 11.17 23.21 11.17 23.77"/><polyline class="a" points="13.34 23.16 13.29 23.05 13.12 22.99 12.95 22.99 12.78 23.05 12.73 23.16 12.78 23.27 12.9 23.32 13.17 23.38 13.29 23.44 13.34 23.55 13.34 23.6 13.29 23.71 13.12 23.77 12.95 23.77 12.78 23.71 12.73 23.6"/><polygon class="a" points="13.8 23.66 13.74 23.71 13.8 23.77 13.85 23.71 13.8 23.66"/><line class="a" x1="14.3" y1="22.6" x2="14.3" y2="23.77"/><polygon class="a" points="14.8 23.66 14.74 23.71 14.8 23.77 14.85 23.71 14.8 23.66"/><line class="a" x1="15.3" y1="22.99" x2="15.3" y2="23.77"/><polyline class="a" points="15.3 23.21 15.47 23.05 15.58 22.99 15.76 22.99 15.87 23.05 15.91 23.21 15.91 23.77"/><polyline class="a" points="15.91 23.21 16.09 23.05 16.2 22.99 16.37 22.99 16.48 23.05 16.54 23.21 16.54 23.77"/><polygon class="a" points="17.04 23.66 16.98 23.71 17.04 23.77 17.09 23.71 17.04 23.66"/><line class="a" x1="37.6" y1="25.9" x2="37.6" y2="1.43"/><line class="a" x1="31.5" y1="25.9" x2="31.5" y2="4.25"/><line class="a" x1="1.47" y1="25.9" x2="140.86" y2="25.9"/><line class="a" x1="121.67" y1="25.9" x2="121.67" y2="6.52"/><line class="b" x1="37.11" y1="1.92" x2="38.1" y2="0.94"/><line class="b" x1="38.1" y1="1.92" x2="37.11" y2="0.94"/><line class="b" x1="28.84" y1="2.42" x2="29.82" y2="1.44"/><line class="b" x1="29.82" y1="2.42" x2="28.84" y2="1.44"/><line class="c" x1="35.24" y1="4.87" x2="36.22" y2="3.89"/><line class="c" x1="36.22" y1="4.87" x2="35.24" y2="3.89"/><line class="c" x1="31" y1="4.74" x2="31.99" y2="3.75"/><line class="c" x1="31.99" y1="4.74" x2="31" y2="3.75"/><line class="d" x1="33.69" y1="3.68" x2="33.69" y2="5.07"/><path class="d" d="M33,4.38h1.39l0-.18L34.29,4A.69.69,0,0,0,33,4.19l0,.18,0,.18a.69.69,0,0,0,1.27.16l.07-.16,0-.18"/></svg>