<svg xmlns="http://www.w3.org/2000/svg" viewBox="0 0 320.65 104.59"><defs><style>.a,.b,.c,.d,.e{fill:none;stroke-linecap:round;stroke-linejoin:round;stroke-width:0.25px;}.a{stroke:#000;}.b{stroke:red;}.c{stroke:blue;}.d{stroke:#00bfff;}.e{stroke:#00b800;}</style></defs><title>Tavola disegno 4</title><line class="a" x1="296.13" y1="93.47" x2="296.13" y2="93.46"/><line class="a" x1="297.7" y1="86.98" x2="297.7" y2="86.96"/><line class="a" x1="299.44" y1="79.99" x2="299.44" y2="79.98"/><line class="a" x1="300.72" y1="72.5" x2="300.72" y2="72.49"/><line class="a" x1="301.39" y1="65.11" x2="301.39" y2="65.09"/><line class="a" x1="301.8" y1="62.24" x2="301.8" y2="62.22"/><line class="a" x1="301.52" y1="54.97" x2="301.52" y2="54.96"/><line class="a" x1="300.92" y1="48" x2="300.92" y2="47.98"/><line class="a" x1="300.21" y1="42.43" x2="300.21" y2="42.42"/><line class="a" x1="298.64" y1="30.29" x2="298.64" y2="30.27"/><line class="a" x1="297.38" y1="25.03" x2="297.38" y2="25.02"/><line class="a" x1="296.34" y1="21.58" x2="296.34" y2="21.57"/><line class="a" x1="294.28" y1="15.7" x2="294.28" y2="15.68"/><line class="a" x1="292.14" y1="10.28" x2="292.14" y2="10.27"/><line class="a" x1="296.95" y1="25.79" x2="296.95" y2="25.77"/><line class="a" x1="297.3" y1="26.72" x2="297.3" y2="26.71"/><line class="a" x1="297.51" y1="27.6" x2="297.51" y2="27.58"/><line class="a" x1="297.73" y1="28.48" x2="297.73" y2="28.47"/><line class="a" x1="297.66" y1="29.02" x2="297.66" y2="29.01"/><line class="a" x1="297.62" y1="30.74" x2="297.62" y2="30.73"/><line class="a" x1="297.68" y1="32.15" x2="297.68" y2="32.14"/><line class="a" x1="298.21" y1="34.08" x2="298.21" y2="34.06"/><line class="a" x1="296.02" y1="25.56" x2="296.02" y2="25.54"/><line class="a" x1="296.55" y1="24.65" x2="296.55" y2="24.64"/><line class="a" x1="296.06" y1="23.27" x2="296.06" y2="23.26"/><line class="a" x1="295.23" y1="21.51" x2="295.23" y2="21.49"/><line class="a" x1="240.19" y1="37.5" x2="240.19" y2="37.48"/><line class="a" x1="240.39" y1="40.64" x2="240.39" y2="40.63"/><line class="a" x1="240.62" y1="43.73" x2="240.62" y2="43.72"/><line class="a" x1="240.74" y1="47.63" x2="240.74" y2="47.62"/><line class="a" x1="240.99" y1="52.6" x2="240.99" y2="52.58"/><line class="a" x1="241.5" y1="57.01" x2="241.5" y2="57"/><line class="a" x1="241.66" y1="61.93" x2="241.66" y2="61.92"/><line class="a" x1="241.69" y1="66.96" x2="241.69" y2="66.94"/><line class="a" x1="241.57" y1="71.65" x2="241.57" y2="71.63"/><line class="a" x1="241.4" y1="76.39" x2="241.4" y2="76.38"/><line class="a" x1="241.21" y1="80.82" x2="241.21" y2="80.81"/><line class="a" x1="240.84" y1="85.35" x2="240.84" y2="85.33"/><line class="a" x1="240.59" y1="90.18" x2="240.59" y2="90.17"/><line class="a" x1="194.67" y1="39.93" x2="194.67" y2="39.91"/><line class="a" x1="194.59" y1="44.33" x2="194.59" y2="44.31"/><line class="a" x1="194.59" y1="48.91" x2="194.59" y2="48.9"/><line class="a" x1="194.52" y1="53.85" x2="194.52" y2="53.84"/><line class="a" x1="194.36" y1="59.47" x2="194.36" y2="59.46"/><line class="a" x1="193.66" y1="65.47" x2="193.66" y2="65.46"/><line class="a" x1="193.2" y1="70.82" x2="193.2" y2="70.8"/><line class="a" x1="192.92" y1="76.16" x2="192.92" y2="76.15"/><line class="a" x1="192.05" y1="81.58" x2="192.05" y2="81.56"/><line class="a" x1="191.64" y1="87.01" x2="191.64" y2="86.99"/><line class="a" x1="191.26" y1="91.25" x2="191.26" y2="91.23"/><line class="a" x1="190.68" y1="96.68" x2="190.68" y2="96.66"/><line class="a" x1="194.39" y1="36.8" x2="194.39" y2="36.78"/><line class="a" x1="194.07" y1="38.01" x2="194.07" y2="37.99"/><line class="a" x1="195.06" y1="32.74" x2="195.06" y2="32.72"/><line class="a" x1="194.84" y1="30.1" x2="194.84" y2="30.09"/><line class="a" x1="146.24" y1="36" x2="146.24" y2="35.98"/><line class="a" x1="146.29" y1="41.04" x2="146.29" y2="41.02"/><line class="a" x1="146.38" y1="46.64" x2="146.38" y2="46.63"/><line class="a" x1="146.37" y1="52.73" x2="146.37" y2="52.71"/><line class="a" x1="146.34" y1="58.19" x2="146.34" y2="58.18"/><line class="a" x1="146.08" y1="64.79" x2="146.08" y2="64.77"/><line class="a" x1="145.73" y1="70.54" x2="145.73" y2="70.52"/><line class="a" x1="145.42" y1="76.77" x2="145.42" y2="76.76"/><line class="a" x1="145.1" y1="83.4" x2="145.1" y2="83.38"/><line class="a" x1="144.91" y1="90.15" x2="144.91" y2="90.14"/><line class="a" x1="144.81" y1="94.67" x2="144.81" y2="94.65"/><line class="a" x1="143.7" y1="30.35" x2="143.7" y2="30.33"/><line class="a" x1="141.93" y1="27.97" x2="141.93" y2="27.96"/><line class="a" x1="141.85" y1="27.48" x2="141.85" y2="27.46"/><line class="a" x1="142" y1="28.37" x2="142" y2="28.35"/><line class="a" x1="142" y1="35.6" x2="142" y2="35.59"/><line class="a" x1="103.25" y1="34.53" x2="103.25" y2="34.51"/><line class="a" x1="102.71" y1="39.59" x2="102.71" y2="39.58"/><line class="a" x1="102.54" y1="45.19" x2="102.54" y2="45.17"/><line class="a" x1="102.55" y1="50.91" x2="102.55" y2="50.89"/><line class="a" x1="102.79" y1="57.29" x2="102.79" y2="57.27"/><line class="a" x1="102.55" y1="62.92" x2="102.55" y2="62.91"/><line class="a" x1="102.25" y1="68.57" x2="102.25" y2="68.56"/><line class="a" x1="102.25" y1="74.33" x2="102.25" y2="74.31"/><line class="a" x1="101.88" y1="81.69" x2="101.88" y2="81.68"/><line class="a" x1="101.88" y1="87.14" x2="101.88" y2="87.13"/><line class="a" x1="102.1" y1="94.2" x2="102.1" y2="94.19"/><line class="a" x1="102.03" y1="100.36" x2="102.03" y2="100.35"/><line class="a" x1="101.04" y1="29.84" x2="101.04" y2="29.82"/><line class="a" x1="101.56" y1="26.78" x2="101.56" y2="26.77"/><line class="a" x1="101.52" y1="28.24" x2="101.52" y2="28.22"/><line class="a" x1="64.2" y1="27.46" x2="64.2" y2="27.45"/><line class="a" x1="64.17" y1="27.49" x2="64.17" y2="27.48"/><line class="a" x1="65.19" y1="25.27" x2="65.19" y2="25.25"/><line class="a" x1="65.16" y1="23.82" x2="65.16" y2="23.81"/><line class="a" x1="65.07" y1="22.43" x2="65.07" y2="22.41"/><line class="a" x1="65.25" y1="21.06" x2="65.25" y2="21.04"/><line class="a" x1="65.19" y1="20.08" x2="65.19" y2="20.07"/><line class="a" x1="64.91" y1="18.96" x2="64.91" y2="18.95"/><line class="a" x1="63.64" y1="30.48" x2="63.64" y2="30.46"/><line class="a" x1="63.5" y1="35.95" x2="63.5" y2="35.94"/><line class="a" x1="63.27" y1="42.81" x2="63.27" y2="42.8"/><line class="a" x1="63.06" y1="50.6" x2="63.06" y2="50.59"/><line class="a" x1="63.25" y1="58.07" x2="63.25" y2="58.06"/><line class="a" x1="63.54" y1="65.37" x2="63.54" y2="65.35"/><line class="a" x1="63.92" y1="72.62" x2="63.92" y2="72.61"/><line class="a" x1="64.49" y1="80.34" x2="64.49" y2="80.32"/><line class="a" x1="64.63" y1="88.14" x2="64.63" y2="88.13"/><line class="a" x1="17.91" y1="28.12" x2="17.91" y2="28.1"/><line class="a" x1="18.18" y1="35.23" x2="18.18" y2="35.21"/><line class="a" x1="17.4" y1="42.11" x2="17.4" y2="42.1"/><line class="a" x1="17.03" y1="49.02" x2="17.03" y2="49"/><line class="a" x1="16.09" y1="56.84" x2="16.09" y2="56.82"/><line class="a" x1="15.52" y1="64.22" x2="15.52" y2="64.2"/><line class="a" x1="15.07" y1="72.07" x2="15.07" y2="72.05"/><line class="a" x1="14.6" y1="79.7" x2="14.6" y2="79.68"/><line class="a" x1="14.21" y1="88.1" x2="14.21" y2="88.09"/><line class="a" x1="17.56" y1="23.3" x2="17.56" y2="23.28"/><line class="a" x1="17.8" y1="21.13" x2="17.8" y2="21.12"/><line class="a" x1="20.75" y1="16.47" x2="20.75" y2="16.46"/><line class="a" x1="18.94" y1="18.57" x2="18.94" y2="18.55"/><line class="a" x1="16.99" y1="24.09" x2="16.99" y2="24.07"/><line class="a" x1="258.33" y1="15.38" x2="258.33" y2="15.36"/><line class="a" x1="205.18" y1="15.45" x2="205.18" y2="15.44"/><line class="a" x1="204.79" y1="18.44" x2="204.79" y2="18.42"/><line class="a" x1="204.93" y1="21.51" x2="204.93" y2="21.49"/><line class="a" x1="204.74" y1="26.33" x2="204.74" y2="26.31"/><line class="a" x1="148.77" y1="13.7" x2="148.77" y2="13.69"/><line class="a" x1="148.51" y1="16.6" x2="148.51" y2="16.59"/><line class="a" x1="148.17" y1="19.95" x2="148.17" y2="19.94"/><line class="a" x1="72.53" y1="6.68" x2="72.53" y2="6.67"/><line class="a" x1="72.02" y1="8.69" x2="72.02" y2="8.68"/><line class="a" x1="71.64" y1="11.43" x2="71.64" y2="11.42"/><line class="a" x1="71.25" y1="14.5" x2="71.25" y2="14.49"/><line class="a" x1="71.16" y1="15.73" x2="71.16" y2="15.71"/><line class="a" x1="70.98" y1="16.83" x2="70.98" y2="16.82"/><line class="a" x1="70.71" y1="17.78" x2="70.71" y2="17.77"/><line class="a" x1="70.72" y1="18.42" x2="70.72" y2="18.41"/><line class="a" x1="70.71" y1="19.19" x2="70.71" y2="19.18"/><line class="a" x1="70.56" y1="19.86" x2="70.56" y2="19.85"/><line class="a" x1="70.42" y1="20.52" x2="70.42" y2="20.5"/><line class="a" x1="70.3" y1="21.38" x2="70.3" y2="21.36"/><line class="a" x1="70.18" y1="22.82" x2="70.18" y2="22.8"/><line class="a" x1="70.07" y1="24.73" x2="70.07" y2="24.71"/><line class="a" x1="69.57" y1="27.58" x2="69.57" y2="27.57"/><line class="a" x1="68.89" y1="32.21" x2="68.89" y2="32.2"/><line class="a" x1="68.71" y1="36.94" x2="68.71" y2="36.93"/><line class="a" x1="68.2" y1="43.18" x2="68.2" y2="43.16"/><line class="a" x1="67.88" y1="50.25" x2="67.88" y2="50.24"/><line class="a" x1="68.06" y1="56.98" x2="68.06" y2="56.97"/><line class="a" x1="68.58" y1="64.44" x2="68.58" y2="64.42"/><line class="a" x1="68.27" y1="77.05" x2="68.27" y2="77.03"/><line class="a" x1="19.9" x2="19.9" y2="-0.01"/><line class="a" x1="19.48" y1="3.09" x2="19.48" y2="3.07"/><line class="a" x1="21.94" y1="5.23" x2="21.94" y2="5.21"/><line class="b" x1="240.59" y1="90.18" x2="240.01" y2="16.11"/><line class="c" x1="19.09" y1="15.95" x2="70.56" y2="19.86"/><polyline class="d" points="19.09 15.95 70.56 19.86 101.52 28.24 148.48 28.98 194.55 32.04 240.11 29.69"/><line class="d" x1="19.25" y1="12.79" x2="70.98" y2="16.83"/><polyline class="d" points="148.57 25.8 194.65 29.66 240.11 27.11"/><line class="b" x1="190.68" y1="96.68" x2="195.4" y2="17.3"/><polyline class="d" points="70.98 16.83 101.87 23.72 148.57 25.8"/><line class="b" x1="68.27" y1="77.05" x2="71.17" y2="8.2"/><line class="b" x1="100.4" y1="102.79" x2="102.03" y2="14.5"/><line class="b" x1="146.88" y1="94.77" x2="148.76" y2="16.67"/><line class="b" x1="15.96" y1="75.85" x2="19.74" y2="3.44"/><line class="b" x1="293.98" y1="14.3" x2="312.89" y2="89.09"/><polyline class="a" points="2.88 13.47 16.3 14.34 15.04 12.92"/><line class="a" x1="16.31" y1="14.34" x2="14.86" y2="15.61"/><line class="a" x1="194.55" y1="32.04" x2="194.55" y2="32.02"/><line class="a" x1="148.48" y1="28.98" x2="148.48" y2="28.96"/><line class="a" x1="70.56" y1="19.86" x2="70.56" y2="19.85"/><polyline class="e" points="18.93 11.14 71.25 14.5 102.19 21.39 148.48 23.21 194.94 27.36"/><polyline class="e" points="18.95 18.57 70.3 21.38 101.04 29.84 148.32 30.36 194.94 32.9"/><line class="a" x1="239.82" y1="25.91" x2="239.82" y2="25.89"/><polyline class="e" points="194.94 27.36 239.82 25.91 296.86 25.54"/><polyline class="e" points="194.94 32.9 240.13 30.81 297.66 29.02"/><line class="d" x1="240.11" y1="29.69" x2="297.73" y2="28.48"/><line class="d" x1="240.11" y1="27.11" x2="296.95" y2="25.79"/><line class="a" x1="297.66" y1="29.02" x2="297.66" y2="29.01"/><polyline class="b" points="303.86 81.46 304.56 80.78 304.56 84.9"/><line class="b" x1="303.86" y1="84.9" x2="305.25" y2="84.9"/><line class="c" x1="18.05" y1="15.95" x2="20.12" y2="15.95"/><line class="c" x1="19.09" y1="14.91" x2="19.09" y2="16.98"/><path class="c" d="M20.12,15.95l0-.23L20,15.49a1,1,0,0,0-1.94.22l0,.23,0,.23A1,1,0,0,0,20,16.4l.07-.22Z"/><line class="c" x1="69.53" y1="19.86" x2="71.59" y2="19.86"/><line class="c" x1="70.56" y1="18.83" x2="70.56" y2="20.9"/><path class="c" d="M71.59,19.86l0-.23-.07-.22a1,1,0,0,0-1.94.22l0,.23,0,.23a1,1,0,0,0,1.94.22l.07-.22Z"/><line class="c" x1="100.53" y1="26.78" x2="102.6" y2="26.78"/><line class="c" x1="101.56" y1="25.75" x2="101.56" y2="27.81"/><path class="c" d="M102.6,26.78l0-.22-.07-.22a1,1,0,0,0-1.94.22l0,.22,0,.23a1,1,0,0,0,1.94.22l.07-.22Z"/><line class="c" x1="147.5" y1="26.23" x2="149.56" y2="26.23"/><line class="c" x1="148.52" y1="25.19" x2="148.52" y2="27.26"/><path class="c" d="M149.56,26.23V26l-.09-.22a1,1,0,0,0-1.94.22v.47a1,1,0,0,0,1.94.2l.09-.2Z"/><line class="c" x1="193.62" y1="29.66" x2="195.69" y2="29.66"/><line class="c" x1="194.65" y1="28.63" x2="194.65" y2="30.68"/><path class="c" d="M195.69,29.66l0-.23-.07-.22a1,1,0,0,0-1.94.22l0,.23,0,.22a1,1,0,0,0,1.94.22l.07-.22Z"/><line class="c" x1="239.28" y1="28.5" x2="241.35" y2="28.5"/><line class="c" x1="240.32" y1="27.46" x2="240.32" y2="29.53"/><path class="c" d="M241.35,28.5l0-.23-.07-.22a1,1,0,0,0-1.94.22l0,.23,0,.23a1,1,0,0,0,1.94.22l.07-.22Z"/><line class="c" x1="296.48" y1="27.6" x2="298.55" y2="27.6"/><line class="c" x1="297.51" y1="26.56" x2="297.51" y2="28.63"/><path class="c" d="M298.55,27.6l0-.23-.07-.22a1,1,0,0,0-1.94.22l0,.23,0,.22a1,1,0,0,0,1.94.22l.07-.22Z"/><polyline class="a" points="25.42 3.83 25.54 3.77 25.7 3.6 25.7 4.78"/><polyline class="a" points="27.09 3.99 27.04 4.17 26.93 4.27 26.76 4.33 26.7 4.33 26.54 4.27 26.43 4.17 26.37 3.99 26.37 3.93 26.43 3.77 26.54 3.65 26.7 3.6 26.76 3.6 26.93 3.65 27.04 3.77 27.09 3.99 27.09 4.27 27.04 4.56 26.93 4.72 26.76 4.78 26.64 4.78 26.48 4.72 26.43 4.62"/><polygon class="a" points="27.82 3.6 27.66 3.65 27.55 3.83 27.49 4.11 27.49 4.27 27.55 4.56 27.66 4.72 27.82 4.78 27.94 4.78 28.1 4.72 28.22 4.56 28.27 4.27 28.27 4.11 28.22 3.83 28.1 3.65 27.94 3.6 27.82 3.6"/><polygon class="a" points="28.73 4.66 28.67 4.72 28.73 4.78 28.77 4.72 28.73 4.66"/><polyline class="a" points="29.73 3.6 29.16 4.38 30.01 4.38"/><line class="a" x1="29.73" y1="3.6" x2="29.73" y2="4.78"/><polyline class="a" points="31.01 3.99 30.95 4.17 30.85 4.27 30.68 4.33 30.62 4.33 30.46 4.27 30.34 4.17 30.28 3.99 30.28 3.93 30.34 3.77 30.46 3.65 30.62 3.6 30.68 3.6 30.85 3.65 30.95 3.77 31.01 3.99 31.01 4.27 30.95 4.56 30.85 4.72 30.68 4.78 30.56 4.78 30.4 4.72 30.34 4.62"/><line class="a" x1="32.64" y1="3.99" x2="32.64" y2="4.78"/><polyline class="a" points="32.64 4.22 32.8 4.05 32.92 3.99 33.08 3.99 33.2 4.05 33.26 4.22 33.26 4.78"/><polyline class="a" points="33.26 4.22 33.41 4.05 33.53 3.99 33.71 3.99 33.81 4.05 33.87 4.22 33.87 4.78"/><polyline class="a" points="36.05 4.17 35.99 4.05 35.83 3.99 35.66 3.99 35.5 4.05 35.44 4.17 35.5 4.27 35.6 4.33 35.89 4.38 35.99 4.44 36.05 4.56 36.05 4.62 35.99 4.72 35.83 4.78 35.66 4.78 35.5 4.72 35.44 4.62"/><rect class="a" x="36.46" y="4.68" width="0.08" height="0.08" transform="translate(7.35 27.19) rotate(-45)"/><line class="a" x1="37" y1="3.6" x2="37" y2="4.78"/><rect class="a" x="37.47" y="4.68" width="0.08" height="0.08" transform="translate(7.65 27.9) rotate(-45)"/><line class="a" x1="38.02" y1="3.99" x2="38.02" y2="4.78"/><polyline class="a" points="38.02 4.22 38.18 4.05 38.29 3.99 38.45 3.99 38.57 4.05 38.63 4.22 38.63 4.78"/><polyline class="a" points="38.63 4.22 38.79 4.05 38.9 3.99 39.08 3.99 39.18 4.05 39.24 4.22 39.24 4.78"/><rect class="a" x="39.71" y="4.68" width="0.08" height="0.08" transform="translate(8.31 29.49) rotate(-45)"/><polyline class="a" points="26.15 7.86 26.27 7.8 26.43 7.64 26.43 8.82"/><polygon class="a" points="27.37 7.64 27.21 7.7 27.15 7.8 27.15 7.92 27.21 8.04 27.33 8.1 27.55 8.14 27.71 8.2 27.82 8.31 27.88 8.43 27.88 8.59 27.82 8.71 27.77 8.77 27.61 8.82 27.37 8.82 27.21 8.77 27.15 8.71 27.09 8.59 27.09 8.43 27.15 8.31 27.27 8.2 27.43 8.14 27.66 8.1 27.77 8.04 27.82 7.92 27.82 7.8 27.77 7.7 27.61 7.64 27.37 7.64"/><polyline class="a" points="28.94 8.04 28.89 8.2 28.78 8.31 28.61 8.37 28.55 8.37 28.39 8.31 28.27 8.2 28.22 8.04 28.22 7.98 28.27 7.8 28.39 7.7 28.55 7.64 28.61 7.64 28.78 7.7 28.89 7.8 28.94 8.04 28.94 8.31 28.89 8.59 28.78 8.77 28.61 8.82 28.49 8.82 28.33 8.77 28.27 8.65"/><polygon class="a" points="29.45 8.71 29.4 8.77 29.45 8.82 29.5 8.77 29.45 8.71"/><polyline class="a" points="30.12 8.82 30.68 7.64 29.89 7.64"/><polyline class="a" points="31.74 8.04 31.68 8.2 31.58 8.31 31.41 8.37 31.35 8.37 31.19 8.31 31.07 8.2 31.01 8.04 31.01 7.98 31.07 7.8 31.19 7.7 31.35 7.64 31.41 7.64 31.58 7.7 31.68 7.8 31.74 8.04 31.74 8.31 31.68 8.59 31.58 8.77 31.41 8.82 31.29 8.82 31.13 8.77 31.07 8.65"/><line class="a" x1="33.37" y1="8.04" x2="33.37" y2="8.82"/><polyline class="a" points="33.37 8.26 33.53 8.1 33.65 8.04 33.81 8.04 33.92 8.1 33.98 8.26 33.98 8.82"/><polyline class="a" points="33.98 8.26 34.14 8.1 34.26 8.04 34.43 8.04 34.54 8.1 34.59 8.26 34.59 8.82"/><polyline class="a" points="36.78 8.2 36.72 8.1 36.56 8.04 36.38 8.04 36.23 8.1 36.17 8.2 36.23 8.31 36.33 8.37 36.62 8.43 36.72 8.49 36.78 8.59 36.78 8.65 36.72 8.77 36.56 8.82 36.38 8.82 36.23 8.77 36.17 8.65"/><rect class="a" x="37.19" y="8.73" width="0.08" height="0.08" transform="translate(4.71 28.89) rotate(-45)"/><line class="a" x1="37.72" y1="7.65" x2="37.72" y2="8.82"/><rect class="a" x="38.19" y="8.73" width="0.08" height="0.08" transform="translate(5 29.6) rotate(-45)"/><line class="a" x1="38.74" y1="8.04" x2="38.74" y2="8.82"/><polyline class="a" points="38.74 8.26 38.9 8.1 39.02 8.04 39.18 8.04 39.3 8.1 39.36 8.26 39.36 8.82"/><polyline class="a" points="39.36 8.26 39.52 8.1 39.63 8.04 39.81 8.04 39.91 8.1 39.97 8.26 39.97 8.82"/><rect class="a" x="40.44" y="8.73" width="0.08" height="0.08" transform="translate(5.66 31.19) rotate(-45)"/><polyline class="a" points="25 21.71 25.11 21.65 25.29 21.48 25.29 22.66"/><path class="a" d="M26.24,21.48l-.17.06,0,.12v.1l0,.12.12.06.22.06.17.06.12.1.06.12v.17l-.06.1-.06.06-.17.06h-.22l-.17-.06c-.53-.83,1-.42.57-1.06l-.17-.06Z"/><polyline class="a" points="27.81 21.87 27.75 22.05 27.63 22.15 27.47 22.21 27.41 22.21 27.24 22.15 27.12 22.05 27.08 21.87 27.08 21.81 27.12 21.65 27.24 21.54 27.41 21.48 27.47 21.48 27.63 21.54 27.75 21.65 27.81 21.87 27.81 22.15 27.75 22.44 27.63 22.6 27.47 22.66 27.36 22.66 27.18 22.6 27.12 22.48"/><rect class="a" x="28.26" y="22.56" width="0.08" height="0.08" transform="translate(-7.69 26.63) rotate(-45)"/><polyline class="a" points="29.48 21.65 29.43 21.54 29.25 21.48 29.15 21.48 28.97 21.54 28.87 21.71 28.81 21.99 28.81 22.27 28.87 22.48 28.97 22.6 29.15 22.66 29.21 22.66 29.37 22.6 29.48 22.48 29.54 22.32 29.54 22.27 29.48 22.11 29.37 21.99 29.21 21.93 29.15 21.93 28.97 21.99 28.87 22.11 28.81 22.27"/><polyline class="a" points="30.6 21.87 30.55 22.05 30.43 22.15 30.27 22.21 30.21 22.21 30.04 22.15 29.93 22.05 29.88 21.87 29.88 21.81 29.93 21.65 30.04 21.54 30.21 21.48 30.27 21.48 30.43 21.54 30.55 21.65 30.6 21.87 30.6 22.15 30.55 22.44 30.43 22.6 30.27 22.66 30.15 22.66 29.98 22.6 29.93 22.48"/><line class="a" x1="32.22" y1="21.87" x2="32.22" y2="22.66"/><polyline class="a" points="32.22 22.11 32.4 21.93 32.5 21.87 32.67 21.87 32.79 21.93 32.83 22.11 32.83 22.66"/><polyline class="a" points="32.83 22.11 33.01 21.93 33.12 21.87 33.28 21.87 33.4 21.93 33.46 22.11 33.46 22.66"/><polyline class="a" points="35.64 22.05 35.58 21.93 35.41 21.87 35.25 21.87 35.08 21.93 35.02 22.05 35.08 22.15 35.19 22.21 35.47 22.27 35.58 22.32 35.64 22.44 35.64 22.48 35.58 22.6 35.41 22.66 35.25 22.66 35.08 22.6 35.02 22.48"/><polygon class="a" points="36.08 22.54 36.04 22.6 36.08 22.66 36.14 22.6 36.08 22.54"/><line class="a" x1="36.59" y1="21.48" x2="36.59" y2="22.66"/><polygon class="a" points="37.1 22.54 37.04 22.6 37.1 22.66 37.14 22.6 37.1 22.54"/><line class="a" x1="37.59" y1="21.87" x2="37.59" y2="22.66"/><polyline class="a" points="37.59 22.11 37.77 21.93 37.87 21.87 38.05 21.87 38.16 21.93 38.2 22.11 38.2 22.66"/><polyline class="a" points="38.2 22.11 38.38 21.93 38.5 21.87 38.66 21.87 38.77 21.93 38.83 22.11 38.83 22.66"/><rect class="a" x="39.29" y="22.56" width="0.08" height="0.08" transform="translate(-4.46 34.43) rotate(-45)"/><polyline class="a" points="21.3 25.15 21.42 25.09 21.59 24.92 21.59 26.09"/><polyline class="a" points="22.99 25.31 22.93 25.48 22.81 25.59 22.65 25.64 22.6 25.64 22.42 25.59 22.32 25.48 22.26 25.31 22.26 25.25 22.32 25.09 22.42 24.97 22.6 24.92 22.65 24.92 22.81 24.97 22.93 25.09 22.99 25.31 22.99 25.59 22.93 25.88 22.81 26.04 22.65 26.09 22.54 26.09 22.36 26.04 22.32 25.92"/><polygon class="a" points="23.72 24.92 23.54 24.97 23.43 25.15 23.38 25.43 23.38 25.59 23.43 25.88 23.54 26.04 23.72 26.09 23.82 26.09 23.99 26.04 24.11 25.88 24.15 25.59 24.15 25.43 24.11 25.15 23.99 24.97 23.82 24.92 23.72 24.92"/><rect class="a" x="24.56" y="26" width="0.08" height="0.08" transform="translate(-11.2 25.02) rotate(-45)"/><polyline class="a" points="25.27 26.09 25.84 24.92 25.06 24.92"/><polyline class="a" points="26.91 25.09 26.85 24.97 26.67 24.92 26.57 24.92 26.4 24.97 26.28 25.15 26.24 25.43 26.24 25.7 26.28 25.92 26.4 26.04 26.57 26.09 26.61 26.09 26.79 26.04 26.91 25.92 26.96 25.76 26.96 25.7 26.91 25.54 26.79 25.43 26.61 25.37 26.57 25.37 26.4 25.43 26.28 25.54 26.24 25.7"/><line class="a" x1="28.52" y1="25.31" x2="28.52" y2="26.1"/><polyline class="a" points="28.52 25.54 28.7 25.37 28.8 25.31 28.97 25.31 29.09 25.37 29.13 25.54 29.13 26.09"/><polyline class="a" points="29.13 25.54 29.31 25.37 29.43 25.31 29.59 25.31 29.7 25.37 29.76 25.54 29.76 26.09"/><polyline class="a" points="31.94 25.48 31.89 25.37 31.71 25.31 31.55 25.31 31.38 25.37 31.32 25.48 31.38 25.59 31.49 25.64 31.77 25.7 31.89 25.76 31.94 25.88 31.94 25.92 31.89 26.04 31.71 26.09 31.55 26.09 31.38 26.04 31.32 25.92"/><rect class="a" x="32.34" y="26" width="0.08" height="0.08" transform="translate(-8.93 30.52) rotate(-45)"/><line class="a" x1="32.89" y1="24.92" x2="32.89" y2="26.1"/><polygon class="a" points="33.39 25.98 33.34 26.04 33.39 26.09 33.44 26.04 33.39 25.98"/><line class="a" x1="33.9" y1="25.31" x2="33.9" y2="26.1"/><polyline class="a" points="33.9 25.54 34.07 25.37 34.17 25.31 34.35 25.31 34.46 25.37 34.51 25.54 34.51 26.09"/><polyline class="a" points="34.51 25.54 34.68 25.37 34.8 25.31 34.96 25.31 35.08 25.37 35.13 25.54 35.13 26.09"/><rect class="a" x="35.59" y="26" width="0.08" height="0.08" transform="translate(-7.98 32.82) rotate(-45)"/><polyline class="a" points="74.16 7.91 74.26 7.85 74.43 7.69 74.43 8.85"/><polyline class="a" points="75.83 8.07 75.77 8.24 75.66 8.36 75.5 8.4 75.44 8.4 75.26 8.36 75.16 8.24 75.1 8.07 75.1 8.02 75.16 7.85 75.26 7.73 75.44 7.69 75.5 7.69 75.66 7.73 75.77 7.85 75.83 8.07 75.83 8.36 75.77 8.63 75.66 8.79 75.5 8.85 75.38 8.85 75.22 8.79 75.16 8.69"/><polygon class="a" points="76.56 7.69 76.39 7.73 76.28 7.91 76.22 8.18 76.22 8.36 76.28 8.63 76.39 8.8 76.56 8.85 76.68 8.85 76.84 8.8 76.95 8.63 77.01 8.36 77.01 8.18 76.95 7.91 76.84 7.73 76.68 7.69 76.56 7.69"/><polygon class="a" points="77.45 8.75 77.41 8.79 77.45 8.85 77.51 8.79 77.45 8.75"/><polygon class="a" points="78.18 7.69 78.02 7.73 77.96 7.85 77.96 7.96 78.02 8.07 78.12 8.13 78.35 8.18 78.51 8.24 78.63 8.36 78.69 8.46 78.69 8.63 78.63 8.75 78.57 8.8 78.41 8.85 78.18 8.85 78.02 8.8 77.96 8.75 77.9 8.63 77.9 8.46 77.96 8.36 78.08 8.24 78.23 8.18 78.47 8.13 78.57 8.07 78.63 7.96 78.63 7.85 78.57 7.73 78.41 7.69 78.18 7.69"/><path class="a" d="M79.69,7.69h-.55l-.06.5.06-.06c1-.38.83,1.15-.06.63L79,8.64"/><line class="a" x1="81.37" y1="8.07" x2="81.37" y2="8.85"/><polyline class="a" points="81.37 8.3 81.54 8.13 81.66 8.07 81.82 8.07 81.93 8.13 81.99 8.3 81.99 8.85"/><polyline class="a" points="81.99 8.3 82.15 8.13 82.27 8.07 82.43 8.07 82.55 8.13 82.6 8.3 82.6 8.85"/><polyline class="a" points="84.79 8.24 84.73 8.13 84.55 8.07 84.39 8.07 84.22 8.13 84.18 8.24 84.22 8.36 84.34 8.4 84.61 8.46 84.73 8.52 84.79 8.63 84.79 8.69 84.73 8.79 84.55 8.85 84.39 8.85 84.22 8.79 84.18 8.69"/><polygon class="a" points="85.24 8.75 85.18 8.79 85.24 8.85 85.28 8.79 85.24 8.75"/><line class="a" x1="85.73" y1="7.69" x2="85.73" y2="8.85"/><polygon class="a" points="86.24 8.75 86.19 8.79 86.24 8.85 86.3 8.79 86.24 8.75"/><line class="a" x1="86.74" y1="8.07" x2="86.74" y2="8.85"/><polyline class="a" points="86.74 8.3 86.91 8.13 87.03 8.07 87.19 8.07 87.31 8.13 87.36 8.3 87.36 8.85"/><polyline class="a" points="87.36 8.3 87.53 8.13 87.64 8.07 87.8 8.07 87.92 8.13 87.98 8.3 87.98 8.85"/><polygon class="a" points="88.47 8.75 88.43 8.79 88.47 8.85 88.53 8.79 88.47 8.75"/><polyline class="a" points="77.01 12.45 77.11 12.39 77.29 12.22 77.29 13.4"/><polygon class="a" points="78.23 12.22 78.08 12.28 78.02 12.39 78.02 12.49 78.08 12.61 78.18 12.67 78.41 12.73 78.57 12.79 78.69 12.89 78.74 13 78.74 13.18 78.69 13.28 78.63 13.34 78.47 13.4 78.23 13.4 78.08 13.34 78.02 13.28 77.96 13.18 77.96 13 78.02 12.89 78.13 12.79 78.29 12.73 78.53 12.67 78.63 12.61 78.69 12.49 78.69 12.39 78.63 12.28 78.47 12.22 78.23 12.22"/><polyline class="a" points="79.81 12.61 79.75 12.79 79.63 12.89 79.47 12.95 79.41 12.95 79.25 12.89 79.14 12.79 79.08 12.61 79.08 12.55 79.14 12.39 79.25 12.28 79.41 12.22 79.47 12.22 79.63 12.28 79.75 12.39 79.81 12.61 79.81 12.89 79.75 13.18 79.63 13.34 79.47 13.4 79.36 13.4 79.2 13.34 79.14 13.22"/><polygon class="a" points="80.32 13.28 80.26 13.34 80.32 13.4 80.36 13.34 80.32 13.28"/><polyline class="a" points="80.99 13.4 81.54 12.22 80.75 12.22"/><polyline class="a" points="81.99 12.22 82.6 12.22 82.27 12.67 82.44 12.67 82.55 12.73 82.6 12.79 82.66 12.95 82.66 13.06 82.6 13.22 82.49 13.34 82.33 13.4 82.15 13.4 81.99 13.34 81.93 13.28 81.88 13.18"/><line class="a" x1="84.23" y1="12.61" x2="84.23" y2="13.4"/><polyline class="a" points="84.23 12.83 84.39 12.67 84.51 12.61 84.67 12.61 84.79 12.67 84.85 12.83 84.85 13.4"/><polyline class="a" points="84.85 12.83 85.01 12.67 85.12 12.61 85.3 12.61 85.4 12.67 85.46 12.83 85.46 13.4"/><polyline class="a" points="87.64 12.79 87.58 12.67 87.42 12.61 87.25 12.61 87.09 12.67 87.03 12.79 87.09 12.89 87.19 12.95 87.47 13 87.58 13.06 87.64 13.18 87.64 13.22 87.58 13.34 87.42 13.4 87.25 13.4 87.09 13.34 87.03 13.22"/><rect class="a" x="88.05" y="13.3" width="0.08" height="0.08" transform="translate(16.37 66.2) rotate(-45)"/><line class="a" x1="88.59" y1="12.22" x2="88.59" y2="13.4"/><rect class="a" x="89.06" y="13.3" width="0.08" height="0.08" transform="translate(16.66 66.91) rotate(-45)"/><line class="a" x1="89.61" y1="12.61" x2="89.61" y2="13.4"/><polyline class="a" points="89.61 12.83 89.77 12.67 89.88 12.61 90.04 12.61 90.16 12.67 90.22 12.83 90.22 13.4"/><polyline class="a" points="90.22 12.83 90.38 12.67 90.5 12.61 90.67 12.61 90.77 12.67 90.83 12.83 90.83 13.4"/><polygon class="a" points="91.34 13.28 91.28 13.34 91.34 13.4 91.38 13.34 91.34 13.28"/><polyline class="a" points="74.65 27 74.77 26.94 74.93 26.78 74.93 27.95"/><polygon class="a" points="75.89 26.78 75.72 26.84 75.66 26.94 75.66 27.06 75.72 27.17 75.83 27.22 76.05 27.27 76.22 27.33 76.33 27.45 76.39 27.57 76.39 27.73 76.33 27.84 76.27 27.9 76.11 27.95 75.89 27.95 75.72 27.9 75.66 27.84 75.6 27.73 75.6 27.57 75.66 27.45 75.77 27.33 75.93 27.27 76.17 27.22 76.27 27.17 76.33 27.06 76.33 26.94 76.27 26.84 76.11 26.78 75.89 26.78"/><polyline class="a" points="77.45 27.17 77.39 27.33 77.29 27.45 77.11 27.51 77.06 27.51 76.89 27.45 76.78 27.33 76.72 27.17 76.72 27.11 76.78 26.94 76.89 26.84 77.06 26.78 77.11 26.78 77.29 26.84 77.39 26.94 77.45 27.17 77.45 27.45 77.39 27.73 77.29 27.9 77.11 27.95 77 27.95 76.84 27.9 76.78 27.78"/><polygon class="a" points="77.96 27.84 77.9 27.9 77.96 27.95 78.02 27.9 77.96 27.84"/><polyline class="a" points="78.63 27.95 79.18 26.78 78.39 26.78"/><line class="a" x1="80.75" y1="27.17" x2="80.75" y2="27.94"/><polyline class="a" points="80.75 27.39 80.91 27.22 81.03 27.17 81.2 27.17 81.31 27.22 81.37 27.39 81.37 27.95"/><polyline class="a" points="81.37 27.39 81.54 27.22 81.64 27.17 81.82 27.17 81.93 27.22 81.98 27.39 81.98 27.95"/><path class="a" d="M84.16,27.33l-.06-.12-.16,0c-.43-.06-.52.23-.22.33l.28.06.1,0,.06.12v.06l-.06.12-.16,0h-.17l-.16,0-.06-.12"/><polygon class="a" points="84.61 27.84 84.55 27.9 84.61 27.95 84.67 27.9 84.61 27.84"/><line class="a" x1="85.12" y1="26.78" x2="85.12" y2="27.94"/><polygon class="a" points="85.62 27.84 85.56 27.9 85.62 27.95 85.68 27.9 85.62 27.84"/><line class="a" x1="86.13" y1="27.17" x2="86.13" y2="27.94"/><polyline class="a" points="86.13 27.39 86.29 27.22 86.4 27.17 86.58 27.17 86.68 27.22 86.74 27.39 86.74 27.95"/><polyline class="a" points="86.74 27.39 86.91 27.22 87.02 27.17 87.19 27.17 87.31 27.22 87.35 27.39 87.35 27.95"/><polygon class="a" points="87.86 27.84 87.8 27.9 87.86 27.95 87.92 27.9 87.86 27.84"/><polyline class="a" points="72.34 30.25 72.44 30.19 72.61 30.03 72.61 31.19"/><polyline class="a" points="74.01 30.42 73.95 30.58 73.84 30.7 73.68 30.75 73.62 30.75 73.46 30.7 73.34 30.58 73.28 30.42 73.28 30.36 73.34 30.19 73.46 30.07 73.62 30.03 73.68 30.03 73.84 30.07 73.95 30.19 74.01 30.42 74.01 30.7 73.95 30.97 73.84 31.13 73.68 31.19 73.56 31.19 73.4 31.13 73.34 31.03"/><polygon class="a" points="74.74 30.03 74.56 30.07 74.46 30.25 74.41 30.52 74.41 30.7 74.46 30.97 74.56 31.13 74.74 31.19 74.86 31.19 75.02 31.13 75.13 30.97 75.19 30.7 75.19 30.52 75.13 30.25 75.02 30.07 74.86 30.03 74.74 30.03"/><polygon class="a" points="75.63 31.09 75.58 31.13 75.63 31.19 75.69 31.13 75.63 31.09"/><polygon class="a" points="76.36 30.03 76.2 30.07 76.14 30.19 76.14 30.3 76.2 30.42 76.31 30.46 76.53 30.52 76.69 30.58 76.81 30.7 76.87 30.8 76.87 30.97 76.81 31.09 76.75 31.13 76.59 31.19 76.36 31.19 76.2 31.13 76.14 31.09 76.08 30.97 76.08 30.8 76.14 30.7 76.25 30.58 76.42 30.52 76.65 30.46 76.75 30.42 76.81 30.3 76.81 30.19 76.75 30.07 76.59 30.03 76.36 30.03"/><polyline class="a" points="77.93 30.42 77.87 30.58 77.75 30.7 77.59 30.75 77.54 30.75 77.38 30.7 77.26 30.58 77.2 30.42 77.2 30.36 77.26 30.19 77.38 30.07 77.54 30.03 77.59 30.03 77.75 30.07 77.87 30.19 77.93 30.42 77.93 30.7 77.87 30.97 77.75 31.13 77.59 31.19 77.48 31.19 77.32 31.13 77.26 31.03"/><line class="a" x1="79.55" y1="30.42" x2="79.55" y2="31.19"/><polyline class="a" points="79.55 30.64 79.72 30.46 79.84 30.42 80 30.42 80.11 30.46 80.17 30.64 80.17 31.19"/><polyline class="a" points="80.17 30.64 80.33 30.46 80.45 30.42 80.61 30.42 80.72 30.46 80.78 30.64 80.78 31.19"/><polyline class="a" points="82.97 30.58 82.91 30.46 82.75 30.42 82.57 30.42 82.4 30.46 82.36 30.58 82.4 30.7 82.52 30.75 82.79 30.8 82.91 30.86 82.97 30.97 82.97 31.03 82.91 31.13 82.75 31.19 82.57 31.19 82.4 31.13 82.36 31.03"/><polygon class="a" points="83.42 31.09 83.36 31.13 83.42 31.19 83.46 31.13 83.42 31.09"/><line class="a" x1="83.91" y1="30.03" x2="83.91" y2="31.19"/><polygon class="a" points="84.42 31.09 84.36 31.13 84.42 31.19 84.48 31.13 84.42 31.09"/><line class="a" x1="84.92" y1="30.42" x2="84.92" y2="31.19"/><polyline class="a" points="84.92 30.64 85.09 30.46 85.21 30.42 85.37 30.42 85.49 30.46 85.55 30.64 85.55 31.19"/><polyline class="a" points="85.55 30.64 85.7 30.46 85.82 30.42 85.98 30.42 86.1 30.46 86.16 30.64 86.16 31.19"/><polygon class="a" points="86.67 31.09 86.61 31.13 86.67 31.19 86.71 31.13 86.67 31.09"/><polyline class="a" points="109.4 18.17 109.5 18.11 109.67 17.95 109.67 19.12"/><polygon class="a" points="110.62 17.95 110.46 18.01 110.4 18.11 110.4 18.23 110.46 18.35 110.56 18.39 110.79 18.45 110.95 18.51 111.07 18.63 111.13 18.74 111.13 18.9 111.07 19.02 111.01 19.08 110.84 19.12 110.62 19.12 110.46 19.08 110.4 19.02 110.34 18.9 110.34 18.74 110.4 18.63 110.5 18.51 110.68 18.45 110.9 18.39 111.01 18.35 111.07 18.23 111.07 18.11 111.01 18.01 110.84 17.95 110.62 17.95"/><polyline class="a" points="112.19 18.35 112.13 18.51 112.02 18.63 111.86 18.68 111.8 18.68 111.62 18.63 111.52 18.51 111.46 18.35 111.46 18.29 111.52 18.11 111.62 18.01 111.8 17.95 111.86 17.95 112.02 18.01 112.13 18.11 112.19 18.35 112.19 18.63 112.13 18.9 112.02 19.08 111.86 19.12 111.74 19.12 111.57 19.08 111.52 18.96"/><polygon class="a" points="112.69 19.02 112.63 19.08 112.69 19.12 112.75 19.08 112.69 19.02"/><polyline class="a" points="113.81 17.95 113.25 17.95 113.2 18.45 113.25 18.39 113.42 18.35 113.59 18.35 113.75 18.39 113.87 18.51 113.92 18.68 113.92 18.79 113.87 18.96 113.75 19.08 113.59 19.12 113.42 19.12 113.25 19.08 113.2 19.02 113.14 18.9"/><polyline class="a" points="114.99 18.35 114.93 18.51 114.81 18.63 114.65 18.68 114.59 18.68 114.42 18.63 114.32 18.51 114.26 18.35 114.26 18.29 114.32 18.11 114.42 18.01 114.59 17.95 114.65 17.95 114.81 18.01 114.93 18.11 114.99 18.35 114.99 18.63 114.93 18.9 114.81 19.08 114.65 19.12 114.54 19.12 114.38 19.08 114.32 18.96"/><line class="a" x1="116.6" y1="18.35" x2="116.6" y2="19.12"/><polyline class="a" points="116.6 18.57 116.78 18.39 116.89 18.35 117.06 18.35 117.17 18.39 117.23 18.57 117.23 19.12"/><polyline class="a" points="117.23 18.57 117.39 18.39 117.51 18.35 117.67 18.35 117.78 18.39 117.84 18.57 117.84 19.12"/><polyline class="a" points="120.03 18.51 119.97 18.39 119.79 18.35 119.63 18.35 119.46 18.39 119.4 18.51 119.46 18.63 119.58 18.68 119.85 18.74 119.97 18.79 120.03 18.9 120.03 18.96 119.97 19.08 119.79 19.12 119.63 19.12 119.46 19.08 119.4 18.96"/><polygon class="a" points="120.46 19.02 120.42 19.08 120.46 19.12 120.52 19.08 120.46 19.02"/><line class="a" x1="120.97" y1="17.96" x2="120.97" y2="19.12"/><polygon class="a" points="121.48 19.02 121.42 19.08 121.48 19.12 121.54 19.08 121.48 19.02"/><line class="a" x1="121.98" y1="18.35" x2="121.98" y2="19.12"/><polyline class="a" points="121.98 18.57 122.15 18.39 122.25 18.35 122.43 18.35 122.55 18.39 122.6 18.57 122.6 19.12"/><polyline class="a" points="122.6 18.57 122.76 18.39 122.88 18.35 123.04 18.35 123.16 18.39 123.22 18.57 123.22 19.12"/><polygon class="a" points="123.71 19.02 123.67 19.08 123.71 19.12 123.77 19.08 123.71 19.02"/><polyline class="a" points="105.22 14.1 105.33 14.05 105.51 13.88 105.51 15.06"/><polyline class="a" points="106.91 14.27 106.85 14.43 106.73 14.55 106.57 14.61 106.51 14.61 106.34 14.55 106.24 14.43 106.18 14.27 106.18 14.21 106.24 14.05 106.34 13.94 106.51 13.88 106.57 13.88 106.73 13.94 106.85 14.05 106.91 14.27 106.91 14.55 106.85 14.82 106.73 15 106.57 15.06 106.45 15.06 106.28 15 106.24 14.88"/><polygon class="a" points="107.63 13.88 107.46 13.94 107.34 14.1 107.3 14.39 107.3 14.55 107.34 14.82 107.46 15 107.63 15.06 107.74 15.06 107.91 15 108.01 14.82 108.07 14.55 108.07 14.39 108.01 14.1 107.91 13.94 107.74 13.88 107.63 13.88"/><rect class="a" x="108.48" y="14.96" width="0.08" height="0.08" transform="translate(21.18 81.13) rotate(-45)"/><polyline class="a" points="109.19 15.06 109.76 13.88 108.97 13.88"/><polyline class="a" points="110.25 14.1 110.37 14.05 110.53 13.88 110.53 15.06"/><line class="a" x1="112.44" y1="14.27" x2="112.44" y2="15.06"/><polyline class="a" points="112.44 14.49 112.61 14.33 112.72 14.27 112.89 14.27 113.01 14.33 113.05 14.49 113.05 15.06"/><polyline class="a" points="113.05 14.49 113.23 14.33 113.34 14.27 113.5 14.27 113.62 14.33 113.68 14.49 113.68 15.06"/><polyline class="a" points="115.86 14.43 115.8 14.33 115.63 14.27 115.47 14.27 115.29 14.33 115.23 14.43 115.29 14.55 115.41 14.61 115.69 14.66 115.8 14.72 115.86 14.82 115.86 14.88 115.8 15 115.63 15.06 115.47 15.06 115.29 15 115.23 14.88"/><rect class="a" x="116.26" y="14.96" width="0.08" height="0.08" transform="translate(23.46 86.63) rotate(-45)"/><line class="a" x1="116.81" y1="13.88" x2="116.81" y2="15.06"/><polygon class="a" points="117.3 14.94 117.26 15 117.3 15.06 117.36 15 117.3 14.94"/><line class="a" x1="117.81" y1="14.27" x2="117.81" y2="15.06"/><polyline class="a" points="117.81 14.49 117.99 14.33 118.09 14.27 118.26 14.27 118.37 14.33 118.42 14.49 118.42 15.06"/><polyline class="a" points="118.42 14.49 118.6 14.33 118.72 14.27 118.88 14.27 118.99 14.33 119.05 14.49 119.05 15.06"/><rect class="a" x="119.5" y="14.96" width="0.08" height="0.08" transform="translate(24.41 88.92) rotate(-45)"/><polyline class="a" points="113.61 31.44 113.72 31.38 113.88 31.22 113.88 32.39"/><polygon class="a" points="114.84 31.22 114.67 31.28 114.61 31.38 114.61 31.5 114.67 31.61 114.78 31.66 115 31.72 115.18 31.77 115.29 31.89 115.34 31.99 115.34 32.17 115.29 32.28 115.23 32.34 115.06 32.39 114.84 32.39 114.67 32.34 114.61 32.28 114.57 32.17 114.57 31.99 114.61 31.89 114.73 31.77 114.9 31.72 115.12 31.66 115.23 31.61 115.29 31.5 115.29 31.38 115.23 31.28 115.06 31.22 114.84 31.22"/><polyline class="a" points="116.4 31.61 116.36 31.77 116.24 31.89 116.06 31.95 116.02 31.95 115.85 31.89 115.73 31.77 115.67 31.61 115.67 31.56 115.73 31.38 115.85 31.28 116.02 31.22 116.06 31.22 116.24 31.28 116.36 31.38 116.4 31.61 116.4 31.89 116.36 32.17 116.24 32.34 116.06 32.39 115.96 32.39 115.79 32.34 115.73 32.23"/><polygon class="a" points="116.91 32.28 116.85 32.34 116.91 32.39 116.97 32.34 116.91 32.28"/><polyline class="a" points="118.03 31.22 117.46 31.22 117.42 31.72 117.46 31.66 117.64 31.61 117.8 31.61 117.97 31.66 118.09 31.77 118.15 31.95 118.15 32.05 118.09 32.23 117.97 32.34 117.8 32.39 117.64 32.39 117.46 32.34 117.42 32.28 117.36 32.17"/><polyline class="a" points="119.21 31.38 119.15 31.28 118.98 31.22 118.88 31.22 118.7 31.28 118.58 31.44 118.53 31.72 118.53 31.99 118.58 32.23 118.7 32.34 118.88 32.39 118.92 32.39 119.09 32.34 119.21 32.23 119.25 32.05 119.25 31.99 119.21 31.83 119.09 31.72 118.92 31.66 118.88 31.66 118.7 31.72 118.58 31.83 118.53 31.99"/><line class="a" x1="120.83" y1="31.61" x2="120.83" y2="32.39"/><polyline class="a" points="120.83 31.83 121 31.66 121.1 31.61 121.28 31.61 121.38 31.66 121.44 31.83 121.44 32.39"/><polyline class="a" points="121.44 31.83 121.61 31.66 121.73 31.61 121.89 31.61 122.01 31.66 122.06 31.83 122.06 32.39"/><polyline class="a" points="124.23 31.77 124.19 31.66 124.02 31.61 123.86 31.61 123.68 31.66 123.62 31.77 123.68 31.89 123.8 31.95 124.07 31.99 124.19 32.05 124.23 32.17 124.23 32.23 124.19 32.34 124.02 32.39 123.86 32.39 123.68 32.34 123.62 32.23"/><polygon class="a" points="124.69 32.28 124.63 32.34 124.69 32.39 124.74 32.34 124.69 32.28"/><line class="a" x1="125.2" y1="31.22" x2="125.2" y2="32.39"/><polygon class="a" points="125.69 32.28 125.65 32.34 125.69 32.39 125.75 32.34 125.69 32.28"/><line class="a" x1="126.2" y1="31.61" x2="126.2" y2="32.39"/><polyline class="a" points="126.2 31.83 126.36 31.66 126.48 31.61 126.65 31.61 126.75 31.66 126.81 31.83 126.81 32.39"/><polyline class="a" points="126.81 31.83 126.99 31.66 127.09 31.61 127.26 31.61 127.38 31.66 127.44 31.83 127.44 32.39"/><polygon class="a" points="127.93 32.28 127.88 32.34 127.93 32.39 127.99 32.34 127.93 32.28"/><polyline class="a" points="111.14 34.47 111.26 34.41 111.44 34.25 111.44 35.41"/><path class="a" d="M112.38,34.25l-.17,0,0,.12v.12l0,.12.12,0,.22.06.17.06.12.12.06.1v.17l-.06.12-.06.06-.17,0h-.22l-.17,0c-.51-.88,1-.42.57-1.08l-.17,0Z"/><polyline class="a" points="113.95 34.64 113.9 34.8 113.78 34.92 113.62 34.98 113.56 34.98 113.39 34.92 113.27 34.8 113.23 34.64 113.23 34.59 113.27 34.41 113.39 34.29 113.56 34.25 113.62 34.25 113.78 34.29 113.9 34.41 113.95 34.64 113.95 34.92 113.9 35.2 113.78 35.37 113.62 35.41 113.5 35.41 113.33 35.37 113.27 35.26"/><polygon class="a" points="114.45 35.31 114.39 35.37 114.45 35.41 114.51 35.37 114.45 35.31"/><polyline class="a" points="115.63 34.41 115.57 34.29 115.4 34.25 115.29 34.25 115.12 34.29 115.02 34.47 114.96 34.74 114.96 35.02 115.02 35.26 115.12 35.37 115.29 35.41 115.35 35.41 115.51 35.37 115.63 35.26 115.69 35.08 115.69 35.02 115.63 34.86 115.51 34.74 115.35 34.69 115.29 34.69 115.12 34.74 115.02 34.86 114.96 35.02"/><polyline class="a" points="116.24 35.41 116.81 34.25 116.02 34.25"/><line class="a" x1="118.37" y1="34.64" x2="118.37" y2="35.42"/><polyline class="a" points="118.37 34.86 118.54 34.69 118.64 34.64 118.82 34.64 118.93 34.69 118.98 34.86 118.98 35.41"/><polyline class="a" points="118.98 34.86 119.15 34.69 119.27 34.64 119.43 34.64 119.55 34.69 119.6 34.86 119.6 35.41"/><polyline class="a" points="121.79 34.8 121.73 34.69 121.56 34.64 121.39 34.64 121.22 34.69 121.16 34.8 121.22 34.92 121.34 34.98 121.61 35.02 121.73 35.08 121.79 35.2 121.79 35.26 121.73 35.37 121.56 35.41 121.39 35.41 121.22 35.37 121.16 35.26"/><polygon class="a" points="122.22 35.31 122.18 35.37 122.22 35.41 122.28 35.37 122.22 35.31"/><line class="a" x1="122.73" y1="34.25" x2="122.73" y2="35.42"/><polygon class="a" points="123.24 35.31 123.19 35.37 123.24 35.41 123.29 35.37 123.24 35.31"/><line class="a" x1="123.74" y1="34.64" x2="123.74" y2="35.42"/><polyline class="a" points="123.74 34.86 123.91 34.69 124.02 34.64 124.19 34.64 124.31 34.69 124.35 34.86 124.35 35.41"/><polyline class="a" points="124.35 34.86 124.53 34.69 124.64 34.64 124.8 34.64 124.92 34.69 124.98 34.86 124.98 35.41"/><polygon class="a" points="125.47 35.31 125.41 35.37 125.47 35.41 125.53 35.37 125.47 35.31"/><polyline class="a" points="106.96 37.91 107.08 37.85 107.26 37.69 107.26 38.85"/><polyline class="a" points="108.65 38.08 108.59 38.24 108.48 38.36 108.32 38.41 108.26 38.41 108.09 38.36 107.98 38.24 107.92 38.08 107.92 38.02 107.98 37.85 108.09 37.74 108.26 37.69 108.32 37.69 108.48 37.74 108.59 37.85 108.65 38.08 108.65 38.36 108.59 38.63 108.48 38.81 108.32 38.85 108.2 38.85 108.03 38.81 107.98 38.69"/><polygon class="a" points="109.38 37.69 109.21 37.74 109.09 37.91 109.05 38.18 109.05 38.36 109.09 38.63 109.21 38.81 109.38 38.85 109.48 38.85 109.66 38.81 109.78 38.63 109.82 38.36 109.82 38.18 109.78 37.91 109.66 37.74 109.48 37.69 109.38 37.69"/><polygon class="a" points="110.27 38.75 110.21 38.81 110.27 38.85 110.33 38.81 110.27 38.75"/><polyline class="a" points="110.94 38.85 111.51 37.69 110.72 37.69"/><path class="a" d="M112.12,37.69l-.17.06,0,.1V38l0,.12.12,0,.22.06.17.06.12.12.06.12v.16l-.06.12-.06.06-.17,0h-.22l-.17,0c-.51-.87,1-.43.57-1.06l-.17-.06Z"/><line class="a" x1="114.19" y1="38.08" x2="114.19" y2="38.85"/><polyline class="a" points="114.19 38.3 114.36 38.12 114.46 38.08 114.64 38.08 114.75 38.12 114.8 38.3 114.8 38.85"/><polyline class="a" points="114.8 38.3 114.97 38.12 115.09 38.08 115.25 38.08 115.37 38.12 115.42 38.3 115.42 38.85"/><polyline class="a" points="117.61 38.24 117.55 38.12 117.38 38.08 117.22 38.08 117.04 38.12 116.98 38.24 117.04 38.36 117.16 38.41 117.43 38.47 117.55 38.52 117.61 38.63 117.61 38.69 117.55 38.81 117.38 38.85 117.22 38.85 117.04 38.81 116.98 38.69"/><polygon class="a" points="118.05 38.75 117.99 38.81 118.05 38.85 118.1 38.81 118.05 38.75"/><line class="a" x1="118.56" y1="37.69" x2="118.56" y2="38.85"/><polygon class="a" points="119.06 38.75 119.01 38.81 119.06 38.85 119.11 38.81 119.06 38.75"/><line class="a" x1="119.56" y1="38.08" x2="119.56" y2="38.85"/><polyline class="a" points="119.56 38.3 119.73 38.12 119.84 38.08 120.01 38.08 120.13 38.12 120.17 38.3 120.17 38.85"/><polyline class="a" points="120.17 38.3 120.35 38.12 120.46 38.08 120.62 38.08 120.74 38.12 120.8 38.3 120.8 38.85"/><polygon class="a" points="121.29 38.75 121.23 38.81 121.29 38.85 121.35 38.81 121.29 38.75"/><polyline class="a" points="156.82 18.51 156.94 18.46 157.1 18.29 157.1 19.47"/><polygon class="a" points="158.06 18.29 157.89 18.35 157.83 18.46 157.83 18.57 157.89 18.68 158 18.74 158.22 18.8 158.4 18.86 158.5 18.96 158.56 19.08 158.56 19.24 158.5 19.35 158.45 19.41 158.28 19.47 158.06 19.47 157.89 19.41 157.83 19.35 157.77 19.24 157.77 19.08 157.83 18.96 157.94 18.86 158.12 18.8 158.34 18.74 158.45 18.68 158.5 18.57 158.5 18.46 158.45 18.35 158.28 18.29 158.06 18.29"/><polyline class="a" points="159.62 18.68 159.56 18.86 159.46 18.96 159.28 19.02 159.22 19.02 159.06 18.96 158.95 18.86 158.89 18.68 158.89 18.63 158.95 18.46 159.06 18.35 159.22 18.29 159.28 18.29 159.46 18.35 159.56 18.46 159.62 18.68 159.62 18.96 159.56 19.24 159.46 19.41 159.28 19.47 159.18 19.47 159.01 19.41 158.95 19.3"/><rect class="a" x="160.09" y="19.37" width="0.08" height="0.08" transform="translate(33.16 118.9) rotate(-44.99)"/><polyline class="a" points="161.13 18.29 160.58 19.08 161.41 19.08"/><line class="a" x1="161.13" y1="18.29" x2="161.13" y2="19.47"/><polyline class="a" points="162.41 18.46 162.37 18.35 162.2 18.29 162.08 18.29 161.92 18.35 161.8 18.51 161.74 18.8 161.74 19.08 161.8 19.3 161.92 19.41 162.08 19.47 162.14 19.47 162.31 19.41 162.41 19.3 162.47 19.14 162.47 19.08 162.41 18.9 162.31 18.8 162.14 18.74 162.08 18.74 161.92 18.8 161.8 18.9 161.74 19.08"/><line class="a" x1="164.05" y1="18.68" x2="164.05" y2="19.47"/><polyline class="a" points="164.04 18.9 164.21 18.74 164.32 18.68 164.5 18.68 164.6 18.74 164.66 18.9 164.66 19.47"/><polyline class="a" points="164.66 18.9 164.83 18.74 164.93 18.68 165.11 18.68 165.22 18.74 165.27 18.9 165.27 19.47"/><polyline class="a" points="167.45 18.86 167.41 18.74 167.23 18.68 167.06 18.68 166.9 18.74 166.84 18.86 166.9 18.96 167.02 19.02 167.29 19.08 167.41 19.14 167.45 19.24 167.45 19.3 167.41 19.41 167.23 19.47 167.06 19.47 166.9 19.41 166.84 19.3"/><rect class="a" x="167.86" y="19.37" width="0.08" height="0.08" transform="translate(35.44 124.39) rotate(-44.99)"/><line class="a" x1="168.41" y1="18.29" x2="168.41" y2="19.47"/><rect class="a" x="168.87" y="19.37" width="0.08" height="0.08" transform="translate(35.73 125.1) rotate(-44.99)"/><line class="a" x1="169.42" y1="18.68" x2="169.42" y2="19.47"/><polyline class="a" points="169.42 18.9 169.58 18.74 169.69 18.68 169.87 18.68 169.97 18.74 170.03 18.9 170.03 19.47"/><polyline class="a" points="170.03 18.9 170.21 18.74 170.31 18.68 170.48 18.68 170.6 18.74 170.64 18.9 170.64 19.47"/><rect class="a" x="171.11" y="19.37" width="0.08" height="0.08" transform="translate(36.39 126.69) rotate(-44.99)"/><polyline class="a" points="152.6 15.41 152.72 15.35 152.89 15.17 152.89 16.35"/><polyline class="a" points="154.29 15.57 154.23 15.74 154.11 15.84 153.95 15.9 153.9 15.9 153.72 15.84 153.62 15.74 153.56 15.57 153.56 15.51 153.62 15.35 153.72 15.23 153.9 15.17 153.95 15.17 154.11 15.23 154.23 15.35 154.29 15.57 154.29 15.84 154.23 16.12 154.11 16.3 153.95 16.35 153.84 16.35 153.66 16.3 153.62 16.18"/><polygon class="a" points="155.02 15.17 154.84 15.23 154.73 15.41 154.68 15.68 154.68 15.84 154.73 16.12 154.84 16.3 155.02 16.35 155.12 16.35 155.29 16.3 155.41 16.12 155.45 15.84 155.45 15.68 155.41 15.41 155.29 15.23 155.12 15.17 155.02 15.17"/><rect class="a" x="155.86" y="16.25" width="0.08" height="0.08" transform="translate(34.13 115) rotate(-44.99)"/><polyline class="a" points="156.91 15.17 156.36 15.96 157.2 15.96"/><line class="a" x1="156.91" y1="15.17" x2="156.91" y2="16.35"/><polyline class="a" points="158.21 15.35 158.15 15.23 157.97 15.17 157.87 15.17 157.7 15.23 157.58 15.41 157.54 15.68 157.54 15.96 157.58 16.18 157.7 16.3 157.87 16.35 157.93 16.35 158.09 16.3 158.21 16.18 158.26 16.02 158.26 15.96 158.21 15.79 158.09 15.68 157.93 15.63 157.87 15.63 157.7 15.68 157.58 15.79 157.54 15.96"/><line class="a" x1="159.82" y1="15.57" x2="159.82" y2="16.35"/><polyline class="a" points="159.82 15.79 160 15.63 160.1 15.57 160.27 15.57 160.39 15.63 160.43 15.79 160.43 16.35"/><polyline class="a" points="160.43 15.79 160.61 15.63 160.72 15.57 160.88 15.57 161 15.63 161.06 15.79 161.06 16.35"/><polyline class="a" points="163.24 15.74 163.19 15.63 163.01 15.57 162.85 15.57 162.68 15.63 162.62 15.74 162.68 15.84 162.79 15.9 163.07 15.96 163.19 16.02 163.24 16.12 163.24 16.18 163.19 16.3 163.01 16.35 162.85 16.35 162.68 16.3 162.62 16.18"/><polygon class="a" points="163.68 16.24 163.64 16.3 163.68 16.35 163.74 16.3 163.68 16.24"/><line class="a" x1="164.19" y1="15.17" x2="164.19" y2="16.35"/><polygon class="a" points="164.7 16.24 164.64 16.3 164.7 16.35 164.74 16.3 164.7 16.24"/><line class="a" x1="165.2" y1="15.57" x2="165.2" y2="16.35"/><polyline class="a" points="165.19 15.79 165.37 15.63 165.47 15.57 165.65 15.57 165.76 15.63 165.81 15.79 165.81 16.35"/><polyline class="a" points="165.81 15.79 165.98 15.63 166.1 15.57 166.26 15.57 166.38 15.63 166.43 15.79 166.43 16.35"/><rect class="a" x="166.89" y="16.25" width="0.08" height="0.08" transform="translate(37.36 122.79) rotate(-44.99)"/><polyline class="a" points="157.96 33.06 158.07 33.01 158.24 32.84 158.24 34.02"/><polygon class="a" points="159.2 32.84 159.02 32.9 158.96 33.01 158.96 33.11 159.02 33.23 159.14 33.29 159.36 33.35 159.53 33.41 159.65 33.51 159.69 33.62 159.69 33.78 159.65 33.9 159.59 33.96 159.41 34.02 159.2 34.02 159.02 33.96 158.96 33.9 158.92 33.78 158.92 33.62 158.96 33.51 159.08 33.41 159.25 33.35 159.47 33.29 159.59 33.23 159.65 33.11 159.65 33.01 159.59 32.9 159.41 32.84 159.2 32.84"/><polyline class="a" points="160.75 33.23 160.71 33.41 160.59 33.51 160.42 33.57 160.36 33.57 160.2 33.51 160.08 33.41 160.03 33.23 160.03 33.17 160.08 33.01 160.2 32.9 160.36 32.84 160.42 32.84 160.59 32.9 160.71 33.01 160.75 33.23 160.75 33.51 160.71 33.78 160.59 33.96 160.42 34.02 160.32 34.02 160.14 33.96 160.08 33.84"/><rect class="a" x="161.22" y="33.92" width="0.08" height="0.08" transform="translate(23.21 123.97) rotate(-45)"/><polyline class="a" points="162.38 32.84 161.82 32.84 161.77 33.35 161.82 33.29 161.99 33.23 162.15 33.23 162.33 33.29 162.44 33.41 162.5 33.57 162.5 33.68 162.44 33.84 162.33 33.96 162.15 34.02 161.99 34.02 161.82 33.96 161.77 33.9 161.72 33.78"/><polyline class="a" points="163.06 34.02 163.61 32.84 162.84 32.84"/><line class="a" x1="165.18" y1="33.23" x2="165.18" y2="34.02"/><polyline class="a" points="165.18 33.45 165.36 33.29 165.46 33.23 165.63 33.23 165.73 33.29 165.79 33.45 165.79 34.02"/><polyline class="a" points="165.79 33.45 165.97 33.29 166.07 33.23 166.24 33.23 166.36 33.29 166.42 33.45 166.42 34.02"/><polyline class="a" points="168.59 33.41 168.54 33.29 168.37 33.23 168.21 33.23 168.03 33.29 167.98 33.41 168.03 33.51 168.15 33.57 168.43 33.62 168.54 33.68 168.59 33.78 168.59 33.84 168.54 33.96 168.37 34.02 168.21 34.02 168.03 33.96 167.98 33.84"/><rect class="a" x="169" y="33.92" width="0.08" height="0.08" transform="translate(25.49 129.47) rotate(-45)"/><line class="a" x1="169.55" y1="32.84" x2="169.55" y2="34.02"/><rect class="a" x="170" y="33.92" width="0.08" height="0.08" transform="translate(25.79 130.18) rotate(-45)"/><line class="a" x1="170.55" y1="33.23" x2="170.55" y2="34.02"/><polyline class="a" points="170.55 33.45 170.71 33.29 170.83 33.23 171 33.23 171.11 33.29 171.17 33.45 171.17 34.02"/><polyline class="a" points="171.17 33.45 171.34 33.29 171.44 33.23 171.62 33.23 171.73 33.29 171.78 33.45 171.78 34.02"/><rect class="a" x="172.25" y="33.92" width="0.08" height="0.08" transform="translate(26.44 131.76) rotate(-45)"/><polyline class="a" points="152.69 36.35 152.8 36.29 152.98 36.13 152.98 37.31"/><polyline class="a" points="154.38 36.52 154.32 36.68 154.2 36.8 154.04 36.86 153.98 36.86 153.81 36.8 153.71 36.68 153.65 36.52 153.65 36.46 153.71 36.29 153.81 36.19 153.98 36.13 154.04 36.13 154.2 36.19 154.32 36.29 154.38 36.52 154.38 36.8 154.32 37.08 154.2 37.25 154.04 37.31 153.93 37.31 153.75 37.25 153.71 37.13"/><polygon class="a" points="155.1 36.13 154.93 36.19 154.81 36.35 154.77 36.64 154.77 36.8 154.81 37.08 154.93 37.25 155.1 37.31 155.21 37.31 155.38 37.25 155.5 37.08 155.54 36.8 155.54 36.64 155.5 36.35 155.38 36.19 155.21 36.13 155.1 36.13"/><rect class="a" x="155.95" y="37.21" width="0.08" height="0.08" transform="translate(19.34 121.2) rotate(-45)"/><polyline class="a" points="156.5 36.41 156.5 36.35 156.56 36.24 156.6 36.19 156.72 36.13 156.94 36.13 157.06 36.19 157.11 36.24 157.17 36.35 157.17 36.46 157.11 36.58 157 36.74 156.44 37.31 157.23 37.31"/><polyline class="a" points="157.78 37.31 158.35 36.13 157.56 36.13"/><line class="a" x1="159.91" y1="36.52" x2="159.91" y2="37.31"/><polyline class="a" points="159.91 36.74 160.08 36.58 160.19 36.52 160.36 36.52 160.48 36.58 160.52 36.74 160.52 37.31"/><polyline class="a" points="160.52 36.74 160.7 36.58 160.81 36.52 160.97 36.52 161.09 36.58 161.15 36.74 161.15 37.31"/><polyline class="a" points="163.33 36.68 163.27 36.58 163.1 36.52 162.94 36.52 162.76 36.58 162.71 36.68 162.76 36.8 162.88 36.86 163.16 36.91 163.27 36.97 163.33 37.08 163.33 37.13 163.27 37.25 163.1 37.31 162.94 37.31 162.76 37.25 162.71 37.13"/><polygon class="a" points="163.77 37.19 163.72 37.25 163.77 37.31 163.83 37.25 163.77 37.19"/><line class="a" x1="164.28" y1="36.13" x2="164.28" y2="37.31"/><polygon class="a" points="164.79 37.19 164.73 37.25 164.79 37.31 164.83 37.25 164.79 37.19"/><line class="a" x1="165.28" y1="36.52" x2="165.28" y2="37.31"/><polyline class="a" points="165.28 36.74 165.46 36.58 165.56 36.52 165.73 36.52 165.85 36.58 165.89 36.74 165.89 37.31"/><polyline class="a" points="165.89 36.74 166.07 36.58 166.19 36.52 166.35 36.52 166.46 36.58 166.52 36.74 166.52 37.31"/><rect class="a" x="166.97" y="37.21" width="0.08" height="0.08" transform="translate(22.57 129) rotate(-45)"/><polyline class="a" points="204.35 22.57 204.47 22.53 204.64 22.35 204.64 23.53"/><path class="a" d="M205.59,22.35l-.17.06,0,.12v.1l0,.12.12.06.23.06.16.06.12.1.06.12v.16l-.06.12-.06.06-.17.06h-.22l-.17-.06c-.52-.85,1-.41.57-1.06l-.17-.06Z"/><polyline class="a" points="207.16 22.75 207.1 22.92 206.99 23.02 206.83 23.08 206.77 23.08 206.59 23.02 206.48 22.92 206.43 22.75 206.43 22.69 206.48 22.53 206.59 22.41 206.77 22.35 206.83 22.35 206.99 22.41 207.1 22.53 207.16 22.75 207.16 23.02 207.1 23.3 206.99 23.47 206.83 23.53 206.71 23.53 206.53 23.47 206.48 23.36"/><rect class="a" x="207.62" y="23.43" width="0.08" height="0.08" transform="translate(44.21 153.69) rotate(-44.99)"/><polyline class="a" points="208.27 22.57 208.38 22.53 208.56 22.35 208.56 23.53"/><polyline class="a" points="209.78 22.35 209.23 23.14 210.06 23.14"/><line class="a" x1="209.78" y1="22.35" x2="209.78" y2="23.53"/><line class="a" x1="211.57" y1="22.75" x2="211.57" y2="23.53"/><polyline class="a" points="211.57 22.96 211.75 22.8 211.85 22.75 212.03 22.75 212.14 22.8 212.19 22.96 212.19 23.53"/><polyline class="a" points="212.19 22.96 212.36 22.8 212.48 22.75 212.64 22.75 212.75 22.8 212.81 22.96 212.81 23.53"/><polyline class="a" points="215 22.92 214.94 22.8 214.76 22.75 214.6 22.75 214.43 22.8 214.37 22.92 214.43 23.02 214.54 23.08 214.82 23.14 214.94 23.2 215 23.3 215 23.36 214.94 23.47 214.76 23.53 214.6 23.53 214.43 23.47 214.37 23.36"/><polygon class="a" points="215.43 23.42 215.39 23.47 215.43 23.53 215.49 23.47 215.43 23.42"/><line class="a" x1="215.94" y1="22.35" x2="215.94" y2="23.53"/><polygon class="a" points="216.45 23.42 216.39 23.47 216.45 23.53 216.5 23.47 216.45 23.42"/><line class="a" x1="216.95" y1="22.75" x2="216.95" y2="23.53"/><polyline class="a" points="216.95 22.96 217.12 22.8 217.22 22.75 217.4 22.75 217.51 22.8 217.56 22.96 217.56 23.53"/><polyline class="a" points="217.56 22.96 217.73 22.8 217.85 22.75 218.01 22.75 218.13 22.8 218.18 22.96 218.18 23.53"/><rect class="a" x="218.64" y="23.43" width="0.08" height="0.08" transform="translate(47.43 161.48) rotate(-44.99)"/><polyline class="a" points="199.66 18.68 199.78 18.63 199.95 18.46 199.95 19.63"/><polyline class="a" points="201.35 18.86 201.29 19.02 201.18 19.14 201.02 19.19 200.96 19.19 200.78 19.14 200.68 19.02 200.62 18.86 200.62 18.8 200.68 18.63 200.78 18.51 200.96 18.46 201.02 18.46 201.18 18.51 201.29 18.63 201.35 18.86 201.35 19.14 201.29 19.41 201.18 19.59 201.02 19.63 200.9 19.63 200.72 19.59 200.68 19.47"/><polygon class="a" points="202.08 18.46 201.91 18.51 201.79 18.68 201.75 18.96 201.75 19.14 201.79 19.41 201.91 19.59 202.08 19.63 202.18 19.63 202.36 19.59 202.47 19.41 202.52 19.14 202.52 18.96 202.47 18.68 202.36 18.51 202.18 18.46 202.08 18.46"/><polygon class="a" points="202.97 19.53 202.91 19.59 202.97 19.63 203.03 19.59 202.97 19.53"/><polyline class="a" points="203.48 18.74 203.48 18.68 203.54 18.57 203.58 18.51 203.7 18.46 203.91 18.46 204.03 18.51 204.09 18.57 204.15 18.68 204.15 18.8 204.09 18.9 203.97 19.08 203.42 19.63 204.21 19.63"/><polyline class="a" points="205.27 18.63 205.21 18.51 205.03 18.46 204.93 18.46 204.76 18.51 204.64 18.68 204.6 18.96 204.6 19.24 204.64 19.47 204.76 19.59 204.93 19.63 204.98 19.63 205.15 19.59 205.27 19.47 205.33 19.3 205.33 19.24 205.27 19.08 205.15 18.96 204.98 18.9 204.93 18.9 204.76 18.96 204.64 19.08 204.6 19.24"/><line class="a" x1="206.88" y1="18.86" x2="206.88" y2="19.63"/><polyline class="a" points="206.88 19.08 207.06 18.9 207.16 18.86 207.34 18.86 207.45 18.9 207.5 19.08 207.5 19.63"/><polyline class="a" points="207.5 19.08 207.67 18.9 207.79 18.86 207.95 18.86 208.06 18.9 208.12 19.08 208.12 19.63"/><polyline class="a" points="210.31 19.02 210.25 18.9 210.07 18.86 209.91 18.86 209.74 18.9 209.68 19.02 209.74 19.14 209.85 19.19 210.13 19.24 210.25 19.3 210.31 19.41 210.31 19.47 210.25 19.59 210.07 19.63 209.91 19.63 209.74 19.59 209.68 19.47"/><polygon class="a" points="210.74 19.53 210.69 19.59 210.74 19.63 210.8 19.59 210.74 19.53"/><line class="a" x1="211.25" y1="18.46" x2="211.25" y2="19.63"/><polygon class="a" points="211.75 19.53 211.71 19.59 211.75 19.63 211.81 19.59 211.75 19.53"/><line class="a" x1="212.26" y1="18.86" x2="212.26" y2="19.63"/><polyline class="a" points="212.26 19.08 212.43 18.9 212.53 18.86 212.71 18.86 212.83 18.9 212.87 19.08 212.87 19.63"/><polyline class="a" points="212.87 19.08 213.04 18.9 213.16 18.86 213.32 18.86 213.44 18.9 213.5 19.08 213.5 19.63"/><polygon class="a" points="213.99 19.53 213.93 19.59 213.99 19.63 214.05 19.59 213.99 19.53"/><polyline class="a" points="205.88 34.37 206 34.32 206.17 34.15 206.17 35.33"/><path class="a" d="M207.12,34.15l-.17.06,0,.12v.1l0,.12.12.06.22.06.17,0,.12.12,0,.12v.16l0,.12-.06.06-.17.06h-.22l-.17-.06c-.51-.88,1-.4.57-1.06l-.17-.06Z"/><polyline class="a" points="208.69 34.54 208.63 34.7 208.52 34.82 208.34 34.88 208.3 34.88 208.12 34.82 208.01 34.7 207.96 34.54 207.96 34.48 208.01 34.32 208.12 34.21 208.3 34.15 208.34 34.15 208.52 34.21 208.63 34.32 208.69 34.54 208.69 34.82 208.63 35.09 208.52 35.27 208.34 35.33 208.24 35.33 208.06 35.27 208.01 35.15"/><rect class="a" x="209.14" y="35.23" width="0.08" height="0.08" transform="translate(36.32 158.24) rotate(-45)"/><polyline class="a" points="209.8 34.37 209.91 34.32 210.09 34.15 210.09 35.33"/><path class="a" d="M211,34.15l-.17.06,0,.12v.1l0,.12.12.06.22.06.17,0,.12.12.06.12v.16l-.06.12-.06.06-.17.06H211l-.17-.06c-.51-.88,1-.4.57-1.06l-.17-.06Z"/><line class="a" x1="213.1" y1="34.54" x2="213.1" y2="35.33"/><polyline class="a" points="213.1 34.76 213.28 34.6 213.38 34.54 213.55 34.54 213.67 34.6 213.71 34.76 213.71 35.33"/><polyline class="a" points="213.71 34.76 213.89 34.6 214 34.54 214.16 34.54 214.28 34.6 214.34 34.76 214.34 35.33"/><polyline class="a" points="216.52 34.7 216.47 34.6 216.29 34.54 216.13 34.54 215.96 34.6 215.9 34.7 215.96 34.82 216.07 34.88 216.35 34.93 216.47 34.99 216.52 35.09 216.52 35.15 216.47 35.27 216.29 35.33 216.13 35.33 215.96 35.27 215.9 35.15"/><rect class="a" x="216.92" y="35.23" width="0.08" height="0.08" transform="translate(38.6 163.73) rotate(-45)"/><line class="a" x1="217.47" y1="34.15" x2="217.47" y2="35.33"/><polygon class="a" points="217.97 35.21 217.92 35.27 217.97 35.33 218.02 35.27 217.97 35.21"/><line class="a" x1="218.48" y1="34.54" x2="218.48" y2="35.33"/><polyline class="a" points="218.48 34.76 218.65 34.6 218.75 34.54 218.93 34.54 219.04 34.6 219.09 34.76 219.09 35.33"/><polyline class="a" points="219.09 34.76 219.26 34.6 219.38 34.54 219.54 34.54 219.66 34.6 219.71 34.76 219.71 35.33"/><rect class="a" x="220.17" y="35.23" width="0.08" height="0.08" transform="translate(39.55 166.03) rotate(-45)"/><polyline class="a" points="199.4 37.86 199.52 37.8 199.69 37.63 199.69 38.81"/><polyline class="a" points="201.09 38.02 201.03 38.2 200.91 38.3 200.75 38.36 200.7 38.36 200.52 38.3 200.42 38.2 200.36 38.02 200.36 37.96 200.42 37.8 200.52 37.69 200.7 37.63 200.75 37.63 200.91 37.69 201.03 37.8 201.09 38.02 201.09 38.3 201.03 38.59 200.91 38.75 200.75 38.81 200.64 38.81 200.46 38.75 200.42 38.63"/><polygon class="a" points="201.82 37.63 201.64 37.69 201.53 37.86 201.48 38.14 201.48 38.3 201.53 38.59 201.64 38.75 201.82 38.81 201.92 38.81 202.09 38.75 202.21 38.59 202.25 38.3 202.25 38.14 202.21 37.86 202.09 37.69 201.92 37.63 201.82 37.63"/><rect class="a" x="202.66" y="38.71" width="0.08" height="0.08" transform="translate(31.96 154.67) rotate(-45)"/><polyline class="a" points="203.83 37.63 203.27 37.63 203.22 38.14 203.27 38.08 203.43 38.02 203.61 38.02 203.77 38.08 203.88 38.2 203.94 38.36 203.94 38.47 203.88 38.63 203.77 38.75 203.61 38.81 203.43 38.81 203.27 38.75 203.22 38.69 203.16 38.59"/><polyline class="a" points="205.01 37.8 204.95 37.69 204.77 37.63 204.67 37.63 204.5 37.69 204.38 37.86 204.34 38.14 204.34 38.41 204.38 38.63 204.5 38.75 204.67 38.81 204.73 38.81 204.89 38.75 205.01 38.63 205.06 38.47 205.06 38.41 205.01 38.26 204.89 38.14 204.73 38.08 204.67 38.08 204.5 38.14 204.38 38.26 204.34 38.41"/><line class="a" x1="206.62" y1="38.02" x2="206.62" y2="38.81"/><polyline class="a" points="206.62 38.26 206.8 38.08 206.9 38.02 207.07 38.02 207.19 38.08 207.23 38.26 207.23 38.81"/><polyline class="a" points="207.23 38.26 207.41 38.08 207.53 38.02 207.69 38.02 207.8 38.08 207.86 38.26 207.86 38.81"/><polyline class="a" points="210.04 38.2 209.99 38.08 209.81 38.02 209.65 38.02 209.48 38.08 209.42 38.2 209.48 38.3 209.59 38.36 209.87 38.41 209.99 38.47 210.04 38.59 210.04 38.63 209.99 38.75 209.81 38.81 209.65 38.81 209.48 38.75 209.42 38.63"/><polygon class="a" points="210.48 38.69 210.44 38.75 210.48 38.81 210.54 38.75 210.48 38.69"/><line class="a" x1="210.99" y1="37.63" x2="210.99" y2="38.81"/><polygon class="a" points="211.5 38.69 211.44 38.75 211.5 38.81 211.54 38.75 211.5 38.69"/><line class="a" x1="212" y1="38.02" x2="212" y2="38.81"/><polyline class="a" points="212 38.26 212.17 38.08 212.27 38.02 212.45 38.02 212.56 38.08 212.61 38.26 212.61 38.81"/><polyline class="a" points="212.61 38.26 212.78 38.08 212.9 38.02 213.06 38.02 213.18 38.08 213.23 38.26 213.23 38.81"/><rect class="a" x="213.69" y="38.71" width="0.08" height="0.08" transform="translate(35.19 162.47) rotate(-45)"/><polyline class="a" points="249.08 20.95 249.2 20.9 249.36 20.72 249.36 21.9"/><polygon class="a" points="250.31 20.72 250.15 20.78 250.09 20.9 250.09 21 250.15 21.11 250.26 21.17 250.48 21.23 250.66 21.29 250.76 21.39 250.82 21.51 250.82 21.68 250.76 21.79 250.7 21.84 250.54 21.9 250.31 21.9 250.15 21.84 250.09 21.79 250.03 21.68 250.03 21.51 250.09 21.39 250.21 21.29 250.37 21.23 250.6 21.17 250.7 21.11 250.76 21 250.76 20.9 250.7 20.78 250.54 20.72 250.31 20.72"/><polyline class="a" points="251.88 21.11 251.82 21.29 251.72 21.39 251.54 21.45 251.49 21.45 251.33 21.39 251.21 21.29 251.15 21.11 251.15 21.06 251.21 20.9 251.33 20.78 251.49 20.72 251.54 20.72 251.72 20.78 251.82 20.9 251.88 21.11 251.88 21.39 251.82 21.68 251.72 21.84 251.54 21.9 251.43 21.9 251.27 21.84 251.21 21.73"/><polygon class="a" points="252.39 21.79 252.33 21.84 252.39 21.9 252.43 21.84 252.39 21.79"/><polyline class="a" points="252.94 20.72 253.55 20.72 253.22 21.17 253.39 21.17 253.51 21.23 253.55 21.29 253.61 21.45 253.61 21.57 253.55 21.73 253.45 21.84 253.28 21.9 253.12 21.9 252.94 21.84 252.88 21.79 252.83 21.68"/><polyline class="a" points="254.18 21.9 254.73 20.72 253.95 20.72"/><line class="a" x1="256.31" y1="21.12" x2="256.31" y2="21.9"/><polyline class="a" points="256.31 21.35 256.47 21.17 256.58 21.11 256.74 21.11 256.86 21.17 256.92 21.35 256.92 21.9"/><polyline class="a" points="256.92 21.35 257.08 21.17 257.19 21.11 257.37 21.11 257.47 21.17 257.53 21.35 257.53 21.9"/><polyline class="a" points="259.71 21.29 259.65 21.17 259.5 21.11 259.32 21.11 259.16 21.17 259.1 21.29 259.16 21.39 259.26 21.45 259.55 21.51 259.65 21.57 259.71 21.68 259.71 21.73 259.65 21.84 259.5 21.9 259.32 21.9 259.16 21.84 259.1 21.73"/><rect class="a" x="260.12" y="21.8" width="0.08" height="0.08" transform="translate(60.73 190.34) rotate(-44.99)"/><line class="a" x1="260.66" y1="20.72" x2="260.66" y2="21.9"/><rect class="a" x="261.13" y="21.8" width="0.08" height="0.08" transform="translate(61.03 191.05) rotate(-44.99)"/><line class="a" x1="261.68" y1="21.12" x2="261.68" y2="21.9"/><polyline class="a" points="261.68 21.35 261.84 21.17 261.96 21.11 262.12 21.11 262.23 21.17 262.29 21.35 262.29 21.9"/><polyline class="a" points="262.29 21.35 262.45 21.17 262.57 21.11 262.74 21.11 262.84 21.17 262.9 21.35 262.9 21.9"/><rect class="a" x="263.37" y="21.8" width="0.08" height="0.08" transform="translate(61.68 192.63) rotate(-44.99)"/><polyline class="a" points="243.08 17.93 243.2 17.87 243.36 17.71 243.36 18.87"/><polyline class="a" points="244.76 18.1 244.7 18.26 244.6 18.38 244.42 18.44 244.37 18.44 244.21 18.38 244.09 18.26 244.03 18.1 244.03 18.04 244.09 17.87 244.21 17.77 244.37 17.71 244.42 17.71 244.6 17.77 244.7 17.87 244.76 18.1 244.76 18.38 244.7 18.65 244.6 18.83 244.42 18.87 244.32 18.87 244.15 18.83 244.09 18.71"/><polygon class="a" points="245.49 17.71 245.33 17.77 245.21 17.93 245.15 18.2 245.15 18.38 245.21 18.65 245.33 18.83 245.49 18.87 245.6 18.87 245.76 18.83 245.88 18.65 245.94 18.38 245.94 18.2 245.88 17.93 245.76 17.77 245.6 17.71 245.49 17.71"/><polygon class="a" points="246.39 18.77 246.33 18.83 246.39 18.87 246.45 18.83 246.39 18.77"/><polyline class="a" points="246.94 17.71 247.56 17.71 247.22 18.16 247.39 18.16 247.51 18.2 247.56 18.26 247.61 18.44 247.61 18.54 247.56 18.71 247.45 18.83 247.28 18.87 247.12 18.87 246.94 18.83 246.88 18.77 246.84 18.65"/><polyline class="a" points="248.18 18.87 248.73 17.71 247.95 17.71"/><line class="a" x1="250.31" y1="18.1" x2="250.31" y2="18.87"/><polyline class="a" points="250.31 18.32 250.47 18.16 250.58 18.1 250.76 18.1 250.86 18.16 250.92 18.32 250.92 18.87"/><polyline class="a" points="250.92 18.32 251.09 18.16 251.19 18.1 251.37 18.1 251.47 18.16 251.53 18.32 251.53 18.87"/><polyline class="a" points="253.71 18.26 253.66 18.16 253.5 18.1 253.32 18.1 253.16 18.16 253.1 18.26 253.16 18.38 253.26 18.44 253.55 18.49 253.66 18.54 253.71 18.65 253.71 18.71 253.66 18.83 253.5 18.87 253.32 18.87 253.16 18.83 253.1 18.71"/><polygon class="a" points="254.17 18.77 254.11 18.83 254.17 18.87 254.22 18.83 254.17 18.77"/><line class="a" x1="254.68" y1="17.71" x2="254.68" y2="18.87"/><polygon class="a" points="255.17 18.77 255.11 18.83 255.17 18.87 255.23 18.83 255.17 18.77"/><line class="a" x1="255.68" y1="18.1" x2="255.68" y2="18.87"/><polyline class="a" points="255.68 18.32 255.84 18.16 255.96 18.1 256.12 18.1 256.23 18.16 256.29 18.32 256.29 18.87"/><polyline class="a" points="256.29 18.32 256.47 18.16 256.57 18.1 256.74 18.1 256.85 18.16 256.9 18.32 256.9 18.87"/><polygon class="a" points="257.41 18.77 257.35 18.83 257.41 18.87 257.47 18.83 257.41 18.77"/><polyline class="a" points="253.35 32.69 253.47 32.63 253.64 32.47 253.64 33.64"/><polygon class="a" points="254.59 32.47 254.41 32.52 254.37 32.63 254.37 32.75 254.41 32.87 254.53 32.91 254.76 32.97 254.92 33.03 255.04 33.14 255.1 33.24 255.1 33.42 255.04 33.54 254.98 33.58 254.81 33.64 254.59 33.64 254.41 33.58 254.37 33.54 254.31 33.42 254.31 33.24 254.37 33.14 254.47 33.03 254.65 32.97 254.87 32.91 254.98 32.87 255.04 32.75 255.04 32.63 254.98 32.52 254.81 32.47 254.59 32.47"/><polyline class="a" points="256.16 32.87 256.1 33.03 255.99 33.14 255.83 33.2 255.77 33.2 255.59 33.14 255.48 33.03 255.43 32.87 255.43 32.81 255.48 32.63 255.59 32.52 255.77 32.47 255.83 32.47 255.99 32.52 256.1 32.63 256.16 32.87 256.16 33.14 256.1 33.42 255.99 33.58 255.83 33.64 255.71 33.64 255.53 33.58 255.48 33.48"/><polygon class="a" points="256.66 33.54 256.6 33.58 256.66 33.64 256.71 33.58 256.66 33.54"/><polyline class="a" points="257.17 32.75 257.17 32.69 257.22 32.58 257.27 32.52 257.38 32.47 257.62 32.47 257.72 32.52 257.78 32.58 257.83 32.69 257.83 32.81 257.78 32.91 257.66 33.09 257.11 33.64 257.89 33.64"/><polyline class="a" points="258.45 33.64 259.01 32.47 258.23 32.47"/><line class="a" x1="260.57" y1="32.87" x2="260.57" y2="33.64"/><polyline class="a" points="260.57 33.09 260.75 32.91 260.85 32.87 261.02 32.87 261.14 32.91 261.2 33.09 261.2 33.64"/><polyline class="a" points="261.2 33.09 261.36 32.91 261.48 32.87 261.64 32.87 261.75 32.91 261.81 33.09 261.81 33.64"/><polyline class="a" points="264 33.03 263.94 32.91 263.76 32.87 263.6 32.87 263.43 32.91 263.37 33.03 263.43 33.14 263.54 33.2 263.82 33.24 263.94 33.3 264 33.42 264 33.48 263.94 33.58 263.76 33.64 263.6 33.64 263.43 33.58 263.37 33.48"/><polygon class="a" points="264.43 33.54 264.39 33.58 264.43 33.64 264.49 33.58 264.43 33.54"/><line class="a" x1="264.94" y1="32.47" x2="264.94" y2="33.64"/><polygon class="a" points="265.45 33.54 265.39 33.58 265.45 33.64 265.49 33.58 265.45 33.54"/><line class="a" x1="265.95" y1="32.87" x2="265.95" y2="33.64"/><polyline class="a" points="265.95 33.09 266.12 32.91 266.22 32.87 266.4 32.87 266.51 32.91 266.56 33.09 266.56 33.64"/><polyline class="a" points="266.56 33.09 266.73 32.91 266.85 32.87 267.01 32.87 267.13 32.91 267.18 33.09 267.18 33.64"/><polygon class="a" points="267.68 33.54 267.62 33.58 267.68 33.64 267.74 33.58 267.68 33.54"/><polyline class="a" points="251.44 35.88 251.56 35.82 251.72 35.65 251.72 36.83"/><polygon class="a" points="252.68 35.65 252.51 35.71 252.45 35.82 252.45 35.94 252.51 36.04 252.62 36.1 252.84 36.16 253.01 36.22 253.12 36.33 253.18 36.43 253.18 36.61 253.12 36.71 253.06 36.77 252.9 36.83 252.68 36.83 252.51 36.77 252.45 36.71 252.39 36.61 252.39 36.43 252.45 36.33 252.56 36.22 252.72 36.16 252.96 36.1 253.06 36.04 253.12 35.94 253.12 35.82 253.06 35.71 252.9 35.65 252.68 35.65"/><polyline class="a" points="254.24 36.04 254.18 36.22 254.08 36.33 253.9 36.38 253.84 36.38 253.69 36.33 253.57 36.22 253.51 36.04 253.51 36 253.57 35.82 253.69 35.71 253.84 35.65 253.9 35.65 254.08 35.71 254.18 35.82 254.24 36.04 254.24 36.33 254.18 36.61 254.08 36.77 253.9 36.83 253.79 36.83 253.63 36.77 253.57 36.67"/><rect class="a" x="254.71" y="36.73" width="0.08" height="0.08" transform="translate(48.6 190.89) rotate(-45)"/><polyline class="a" points="255.24 35.94 255.24 35.88 255.3 35.76 255.36 35.71 255.48 35.65 255.69 35.65 255.81 35.71 255.87 35.76 255.91 35.88 255.91 36 255.87 36.1 255.75 36.27 255.19 36.83 255.97 36.83"/><polyline class="a" points="256.54 36.83 257.09 35.65 256.31 35.65"/><line class="a" x1="258.67" y1="36.04" x2="258.67" y2="36.83"/><polyline class="a" points="258.67 36.27 258.82 36.1 258.94 36.04 259.12 36.04 259.22 36.1 259.28 36.27 259.28 36.83"/><polyline class="a" points="259.28 36.27 259.45 36.1 259.55 36.04 259.73 36.04 259.83 36.1 259.89 36.27 259.89 36.83"/><path class="a" d="M262.07,36.22,262,36.1l-.16-.06c-.39-.07-.54.25-.23.33l.29.06.1.06.06.12v.06l-.06.1-.16.06h-.17l-.16-.06-.06-.1"/><rect class="a" x="262.48" y="36.73" width="0.08" height="0.08" transform="translate(50.88 196.39) rotate(-45)"/><line class="a" x1="263.03" y1="35.65" x2="263.03" y2="36.83"/><rect class="a" x="263.49" y="36.73" width="0.08" height="0.08" transform="translate(51.18 197.1) rotate(-45)"/><line class="a" x1="264.04" y1="36.04" x2="264.04" y2="36.83"/><polyline class="a" points="264.04 36.27 264.2 36.1 264.31 36.04 264.48 36.04 264.59 36.1 264.65 36.27 264.65 36.83"/><polyline class="a" points="264.65 36.27 264.82 36.1 264.93 36.04 265.1 36.04 265.2 36.1 265.26 36.27 265.26 36.83"/><rect class="a" x="265.73" y="36.73" width="0.08" height="0.08" transform="translate(51.83 198.68) rotate(-45)"/><polyline class="a" points="297.92 20.72 298.04 20.66 298.2 20.49 298.2 21.67"/><polyline class="a" points="299.6 20.88 299.54 21.06 299.44 21.17 299.26 21.22 299.2 21.22 299.04 21.17 298.93 21.06 298.87 20.88 298.87 20.84 298.93 20.66 299.04 20.55 299.2 20.49 299.26 20.49 299.44 20.55 299.54 20.66 299.6 20.88 299.6 21.17 299.54 21.45 299.44 21.61 299.26 21.67 299.15 21.67 298.99 21.61 298.93 21.51"/><polygon class="a" points="300.32 20.49 300.17 20.55 300.05 20.72 299.99 21 299.99 21.17 300.05 21.45 300.17 21.61 300.32 21.67 300.44 21.67 300.6 21.61 300.72 21.45 300.78 21.17 300.78 21 300.72 20.72 300.6 20.55 300.44 20.49 300.32 20.49"/><rect class="a" x="301.19" y="21.57" width="0.08" height="0.08" transform="translate(72.92 219.3) rotate(-44.99)"/><polygon class="a" points="302 20.49 301.84 20.55 301.72 20.72 301.67 21 301.67 21.17 301.72 21.45 301.84 21.61 302 21.67 302.12 21.67 302.29 21.61 302.39 21.45 302.45 21.17 302.45 21 302.39 20.72 302.29 20.55 302.12 20.49 302 20.49"/><polyline class="a" points="303.46 20.49 302.9 20.49 302.84 21 302.9 20.94 303.08 20.88 303.24 20.88 303.41 20.94 303.51 21.06 303.57 21.22 303.57 21.33 303.51 21.51 303.41 21.61 303.24 21.67 303.08 21.67 302.9 21.61 302.84 21.55 302.79 21.45"/><line class="a" x1="305.15" y1="20.88" x2="305.15" y2="21.67"/><polyline class="a" points="305.14 21.11 305.31 20.94 305.42 20.88 305.58 20.88 305.7 20.94 305.76 21.11 305.76 21.67"/><polyline class="a" points="305.76 21.11 305.93 20.94 306.03 20.88 306.21 20.88 306.31 20.94 306.37 21.11 306.37 21.67"/><path class="a" d="M308.55,21.06l-.06-.12-.16-.06c-.39-.07-.54.25-.23.33l.29.06.1.06.06.12v.06l-.06.1-.16.06h-.17l-.16-.06-.06-.1"/><rect class="a" x="308.96" y="21.57" width="0.08" height="0.08" transform="translate(75.2 224.8) rotate(-44.99)"/><line class="a" x1="309.5" y1="20.49" x2="309.5" y2="21.67"/><rect class="a" x="309.97" y="21.57" width="0.08" height="0.08" transform="translate(75.49 225.51) rotate(-44.99)"/><line class="a" x1="310.52" y1="20.88" x2="310.52" y2="21.67"/><polyline class="a" points="310.52 21.11 310.68 20.94 310.8 20.88 310.95 20.88 311.07 20.94 311.13 21.11 311.13 21.67"/><polyline class="a" points="311.13 21.11 311.29 20.94 311.41 20.88 311.58 20.88 311.68 20.94 311.74 21.11 311.74 21.67"/><rect class="a" x="312.21" y="21.57" width="0.08" height="0.08" transform="translate(76.15 227.09) rotate(-44.99)"/><polyline class="a" points="300.15 23.91 300.27 23.87 300.43 23.69 300.43 24.87"/><polygon class="a" points="301.37 23.69 301.21 23.75 301.15 23.87 301.15 23.97 301.21 24.09 301.33 24.14 301.55 24.2 301.71 24.25 301.82 24.36 301.88 24.48 301.88 24.64 301.82 24.76 301.77 24.81 301.61 24.87 301.37 24.87 301.21 24.81 301.15 24.76 301.1 24.64 301.1 24.48 301.15 24.36 301.27 24.25 301.43 24.2 301.67 24.14 301.77 24.09 301.82 23.97 301.82 23.87 301.77 23.75 301.61 23.69 301.37 23.69"/><polyline class="a" points="302.95 24.09 302.89 24.25 302.79 24.36 302.61 24.42 302.55 24.42 302.39 24.36 302.28 24.25 302.22 24.09 302.22 24.03 302.28 23.87 302.39 23.75 302.55 23.69 302.61 23.69 302.79 23.75 302.89 23.87 302.95 24.09 302.95 24.36 302.89 24.64 302.79 24.81 302.61 24.87 302.5 24.87 302.33 24.81 302.28 24.7"/><polygon class="a" points="303.46 24.76 303.4 24.81 303.46 24.87 303.5 24.81 303.46 24.76"/><polyline class="a" points="303.95 23.97 303.95 23.91 304.01 23.81 304.07 23.75 304.18 23.69 304.4 23.69 304.52 23.75 304.56 23.81 304.62 23.91 304.62 24.03 304.56 24.14 304.46 24.3 303.89 24.87 304.68 24.87"/><polyline class="a" points="305.07 23.97 305.07 23.91 305.13 23.81 305.19 23.75 305.29 23.69 305.52 23.69 305.64 23.75 305.68 23.81 305.74 23.91 305.74 24.03 305.68 24.14 305.58 24.3 305.01 24.87 305.8 24.87"/><line class="a" x1="307.37" y1="24.09" x2="307.37" y2="24.87"/><polyline class="a" points="307.37 24.3 307.53 24.14 307.65 24.09 307.81 24.09 307.93 24.14 307.98 24.3 307.98 24.87"/><polyline class="a" points="307.98 24.3 308.14 24.14 308.26 24.09 308.44 24.09 308.54 24.14 308.6 24.3 308.6 24.87"/><polyline class="a" points="310.78 24.25 310.72 24.14 310.56 24.09 310.39 24.09 310.23 24.14 310.17 24.25 310.23 24.36 310.33 24.42 310.62 24.48 310.72 24.54 310.78 24.64 310.78 24.7 310.72 24.81 310.56 24.87 310.39 24.87 310.23 24.81 310.17 24.7"/><rect class="a" x="311.19" y="24.77" width="0.08" height="0.08" transform="translate(73.59 227.31) rotate(-44.99)"/><line class="a" x1="311.73" y1="23.69" x2="311.73" y2="24.87"/><rect class="a" x="312.2" y="24.77" width="0.08" height="0.08" transform="translate(73.88 228.02) rotate(-44.99)"/><line class="a" x1="312.75" y1="24.09" x2="312.75" y2="24.87"/><polyline class="a" points="312.75 24.3 312.91 24.14 313.02 24.09 313.18 24.09 313.3 24.14 313.36 24.3 313.36 24.87"/><polyline class="a" points="313.36 24.3 313.52 24.14 313.63 24.09 313.81 24.09 313.91 24.14 313.97 24.3 313.97 24.87"/><rect class="a" x="314.44" y="24.77" width="0.08" height="0.08" transform="translate(74.54 229.61) rotate(-44.99)"/><polyline class="a" points="301.23 27.11 301.34 27.06 301.52 26.9 301.52 28.06"/><polygon class="a" points="302.47 26.9 302.29 26.94 302.25 27.06 302.25 27.17 302.29 27.29 302.41 27.33 302.63 27.39 302.8 27.45 302.92 27.57 302.98 27.67 302.98 27.84 302.92 27.96 302.86 28 302.68 28.06 302.47 28.06 302.29 28 302.25 27.96 302.19 27.84 302.19 27.67 302.25 27.57 302.35 27.45 302.52 27.39 302.74 27.33 302.86 27.29 302.92 27.17 302.92 27.06 302.86 26.94 302.68 26.9 302.47 26.9"/><polyline class="a" points="304.04 27.29 303.98 27.45 303.86 27.57 303.7 27.62 303.64 27.62 303.47 27.57 303.35 27.45 303.31 27.29 303.31 27.23 303.35 27.06 303.47 26.94 303.64 26.9 303.7 26.9 303.86 26.94 303.98 27.06 304.04 27.29 304.04 27.57 303.98 27.84 303.86 28 303.7 28.06 303.59 28.06 303.41 28 303.35 27.9"/><line class="a" x1="305.65" y1="27.29" x2="305.65" y2="28.06"/><polyline class="a" points="305.65 27.51 305.83 27.33 305.93 27.29 306.11 27.29 306.21 27.33 306.27 27.51 306.27 28.06"/><polyline class="a" points="306.27 27.51 306.44 27.33 306.56 27.29 306.72 27.29 306.83 27.33 306.89 27.51 306.89 28.06"/><polyline class="a" points="309.06 27.45 309.02 27.33 308.84 27.29 308.68 27.29 308.51 27.33 308.45 27.45 308.51 27.57 308.63 27.62 308.9 27.67 309.02 27.73 309.06 27.84 309.06 27.9 309.02 28 308.84 28.06 308.68 28.06 308.51 28 308.45 27.9"/><polygon class="a" points="309.51 27.96 309.45 28 309.51 28.06 309.57 28 309.51 27.96"/><line class="a" x1="310.02" y1="26.9" x2="310.02" y2="28.06"/><polygon class="a" points="310.52 27.96 310.47 28 310.52 28.06 310.58 28 310.52 27.96"/><line class="a" x1="311.03" y1="27.29" x2="311.03" y2="28.06"/><polyline class="a" points="311.03 27.51 311.2 27.33 311.3 27.29 311.48 27.29 311.58 27.33 311.64 27.51 311.64 28.06"/><polyline class="a" points="311.64 27.51 311.81 27.33 311.92 27.29 312.09 27.29 312.21 27.33 312.27 27.51 312.27 28.06"/><polygon class="a" points="312.76 27.96 312.7 28 312.76 28.06 312.82 28 312.76 27.96"/><polyline class="a" points="302.04 30.26 302.16 30.2 302.33 30.03 302.33 31.21"/><polygon class="a" points="303.28 30.03 303.11 30.09 303.05 30.2 303.05 30.32 303.11 30.42 303.22 30.48 303.44 30.54 303.62 30.59 303.73 30.71 303.78 30.81 303.78 30.99 303.73 31.11 303.67 31.15 303.5 31.21 303.28 31.21 303.11 31.15 303.05 31.11 303 30.99 303 30.81 303.05 30.71 303.17 30.59 303.34 30.54 303.56 30.48 303.67 30.42 303.73 30.32 303.73 30.2 303.67 30.09 303.5 30.03 303.28 30.03"/><polyline class="a" points="304.84 30.42 304.8 30.59 304.68 30.71 304.5 30.75 304.46 30.75 304.29 30.71 304.17 30.59 304.13 30.42 304.13 30.38 304.17 30.2 304.29 30.09 304.46 30.03 304.5 30.03 304.68 30.09 304.8 30.2 304.84 30.42 304.84 30.71 304.8 30.99 304.68 31.15 304.5 31.21 304.4 31.21 304.23 31.15 304.17 31.05"/><polygon class="a" points="305.35 31.11 305.29 31.15 305.35 31.21 305.41 31.15 305.35 31.11"/><polygon class="a" points="306.13 30.03 305.96 30.09 305.86 30.26 305.8 30.54 305.8 30.71 305.86 30.99 305.96 31.15 306.13 31.21 306.25 31.21 306.41 31.15 306.53 30.99 306.59 30.71 306.59 30.54 306.53 30.26 306.41 30.09 306.25 30.03 306.13 30.03"/><polyline class="a" points="307.59 30.03 307.02 30.03 306.98 30.54 307.02 30.48 307.2 30.42 307.36 30.42 307.53 30.48 307.65 30.59 307.69 30.75 307.69 30.87 307.65 31.05 307.53 31.15 307.36 31.21 307.2 31.21 307.02 31.15 306.98 31.11 306.92 30.99"/><line class="a" x1="309.27" y1="30.42" x2="309.27" y2="31.21"/><polyline class="a" points="309.27 30.65 309.44 30.48 309.54 30.42 309.72 30.42 309.83 30.48 309.88 30.65 309.88 31.21"/><polyline class="a" points="309.88 30.65 310.05 30.48 310.17 30.42 310.33 30.42 310.44 30.48 310.5 30.65 310.5 31.21"/><polyline class="a" points="312.69 30.59 312.63 30.48 312.45 30.42 312.3 30.42 312.12 30.48 312.06 30.59 312.12 30.71 312.24 30.75 312.51 30.81 312.63 30.87 312.69 30.99 312.69 31.05 312.63 31.15 312.45 31.21 312.3 31.21 312.12 31.15 312.06 31.05"/><polygon class="a" points="313.13 31.11 313.07 31.15 313.13 31.21 313.18 31.15 313.13 31.11"/><line class="a" x1="313.63" y1="30.03" x2="313.63" y2="31.21"/><polygon class="a" points="314.13 31.11 314.09 31.15 314.13 31.21 314.19 31.15 314.13 31.11"/><line class="a" x1="314.64" y1="30.42" x2="314.64" y2="31.21"/><polyline class="a" points="314.64 30.65 314.81 30.48 314.92 30.42 315.09 30.42 315.19 30.48 315.25 30.65 315.25 31.21"/><polyline class="a" points="315.25 30.65 315.43 30.48 315.54 30.42 315.7 30.42 315.82 30.48 315.88 30.65 315.88 31.21"/><polygon class="a" points="316.37 31.11 316.31 31.15 316.37 31.21 316.43 31.15 316.37 31.11"/><polyline class="a" points="301.5 33.51 301.62 33.45 301.78 33.29 301.78 34.45"/><polyline class="a" points="303.18 33.68 303.12 33.84 303.02 33.96 302.84 34.02 302.79 34.02 302.63 33.96 302.51 33.84 302.45 33.68 302.45 33.62 302.51 33.45 302.63 33.35 302.79 33.29 302.84 33.29 303.02 33.35 303.12 33.45 303.18 33.68 303.18 33.96 303.12 34.23 303.02 34.41 302.84 34.45 302.74 34.45 302.57 34.41 302.51 34.29"/><polygon class="a" points="303.91 33.29 303.75 33.35 303.63 33.51 303.57 33.78 303.57 33.96 303.63 34.23 303.75 34.41 303.91 34.45 304.02 34.45 304.2 34.41 304.3 34.23 304.36 33.96 304.36 33.78 304.3 33.51 304.2 33.35 304.02 33.29 303.91 33.29"/><polygon class="a" points="304.81 34.35 304.75 34.41 304.81 34.45 304.87 34.41 304.81 34.35"/><polyline class="a" points="305.42 33.51 305.54 33.45 305.7 33.29 305.7 34.45"/><polyline class="a" points="307.1 33.68 307.05 33.84 306.94 33.96 306.76 34.02 306.7 34.02 306.54 33.96 306.43 33.84 306.37 33.68 306.37 33.62 306.43 33.45 306.54 33.35 306.7 33.29 306.76 33.29 306.94 33.35 307.05 33.45 307.1 33.68 307.1 33.96 307.05 34.23 306.94 34.41 306.76 34.45 306.66 34.45 306.49 34.41 306.43 34.29"/><line class="a" x1="308.73" y1="33.68" x2="308.73" y2="34.45"/><polyline class="a" points="308.73 33.9 308.89 33.74 309 33.68 309.18 33.68 309.28 33.74 309.34 33.9 309.34 34.45"/><polyline class="a" points="309.34 33.9 309.51 33.74 309.62 33.68 309.79 33.68 309.91 33.74 309.95 33.9 309.95 34.45"/><polyline class="a" points="312.13 33.84 312.08 33.74 311.92 33.68 311.74 33.68 311.58 33.74 311.52 33.84 311.58 33.96 311.7 34.02 311.97 34.08 312.08 34.12 312.13 34.23 312.13 34.29 312.08 34.41 311.92 34.45 311.74 34.45 311.58 34.41 311.52 34.29"/><polygon class="a" points="312.59 34.35 312.53 34.41 312.59 34.45 312.64 34.41 312.59 34.35"/><line class="a" x1="313.1" y1="33.29" x2="313.1" y2="34.45"/><polygon class="a" points="313.59 34.35 313.53 34.41 313.59 34.45 313.65 34.41 313.59 34.35"/><line class="a" x1="314.1" y1="33.68" x2="314.1" y2="34.45"/><polyline class="a" points="314.1 33.9 314.26 33.74 314.38 33.68 314.55 33.68 314.65 33.74 314.71 33.9 314.71 34.45"/><polyline class="a" points="314.71 33.9 314.89 33.74 314.99 33.68 315.16 33.68 315.26 33.74 315.32 33.9 315.32 34.45"/><polygon class="a" points="315.83 34.35 315.77 34.41 315.83 34.45 315.89 34.41 315.83 34.35"/><polyline class="a" points="244.32 38.59 244.42 38.53 244.6 38.36 244.6 39.54"/><polyline class="a" points="246 38.75 245.94 38.92 245.82 39.04 245.66 39.09 245.6 39.09 245.43 39.04 245.33 38.92 245.27 38.75 245.27 38.71 245.33 38.53 245.43 38.41 245.6 38.36 245.66 38.36 245.82 38.41 245.94 38.53 246 38.75 246 39.04 245.94 39.32 245.82 39.48 245.66 39.54 245.54 39.54 245.38 39.48 245.33 39.38"/><polygon class="a" points="246.72 38.36 246.55 38.41 246.45 38.59 246.39 38.87 246.39 39.04 246.45 39.32 246.55 39.48 246.72 39.54 246.84 39.54 247 39.48 247.12 39.32 247.18 39.04 247.18 38.87 247.12 38.59 247 38.41 246.84 38.36 246.72 38.36"/><polygon class="a" points="247.61 39.42 247.57 39.48 247.61 39.54 247.67 39.48 247.61 39.42"/><polyline class="a" points="248.73 38.36 248.18 38.36 248.12 38.87 248.18 38.81 248.34 38.75 248.52 38.75 248.68 38.81 248.79 38.92 248.85 39.09 248.85 39.2 248.79 39.38 248.68 39.48 248.52 39.54 248.34 39.54 248.18 39.48 248.12 39.42 248.06 39.32"/><polyline class="a" points="249.91 38.75 249.85 38.92 249.74 39.04 249.58 39.09 249.52 39.09 249.36 39.04 249.24 38.92 249.19 38.75 249.19 38.71 249.24 38.53 249.36 38.41 249.52 38.36 249.58 38.36 249.74 38.41 249.85 38.53 249.91 38.75 249.91 39.04 249.85 39.32 249.74 39.48 249.58 39.54 249.46 39.54 249.3 39.48 249.24 39.38"/><line class="a" x1="251.53" y1="38.75" x2="251.53" y2="39.54"/><polyline class="a" points="251.53 38.98 251.71 38.81 251.82 38.75 251.98 38.75 252.1 38.81 252.16 38.98 252.16 39.54"/><polyline class="a" points="252.16 38.98 252.32 38.81 252.43 38.75 252.59 38.75 252.71 38.81 252.77 38.98 252.77 39.54"/><polyline class="a" points="254.95 38.92 254.89 38.81 254.72 38.75 254.56 38.75 254.38 38.81 254.34 38.92 254.38 39.04 254.5 39.09 254.78 39.14 254.89 39.2 254.95 39.32 254.95 39.38 254.89 39.48 254.72 39.54 254.56 39.54 254.38 39.48 254.34 39.38"/><polygon class="a" points="255.4 39.42 255.34 39.48 255.4 39.54 255.45 39.48 255.4 39.42"/><line class="a" x1="255.9" y1="38.36" x2="255.9" y2="39.54"/><rect class="a" x="256.37" y="39.44" width="0.08" height="0.08" transform="translate(47.18 192.86) rotate(-45)"/><line class="a" x1="256.9" y1="38.75" x2="256.9" y2="39.54"/><polyline class="a" points="256.9 38.98 257.08 38.81 257.19 38.75 257.35 38.75 257.47 38.81 257.53 38.98 257.53 39.54"/><polyline class="a" points="257.53 38.98 257.69 38.81 257.81 38.75 257.97 38.75 258.08 38.81 258.14 38.98 258.14 39.54"/><polygon class="a" points="258.64 39.42 258.59 39.48 258.64 39.54 258.69 39.48 258.64 39.42"/><polyline class="a" points="40.74 5.21 24.45 5.21 18.93 11.14"/><polyline class="a" points="41.42 9.06 25.68 9.06 19.26 12.79"/><polyline class="a" points="37.43 23.33 24.23 23.33 19.09 15.95"/><polyline class="a" points="36.88 26.62 20.5 26.62 18.95 18.57"/><polyline class="a" points="89.64 9.23 73.76 9.23 71.25 14.5"/><polyline class="a" points="92.21 14.1 76.44 14.1 70.98 16.83"/><polyline class="a" points="88.75 28.5 74.65 28.5 70.69 19.86"/><polyline class="a" points="87.93 31.59 71.77 31.59 70.62 21.46"/><polyline class="a" points="121.48 15.58 104.05 15.58 101.9 21.33"/><polyline class="a" points="124.99 19.69 108.58 19.69 101.87 23.72"/><polyline class="a" points="129.01 32.75 112.8 32.75 101.56 26.78"/><polyline class="a" points="126.4 36.1 110.77 36.1 101.52 28.24"/><polyline class="a" points="122.78 39.38 106.53 39.38 101.04 29.84"/><polyline class="a" points="168.47 16.85 152.21 16.85 148.59 23.23"/><line class="a" x1="159.34" y1="23.15" x2="148.52" y2="26.23"/><polyline class="a" points="174.27 34.61 157.45 34.61 148.45 28.96"/><polyline class="a" points="168.03 37.8 152.19 37.8 148.32 30.36"/><polyline class="a" points="214.79 19.98 198.98 19.98 194.94 27.36"/><polyline class="a" points="219.92 23.95 204.07 23.95 194.65 29.66"/><polyline class="a" points="221.59 36.2 205.88 36.2 194.55 32.04"/><polyline class="a" points="214.94 39.33 198.98 39.33 194.94 32.9"/><polyline class="a" points="258.36 19.48 242.43 19.48 239.82 25.91"/><polyline class="a" points="264.62 22.38 248.22 22.38 240.11 27.11"/><polyline class="a" points="268.57 34.22 252.78 34.22 240.32 28.5"/><polyline class="a" points="266.88 37.42 250.51 37.42 240.11 29.69"/><polyline class="a" points="259.65 40.08 243.46 40.08 240.13 30.81"/><polyline class="a" points="313.36 22.18 297.73 22.18 296.86 25.54"/><polyline class="a" points="315.62 25.15 299.73 25.15 296.95 25.79"/><polyline class="a" points="313.63 28.37 301.08 28.37 297.51 27.59"/><polyline class="a" points="317.44 31.82 301.75 31.82 297.73 28.48"/><polyline class="a" points="316.69 34.85 301.2 34.85 297.66 29.02"/><polyline class="b" points="233.34 81.46 234.04 80.78 235.41 80.78 236.09 81.46 236.09 82.14 235.41 82.83 234.04 82.83 233.34 83.53 233.34 84.9 236.09 84.9"/><polyline class="b" points="184.23 86.63 184.91 85.95 186.29 85.95 186.98 86.63 186.98 87.31 186.29 88.01 185.6 88.01"/><polyline class="b" points="186.29 88.01 186.98 88.7 186.98 89.38 186.29 90.07 184.91 90.07 184.23 89.38"/><polyline class="b" points="140.5 89.89 137.75 89.89 139.8 87.14 139.8 91.26"/><polyline class="b" points="91.31 94.87 92 95.56 93.36 95.56 94.06 94.87 94.06 93.5 93.36 92.8 91.31 92.8 91.31 91.44 94.06 91.44"/><polyline class="b" points="55.48 72.98 57.54 72.98 58.23 73.67 58.23 74.37 57.54 75.05 56.16 75.05 55.48 74.37 55.48 72.3 56.86 70.92 57.54 70.92"/><polyline class="b" points="6.29 74.11 9.04 74.11 6.97 78.23"/><polyline class="a" points="160.3 21.64 160.41 21.58 160.58 21.41 160.58 22.59"/><polygon class="a" points="161.53 21.41 161.37 21.46 161.31 21.58 161.31 21.68 161.37 21.8 161.47 21.86 161.7 21.92 161.86 21.97 161.98 22.08 162.04 22.19 162.04 22.37 161.98 22.47 161.92 22.53 161.74 22.59 161.53 22.59 161.37 22.53 161.31 22.47 161.25 22.37 161.25 22.19 161.31 22.08 161.41 21.97 161.58 21.92 161.8 21.86 161.92 21.8 161.98 21.68 161.98 21.58 161.92 21.46 161.74 21.41 161.53 21.41"/><polyline class="a" points="163.1 21.8 163.04 21.97 162.92 22.08 162.76 22.13 162.71 22.13 162.53 22.08 162.43 21.97 162.37 21.8 162.37 21.74 162.43 21.58 162.53 21.46 162.71 21.41 162.76 21.41 162.92 21.46 163.04 21.58 163.1 21.8 163.1 22.08 163.04 22.37 162.92 22.53 162.76 22.59 162.65 22.59 162.47 22.53 162.43 22.41"/><rect class="a" x="163.55" y="22.49" width="0.08" height="0.08" transform="translate(31.97 122.26) rotate(-44.99)"/><polyline class="a" points="164.16 21.41 164.77 21.41 164.44 21.86 164.6 21.86 164.72 21.92 164.77 21.97 164.83 22.13 164.83 22.25 164.77 22.41 164.66 22.53 164.5 22.59 164.32 22.59 164.16 22.53 164.1 22.47 164.04 22.37"/><polyline class="a" points="165.38 22.59 165.95 21.41 165.17 21.41"/><line class="a" x1="167.51" y1="21.8" x2="167.51" y2="22.59"/><polyline class="a" points="167.51 22.02 167.69 21.86 167.8 21.8 167.96 21.8 168.08 21.86 168.14 22.02 168.14 22.59"/><polyline class="a" points="168.14 22.02 168.3 21.86 168.41 21.8 168.57 21.8 168.69 21.86 168.75 22.02 168.75 22.59"/><polyline class="a" points="170.93 21.97 170.87 21.86 170.7 21.8 170.54 21.8 170.37 21.86 170.32 21.97 170.37 22.08 170.48 22.13 170.76 22.19 170.87 22.25 170.93 22.37 170.93 22.41 170.87 22.53 170.7 22.59 170.54 22.59 170.37 22.53 170.32 22.41"/><polygon class="a" points="171.38 22.47 171.33 22.53 171.38 22.59 171.43 22.53 171.38 22.47"/><line class="a" x1="171.88" y1="21.41" x2="171.88" y2="22.59"/><rect class="a" x="172.35" y="22.49" width="0.08" height="0.08" transform="translate(34.55 128.48) rotate(-44.99)"/><line class="a" x1="172.88" y1="21.8" x2="172.88" y2="22.59"/><polyline class="a" points="172.88 22.02 173.06 21.86 173.18 21.8 173.34 21.8 173.45 21.86 173.51 22.02 173.51 22.59"/><polyline class="a" points="173.51 22.02 173.67 21.86 173.79 21.8 173.95 21.8 174.06 21.86 174.12 22.02 174.12 22.59"/><polygon class="a" points="174.62 22.47 174.57 22.53 174.62 22.59 174.68 22.53 174.62 22.47"/><polyline class="a" points="148.54 25.8 156.3 19.91 171.88 19.91"/><line class="a" x1="159.34" y1="23.15" x2="175.4" y2="23.15"/></svg>