<svg xmlns="http://www.w3.org/2000/svg" viewBox="0 0 219.9 47.46"><defs><style>.a,.b,.c,.d{fill:none;stroke-linecap:round;stroke-linejoin:round;stroke-width:0.21px;}.a{stroke:#000;}.b{stroke:#00b800;}.c{stroke:#00bfff;}.d{stroke:blue;}</style></defs><title>cad0.7</title><polyline class="a" points="17.7 28.38 17.83 28.32 18.03 28.12 18.03 29.45"/><line class="a" x1="17.87" y1="31.1" x2="17.87" y2="34.79"/><line class="a" x1="1.58" y1="26.49" x2="218.23" y2="26.49"/><line class="a" x1="17.87" y1="31.1" x2="218.23" y2="31.1"/><line class="a" x1="17.87" y1="34.79" x2="218.23" y2="34.79"/><line class="a" x1="17.87" y1="40.33" x2="218.23" y2="40.33"/><polyline class="a" points="17.87 45.86 218.23 45.86 218.23 26.49"/><polyline class="a" points="24.96 32.51 24.91 32.42 24.78 32.38 24.68 32.38 24.55 32.42 24.45 32.55 24.42 32.77 24.42 32.99 24.45 33.16 24.55 33.26 24.68 33.3 24.73 33.3 24.87 33.26 24.96 33.16 25.01 33.04 25.01 32.99 24.96 32.86 24.87 32.77 24.73 32.73 24.68 32.73 24.55 32.77 24.45 32.86 24.42 32.99"/><polygon class="a" points="25.36 33.21 25.32 33.26 25.36 33.3 25.41 33.26 25.36 33.21"/><polyline class="a" points="25.86 32.55 25.95 32.51 26.09 32.38 26.09 33.3"/><polygon class="a" points="17.18 37.65 17.24 37.77 17.43 37.85 17.73 37.9 17.92 37.9 18.23 37.85 18.42 37.77 18.48 37.65 18.48 37.56 18.42 37.44 18.23 37.35 17.92 37.3 17.73 37.3 17.43 37.35 17.24 37.44 17.18 37.56 17.18 37.65"/><polyline class="a" points="17.43 45.29 17.36 45.2 17.18 45.08 18.48 45.08"/><polygon class="a" points="17.18 44.36 17.24 44.48 17.36 44.53 17.49 44.53 17.62 44.48 17.67 44.4 17.73 44.23 17.79 44.1 17.92 44.02 18.04 43.98 18.23 43.98 18.36 44.02 18.42 44.06 18.48 44.19 18.48 44.36 18.42 44.48 18.36 44.53 18.23 44.57 18.04 44.57 17.92 44.53 17.79 44.45 17.73 44.31 17.67 44.14 17.62 44.06 17.49 44.02 17.36 44.02 17.24 44.06 17.18 44.19 17.18 44.36"/><polyline class="a" points="17.62 43.18 17.79 43.21 17.92 43.3 17.98 43.42 17.98 43.47 17.92 43.59 17.79 43.68 17.62 43.73 17.55 43.73 17.36 43.68 17.24 43.59 17.18 43.47 17.18 43.42 17.24 43.3 17.36 43.21 17.62 43.18 17.92 43.18 18.23 43.21 18.42 43.3 18.48 43.42 18.48 43.51 18.42 43.64 18.29 43.68"/><polygon class="a" points="18.36 42.79 18.42 42.84 18.48 42.79 18.42 42.75 18.36 42.79"/><polyline class="a" points="17.18 41.94 17.18 42.37 17.73 42.41 17.67 42.37 17.62 42.24 17.62 42.12 17.67 41.99 17.79 41.91 17.98 41.86 18.11 41.86 18.29 41.91 18.42 41.99 18.48 42.12 18.48 42.24 18.42 42.37 18.36 42.41 18.23 42.46"/><polyline class="a" points="17.18 41.53 17.18 41.05 17.67 41.31 17.67 41.19 17.73 41.1 17.79 41.05 17.98 41.02 18.11 41.02 18.29 41.05 18.42 41.14 18.48 41.27 18.48 41.4 18.42 41.53 18.36 41.57 18.23 41.6"/><line class="a" x1="17.87" y1="26.49" x2="17.87" y2="4.48"/><line class="a" x1="214.68" y1="26.49" x2="214.68" y2="8.43"/><line class="a" x1="198.75" y1="26.49" x2="198.75" y2="8.26"/><line class="a" x1="170.02" y1="26.49" x2="170.02" y2="7.99"/><line class="a" x1="142.35" y1="26.49" x2="142.35" y2="7.47"/><line class="a" x1="102.49" y1="26.49" x2="102.49" y2="6.68"/><line class="a" x1="78.64" y1="26.49" x2="78.64" y2="6"/><line class="a" x1="58.22" y1="26.49" x2="58.22" y2="5.33"/><line class="a" x1="49.9" y1="26.49" x2="49.9" y2="1.66"/><line class="a" x1="45.37" y1="26.49" x2="45.37" y2="4.12"/><line class="a" x1="39.91" y1="26.49" x2="39.91" y2="3.89"/><line class="a" x1="37.06" y1="26.49" x2="37.06" y2="2.27"/><line class="a" x1="32.33" y1="26.49" x2="32.33" y2="3.19"/><polyline class="a" points="17.87 4.48 23.25 4.02 24.5 4.12 29.25 3.65 32.33 3.19 37.06 2.27 39.91 3.88 42.76 4.12 45.37 4.12 46.27 3.65 48.22 3.19 49.9 1.66"/><polyline class="a" points="54.46 3.31 58.22 5.33 59.66 5.52 66.43 5.69 78.64 6 90.59 6.54 102.49 6.68 116.03 7.04 128.79 7.22 142.35 7.47 155.52 7.62 170.02 7.99 184.52 8.05 198.75 8.26 214.68 8.43"/><polyline class="a" points="49.9 1.66 52.42 1.98 54.46 3.31"/><polyline class="a" points="31.95 28.44 31.95 28.38 32.01 28.26 32.07 28.2 32.21 28.12 32.46 28.12 32.6 28.2 32.66 28.26 32.72 28.38 32.72 28.51 32.66 28.64 32.52 28.83 31.88 29.45 32.79 29.45"/><polyline class="a" points="36.75 28.12 37.47 28.12 37.08 28.64 37.27 28.64 37.4 28.7 37.47 28.76 37.53 28.95 37.53 29.07 37.47 29.27 37.34 29.39 37.14 29.45 36.94 29.45 36.75 29.39 36.69 29.33 36.63 29.21"/><polyline class="a" points="40.09 28.12 39.44 29.01 40.41 29.01"/><line class="a" x1="40.09" y1="28.12" x2="40.09" y2="29.45"/><polyline class="a" points="45.7 28.12 45.05 28.12 44.98 28.7 45.05 28.64 45.25 28.57 45.43 28.57 45.63 28.64 45.76 28.76 45.84 28.95 45.84 29.07 45.76 29.27 45.63 29.39 45.43 29.45 45.25 29.45 45.05 29.39 44.98 29.33 44.92 29.21"/><polyline class="a" points="50.27 28.32 50.2 28.2 50 28.12 49.88 28.12 49.68 28.2 49.55 28.38 49.49 28.7 49.49 29.01 49.55 29.27 49.68 29.39 49.88 29.45 49.94 29.45 50.13 29.39 50.27 29.27 50.33 29.07 50.33 29.01 50.27 28.83 50.13 28.7 49.94 28.64 49.88 28.64 49.68 28.7 49.55 28.83 49.49 29.01"/><polyline class="a" points="58.03 29.45 58.69 28.12 57.77 28.12"/><polygon class="a" points="78.51 28.12 78.32 28.2 78.26 28.32 78.26 28.44 78.32 28.57 78.45 28.64 78.71 28.7 78.9 28.76 79.04 28.89 79.1 29.01 79.1 29.21 79.04 29.33 78.97 29.39 78.77 29.45 78.51 29.45 78.32 29.39 78.26 29.33 78.18 29.21 78.18 29.01 78.26 28.89 78.39 28.76 78.57 28.7 78.84 28.64 78.97 28.57 79.04 28.44 79.04 28.32 78.97 28.2 78.77 28.12 78.51 28.12"/><polyline class="a" points="102.92 28.57 102.85 28.76 102.73 28.89 102.53 28.95 102.47 28.95 102.28 28.89 102.14 28.76 102.08 28.57 102.08 28.51 102.14 28.32 102.28 28.2 102.47 28.12 102.53 28.12 102.73 28.2 102.85 28.32 102.92 28.57 102.92 28.89 102.85 29.21 102.73 29.39 102.53 29.45 102.4 29.45 102.2 29.39 102.14 29.27"/><polyline class="a" points="141.35 28.38 141.48 28.32 141.68 28.12 141.68 29.45"/><polygon class="a" points="142.84 28.12 142.66 28.2 142.52 28.38 142.46 28.7 142.46 28.89 142.52 29.21 142.66 29.39 142.84 29.45 142.98 29.45 143.17 29.39 143.31 29.21 143.37 28.89 143.37 28.7 143.31 28.38 143.17 28.2 142.98 28.12 142.84 28.12"/><polyline class="a" points="169.22 28.38 169.34 28.32 169.55 28.12 169.55 29.45"/><polyline class="a" points="170.53 28.38 170.65 28.32 170.85 28.12 170.85 29.45"/><polyline class="a" points="197.74 28.38 197.87 28.32 198.07 28.12 198.07 29.45"/><polyline class="a" points="198.91 28.44 198.91 28.38 198.97 28.26 199.05 28.2 199.17 28.12 199.44 28.12 199.56 28.2 199.62 28.26 199.69 28.38 199.69 28.51 199.62 28.64 199.5 28.83 198.84 29.45 199.76 29.45"/><polyline class="a" points="213.68 28.38 213.8 28.32 214 28.12 214 29.45"/><polyline class="a" points="214.91 28.12 215.62 28.12 215.23 28.64 215.43 28.64 215.56 28.7 215.62 28.76 215.69 28.95 215.69 29.07 215.62 29.27 215.5 29.39 215.3 29.45 215.11 29.45 214.91 29.39 214.84 29.33 214.78 29.21"/><line class="a" x1="32.33" y1="31.1" x2="32.33" y2="34.79"/><line class="a" x1="37.06" y1="31.1" x2="37.06" y2="34.79"/><line class="a" x1="39.91" y1="31.1" x2="39.91" y2="34.79"/><line class="a" x1="45.37" y1="31.1" x2="45.37" y2="34.79"/><line class="a" x1="49.9" y1="31.1" x2="49.9" y2="34.79"/><line class="a" x1="58.22" y1="31.1" x2="58.22" y2="34.79"/><line class="a" x1="78.64" y1="31.1" x2="78.64" y2="34.79"/><line class="a" x1="102.49" y1="31.1" x2="102.49" y2="34.79"/><line class="a" x1="142.35" y1="31.1" x2="142.35" y2="34.79"/><line class="a" x1="170.02" y1="31.1" x2="170.02" y2="34.79"/><line class="a" x1="198.75" y1="31.1" x2="198.75" y2="34.79"/><line class="a" x1="214.68" y1="31.1" x2="214.68" y2="34.79"/><polyline class="a" points="34.22 32.6 34.22 32.55 34.27 32.47 34.3 32.42 34.41 32.38 34.58 32.38 34.67 32.42 34.72 32.47 34.76 32.55 34.76 32.64 34.72 32.73 34.63 32.86 34.18 33.3 34.81 33.3"/><polyline class="a" points="37.53 32.55 37.62 32.51 37.76 32.38 37.76 33.3"/><polygon class="a" points="38.38 33.21 38.34 33.26 38.38 33.3 38.43 33.26 38.38 33.21"/><polyline class="a" points="38.8 32.6 38.8 32.55 38.83 32.47 38.88 32.42 38.97 32.38 39.16 32.38 39.25 32.42 39.29 32.47 39.34 32.55 39.34 32.64 39.29 32.73 39.2 32.86 38.75 33.3 39.39 33.3"/><polyline class="a" points="41.55 32.6 41.55 32.55 41.58 32.47 41.63 32.42 41.72 32.38 41.9 32.38 42 32.42 42.03 32.47 42.08 32.55 42.08 32.64 42.03 32.73 41.95 32.86 41.49 33.3 42.12 33.3"/><polygon class="a" points="42.49 33.21 42.45 33.26 42.49 33.3 42.54 33.26 42.49 33.21"/><polyline class="a" points="42.94 32.38 43.44 32.38 43.16 32.73 43.3 32.73 43.39 32.77 43.44 32.82 43.48 32.95 43.48 33.04 43.44 33.16 43.35 33.26 43.21 33.3 43.08 33.3 42.94 33.26 42.9 33.21 42.85 33.13"/><polyline class="a" points="46.55 32.55 46.65 32.51 46.78 32.38 46.78 33.3"/><polygon class="a" points="47.42 33.21 47.37 33.26 47.42 33.3 47.45 33.26 47.42 33.21"/><polyline class="a" points="48.36 32.69 48.32 32.82 48.23 32.91 48.09 32.95 48.04 32.95 47.91 32.91 47.82 32.82 47.78 32.69 47.78 32.64 47.82 32.51 47.91 32.42 48.04 32.38 48.09 32.38 48.23 32.42 48.32 32.51 48.36 32.69 48.36 32.91 48.32 33.13 48.23 33.26 48.09 33.3 48.01 33.3 47.87 33.26 47.82 33.16"/><path class="a" d="M52.57,32.38h.5l-.28.34h.14c.49.24,0,.82-.4.49l-.05-.09"/><polygon class="a" points="53.48 33.21 53.44 33.26 53.48 33.3 53.53 33.26 53.48 33.21"/><polyline class="a" points="54.38 32.38 53.93 32.38 53.89 32.77 53.93 32.73 54.07 32.69 54.2 32.69 54.34 32.73 54.43 32.82 54.48 32.95 54.48 33.04 54.43 33.16 54.34 33.26 54.2 33.3 54.07 33.3 53.93 33.26 53.89 33.21 53.84 33.13"/><path class="a" d="M68,32.38l-.14,0,0,.09v.1l0,.09.09,0,.19,0,.14,0,.09.09,0,.09v.13l0,.09-.05,0-.14,0H68l-.14,0c-.44-.64.79-.35.45-.84l-.14,0Z"/><polygon class="a" points="68.77 33.21 68.74 33.26 68.77 33.3 68.82 33.26 68.77 33.21"/><polyline class="a" points="69.73 32.51 69.68 32.42 69.54 32.38 69.45 32.38 69.31 32.42 69.22 32.55 69.19 32.77 69.19 32.99 69.22 33.16 69.31 33.26 69.45 33.3 69.5 33.3 69.64 33.26 69.73 33.16 69.77 33.04 69.77 32.99 69.73 32.86 69.64 32.77 69.5 32.73 69.45 32.73 69.31 32.77 69.22 32.86 69.19 32.99"/><polyline class="a" points="89.92 32.55 90 32.51 90.14 32.38 90.14 33.3"/><polygon class="a" points="90.95 32.38 90.82 32.42 90.72 32.55 90.68 32.77 90.68 32.91 90.72 33.13 90.82 33.26 90.95 33.3 91.05 33.3 91.17 33.26 91.27 33.13 91.31 32.91 91.31 32.77 91.27 32.55 91.17 32.42 91.05 32.38 90.95 32.38"/><polygon class="a" points="91.67 33.21 91.62 33.26 91.67 33.3 91.72 33.26 91.67 33.21"/><polyline class="a" points="92.17 32.55 92.26 32.51 92.4 32.38 92.4 33.3"/><polyline class="a" points="121.68 32.55 121.76 32.51 121.9 32.38 121.9 33.3"/><polyline class="a" points="123.03 32.51 122.98 32.42 122.84 32.38 122.75 32.38 122.62 32.42 122.53 32.55 122.48 32.77 122.48 32.99 122.53 33.16 122.62 33.26 122.75 33.3 122.81 33.3 122.93 33.26 123.03 33.16 123.07 33.04 123.07 32.99 123.03 32.86 122.93 32.77 122.81 32.73 122.75 32.73 122.62 32.77 122.53 32.86 122.48 32.99"/><polygon class="a" points="123.43 33.21 123.38 33.26 123.43 33.3 123.48 33.26 123.43 33.21"/><polygon class="a" points="124.02 32.38 123.88 32.42 123.83 32.51 123.83 32.6 123.88 32.69 123.97 32.73 124.16 32.77 124.29 32.82 124.39 32.91 124.42 32.99 124.42 33.13 124.39 33.21 124.34 33.26 124.2 33.3 124.02 33.3 123.88 33.26 123.83 33.21 123.8 33.13 123.8 32.99 123.83 32.91 123.93 32.82 124.06 32.77 124.25 32.73 124.34 32.69 124.39 32.6 124.39 32.51 124.34 32.42 124.2 32.38 124.02 32.38"/><polyline class="a" points="154.59 32.55 154.68 32.51 154.81 32.38 154.81 33.3"/><polyline class="a" points="155.49 32.55 155.58 32.51 155.72 32.38 155.72 33.3"/><polygon class="a" points="156.36 33.21 156.31 33.26 156.36 33.3 156.4 33.26 156.36 33.21"/><polyline class="a" points="156.9 33.3 157.35 32.38 156.71 32.38"/><polyline class="a" points="183.13 32.55 183.22 32.51 183.36 32.38 183.36 33.3"/><polyline class="a" points="183.95 32.6 183.95 32.55 184 32.47 184.04 32.42 184.13 32.38 184.31 32.38 184.4 32.42 184.45 32.47 184.49 32.55 184.49 32.64 184.45 32.73 184.35 32.86 183.9 33.3 184.54 33.3"/><polygon class="a" points="184.91 33.21 184.85 33.26 184.91 33.3 184.94 33.26 184.91 33.21"/><polyline class="a" points="185.39 32.55 185.48 32.51 185.62 32.38 185.62 33.3"/><polyline class="a" points="206.46 32.51 206.42 32.42 206.29 32.38 206.2 32.38 206.06 32.42 205.97 32.55 205.92 32.77 205.92 32.99 205.97 33.16 206.06 33.26 206.2 33.3 206.24 33.3 206.37 33.26 206.46 33.16 206.51 33.04 206.51 32.99 206.46 32.86 206.37 32.77 206.24 32.73 206.2 32.73 206.06 32.77 205.97 32.86 205.92 32.99"/><polygon class="a" points="206.88 33.21 206.83 33.26 206.88 33.3 206.91 33.26 206.88 33.21"/><polyline class="a" points="207.42 33.3 207.87 32.38 207.23 32.38"/><polyline class="a" points="31.87 37.88 31.75 37.93 31.68 38.05 31.68 38.13 31.75 38.26 31.93 38.34 32.23 38.39 32.55 38.39 32.8 38.34 32.92 38.26 32.99 38.13 32.99 38.09 32.92 37.96 32.8 37.88 32.61 37.84 32.55 37.84 32.36 37.88 32.23 37.96 32.17 38.09 32.17 38.13 32.23 38.26 32.36 38.34 32.55 38.39"/><polygon class="a" points="32.86 37.5 32.92 37.54 32.99 37.5 32.92 37.45 32.86 37.5"/><polyline class="a" points="31.93 37.04 31.87 36.95 31.68 36.83 32.99 36.83"/><polygon class="a" points="36.42 38.2 36.49 38.32 36.61 38.37 36.74 38.37 36.85 38.32 36.91 38.24 36.98 38.07 37.04 37.94 37.16 37.85 37.29 37.82 37.48 37.82 37.6 37.85 37.67 37.9 37.73 38.02 37.73 38.2 37.67 38.32 37.6 38.37 37.48 38.4 37.29 38.4 37.16 38.37 37.04 38.28 36.98 38.16 36.91 37.99 36.85 37.9 36.74 37.85 36.61 37.85 36.49 37.9 36.42 38.02 36.42 38.2"/><polygon class="a" points="37.6 37.48 37.67 37.52 37.73 37.48 37.67 37.44 37.6 37.48"/><polyline class="a" points="36.68 37.01 36.61 36.93 36.42 36.8 37.73 36.8"/><polyline class="a" points="39.7 37.99 39.89 38.02 40.01 38.11 40.08 38.24 40.08 38.28 40.01 38.4 39.89 38.49 39.7 38.54 39.64 38.54 39.45 38.49 39.34 38.4 39.27 38.28 39.27 38.24 39.34 38.11 39.45 38.02 39.7 37.99 40.01 37.99 40.33 38.02 40.52 38.11 40.57 38.24 40.57 38.32 40.52 38.45 40.39 38.49"/><polygon class="a" points="40.45 37.61 40.52 37.65 40.57 37.61 40.52 37.56 40.45 37.61"/><polyline class="a" points="39.27 37.18 39.27 36.72 39.76 36.98 39.76 36.84 39.83 36.76 39.89 36.72 40.08 36.67 40.2 36.67 40.39 36.72 40.52 36.8 40.57 36.93 40.57 37.06 40.52 37.18 40.45 37.22 40.33 37.27"/><polyline class="a" points="44.97 38.89 44.91 38.81 44.72 38.68 46.02 38.68"/><polyline class="a" points="44.97 38.05 44.91 37.96 44.72 37.84 46.02 37.84"/><polygon class="a" points="45.9 37.24 45.96 37.29 46.02 37.24 45.96 37.21 45.9 37.24"/><polyline class="a" points="44.91 36.35 44.78 36.4 44.72 36.52 44.72 36.61 44.78 36.74 44.97 36.83 45.28 36.87 45.59 36.87 45.84 36.83 45.96 36.74 46.02 36.61 46.02 36.57 45.96 36.44 45.84 36.35 45.65 36.31 45.59 36.31 45.41 36.35 45.28 36.44 45.22 36.57 45.22 36.61 45.28 36.74 45.41 36.83 45.59 36.87"/><polyline class="a" points="49.5 38.89 49.44 38.81 49.25 38.68 50.55 38.68"/><path class="a" d="M49.25,38.09v-.46l.5.26v-.12c.22-.41,1.17-.06.68.38l-.13,0"/><polygon class="a" points="50.43 37.24 50.49 37.29 50.55 37.24 50.49 37.21 50.43 37.24"/><polyline class="a" points="49.25 36.4 49.25 36.83 49.81 36.87 49.75 36.83 49.69 36.69 49.69 36.57 49.75 36.44 49.88 36.35 50.05 36.31 50.18 36.31 50.37 36.35 50.49 36.44 50.55 36.57 50.55 36.69 50.49 36.83 50.43 36.87 50.3 36.9"/><polyline class="a" points="57.82 38.26 57.76 38.17 57.57 38.05 58.87 38.05"/><polyline class="a" points="58.87 37.38 57.57 36.95 57.57 37.54"/><polyline class="a" points="78.3 38.92 78.23 38.92 78.11 38.88 78.05 38.83 78 38.74 78 38.57 78.05 38.49 78.11 38.45 78.23 38.4 78.36 38.4 78.49 38.45 78.67 38.54 79.29 38.95 79.29 38.37"/><path class="a" d="M78,37.61V38l.55,0-.06,0c-.43-.73,1.3-.62.69,0l-.13,0"/><polygon class="a" points="79.18 37.18 79.24 37.22 79.29 37.18 79.24 37.13 79.18 37.18"/><polyline class="a" points="78.17 36.29 78.05 36.34 78 36.46 78 36.55 78.05 36.67 78.23 36.76 78.55 36.8 78.86 36.8 79.11 36.76 79.24 36.67 79.29 36.55 79.29 36.51 79.24 36.38 79.11 36.29 78.92 36.25 78.86 36.25 78.67 36.29 78.55 36.38 78.49 36.51 78.49 36.55 78.55 36.67 78.67 36.76 78.86 36.8"/><polyline class="a" points="101.85 38.88 101.85 38.4 102.34 38.66 102.34 38.54 102.4 38.45 102.47 38.4 102.65 38.37 102.78 38.37 102.97 38.4 103.09 38.49 103.16 38.62 103.16 38.74 103.09 38.88 103.03 38.92 102.9 38.95"/><path class="a" d="M101.85,37.61V38l.55,0-.06,0c-.43-.74,1.33-.6.69,0l-.13,0"/><polygon class="a" points="103.03 37.18 103.09 37.22 103.16 37.18 103.09 37.13 103.03 37.18"/><polyline class="a" points="103.16 36.67 101.85 36.25 101.85 36.84"/><polyline class="a" points="141.7 38.45 141.7 38.88 142.27 38.92 142.2 38.88 142.14 38.74 142.14 38.62 142.2 38.49 142.33 38.4 142.52 38.37 142.64 38.37 142.82 38.4 142.94 38.49 143.01 38.62 143.01 38.74 142.94 38.88 142.88 38.92 142.76 38.95"/><polyline class="a" points="142.02 38.07 141.95 38.07 141.83 38.02 141.76 37.99 141.7 37.9 141.7 37.73 141.76 37.65 141.83 37.61 141.95 37.56 142.08 37.56 142.2 37.61 142.39 37.7 143.01 38.11 143.01 37.52"/><polygon class="a" points="142.88 37.18 142.94 37.22 143.01 37.18 142.94 37.13 142.88 37.18"/><path class="a" d="M141.7,36.34v.42l.56,0-.06,0c-.43-.75,1.31-.6.68,0l-.13,0"/><polyline class="a" points="169.57 38.43 169.45 38.48 169.38 38.6 169.38 38.68 169.45 38.81 169.62 38.89 169.94 38.94 170.25 38.94 170.5 38.89 170.63 38.81 170.69 38.68 170.69 38.63 170.63 38.51 170.5 38.43 170.31 38.39 170.25 38.39 170.06 38.43 169.94 38.51 169.87 38.63 169.87 38.68 169.94 38.81 170.06 38.89 170.25 38.94"/><polyline class="a" points="169.38 37.71 170.25 38.13 170.25 37.5"/><line class="a" x1="169.38" y1="37.71" x2="170.69" y2="37.71"/><polygon class="a" points="170.56 37.21 170.63 37.24 170.69 37.21 170.63 37.16 170.56 37.21"/><polyline class="a" points="169.68 36.83 169.62 36.83 169.51 36.78 169.45 36.74 169.38 36.66 169.38 36.49 169.45 36.4 169.51 36.35 169.62 36.31 169.75 36.31 169.87 36.35 170.06 36.44 170.69 36.87 170.69 36.27"/><polyline class="a" points="199.4 38.79 198.09 38.37 198.09 38.95"/><polyline class="a" points="198.28 37.56 198.16 37.61 198.09 37.73 198.09 37.82 198.16 37.94 198.34 38.02 198.66 38.07 198.96 38.07 199.21 38.02 199.34 37.94 199.4 37.82 199.4 37.77 199.34 37.65 199.21 37.56 199.02 37.52 198.96 37.52 198.78 37.56 198.66 37.65 198.59 37.77 198.59 37.82 198.66 37.94 198.78 38.02 198.96 38.07"/><polygon class="a" points="199.27 37.18 199.34 37.22 199.4 37.18 199.34 37.13 199.27 37.18"/><polyline class="a" points="198.09 36.76 198.09 36.29 198.59 36.55 198.59 36.42 198.66 36.34 198.72 36.29 198.91 36.25 199.02 36.25 199.21 36.29 199.34 36.38 199.4 36.51 199.4 36.63 199.34 36.76 199.27 36.8 199.15 36.84"/><path class="a" d="M214,38.11l.06.13.13,0h.13l.13,0,.06-.09.06-.17.06-.13.11-.09.13,0h.19l.13,0,.06,0,.06.12v.17l-.06.13c-.95.4-.46-.74-1.18-.43l-.06.12Z"/><path class="a" d="M214,37.39v-.46l.5.26v-.12c.22-.41,1.18-.06.68.38l-.13,0"/><polyline class="a" points="31.93 45.27 31.87 45.18 31.7 45.06 32.99 45.06"/><polyline class="a" points="32.12 44 32.31 44.04 32.44 44.13 32.5 44.25 32.5 44.29 32.44 44.42 32.31 44.51 32.12 44.55 32.06 44.55 31.87 44.51 31.75 44.42 31.69 44.29 31.69 44.25 31.75 44.13 31.87 44.04 32.12 44 32.44 44 32.75 44.04 32.94 44.13 32.99 44.25 32.99 44.34 32.94 44.46 32.81 44.51"/><polygon class="a" points="31.69 43.45 31.75 43.58 31.93 43.67 32.25 43.7 32.44 43.7 32.75 43.67 32.94 43.58 32.99 43.45 32.99 43.36 32.94 43.24 32.75 43.15 32.44 43.1 32.25 43.1 31.93 43.15 31.75 43.24 31.69 43.36 31.69 43.45"/><polygon class="a" points="32.87 42.77 32.94 42.81 32.99 42.77 32.94 42.73 32.87 42.77"/><polygon class="a" points="31.69 42.18 31.75 42.31 31.93 42.4 32.25 42.43 32.44 42.43 32.75 42.4 32.94 42.31 32.99 42.18 32.99 42.09 32.94 41.97 32.75 41.88 32.44 41.85 32.25 41.85 31.93 41.88 31.75 41.97 31.69 42.09 31.69 42.18"/><polyline class="a" points="32.12 41.04 32.31 41.08 32.44 41.16 32.5 41.3 32.5 41.33 32.44 41.46 32.31 41.54 32.12 41.59 32.06 41.59 31.87 41.54 31.75 41.46 31.69 41.33 31.69 41.3 31.75 41.16 31.87 41.08 32.12 41.04 32.44 41.04 32.75 41.08 32.94 41.16 32.99 41.3 32.99 41.37 32.94 41.51 32.81 41.54"/><polyline class="a" points="36.68 45.27 36.61 45.18 36.42 45.06 37.73 45.06"/><polyline class="a" points="36.86 44 37.05 44.04 37.18 44.13 37.24 44.25 37.24 44.29 37.18 44.42 37.05 44.51 36.86 44.55 36.8 44.55 36.61 44.51 36.49 44.42 36.42 44.29 36.42 44.25 36.49 44.13 36.61 44.04 36.86 44 37.18 44 37.49 44.04 37.67 44.13 37.73 44.25 37.73 44.34 37.67 44.46 37.55 44.51"/><polygon class="a" points="36.42 43.45 36.49 43.58 36.68 43.67 36.99 43.7 37.18 43.7 37.49 43.67 37.67 43.58 37.73 43.45 37.73 43.36 37.67 43.24 37.49 43.15 37.18 43.1 36.99 43.1 36.68 43.15 36.49 43.24 36.42 43.36 36.42 43.45"/><polygon class="a" points="37.62 42.77 37.67 42.81 37.73 42.77 37.67 42.73 37.62 42.77"/><polyline class="a" points="36.42 42.01 37.3 42.43 37.3 41.8"/><line class="a" x1="36.43" y1="42.01" x2="37.73" y2="42.01"/><polyline class="a" points="36.86 41.04 37.05 41.08 37.18 41.16 37.24 41.3 37.24 41.33 37.18 41.46 37.05 41.54 36.86 41.59 36.8 41.59 36.61 41.54 36.49 41.46 36.42 41.33 36.42 41.3 36.49 41.16 36.61 41.08 36.86 41.04 37.18 41.04 37.49 41.08 37.67 41.16 37.73 41.3 37.73 41.37 37.67 41.51 37.55 41.54"/><polyline class="a" points="39.52 45.27 39.46 45.18 39.27 45.06 40.58 45.06"/><polygon class="a" points="39.27 44.34 39.34 44.46 39.46 44.51 39.59 44.51 39.71 44.46 39.77 44.37 39.84 44.22 39.9 44.08 40.03 44 40.15 43.96 40.33 43.96 40.45 44 40.52 44.04 40.58 44.17 40.58 44.34 40.52 44.46 40.45 44.51 40.33 44.55 40.15 44.55 40.03 44.51 39.9 44.42 39.84 44.29 39.77 44.13 39.71 44.04 39.59 44 39.46 44 39.34 44.04 39.27 44.17 39.27 44.34"/><polyline class="a" points="39.71 43.15 39.9 43.19 40.03 43.27 40.09 43.41 40.09 43.45 40.03 43.58 39.9 43.67 39.71 43.7 39.65 43.7 39.46 43.67 39.34 43.58 39.27 43.45 39.27 43.41 39.34 43.27 39.46 43.19 39.71 43.15 40.03 43.15 40.33 43.19 40.52 43.27 40.58 43.41 40.58 43.49 40.52 43.62 40.39 43.67"/><polygon class="a" points="40.45 42.77 40.52 42.81 40.58 42.77 40.52 42.73 40.45 42.77"/><polyline class="a" points="40.58 42.26 39.27 41.85 39.27 42.43"/><polyline class="a" points="39.71 41.04 39.9 41.08 40.03 41.16 40.09 41.3 40.09 41.33 40.03 41.46 39.9 41.54 39.71 41.59 39.65 41.59 39.46 41.54 39.34 41.46 39.27 41.33 39.27 41.3 39.34 41.16 39.46 41.08 39.71 41.04 40.03 41.04 40.33 41.08 40.52 41.16 40.58 41.3 40.58 41.37 40.52 41.51 40.39 41.54"/><polyline class="a" points="44.98 45.27 44.92 45.18 44.73 45.06 46.04 45.06"/><polygon class="a" points="44.73 44.34 44.8 44.46 44.92 44.51 45.05 44.51 45.17 44.46 45.22 44.37 45.28 44.22 45.35 44.08 45.47 44 45.6 43.96 45.79 43.96 45.91 44 45.97 44.04 46.04 44.17 46.04 44.34 45.97 44.46 45.91 44.51 45.79 44.55 45.6 44.55 45.47 44.51 45.35 44.42 45.28 44.29 45.22 44.13 45.17 44.04 45.05 44 44.92 44 44.8 44.04 44.73 44.17 44.73 44.34"/><polyline class="a" points="45.17 43.15 45.35 43.19 45.47 43.27 45.53 43.41 45.53 43.45 45.47 43.58 45.35 43.67 45.17 43.7 45.11 43.7 44.92 43.67 44.8 43.58 44.73 43.45 44.73 43.41 44.8 43.27 44.92 43.19 45.17 43.15 45.47 43.15 45.79 43.19 45.97 43.27 46.04 43.41 46.04 43.49 45.97 43.62 45.85 43.67"/><polygon class="a" points="45.91 42.77 45.97 42.81 46.04 42.77 45.97 42.73 45.91 42.77"/><polyline class="a" points="44.92 41.88 44.8 41.92 44.73 42.05 44.73 42.14 44.8 42.26 44.98 42.35 45.28 42.4 45.6 42.4 45.85 42.35 45.97 42.26 46.04 42.14 46.04 42.09 45.97 41.97 45.85 41.88 45.66 41.85 45.6 41.85 45.41 41.88 45.28 41.97 45.22 42.09 45.22 42.14 45.28 42.26 45.41 42.35 45.6 42.4"/><polyline class="a" points="45.17 41.04 45.35 41.08 45.47 41.16 45.53 41.3 45.53 41.33 45.47 41.46 45.35 41.54 45.17 41.59 45.11 41.59 44.92 41.54 44.8 41.46 44.73 41.33 44.73 41.3 44.8 41.16 44.92 41.08 45.17 41.04 45.47 41.04 45.79 41.08 45.97 41.16 46.04 41.3 46.04 41.37 45.97 41.51 45.85 41.54"/><polyline class="a" points="49.51 45.29 49.45 45.2 49.26 45.08 50.57 45.08"/><polyline class="a" points="49.69 44.02 49.88 44.06 50 44.14 50.06 44.28 50.06 44.31 50 44.45 49.88 44.53 49.69 44.57 49.64 44.57 49.45 44.53 49.32 44.45 49.26 44.31 49.26 44.28 49.32 44.14 49.45 44.06 49.69 44.02 50 44.02 50.32 44.06 50.5 44.14 50.57 44.28 50.57 44.36 50.5 44.48 50.38 44.53"/><polygon class="a" points="49.26 43.47 49.32 43.59 49.51 43.68 49.81 43.73 50 43.73 50.32 43.68 50.5 43.59 50.57 43.47 50.57 43.38 50.5 43.26 50.32 43.18 50 43.13 49.81 43.13 49.51 43.18 49.32 43.26 49.26 43.38 49.26 43.47"/><polygon class="a" points="50.44 42.79 50.5 42.84 50.57 42.79 50.5 42.75 50.44 42.79"/><polyline class="a" points="50.57 42.29 49.26 41.86 49.26 42.46"/><polyline class="a" points="49.45 41.05 49.32 41.1 49.26 41.22 49.26 41.31 49.32 41.44 49.51 41.53 49.81 41.57 50.13 41.57 50.38 41.53 50.5 41.44 50.57 41.31 50.57 41.27 50.5 41.14 50.38 41.05 50.19 41.02 50.13 41.02 49.94 41.05 49.81 41.14 49.75 41.27 49.75 41.31 49.81 41.44 49.94 41.53 50.13 41.57"/><polyline class="a" points="57.83 45.29 57.77 45.2 57.58 45.08 58.89 45.08"/><polygon class="a" points="57.58 44.36 57.64 44.48 57.77 44.53 57.9 44.53 58.02 44.48 58.08 44.4 58.15 44.23 58.21 44.1 58.33 44.02 58.45 43.98 58.63 43.98 58.76 44.02 58.82 44.06 58.89 44.19 58.89 44.36 58.82 44.48 58.76 44.53 58.63 44.57 58.45 44.57 58.33 44.53 58.21 44.45 58.15 44.31 58.08 44.14 58.02 44.06 57.9 44.02 57.77 44.02 57.64 44.06 57.58 44.19 57.58 44.36"/><polyline class="a" points="58.02 43.18 58.21 43.21 58.33 43.3 58.38 43.42 58.38 43.47 58.33 43.59 58.21 43.68 58.02 43.73 57.96 43.73 57.77 43.68 57.64 43.59 57.58 43.47 57.58 43.42 57.64 43.3 57.77 43.21 58.02 43.18 58.33 43.18 58.63 43.21 58.82 43.3 58.89 43.42 58.89 43.51 58.82 43.64 58.7 43.68"/><polygon class="a" points="58.76 42.79 58.82 42.84 58.89 42.79 58.82 42.75 58.76 42.79"/><polyline class="a" points="57.83 42.32 57.77 42.24 57.58 42.12 58.89 42.12"/><polyline class="a" points="58.89 41.44 57.58 41.02 57.58 41.6"/><polyline class="a" points="78.25 45.29 78.19 45.2 78 45.08 79.3 45.08"/><polygon class="a" points="78 44.36 78.06 44.48 78.19 44.53 78.31 44.53 78.44 44.48 78.5 44.4 78.56 44.23 78.62 44.1 78.75 44.02 78.88 43.98 79.05 43.98 79.18 44.02 79.24 44.06 79.3 44.19 79.3 44.36 79.24 44.48 79.18 44.53 79.05 44.57 78.88 44.57 78.75 44.53 78.62 44.45 78.56 44.31 78.5 44.14 78.44 44.06 78.31 44.02 78.19 44.02 78.06 44.06 78 44.19 78 44.36"/><path class="a" d="M78,43.51l.06.13.13,0h.13l.13,0,.06-.09.06-.17.06-.12.13-.09.13,0h.18l.13,0,.06,0,.06.13v.16l-.06.13c-.9.42-.46-.72-1.18-.43l-.06.13Z"/><polygon class="a" points="79.18 42.79 79.24 42.84 79.3 42.79 79.24 42.75 79.18 42.79"/><path class="a" d="M78,42.24l.06.13.13,0h.13l.13,0,.06-.09.06-.17.06-.12.13-.09.13,0h.18l.13,0,.06,0,.06.13v.16l-.06.13c-.9.42-.46-.72-1.18-.43l-.06.13Z"/><path class="a" d="M78,41.39l.06.13.13,0h.13l.13,0,.06-.09.06-.17.06-.13.13-.09.13,0h.18l.13,0,.06,0,.06.12v.17l-.06.13c-1,.39-.46-.74-1.18-.43l-.06.12Z"/><polyline class="a" points="102.1 45.29 102.04 45.2 101.85 45.08 103.16 45.08"/><polygon class="a" points="101.85 44.36 101.91 44.48 102.04 44.53 102.16 44.53 102.29 44.48 102.35 44.4 102.42 44.23 102.48 44.1 102.6 44.02 102.73 43.98 102.9 43.98 103.03 44.02 103.09 44.06 103.16 44.19 103.16 44.36 103.09 44.48 103.03 44.53 102.9 44.57 102.73 44.57 102.6 44.53 102.48 44.45 102.42 44.31 102.35 44.14 102.29 44.06 102.16 44.02 102.04 44.02 101.91 44.06 101.85 44.19 101.85 44.36"/><path class="a" d="M101.85,43.51l.06.13.13,0h.13l.13,0,.06-.09.06-.17.06-.12.13-.09.13,0h.18l.13,0,.06,0,.06.13v.16l-.06.13c-.9.42-.46-.72-1.18-.43l-.06.13Z"/><polygon class="a" points="103.03 42.79 103.09 42.84 103.16 42.79 103.09 42.75 103.03 42.79"/><polyline class="a" points="101.85 41.94 101.85 42.37 102.42 42.41 102.35 42.37 102.29 42.24 102.29 42.12 102.35 41.99 102.48 41.91 102.67 41.86 102.79 41.86 102.97 41.91 103.09 41.99 103.16 42.12 103.16 42.24 103.09 42.37 103.03 42.41 102.9 42.46"/><path class="a" d="M101.85,41.39l.06.13.13,0h.13l.13,0,.06-.09.06-.17.06-.13.13-.09.13,0h.18l.13,0,.06,0,.06.12v.17l-.06.13c-1,.39-.46-.74-1.18-.43l-.06.12Z"/><polyline class="a" points="141.97 45.31 141.9 45.23 141.72 45.09 143.02 45.09"/><path class="a" d="M141.71,44.37l.06.13.13,0H142l.13,0,.06-.09.06-.17.06-.12.11-.09.13,0h.19l.13,0,.06,0,.06.13v.16l-.06.13c-.92.42-.45-.72-1.18-.43l-.06.13Z"/><path class="a" d="M141.71,43.53l.06.13.13,0H142l.13,0,.06-.09.06-.17.06-.13.11-.09.13,0h.19l.13,0,.06,0,.06.12v.17l-.06.13c-.95.4-.46-.74-1.18-.43l-.06.12Z"/><polygon class="a" points="142.89 42.81 142.96 42.86 143.02 42.81 142.96 42.77 142.89 42.81"/><polyline class="a" points="142.03 42.43 141.97 42.43 141.84 42.4 141.78 42.35 141.72 42.26 141.72 42.09 141.78 42.01 141.84 41.97 141.97 41.92 142.09 41.92 142.22 41.97 142.39 42.05 143.02 42.48 143.02 41.88"/><polyline class="a" points="141.72 41.21 142.58 41.63 142.58 40.99"/><line class="a" x1="141.71" y1="41.21" x2="143.02" y2="41.21"/><polyline class="a" points="169.63 45.29 169.57 45.2 169.38 45.08 170.69 45.08"/><polygon class="a" points="169.38 44.36 169.45 44.48 169.57 44.53 169.7 44.53 169.82 44.48 169.88 44.4 169.95 44.23 170.01 44.1 170.14 44.02 170.26 43.98 170.44 43.98 170.56 44.02 170.63 44.06 170.69 44.19 170.69 44.36 170.63 44.48 170.56 44.53 170.44 44.57 170.26 44.57 170.14 44.53 170.01 44.45 169.95 44.31 169.88 44.14 169.82 44.06 169.7 44.02 169.57 44.02 169.45 44.06 169.38 44.19 169.38 44.36"/><path class="a" d="M169.38,43.51l.06.13.13,0h.13l.13,0,.06-.09.06-.17.06-.12.13-.09.13,0h.18l.13,0,.06,0,.06.13v.16l-.06.13c-.9.42-.46-.72-1.18-.43l-.06.13Z"/><polygon class="a" points="170.56 42.79 170.63 42.84 170.69 42.79 170.63 42.75 170.56 42.79"/><polygon class="a" points="169.38 42.2 169.45 42.32 169.63 42.41 169.95 42.46 170.14 42.46 170.44 42.41 170.63 42.32 170.69 42.2 170.69 42.12 170.63 41.99 170.44 41.91 170.14 41.86 169.95 41.86 169.63 41.91 169.45 41.99 169.38 42.12 169.38 42.2"/><polyline class="a" points="169.7 41.57 169.63 41.57 169.51 41.53 169.45 41.48 169.38 41.4 169.38 41.22 169.45 41.14 169.51 41.1 169.63 41.05 169.76 41.05 169.88 41.1 170.07 41.19 170.69 41.6 170.69 41.02"/><polyline class="a" points="198.36 44.85 198.29 44.77 198.1 44.63 199.41 44.63"/><path class="a" d="M198.11,43.91l.06.13.13,0h.13l.11,0,.06-.09.06-.17.06-.12.13-.09.13,0h.19l.13,0,.06,0,.06.12v.17l-.06.13c-.92.42-.48-.71-1.18-.43l-.06.12Z"/><polyline class="a" points="199.41 43.1 198.1 42.69 198.1 43.27"/><polygon class="a" points="199.28 42.35 199.35 42.4 199.41 42.35 199.35 42.31 199.28 42.35"/><polyline class="a" points="198.53 41.46 198.72 41.51 198.85 41.59 198.91 41.71 198.91 41.76 198.85 41.88 198.72 41.97 198.53 42.01 198.48 42.01 198.29 41.97 198.17 41.88 198.1 41.76 198.1 41.71 198.17 41.59 198.29 41.51 198.53 41.46 198.85 41.46 199.16 41.51 199.35 41.59 199.41 41.71 199.41 41.8 199.35 41.92 199.22 41.97"/><polyline class="a" points="214.29 45.29 214.23 45.2 214.04 45.08 215.35 45.08"/><polygon class="a" points="214.04 44.36 214.1 44.48 214.23 44.53 214.35 44.53 214.47 44.48 214.53 44.4 214.59 44.23 214.66 44.11 214.78 44.02 214.91 43.98 215.09 43.98 215.22 44.02 215.28 44.06 215.35 44.19 215.35 44.36 215.28 44.48 215.22 44.53 215.09 44.57 214.91 44.57 214.78 44.53 214.66 44.45 214.59 44.31 214.53 44.14 214.47 44.06 214.35 44.02 214.23 44.02 214.1 44.06 214.04 44.19 214.04 44.36"/><polyline class="a" points="215.35 43.56 214.04 43.13 214.04 43.73"/><polygon class="a" points="215.22 42.79 215.28 42.84 215.35 42.79 215.28 42.75 215.22 42.79"/><path class="a" d="M214,42.24l.06.13.13,0h.13l.11,0,.06-.09.06-.17.06-.12.13-.09.13,0h.19l.13,0,.06,0,.06.13v.16l-.06.13c-.92.42-.48-.71-1.18-.43l-.06.13Z"/><polyline class="a" points="214.04 41.53 214.04 41.05 214.53 41.31 214.53 41.19 214.59 41.1 214.66 41.05 214.84 41.02 214.97 41.02 215.16 41.05 215.28 41.14 215.35 41.27 215.35 41.4 215.28 41.53 215.22 41.57 215.09 41.6"/><polygon class="a" points="2.61 37.22 2.61 36.29 2.92 36.29 3.06 36.34 3.15 36.42 3.2 36.51 3.24 36.65 3.24 36.87 3.2 37 3.15 37.09 3.06 37.17 2.92 37.22 2.61 37.22"/><line class="a" x1="3.56" y1="36.29" x2="3.56" y2="37.22"/><path class="a" d="M4.52,36.43l-.1-.09-.13,0c-.23,0-.59.08-.33.35l.09,0,.28.09.09,0,.05,0,.05.09v.13l-.1.09-.13,0H4.1l-.14,0-.09-.09"/><line class="a" x1="5.01" y1="36.29" x2="5.01" y2="37.22"/><line class="a" x1="4.69" y1="36.29" x2="5.33" y2="36.29"/><polygon class="a" points="5.59 37.13 5.56 37.17 5.59 37.22 5.64 37.17 5.59 37.13"/><polyline class="a" points="6.96 37.22 6.96 36.29 7.38 36.29 7.5 36.34 7.55 36.38 7.6 36.47 7.6 36.6 7.55 36.69 7.5 36.73 7.38 36.78 6.96 36.78"/><polyline class="a" points="7.92 37.22 7.92 36.29 8.33 36.29 8.46 36.34 8.51 36.38 8.56 36.47 8.56 36.56 8.51 36.65 8.46 36.69 8.33 36.73 7.92 36.73"/><line class="a" x1="8.23" y1="36.73" x2="8.56" y2="37.22"/><path class="a" d="M9.1,36.29l-.09,0-.09.09a.53.53,0,0,0,.18.79h.19l.09,0,.09-.09L9.51,37l0-.13v-.22l0-.13-.05-.09-.09-.09-.09,0Z"/><polyline class="a" points="10.5 36.51 10.46 36.42 10.36 36.34 10.28 36.29 10.1 36.29 10.01 36.34 9.91 36.42 9.87 36.51 9.82 36.65 9.82 36.87 9.87 37 9.91 37.09 10.01 37.17 10.1 37.22 10.28 37.22 10.36 37.17 10.46 37.09 10.5 37 10.5 36.87 10.28 36.87"/><polyline class="a" points="10.83 37.22 10.83 36.29 11.23 36.29 11.37 36.34 11.42 36.38 11.46 36.47 11.46 36.56 11.42 36.65 11.37 36.69 11.23 36.73 10.83 36.73"/><line class="a" x1="11.14" y1="36.73" x2="11.45" y2="37.22"/><polyline class="a" points="11.78 37.22 11.78 36.29 12.37 36.29"/><line class="a" x1="11.78" y1="36.73" x2="12.15" y2="36.73"/><line class="a" x1="11.78" y1="37.22" x2="12.37" y2="37.22"/><polyline class="a" points="13.22 36.42 13.14 36.34 13 36.29 12.82 36.29 12.69 36.34 12.6 36.42 12.6 36.51 12.63 36.6 12.69 36.65 12.77 36.69 13.05 36.78 13.14 36.82 13.19 36.87 13.22 36.95 13.22 37.09 13.14 37.17 13 37.22 12.82 37.22 12.69 37.17 12.6 37.09"/><path class="a" d="M14.14,36.43l-.09-.09-.14,0c-.23,0-.59.08-.33.35l.1,0,.26.09.1,0,0,0,.05.09v.13l-.09.09-.14,0h-.19l-.14,0-.09-.09"/><line class="a" x1="14.45" y1="36.29" x2="14.45" y2="37.22"/><polyline class="a" points="14.68 36.29 15.04 37.22 15.41 36.29"/><polyline class="a" points="15.49 37.22 15.86 36.29 16.22 37.22"/><line class="a" x1="15.63" y1="36.91" x2="16.09" y2="36.91"/><path class="a" d="M2.92,37.84l-.09.09a.93.93,0,0,0,0,1.23l.09.1"/><line class="a" x1="3.24" y1="38.33" x2="3.24" y2="38.94"/><polyline class="a" points="3.24 38.5 3.37 38.37 3.46 38.33 3.6 38.33 3.69 38.37 3.74 38.5 3.74 38.94"/><polyline class="a" points="3.74 38.5 3.88 38.37 3.96 38.33 4.1 38.33 4.19 38.37 4.24 38.5 4.24 38.94"/><path class="a" d="M4.55,37.84l.09.09a.9.9,0,0,1,0,1.23l-.09.1"/><polygon class="a" points="2.61 32.38 2.61 31.46 2.92 31.46 3.06 31.5 3.15 31.59 3.2 31.68 3.24 31.81 3.24 32.03 3.2 32.16 3.15 32.25 3.06 32.35 2.92 32.38 2.61 32.38"/><line class="a" x1="3.56" y1="31.46" x2="3.56" y2="32.38"/><polyline class="a" points="4.52 31.59 4.42 31.5 4.29 31.46 4.1 31.46 3.96 31.5 3.88 31.59 3.88 31.68 3.93 31.77 3.96 31.81 4.05 31.86 4.33 31.94 4.42 31.99 4.47 32.03 4.52 32.13 4.52 32.25 4.42 32.35 4.29 32.38 4.1 32.38 3.96 32.35 3.88 32.25"/><line class="a" x1="5.01" y1="31.46" x2="5.01" y2="32.38"/><line class="a" x1="4.69" y1="31.46" x2="5.33" y2="31.46"/><polygon class="a" points="5.59 32.3 5.56 32.35 5.59 32.38 5.64 32.35 5.59 32.3"/><polyline class="a" points="6.96 32.38 6.96 31.46 7.38 31.46 7.5 31.5 7.55 31.55 7.6 31.64 7.6 31.77 7.55 31.86 7.5 31.89 7.38 31.94 6.96 31.94"/><polyline class="a" points="7.78 32.38 8.14 31.46 8.51 32.38"/><line class="a" x1="7.92" y1="32.08" x2="8.37" y2="32.08"/><polyline class="a" points="8.73 32.38 8.73 31.46 9.15 31.46 9.28 31.5 9.32 31.55 9.37 31.64 9.37 31.72 9.32 31.81 9.28 31.86 9.15 31.89 8.73 31.89"/><line class="a" x1="9.06" y1="31.9" x2="9.37" y2="32.38"/><polyline class="a" points="9.65 32.38 10.28 31.46 9.65 31.46"/><line class="a" x1="9.65" y1="32.38" x2="10.28" y2="32.38"/><line class="a" x1="10.6" y1="31.46" x2="10.6" y2="32.38"/><polyline class="a" points="10.83 32.38 11.19 31.46 11.55 32.38"/><line class="a" x1="10.97" y1="32.08" x2="11.42" y2="32.08"/><polyline class="a" points="11.78 31.46 11.78 32.38 12.32 32.38"/><polyline class="a" points="12.55 32.38 12.55 31.46 13.14 31.46"/><line class="a" x1="12.55" y1="31.9" x2="12.91" y2="31.9"/><line class="a" x1="12.55" y1="32.38" x2="13.14" y2="32.38"/><path class="a" d="M2.92,33l-.09.09a1,1,0,0,0,0,1.25l.09.09"/><line class="a" x1="3.24" y1="33.49" x2="3.24" y2="34.11"/><polyline class="a" points="3.24 33.67 3.37 33.53 3.46 33.49 3.6 33.49 3.69 33.53 3.74 33.67 3.74 34.1"/><polyline class="a" points="3.74 33.67 3.88 33.53 3.96 33.49 4.1 33.49 4.19 33.53 4.24 33.67 4.24 34.1"/><path class="a" d="M4.55,33l.09.09a.92.92,0,0,1,0,1.25l-.09.09"/><polyline class="a" points="2.61 29.44 2.61 28.51 3.01 28.51 3.15 28.55 3.2 28.6 3.24 28.68 3.24 28.82 3.2 28.9 3.15 28.95 3.01 29 2.61 29"/><line class="a" x1="3.56" y1="28.51" x2="3.56" y2="29.44"/><path class="a" d="M4.55,28.73l0-.09-.1-.1a.33.33,0,0,0-.49.18l-.05.13v.22c.05.26.28.48.54.31l.1-.09,0-.09"/><path class="a" d="M5.51,28.73l0-.09-.1-.1a.33.33,0,0,0-.49.18l-.05.13v.22c.05.26.28.48.54.31l.1-.09,0-.09"/><line class="a" x1="5.83" y1="28.51" x2="5.83" y2="29.44"/><line class="a" x1="6.46" y1="28.51" x2="6.46" y2="29.44"/><line class="a" x1="5.83" y1="28.95" x2="6.46" y2="28.95"/><polyline class="a" points="6.83 29.44 6.83 28.51 7.42 28.51"/><line class="a" x1="6.82" y1="28.95" x2="7.19" y2="28.95"/><line class="a" x1="6.82" y1="29.44" x2="7.41" y2="29.44"/><line class="a" x1="7.87" y1="28.51" x2="7.87" y2="29.44"/><line class="a" x1="7.55" y1="28.51" x2="8.19" y2="28.51"/><line class="a" x1="8.59" y1="28.51" x2="8.59" y2="29.44"/><line class="a" x1="8.28" y1="28.51" x2="8.92" y2="28.51"/><path class="a" d="M9.37,28.51l-.09,0-.1.1a.54.54,0,0,0,.19.79h.18l.1,0a.58.58,0,0,0,0-.84l-.1,0Z"/><path class="a" d="M2.87,41.86l-.09,0L2.7,42a.55.55,0,0,0,.18.79h.19l.09,0a.53.53,0,0,0,0-.83l-.09,0Z"/><line class="a" x1="3.01" y1="42.62" x2="3.29" y2="42.87"/><polyline class="a" points="3.65 41.86 3.65 42.52 3.69 42.65 3.79 42.74 3.93 42.79 4.01 42.79 4.15 42.74 4.24 42.65 4.29 42.52 4.29 41.86"/><path class="a" d="M4.88,41.86l-.1,0L4.69,42c-.17.23-.13.7.19.79h.18l.09,0a.54.54,0,0,0,0-.83l-.09,0Z"/><line class="a" x1="5.83" y1="41.86" x2="5.83" y2="42.79"/><line class="a" x1="5.51" y1="41.86" x2="6.15" y2="41.86"/><polyline class="a" points="6.24 42.79 6.6 41.86 6.96 42.79"/><line class="a" x1="6.37" y1="42.48" x2="6.82" y2="42.48"/><line class="a" x1="8.33" y1="41.86" x2="8.33" y2="42.79"/><line class="a" x1="8" y1="41.86" x2="8.64" y2="41.86"/><polyline class="a" points="8.87 42.79 8.87 41.86 9.46 41.86"/><line class="a" x1="8.87" y1="42.3" x2="9.23" y2="42.3"/><line class="a" x1="8.87" y1="42.79" x2="9.46" y2="42.79"/><polyline class="a" points="9.74 42.79 9.74 41.86 10.14 41.86 10.28 41.91 10.32 41.94 10.36 42.03 10.36 42.13 10.32 42.21 10.28 42.26 10.14 42.3 9.74 42.3"/><line class="a" x1="10.05" y1="42.3" x2="10.36" y2="42.79"/><polyline class="a" points="10.69 42.79 10.69 41.86 11.09 41.86 11.23 41.91 11.28 41.94 11.32 42.03 11.32 42.13 11.28 42.21 11.23 42.26 11.09 42.3 10.69 42.3"/><line class="a" x1="11" y1="42.3" x2="11.32" y2="42.79"/><polyline class="a" points="11.64 42.79 11.64 41.86 12.23 41.86"/><line class="a" x1="11.64" y1="42.3" x2="12.01" y2="42.3"/><line class="a" x1="11.64" y1="42.79" x2="12.23" y2="42.79"/><polyline class="a" points="12.51 42.79 12.51 41.86 13.14 42.79 13.14 41.86"/><path class="a" d="M13.73,41.86l-.09,0-.09.09a.55.55,0,0,0,.18.79h.19l.09,0,.09-.09.05-.09,0-.13v-.22l0-.13L14.09,42,14,41.91l-.09,0Z"/><path class="a" d="M2.92,43.41l-.09.09a.93.93,0,0,0,0,1.23l.09.09"/><line class="a" x1="3.24" y1="43.89" x2="3.24" y2="44.51"/><polyline class="a" points="3.24 44.07 3.37 43.94 3.46 43.89 3.6 43.89 3.69 43.94 3.74 44.07 3.74 44.51"/><polyline class="a" points="3.74 44.07 3.88 43.94 3.96 43.89 4.1 43.89 4.19 43.94 4.24 44.07 4.24 44.51"/><polyline class="a" points="6.01 44.02 5.96 43.94 5.83 43.89 5.7 43.89 5.56 43.94 5.51 44.02 5.56 44.12 5.64 44.15 5.87 44.2 5.96 44.24 6.01 44.34 6.01 44.37 5.96 44.47 5.83 44.51 5.7 44.51 5.56 44.47 5.51 44.37"/><polygon class="a" points="6.37 44.42 6.32 44.47 6.37 44.51 6.42 44.47 6.37 44.42"/><line class="a" x1="6.79" y1="43.58" x2="6.79" y2="44.51"/><polygon class="a" points="7.19 44.42 7.15 44.47 7.19 44.51 7.24 44.47 7.19 44.42"/><line class="a" x1="7.6" y1="43.89" x2="7.6" y2="44.51"/><polyline class="a" points="7.6 44.07 7.74 43.94 7.83 43.89 7.97 43.89 8.05 43.94 8.1 44.07 8.1 44.51"/><polyline class="a" points="8.1 44.07 8.23 43.94 8.33 43.89 8.46 43.89 8.56 43.94 8.59 44.07 8.59 44.51"/><polygon class="a" points="9.01 44.42 8.96 44.47 9.01 44.51 9.06 44.47 9.01 44.42"/><path class="a" d="M9.37,43.41l.09.09a.93.93,0,0,1,0,1.23l-.09.09"/><line class="a" x1="4.38" y1="25.08" x2="6.67" y2="25.08"/><polygon class="a" points="8.97 25.08 6.67 26.49 6.67 25.08 8.97 25.08"/><line class="a" x1="8.59" y1="25.31" x2="8.83" y2="25.08"/><line class="a" x1="6.8" y1="26.4" x2="8.15" y2="25.08"/><line class="a" x1="6.67" y1="25.88" x2="7.49" y2="25.08"/><line class="a" x1="6.67" y1="25.23" x2="6.81" y2="25.08"/><line class="a" x1="7.75" y1="25.83" x2="6.99" y2="25.08"/><line class="a" x1="7.34" y1="26.08" x2="6.67" y2="25.42"/><line class="a" x1="6.92" y1="26.33" x2="6.67" y2="26.08"/><line class="a" x1="8.17" y1="25.57" x2="7.67" y2="25.08"/><line class="a" x1="8.58" y1="25.33" x2="8.33" y2="25.08"/><line class="a" x1="4.38" y1="25.08" x2="6.67" y2="26.49"/><path class="a" d="M1.86,23.19l-.11,0-.11.11c-.21.28-.16.9.23,1h.23l.11,0a.69.69,0,0,0,0-1.06l-.11,0Z"/><line class="a" x1="2.03" y1="24.13" x2="2.37" y2="24.47"/><line class="a" x1="2.75" y1="23.85" x2="2.75" y2="24.35"/><polyline class="a" points="2.75 24.07 2.78 23.96 2.86 23.89 2.94 23.85 3.05 23.85"/><polygon class="a" points="3.2 23.63 3.24 23.67 3.27 23.63 3.24 23.59 3.2 23.63"/><line class="a" x1="3.24" y1="23.89" x2="3.24" y2="24.35"/><polyline class="a" points="3.76 23.59 3.69 23.59 3.61 23.63 3.58 23.74 3.58 24.35"/><line class="a" x1="3.46" y1="23.85" x2="3.73" y2="23.85"/><line class="a" x1="4.06" y1="23.69" x2="5.09" y2="23.69"/><line class="a" x1="4.06" y1="24.02" x2="5.09" y2="24.02"/><polyline class="a" points="5.67 23.41 5.78 23.35 5.96 23.19 5.96 24.35"/><polygon class="a" points="6.94 23.19 6.76 23.24 6.7 23.35 6.7 23.46 6.76 23.58 6.88 23.63 7.1 23.69 7.28 23.74 7.39 23.85 7.45 23.97 7.45 24.13 7.39 24.24 7.34 24.3 7.16 24.35 6.94 24.35 6.76 24.3 6.7 24.24 6.65 24.13 6.65 23.97 6.7 23.85 6.81 23.74 6.99 23.69 7.21 23.63 7.34 23.58 7.39 23.46 7.39 23.35 7.34 23.24 7.16 23.19 6.94 23.19"/><polygon class="a" points="8.14 23.19 7.97 23.24 7.85 23.41 7.79 23.69 7.79 23.85 7.85 24.13 7.97 24.3 8.14 24.35 8.26 24.35 8.42 24.3 8.54 24.13 8.59 23.85 8.59 23.69 8.54 23.41 8.42 23.24 8.26 23.19 8.14 23.19"/><line class="a" x1="10.2" y1="23.58" x2="10.2" y2="24.35"/><polyline class="a" points="10.2 23.8 10.38 23.63 10.49 23.58 10.66 23.58 10.78 23.63 10.83 23.8 10.83 24.35"/><polyline class="a" points="10.83 23.8 11 23.63 11.12 23.58 11.29 23.58 11.4 23.63 11.47 23.8 11.47 24.35"/><polyline class="a" points="13.7 23.74 13.64 23.63 13.47 23.58 13.3 23.58 13.12 23.63 13.07 23.74 13.12 23.85 13.24 23.91 13.53 23.97 13.64 24.02 13.7 24.13 13.7 24.19 13.64 24.3 13.47 24.35 13.3 24.35 13.12 24.3 13.07 24.19"/><polygon class="a" points="14.15 24.24 14.1 24.3 14.15 24.35 14.21 24.3 14.15 24.24"/><line class="a" x1="14.67" y1="23.19" x2="14.67" y2="24.35"/><polygon class="a" points="15.19 24.24 15.13 24.3 15.19 24.35 15.24 24.3 15.19 24.24"/><line class="a" x1="15.71" y1="23.58" x2="15.71" y2="24.35"/><polyline class="a" points="15.71 23.8 15.87 23.63 16 23.58 16.16 23.58 16.27 23.63 16.34 23.8 16.34 24.35"/><polyline class="a" points="16.34 23.8 16.51 23.63 16.62 23.58 16.8 23.58 16.91 23.63 16.96 23.8 16.96 24.35"/><polygon class="a" points="17.48 24.24 17.43 24.3 17.48 24.35 17.54 24.3 17.48 24.24"/><line class="b" x1="49.4" y1="2.15" x2="50.4" y2="1.17"/><line class="b" x1="50.4" y1="2.15" x2="49.4" y2="1.17"/><line class="b" x1="36.56" y1="2.76" x2="37.58" y2="1.79"/><line class="b" x1="37.58" y1="2.76" x2="36.56" y2="1.79"/><line class="c" x1="44.87" y1="4.61" x2="45.87" y2="3.63"/><line class="c" x1="45.87" y1="4.61" x2="44.87" y2="3.63"/><line class="c" x1="39.41" y1="4.37" x2="40.42" y2="3.4"/><line class="c" x1="40.42" y1="4.37" x2="39.41" y2="3.4"/><line class="d" x1="45.37" y1="3.42" x2="45.37" y2="4.81"/><path class="d" d="M44.66,4.12h1.43l0-.18L46,3.78a.72.72,0,0,0-1.3.16l0,.18,0,.18a.72.72,0,0,0,1.3.16l.08-.16,0-.18"/></svg>