<svg xmlns="http://www.w3.org/2000/svg" viewBox="0 0 157.89 46.41"><defs><style>.a,.b,.c,.d{fill:none;stroke-linecap:round;stroke-linejoin:round;stroke-width:0.21px;}.a{stroke:#000;}.b{stroke:#00b800;}.c{stroke:#00bfff;}.d{stroke:blue;}</style></defs><title>cad0.4</title><polyline class="a" points="16.95 27.83 17.07 27.77 17.27 27.58 17.27 28.91"/><line class="a" x1="17.11" y1="30.56" x2="17.11" y2="34.26"/><line class="a" x1="1.24" y1="25.94" x2="156.84" y2="25.94"/><line class="a" x1="17.11" y1="30.56" x2="156.84" y2="30.56"/><line class="a" x1="17.11" y1="34.26" x2="156.84" y2="34.26"/><line class="a" x1="17.11" y1="39.81" x2="156.84" y2="39.81"/><polyline class="a" points="17.11 45.36 156.84 45.36 156.84 25.94"/><line class="a" x1="21.99" y1="30.56" x2="21.99" y2="34.26"/><line class="a" x1="27.68" y1="30.56" x2="27.68" y2="34.26"/><line class="a" x1="33.07" y1="30.56" x2="33.07" y2="34.26"/><line class="a" x1="37.46" y1="30.56" x2="37.46" y2="34.26"/><line class="a" x1="42.78" y1="30.56" x2="42.78" y2="34.26"/><line class="a" x1="38.16" y1="30.56" x2="38.16" y2="34.26"/><line class="a" x1="45.1" y1="30.56" x2="45.1" y2="34.26"/><line class="a" x1="54.83" y1="30.56" x2="54.83" y2="34.26"/><line class="a" x1="63.22" y1="30.56" x2="63.22" y2="34.26"/><line class="a" x1="72.63" y1="30.56" x2="72.63" y2="34.26"/><line class="a" x1="82.84" y1="30.56" x2="82.84" y2="34.26"/><line class="a" x1="91.99" y1="30.56" x2="91.99" y2="34.26"/><line class="a" x1="112.76" y1="30.56" x2="112.76" y2="34.26"/><line class="a" x1="134.43" y1="30.56" x2="134.43" y2="34.26"/><polyline class="a" points="18.48 32.07 18.48 32.02 18.53 31.93 18.57 31.88 18.65 31.85 18.84 31.85 18.92 31.88 18.97 31.93 19.01 32.02 19.01 32.1 18.97 32.19 18.87 32.32 18.43 32.77 19.06 32.77"/><polygon class="a" points="19.41 32.68 19.36 32.73 19.41 32.77 19.45 32.73 19.41 32.68"/><polyline class="a" points="19.89 32.02 19.97 31.97 20.11 31.85 20.11 32.76"/><polygon class="a" points="16.44 37.12 16.5 37.24 16.68 37.33 16.99 37.38 17.17 37.38 17.46 37.33 17.65 37.24 17.71 37.12 17.71 37.03 17.65 36.91 17.46 36.83 17.17 36.78 16.99 36.78 16.68 36.83 16.5 36.91 16.44 37.03 16.44 37.12"/><line class="a" x1="17.11" y1="25.94" x2="17.11" y2="4.41"/><line class="a" x1="153.36" y1="25.94" x2="153.36" y2="7.63"/><line class="a" x1="145.79" y1="25.94" x2="145.79" y2="7.33"/><line class="a" x1="134.43" y1="25.94" x2="134.43" y2="7.14"/><line class="a" x1="112.76" y1="25.94" x2="112.76" y2="6.75"/><line class="a" x1="91.99" y1="25.94" x2="91.99" y2="6.23"/><line class="a" x1="82.84" y1="25.94" x2="82.84" y2="6.03"/><line class="a" x1="72.63" y1="25.94" x2="72.63" y2="5.51"/><line class="a" x1="63.22" y1="25.94" x2="63.22" y2="5"/><line class="a" x1="54.83" y1="25.94" x2="54.83" y2="5.05"/><line class="a" x1="45.1" y1="25.94" x2="45.1" y2="2.2"/><line class="a" x1="42.78" y1="25.94" x2="42.78" y2="3.81"/><line class="a" x1="38.16" y1="25.94" x2="38.16" y2="4.28"/><line class="a" x1="37.46" y1="25.94" x2="37.46" y2="4.06"/><line class="a" x1="33.07" y1="25.94" x2="33.07" y2="1.74"/><line class="a" x1="27.68" y1="25.94" x2="27.68" y2="2.87"/><polyline class="a" points="21.99 25.94 21.99 3.53 17.11 4.41"/><polyline class="a" points="21.99 3.53 25.66 3.13 27.68 2.87 33.07 1.74 37.46 4.05 38.16 4.28 42.78 3.81 45.1 2.19 54.83 5.05 63.22 5 72.63 5.51 82.84 6.03 91.99 6.23 103.09 6.49 112.76 6.75 123.26 6.94 134.43 7.14 145.79 7.33 153.36 7.63"/><polyline class="a" points="21.64 27.89 21.64 27.83 21.7 27.71 21.76 27.65 21.88 27.58 22.14 27.58 22.26 27.65 22.34 27.71 22.4 27.83 22.4 27.97 22.34 28.09 22.2 28.27 21.57 28.91 22.46 28.91"/><polyline class="a" points="27.39 27.58 28.09 27.58 27.71 28.09 27.89 28.09 28.01 28.15 28.09 28.21 28.15 28.41 28.15 28.53 28.09 28.73 27.95 28.85 27.77 28.91 27.57 28.91 27.39 28.85 27.32 28.79 27.25 28.66"/><polyline class="a" points="33.25 27.58 32.62 28.47 33.57 28.47"/><line class="a" x1="33.25" y1="27.58" x2="33.25" y2="28.91"/><polyline class="a" points="37.42 27.58 36.79 27.58 36.73 28.15 36.79 28.09 36.97 28.03 37.17 28.03 37.35 28.09 37.48 28.21 37.55 28.41 37.55 28.53 37.48 28.73 37.35 28.85 37.17 28.91 36.97 28.91 36.79 28.85 36.73 28.79 36.65 28.66"/><polyline class="a" points="38.84 27.77 38.78 27.65 38.59 27.57 38.47 27.57 38.27 27.65 38.15 27.83 38.09 28.15 38.09 28.47 38.15 28.73 38.27 28.85 38.47 28.91 38.53 28.91 38.72 28.85 38.84 28.73 38.91 28.53 38.91 28.47 38.84 28.27 38.72 28.15 38.53 28.09 38.47 28.09 38.27 28.15 38.15 28.27 38.09 28.47"/><polyline class="a" points="42.61 28.91 43.25 27.58 42.36 27.58"/><polygon class="a" points="44.99 27.58 44.8 27.65 44.73 27.77 44.73 27.89 44.8 28.03 44.93 28.09 45.18 28.15 45.37 28.21 45.5 28.35 45.56 28.47 45.56 28.66 45.5 28.79 45.43 28.85 45.24 28.91 44.99 28.91 44.8 28.85 44.73 28.79 44.67 28.66 44.67 28.47 44.73 28.35 44.87 28.21 45.05 28.15 45.3 28.09 45.43 28.03 45.5 27.89 45.5 27.77 45.43 27.65 45.24 27.58 44.99 27.58"/><polyline class="a" points="55.27 28.03 55.2 28.21 55.07 28.35 54.89 28.41 54.83 28.41 54.63 28.35 54.51 28.21 54.43 28.03 54.43 27.97 54.51 27.77 54.63 27.65 54.83 27.57 54.89 27.57 55.07 27.65 55.2 27.77 55.27 28.03 55.27 28.35 55.2 28.66 55.07 28.85 54.89 28.91 54.75 28.91 54.57 28.85 54.51 28.73"/><polyline class="a" points="62.27 27.83 62.39 27.77 62.58 27.58 62.58 28.91"/><polygon class="a" points="63.72 27.58 63.53 27.65 63.4 27.83 63.34 28.15 63.34 28.35 63.4 28.66 63.53 28.85 63.72 28.91 63.84 28.91 64.04 28.85 64.16 28.66 64.22 28.35 64.22 28.15 64.16 27.83 64.04 27.65 63.84 27.58 63.72 27.58"/><polyline class="a" points="71.86 27.83 72 27.77 72.18 27.58 72.18 28.91"/><polyline class="a" points="73.13 27.83 73.25 27.77 73.45 27.58 73.45 28.91"/><polyline class="a" points="81.87 27.83 82 27.77 82.19 27.58 82.19 28.91"/><polyline class="a" points="83.02 27.89 83.02 27.83 83.08 27.71 83.14 27.65 83.27 27.58 83.52 27.58 83.64 27.65 83.72 27.71 83.78 27.83 83.78 27.97 83.72 28.09 83.58 28.27 82.95 28.91 83.84 28.91"/><polyline class="a" points="91.04 27.83 91.16 27.77 91.35 27.58 91.35 28.91"/><polyline class="a" points="92.23 27.58 92.93 27.58 92.55 28.09 92.75 28.09 92.87 28.15 92.93 28.21 92.99 28.41 92.99 28.53 92.93 28.73 92.81 28.85 92.61 28.91 92.43 28.91 92.23 28.85 92.17 28.79 92.11 28.66"/><polyline class="a" points="111.77 27.83 111.89 27.77 112.08 27.58 112.08 28.91"/><polyline class="a" points="113.48 27.58 112.84 28.47 113.8 28.47"/><line class="a" x1="113.48" y1="27.58" x2="113.48" y2="28.91"/><polyline class="a" points="133.46 27.83 133.6 27.77 133.78 27.58 133.78 28.91"/><polyline class="a" points="135.31 27.58 134.68 27.58 134.61 28.15 134.68 28.09 134.86 28.03 135.05 28.03 135.24 28.09 135.37 28.21 135.43 28.41 135.43 28.53 135.37 28.73 135.24 28.85 135.05 28.91 134.86 28.91 134.68 28.85 134.61 28.79 134.54 28.66"/><polyline class="a" points="144.82 27.83 144.95 27.77 145.14 27.58 145.14 28.91"/><polyline class="a" points="146.73 27.77 146.66 27.65 146.47 27.57 146.35 27.57 146.15 27.65 146.03 27.83 145.96 28.15 145.96 28.47 146.03 28.73 146.15 28.85 146.35 28.91 146.41 28.91 146.59 28.85 146.73 28.73 146.79 28.53 146.79 28.47 146.73 28.27 146.59 28.15 146.41 28.09 146.35 28.09 146.15 28.15 146.03 28.27 145.96 28.47"/><polyline class="a" points="152.41 27.83 152.53 27.77 152.72 27.58 152.72 28.91"/><polyline class="a" points="153.74 28.91 154.38 27.58 153.48 27.58"/><line class="a" x1="145.79" y1="30.56" x2="145.79" y2="34.26"/><line class="a" x1="153.36" y1="30.56" x2="153.36" y2="34.26"/><polyline class="a" points="23.77 32.07 23.77 32.02 23.8 31.93 23.85 31.88 23.94 31.85 24.11 31.85 24.21 31.88 24.24 31.93 24.29 32.02 24.29 32.1 24.24 32.19 24.16 32.32 23.72 32.77 24.33 32.77"/><polygon class="a" points="24.68 32.68 24.65 32.73 24.68 32.77 24.73 32.73 24.68 32.68"/><polyline class="a" points="25.57 31.85 25.13 31.85 25.09 32.24 25.13 32.19 25.26 32.15 25.39 32.15 25.53 32.19 25.61 32.29 25.65 32.41 25.65 32.51 25.61 32.63 25.53 32.73 25.39 32.77 25.26 32.77 25.13 32.73 25.09 32.68 25.04 32.59"/><polyline class="a" points="29.29 32.07 29.29 32.02 29.34 31.93 29.39 31.88 29.47 31.85 29.64 31.85 29.73 31.88 29.78 31.93 29.82 32.02 29.82 32.1 29.78 32.19 29.69 32.32 29.25 32.77 29.86 32.77"/><polygon class="a" points="30.22 32.68 30.17 32.73 30.22 32.77 30.27 32.73 30.22 32.68"/><polyline class="a" points="30.66 31.85 31.15 31.85 30.88 32.19 31.01 32.19 31.1 32.24 31.15 32.29 31.18 32.41 31.18 32.51 31.15 32.63 31.05 32.73 30.93 32.77 30.79 32.77 30.66 32.73 30.61 32.68 30.57 32.59"/><polyline class="a" points="34.32 32.02 34.4 31.97 34.54 31.85 34.54 32.76"/><polygon class="a" points="35.15 32.68 35.11 32.73 35.15 32.77 35.2 32.73 35.15 32.68"/><polyline class="a" points="36.08 32.15 36.03 32.29 35.94 32.37 35.81 32.41 35.77 32.41 35.64 32.37 35.55 32.29 35.5 32.15 35.5 32.1 35.55 31.97 35.64 31.88 35.77 31.85 35.81 31.85 35.94 31.88 36.03 31.97 36.08 32.15 36.08 32.37 36.03 32.59 35.94 32.73 35.81 32.76 35.72 32.76 35.59 32.73 35.55 32.63"/><polygon class="a" points="37.8 32.26 37.77 32.3 37.8 32.35 37.85 32.3 37.8 32.26"/><polyline class="a" points="40.24 32.07 40.24 32.02 40.28 31.93 40.33 31.88 40.41 31.85 40.59 31.85 40.68 31.88 40.72 31.93 40.77 32.02 40.77 32.1 40.72 32.19 40.63 32.32 40.19 32.77 40.81 32.77"/><polyline class="a" points="43.75 32.02 43.84 31.97 43.97 31.85 43.97 32.76"/><polyline class="a" points="49.41 31.85 48.96 32.46 49.63 32.46"/><line class="a" x1="49.4" y1="31.85" x2="49.4" y2="32.76"/><polygon class="a" points="49.93 32.68 49.88 32.73 49.93 32.77 49.97 32.73 49.93 32.68"/><polyline class="a" points="50.32 32.07 50.32 32.02 50.37 31.93 50.41 31.88 50.51 31.85 50.68 31.85 50.76 31.88 50.81 31.93 50.85 32.02 50.85 32.1 50.81 32.19 50.73 32.32 50.29 32.77 50.9 32.77"/><polyline class="a" points="57.91 31.85 58.4 31.85 58.13 32.19 58.27 32.19 58.35 32.24 58.4 32.29 58.44 32.41 58.44 32.51 58.4 32.63 58.31 32.73 58.18 32.77 58.05 32.77 57.91 32.73 57.87 32.68 57.82 32.59"/><polygon class="a" points="58.79 32.68 58.75 32.73 58.79 32.77 58.84 32.73 58.79 32.68"/><polyline class="a" points="59.72 31.97 59.67 31.88 59.54 31.85 59.45 31.85 59.32 31.88 59.23 32.02 59.2 32.24 59.2 32.46 59.23 32.63 59.32 32.73 59.45 32.76 59.5 32.76 59.63 32.73 59.72 32.63 59.76 32.51 59.76 32.46 59.72 32.32 59.63 32.24 59.5 32.19 59.45 32.19 59.32 32.24 59.23 32.32 59.2 32.46"/><polyline class="a" points="67.37 31.85 66.93 32.46 67.59 32.46"/><line class="a" x1="67.37" y1="31.85" x2="67.37" y2="32.76"/><polygon class="a" points="67.89 32.68 67.86 32.73 67.89 32.77 67.94 32.73 67.89 32.68"/><polyline class="a" points="68.39 32.02 68.47 31.97 68.61 31.85 68.61 32.76"/><polyline class="a" points="76.85 31.85 76.41 32.46 77.07 32.46"/><line class="a" x1="76.85" y1="31.85" x2="76.85" y2="32.76"/><polygon class="a" points="77.38 32.68 77.33 32.73 77.38 32.77 77.43 32.73 77.38 32.68"/><polyline class="a" points="78.17 31.85 77.73 32.46 78.39 32.46"/><line class="a" x1="78.17" y1="31.85" x2="78.17" y2="32.76"/><polyline class="a" points="87.44 31.85 87 32.46 87.66 32.46"/><line class="a" x1="87.44" y1="31.85" x2="87.44" y2="32.76"/><polyline class="a" points="101.85 32.15 101.81 32.29 101.72 32.37 101.58 32.41 101.54 32.41 101.41 32.37 101.32 32.29 101.28 32.15 101.28 32.1 101.32 31.97 101.41 31.88 101.54 31.85 101.58 31.85 101.72 31.88 101.81 31.97 101.85 32.15 101.85 32.37 101.81 32.59 101.72 32.73 101.58 32.76 101.5 32.76 101.36 32.73 101.32 32.63"/><polyline class="a" points="123.81 32.15 123.76 32.29 123.67 32.37 123.54 32.41 123.5 32.41 123.37 32.37 123.28 32.29 123.23 32.15 123.23 32.1 123.28 31.97 123.37 31.88 123.5 31.85 123.54 31.85 123.67 31.88 123.76 31.97 123.81 32.15 123.81 32.37 123.76 32.59 123.67 32.73 123.54 32.76 123.45 32.76 123.32 32.73 123.28 32.63"/><polygon class="a" points="124.2 32.68 124.16 32.73 124.2 32.77 124.25 32.73 124.2 32.68"/><polyline class="a" points="125 31.85 124.55 32.46 125.22 32.46"/><line class="a" x1="124.99" y1="31.85" x2="124.99" y2="32.76"/><polyline class="a" points="139.68 31.85 139.24 32.46 139.9 32.46"/><line class="a" x1="139.68" y1="31.85" x2="139.68" y2="32.76"/><polygon class="a" points="140.21 32.68 140.16 32.73 140.21 32.77 140.24 32.73 140.21 32.68"/><polyline class="a" points="141.12 32.15 141.09 32.29 141 32.37 140.87 32.41 140.82 32.41 140.68 32.37 140.6 32.29 140.56 32.15 140.56 32.1 140.6 31.97 140.68 31.88 140.82 31.85 140.87 31.85 141 31.88 141.09 31.97 141.12 32.15 141.12 32.37 141.09 32.59 141 32.73 140.87 32.76 140.78 32.76 140.65 32.73 140.6 32.63"/><path class="a" d="M148.75,31.85h.49l-.27.34h.14c.48.24,0,.82-.39.49l0-.09"/><polygon class="a" points="149.63 32.68 149.59 32.73 149.63 32.77 149.68 32.73 149.63 32.68"/><path class="a" d="M150.07,31.85h.49l-.27.34h.14c.48.24,0,.82-.39.49l0-.09"/><polyline class="a" points="21.63 37.84 21.57 37.84 21.44 37.79 21.38 37.76 21.32 37.67 21.32 37.5 21.38 37.41 21.44 37.38 21.57 37.33 21.69 37.33 21.8 37.38 21.98 37.46 22.59 37.88 22.59 37.29"/><polygon class="a" points="22.47 36.95 22.53 37 22.59 36.95 22.53 36.91 22.47 36.95"/><polyline class="a" points="21.57 36.48 21.5 36.4 21.32 36.28 22.59 36.28"/><polyline class="a" points="27.01 37.59 27.85 38.01 27.85 37.38"/><line class="a" x1="27.01" y1="37.59" x2="28.28" y2="37.59"/><polygon class="a" points="28.16 37.08 28.22 37.12 28.28 37.08 28.22 37.03 28.16 37.08"/><polyline class="a" points="27.19 36.19 27.07 36.23 27.01 36.36 27.01 36.45 27.07 36.57 27.25 36.66 27.55 36.69 27.86 36.69 28.1 36.66 28.22 36.57 28.28 36.45 28.28 36.4 28.22 36.28 28.1 36.19 27.92 36.14 27.86 36.14 27.67 36.19 27.55 36.28 27.49 36.4 27.49 36.45 27.55 36.57 27.67 36.66 27.86 36.69"/><polyline class="a" points="32.58 37.46 32.46 37.5 32.39 37.63 32.39 37.71 32.46 37.84 32.64 37.93 32.95 37.97 33.24 37.97 33.48 37.93 33.61 37.84 33.67 37.71 33.67 37.67 33.61 37.55 33.48 37.46 33.3 37.41 33.24 37.41 33.07 37.46 32.95 37.55 32.88 37.67 32.88 37.71 32.95 37.84 33.07 37.93 33.24 37.97"/><polygon class="a" points="33.55 37.08 33.61 37.12 33.67 37.08 33.61 37.03 33.55 37.08"/><polyline class="a" points="32.82 36.19 33.01 36.23 33.12 36.31 33.18 36.45 33.18 36.48 33.12 36.61 33.01 36.69 32.82 36.74 32.76 36.74 32.58 36.69 32.46 36.61 32.4 36.48 32.4 36.45 32.46 36.31 32.58 36.23 32.82 36.19 33.12 36.19 33.42 36.23 33.61 36.31 33.67 36.45 33.67 36.52 33.61 36.66 33.48 36.69"/><path class="a" d="M36.3,37.79l.06.14.12,0h.12l.12,0,.06-.09.06-.17.06-.12.11-.08.12,0h.18l.12,0,.06,0,.06.13v.16l-.06.14c-.89.42-.44-.72-1.15-.43l-.06.13Z"/><polygon class="a" points="37.45 37.08 37.51 37.12 37.57 37.08 37.51 37.03 37.45 37.08"/><path class="a" d="M36.3,36.52l.06.14.12,0h.12l.12,0,.06-.09.06-.17.06-.12.11-.08.12,0h.18l.12,0,.06,0,.06.13v.16l-.06.14c-.89.42-.44-.72-1.15-.43l-.06.13Z"/><polyline class="a" points="38.23 37.33 38.42 37.38 38.54 37.46 38.6 37.59 38.6 37.63 38.54 37.76 38.42 37.84 38.23 37.88 38.17 37.88 37.99 37.84 37.87 37.76 37.8 37.63 37.8 37.59 37.87 37.46 37.99 37.38 38.23 37.33 38.54 37.33 38.83 37.38 39.02 37.46 39.08 37.59 39.08 37.67 39.02 37.79 38.89 37.84"/><polygon class="a" points="38.95 36.95 39.02 37 39.08 36.95 39.02 36.91 38.95 36.95"/><polyline class="a" points="38.05 36.48 37.99 36.4 37.8 36.28 39.08 36.28"/><polyline class="a" points="42.36 38.25 42.3 38.16 42.11 38.03 43.38 38.03"/><polyline class="a" points="42.36 37.4 42.3 37.32 42.11 37.18 43.38 37.18"/><polygon class="a" points="43.26 36.59 43.32 36.63 43.38 36.59 43.32 36.55 43.26 36.59"/><polyline class="a" points="42.36 36.13 42.3 36.04 42.11 35.91 43.38 35.91"/><polyline class="a" points="44.67 38.25 44.61 38.16 44.42 38.03 45.7 38.03"/><polyline class="a" points="44.72 37.48 44.67 37.48 44.55 37.44 44.49 37.4 44.42 37.32 44.42 37.15 44.49 37.06 44.55 37.01 44.67 36.97 44.78 36.97 44.9 37.01 45.09 37.1 45.7 37.52 45.7 36.92"/><polygon class="a" points="45.58 36.59 45.63 36.63 45.7 36.59 45.63 36.55 45.58 36.59"/><polyline class="a" points="44.67 36.13 44.61 36.04 44.42 35.91 45.7 35.91"/><polyline class="a" points="54.4 38.37 54.34 38.28 54.15 38.16 55.43 38.16"/><polyline class="a" points="54.34 37.1 54.21 37.15 54.15 37.27 54.15 37.35 54.21 37.48 54.4 37.56 54.7 37.61 55.01 37.61 55.24 37.56 55.36 37.48 55.42 37.35 55.42 37.32 55.36 37.18 55.24 37.1 55.07 37.06 55.01 37.06 54.83 37.1 54.7 37.18 54.64 37.32 54.64 37.35 54.7 37.48 54.83 37.56 55.01 37.61"/><polygon class="a" points="55.3 36.72 55.36 36.77 55.42 36.72 55.36 36.68 55.3 36.72"/><polyline class="a" points="54.15 36.29 54.15 35.82 54.64 36.08 54.64 35.96 54.7 35.87 54.77 35.82 54.95 35.79 55.07 35.79 55.24 35.82 55.36 35.91 55.43 36.04 55.43 36.17 55.36 36.29 55.3 36.34 55.18 36.38"/><polyline class="a" points="62.79 38.34 62.73 38.27 62.55 38.14 63.82 38.14"/><polyline class="a" points="62.98 37.08 63.16 37.12 63.28 37.21 63.34 37.33 63.34 37.38 63.28 37.5 63.16 37.59 62.98 37.63 62.91 37.63 62.73 37.59 62.61 37.5 62.55 37.38 62.55 37.33 62.61 37.21 62.73 37.12 62.98 37.08 63.28 37.08 63.58 37.12 63.76 37.21 63.82 37.33 63.82 37.41 63.76 37.55 63.64 37.59"/><polygon class="a" points="63.7 36.69 63.76 36.74 63.82 36.69 63.76 36.66 63.7 36.69"/><polyline class="a" points="62.98 35.81 63.16 35.85 63.28 35.93 63.34 36.06 63.34 36.1 63.28 36.23 63.16 36.31 62.98 36.36 62.91 36.36 62.73 36.31 62.61 36.23 62.55 36.1 62.55 36.06 62.61 35.93 62.73 35.85 62.98 35.81 63.28 35.81 63.58 35.85 63.76 35.93 63.82 36.06 63.82 36.14 63.76 36.28 63.64 36.31"/><polyline class="a" points="72.26 37.78 72.2 37.78 72.08 37.73 72.02 37.7 71.96 37.61 71.96 37.44 72.02 37.35 72.08 37.32 72.2 37.27 72.33 37.27 72.45 37.32 72.63 37.4 73.23 37.82 73.23 37.23"/><polyline class="a" points="71.96 36.55 72.81 36.97 72.81 36.34"/><line class="a" x1="71.96" y1="36.55" x2="73.23" y2="36.55"/><polyline class="a" points="82.47 38.42 82.41 38.42 82.29 38.37 82.22 38.33 82.16 38.25 82.16 38.08 82.22 37.99 82.29 37.95 82.41 37.9 82.53 37.9 82.64 37.95 82.83 38.03 83.44 38.45 83.44 37.87"/><path class="a" d="M82.16,37.4l.06.12.12,0h.12l.11,0,.06-.09.06-.17.06-.12.12-.09L83,37h.18l.12,0,.06,0,.06.14v.17l-.06.12c-.9.42-.47-.72-1.15-.43l-.06.14Z"/><polygon class="a" points="83.31 36.68 83.38 36.72 83.44 36.68 83.38 36.63 83.31 36.68"/><polyline class="a" points="82.16 35.91 83.01 36.34 83.01 35.7"/><line class="a" x1="82.16" y1="35.91" x2="83.44" y2="35.91"/><path class="a" d="M91.32,38.37V37.9l.49.26V38c.24-.38,1.14,0,.66.39l-.12,0"/><polyline class="a" points="91.62 37.56 91.56 37.56 91.44 37.52 91.38 37.48 91.32 37.4 91.32 37.23 91.38 37.15 91.44 37.1 91.56 37.06 91.69 37.06 91.81 37.1 91.99 37.18 92.59 37.61 92.59 37.01"/><polygon class="a" points="92.47 36.68 92.53 36.72 92.59 36.68 92.53 36.63 92.47 36.68"/><polyline class="a" points="91.32 35.91 92.16 36.34 92.16 35.7"/><line class="a" x1="91.32" y1="35.91" x2="92.59" y2="35.91"/><polyline class="a" points="112.08 38.03 112.93 38.45 112.93 37.82"/><line class="a" x1="112.08" y1="38.03" x2="113.36" y2="38.03"/><polyline class="a" points="112.33 37.48 112.27 37.4 112.08 37.27 113.36 37.27"/><polygon class="a" points="113.23 36.68 113.3 36.72 113.36 36.68 113.3 36.63 113.23 36.68"/><polyline class="a" points="112.08 35.91 112.93 36.34 112.93 35.7"/><line class="a" x1="112.08" y1="35.91" x2="113.36" y2="35.91"/><path class="a" d="M133.76,37.93v.42l.54,0-.06,0c-.39-.76,1.28-.59.67,0l-.12,0"/><polygon class="a" points="133.76 37.33 133.82 37.46 134 37.55 134.29 37.59 134.48 37.59 134.78 37.55 134.97 37.46 135.03 37.33 135.03 37.24 134.97 37.12 134.78 37.03 134.48 37 134.29 37 134 37.03 133.82 37.12 133.76 37.24 133.76 37.33"/><polygon class="a" points="134.91 36.66 134.97 36.69 135.03 36.66 134.97 36.61 134.91 36.66"/><polyline class="a" points="135.03 36.14 133.76 35.73 133.76 36.31"/><path class="a" d="M145.11,37.93v.42l.54,0-.06,0c-.42-.75,1.29-.61.67,0l-.12,0"/><path class="a" d="M145.11,37.08v.42l.54,0-.06,0c-.42-.75,1.29-.61.67,0l-.12,0"/><polygon class="a" points="146.26 36.66 146.32 36.69 146.38 36.66 146.32 36.61 146.26 36.66"/><polyline class="a" points="145.3 35.76 145.18 35.81 145.11 35.93 145.11 36.02 145.18 36.14 145.36 36.23 145.65 36.28 145.96 36.28 146.2 36.23 146.32 36.14 146.39 36.02 146.39 35.97 146.32 35.85 146.2 35.76 146.02 35.73 145.96 35.73 145.77 35.76 145.65 35.85 145.59 35.97 145.59 36.02 145.65 36.14 145.77 36.23 145.96 36.28"/><polyline class="a" points="152.7 37.9 152.7 38.33 153.24 38.37 153.18 38.33 153.12 38.2 153.12 38.08 153.18 37.95 153.3 37.87 153.48 37.82 153.61 37.82 153.79 37.87 153.91 37.95 153.97 38.08 153.97 38.2 153.91 38.33 153.85 38.37 153.73 38.42"/><polygon class="a" points="152.7 37.35 152.76 37.48 152.87 37.52 152.99 37.52 153.12 37.48 153.18 37.4 153.24 37.23 153.3 37.1 153.42 37.01 153.54 36.97 153.73 36.97 153.85 37.01 153.91 37.06 153.97 37.18 153.97 37.35 153.91 37.48 153.85 37.52 153.73 37.56 153.54 37.56 153.42 37.52 153.3 37.44 153.24 37.32 153.18 37.15 153.12 37.06 152.99 37.01 152.87 37.01 152.76 37.06 152.7 37.18 152.7 37.35"/><polygon class="a" points="153.85 36.63 153.91 36.68 153.97 36.63 153.91 36.59 153.85 36.63"/><polyline class="a" points="153.12 35.74 153.3 35.79 153.42 35.87 153.48 35.99 153.48 36.04 153.42 36.17 153.3 36.25 153.12 36.29 153.06 36.29 152.87 36.25 152.76 36.17 152.7 36.04 152.7 35.99 152.76 35.87 152.87 35.79 153.12 35.74 153.42 35.74 153.73 35.79 153.91 35.87 153.97 35.99 153.97 36.08 153.91 36.22 153.79 36.25"/><polyline class="a" points="16.68 44.65 16.62 44.57 16.44 44.44 17.71 44.44"/><path class="a" d="M16.44,43.72l.06.14.12,0h.12l.12,0,.06-.09.06-.17.06-.13.12-.07.11,0h.18l.12,0,.06,0,.06.12v.17l-.06.14c-.88.42-.45-.72-1.15-.43l-.06.12Z"/><polyline class="a" points="16.87 42.53 17.05 42.58 17.17 42.66 17.22 42.79 17.22 42.82 17.17 42.96 17.05 43.04 16.87 43.08 16.8 43.08 16.62 43.04 16.5 42.96 16.44 42.82 16.44 42.79 16.5 42.66 16.62 42.58 16.87 42.53 17.17 42.53 17.47 42.58 17.65 42.66 17.71 42.79 17.71 42.87 17.65 42.99 17.53 43.04"/><polygon class="a" points="17.59 42.15 17.65 42.2 17.71 42.15 17.65 42.11 17.59 42.15"/><path class="a" d="M16.44,41.72v-.46l.49.26v-.12c.21-.41,1.14-.06.66.38l-.12,0"/><polyline class="a" points="16.68 40.84 16.62 40.76 16.44 40.62 17.71 40.62"/><polyline class="a" points="21.63 44.76 21.57 44.67 21.38 44.55 22.65 44.55"/><polygon class="a" points="21.38 43.83 21.44 43.95 21.57 44 21.69 44 21.81 43.95 21.87 43.86 21.93 43.69 21.99 43.57 22.11 43.48 22.24 43.45 22.42 43.45 22.53 43.48 22.59 43.53 22.65 43.66 22.65 43.83 22.59 43.95 22.53 44 22.42 44.03 22.24 44.03 22.11 44 21.99 43.91 21.93 43.78 21.87 43.62 21.81 43.53 21.69 43.48 21.57 43.48 21.44 43.53 21.38 43.66 21.38 43.83"/><polyline class="a" points="21.81 42.64 21.99 42.68 22.12 42.76 22.18 42.9 22.18 42.93 22.12 43.07 21.99 43.14 21.81 43.19 21.75 43.19 21.57 43.14 21.44 43.07 21.38 42.93 21.38 42.9 21.44 42.76 21.57 42.68 21.81 42.64 22.12 42.64 22.42 42.68 22.59 42.76 22.65 42.9 22.65 42.98 22.59 43.1 22.48 43.14"/><polygon class="a" points="22.53 42.26 22.59 42.3 22.65 42.26 22.59 42.21 22.53 42.26"/><polyline class="a" points="21.57 41.37 21.44 41.4 21.38 41.54 21.38 41.62 21.44 41.75 21.63 41.83 21.93 41.88 22.24 41.88 22.48 41.83 22.59 41.75 22.65 41.62 22.65 41.58 22.59 41.45 22.48 41.37 22.3 41.32 22.24 41.32 22.05 41.37 21.93 41.45 21.87 41.58 21.87 41.62 21.93 41.75 22.05 41.83 22.24 41.88"/><polyline class="a" points="21.81 40.52 21.99 40.56 22.12 40.65 22.18 40.77 22.18 40.82 22.12 40.94 21.99 41.02 21.81 41.07 21.75 41.07 21.57 41.02 21.44 40.94 21.38 40.82 21.38 40.77 21.44 40.65 21.57 40.56 21.81 40.52 22.12 40.52 22.42 40.56 22.59 40.65 22.65 40.77 22.65 40.85 22.59 40.99 22.48 41.02"/><polyline class="a" points="27.32 44.78 27.25 44.7 27.07 44.57 28.34 44.57"/><path class="a" d="M27.07,43.85l.06.12.12,0h.12l.12,0,.06-.09.06-.17.06-.12.12-.09.12,0h.17l.12,0,.06,0,.06.14v.17l-.06.12c-.9.42-.44-.71-1.15-.43l-.06.14Z"/><polyline class="a" points="27.5 42.66 27.68 42.7 27.81 42.79 27.87 42.91 27.87 42.96 27.81 43.08 27.68 43.17 27.5 43.22 27.44 43.22 27.25 43.17 27.13 43.08 27.07 42.96 27.07 42.91 27.13 42.79 27.25 42.7 27.5 42.66 27.81 42.66 28.1 42.7 28.28 42.79 28.34 42.91 28.34 42.99 28.28 43.13 28.16 43.17"/><polygon class="a" points="28.22 42.27 28.28 42.32 28.34 42.27 28.28 42.24 28.22 42.27"/><polyline class="a" points="27.5 41.39 27.68 41.43 27.81 41.51 27.87 41.64 27.87 41.69 27.81 41.81 27.68 41.89 27.5 41.94 27.44 41.94 27.25 41.89 27.13 41.81 27.07 41.69 27.07 41.64 27.13 41.51 27.25 41.43 27.5 41.39 27.81 41.39 28.1 41.43 28.28 41.51 28.34 41.64 28.34 41.72 28.28 41.86 28.16 41.89"/><polyline class="a" points="28.34 40.93 27.07 40.5 27.07 41.09"/><polyline class="a" points="32.7 44.78 32.64 44.7 32.47 44.57 33.74 44.57"/><polyline class="a" points="32.88 43.51 33.07 43.55 33.19 43.63 33.25 43.77 33.25 43.8 33.19 43.94 33.07 44.01 32.88 44.06 32.82 44.06 32.64 44.01 32.53 43.94 32.47 43.8 32.47 43.77 32.53 43.63 32.64 43.55 32.88 43.51 33.19 43.51 33.5 43.55 33.68 43.63 33.74 43.77 33.74 43.85 33.68 43.97 33.56 44.01"/><polygon class="a" points="32.47 42.96 32.53 43.08 32.7 43.17 33.01 43.22 33.19 43.22 33.5 43.17 33.68 43.08 33.74 42.96 33.74 42.87 33.68 42.75 33.5 42.66 33.19 42.62 33.01 42.62 32.7 42.66 32.53 42.75 32.47 42.87 32.47 42.96"/><polygon class="a" points="33.62 42.27 33.68 42.32 33.74 42.27 33.68 42.24 33.62 42.27"/><polyline class="a" points="32.47 41.51 33.31 41.94 33.31 41.31"/><line class="a" x1="32.47" y1="41.51" x2="33.74" y2="41.51"/><polyline class="a" points="32.64 40.53 32.53 40.58 32.47 40.71 32.47 40.79 32.53 40.93 32.7 41 33.01 41.05 33.31 41.05 33.56 41 33.68 40.93 33.74 40.79 33.74 40.76 33.68 40.62 33.56 40.53 33.37 40.5 33.31 40.5 33.13 40.53 33.01 40.62 32.95 40.76 32.95 40.79 33.01 40.93 33.13 41 33.31 41.05"/><polyline class="a" points="36.6 44.78 36.54 44.7 36.36 44.57 37.63 44.57"/><path class="a" d="M36.36,43.85l.06.12.12,0h.12l.11,0,.06-.09.06-.17.06-.12.12-.09.12,0h.18l.12,0,.06,0,.06.14v.17l-.06.12c-.91.42-.46-.71-1.15-.43l-.06.14Z"/><polyline class="a" points="36.78 42.66 36.96 42.7 37.08 42.79 37.14 42.91 37.14 42.96 37.08 43.08 36.96 43.17 36.78 43.22 36.73 43.22 36.54 43.17 36.42 43.08 36.36 42.96 36.36 42.91 36.42 42.79 36.54 42.7 36.78 42.66 37.08 42.66 37.39 42.7 37.57 42.79 37.63 42.91 37.63 42.99 37.57 43.13 37.45 43.17"/><polygon class="a" points="37.51 42.27 37.57 42.32 37.63 42.27 37.57 42.24 37.51 42.27"/><polyline class="a" points="36.36 41.51 37.2 41.94 37.2 41.31"/><line class="a" x1="36.36" y1="41.51" x2="37.63" y2="41.51"/><polyline class="a" points="36.54 40.53 36.42 40.58 36.36 40.71 36.36 40.79 36.42 40.93 36.6 41 36.9 41.05 37.2 41.05 37.45 41 37.57 40.93 37.63 40.79 37.63 40.76 37.57 40.62 37.45 40.53 37.27 40.5 37.2 40.5 37.02 40.53 36.9 40.62 36.84 40.76 36.84 40.79 36.9 40.93 37.02 41 37.2 41.05"/><polyline class="a" points="38.15 44.78 38.09 44.7 37.9 44.57 39.17 44.57"/><path class="a" d="M37.9,43.85,38,44l.12,0h.12l.12,0,.06-.09.06-.17,0-.12.12-.09.12,0h.18l.12,0,.06,0,.06.14v.17l-.06.12c-.95.41-.41-.71-1.15-.43l-.06.14Z"/><polyline class="a" points="38.33 42.66 38.5 42.7 38.62 42.79 38.69 42.91 38.69 42.96 38.62 43.08 38.5 43.17 38.33 43.22 38.27 43.22 38.09 43.17 37.96 43.08 37.9 42.96 37.9 42.91 37.96 42.79 38.09 42.7 38.33 42.66 38.62 42.66 38.93 42.7 39.11 42.79 39.17 42.91 39.17 42.99 39.11 43.13 38.99 43.17"/><polygon class="a" points="39.05 42.27 39.11 42.32 39.17 42.27 39.11 42.24 39.05 42.27"/><polyline class="a" points="37.9 41.86 37.9 41.39 38.39 41.64 38.39 41.51 38.45 41.43 38.5 41.39 38.69 41.34 38.81 41.34 38.99 41.39 39.11 41.48 39.17 41.6 39.17 41.72 39.11 41.86 39.05 41.89 38.93 41.94"/><polyline class="a" points="39.17 40.93 37.9 40.5 37.9 41.09"/><polyline class="a" points="42.42 44.78 42.36 44.7 42.17 44.57 43.45 44.57"/><path class="a" d="M42.17,43.85l.06.12.12,0h.12l.12,0,.06-.09.06-.17.06-.12.12-.09.12,0h.17l.12,0,.06,0,.06.14v.17l-.06.12c-.9.42-.44-.71-1.15-.43l-.06.14Z"/><polyline class="a" points="42.6 42.66 42.78 42.7 42.91 42.79 42.97 42.91 42.97 42.96 42.91 43.08 42.78 43.17 42.6 43.22 42.54 43.22 42.36 43.17 42.23 43.08 42.17 42.96 42.17 42.91 42.23 42.79 42.36 42.7 42.6 42.66 42.91 42.66 43.2 42.7 43.38 42.79 43.45 42.91 43.45 42.99 43.38 43.13 43.26 43.17"/><polygon class="a" points="43.32 42.27 43.38 42.32 43.45 42.27 43.38 42.24 43.32 42.27"/><polyline class="a" points="42.17 41.43 42.17 41.86 42.72 41.89 42.66 41.86 42.6 41.72 42.6 41.6 42.66 41.48 42.78 41.39 42.97 41.34 43.09 41.34 43.26 41.39 43.38 41.48 43.45 41.6 43.45 41.72 43.38 41.86 43.32 41.89 43.2 41.94"/><polyline class="a" points="43.45 40.93 42.17 40.5 42.17 41.09"/><polyline class="a" points="44.73 44.78 44.67 44.7 44.48 44.57 45.76 44.57"/><polyline class="a" points="44.91 43.51 45.1 43.55 45.22 43.63 45.28 43.77 45.28 43.8 45.22 43.94 45.1 44.01 44.91 44.06 44.85 44.06 44.67 44.01 44.55 43.94 44.49 43.8 44.49 43.77 44.55 43.63 44.67 43.55 44.91 43.51 45.22 43.51 45.51 43.55 45.7 43.63 45.76 43.77 45.76 43.85 45.7 43.97 45.58 44.01"/><polygon class="a" points="44.48 42.96 44.55 43.08 44.73 43.17 45.04 43.22 45.22 43.22 45.51 43.17 45.7 43.08 45.76 42.96 45.76 42.87 45.7 42.75 45.51 42.66 45.22 42.62 45.04 42.62 44.73 42.66 44.55 42.75 44.48 42.87 44.48 42.96"/><polygon class="a" points="45.64 42.27 45.7 42.32 45.76 42.27 45.7 42.24 45.64 42.27"/><polyline class="a" points="44.79 41.89 44.73 41.89 44.61 41.86 44.55 41.81 44.48 41.72 44.48 41.56 44.55 41.48 44.61 41.43 44.73 41.39 44.85 41.39 44.98 41.43 45.16 41.51 45.76 41.94 45.76 41.34"/><polyline class="a" points="45.76 40.93 44.48 40.5 44.48 41.09"/><polyline class="a" points="54.47 44.78 54.41 44.7 54.23 44.57 55.5 44.57"/><path class="a" d="M54.23,43.85l.06.12.12,0h.12l.12,0,0-.09.06-.17.06-.12.12-.09.12,0h.18l.12,0,.06,0,.06.14v.17l-.06.12c-.92.42-.45-.72-1.15-.43l-.06.14Z"/><polyline class="a" points="54.66 42.66 54.83 42.7 54.95 42.79 55.01 42.91 55.01 42.96 54.95 43.08 54.83 43.17 54.66 43.22 54.59 43.22 54.41 43.17 54.29 43.08 54.23 42.96 54.23 42.91 54.29 42.79 54.41 42.7 54.66 42.66 54.95 42.66 55.26 42.7 55.44 42.79 55.5 42.91 55.5 42.99 55.44 43.13 55.32 43.17"/><polygon class="a" points="55.38 42.27 55.44 42.32 55.5 42.27 55.44 42.24 55.38 42.27"/><polygon class="a" points="54.23 41.69 54.29 41.81 54.47 41.89 54.76 41.94 54.95 41.94 55.25 41.89 55.44 41.81 55.5 41.69 55.5 41.6 55.44 41.48 55.25 41.39 54.95 41.34 54.76 41.34 54.47 41.39 54.29 41.48 54.23 41.6 54.23 41.69"/><path class="a" d="M54.23,41v-.46l.48.26v-.12c.21-.4,1.16-.07.67.38l-.12,0"/><polyline class="a" points="62.87 44.78 62.8 44.7 62.62 44.57 63.89 44.57"/><path class="a" d="M62.62,43.85l.06.12.12,0h.12L63,44l0-.09.06-.17.06-.12.12-.09.12,0h.18l.12,0,.06,0,.06.14v.17l-.06.12c-.92.42-.45-.72-1.15-.43l-.06.14Z"/><polyline class="a" points="63.05 42.66 63.22 42.7 63.34 42.79 63.4 42.91 63.4 42.96 63.34 43.08 63.22 43.17 63.05 43.22 62.99 43.22 62.8 43.17 62.68 43.08 62.62 42.96 62.62 42.91 62.68 42.79 62.8 42.7 63.05 42.66 63.34 42.66 63.65 42.7 63.83 42.79 63.89 42.91 63.89 42.99 63.83 43.13 63.71 43.17"/><polygon class="a" points="63.77 42.27 63.83 42.32 63.89 42.27 63.83 42.24 63.77 42.27"/><polygon class="a" points="62.62 41.69 62.68 41.81 62.87 41.89 63.16 41.94 63.34 41.94 63.65 41.89 63.83 41.81 63.89 41.69 63.89 41.6 63.83 41.48 63.65 41.39 63.34 41.34 63.16 41.34 62.87 41.39 62.68 41.48 62.62 41.6 62.62 41.69"/><polyline class="a" points="62.8 40.53 62.68 40.58 62.62 40.71 62.62 40.79 62.68 40.93 62.87 41 63.16 41.05 63.47 41.05 63.71 41 63.83 40.93 63.89 40.79 63.89 40.76 63.83 40.62 63.71 40.53 63.53 40.5 63.47 40.5 63.28 40.53 63.16 40.62 63.1 40.76 63.1 40.79 63.16 40.93 63.28 41 63.47 41.05"/><polyline class="a" points="72.28 44.78 72.22 44.7 72.03 44.57 73.3 44.57"/><path class="a" d="M72,43.85l.06.12.12,0h.12l.12,0,.06-.09.06-.17,0-.12.12-.09.12,0h.18l.12,0,.06,0,.06.14v.17l-.06.12c-.95.41-.41-.71-1.15-.43l-.06.14Z"/><path class="a" d="M72,43l.06.14.12,0h.12l.12,0,.06-.09.06-.17,0-.12.12-.08.12,0h.18l.12,0,.06,0,.06.12V43l-.06.14c-.93.41-.42-.72-1.15-.43l-.06.12Z"/><polygon class="a" points="73.18 42.27 73.24 42.32 73.3 42.27 73.24 42.24 73.18 42.27"/><path class="a" d="M72,41.72l.06.14.12,0h.12l.12,0,.06-.09.06-.17,0-.12.12-.08.12,0h.18l.12,0,.06,0,.06.13v.16l-.06.14c-.93.41-.42-.72-1.15-.43l-.06.13Z"/><polyline class="a" points="72.03 41 72.03 40.53 72.52 40.79 72.52 40.67 72.58 40.58 72.63 40.53 72.81 40.5 72.94 40.5 73.12 40.53 73.24 40.62 73.31 40.76 73.31 40.88 73.24 41 73.18 41.05 73.06 41.09"/><polyline class="a" points="82.47 44.65 82.41 44.57 82.22 44.44 83.5 44.44"/><path class="a" d="M82.23,43.72l.06.14.12,0h.12l.12,0,.06-.09.06-.17.06-.13.12-.07.12,0h.18l.11,0,.06,0,.06.12v.17l-.06.14c-.88.42-.45-.72-1.15-.43l-.06.12Z"/><polygon class="a" points="82.22 42.87 82.29 42.99 82.41 43.04 82.53 43.04 82.65 42.99 82.72 42.91 82.78 42.75 82.84 42.62 82.96 42.53 83.08 42.49 83.27 42.49 83.38 42.53 83.44 42.58 83.5 42.7 83.5 42.87 83.44 42.99 83.38 43.04 83.27 43.08 83.08 43.08 82.96 43.04 82.84 42.96 82.78 42.82 82.72 42.66 82.65 42.58 82.53 42.53 82.41 42.53 82.29 42.58 82.22 42.7 82.22 42.87"/><polygon class="a" points="83.38 42.15 83.44 42.2 83.5 42.15 83.44 42.11 83.38 42.15"/><polyline class="a" points="82.41 41.26 82.29 41.31 82.22 41.43 82.22 41.51 82.29 41.64 82.47 41.72 82.78 41.77 83.08 41.77 83.31 41.72 83.44 41.64 83.5 41.51 83.5 41.48 83.44 41.34 83.31 41.26 83.14 41.22 83.08 41.22 82.9 41.26 82.78 41.34 82.72 41.48 82.72 41.51 82.78 41.64 82.9 41.72 83.08 41.77"/><polyline class="a" points="82.47 40.84 82.41 40.76 82.22 40.62 83.5 40.62"/><polyline class="a" points="91.64 44.78 91.58 44.7 91.39 44.57 92.66 44.57"/><path class="a" d="M91.39,43.85l.06.12.12,0h.11l.12,0,.06-.09.06-.17.06-.12.12-.09.12,0h.18l.12,0,.06,0,.06.14v.17L92.6,44c-.92.42-.45-.71-1.15-.43l-.06.14Z"/><path class="a" d="M91.39,43l.06.14.12,0h.11l.12,0,.06-.09.06-.17.06-.12.12-.08.12,0h.18l.12,0,.06,0,.06.12V43l-.06.14c-.9.42-.46-.71-1.15-.43l-.06.12Z"/><polygon class="a" points="92.54 42.27 92.6 42.32 92.66 42.27 92.6 42.24 92.54 42.27"/><polyline class="a" points="91.39 41.43 91.39 41.86 91.93 41.89 91.87 41.86 91.81 41.72 91.81 41.6 91.87 41.48 91.99 41.39 92.17 41.34 92.3 41.34 92.48 41.39 92.6 41.48 92.66 41.6 92.66 41.72 92.6 41.86 92.54 41.89 92.42 41.94"/><polyline class="a" points="91.69 41.05 91.64 41.05 91.51 41 91.45 40.96 91.39 40.88 91.39 40.71 91.45 40.62 91.51 40.58 91.64 40.53 91.75 40.53 91.87 40.58 92.05 40.67 92.66 41.09 92.66 40.5"/><polyline class="a" points="112.4 44.35 112.34 44.27 112.16 44.15 113.43 44.15"/><polygon class="a" points="112.16 43.42 112.22 43.55 112.34 43.59 112.45 43.59 112.57 43.55 112.64 43.46 112.7 43.3 112.76 43.17 112.88 43.08 113 43.04 113.19 43.04 113.31 43.08 113.37 43.13 113.43 43.25 113.43 43.42 113.37 43.55 113.31 43.59 113.19 43.63 113 43.63 112.88 43.59 112.76 43.51 112.7 43.39 112.64 43.22 112.57 43.13 112.45 43.08 112.34 43.08 112.22 43.13 112.16 43.25 112.16 43.42"/><polygon class="a" points="112.16 42.58 112.22 42.7 112.34 42.75 112.45 42.75 112.57 42.7 112.64 42.62 112.7 42.44 112.76 42.32 112.88 42.24 113 42.2 113.19 42.2 113.31 42.24 113.37 42.27 113.43 42.41 113.43 42.58 113.37 42.7 113.31 42.75 113.19 42.79 113 42.79 112.88 42.75 112.76 42.66 112.7 42.53 112.64 42.36 112.57 42.27 112.45 42.24 112.34 42.24 112.22 42.27 112.16 42.41 112.16 42.58"/><polygon class="a" points="113.31 41.86 113.37 41.89 113.43 41.86 113.37 41.81 113.31 41.86"/><polyline class="a" points="112.16 41.43 112.16 40.96 112.64 41.22 112.64 41.09 112.7 41 112.76 40.96 112.94 40.93 113.06 40.93 113.25 40.96 113.37 41.05 113.43 41.17 113.43 41.31 113.37 41.43 113.31 41.48 113.19 41.51"/><polyline class="a" points="134.06 44.78 134 44.7 133.82 44.57 135.09 44.57"/><path class="a" d="M133.82,43.85l.06.12.12,0h.12l.12,0,.06-.09.06-.17.06-.12.12-.09.12,0h.18l.11,0,.06,0,.06.14v.17L135,44c-.9.42-.44-.72-1.15-.43l-.06.14Z"/><path class="a" d="M133.82,43l.06.14.12,0h.12l.12,0,.06-.09.06-.17.06-.12.12-.08.12,0h.18l.11,0,.06,0,.06.12V43l-.06.14c-.88.42-.45-.72-1.15-.43l-.06.12Z"/><polygon class="a" points="134.97 42.27 135.03 42.32 135.09 42.27 135.03 42.24 134.97 42.27"/><polyline class="a" points="134.06 41.81 134 41.72 133.82 41.6 135.09 41.6"/><polyline class="a" points="133.82 41 133.82 40.53 134.31 40.79 134.31 40.67 134.37 40.58 134.43 40.53 134.61 40.5 134.74 40.5 134.92 40.53 135.03 40.62 135.09 40.76 135.09 40.88 135.03 41 134.97 41.05 134.86 41.09"/><polyline class="a" points="145.42 44.81 145.36 44.72 145.17 44.59 146.45 44.59"/><path class="a" d="M145.17,43.86l.06.14.12,0h.12l.12,0,.06-.09.06-.17.06-.12.12-.08.12,0h.17l.12,0,.06,0,.06.12v.17l-.06.14c-.88.42-.45-.72-1.15-.43l-.06.12Z"/><polygon class="a" points="145.17 43.02 145.24 43.14 145.36 43.19 145.48 43.19 145.6 43.14 145.66 43.07 145.72 42.9 145.79 42.76 145.91 42.68 146.03 42.64 146.2 42.64 146.32 42.68 146.38 42.73 146.45 42.85 146.45 43.02 146.38 43.14 146.32 43.19 146.2 43.23 146.03 43.23 145.91 43.19 145.79 43.1 145.72 42.98 145.66 42.81 145.6 42.73 145.48 42.68 145.36 42.68 145.24 42.73 145.17 42.85 145.17 43.02"/><polygon class="a" points="146.32 42.3 146.38 42.35 146.45 42.3 146.38 42.26 146.32 42.3"/><polygon class="a" points="145.17 41.71 145.24 41.83 145.42 41.92 145.72 41.95 145.91 41.95 146.2 41.92 146.38 41.83 146.45 41.71 146.45 41.62 146.38 41.49 146.2 41.4 145.91 41.37 145.72 41.37 145.42 41.4 145.24 41.49 145.17 41.62 145.17 41.71"/><polyline class="a" points="145.17 40.69 146.03 41.11 146.03 40.47"/><line class="a" x1="145.17" y1="40.69" x2="146.45" y2="40.69"/><polyline class="a" points="153.01 44.78 152.94 44.7 152.76 44.57 154.03 44.57"/><path class="a" d="M152.76,43.85l.06.12.12,0h.12l.12,0,.06-.09.06-.17.06-.12.12-.09.11,0h.18l.12,0,.06,0,.06.14v.17L154,44c-.9.42-.44-.72-1.15-.43l-.06.14Z"/><polyline class="a" points="154.03 43.04 152.76 42.62 152.76 43.22"/><polygon class="a" points="153.91 42.27 153.97 42.32 154.03 42.27 153.97 42.24 153.91 42.27"/><polyline class="a" points="153.19 41.39 153.37 41.43 153.5 41.51 153.54 41.64 153.54 41.69 153.5 41.81 153.37 41.89 153.19 41.94 153.13 41.94 152.94 41.89 152.82 41.81 152.76 41.69 152.76 41.64 152.82 41.51 152.94 41.43 153.19 41.39 153.5 41.39 153.79 41.43 153.97 41.51 154.03 41.64 154.03 41.72 153.97 41.86 153.85 41.89"/><polyline class="a" points="153.07 41.05 153.01 41.05 152.88 41 152.82 40.96 152.76 40.88 152.76 40.71 152.82 40.62 152.88 40.58 153.01 40.53 153.13 40.53 153.25 40.58 153.43 40.67 154.03 41.09 154.03 40.5"/><polygon class="a" points="2.23 36.67 2.23 35.74 2.54 35.74 2.67 35.79 2.76 35.87 2.81 35.96 2.85 36.09 2.85 36.31 2.81 36.45 2.76 36.53 2.67 36.62 2.54 36.67 2.23 36.67"/><line class="a" x1="3.16" y1="35.74" x2="3.16" y2="36.67"/><path class="a" d="M4.09,35.87,4,35.79l-.13,0c-.22,0-.58.08-.32.35l.1,0,.26.1.1,0,0,0,0,.08v.14L4,36.62l-.13,0H3.69l-.13,0-.09-.08"/><line class="a" x1="4.58" y1="35.74" x2="4.58" y2="36.67"/><line class="a" x1="4.26" y1="35.74" x2="4.89" y2="35.74"/><polygon class="a" points="5.16 36.58 5.11 36.62 5.16 36.67 5.19 36.62 5.16 36.58"/><polyline class="a" points="6.48 36.67 6.48 35.74 6.88 35.74 7.01 35.79 7.05 35.82 7.1 35.91 7.1 36.04 7.05 36.13 7.01 36.18 6.88 36.23 6.48 36.23"/><polyline class="a" points="7.41 36.67 7.41 35.74 7.81 35.74 7.94 35.79 7.98 35.82 8.03 35.91 8.03 36.01 7.98 36.09 7.94 36.13 7.81 36.18 7.41 36.18"/><line class="a" x1="7.72" y1="36.18" x2="8.03" y2="36.67"/><path class="a" d="M8.56,35.74l-.09,0-.08.09a.55.55,0,0,0,.17.79h.18l.09,0a.54.54,0,0,0,0-.83l-.09,0Z"/><path class="a" d="M9.94,36l0-.09-.09-.08c-.26-.18-.48.06-.54.31v.22l0,.13a.32.32,0,0,0,.57.09l0-.09v-.13H9.71"/><polyline class="a" points="10.24 36.67 10.24 35.74 10.64 35.74 10.77 35.79 10.82 35.82 10.87 35.91 10.87 36.01 10.82 36.09 10.77 36.13 10.64 36.18 10.24 36.18"/><line class="a" x1="10.55" y1="36.18" x2="10.87" y2="36.67"/><polyline class="a" points="11.18 36.67 11.18 35.74 11.75 35.74"/><line class="a" x1="11.18" y1="36.18" x2="11.53" y2="36.18"/><line class="a" x1="11.18" y1="36.67" x2="11.75" y2="36.67"/><path class="a" d="M12.59,35.87l-.1-.09-.12,0c-.22,0-.58.08-.32.35l.1,0,.26.1.09,0,0,0,0,.08v.14l-.1.08-.12,0h-.18l-.13,0L12,36.53"/><path class="a" d="M13.48,35.87l-.09-.09-.13,0c-.23,0-.59.11-.31.35l.08,0,.27.1.08,0,0,0,0,.08v.14l-.09.08-.13,0h-.17l-.13,0-.1-.08"/><line class="a" x1="13.78" y1="35.74" x2="13.78" y2="36.67"/><polyline class="a" points="14.01 35.74 14.36 36.67 14.71 35.74"/><polyline class="a" points="14.81 36.67 15.16 35.74 15.52 36.67"/><line class="a" x1="14.94" y1="36.36" x2="15.39" y2="36.36"/><path class="a" d="M2.54,37.29l-.09.09a1,1,0,0,0,0,1.24l.09.09"/><line class="a" x1="2.85" y1="37.77" x2="2.85" y2="38.39"/><polyline class="a" points="2.85 37.95 2.98 37.82 3.07 37.77 3.2 37.77 3.29 37.82 3.33 37.95 3.33 38.39"/><polyline class="a" points="3.33 37.95 3.47 37.82 3.55 37.77 3.69 37.77 3.78 37.82 3.82 37.95 3.82 38.39"/><path class="a" d="M4.13,37.29l.1.09a1,1,0,0,1,0,1.24l-.1.09"/><polygon class="a" points="2.23 31.82 2.23 30.89 2.54 30.89 2.67 30.94 2.76 31.03 2.81 31.11 2.85 31.25 2.85 31.47 2.81 31.6 2.76 31.69 2.67 31.79 2.54 31.82 2.23 31.82"/><line class="a" x1="3.16" y1="30.89" x2="3.16" y2="31.82"/><path class="a" d="M4.09,31,4,30.94l-.13,0c-.22,0-.58.08-.32.35l.1,0,.26.09c.32.12.26.51-.22.44l-.13,0-.09-.1"/><line class="a" x1="4.58" y1="30.89" x2="4.58" y2="31.82"/><line class="a" x1="4.26" y1="30.89" x2="4.89" y2="30.89"/><polygon class="a" points="5.16 31.74 5.11 31.79 5.16 31.82 5.19 31.79 5.16 31.74"/><polyline class="a" points="6.48 31.82 6.48 30.89 6.88 30.89 7.01 30.94 7.05 30.98 7.1 31.08 7.1 31.2 7.05 31.3 7.01 31.33 6.88 31.38 6.48 31.38"/><polyline class="a" points="7.27 31.82 7.63 30.89 7.98 31.82"/><line class="a" x1="7.41" y1="31.52" x2="7.85" y2="31.52"/><polyline class="a" points="8.2 31.82 8.2 30.89 8.61 30.89 8.74 30.94 8.78 30.98 8.83 31.08 8.83 31.16 8.78 31.25 8.74 31.3 8.61 31.33 8.2 31.33"/><line class="a" x1="8.52" y1="31.33" x2="8.83" y2="31.82"/><polyline class="a" points="9.1 31.82 9.71 30.89 9.1 30.89"/><line class="a" x1="9.1" y1="31.82" x2="9.71" y2="31.82"/><line class="a" x1="10.03" y1="30.89" x2="10.03" y2="31.82"/><polyline class="a" points="10.24 31.82 10.6 30.89 10.96 31.82"/><line class="a" x1="10.38" y1="31.52" x2="10.82" y2="31.52"/><polyline class="a" points="11.18 30.89 11.18 31.82 11.7 31.82"/><polyline class="a" points="11.92 31.82 11.92 30.89 12.5 30.89"/><line class="a" x1="11.92" y1="31.33" x2="12.28" y2="31.33"/><line class="a" x1="11.92" y1="31.82" x2="12.5" y2="31.82"/><path class="a" d="M2.54,32.45l-.09.09a1,1,0,0,0,0,1.24l.09.1"/><line class="a" x1="2.85" y1="32.94" x2="2.85" y2="33.55"/><polyline class="a" points="2.85 33.11 2.98 32.97 3.07 32.94 3.2 32.94 3.29 32.97 3.33 33.11 3.33 33.55"/><polyline class="a" points="3.33 33.11 3.47 32.97 3.55 32.94 3.69 32.94 3.78 32.97 3.82 33.11 3.82 33.55"/><path class="a" d="M4.13,32.45l.1.09a1,1,0,0,1,0,1.24l-.1.1"/><polyline class="a" points="2.23 28.87 2.23 27.94 2.62 27.94 2.76 27.98 2.81 28.03 2.85 28.11 2.85 28.25 2.81 28.34 2.76 28.38 2.62 28.42 2.23 28.42"/><line class="a" x1="3.16" y1="27.94" x2="3.16" y2="28.87"/><path class="a" d="M4.13,28.16l0-.09L4,28a.33.33,0,0,0-.49.18l0,.14v.22l0,.13,0,.09.1.09.08,0h.17l.1,0,.09-.09,0-.09"/><path class="a" d="M5.06,28.16l0-.09L4.93,28a.33.33,0,0,0-.49.18l0,.14v.22l0,.13,0,.09.1.09.08,0h.17l.1,0L5,28.74l0-.09"/><line class="a" x1="5.37" y1="27.94" x2="5.37" y2="28.87"/><line class="a" x1="5.99" y1="27.94" x2="5.99" y2="28.87"/><line class="a" x1="5.37" y1="28.38" x2="5.99" y2="28.38"/><polyline class="a" points="6.34 28.87 6.34 27.94 6.92 27.94"/><line class="a" x1="6.34" y1="28.38" x2="6.7" y2="28.38"/><line class="a" x1="6.34" y1="28.87" x2="6.92" y2="28.87"/><line class="a" x1="7.37" y1="27.94" x2="7.37" y2="28.87"/><line class="a" x1="7.05" y1="27.94" x2="7.68" y2="27.94"/><line class="a" x1="8.08" y1="27.94" x2="8.08" y2="28.87"/><line class="a" x1="7.76" y1="27.94" x2="8.39" y2="27.94"/><path class="a" d="M8.83,27.94l-.09,0-.08.1a.54.54,0,0,0,.17.79H9l.09,0,.09-.09,0-.09,0-.13V28.3l0-.14,0-.08L9.09,28l-.09,0Z"/><path class="a" d="M2.5,41.32l-.1,0-.09.1c-.16.22-.12.7.18.79h.17l.09,0a.56.56,0,0,0,0-.84l-.09,0Z"/><line class="a" x1="2.62" y1="42.06" x2="2.89" y2="42.33"/><polyline class="a" points="3.25 41.32 3.25 41.98 3.29 42.11 3.38 42.2 3.52 42.25 3.6 42.25 3.74 42.2 3.82 42.11 3.87 41.98 3.87 41.32"/><path class="a" d="M4.44,41.32l-.09,0-.1.1a.55.55,0,0,0,.18.79h.17l.1,0a.59.59,0,0,0,0-.84l-.1,0Z"/><line class="a" x1="5.37" y1="41.32" x2="5.37" y2="42.25"/><line class="a" x1="5.06" y1="41.32" x2="5.68" y2="41.32"/><polyline class="a" points="5.77 42.25 6.12 41.32 6.48 42.25"/><line class="a" x1="5.9" y1="41.94" x2="6.34" y2="41.94"/><line class="a" x1="7.81" y1="41.32" x2="7.81" y2="42.25"/><line class="a" x1="7.5" y1="41.32" x2="8.12" y2="41.32"/><polyline class="a" points="8.34 42.25 8.34 41.32 8.91 41.32"/><line class="a" x1="8.34" y1="41.76" x2="8.69" y2="41.76"/><line class="a" x1="8.34" y1="42.25" x2="8.91" y2="42.25"/><polyline class="a" points="9.18 42.25 9.18 41.32 9.59 41.32 9.71 41.35 9.76 41.4 9.8 41.49 9.8 41.59 9.76 41.67 9.71 41.71 9.59 41.76 9.18 41.76"/><line class="a" x1="9.49" y1="41.76" x2="9.8" y2="42.25"/><polyline class="a" points="10.11 42.25 10.11 41.32 10.52 41.32 10.64 41.35 10.69 41.4 10.73 41.49 10.73 41.59 10.69 41.67 10.64 41.71 10.52 41.76 10.11 41.76"/><line class="a" x1="10.42" y1="41.76" x2="10.73" y2="42.25"/><polyline class="a" points="11.04 42.25 11.04 41.32 11.62 41.32"/><line class="a" x1="11.04" y1="41.76" x2="11.4" y2="41.76"/><line class="a" x1="11.04" y1="42.25" x2="11.62" y2="42.25"/><polyline class="a" points="11.88 42.25 11.88 41.32 12.5 42.25 12.5 41.32"/><path class="a" d="M13.08,41.32l-.1,0-.09.1c-.16.22-.12.7.18.79h.17l.09,0a.56.56,0,0,0,0-.84l-.09,0Z"/><path class="a" d="M2.54,42.87,2.45,43a1,1,0,0,0,0,1.24l.09.09"/><line class="a" x1="2.85" y1="43.35" x2="2.85" y2="43.97"/><polyline class="a" points="2.85 43.53 2.98 43.4 3.07 43.35 3.2 43.35 3.29 43.4 3.33 43.53 3.33 43.97"/><polyline class="a" points="3.33 43.53 3.47 43.4 3.55 43.35 3.69 43.35 3.78 43.4 3.82 43.53 3.82 43.97"/><polyline class="a" points="5.55 43.48 5.51 43.4 5.38 43.35 5.24 43.35 5.11 43.4 5.06 43.48 5.11 43.57 5.19 43.62 5.41 43.67 5.51 43.7 5.55 43.8 5.55 43.84 5.51 43.92 5.38 43.97 5.24 43.97 5.11 43.92 5.06 43.84"/><polygon class="a" points="5.9 43.89 5.86 43.92 5.9 43.97 5.95 43.92 5.9 43.89"/><line class="a" x1="6.3" y1="43.04" x2="6.3" y2="43.97"/><polygon class="a" points="6.7 43.89 6.66 43.92 6.7 43.97 6.75 43.92 6.7 43.89"/><line class="a" x1="7.1" y1="43.35" x2="7.1" y2="43.97"/><polyline class="a" points="7.1 43.53 7.24 43.4 7.32 43.35 7.46 43.35 7.54 43.4 7.59 43.53 7.59 43.97"/><polyline class="a" points="7.59 43.53 7.72 43.4 7.81 43.35 7.95 43.35 8.03 43.4 8.08 43.53 8.08 43.97"/><polygon class="a" points="8.47 43.89 8.43 43.92 8.47 43.97 8.52 43.92 8.47 43.89"/><path class="a" d="M8.83,42.87l.09.09a1,1,0,0,1,0,1.24l-.09.09"/><line class="a" x1="4.02" y1="24.53" x2="6.26" y2="24.53"/><polygon class="a" points="8.49 24.53 6.26 25.94 6.26 24.53 8.49 24.53"/><line class="a" x1="8.14" y1="24.76" x2="8.36" y2="24.53"/><line class="a" x1="6.39" y1="25.85" x2="7.71" y2="24.53"/><line class="a" x1="6.26" y1="25.32" x2="7.05" y2="24.53"/><line class="a" x1="6.26" y1="24.68" x2="6.4" y2="24.53"/><line class="a" x1="7.32" y1="25.28" x2="6.57" y2="24.53"/><line class="a" x1="6.92" y1="25.52" x2="6.26" y2="24.87"/><line class="a" x1="6.51" y1="25.78" x2="6.26" y2="25.53"/><line class="a" x1="7.71" y1="25.02" x2="7.22" y2="24.53"/><line class="a" x1="8.12" y1="24.77" x2="7.88" y2="24.53"/><line class="a" x1="4.02" y1="24.53" x2="6.26" y2="25.94"/><path class="a" d="M1.57,22.63l-.12,0-.11.11c-.21.32-.14.92.23,1h.22l.11,0L2,23.63l.06-.11,0-.17v-.28l0-.17L2,22.79l-.11-.11-.11,0Z"/><line class="a" x1="1.73" y1="23.57" x2="2.07" y2="23.92"/><line class="a" x1="2.44" y1="23.29" x2="2.44" y2="23.79"/><polyline class="a" points="2.44 23.51 2.48 23.4 2.55 23.33 2.62 23.29 2.73 23.29"/><rect class="a" x="2.89" y="23.05" width="0.05" height="0.05" transform="translate(-15.46 8.82) rotate(-44.99)"/><line class="a" x1="2.92" y1="23.33" x2="2.92" y2="23.79"/><polyline class="a" points="3.42 23.04 3.34 23.04 3.28 23.07 3.25 23.18 3.25 23.8"/><line class="a" x1="3.14" y1="23.29" x2="3.38" y2="23.29"/><line class="a" x1="3.72" y1="23.13" x2="4.73" y2="23.13"/><line class="a" x1="3.72" y1="23.46" x2="4.73" y2="23.46"/><polyline class="a" points="5.29 22.85 5.4 22.79 5.57 22.63 5.57 23.79"/><path class="a" d="M6.51,22.63l-.17,0,0,.11v.11l0,.11.12.06.22.06.17,0,.11.11,0,.11v.17l0,.11-.06.06-.17,0H6.51l-.17,0c-.55-.84,1-.43.56-1.07l-.17,0Z"/><polygon class="a" points="7.69 22.63 7.52 22.68 7.41 22.85 7.36 23.13 7.36 23.29 7.41 23.57 7.52 23.75 7.69 23.8 7.8 23.8 7.97 23.75 8.08 23.57 8.14 23.29 8.14 23.13 8.08 22.85 7.97 22.68 7.8 22.63 7.69 22.63"/><line class="a" x1="9.71" y1="23.01" x2="9.71" y2="23.79"/><polyline class="a" points="9.71 23.24 9.87 23.07 9.99 23.01 10.15 23.01 10.26 23.07 10.32 23.24 10.32 23.8"/><polyline class="a" points="10.32 23.24 10.49 23.07 10.6 23.01 10.76 23.01 10.88 23.07 10.93 23.24 10.93 23.8"/><polyline class="a" points="13.11 23.18 13.06 23.07 12.89 23.01 12.72 23.01 12.56 23.07 12.5 23.18 12.56 23.29 12.67 23.35 12.95 23.4 13.06 23.46 13.11 23.57 13.11 23.64 13.06 23.75 12.89 23.79 12.72 23.79 12.56 23.75 12.5 23.64"/><polygon class="a" points="13.56 23.68 13.5 23.75 13.56 23.79 13.62 23.75 13.56 23.68"/><line class="a" x1="14.06" y1="22.63" x2="14.06" y2="23.79"/><polygon class="a" points="14.56 23.68 14.52 23.75 14.56 23.79 14.63 23.75 14.56 23.68"/><line class="a" x1="15.07" y1="23.01" x2="15.07" y2="23.79"/><polyline class="a" points="15.07 23.24 15.24 23.07 15.35 23.01 15.52 23.01 15.63 23.07 15.69 23.24 15.69 23.8"/><polyline class="a" points="15.69 23.24 15.85 23.07 15.96 23.01 16.13 23.01 16.24 23.07 16.3 23.24 16.3 23.8"/><polygon class="a" points="16.8 23.68 16.74 23.75 16.8 23.79 16.87 23.75 16.8 23.68"/><line class="b" x1="44.61" y1="2.68" x2="45.59" y2="1.71"/><line class="b" x1="45.59" y1="2.68" x2="44.61" y2="1.71"/><line class="b" x1="32.58" y1="2.23" x2="33.56" y2="1.25"/><line class="b" x1="33.56" y1="2.23" x2="32.58" y2="1.25"/><line class="c" x1="36.97" y1="4.55" x2="37.95" y2="3.57"/><line class="c" x1="37.95" y1="4.55" x2="36.97" y2="3.57"/><line class="c" x1="42.29" y1="4.3" x2="43.27" y2="3.32"/><line class="c" x1="43.27" y1="4.3" x2="42.29" y2="3.32"/><line class="d" x1="38.16" y1="3.58" x2="38.16" y2="4.97"/><path class="d" d="M37.46,4.28h1.38l0-.18-.06-.16a.69.69,0,0,0-1.27.16l0,.18,0,.18a.69.69,0,0,0,1.27.16l.06-.16,0-.18"/></svg>