<svg xmlns="http://www.w3.org/2000/svg" viewBox="0 0 139.68 52.43"><defs><style>.a,.b,.c,.d,.e,.f{fill:none;stroke-linecap:round;stroke-linejoin:round;stroke-width:0.21px;}.a{stroke:#000;}.b{stroke:#ffbf00;}.c{stroke:red;}.d{stroke:#00b800;}.e{stroke:blue;}.f{stroke:#00bfff;}</style></defs><title>cad1.6</title><polyline class="a" points="16.75 33.75 16.86 33.69 17.03 33.52 17.03 34.71"/><line class="a" x1="16.88" y1="36.42" x2="16.88" y2="40.12"/><line class="a" x1="3.01" y1="31.81" x2="138.57" y2="31.81"/><line class="a" x1="16.88" y1="36.42" x2="138.57" y2="36.42"/><line class="a" x1="16.88" y1="40.12" x2="138.57" y2="40.12"/><line class="a" x1="16.88" y1="45.66" x2="138.57" y2="45.66"/><polyline class="a" points="16.88 51.2 138.57 51.2 138.57 31.81"/><polyline class="a" points="20.09 37.71 20.57 37.71 20.32 38.06 20.44 38.06 20.54 38.11 20.57 38.15 20.62 38.28 20.62 38.37 20.57 38.5 20.49 38.59 20.35 38.63 20.22 38.63 20.09 38.59 20.05 38.54 20 38.45"/><polygon class="a" points="20.97 38.54 20.93 38.59 20.97 38.63 21.01 38.59 20.97 38.54"/><path class="a" d="M21.84,37.71h-.43l0,.4,0,0c.77-.32.62,1,0,.48l0-.08"/><polygon class="a" points="16.21 42.98 16.27 43.1 16.45 43.19 16.76 43.23 16.94 43.23 17.25 43.19 17.42 43.1 17.48 42.98 17.48 42.9 17.42 42.76 17.25 42.68 16.94 42.64 16.76 42.64 16.45 42.68 16.27 42.76 16.21 42.9 16.21 42.98"/><polyline class="a" points="16.45 50.49 16.39 50.41 16.21 50.28 17.48 50.28"/><polygon class="a" points="16.21 49.56 16.27 49.69 16.39 49.73 16.52 49.73 16.64 49.69 16.7 49.6 16.76 49.43 16.82 49.31 16.94 49.22 17.07 49.18 17.25 49.18 17.36 49.22 17.42 49.27 17.48 49.39 17.48 49.56 17.42 49.69 17.36 49.73 17.25 49.77 17.07 49.77 16.94 49.73 16.82 49.65 16.76 49.51 16.7 49.34 16.64 49.27 16.52 49.22 16.39 49.22 16.27 49.27 16.21 49.39 16.21 49.56"/><polyline class="a" points="16.64 48.38 16.82 48.42 16.94 48.5 17 48.63 17 48.67 16.94 48.79 16.82 48.88 16.64 48.93 16.58 48.93 16.39 48.88 16.27 48.79 16.21 48.67 16.21 48.63 16.27 48.5 16.39 48.42 16.64 48.38 16.94 48.38 17.25 48.42 17.42 48.5 17.48 48.63 17.48 48.71 17.42 48.84 17.31 48.88"/><polygon class="a" points="17.36 48 17.42 48.04 17.48 48 17.42 47.95 17.36 48"/><polyline class="a" points="16.39 47.11 16.27 47.15 16.21 47.28 16.21 47.37 16.27 47.49 16.45 47.57 16.76 47.61 17.07 47.61 17.31 47.57 17.42 47.49 17.48 47.37 17.48 47.32 17.42 47.19 17.31 47.11 17.13 47.06 17.07 47.06 16.88 47.11 16.76 47.19 16.7 47.32 16.7 47.37 16.76 47.49 16.88 47.57 17.07 47.61"/><polyline class="a" points="16.45 46.68 16.39 46.6 16.21 46.47 17.48 46.47"/><line class="a" x1="16.88" y1="31.81" x2="16.88" y2="9.63"/><line class="a" x1="135.11" y1="31.81" x2="135.11" y2="12.72"/><line class="a" x1="101.56" y1="31.81" x2="101.56" y2="11.88"/><line class="a" x1="90.39" y1="31.81" x2="90.39" y2="11.73"/><line class="b" x1="34.38" y1="9.36" x2="34.39" y2="9.35"/><line class="b" x1="34.8" y1="9.36" x2="34.81" y2="9.35"/><line class="b" x1="35.2" y1="9.36" x2="35.22" y2="9.34"/><line class="b" x1="35.62" y1="9.36" x2="35.65" y2="9.32"/><line class="b" x1="36.02" y1="9.36" x2="36.06" y2="9.32"/><line class="b" x1="36.42" y1="9.36" x2="36.47" y2="9.32"/><line class="b" x1="36.84" y1="9.36" x2="36.87" y2="9.32"/><line class="b" x1="37.24" y1="9.36" x2="37.3" y2="9.3"/><line class="b" x1="37.66" y1="9.36" x2="37.73" y2="9.28"/><line class="b" x1="38.06" y1="9.36" x2="38.14" y2="9.28"/><line class="b" x1="38.46" y1="9.36" x2="38.51" y2="9.32"/><line class="b" x1="40.1" y1="7.74" x2="40.77" y2="7.07"/><line class="b" x1="39.68" y1="8.56" x2="41.42" y2="6.82"/><polyline class="b" points="39.28 9.36 41.81 6.83 41.94 6.71"/><polyline class="b" points="39.69 9.36 41.81 7.24 42.26 6.79"/><line class="b" x1="40.1" y1="9.36" x2="42.59" y2="6.87"/><polyline class="b" points="40.51 9.36 41.81 8.05 42.92 6.96"/><line class="b" x1="40.92" y1="9.36" x2="43.25" y2="7.03"/><line class="b" x1="41.81" y1="8.87" x2="43.58" y2="7.12"/><line class="b" x1="42.22" y1="8.87" x2="43.9" y2="7.19"/><line class="b" x1="42.63" y1="8.87" x2="44.23" y2="7.27"/><line class="b" x1="43.04" y1="8.87" x2="44.51" y2="7.4"/><line class="b" x1="43.44" y1="8.87" x2="44.8" y2="7.52"/><line class="b" x1="43.85" y1="8.87" x2="45.08" y2="7.64"/><line class="b" x1="44.26" y1="8.87" x2="45.36" y2="7.77"/><line class="b" x1="44.66" y1="8.87" x2="45.64" y2="7.9"/><line class="b" x1="45.08" y1="8.87" x2="45.93" y2="8.02"/><line class="b" x1="45.48" y1="8.87" x2="46.22" y2="8.14"/><line class="b" x1="45.89" y1="8.87" x2="46.5" y2="8.26"/><line class="b" x1="46.3" y1="8.87" x2="46.78" y2="8.4"/><line class="b" x1="46.7" y1="8.87" x2="47.07" y2="8.52"/><line class="b" x1="47.12" y1="8.87" x2="47.35" y2="8.64"/><line class="b" x1="47.52" y1="8.87" x2="47.63" y2="8.76"/><line class="a" x1="34.08" y1="31.81" x2="34.08" y2="9.36"/><line class="a" x1="30.16" y1="31.81" x2="30.16" y2="6.79"/><line class="a" x1="24.99" y1="31.81" x2="24.99" y2="8.29"/><line class="c" x1="38.86" y1="9.37" x2="38.88" y2="9.36"/><line class="c" x1="39.23" y1="9.42" x2="39.28" y2="9.37"/><line class="c" x1="47.93" y1="8.87" x2="47.94" y2="8.87"/><line class="c" x1="48.22" y1="9" x2="48.34" y2="8.87"/><line class="c" x1="48.5" y1="9.12" x2="48.74" y2="8.87"/><line class="c" x1="48.79" y1="9.24" x2="49.16" y2="8.87"/><line class="c" x1="49.09" y1="9.35" x2="49.56" y2="8.87"/><line class="c" x1="49.37" y1="9.47" x2="49.98" y2="8.87"/><line class="c" x1="49.66" y1="9.59" x2="50.38" y2="8.87"/><line class="c" x1="49.95" y1="9.72" x2="50.78" y2="8.87"/><line class="c" x1="50.23" y1="9.83" x2="51.2" y2="8.87"/><line class="c" x1="50.53" y1="9.95" x2="51.6" y2="8.87"/><line class="c" x1="50.82" y1="10.07" x2="52.02" y2="8.87"/><line class="c" x1="51.1" y1="10.19" x2="52.42" y2="8.87"/><line class="c" x1="51.39" y1="10.3" x2="52.82" y2="8.87"/><line class="c" x1="51.69" y1="10.42" x2="53.24" y2="8.87"/><line class="c" x1="51.97" y1="10.55" x2="53.64" y2="8.87"/><line class="c" x1="52.26" y1="10.67" x2="54.06" y2="8.87"/><line class="c" x1="52.65" y1="10.68" x2="54.46" y2="8.87"/><line class="c" x1="53.07" y1="10.68" x2="54.86" y2="8.87"/><line class="c" x1="53.47" y1="10.68" x2="55.28" y2="8.87"/><line class="c" x1="53.88" y1="10.68" x2="55.68" y2="8.87"/><line class="c" x1="54.29" y1="10.68" x2="56.09" y2="8.87"/><line class="c" x1="54.69" y1="10.68" x2="56.5" y2="8.87"/><line class="c" x1="55.11" y1="10.68" x2="56.9" y2="8.87"/><line class="c" x1="55.51" y1="10.68" x2="57.32" y2="8.87"/><line class="c" x1="55.91" y1="10.68" x2="57.72" y2="8.87"/><line class="c" x1="56.33" y1="10.68" x2="58.13" y2="8.87"/><line class="c" x1="56.73" y1="10.68" x2="58.54" y2="8.87"/><line class="c" x1="57.15" y1="10.68" x2="58.94" y2="8.87"/><line class="c" x1="57.55" y1="10.68" x2="59.36" y2="8.87"/><line class="c" x1="57.95" y1="10.68" x2="59.76" y2="8.87"/><line class="c" x1="58.37" y1="10.68" x2="60.17" y2="8.87"/><line class="c" x1="58.77" y1="10.68" x2="60.58" y2="8.87"/><line class="c" x1="59.18" y1="10.68" x2="60.98" y2="8.87"/><line class="c" x1="59.59" y1="10.68" x2="61.39" y2="8.87"/><line class="c" x1="59.99" y1="10.68" x2="61.8" y2="8.87"/><line class="c" x1="60.39" y1="10.68" x2="62.21" y2="8.87"/><line class="c" x1="60.8" y1="10.69" x2="62.62" y2="8.87"/><line class="c" x1="61.2" y1="10.71" x2="63.03" y2="8.87"/><line class="c" x1="61.59" y1="10.71" x2="63.43" y2="8.87"/><line class="c" x1="61.99" y1="10.72" x2="63.84" y2="8.87"/><line class="c" x1="62.4" y1="10.73" x2="64.25" y2="8.87"/><line class="c" x1="62.79" y1="10.74" x2="64.66" y2="8.87"/><line class="c" x1="63.19" y1="10.74" x2="65.07" y2="8.87"/><line class="c" x1="63.59" y1="10.75" x2="65.47" y2="8.87"/><line class="c" x1="64" y1="10.77" x2="65.88" y2="8.87"/><line class="c" x1="64.39" y1="10.77" x2="66.29" y2="8.87"/><line class="c" x1="64.79" y1="10.78" x2="66.69" y2="8.87"/><line class="c" x1="65.19" y1="10.79" x2="67.11" y2="8.87"/><line class="c" x1="65.58" y1="10.8" x2="67.51" y2="8.87"/><line class="c" x1="65.99" y1="10.8" x2="67.83" y2="8.97"/><line class="c" x1="66.39" y1="10.82" x2="68.03" y2="9.17"/><line class="c" x1="66.78" y1="10.83" x2="68.25" y2="9.36"/><line class="c" x1="67.18" y1="10.83" x2="68.66" y2="9.36"/><line class="c" x1="67.59" y1="10.84" x2="69.06" y2="9.36"/><line class="c" x1="67.99" y1="10.85" x2="69.47" y2="9.36"/><line class="c" x1="68.37" y1="10.88" x2="69.88" y2="9.36"/><line class="c" x1="68.76" y1="10.89" x2="70.28" y2="9.36"/><line class="c" x1="69.14" y1="10.91" x2="70.7" y2="9.36"/><line class="c" x1="69.53" y1="10.94" x2="71.1" y2="9.36"/><line class="c" x1="69.91" y1="10.96" x2="71.51" y2="9.36"/><line class="c" x1="70.3" y1="10.99" x2="71.92" y2="9.36"/><line class="c" x1="70.68" y1="11.01" x2="72.32" y2="9.36"/><line class="c" x1="71.07" y1="11.03" x2="72.74" y2="9.36"/><line class="c" x1="71.45" y1="11.06" x2="73.14" y2="9.36"/><line class="c" x1="71.84" y1="11.08" x2="73.55" y2="9.36"/><line class="c" x1="72.21" y1="11.1" x2="73.96" y2="9.36"/><line class="c" x1="72.61" y1="11.12" x2="74.36" y2="9.36"/><line class="c" x1="72.98" y1="11.14" x2="74.78" y2="9.36"/><line class="c" x1="73.37" y1="11.17" x2="75.27" y2="9.28"/><line class="c" x1="73.75" y1="11.19" x2="76.62" y2="8.34"/><line class="c" x1="74.14" y1="11.22" x2="77.97" y2="7.38"/><line class="c" x1="74.52" y1="11.24" x2="78.71" y2="7.05"/><line class="c" x1="74.91" y1="11.27" x2="79.13" y2="7.05"/><line class="c" x1="75.29" y1="11.29" x2="79.53" y2="7.05"/><line class="c" x1="75.68" y1="11.3" x2="79.93" y2="7.05"/><line class="c" x1="76.07" y1="11.33" x2="80.35" y2="7.05"/><line class="c" x1="76.45" y1="11.35" x2="80.75" y2="7.05"/><line class="c" x1="76.84" y1="11.38" x2="80.98" y2="7.24"/><line class="c" x1="77.22" y1="11.4" x2="81.19" y2="7.43"/><line class="c" x1="77.61" y1="11.43" x2="81.39" y2="7.64"/><line class="c" x1="77.99" y1="11.45" x2="81.59" y2="7.85"/><line class="c" x1="78.38" y1="11.47" x2="81.8" y2="8.04"/><line class="c" x1="78.77" y1="11.49" x2="82.01" y2="8.25"/><line class="c" x1="79.18" y1="11.49" x2="82.2" y2="8.46"/><line class="c" x1="79.57" y1="11.5" x2="82.41" y2="8.67"/><line class="c" x1="79.97" y1="11.51" x2="82.62" y2="8.86"/><line class="c" x1="80.37" y1="11.51" x2="82.81" y2="9.07"/><line class="c" x1="80.78" y1="11.52" x2="83.02" y2="9.28"/><line class="c" x1="81.17" y1="11.54" x2="83.23" y2="9.47"/><line class="c" x1="81.57" y1="11.55" x2="83.44" y2="9.68"/><line class="c" x1="81.97" y1="11.55" x2="83.63" y2="9.89"/><line class="c" x1="82.36" y1="11.56" x2="83.84" y2="10.08"/><line class="c" x1="82.77" y1="11.57" x2="84.05" y2="10.29"/><line class="c" x1="83.17" y1="11.57" x2="84.24" y2="10.5"/><line class="c" x1="83.57" y1="11.58" x2="84.45" y2="10.71"/><line class="c" x1="83.96" y1="11.6" x2="84.66" y2="10.9"/><line class="c" x1="84.37" y1="11.6" x2="84.85" y2="11.11"/><line class="c" x1="84.77" y1="11.61" x2="85.06" y2="11.32"/><line class="c" x1="85.17" y1="11.62" x2="85.27" y2="11.51"/><polyline class="a" points="16.88 9.63 20.35 9.17 24.99 8.29 30.16 6.79 32.21 7.27 34.08 9.36"/><polyline class="b" points="34.08 9.36 35.74 9.32 36.8 9.32 38.07 9.26 38.8 9.36"/><polyline class="b" points="39.28 9.36 40.35 7.21 41.81 6.67 44.24 7.27 47.41 8.67"/><polyline class="c" points="47.91 8.87 52.28 10.68 60.14 10.68 68.03 10.85 78.5 11.47 85.37 11.62"/><polyline class="a" points="90.39 11.73 101.56 11.88 113.97 12.39 135.11 12.72"/><polyline class="a" points="24.65 33.81 24.65 33.75 24.71 33.64 24.76 33.58 24.88 33.52 25.1 33.52 25.21 33.58 25.27 33.64 25.33 33.75 25.33 33.86 25.27 33.98 25.16 34.15 24.59 34.71 25.38 34.71"/><polyline class="a" points="29.88 33.52 30.5 33.52 30.16 33.98 30.33 33.98 30.44 34.03 30.5 34.09 30.56 34.26 30.56 34.37 30.5 34.54 30.39 34.66 30.22 34.71 30.05 34.71 29.88 34.66 29.82 34.6 29.75 34.49"/><polyline class="a" points="34.22 33.52 33.65 34.32 34.51 34.32"/><line class="a" x1="34.22" y1="33.52" x2="34.22" y2="34.71"/><polyline class="a" points="89.48 33.75 89.59 33.69 89.76 33.52 89.76 34.71"/><polyline class="a" points="91.02 33.52 90.45 34.32 91.3 34.32"/><line class="a" x1="91.02" y1="33.52" x2="91.02" y2="34.71"/><polyline class="a" points="100.68 33.75 100.79 33.69 100.96 33.52 100.96 34.71"/><polyline class="a" points="102.33 33.52 101.75 33.52 101.71 34.03 101.75 33.98 101.93 33.92 102.1 33.92 102.27 33.98 102.39 34.09 102.44 34.26 102.44 34.37 102.39 34.54 102.27 34.66 102.1 34.71 101.93 34.71 101.75 34.66 101.71 34.6 101.64 34.49"/><polyline class="a" points="134.23 33.75 134.35 33.69 134.52 33.52 134.52 34.71"/><polyline class="a" points="135.94 33.69 135.89 33.58 135.72 33.52 135.59 33.52 135.42 33.58 135.31 33.75 135.25 34.03 135.25 34.32 135.31 34.54 135.42 34.66 135.59 34.71 135.66 34.71 135.83 34.66 135.94 34.54 136 34.37 136 34.32 135.94 34.15 135.83 34.03 135.66 33.98 135.59 33.98 135.42 34.03 135.31 34.15 135.25 34.32"/><line class="a" x1="24.99" y1="36.42" x2="24.99" y2="40.12"/><line class="a" x1="30.16" y1="36.42" x2="30.16" y2="40.12"/><line class="a" x1="34.08" y1="36.42" x2="34.08" y2="40.12"/><line class="a" x1="90.39" y1="36.42" x2="90.39" y2="40.12"/><line class="a" x1="101.56" y1="36.42" x2="101.56" y2="40.12"/><line class="a" x1="135.11" y1="36.42" x2="135.11" y2="40.12"/><polyline class="a" points="26.48 37.92 26.48 37.89 26.53 37.79 26.57 37.75 26.66 37.7 26.84 37.7 26.92 37.75 26.97 37.79 27.01 37.89 27.01 37.97 26.97 38.06 26.88 38.19 26.44 38.63 27.05 38.63"/><polygon class="a" points="27.41 38.54 27.36 38.59 27.41 38.63 27.45 38.59 27.41 38.54"/><polyline class="a" points="27.8 37.92 27.8 37.89 27.85 37.79 27.89 37.75 27.98 37.7 28.15 37.7 28.24 37.75 28.29 37.79 28.32 37.89 28.32 37.97 28.29 38.06 28.2 38.19 27.76 38.63 28.37 38.63"/><polyline class="a" points="31.07 37.89 31.16 37.84 31.29 37.71 31.29 38.63"/><polygon class="a" points="31.92 38.54 31.87 38.59 31.92 38.63 31.95 38.59 31.92 38.54"/><polyline class="a" points="32.44 38.63 32.88 37.71 32.26 37.71"/><polyline class="a" points="95.39 37.71 94.95 38.32 95.61 38.32"/><line class="a" x1="95.39" y1="37.71" x2="95.39" y2="38.63"/><polygon class="a" points="95.92 38.54 95.87 38.59 95.92 38.63 95.95 38.59 95.92 38.54"/><polygon class="a" points="96.49 37.71 96.36 37.76 96.31 37.84 96.31 37.93 96.36 38.01 96.44 38.06 96.61 38.11 96.75 38.15 96.83 38.23 96.88 38.32 96.88 38.45 96.83 38.54 96.8 38.59 96.66 38.63 96.49 38.63 96.36 38.59 96.31 38.54 96.27 38.45 96.27 38.32 96.31 38.23 96.39 38.15 96.53 38.11 96.71 38.06 96.8 38.01 96.83 37.93 96.83 37.84 96.8 37.76 96.66 37.71 96.49 37.71"/><polyline class="a" points="116.67 37.89 116.76 37.84 116.89 37.71 116.89 38.63"/><polyline class="a" points="117.86 37.71 117.42 38.32 118.08 38.32"/><line class="a" x1="117.86" y1="37.71" x2="117.86" y2="38.63"/><polygon class="a" points="118.39 38.54 118.34 38.59 118.39 38.63 118.42 38.59 118.39 38.54"/><path class="a" d="M119.27,37.71h-.44l0,.4,0,0c.77-.32.62,1,0,.48l0-.08"/><polyline class="a" points="24.38 43.77 24.38 43.31 24.87 43.57 24.87 43.45 24.93 43.36 24.99 43.31 25.18 43.27 25.3 43.27 25.47 43.31 25.59 43.4 25.65 43.53 25.65 43.65 25.59 43.77 25.53 43.82 25.42 43.86"/><polygon class="a" points="25.53 42.93 25.59 42.98 25.65 42.93 25.59 42.9 25.53 42.93"/><path class="a" d="M24.38,42.09v.42l.55,0-.06,0c-.42-.74,1.27-.6.66,0l-.11,0"/><path class="a" d="M29.56,43.36v.42l.54,0-.06,0c-.42-.75,1.29-.6.67,0l-.12,0"/><polygon class="a" points="30.71 42.93 30.77 42.98 30.83 42.93 30.77 42.9 30.71 42.93"/><polygon class="a" points="29.56 42.38 29.62 42.51 29.74 42.55 29.85 42.55 29.97 42.51 30.04 42.43 30.1 42.26 30.16 42.13 30.28 42.04 30.4 42 30.59 42 30.71 42.04 30.77 42.09 30.83 42.21 30.83 42.38 30.77 42.51 30.71 42.55 30.59 42.59 30.4 42.59 30.28 42.55 30.16 42.47 30.1 42.35 30.04 42.17 29.97 42.09 29.85 42.04 29.74 42.04 29.62 42.09 29.56 42.21 29.56 42.38"/><polyline class="a" points="34.75 43.69 33.48 43.27 33.48 43.86"/><polygon class="a" points="34.63 42.93 34.69 42.98 34.75 42.93 34.69 42.9 34.63 42.93"/><path class="a" d="M33.48,42.09v.42l.55,0-.06,0c-.42-.75,1.27-.6.66,0l-.12,0"/><polyline class="a" points="89.79 44.18 89.79 43.71 90.28 43.97 90.28 43.85 90.33 43.76 90.39 43.71 90.57 43.68 90.69 43.68 90.88 43.71 91 43.8 91.06 43.92 91.06 44.06 91 44.18 90.94 44.23 90.81 44.26"/><polyline class="a" points="90.03 43.3 89.97 43.21 89.79 43.08 91.06 43.08"/><polygon class="a" points="90.94 42.49 91 42.53 91.06 42.49 91 42.44 90.94 42.49"/><polyline class="a" points="90.22 41.6 90.39 41.64 90.51 41.72 90.57 41.86 90.57 41.89 90.51 42.03 90.39 42.11 90.22 42.15 90.15 42.15 89.97 42.11 89.85 42.03 89.79 41.89 89.79 41.86 89.85 41.72 89.97 41.64 90.22 41.6 90.51 41.6 90.81 41.64 91 41.72 91.06 41.86 91.06 41.94 91 42.06 90.87 42.11"/><polyline class="a" points="100.96 44.2 100.96 43.74 101.44 43.99 101.44 43.86 101.5 43.77 101.56 43.74 101.74 43.69 101.87 43.69 102.05 43.74 102.17 43.82 102.22 43.95 102.22 44.08 102.17 44.2 102.11 44.24 101.99 44.29"/><polyline class="a" points="101.13 42.9 101.01 42.93 100.96 43.05 100.96 43.14 101.01 43.27 101.19 43.36 101.5 43.4 101.81 43.4 102.05 43.36 102.17 43.27 102.22 43.14 102.22 43.1 102.17 42.98 102.05 42.9 101.87 42.85 101.81 42.85 101.62 42.9 101.5 42.98 101.44 43.1 101.44 43.14 101.5 43.27 101.62 43.36 101.81 43.4"/><polygon class="a" points="102.11 42.51 102.17 42.55 102.22 42.51 102.17 42.47 102.11 42.51"/><polyline class="a" points="102.22 42 100.96 41.58 100.96 42.17"/><polyline class="a" points="134.51 43.77 134.51 44.2 135.06 44.24 135 44.2 134.94 44.08 134.94 43.95 135 43.82 135.12 43.74 135.3 43.69 135.41 43.69 135.59 43.74 135.72 43.82 135.78 43.95 135.78 44.08 135.72 44.2 135.66 44.24 135.53 44.29"/><polyline class="a" points="134.75 43.31 134.69 43.23 134.51 43.1 135.78 43.1"/><polygon class="a" points="135.66 42.51 135.72 42.55 135.78 42.51 135.72 42.47 135.66 42.51"/><polyline class="a" points="134.81 42.13 134.75 42.13 134.63 42.09 134.57 42.04 134.51 41.95 134.51 41.8 134.57 41.71 134.63 41.66 134.75 41.63 134.87 41.63 135 41.66 135.18 41.75 135.78 42.17 135.78 41.58"/><polyline class="a" points="24.59 50.2 24.54 50.11 24.36 49.98 25.63 49.98"/><polyline class="a" points="24.77 48.93 24.95 48.97 25.08 49.05 25.14 49.18 25.14 49.22 25.08 49.34 24.95 49.43 24.77 49.48 24.71 49.48 24.54 49.43 24.42 49.34 24.36 49.22 24.36 49.18 24.42 49.05 24.54 48.97 24.77 48.93 25.08 48.93 25.38 48.97 25.57 49.05 25.63 49.18 25.63 49.27 25.57 49.39 25.44 49.43"/><path class="a" d="M24.36,48.38l.06.12.17.09.3,0h.18l.31,0,.18-.09.06-.12v-.08l-.06-.13a1.39,1.39,0,0,0-1.15,0l-.06.13Z"/><polygon class="a" points="25.5 47.7 25.57 47.74 25.63 47.7 25.57 47.66 25.5 47.7"/><polyline class="a" points="24.65 47.32 24.59 47.32 24.48 47.28 24.42 47.23 24.36 47.15 24.36 46.97 24.42 46.9 24.48 46.85 24.59 46.81 24.71 46.81 24.83 46.85 25.02 46.94 25.63 47.37 25.63 46.77"/><polyline class="a" points="29.77 50.61 29.7 50.53 29.52 50.41 30.79 50.41"/><polyline class="a" points="29.95 49.34 30.12 49.39 30.24 49.48 30.3 49.6 30.3 49.65 30.24 49.77 30.12 49.86 29.95 49.89 29.89 49.89 29.7 49.86 29.58 49.77 29.52 49.65 29.52 49.6 29.58 49.48 29.7 49.39 29.95 49.34 30.24 49.34 30.55 49.39 30.73 49.48 30.79 49.6 30.79 49.69 30.73 49.82 30.61 49.86"/><polygon class="a" points="29.52 48.79 29.58 48.93 29.77 49.01 30.07 49.05 30.24 49.05 30.55 49.01 30.73 48.93 30.79 48.79 30.79 48.71 30.73 48.59 30.55 48.5 30.24 48.46 30.07 48.46 29.77 48.5 29.58 48.59 29.52 48.71 29.52 48.79"/><polygon class="a" points="30.67 48.12 30.73 48.16 30.79 48.12 30.73 48.09 30.67 48.12"/><polygon class="a" points="29.52 47.57 29.58 47.7 29.7 47.74 29.83 47.74 29.95 47.7 30.01 47.61 30.07 47.45 30.12 47.32 30.24 47.23 30.36 47.19 30.55 47.19 30.67 47.23 30.73 47.28 30.79 47.4 30.79 47.57 30.73 47.7 30.67 47.74 30.55 47.78 30.36 47.78 30.24 47.74 30.12 47.66 30.07 47.52 30.01 47.37 29.95 47.28 29.83 47.23 29.7 47.23 29.58 47.28 29.52 47.4 29.52 47.57"/><path class="a" d="M29.52,46.42v.43l.55,0-.06,0c-.41-.76,1.27-.61.66,0l-.12,0"/><polyline class="a" points="33.69 50.61 33.63 50.53 33.44 50.41 34.71 50.41"/><path class="a" d="M33.44,49.69l.06.13.12,0h.12l.12,0,.06-.08.06-.17.06-.13.12-.09.12,0h.17l.12,0,.06,0,.06.12v.17l-.06.13c-.92.39-.45-.74-1.15-.43l-.06.12Z"/><polyline class="a" points="33.87 48.5 34.05 48.55 34.17 48.63 34.23 48.76 34.23 48.79 34.17 48.93 34.05 49.01 33.87 49.05 33.81 49.05 33.63 49.01 33.5 48.93 33.44 48.79 33.44 48.76 33.5 48.63 33.63 48.55 33.87 48.5 34.17 48.5 34.47 48.55 34.65 48.63 34.71 48.76 34.71 48.84 34.65 48.97 34.53 49.01"/><polygon class="a" points="34.59 48.12 34.65 48.16 34.71 48.12 34.65 48.09 34.59 48.12"/><polyline class="a" points="34.71 47.61 33.44 47.19 33.44 47.78"/><polyline class="a" points="33.44 46.85 33.44 46.39 33.93 46.64 33.93 46.51 33.99 46.42 34.05 46.39 34.24 46.34 34.35 46.34 34.53 46.39 34.65 46.47 34.71 46.6 34.71 46.73 34.65 46.85 34.59 46.9 34.47 46.94"/><polyline class="a" points="90 50.49 89.93 50.41 89.75 50.28 91.02 50.28"/><polygon class="a" points="89.75 49.56 89.81 49.69 89.93 49.73 90.06 49.73 90.18 49.69 90.24 49.6 90.3 49.43 90.36 49.31 90.48 49.22 90.59 49.18 90.78 49.18 90.9 49.22 90.96 49.27 91.02 49.39 91.02 49.56 90.96 49.69 90.9 49.73 90.78 49.77 90.59 49.77 90.48 49.73 90.36 49.65 90.3 49.51 90.24 49.34 90.18 49.27 90.06 49.22 89.93 49.22 89.81 49.27 89.75 49.39 89.75 49.56"/><path class="a" d="M89.75,48.71l.06.13.12,0h.12l.12,0,.06-.08.06-.17.06-.12.12-.09.11,0h.18l.12,0,.06,0,.06.13v.16l-.06.13c-.88.42-.45-.72-1.15-.43l-.06.13Z"/><polygon class="a" points="90.9 48 90.96 48.04 91.02 48 90.96 47.95 90.9 48"/><polyline class="a" points="91.02 47.49 89.75 47.06 89.75 47.66"/><polyline class="a" points="90 46.68 89.93 46.6 89.75 46.47 91.02 46.47"/><polyline class="a" points="101.17 50.64 101.11 50.55 100.92 50.43 102.19 50.43"/><polygon class="a" points="100.92 49.71 100.99 49.83 101.11 49.88 101.23 49.88 101.34 49.83 101.4 49.75 101.46 49.58 101.52 49.45 101.64 49.37 101.77 49.33 101.95 49.33 102.07 49.37 102.13 49.42 102.19 49.54 102.19 49.71 102.13 49.83 102.07 49.88 101.95 49.92 101.77 49.92 101.64 49.88 101.52 49.8 101.46 49.66 101.4 49.5 101.34 49.42 101.23 49.37 101.11 49.37 100.99 49.42 100.92 49.54 100.92 49.71"/><path class="a" d="M100.93,48.87,101,49l.12,0h.12l.11,0,.06-.08.06-.17.06-.12.12-.09.12,0H102l.12,0,.06,0,.06.13v.17l-.06.12c-.91.42-.46-.71-1.15-.43l-.06.13Z"/><polygon class="a" points="102.07 48.15 102.13 48.18 102.19 48.15 102.13 48.1 102.07 48.15"/><polyline class="a" points="102.19 47.63 100.92 47.21 100.92 47.8"/><polyline class="a" points="100.92 46.53 101.77 46.96 101.77 46.33"/><line class="a" x1="100.93" y1="46.53" x2="102.2" y2="46.53"/><polyline class="a" points="134.72 50.61 134.65 50.53 134.47 50.41 135.74 50.41"/><polygon class="a" points="134.47 49.69 134.53 49.82 134.65 49.86 134.78 49.86 134.9 49.82 134.96 49.73 135.02 49.56 135.08 49.43 135.2 49.34 135.33 49.31 135.51 49.31 135.63 49.34 135.68 49.39 135.74 49.51 135.74 49.69 135.68 49.82 135.63 49.86 135.51 49.89 135.33 49.89 135.2 49.86 135.08 49.77 135.02 49.65 134.96 49.48 134.9 49.39 134.78 49.34 134.65 49.34 134.53 49.39 134.47 49.51 134.47 49.69"/><polygon class="a" points="134.47 48.84 134.53 48.97 134.65 49.01 134.78 49.01 134.9 48.97 134.96 48.88 135.02 48.71 135.08 48.59 135.2 48.5 135.33 48.46 135.51 48.46 135.63 48.5 135.68 48.55 135.74 48.67 135.74 48.84 135.68 48.97 135.63 49.01 135.51 49.05 135.33 49.05 135.2 49.01 135.08 48.93 135.02 48.79 134.96 48.63 134.9 48.55 134.78 48.5 134.65 48.5 134.53 48.55 134.47 48.67 134.47 48.84"/><polygon class="a" points="135.63 48.12 135.68 48.16 135.74 48.12 135.68 48.09 135.63 48.12"/><polyline class="a" points="134.78 47.74 134.72 47.74 134.59 47.7 134.53 47.66 134.47 47.57 134.47 47.4 134.53 47.32 134.59 47.28 134.72 47.23 134.84 47.23 134.96 47.28 135.14 47.37 135.74 47.78 135.74 47.19"/><polyline class="a" points="135.74 46.77 134.47 46.34 134.47 46.94"/><polyline class="a" points="34.08 9.36 41 9.36 41.49 8.87 67.73 8.87 68.22 9.36 75.15 9.36"/><polyline class="a" points="80.81 7.05 78.45 7.05 75.15 9.36"/><line class="a" x1="80.81" y1="7.05" x2="85.37" y2="11.62"/><line class="a" x1="41" y1="9.36" x2="41" y2="31.81"/><line class="a" x1="41.49" y1="8.87" x2="41.49" y2="31.81"/><line class="a" x1="67.73" y1="8.87" x2="67.73" y2="31.81"/><line class="a" x1="68.22" y1="9.36" x2="68.22" y2="31.81"/><line class="a" x1="54.61" y1="8.87" x2="54.61" y2="31.81"/><line class="a" x1="75.15" y1="9.36" x2="75.15" y2="31.81"/><line class="a" x1="78.46" y1="7.05" x2="78.46" y2="31.81"/><line class="a" x1="80.81" y1="7.05" x2="80.81" y2="31.81"/><line class="a" x1="85.37" y1="11.62" x2="85.37" y2="31.81"/><polyline class="a" points="40.76 33.52 40.18 33.52 40.12 34.03 40.18 33.98 40.35 33.92 40.52 33.92 40.7 33.98 40.81 34.09 40.87 34.26 40.87 34.37 40.81 34.54 40.7 34.66 40.52 34.71 40.35 34.71 40.18 34.66 40.12 34.6 40.07 34.49"/><polyline class="a" points="42.32 33.69 42.26 33.58 42.09 33.52 41.98 33.52 41.81 33.58 41.7 33.75 41.64 34.03 41.64 34.32 41.7 34.54 41.81 34.66 41.98 34.71 42.04 34.71 42.21 34.66 42.32 34.54 42.38 34.37 42.38 34.32 42.32 34.15 42.21 34.03 42.04 33.98 41.98 33.98 41.81 34.03 41.7 34.15 41.64 34.32"/><polyline class="a" points="54.45 34.71 55.01 33.52 54.21 33.52"/><polygon class="a" points="67.21 33.52 67.04 33.58 66.98 33.69 66.98 33.81 67.04 33.92 67.15 33.98 67.38 34.03 67.55 34.09 67.66 34.2 67.72 34.32 67.72 34.49 67.66 34.6 67.6 34.66 67.43 34.71 67.21 34.71 67.04 34.66 66.98 34.6 66.92 34.49 66.92 34.32 66.98 34.2 67.09 34.09 67.26 34.03 67.49 33.98 67.6 33.92 67.66 33.81 67.66 33.69 67.6 33.58 67.43 33.52 67.21 33.52"/><polyline class="a" points="69 33.92 68.95 34.09 68.83 34.2 68.66 34.26 68.61 34.26 68.44 34.2 68.32 34.09 68.27 33.92 68.27 33.86 68.32 33.69 68.44 33.58 68.61 33.52 68.66 33.52 68.83 33.58 68.95 33.69 69 33.92 69 34.2 68.95 34.49 68.83 34.66 68.66 34.71 68.55 34.71 68.38 34.66 68.32 34.54"/><polyline class="a" points="74.27 33.75 74.39 33.69 74.56 33.52 74.56 34.71"/><polygon class="a" points="75.57 33.52 75.4 33.58 75.29 33.75 75.23 34.03 75.23 34.2 75.29 34.49 75.4 34.66 75.57 34.71 75.69 34.71 75.87 34.66 75.98 34.49 76.04 34.2 76.04 34.03 75.98 33.75 75.87 33.58 75.69 33.52 75.57 33.52"/><polyline class="a" points="77.84 33.75 77.95 33.69 78.13 33.52 78.13 34.71"/><polyline class="a" points="78.98 33.75 79.1 33.69 79.27 33.52 79.27 34.71"/><polyline class="a" points="80.04 33.75 80.15 33.69 80.32 33.52 80.32 34.71"/><polyline class="a" points="81.07 33.81 81.07 33.75 81.12 33.64 81.18 33.58 81.29 33.52 81.52 33.52 81.63 33.58 81.69 33.64 81.75 33.75 81.75 33.86 81.69 33.98 81.58 34.15 81.01 34.71 81.8 34.71"/><polyline class="a" points="84.52 33.75 84.63 33.69 84.81 33.52 84.81 34.71"/><polyline class="a" points="85.61 33.52 86.23 33.52 85.89 33.98 86.06 33.98 86.17 34.03 86.23 34.09 86.3 34.26 86.3 34.37 86.23 34.54 86.12 34.66 85.95 34.71 85.78 34.71 85.61 34.66 85.55 34.6 85.49 34.49"/><line class="a" x1="41" y1="36.42" x2="41" y2="40.12"/><line class="a" x1="41.49" y1="36.42" x2="41.49" y2="40.12"/><line class="a" x1="54.61" y1="36.42" x2="54.61" y2="40.12"/><line class="a" x1="67.73" y1="36.42" x2="67.73" y2="40.12"/><line class="a" x1="68.22" y1="36.42" x2="68.22" y2="40.12"/><line class="a" x1="75.15" y1="36.42" x2="75.15" y2="40.12"/><line class="a" x1="78.46" y1="36.42" x2="78.46" y2="40.12"/><line class="a" x1="80.81" y1="36.42" x2="80.81" y2="40.12"/><line class="a" x1="85.37" y1="36.42" x2="85.37" y2="40.12"/><polyline class="a" points="37.18 37.71 37.67 37.71 37.4 38.06 37.53 38.06 37.62 38.11 37.67 38.15 37.7 38.28 37.7 38.37 37.67 38.5 37.57 38.59 37.45 38.63 37.31 38.63 37.18 38.59 37.13 38.54 37.09 38.45"/><polygon class="a" points="41.31 38.12 41.26 38.17 41.31 38.22 41.34 38.17 41.31 38.12"/><path class="a" d="M47.39,37.71h-.44l0,.4,0,0c.77-.32.62,1,0,.48l0-.08"/><polygon class="a" points="47.83 38.54 47.78 38.59 47.83 38.63 47.87 38.59 47.83 38.54"/><polyline class="a" points="48.35 38.63 48.79 37.71 48.17 37.71"/><path class="a" d="M60.71,37.71h-.44l0,.4,0,0c.77-.32.62,1,0,.48l0-.08"/><polygon class="a" points="61.15 38.54 61.1 38.59 61.15 38.63 61.19 38.59 61.15 38.54"/><polyline class="a" points="61.68 38.63 62.12 37.71 61.51 37.71"/><polygon class="a" points="68.04 38.12 68 38.17 68.04 38.22 68.09 38.17 68.04 38.12"/><polyline class="a" points="71.36 37.71 71.84 37.71 71.58 38.06 71.71 38.06 71.8 38.11 71.84 38.15 71.89 38.28 71.89 38.37 71.84 38.5 71.75 38.59 71.62 38.63 71.49 38.63 71.36 38.59 71.31 38.54 71.28 38.45"/><polyline class="a" points="75.85 37.89 75.94 37.84 76.07 37.71 76.07 38.63"/><rect class="a" x="76.65" y="38.55" width="0.07" height="0.07" transform="translate(-4.83 65.52) rotate(-45)"/><polyline class="a" points="77.48 37.71 77.04 38.32 77.7 38.32"/><line class="a" x1="77.48" y1="37.71" x2="77.48" y2="38.63"/><polyline class="a" points="79.35 37.89 79.43 37.84 79.57 37.71 79.57 38.63"/><polyline class="a" points="82.66 37.92 82.66 37.89 82.7 37.79 82.75 37.75 82.84 37.7 83.01 37.7 83.1 37.75 83.14 37.79 83.19 37.89 83.19 37.97 83.14 38.06 83.06 38.19 82.62 38.63 83.23 38.63"/><polyline class="a" points="86.73 37.92 86.73 37.89 86.78 37.79 86.82 37.75 86.91 37.7 87.09 37.7 87.17 37.75 87.22 37.79 87.26 37.89 87.26 37.97 87.22 38.06 87.13 38.19 86.69 38.63 87.31 38.63"/><polygon class="a" points="87.66 38.54 87.61 38.59 87.66 38.63 87.7 38.59 87.66 38.54"/><polyline class="a" points="88.05 37.92 88.05 37.89 88.1 37.79 88.14 37.75 88.22 37.7 88.41 37.7 88.49 37.75 88.54 37.79 88.58 37.89 88.58 37.97 88.54 38.06 88.44 38.19 88 38.63 88.63 38.63"/><polyline class="a" points="40.01 44.23 39.95 44.14 39.77 44.01 41.04 44.01"/><polygon class="a" points="39.77 43.25 39.83 43.37 40.01 43.46 40.3 43.51 40.49 43.51 40.79 43.46 40.98 43.37 41.04 43.25 41.04 43.16 40.98 43.04 40.79 42.96 40.49 42.91 40.3 42.91 40.01 42.96 39.83 43.04 39.77 43.16 39.77 43.25"/><polygon class="a" points="40.92 42.58 40.98 42.62 41.04 42.58 40.98 42.53 40.92 42.58"/><polyline class="a" points="39.77 41.72 39.77 42.15 40.3 42.19 40.24 42.15 40.2 42.03 40.2 41.89 40.24 41.77 40.37 41.69 40.55 41.64 40.67 41.64 40.85 41.69 40.98 41.77 41.04 41.89 41.04 42.03 40.98 42.15 40.92 42.19 40.79 42.24"/><polyline class="a" points="41.69 44.23 41.62 44.14 41.44 44.01 42.71 44.01"/><polygon class="a" points="41.44 43.25 41.5 43.37 41.69 43.46 41.98 43.51 42.16 43.51 42.47 43.46 42.65 43.37 42.71 43.25 42.71 43.16 42.65 43.04 42.47 42.96 42.16 42.91 41.98 42.91 41.69 42.96 41.5 43.04 41.44 43.16 41.44 43.25"/><polygon class="a" points="42.59 42.58 42.65 42.62 42.71 42.58 42.65 42.53 42.59 42.58"/><polyline class="a" points="42.71 42.06 41.44 41.64 41.44 42.24"/><polyline class="a" points="54.24 44.23 54.18 44.14 53.99 44.01 55.27 44.01"/><polyline class="a" points="54.18 42.96 54.06 42.99 53.99 43.13 53.99 43.21 54.06 43.34 54.24 43.42 54.54 43.46 54.84 43.46 55.08 43.42 55.2 43.34 55.27 43.21 55.27 43.16 55.2 43.04 55.08 42.96 54.9 42.91 54.84 42.91 54.65 42.96 54.54 43.04 54.48 43.16 54.48 43.21 54.54 43.34 54.65 43.42 54.84 43.46"/><polygon class="a" points="55.14 42.58 55.2 42.62 55.27 42.58 55.2 42.53 55.14 42.58"/><polyline class="a" points="53.99 42.15 53.99 41.69 54.48 41.94 54.48 41.81 54.55 41.72 54.59 41.69 54.78 41.64 54.9 41.64 55.08 41.69 55.2 41.77 55.27 41.9 55.27 42.03 55.2 42.15 55.14 42.19 55.02 42.24"/><polyline class="a" points="66.77 43.62 66.71 43.62 66.58 43.57 66.52 43.53 66.46 43.45 66.46 43.27 66.52 43.19 66.58 43.14 66.71 43.1 66.83 43.1 66.95 43.14 67.12 43.23 67.73 43.65 67.73 43.05"/><polyline class="a" points="66.77 42.76 66.71 42.76 66.58 42.72 66.52 42.68 66.46 42.59 66.46 42.43 66.52 42.35 66.58 42.3 66.71 42.26 66.83 42.26 66.95 42.3 67.12 42.38 67.73 42.81 67.73 42.21"/><polyline class="a" points="68.55 44.24 68.49 44.24 68.37 44.2 68.31 44.17 68.25 44.08 68.25 43.91 68.31 43.82 68.37 43.77 68.49 43.74 68.61 43.74 68.72 43.77 68.91 43.86 69.52 44.29 69.52 43.69"/><polyline class="a" points="68.55 43.4 68.49 43.4 68.37 43.36 68.31 43.31 68.25 43.23 68.25 43.05 68.31 42.98 68.37 42.93 68.49 42.9 68.61 42.9 68.72 42.93 68.91 43.02 69.52 43.45 69.52 42.85"/><polygon class="a" points="69.39 42.51 69.45 42.55 69.52 42.51 69.45 42.47 69.39 42.51"/><polyline class="a" points="68.55 42.13 68.49 42.13 68.37 42.09 68.31 42.04 68.25 41.95 68.25 41.8 68.31 41.71 68.37 41.66 68.49 41.63 68.61 41.63 68.72 41.66 68.91 41.75 69.52 42.17 69.52 41.58"/><polyline class="a" points="74.83 44.24 74.77 44.24 74.64 44.2 74.58 44.17 74.52 44.08 74.52 43.91 74.58 43.82 74.64 43.77 74.77 43.74 74.89 43.74 75.01 43.77 75.19 43.86 75.79 44.29 75.79 43.69"/><polyline class="a" points="74.52 42.93 74.52 43.36 75.07 43.4 75.01 43.36 74.95 43.23 74.95 43.1 75.01 42.98 75.13 42.9 75.32 42.85 75.44 42.85 75.61 42.9 75.73 42.98 75.79 43.1 75.79 43.23 75.73 43.36 75.67 43.4 75.55 43.45"/><polygon class="a" points="75.67 42.51 75.73 42.55 75.79 42.51 75.73 42.47 75.67 42.51"/><polyline class="a" points="74.83 42.13 74.77 42.13 74.64 42.09 74.58 42.04 74.52 41.95 74.52 41.8 74.58 41.71 74.64 41.66 74.77 41.63 74.89 41.63 75.01 41.66 75.19 41.75 75.79 42.17 75.79 41.58"/><polyline class="a" points="78.14 44.24 78.08 44.24 77.95 44.2 77.89 44.17 77.83 44.08 77.83 43.91 77.89 43.82 77.95 43.77 78.08 43.74 78.2 43.74 78.32 43.77 78.5 43.86 79.1 44.29 79.1 43.69"/><polyline class="a" points="78.02 42.9 77.89 42.93 77.83 43.05 77.83 43.14 77.89 43.27 78.08 43.36 78.38 43.4 78.69 43.4 78.92 43.36 79.04 43.27 79.1 43.14 79.1 43.1 79.04 42.98 78.92 42.9 78.74 42.85 78.69 42.85 78.5 42.9 78.38 42.98 78.32 43.1 78.32 43.14 78.38 43.27 78.5 43.36 78.69 43.4"/><polygon class="a" points="78.98 42.51 79.04 42.55 79.1 42.51 79.04 42.47 78.98 42.51"/><polyline class="a" points="79.1 42 77.83 41.58 77.83 42.17"/><polyline class="a" points="80.5 44.24 80.43 44.24 80.31 44.2 80.25 44.17 80.19 44.08 80.19 43.91 80.25 43.82 80.31 43.77 80.43 43.74 80.56 43.74 80.68 43.77 80.85 43.86 81.46 44.29 81.46 43.69"/><polyline class="a" points="81.46 43.27 80.19 42.85 80.19 43.45"/><polygon class="a" points="81.34 42.51 81.4 42.55 81.46 42.51 81.4 42.47 81.34 42.51"/><polyline class="a" points="81.46 42 80.19 41.58 80.19 42.17"/><polyline class="a" points="85.06 44.24 85 44.24 84.88 44.2 84.82 44.17 84.76 44.08 84.76 43.91 84.82 43.82 84.88 43.77 85 43.74 85.12 43.74 85.25 43.77 85.42 43.86 86.03 44.29 86.03 43.69"/><polyline class="a" points="85.18 42.9 85.36 42.93 85.48 43.02 85.54 43.14 85.54 43.19 85.48 43.31 85.36 43.4 85.18 43.45 85.12 43.45 84.94 43.4 84.82 43.31 84.76 43.19 84.76 43.14 84.82 43.02 84.94 42.93 85.18 42.9 85.48 42.9 85.78 42.93 85.97 43.02 86.03 43.14 86.03 43.23 85.97 43.36 85.84 43.4"/><polygon class="a" points="85.9 42.51 85.97 42.55 86.03 42.51 85.97 42.47 85.9 42.51"/><polyline class="a" points="86.03 42 84.76 41.58 84.76 42.17"/><polyline class="a" points="40.18 50.61 40.12 50.53 39.94 50.41 41.21 50.41"/><path class="a" d="M39.94,49.69l.06.13.12,0h.12l.12,0,.06-.08.06-.17.06-.13.12-.09.12,0H41l.12,0,.06,0,.06.12v.17l-.06.13c-.92.39-.45-.74-1.15-.43l-.06.12Z"/><polyline class="a" points="40.37 48.5 40.55 48.55 40.67 48.63 40.73 48.76 40.73 48.79 40.67 48.93 40.55 49.01 40.37 49.05 40.3 49.05 40.12 49.01 40 48.93 39.94 48.79 39.94 48.76 40 48.63 40.12 48.55 40.37 48.5 40.67 48.5 40.96 48.55 41.15 48.63 41.21 48.76 41.21 48.84 41.15 48.97 41.02 49.01"/><polygon class="a" points="41.09 48.12 41.15 48.16 41.21 48.12 41.15 48.09 41.09 48.12"/><polyline class="a" points="41.21 47.61 39.94 47.19 39.94 47.78"/><polyline class="a" points="39.94 46.85 39.94 46.39 40.43 46.64 40.43 46.51 40.49 46.42 40.55 46.39 40.73 46.34 40.85 46.34 41.03 46.39 41.15 46.47 41.21 46.6 41.21 46.73 41.15 46.85 41.09 46.9 40.97 46.94"/><polyline class="a" points="42.06 50.64 42 50.55 41.82 50.43 43.09 50.43"/><polygon class="a" points="41.82 49.71 41.88 49.83 42 49.88 42.12 49.88 42.25 49.83 42.31 49.75 42.37 49.58 42.43 49.45 42.55 49.37 42.66 49.33 42.84 49.33 42.97 49.37 43.03 49.42 43.09 49.54 43.09 49.71 43.03 49.83 42.97 49.88 42.84 49.92 42.66 49.92 42.55 49.88 42.43 49.8 42.37 49.66 42.31 49.5 42.25 49.42 42.12 49.37 42 49.37 41.88 49.42 41.82 49.54 41.82 49.71"/><polyline class="a" points="42.25 48.52 42.43 48.56 42.55 48.65 42.61 48.78 42.61 48.82 42.55 48.95 42.43 49.03 42.25 49.08 42.19 49.08 42 49.03 41.88 48.95 41.82 48.82 41.82 48.78 41.88 48.65 42 48.56 42.25 48.52 42.55 48.52 42.84 48.56 43.03 48.65 43.09 48.78 43.09 48.87 43.03 48.99 42.91 49.03"/><polygon class="a" points="42.97 48.15 43.03 48.18 43.09 48.15 43.03 48.1 42.97 48.15"/><polyline class="a" points="42.25 47.26 42.43 47.29 42.55 47.38 42.61 47.51 42.61 47.55 42.55 47.68 42.43 47.77 42.25 47.8 42.19 47.8 42 47.77 41.88 47.68 41.82 47.55 41.82 47.51 41.88 47.38 42 47.29 42.25 47.26 42.55 47.26 42.84 47.29 43.03 47.38 43.09 47.51 43.09 47.6 43.03 47.72 42.91 47.77"/><polyline class="a" points="41.82 46.53 42.66 46.96 42.66 46.33"/><line class="a" x1="41.82" y1="46.53" x2="43.09" y2="46.53"/><polyline class="a" points="54.29 50.64 54.23 50.55 54.06 50.43 55.33 50.43"/><polygon class="a" points="54.06 49.71 54.12 49.83 54.23 49.88 54.35 49.88 54.47 49.83 54.53 49.75 54.59 49.58 54.65 49.45 54.78 49.37 54.9 49.33 55.08 49.33 55.2 49.37 55.27 49.42 55.33 49.54 55.33 49.71 55.27 49.83 55.2 49.88 55.08 49.92 54.9 49.92 54.78 49.88 54.65 49.8 54.59 49.66 54.53 49.5 54.47 49.42 54.35 49.37 54.23 49.37 54.12 49.42 54.06 49.54 54.06 49.71"/><polyline class="a" points="54.47 48.52 54.65 48.56 54.78 48.65 54.84 48.78 54.84 48.82 54.78 48.95 54.65 49.03 54.47 49.08 54.41 49.08 54.23 49.03 54.12 48.95 54.06 48.82 54.06 48.78 54.12 48.65 54.23 48.56 54.47 48.52 54.78 48.52 55.08 48.56 55.27 48.65 55.33 48.78 55.33 48.87 55.27 48.99 55.14 49.03"/><polygon class="a" points="55.2 48.15 55.27 48.18 55.33 48.15 55.27 48.1 55.2 48.15"/><polyline class="a" points="54.47 47.26 54.65 47.29 54.78 47.38 54.84 47.51 54.84 47.55 54.78 47.68 54.65 47.77 54.47 47.8 54.41 47.8 54.23 47.77 54.12 47.68 54.06 47.55 54.06 47.51 54.12 47.38 54.23 47.29 54.47 47.26 54.78 47.26 55.08 47.29 55.27 47.38 55.33 47.51 55.33 47.6 55.27 47.72 55.14 47.77"/><polyline class="a" points="54.06 46.53 54.9 46.96 54.9 46.33"/><line class="a" x1="54.06" y1="46.53" x2="55.33" y2="46.53"/><polyline class="a" points="66.9 50.64 66.84 50.55 66.67 50.43 67.94 50.43"/><polygon class="a" points="66.67 49.71 66.73 49.83 66.84 49.88 66.96 49.88 67.09 49.83 67.15 49.75 67.21 49.58 67.27 49.45 67.39 49.37 67.51 49.33 67.7 49.33 67.82 49.37 67.88 49.42 67.94 49.54 67.94 49.71 67.88 49.83 67.82 49.88 67.7 49.92 67.51 49.92 67.39 49.88 67.27 49.8 67.21 49.66 67.15 49.5 67.09 49.42 66.96 49.37 66.84 49.37 66.73 49.42 66.67 49.54 66.67 49.71"/><polyline class="a" points="67.09 48.52 67.27 48.56 67.39 48.65 67.45 48.78 67.45 48.82 67.39 48.95 67.27 49.03 67.09 49.08 67.03 49.08 66.84 49.03 66.73 48.95 66.67 48.82 66.67 48.78 66.73 48.65 66.84 48.56 67.09 48.52 67.39 48.52 67.7 48.56 67.88 48.65 67.94 48.78 67.94 48.87 67.88 48.99 67.76 49.03"/><polygon class="a" points="67.82 48.15 67.88 48.18 67.94 48.15 67.88 48.1 67.82 48.15"/><polyline class="a" points="67.09 47.26 67.27 47.29 67.39 47.38 67.45 47.51 67.45 47.55 67.39 47.68 67.27 47.77 67.09 47.8 67.03 47.8 66.84 47.77 66.73 47.68 66.67 47.55 66.67 47.51 66.73 47.38 66.84 47.29 67.09 47.26 67.39 47.26 67.7 47.29 67.88 47.38 67.94 47.51 67.94 47.6 67.88 47.72 67.76 47.77"/><polyline class="a" points="66.67 46.53 67.51 46.96 67.51 46.33"/><line class="a" x1="66.67" y1="46.53" x2="67.94" y2="46.53"/><polyline class="a" points="68.66 50.61 68.6 50.53 68.42 50.41 69.69 50.41"/><path class="a" d="M68.42,49.69l.06.13.12,0h.12l.12,0,.06-.08.06-.17.06-.13.11-.09.12,0h.18l.12,0,.06,0,.06.12v.17l-.06.13c-.92.4-.45-.74-1.15-.43l-.06.12Z"/><polyline class="a" points="68.84 48.5 69.03 48.55 69.14 48.63 69.2 48.76 69.2 48.79 69.14 48.93 69.03 49.01 68.84 49.05 68.78 49.05 68.6 49.01 68.48 48.93 68.42 48.79 68.42 48.76 68.48 48.63 68.6 48.55 68.84 48.5 69.14 48.5 69.44 48.55 69.63 48.63 69.69 48.76 69.69 48.84 69.63 48.97 69.5 49.01"/><polygon class="a" points="69.56 48.12 69.63 48.16 69.69 48.12 69.63 48.09 69.56 48.12"/><polyline class="a" points="69.69 47.61 68.42 47.19 68.42 47.78"/><path class="a" d="M68.42,46.85v-.46l.49.26v-.13c.23-.41,1.14,0,.66.39l-.12,0"/><polyline class="a" points="74.83 50.61 74.77 50.53 74.58 50.41 75.85 50.41"/><path class="a" d="M74.58,49.69l.06.13.12,0h.12l.12,0,.06-.08,0-.17.06-.13.12-.09.12,0h.18l.12,0,.06,0,.06.12v.17l-.06.13c-1,.39-.43-.74-1.15-.43l-.06.12Z"/><polyline class="a" points="75.01 48.5 75.18 48.55 75.3 48.63 75.36 48.76 75.36 48.79 75.3 48.93 75.18 49.01 75.01 49.05 74.95 49.05 74.77 49.01 74.64 48.93 74.58 48.79 74.58 48.76 74.64 48.63 74.77 48.55 75.01 48.5 75.3 48.5 75.61 48.55 75.79 48.63 75.85 48.76 75.85 48.84 75.79 48.97 75.67 49.01"/><polygon class="a" points="75.73 48.12 75.79 48.16 75.85 48.12 75.79 48.09 75.73 48.12"/><polyline class="a" points="75.85 47.61 74.58 47.19 74.58 47.78"/><polyline class="a" points="74.58 46.85 74.58 46.39 75.07 46.64 75.07 46.51 75.12 46.42 75.18 46.39 75.37 46.34 75.49 46.34 75.67 46.39 75.79 46.47 75.85 46.6 75.85 46.73 75.79 46.85 75.73 46.9 75.61 46.94"/><polyline class="a" points="78.14 50.61 78.08 50.53 77.89 50.41 79.16 50.41"/><polyline class="a" points="78.32 49.34 78.49 49.39 78.61 49.48 78.67 49.6 78.67 49.65 78.61 49.77 78.49 49.86 78.32 49.89 78.26 49.89 78.08 49.86 77.95 49.77 77.89 49.65 77.89 49.6 77.95 49.48 78.08 49.39 78.32 49.34 78.61 49.34 78.92 49.39 79.1 49.48 79.16 49.6 79.16 49.69 79.1 49.82 78.98 49.86"/><polygon class="a" points="77.89 48.79 77.95 48.93 78.14 49.01 78.43 49.05 78.61 49.05 78.92 49.01 79.1 48.93 79.16 48.79 79.16 48.71 79.1 48.59 78.92 48.5 78.61 48.46 78.43 48.46 78.14 48.5 77.95 48.59 77.89 48.71 77.89 48.79"/><polygon class="a" points="79.04 48.12 79.1 48.16 79.16 48.12 79.1 48.09 79.04 48.12"/><polyline class="a" points="79.16 47.61 77.89 47.19 77.89 47.78"/><polyline class="a" points="77.89 46.85 77.89 46.39 78.37 46.64 78.37 46.51 78.43 46.42 78.49 46.39 78.67 46.34 78.8 46.34 78.98 46.39 79.1 46.47 79.16 46.6 79.16 46.73 79.1 46.85 79.04 46.9 78.92 46.94"/><polyline class="a" points="80.48 50.61 80.43 50.53 80.25 50.41 81.52 50.41"/><polyline class="a" points="80.67 49.34 80.85 49.39 80.97 49.48 81.03 49.6 81.03 49.65 80.97 49.77 80.85 49.86 80.67 49.89 80.6 49.89 80.43 49.86 80.31 49.77 80.25 49.65 80.25 49.6 80.31 49.48 80.43 49.39 80.67 49.34 80.97 49.34 81.28 49.39 81.46 49.48 81.52 49.6 81.52 49.69 81.46 49.82 81.34 49.86"/><polygon class="a" points="80.25 48.79 80.31 48.93 80.48 49.01 80.79 49.05 80.97 49.05 81.28 49.01 81.46 48.93 81.52 48.79 81.52 48.71 81.46 48.59 81.28 48.5 80.97 48.46 80.79 48.46 80.48 48.5 80.31 48.59 80.25 48.71 80.25 48.79"/><polygon class="a" points="81.4 48.12 81.46 48.16 81.52 48.12 81.46 48.09 81.4 48.12"/><polyline class="a" points="81.52 47.61 80.25 47.19 80.25 47.78"/><polyline class="a" points="80.25 46.85 80.25 46.39 80.73 46.64 80.73 46.51 80.79 46.42 80.85 46.39 81.03 46.34 81.15 46.34 81.34 46.39 81.46 46.47 81.52 46.6 81.52 46.73 81.46 46.85 81.4 46.9 81.28 46.94"/><polyline class="a" points="85.05 50.61 84.99 50.53 84.82 50.41 86.09 50.41"/><path class="a" d="M84.82,49.69l.06.13.11,0h.12l.12,0,.06-.08.06-.17.06-.13.12-.09.12,0h.18l.12,0,.06,0,.06.12v.17l-.06.13c-.94.39-.47-.74-1.15-.43l-.06.12Z"/><polygon class="a" points="84.82 48.84 84.88 48.97 84.99 49.01 85.11 49.01 85.23 48.97 85.29 48.88 85.35 48.71 85.42 48.59 85.54 48.5 85.66 48.46 85.84 48.46 85.97 48.5 86.03 48.55 86.09 48.67 86.09 48.84 86.03 48.97 85.97 49.01 85.84 49.05 85.66 49.05 85.54 49.01 85.42 48.93 85.35 48.79 85.29 48.63 85.23 48.55 85.11 48.5 84.99 48.5 84.88 48.55 84.82 48.67 84.82 48.84"/><polygon class="a" points="85.97 48.12 86.03 48.16 86.09 48.12 86.03 48.09 85.97 48.12"/><polyline class="a" points="86.09 47.61 84.82 47.19 84.82 47.78"/><path class="a" d="M84.82,46.42v.43l.54,0-.06,0c-.42-.75,1.29-.61.67,0l-.12,0"/><polygon class="a" points="2.02 42.43 2.02 41.5 2.34 41.5 2.46 41.55 2.56 41.64 2.6 41.74 2.64 41.86 2.64 42.09 2.6 42.21 2.56 42.31 2.46 42.4 2.34 42.43 2.02 42.43"/><line class="a" x1="2.95" y1="41.5" x2="2.95" y2="42.43"/><polyline class="a" points="3.88 41.64 3.79 41.55 3.66 41.5 3.49 41.5 3.35 41.55 3.27 41.64 3.27 41.74 3.3 41.82 3.35 41.86 3.44 41.91 3.71 41.99 3.79 42.04 3.84 42.09 3.88 42.17 3.88 42.31 3.79 42.4 3.66 42.43 3.49 42.43 3.35 42.4 3.27 42.31"/><line class="a" x1="4.37" y1="41.5" x2="4.37" y2="42.43"/><line class="a" x1="4.06" y1="41.5" x2="4.67" y2="41.5"/><polygon class="a" points="4.94 42.35 4.89 42.4 4.94 42.43 4.99 42.4 4.94 42.35"/><polyline class="a" points="6.27 42.43 6.27 41.5 6.66 41.5 6.8 41.55 6.84 41.6 6.88 41.69 6.88 41.82 6.84 41.91 6.8 41.96 6.66 41.99 6.27 41.99"/><polyline class="a" points="7.2 42.43 7.2 41.5 7.59 41.5 7.72 41.55 7.77 41.6 7.81 41.69 7.81 41.77 7.77 41.86 7.72 41.91 7.59 41.96 7.2 41.96"/><line class="a" x1="7.5" y1="41.96" x2="7.81" y2="42.43"/><path class="a" d="M8.35,41.5l-.1,0-.09.08,0,.1,0,.12v.23l0,.12,0,.1.09.08.1,0h.17l.09,0a.56.56,0,0,0,0-.84l-.09,0Z"/><polyline class="a" points="9.71 41.74 9.67 41.64 9.58 41.55 9.49 41.5 9.31 41.5 9.23 41.55 9.14 41.64 9.09 41.74 9.06 41.86 9.06 42.09 9.09 42.21 9.14 42.31 9.23 42.4 9.31 42.43 9.49 42.43 9.58 42.4 9.67 42.31 9.71 42.21 9.71 42.09 9.49 42.09"/><polyline class="a" points="10.02 42.43 10.02 41.5 10.42 41.5 10.56 41.55 10.59 41.6 10.64 41.69 10.64 41.77 10.59 41.86 10.56 41.91 10.42 41.96 10.02 41.96"/><line class="a" x1="10.34" y1="41.96" x2="10.64" y2="42.43"/><polyline class="a" points="10.95 42.43 10.95 41.5 11.52 41.5"/><line class="a" x1="10.95" y1="41.96" x2="11.3" y2="41.96"/><line class="a" x1="10.95" y1="42.43" x2="11.52" y2="42.43"/><polyline class="a" points="12.37 41.64 12.28 41.55 12.14 41.5 11.96 41.5 11.84 41.55 11.74 41.64 11.74 41.74 11.79 41.82 11.84 41.86 11.93 41.91 12.19 41.99 12.28 42.04 12.32 42.09 12.37 42.17 12.37 42.31 12.28 42.4 12.14 42.43 11.96 42.43 11.84 42.4 11.74 42.31"/><polyline class="a" points="13.24 41.64 13.16 41.55 13.02 41.5 12.85 41.5 12.72 41.55 12.63 41.64 12.63 41.74 12.67 41.82 12.72 41.86 12.8 41.91 13.07 41.99 13.16 42.04 13.21 42.09 13.24 42.17 13.24 42.31 13.16 42.4 13.02 42.43 12.85 42.43 12.72 42.4 12.63 42.31"/><line class="a" x1="13.56" y1="41.5" x2="13.56" y2="42.43"/><polyline class="a" points="13.78 41.5 14.13 42.43 14.49 41.5"/><polyline class="a" points="14.57 42.43 14.93 41.5 15.28 42.43"/><line class="a" x1="14.71" y1="42.13" x2="15.15" y2="42.13"/><path class="a" d="M2.34,43.05l-.1.09a1,1,0,0,0,0,1.25l.1.09"/><line class="a" x1="2.64" y1="43.54" x2="2.64" y2="44.17"/><polyline class="a" points="2.64 43.71 2.78 43.59 2.86 43.54 3 43.54 3.08 43.59 3.13 43.71 3.13 44.17"/><polyline class="a" points="3.13 43.71 3.27 43.59 3.35 43.54 3.49 43.54 3.57 43.59 3.61 43.71 3.61 44.17"/><path class="a" d="M3.93,43.05l.08.09a1,1,0,0,1,0,1.25l-.08.09"/><polygon class="a" points="2.02 37.61 2.02 36.68 2.34 36.68 2.46 36.72 2.56 36.81 2.6 36.9 2.64 37.03 2.64 37.25 2.6 37.39 2.56 37.47 2.46 37.56 2.34 37.61 2.02 37.61"/><line class="a" x1="2.95" y1="36.68" x2="2.95" y2="37.61"/><polyline class="a" points="3.88 36.81 3.79 36.72 3.66 36.68 3.49 36.68 3.35 36.72 3.27 36.81 3.27 36.9 3.3 36.98 3.35 37.03 3.44 37.07 3.71 37.17 3.79 37.2 3.84 37.25 3.88 37.34 3.88 37.47 3.79 37.56 3.66 37.61 3.49 37.61 3.35 37.56 3.27 37.47"/><line class="a" x1="4.37" y1="36.68" x2="4.37" y2="37.61"/><line class="a" x1="4.06" y1="36.68" x2="4.67" y2="36.68"/><rect class="a" x="4.91" y="37.52" width="0.07" height="0.07" transform="translate(-25.11 14.49) rotate(-45)"/><polyline class="a" points="6.27 37.61 6.27 36.68 6.66 36.68 6.8 36.72 6.84 36.77 6.88 36.85 6.88 36.98 6.84 37.07 6.8 37.12 6.66 37.17 6.27 37.17"/><polyline class="a" points="7.07 37.61 7.42 36.68 7.77 37.61"/><line class="a" x1="7.2" y1="37.29" x2="7.64" y2="37.29"/><polyline class="a" points="7.99 37.61 7.99 36.68 8.38 36.68 8.52 36.72 8.57 36.77 8.6 36.85 8.6 36.94 8.57 37.03 8.52 37.07 8.38 37.12 7.99 37.12"/><line class="a" x1="8.3" y1="37.12" x2="8.6" y2="37.61"/><polyline class="a" points="8.87 37.61 9.49 36.68 8.87 36.68"/><line class="a" x1="8.87" y1="37.61" x2="9.5" y2="37.61"/><line class="a" x1="9.8" y1="36.68" x2="9.8" y2="37.61"/><polyline class="a" points="10.02 37.61 10.37 36.68 10.73 37.61"/><line class="a" x1="10.15" y1="37.29" x2="10.59" y2="37.29"/><polyline class="a" points="10.95 36.68 10.95 37.61 11.48 37.61"/><polyline class="a" points="11.71 37.61 11.71 36.68 12.28 36.68"/><line class="a" x1="11.71" y1="37.12" x2="12.06" y2="37.12"/><line class="a" x1="11.71" y1="37.61" x2="12.28" y2="37.61"/><path class="a" d="M2.34,38.22l-.1.1a1,1,0,0,0,0,1.23l.1.09"/><line class="a" x1="2.64" y1="38.71" x2="2.64" y2="39.33"/><polyline class="a" points="2.64 38.89 2.78 38.76 2.86 38.71 3 38.71 3.08 38.76 3.13 38.89 3.13 39.33"/><polyline class="a" points="3.13 38.89 3.27 38.76 3.35 38.71 3.49 38.71 3.57 38.76 3.61 38.89 3.61 39.33"/><path class="a" d="M3.93,38.22l.08.1a1,1,0,0,1,0,1.23l-.08.09"/><polyline class="a" points="2.02 33.73 2.38 34.65 2.73 33.73"/><polyline class="a" points="2.95 34.65 2.95 33.73 3.52 33.73"/><line class="a" x1="2.95" y1="34.16" x2="3.3" y2="34.16"/><line class="a" x1="2.95" y1="34.65" x2="3.52" y2="34.65"/><polyline class="a" points="3.79 34.65 3.79 33.73 4.2 33.73 4.32 33.77 4.37 33.81 4.42 33.91 4.42 33.99 4.37 34.08 4.32 34.13 4.2 34.16 3.79 34.16"/><line class="a" x1="4.1" y1="34.16" x2="4.42" y2="34.65"/><line class="a" x1="4.89" y1="33.72" x2="4.89" y2="34.65"/><line class="a" x1="4.59" y1="33.72" x2="5.21" y2="33.72"/><line class="a" x1="5.43" y1="33.72" x2="5.43" y2="34.65"/><path class="a" d="M6.39,33.94l0-.08-.09-.09-.1,0H6l-.09,0-.1.09,0,.08,0,.13v.22c.07.28.23.45.54.32l.09-.1,0-.09"/><line class="a" x1="6.71" y1="33.72" x2="6.71" y2="34.65"/><path class="a" d="M2.29,47.07l-.09,0-.1.08c-.15.25-.13.69.18.79h.17l.1,0a.59.59,0,0,0,0-.84l-.1,0Z"/><line class="a" x1="2.42" y1="47.83" x2="2.68" y2="48.1"/><polyline class="a" points="3.04 47.07 3.04 47.74 3.08 47.88 3.17 47.96 3.3 48 3.39 48 3.52 47.96 3.61 47.88 3.66 47.74 3.66 47.07"/><path class="a" d="M4.23,47.07l-.09,0-.09.08,0,.1,0,.12v.22l0,.13,0,.1.09.08.09,0h.18l.09,0a.58.58,0,0,0,0-.84l-.09,0Z"/><line class="a" x1="5.16" y1="47.07" x2="5.16" y2="48"/><line class="a" x1="4.85" y1="47.07" x2="5.47" y2="47.07"/><polyline class="a" points="5.56 48 5.92 47.07 6.27 48"/><line class="a" x1="5.7" y1="47.69" x2="6.14" y2="47.69"/><line class="a" x1="7.59" y1="47.07" x2="7.59" y2="48"/><line class="a" x1="7.28" y1="47.07" x2="7.91" y2="47.07"/><polyline class="a" points="8.13 48 8.13 47.07 8.7 47.07"/><line class="a" x1="8.13" y1="47.52" x2="8.48" y2="47.52"/><line class="a" x1="8.13" y1="48" x2="8.7" y2="48"/><polyline class="a" points="8.96 48 8.96 47.07 9.36 47.07 9.49 47.12 9.53 47.17 9.58 47.26 9.58 47.34 9.53 47.43 9.49 47.48 9.36 47.52 8.96 47.52"/><line class="a" x1="9.28" y1="47.52" x2="9.58" y2="48"/><polyline class="a" points="9.89 48 9.89 47.07 10.29 47.07 10.42 47.12 10.46 47.17 10.51 47.26 10.51 47.34 10.46 47.43 10.42 47.48 10.29 47.52 9.89 47.52"/><line class="a" x1="10.2" y1="47.52" x2="10.51" y2="48"/><polyline class="a" points="10.81 48 10.81 47.07 11.39 47.07"/><line class="a" x1="10.81" y1="47.52" x2="11.17" y2="47.52"/><line class="a" x1="10.81" y1="48" x2="11.39" y2="48"/><polyline class="a" points="11.66 48 11.66 47.07 12.28 48 12.28 47.07"/><path class="a" d="M12.85,47.07l-.09,0-.1.08c-.15.25-.13.69.18.79H13l.1,0a.59.59,0,0,0,0-.84l-.1,0Z"/><path class="a" d="M2.34,48.62l-.1.09a1,1,0,0,0,0,1.25l.1.09"/><line class="a" x1="2.64" y1="49.11" x2="2.64" y2="49.73"/><polyline class="a" points="2.64 49.28 2.78 49.16 2.86 49.11 3 49.11 3.08 49.16 3.13 49.28 3.13 49.73"/><polyline class="a" points="3.13 49.28 3.27 49.16 3.35 49.11 3.49 49.11 3.57 49.16 3.61 49.28 3.61 49.73"/><polyline class="a" points="5.34 49.25 5.29 49.16 5.16 49.11 5.02 49.11 4.89 49.16 4.85 49.25 4.89 49.33 4.99 49.38 5.21 49.42 5.29 49.47 5.34 49.55 5.34 49.6 5.29 49.69 5.16 49.73 5.02 49.73 4.89 49.69 4.85 49.6"/><polygon class="a" points="5.7 49.64 5.65 49.69 5.7 49.73 5.73 49.69 5.7 49.64"/><line class="a" x1="6.09" y1="48.81" x2="6.09" y2="49.73"/><polygon class="a" points="6.49 49.64 6.44 49.69 6.49 49.73 6.53 49.69 6.49 49.64"/><line class="a" x1="6.88" y1="49.11" x2="6.88" y2="49.73"/><polyline class="a" points="6.88 49.28 7.01 49.16 7.1 49.11 7.24 49.11 7.32 49.16 7.37 49.28 7.37 49.73"/><polyline class="a" points="7.37 49.28 7.5 49.16 7.59 49.11 7.72 49.11 7.81 49.16 7.86 49.28 7.86 49.73"/><polygon class="a" points="8.25 49.64 8.21 49.69 8.25 49.73 8.3 49.69 8.25 49.64"/><path class="a" d="M8.6,48.62l.1.09A1,1,0,0,1,8.7,50L8.6,50"/><polyline class="c" points="38.8 9.36 39.24 9.42 39.28 9.36"/><line class="b" x1="47.41" y1="8.67" x2="47.91" y2="8.87"/><line class="a" x1="85.37" y1="11.62" x2="90.39" y2="11.73"/><path class="a" d="M40.11,1.4,40,1.31l-.13,0h-.18l-.12,0-.1.08v.09l0,.1,0,0,.09,0,.27.08c.3.14.23.51-.23.44l-.12,0-.1-.1"/><path class="a" d="M41,1.49l0-.08-.08-.09-.09,0h-.18l-.08,0-.09.09,0,.08,0,.13v.22c0,.27.24.47.53.32l.08-.1L41,2"/><polyline class="a" points="41.22 2.19 41.56 1.26 41.92 2.19"/><line class="a" x1="41.34" y1="1.89" x2="41.8" y2="1.89"/><polyline class="a" points="42.02 1.26 42.37 2.19 42.72 1.26"/><path class="a" d="M43.16,1.27l-.09,0L43,1.4c-.15.25-.13.68.18.79h.17l.08,0a.56.56,0,0,0,0-.84l-.08,0Z"/><line class="a" x1="43.91" y1="1.67" x2="44.7" y2="1.67"/><line class="a" x1="43.91" y1="1.94" x2="44.7" y2="1.94"/><path class="a" d="M45.06,1.49v0c.11-.38.83-.16.4.31L45,2.19h.61"/><polygon class="a" points="45.98 2.11 45.95 2.16 45.98 2.19 46.03 2.16 45.98 2.11"/><polyline class="a" points="46.39 1.49 46.39 1.45 46.44 1.35 46.47 1.31 46.56 1.26 46.74 1.26 46.83 1.31 46.88 1.35 46.91 1.45 46.91 1.53 46.88 1.62 46.79 1.75 46.34 2.19 46.96 2.19"/><polyline class="a" points="47.4 2.19 47.84 1.26 47.23 1.26"/><line class="a" x1="49.09" y1="1.58" x2="49.09" y2="2.19"/><polyline class="a" points="49.09 1.75 49.22 1.62 49.31 1.58 49.44 1.58 49.53 1.62 49.57 1.75 49.57 2.19"/><polyline class="a" points="49.57 1.75 49.7 1.62 49.79 1.58 49.92 1.58 50.01 1.62 50.05 1.75 50.05 2.19"/><line class="a" x1="50.89" y1="1.58" x2="50.89" y2="2.51"/><path class="a" d="M50.89,1.7l-.09-.08c-.59-.26-.58.79,0,.54l.09-.1"/><polyline class="a" points="68.7 4.44 68.7 3.51 69.1 3.51 69.23 3.56 69.27 3.61 69.32 3.69 69.32 3.78 69.27 3.87 69.23 3.92 69.1 3.95 68.7 3.95"/><line class="a" x1="69.02" y1="3.95" x2="69.32" y2="4.44"/><line class="a" x1="69.63" y1="3.51" x2="69.63" y2="4.44"/><polyline class="a" points="69.98 4.44 69.98 3.51 70.38 3.51 70.52 3.56 70.55 3.61 70.6 3.69 70.6 3.83 70.55 3.92 70.52 3.95 70.38 4 69.98 4"/><path class="a" d="M71.13,3.51l-.09,0L71,3.65c-.16.21-.12.71.17.79h.18l.09,0a.56.56,0,0,0,0-.84l-.09,0Z"/><polyline class="a" points="71.89 4.44 71.89 3.51 72.28 3.51 72.41 3.56 72.46 3.61 72.51 3.69 72.51 3.78 72.46 3.87 72.41 3.92 72.28 3.95 71.89 3.95"/><line class="a" x1="72.19" y1="3.95" x2="72.51" y2="4.44"/><line class="a" x1="72.98" y1="3.51" x2="72.98" y2="4.44"/><line class="a" x1="72.68" y1="3.51" x2="73.3" y2="3.51"/><path class="a" d="M73.74,3.51l-.09,0-.1.08c-.15.25-.13.68.18.79h.17l.1,0a.59.59,0,0,0,0-.84l-.1,0Z"/><line class="a" x1="74.49" y1="3.92" x2="75.29" y2="3.92"/><line class="a" x1="74.49" y1="4.18" x2="75.29" y2="4.18"/><polyline class="a" points="75.73 3.69 75.82 3.65 75.95 3.51 75.95 4.44"/><polyline class="a" points="76.92 3.51 76.48 4.13 77.15 4.13"/><line class="a" x1="76.92" y1="3.51" x2="76.92" y2="4.44"/><polygon class="a" points="77.45 4.36 77.41 4.4 77.45 4.44 77.5 4.4 77.45 4.36"/><polyline class="a" points="77.89 3.51 78.38 3.51 78.11 3.87 78.25 3.87 78.33 3.92 78.38 3.95 78.43 4.09 78.43 4.18 78.38 4.31 78.3 4.4 78.16 4.44 78.03 4.44 77.89 4.4 77.84 4.36 77.81 4.27"/><polyline class="a" points="78.77 3.51 79.26 3.51 79 3.87 79.13 3.87 79.22 3.92 79.26 3.95 79.31 4.09 79.31 4.18 79.26 4.31 79.18 4.4 79.04 4.44 78.91 4.44 78.77 4.4 78.74 4.36 78.69 4.27"/><line class="a" x1="80.54" y1="3.83" x2="80.54" y2="4.44"/><polyline class="a" points="80.54 4 80.68 3.87 80.76 3.83 80.9 3.83 80.98 3.87 81.03 4 81.03 4.44"/><polyline class="a" points="81.03 4 81.17 3.87 81.25 3.83 81.39 3.83 81.47 3.87 81.52 4 81.52 4.44"/><line class="a" x1="82.36" y1="3.83" x2="82.36" y2="4.76"/><path class="a" d="M82.36,4l-.1-.08c-.59-.26-.58.79,0,.54l.1-.1"/><polyline class="b" points="51.44 2.48 39 2.48 39.01 2.5"/><line class="b" x1="39.02" y1="2.51" x2="39.04" y2="2.52"/><line class="b" x1="39.05" y1="2.55" x2="39.06" y2="2.56"/><line class="b" x1="39.07" y1="2.59" x2="39.08" y2="2.6"/><line class="b" x1="39.1" y1="2.62" x2="39.11" y2="2.63"/><line class="b" x1="39.12" y1="2.66" x2="39.13" y2="2.67"/><line class="b" x1="39.15" y1="2.7" x2="39.15" y2="2.71"/><line class="b" x1="39.17" y1="2.73" x2="39.17" y2="2.74"/><line class="b" x1="39.19" y1="2.77" x2="39.19" y2="2.78"/><line class="b" x1="39.22" y1="2.81" x2="39.22" y2="2.82"/><line class="b" x1="39.24" y1="2.84" x2="39.24" y2="2.85"/><line class="b" x1="39.26" y1="2.88" x2="39.27" y2="2.89"/><line class="b" x1="39.28" y1="2.92" x2="39.29" y2="2.93"/><line class="b" x1="39.3" y1="2.94" x2="39.32" y2="2.96"/><line class="b" x1="39.33" y1="2.98" x2="39.34" y2="3"/><line class="b" x1="39.35" y1="3.01" x2="39.37" y2="3.02"/><line class="b" x1="39.38" y1="3.05" x2="39.39" y2="3.06"/><line class="b" x1="39.4" y1="3.09" x2="39.41" y2="3.1"/><line class="b" x1="39.43" y1="3.12" x2="39.44" y2="3.13"/><line class="b" x1="39.45" y1="3.16" x2="39.46" y2="3.17"/><line class="b" x1="39.48" y1="3.2" x2="39.49" y2="3.21"/><line class="b" x1="39.5" y1="3.23" x2="39.51" y2="3.24"/><line class="b" x1="39.52" y1="3.27" x2="39.54" y2="3.28"/><line class="b" x1="39.55" y1="3.31" x2="39.56" y2="3.32"/><line class="b" x1="39.57" y1="3.34" x2="39.58" y2="3.35"/><line class="b" x1="39.6" y1="3.38" x2="39.61" y2="3.39"/><line class="b" x1="39.62" y1="3.42" x2="39.63" y2="3.43"/><line class="b" x1="39.65" y1="3.44" x2="39.66" y2="3.46"/><line class="b" x1="39.67" y1="3.48" x2="39.68" y2="3.5"/><line class="b" x1="39.69" y1="3.51" x2="39.71" y2="3.53"/><line class="b" x1="39.72" y1="3.55" x2="39.73" y2="3.56"/><line class="b" x1="39.74" y1="3.59" x2="39.74" y2="3.6"/><line class="b" x1="39.77" y1="3.62" x2="39.77" y2="3.64"/><line class="b" x1="39.79" y1="3.66" x2="39.79" y2="3.67"/><line class="b" x1="39.82" y1="3.7" x2="39.82" y2="3.71"/><line class="b" x1="39.84" y1="3.73" x2="39.84" y2="3.75"/><line class="b" x1="39.85" y1="3.77" x2="39.87" y2="3.78"/><line class="b" x1="39.88" y1="3.81" x2="39.89" y2="3.82"/><line class="b" x1="39.9" y1="3.84" x2="39.91" y2="3.86"/><line class="b" x1="39.93" y1="3.88" x2="39.94" y2="3.89"/><line class="b" x1="39.95" y1="3.9" x2="39.96" y2="3.93"/><line class="b" x1="39.98" y1="3.94" x2="39.99" y2="3.97"/><line class="b" x1="40" y1="3.98" x2="40.01" y2="4"/><line class="b" x1="40.02" y1="4.01" x2="40.04" y2="4.03"/><line class="b" x1="40.05" y1="4.05" x2="40.06" y2="4.06"/><line class="b" x1="40.07" y1="4.09" x2="40.09" y2="4.1"/><line class="b" x1="40.1" y1="4.12" x2="40.11" y2="4.14"/><line class="b" x1="40.12" y1="4.16" x2="40.13" y2="4.17"/><line class="b" x1="40.15" y1="4.2" x2="40.16" y2="4.21"/><line class="b" x1="40.17" y1="4.23" x2="40.18" y2="4.25"/><line class="b" x1="40.2" y1="4.27" x2="40.21" y2="4.28"/><line class="b" x1="40.22" y1="4.31" x2="40.23" y2="4.32"/><line class="b" x1="40.24" y1="4.34" x2="40.26" y2="4.36"/><line class="b" x1="40.27" y1="4.38" x2="40.28" y2="4.39"/><line class="b" x1="40.29" y1="4.41" x2="40.31" y2="4.43"/><line class="b" x1="40.32" y1="4.44" x2="40.33" y2="4.47"/><line class="b" x1="40.34" y1="4.48" x2="40.34" y2="4.49"/><line class="b" x1="40.37" y1="4.52" x2="40.37" y2="4.53"/><line class="b" x1="40.39" y1="4.55" x2="40.39" y2="4.56"/><line class="b" x1="40.42" y1="4.59" x2="40.42" y2="4.6"/><line class="b" x1="40.44" y1="4.63" x2="40.44" y2="4.64"/><line class="b" x1="40.46" y1="4.66" x2="40.46" y2="4.67"/><line class="b" x1="40.48" y1="4.7" x2="40.49" y2="4.71"/><line class="b" x1="40.5" y1="4.74" x2="40.51" y2="4.75"/><line class="b" x1="40.53" y1="4.77" x2="40.54" y2="4.78"/><line class="b" x1="40.55" y1="4.81" x2="40.56" y2="4.82"/><line class="b" x1="40.57" y1="4.85" x2="40.59" y2="4.86"/><line class="b" x1="40.6" y1="4.88" x2="40.61" y2="4.89"/><line class="b" x1="40.62" y1="4.91" x2="40.64" y2="4.93"/><line class="b" x1="40.65" y1="4.94" x2="40.66" y2="4.97"/><line class="b" x1="40.67" y1="4.98" x2="40.68" y2="4.99"/><line class="b" x1="40.7" y1="5.02" x2="40.71" y2="5.03"/><line class="b" x1="40.72" y1="5.05" x2="40.73" y2="5.06"/><line class="b" x1="40.75" y1="5.09" x2="40.76" y2="5.1"/><line class="b" x1="40.77" y1="5.13" x2="40.78" y2="5.14"/><line class="b" x1="40.79" y1="5.16" x2="40.81" y2="5.17"/><line class="b" x1="40.82" y1="5.2" x2="40.83" y2="5.21"/><line class="b" x1="40.84" y1="5.24" x2="40.85" y2="5.25"/><line class="b" x1="40.87" y1="5.27" x2="40.88" y2="5.28"/><line class="b" x1="40.89" y1="5.31" x2="40.9" y2="5.32"/><line class="b" x1="40.92" y1="5.35" x2="40.93" y2="5.36"/><line class="b" x1="40.94" y1="5.38" x2="40.95" y2="5.39"/><line class="b" x1="40.96" y1="5.41" x2="40.96" y2="5.43"/><line class="b" x1="40.99" y1="5.44" x2="40.99" y2="5.47"/><line class="b" x1="41.01" y1="5.48" x2="41.01" y2="5.49"/><line class="b" x1="41.04" y1="5.52" x2="41.04" y2="5.53"/><line class="b" x1="41.06" y1="5.55" x2="41.06" y2="5.57"/><line class="b" x1="41.07" y1="5.59" x2="41.09" y2="5.6"/><line class="b" x1="41.1" y1="5.63" x2="41.11" y2="5.64"/><line class="b" x1="41.12" y1="5.66" x2="41.14" y2="5.68"/><line class="b" x1="41.15" y1="5.7" x2="41.16" y2="5.71"/><line class="b" x1="41.17" y1="5.74" x2="41.18" y2="5.75"/><line class="b" x1="41.2" y1="5.77" x2="41.21" y2="5.79"/><line class="b" x1="41.22" y1="5.81" x2="41.23" y2="5.82"/><line class="b" x1="41.25" y1="5.85" x2="41.26" y2="5.86"/><line class="b" x1="41.27" y1="5.87" x2="41.28" y2="5.9"/><line class="b" x1="41.29" y1="5.91" x2="41.31" y2="5.93"/><line class="b" x1="41.32" y1="5.94" x2="41.33" y2="5.97"/><line class="b" x1="41.34" y1="5.98" x2="41.36" y2="5.99"/><line class="b" x1="41.37" y1="6.02" x2="41.38" y2="6.03"/><line class="b" x1="41.39" y1="6.05" x2="41.4" y2="6.07"/><line class="b" x1="41.42" y1="6.09" x2="41.43" y2="6.1"/><line class="b" x1="41.44" y1="6.13" x2="41.45" y2="6.14"/><line class="b" x1="41.47" y1="6.16" x2="41.48" y2="6.18"/><line class="b" x1="41.49" y1="6.2" x2="41.5" y2="6.21"/><line class="b" x1="41.51" y1="6.24" x2="41.53" y2="6.25"/><line class="b" x1="41.54" y1="6.27" x2="41.55" y2="6.29"/><line class="b" x1="41.56" y1="6.31" x2="41.56" y2="6.32"/><line class="b" x1="41.59" y1="6.35" x2="41.59" y2="6.36"/><line class="b" x1="41.61" y1="6.37" x2="41.61" y2="6.4"/><line class="b" x1="41.64" y1="6.41" x2="41.64" y2="6.43"/><line class="b" x1="41.66" y1="6.45" x2="41.66" y2="6.46"/><line class="b" x1="41.69" y1="6.48" x2="41.69" y2="6.49"/><line class="b" x1="41.7" y1="6.52" x2="41.71" y2="6.53"/><line class="b" x1="41.72" y1="6.56" x2="41.73" y2="6.57"/><line class="b" x1="41.75" y1="6.59" x2="41.76" y2="6.6"/><line class="b" x1="41.77" y1="6.63" x2="41.78" y2="6.64"/><line class="b" x1="41.8" y1="6.67" x2="41.81" y2="6.68"/><polyline class="c" points="83.72 4.83 68.09 4.83 68.1 4.86"/><line class="c" x1="68.1" y1="4.88" x2="68.11" y2="4.89"/><line class="c" x1="68.12" y1="4.92" x2="68.12" y2="4.93"/><line class="c" x1="68.14" y1="4.95" x2="68.15" y2="4.97"/><line class="c" x1="68.15" y1="4.99" x2="68.16" y2="5"/><line class="c" x1="68.17" y1="5.03" x2="68.17" y2="5.04"/><line class="c" x1="68.18" y1="5.06" x2="68.2" y2="5.09"/><line class="c" x1="68.2" y1="5.1" x2="68.21" y2="5.13"/><line class="c" x1="68.22" y1="5.15" x2="68.22" y2="5.16"/><line class="c" x1="68.23" y1="5.19" x2="68.24" y2="5.2"/><line class="c" x1="68.25" y1="5.22" x2="68.26" y2="5.24"/><line class="c" x1="68.27" y1="5.26" x2="68.27" y2="5.27"/><line class="c" x1="68.28" y1="5.3" x2="68.28" y2="5.32"/><line class="c" x1="68.29" y1="5.33" x2="68.31" y2="5.36"/><line class="c" x1="68.32" y1="5.38" x2="68.32" y2="5.39"/><line class="c" x1="68.33" y1="5.42" x2="68.33" y2="5.43"/><line class="c" x1="68.34" y1="5.46" x2="68.35" y2="5.47"/><line class="c" x1="68.37" y1="5.49" x2="68.37" y2="5.5"/><line class="c" x1="68.38" y1="5.53" x2="68.38" y2="5.54"/><line class="c" x1="68.39" y1="5.57" x2="68.4" y2="5.59"/><line class="c" x1="68.42" y1="5.61" x2="68.42" y2="5.63"/><line class="c" x1="68.43" y1="5.65" x2="68.43" y2="5.66"/><line class="c" x1="68.44" y1="5.69" x2="68.45" y2="5.7"/><line class="c" x1="68.46" y1="5.72" x2="68.46" y2="5.74"/><line class="c" x1="68.48" y1="5.76" x2="68.48" y2="5.77"/><line class="c" x1="68.49" y1="5.8" x2="68.5" y2="5.82"/><line class="c" x1="68.51" y1="5.83" x2="68.51" y2="5.86"/><line class="c" x1="68.53" y1="5.88" x2="68.53" y2="5.89"/><line class="c" x1="68.54" y1="5.92" x2="68.55" y2="5.93"/><line class="c" x1="68.55" y1="5.96" x2="68.56" y2="5.97"/><line class="c" x1="68.57" y1="5.99" x2="68.57" y2="6"/><line class="c" x1="68.59" y1="6.03" x2="68.6" y2="6.04"/><line class="c" x1="68.6" y1="6.07" x2="68.61" y2="6.09"/><line class="c" x1="68.62" y1="6.11" x2="68.62" y2="6.13"/><line class="c" x1="68.64" y1="6.15" x2="68.65" y2="6.16"/><line class="c" x1="68.65" y1="6.19" x2="68.66" y2="6.2"/><line class="c" x1="68.67" y1="6.22" x2="68.67" y2="6.24"/><line class="c" x1="68.68" y1="6.26" x2="68.7" y2="6.27"/><line class="c" x1="68.7" y1="6.3" x2="68.71" y2="6.32"/><line class="c" x1="68.72" y1="6.33" x2="68.72" y2="6.36"/><line class="c" x1="68.73" y1="6.38" x2="68.75" y2="6.4"/><line class="c" x1="68.75" y1="6.42" x2="68.76" y2="6.43"/><line class="c" x1="68.77" y1="6.46" x2="68.77" y2="6.47"/><line class="c" x1="68.78" y1="6.49" x2="68.79" y2="6.51"/><line class="c" x1="68.79" y1="6.53" x2="68.81" y2="6.54"/><line class="c" x1="68.82" y1="6.57" x2="68.82" y2="6.59"/><line class="c" x1="68.83" y1="6.62" x2="68.84" y2="6.63"/><line class="c" x1="68.84" y1="6.65" x2="68.86" y2="6.66"/><line class="c" x1="68.87" y1="6.69" x2="68.87" y2="6.7"/><line class="c" x1="68.88" y1="6.73" x2="68.89" y2="6.74"/><line class="c" x1="68.89" y1="6.76" x2="68.9" y2="6.77"/><line class="c" x1="68.92" y1="6.8" x2="68.92" y2="6.82"/><line class="c" x1="68.93" y1="6.84" x2="68.93" y2="6.86"/><line class="c" x1="68.94" y1="6.88" x2="68.95" y2="6.9"/><line class="c" x1="68.97" y1="6.92" x2="68.97" y2="6.93"/><line class="c" x1="68.98" y1="6.96" x2="68.98" y2="6.97"/><line class="c" x1="68.99" y1="6.99" x2="69" y2="7.01"/><line class="c" x1="69.01" y1="7.03" x2="69.01" y2="7.05"/><line class="c" x1="69.03" y1="7.07" x2="69.03" y2="7.09"/><line class="c" x1="69.04" y1="7.12" x2="69.05" y2="7.13"/><line class="c" x1="69.06" y1="7.15" x2="69.06" y2="7.17"/><line class="c" x1="69.08" y1="7.19" x2="69.08" y2="7.2"/><line class="c" x1="69.09" y1="7.23" x2="69.1" y2="7.24"/><line class="c" x1="69.11" y1="7.26" x2="69.11" y2="7.28"/><line class="c" x1="69.12" y1="7.3" x2="69.12" y2="7.32"/><line class="c" x1="69.14" y1="7.34" x2="69.15" y2="7.36"/><line class="c" x1="69.16" y1="7.39" x2="69.16" y2="7.4"/><line class="c" x1="69.17" y1="7.42" x2="69.17" y2="7.43"/><line class="c" x1="69.19" y1="7.46" x2="69.2" y2="7.47"/><line class="c" x1="69.2" y1="7.5" x2="69.21" y2="7.51"/><line class="c" x1="69.22" y1="7.53" x2="69.22" y2="7.56"/><line class="c" x1="69.23" y1="7.57" x2="69.25" y2="7.59"/><line class="c" x1="69.25" y1="7.62" x2="69.26" y2="7.63"/><line class="c" x1="69.27" y1="7.65" x2="69.27" y2="7.67"/><line class="c" x1="69.28" y1="7.69" x2="69.29" y2="7.7"/><line class="c" x1="69.3" y1="7.73" x2="69.31" y2="7.74"/><line class="c" x1="69.32" y1="7.76" x2="69.32" y2="7.78"/><line class="c" x1="69.33" y1="7.8" x2="69.34" y2="7.82"/><line class="c" x1="69.34" y1="7.85" x2="69.36" y2="7.86"/><line class="c" x1="69.37" y1="7.89" x2="69.37" y2="7.9"/><line class="c" x1="69.38" y1="7.92" x2="69.39" y2="7.93"/><line class="c" x1="69.39" y1="7.96" x2="69.4" y2="7.97"/><line class="c" x1="69.42" y1="8" x2="69.42" y2="8.01"/><line class="c" x1="69.43" y1="8.03" x2="69.44" y2="8.06"/><line class="c" x1="69.44" y1="8.07" x2="69.45" y2="8.09"/><line class="c" x1="69.47" y1="8.12" x2="69.47" y2="8.13"/><line class="c" x1="69.48" y1="8.15" x2="69.49" y2="8.17"/><line class="c" x1="69.49" y1="8.19" x2="69.5" y2="8.2"/><line class="c" x1="69.52" y1="8.23" x2="69.52" y2="8.24"/><line class="c" x1="69.53" y1="8.26" x2="69.54" y2="8.28"/><line class="c" x1="69.54" y1="8.3" x2="69.55" y2="8.33"/><line class="c" x1="69.56" y1="8.35" x2="69.56" y2="8.36"/><line class="c" x1="69.58" y1="8.39" x2="69.58" y2="8.4"/><line class="c" x1="69.59" y1="8.42" x2="69.6" y2="8.44"/><line class="c" x1="69.61" y1="8.46" x2="69.61" y2="8.47"/><line class="c" x1="69.62" y1="8.5" x2="69.62" y2="8.51"/><line class="c" x1="69.64" y1="8.53" x2="69.65" y2="8.56"/><line class="c" x1="69.66" y1="8.57" x2="69.66" y2="8.59"/><line class="c" x1="69.67" y1="8.62" x2="69.67" y2="8.63"/><line class="c" x1="69.69" y1="8.66" x2="69.7" y2="8.67"/><line class="c" x1="69.71" y1="8.69" x2="69.71" y2="8.7"/><line class="c" x1="69.72" y1="8.73" x2="69.72" y2="8.74"/><line class="c" x1="69.73" y1="8.77" x2="69.75" y2="8.78"/><line class="c" x1="69.76" y1="8.8" x2="69.76" y2="8.83"/><line class="c" x1="69.77" y1="8.85" x2="69.77" y2="8.86"/><line class="c" x1="69.78" y1="8.89" x2="69.8" y2="8.9"/><line class="c" x1="69.81" y1="8.92" x2="69.81" y2="8.94"/><line class="c" x1="69.82" y1="8.96" x2="69.82" y2="8.97"/><line class="c" x1="69.83" y1="9" x2="69.84" y2="9.01"/><line class="c" x1="69.84" y1="9.03" x2="69.86" y2="9.06"/><line class="c" x1="69.87" y1="9.07" x2="69.87" y2="9.09"/><line class="c" x1="69.88" y1="9.12" x2="69.89" y2="9.13"/><line class="c" x1="69.89" y1="9.16" x2="69.91" y2="9.17"/><line class="c" x1="69.92" y1="9.19" x2="69.92" y2="9.2"/><line class="c" x1="69.93" y1="9.23" x2="69.94" y2="9.24"/><line class="c" x1="69.94" y1="9.27" x2="69.95" y2="9.28"/><line class="c" x1="69.97" y1="9.3" x2="69.97" y2="9.33"/><line class="c" x1="69.98" y1="9.35" x2="69.99" y2="9.36"/><line class="a" x1="16.88" y1="31.81" x2="1.06" y2="31.81"/><line class="a" x1="4.04" y1="30.39" x2="6.27" y2="30.39"/><polygon class="a" points="8.51 30.39 6.27 31.8 6.27 30.39 8.51 30.39"/><line class="a" x1="8.14" y1="30.62" x2="8.37" y2="30.39"/><line class="a" x1="6.39" y1="31.72" x2="7.71" y2="30.39"/><line class="a" x1="6.27" y1="31.18" x2="7.06" y2="30.39"/><line class="a" x1="6.27" y1="30.54" x2="6.4" y2="30.39"/><line class="a" x1="7.32" y1="31.14" x2="6.59" y2="30.39"/><line class="a" x1="6.92" y1="31.39" x2="6.27" y2="30.73"/><line class="a" x1="6.51" y1="31.64" x2="6.27" y2="31.39"/><line class="a" x1="7.72" y1="30.88" x2="7.24" y2="30.39"/><line class="a" x1="8.13" y1="30.63" x2="7.88" y2="30.39"/><line class="a" x1="4.04" y1="30.39" x2="6.27" y2="31.79"/><path class="a" d="M1.89,28.41l-.1,0-.11.1c-.17.29-.15.78.21.9h.19l.11,0a.66.66,0,0,0,0-1l-.11,0Z"/><line class="a" x1="2.03" y1="29.27" x2="2.34" y2="29.57"/><line class="a" x1="2.74" y1="28.77" x2="2.74" y2="29.46"/><polyline class="a" points="2.74 29.06 2.79 28.91 2.89 28.82 2.98 28.77 3.14 28.77"/><rect class="a" x="3.35" y="28.43" width="0.07" height="0.07" transform="translate(-19.13 10.73) rotate(-45)"/><line class="a" x1="3.39" y1="28.82" x2="3.39" y2="29.46"/><polyline class="a" points="4.1 28.41 4 28.41 3.89 28.46 3.84 28.61 3.84 29.46"/><line class="a" x1="3.69" y1="28.77" x2="4.05" y2="28.77"/><rect class="a" x="4.42" y="28.78" width="0.07" height="0.07" transform="translate(-19.07 11.59) rotate(-45)"/><rect class="a" x="4.42" y="29.38" width="0.07" height="0.07" transform="translate(-19.49 11.76) rotate(-45)"/><polyline class="a" points="6.05 28.61 6.16 28.56 6.31 28.41 6.31 29.46"/><polygon class="a" points="7.16 28.41 7 28.46 6.95 28.56 6.95 28.67 7 28.77 7.11 28.82 7.31 28.86 7.46 28.91 7.57 29.01 7.61 29.12 7.61 29.27 7.57 29.36 7.52 29.41 7.36 29.46 7.16 29.46 7 29.41 6.95 29.36 6.91 29.27 6.91 29.12 6.95 29.01 7.06 28.91 7.21 28.86 7.41 28.82 7.52 28.77 7.57 28.67 7.57 28.56 7.52 28.46 7.36 28.41 7.16 28.41"/><polygon class="a" points="8.21 28.41 8.06 28.46 7.97 28.61 7.91 28.86 7.91 29.01 7.97 29.27 8.06 29.41 8.21 29.46 8.31 29.46 8.47 29.41 8.57 29.27 8.62 29.01 8.62 28.86 8.57 28.61 8.47 28.46 8.31 28.41 8.21 28.41"/><line class="a" x1="10.02" y1="28.77" x2="10.02" y2="29.46"/><polyline class="a" points="10.02 28.96 10.18 28.82 10.28 28.77 10.42 28.77 10.52 28.82 10.57 28.96 10.57 29.46"/><polyline class="a" points="10.57 28.96 10.73 28.82 10.82 28.77 10.97 28.77 11.08 28.82 11.13 28.96 11.13 29.46"/><polyline class="a" points="13.09 28.91 13.04 28.82 12.89 28.77 12.73 28.77 12.58 28.82 12.54 28.91 12.58 29.01 12.68 29.06 12.94 29.12 13.04 29.17 13.09 29.27 13.09 29.32 13.04 29.41 12.89 29.46 12.73 29.46 12.58 29.41 12.54 29.32"/><rect class="a" x="13.45" y="29.38" width="0.07" height="0.07" transform="translate(-16.85 18.15) rotate(-45)"/><line class="a" x1="13.94" y1="28.41" x2="13.94" y2="29.46"/><rect class="a" x="14.36" y="29.38" width="0.07" height="0.07" transform="translate(-16.58 18.79) rotate(-45)"/><line class="a" x1="14.84" y1="28.77" x2="14.84" y2="29.46"/><polyline class="a" points="14.84 28.96 14.99 28.82 15.1 28.77 15.25 28.77 15.34 28.82 15.39 28.96 15.39 29.46"/><polyline class="a" points="15.39 28.96 15.55 28.82 15.65 28.77 15.8 28.77 15.89 28.82 15.96 28.96 15.96 29.46"/><polygon class="a" points="16.41 29.36 16.34 29.41 16.41 29.46 16.45 29.41 16.41 29.36"/><line class="d" x1="29.67" y1="7.27" x2="30.65" y2="6.28"/><line class="d" x1="30.65" y1="7.27" x2="29.67" y2="6.28"/><line class="d" x1="77.97" y1="7.54" x2="78.94" y2="6.57"/><line class="d" x1="78.94" y1="7.54" x2="77.97" y2="6.57"/><line class="e" x1="71.68" y1="8.67" x2="71.68" y2="10.06"/><path class="e" d="M71,9.36h1.38l0-.18L72.28,9A.68.68,0,0,0,71,9.18l0,.18,0,.18a.68.68,0,0,0,1.26.16l.07-.16,0-.18"/><line class="e" x1="37.55" y1="8.67" x2="37.55" y2="10.06"/><path class="e" d="M36.85,9.36h1.38l0-.18L38.14,9a.69.69,0,0,0-1.27.16l0,.18,0,.18a.69.69,0,0,0,1.27.16l.06-.16,0-.18"/><line class="d" x1="41" y1="9.36" x2="41.98" y2="8.38"/><line class="d" x1="41.98" y1="9.36" x2="41" y2="8.38"/><line class="d" x1="67.24" y1="9.36" x2="68.22" y2="8.38"/><line class="d" x1="68.22" y1="9.36" x2="67.24" y2="8.38"/><line class="f" x1="33.59" y1="9.85" x2="34.57" y2="8.87"/><line class="f" x1="34.57" y1="9.85" x2="33.59" y2="8.87"/><line class="f" x1="40.51" y1="9.85" x2="41.49" y2="8.87"/><line class="f" x1="41.49" y1="9.85" x2="40.51" y2="8.87"/><line class="f" x1="74.66" y1="9.85" x2="75.63" y2="8.87"/><line class="f" x1="75.63" y1="9.85" x2="74.66" y2="8.87"/><line class="f" x1="67.73" y1="9.85" x2="68.71" y2="8.87"/><line class="f" x1="68.71" y1="9.85" x2="67.73" y2="8.87"/></svg>