<svg xmlns="http://www.w3.org/2000/svg" viewBox="0 0 128.83 45.51"><defs><style>.a,.b,.c,.d{fill:none;stroke-linecap:round;stroke-linejoin:round;stroke-width:0.21px;}.a{stroke:#000;}.b{stroke:#00b800;}.c{stroke:#00bfff;}.d{stroke:blue;}</style></defs><title>cad1.1</title><line class="a" x1="24.09" y1="25.01" x2="24.09" y2="1.76"/><line class="a" x1="24.51" y1="25.01" x2="24.51" y2="3.69"/><line class="a" x1="27.69" y1="25.01" x2="27.69" y2="4.2"/><line class="a" x1="29.25" y1="25.01" x2="29.25" y2="4.09"/><line class="a" x1="30.08" y1="25.01" x2="30.08" y2="1.44"/><line class="a" x1="32.87" y1="25.01" x2="32.87" y2="1.32"/><polyline class="a" points="22.52 1.64 24.09 1.76 24.51 3.69 26.19 4.05 27.69 4.2 29.25 4.08 30.08 1.44 32.87 1.32 35.18 1.41"/><polyline class="a" points="16.67 26.69 16.78 26.64 16.95 26.47 16.95 27.67"/><line class="a" x1="16.81" y1="29.64" x2="16.81" y2="33.33"/><line class="a" x1="0.93" y1="25.04" x2="0.93" y2="25.02"/><line class="a" x1="16.81" y1="29.64" x2="128.01" y2="29.64"/><line class="a" x1="16.81" y1="33.33" x2="128.01" y2="33.33"/><line class="a" x1="16.81" y1="38.89" x2="128.01" y2="38.89"/><polyline class="a" points="16.81 44.43 128.01 44.43 128.01 25.04"/><polyline class="a" points="17.45 31.09 17.55 31.04 17.67 30.91 17.67 31.84"/><polygon class="a" points="18.29 31.75 18.25 31.79 18.29 31.84 18.33 31.79 18.29 31.75"/><polyline class="a" points="19.09 30.91 18.65 31.53 19.31 31.53"/><line class="a" x1="19.09" y1="30.91" x2="19.09" y2="31.84"/><polygon class="a" points="16.14 36.2 16.2 36.32 16.37 36.4 16.68 36.45 16.86 36.45 17.17 36.4 17.35 36.32 17.41 36.2 17.41 36.11 17.35 35.99 17.17 35.9 16.86 35.85 16.68 35.85 16.37 35.9 16.2 35.99 16.14 36.11 16.14 36.2"/><polyline class="a" points="16.47 43.7 16.41 43.61 16.23 43.49 17.5 43.49"/><polyline class="a" points="16.65 42.42 16.84 42.47 16.96 42.56 17.02 42.68 17.02 42.73 16.96 42.85 16.84 42.94 16.65 42.98 16.59 42.98 16.41 42.94 16.29 42.85 16.23 42.73 16.23 42.68 16.29 42.56 16.41 42.47 16.65 42.42 16.96 42.42 17.25 42.47 17.44 42.56 17.5 42.68 17.5 42.77 17.44 42.89 17.32 42.94"/><polygon class="a" points="16.23 41.87 16.29 42.01 16.47 42.09 16.78 42.13 16.96 42.13 17.25 42.09 17.44 42.01 17.5 41.87 17.5 41.79 17.44 41.67 17.25 41.58 16.96 41.54 16.78 41.54 16.47 41.58 16.29 41.67 16.23 41.79 16.23 41.87"/><polygon class="a" points="17.38 41.2 17.44 41.24 17.5 41.2 17.44 41.15 17.38 41.2"/><polyline class="a" points="16.53 40.82 16.47 40.82 16.35 40.77 16.29 40.74 16.23 40.65 16.23 40.48 16.29 40.39 16.35 40.36 16.47 40.31 16.59 40.31 16.9 40.43 17.5 40.86 17.5 40.27"/><polyline class="a" points="16.47 39.88 16.41 39.79 16.23 39.67 17.5 39.67"/><line class="a" x1="16.81" y1="1.39" x2="16.81" y2="25.01"/><polyline class="a" points="20.04 25.01 20.04 1.51 16.81 1.39"/><line class="a" x1="20.04" y1="1.52" x2="22.52" y2="1.64"/><polyline class="a" points="38.53 25.01 38.53 2 35.18 1.41"/><polyline class="a" points="52.99 25.01 52.99 3.46 38.53 2"/><polyline class="a" points="62.36 25.01 62.36 3.99 52.99 3.46"/><polyline class="a" points="73.95 25.01 73.95 4.66 62.36 3.99"/><polyline class="a" points="85.91 25.01 85.91 5.08 73.95 4.66"/><line class="a" x1="90.41" y1="5.24" x2="85.91" y2="5.08"/><polyline class="a" points="102.2 25.01 102.2 5.65 90.41 5.24"/><polyline class="a" points="113.86 25.01 113.86 5.83 102.2 5.65"/><polyline class="a" points="124.54 25.01 124.54 5.99 113.86 5.83"/><polyline class="a" points="19.7 26.75 19.7 26.69 19.76 26.58 19.81 26.52 19.93 26.47 20.15 26.47 20.28 26.52 20.32 26.58 20.39 26.69 20.39 26.81 20.32 26.92 20.21 27.09 19.64 27.67 20.45 27.67"/><polyline class="a" points="23.3 26.47 23.93 26.47 23.59 26.92 23.76 26.92 23.87 26.98 23.93 27.03 23.98 27.2 23.98 27.32 23.93 27.5 23.81 27.61 23.64 27.67 23.47 27.67 23.3 27.61 23.25 27.54 23.19 27.43"/><polyline class="a" points="25.01 26.47 24.44 27.26 25.29 27.26"/><line class="a" x1="25.01" y1="26.47" x2="25.01" y2="27.67"/><polyline class="a" points="26.46 26.47 25.88 26.47 25.83 26.98 25.88 26.92 26.05 26.86 26.22 26.86 26.39 26.92 26.52 27.03 26.57 27.2 26.57 27.32 26.52 27.5 26.39 27.61 26.22 27.67 26.05 27.67 25.88 27.61 25.83 27.54 25.77 27.43"/><polyline class="a" points="28.01 26.64 27.95 26.52 27.78 26.47 27.67 26.47 27.5 26.52 27.39 26.69 27.32 26.98 27.32 27.26 27.39 27.5 27.5 27.61 27.67 27.67 27.73 27.67 27.9 27.61 28.01 27.5 28.07 27.32 28.07 27.26 28.01 27.09 27.9 26.98 27.73 26.92 27.67 26.92 27.5 26.98 27.39 27.09 27.32 27.26"/><polyline class="a" points="28.96 27.67 29.53 26.47 28.73 26.47"/><polygon class="a" points="30.38 26.47 30.21 26.52 30.15 26.64 30.15 26.75 30.21 26.86 30.32 26.92 30.55 26.98 30.73 27.03 30.84 27.15 30.9 27.26 30.9 27.43 30.84 27.54 30.78 27.61 30.6 27.67 30.38 27.67 30.21 27.61 30.15 27.54 30.09 27.43 30.09 27.26 30.15 27.15 30.26 27.03 30.43 26.98 30.66 26.92 30.78 26.86 30.84 26.75 30.84 26.64 30.78 26.52 30.6 26.47 30.38 26.47"/><polyline class="a" points="33.23 26.86 33.17 27.03 33.06 27.15 32.89 27.2 32.83 27.2 32.66 27.15 32.55 27.03 32.49 26.86 32.49 26.81 32.55 26.64 32.66 26.52 32.83 26.47 32.89 26.47 33.06 26.52 33.17 26.64 33.23 26.86 33.23 27.15 33.17 27.43 33.06 27.61 32.89 27.67 32.78 27.67 32.61 27.61 32.55 27.5"/><polyline class="a" points="37.65 26.69 37.76 26.64 37.93 26.47 37.93 27.67"/><polygon class="a" points="38.96 26.47 38.79 26.52 38.68 26.69 38.62 26.98 38.62 27.15 38.68 27.43 38.79 27.61 38.96 27.67 39.09 27.67 39.26 27.61 39.37 27.43 39.43 27.15 39.43 26.98 39.37 26.69 39.26 26.52 39.09 26.47 38.96 26.47"/><polyline class="a" points="52.28 26.69 52.39 26.64 52.56 26.47 52.56 27.67"/><polyline class="a" points="53.41 26.69 53.54 26.64 53.71 26.47 53.71 27.67"/><polyline class="a" points="61.47 26.69 61.59 26.64 61.76 26.47 61.76 27.67"/><polyline class="a" points="62.49 26.75 62.49 26.69 62.56 26.58 62.62 26.52 62.73 26.47 62.96 26.47 63.07 26.52 63.13 26.58 63.18 26.69 63.18 26.81 63.13 26.92 63.01 27.09 62.45 27.67 63.24 27.67"/><polyline class="a" points="73.06 26.69 73.18 26.64 73.35 26.47 73.35 27.67"/><polyline class="a" points="74.14 26.47 74.77 26.47 74.43 26.92 74.6 26.92 74.72 26.98 74.77 27.03 74.83 27.2 74.83 27.32 74.77 27.5 74.66 27.61 74.49 27.67 74.32 27.67 74.14 27.61 74.08 27.54 74.03 27.43"/><polyline class="a" points="84.99 26.69 85.1 26.64 85.27 26.47 85.27 27.67"/><polyline class="a" points="86.53 26.47 85.95 27.26 86.81 27.26"/><line class="a" x1="86.53" y1="26.47" x2="86.53" y2="27.67"/><polyline class="a" points="101.32 26.69 101.43 26.64 101.61 26.47 101.61 27.67"/><polyline class="a" points="102.98 26.47 102.4 26.47 102.34 26.98 102.4 26.92 102.57 26.86 102.74 26.86 102.92 26.92 103.03 27.03 103.09 27.2 103.09 27.32 103.03 27.5 102.92 27.61 102.74 27.67 102.57 27.67 102.4 27.61 102.34 27.54 102.29 27.43"/><polyline class="a" points="112.97 26.69 113.08 26.64 113.25 26.47 113.25 27.67"/><polyline class="a" points="114.69 26.64 114.63 26.52 114.45 26.47 114.34 26.47 114.17 26.52 114.06 26.69 114 26.98 114 27.26 114.06 27.5 114.17 27.61 114.34 27.67 114.41 27.67 114.58 27.61 114.69 27.5 114.75 27.32 114.75 27.26 114.69 27.09 114.58 26.98 114.41 26.92 114.34 26.92 114.17 26.98 114.06 27.09 114 27.26"/><polyline class="a" points="123.56 26.65 123.68 26.59 123.88 26.39 123.88 27.73"/><polyline class="a" points="124.89 27.73 125.53 26.39 124.64 26.39"/><line class="a" x1="20.04" y1="29.64" x2="20.04" y2="33.33"/><line class="a" x1="24.09" y1="29.64" x2="24.09" y2="33.33"/><line class="a" x1="24.51" y1="29.64" x2="24.51" y2="33.33"/><line class="a" x1="26.19" y1="29.64" x2="26.19" y2="33.33"/><line class="a" x1="27.69" y1="29.64" x2="27.69" y2="33.33"/><line class="a" x1="29.25" y1="29.64" x2="29.25" y2="33.33"/><line class="a" x1="30.08" y1="29.64" x2="30.08" y2="33.33"/><line class="a" x1="32.87" y1="29.64" x2="32.87" y2="33.33"/><line class="a" x1="38.53" y1="29.64" x2="38.53" y2="33.33"/><line class="a" x1="52.99" y1="29.64" x2="52.99" y2="33.33"/><line class="a" x1="62.36" y1="29.64" x2="62.36" y2="33.33"/><line class="a" x1="73.95" y1="29.64" x2="73.95" y2="33.33"/><line class="a" x1="85.9" y1="29.64" x2="85.9" y2="33.33"/><line class="a" x1="102.21" y1="29.64" x2="102.21" y2="33.33"/><line class="a" x1="113.86" y1="29.64" x2="113.86" y2="33.33"/><line class="a" x1="124.54" y1="29.64" x2="124.54" y2="33.33"/><polyline class="a" points="21.06 31.09 21.14 31.04 21.28 30.91 21.28 31.84"/><polygon class="a" points="21.89 31.75 21.84 31.79 21.89 31.84 21.94 31.79 21.89 31.75"/><polyline class="a" points="22.42 31.84 22.86 30.91 22.25 30.91"/><polygon class="a" points="24.78 32.05 24.83 32.18 24.96 32.27 25.18 32.3 25.32 32.3 25.54 32.27 25.66 32.18 25.71 32.05 25.71 31.96 25.66 31.83 25.54 31.74 25.32 31.69 25.18 31.69 24.96 31.74 24.83 31.83 24.78 31.96 24.78 32.05"/><polygon class="a" points="25.62 31.34 25.66 31.39 25.71 31.34 25.66 31.3 25.62 31.34"/><polyline class="a" points="25.71 30.81 24.78 30.37 24.78 30.98"/><polygon class="a" points="24.29 31.36 24.25 31.41 24.29 31.45 24.34 31.41 24.29 31.36"/><polygon class="a" points="29.64 31.34 29.6 31.38 29.64 31.42 29.69 31.38 29.64 31.34"/><polyline class="a" points="30.38 31.09 30.47 31.04 30.6 30.91 30.6 31.84"/><polygon class="a" points="31.22 31.75 31.17 31.79 31.22 31.84 31.27 31.79 31.22 31.75"/><polyline class="a" points="31.61 31.13 31.61 31.09 31.66 31.01 31.71 30.96 31.79 30.91 31.96 30.91 32.05 30.96 32.1 31.01 32.15 31.09 32.15 31.18 32.1 31.27 32.01 31.4 31.57 31.84 32.18 31.84"/><polyline class="a" points="34.66 31.13 34.66 31.09 34.69 31.01 34.74 30.96 34.83 30.91 35 30.91 35.1 30.96 35.13 31.01 35.18 31.09 35.18 31.18 35.13 31.27 35.05 31.4 34.61 31.84 35.22 31.84"/><polygon class="a" points="35.57 31.75 35.54 31.79 35.57 31.84 35.62 31.79 35.57 31.75"/><polyline class="a" points="36.45 30.91 36.01 30.91 35.98 31.31 36.01 31.26 36.15 31.23 36.28 31.23 36.42 31.26 36.5 31.35 36.54 31.48 36.54 31.57 36.5 31.7 36.42 31.79 36.28 31.84 36.15 31.84 36.01 31.79 35.98 31.75 35.93 31.67"/><polyline class="a" points="45.5 31.04 45.45 30.96 45.31 30.91 45.23 30.91 45.09 30.96 45.01 31.09 44.96 31.31 44.96 31.53 45.01 31.7 45.09 31.79 45.23 31.84 45.28 31.84 45.4 31.79 45.5 31.7 45.53 31.57 45.53 31.53 45.5 31.4 45.4 31.31 45.28 31.26 45.23 31.26 45.09 31.31 45.01 31.4 44.96 31.53"/><polygon class="a" points="45.89 31.75 45.84 31.79 45.89 31.84 45.94 31.79 45.89 31.75"/><polyline class="a" points="46.33 30.91 46.82 30.91 46.55 31.26 46.68 31.26 46.77 31.31 46.82 31.35 46.85 31.48 46.85 31.57 46.82 31.7 46.72 31.79 46.6 31.84 46.46 31.84 46.33 31.79 46.28 31.75 46.24 31.67"/><polyline class="a" points="57.28 30.91 56.84 31.53 57.5 31.53"/><line class="a" x1="57.28" y1="30.91" x2="57.28" y2="31.84"/><polygon class="a" points="57.81 31.75 57.76 31.79 57.81 31.84 57.86 31.79 57.81 31.75"/><polyline class="a" points="58.3 31.09 58.38 31.04 58.52 30.91 58.52 31.84"/><polyline class="a" points="68.37 30.91 67.93 30.91 67.89 31.31 67.93 31.26 68.06 31.23 68.2 31.23 68.33 31.26 68.42 31.35 68.45 31.48 68.45 31.57 68.42 31.7 68.33 31.79 68.2 31.84 68.06 31.84 67.93 31.79 67.89 31.75 67.84 31.67"/><path class="a" d="M79.48,30.91H79l0,.4,0,0c.8-.28.63.91,0,.49l0-.09"/><polygon class="a" points="79.92 31.75 79.87 31.79 79.92 31.84 79.97 31.79 79.92 31.75"/><polyline class="a" points="80.31 31.13 80.31 31.09 80.36 31.01 80.41 30.96 80.5 30.91 80.67 30.91 80.75 30.96 80.8 31.01 80.85 31.09 80.85 31.18 80.8 31.27 80.72 31.4 80.28 31.84 80.89 31.84"/><polyline class="a" points="93.17 31.84 93.61 30.91 93 30.91"/><polygon class="a" points="93.97 31.75 93.92 31.79 93.97 31.84 94.01 31.79 93.97 31.75"/><polyline class="a" points="94.45 31.09 94.55 31.04 94.67 30.91 94.67 31.84"/><path class="a" d="M108.25,30.91h-.44l0,.4,0,0c.8-.28.63.91,0,.49l0-.09"/><polyline class="a" points="118.68 30.91 118.24 31.53 118.9 31.53"/><line class="a" x1="118.68" y1="30.91" x2="118.68" y2="31.84"/><polygon class="a" points="119.2 31.75 119.15 31.79 119.2 31.84 119.24 31.79 119.2 31.75"/><polyline class="a" points="120.12 31.04 120.08 30.96 119.95 30.91 119.86 30.91 119.73 30.96 119.64 31.09 119.59 31.31 119.59 31.53 119.64 31.7 119.73 31.79 119.86 31.84 119.9 31.84 120.03 31.79 120.12 31.7 120.17 31.57 120.17 31.53 120.12 31.4 120.03 31.31 119.9 31.26 119.86 31.26 119.73 31.31 119.64 31.4 119.59 31.53"/><polyline class="a" points="19.64 37.04 19.58 36.95 19.39 36.83 20.67 36.83"/><polygon class="a" points="20.55 36.23 20.61 36.28 20.67 36.23 20.61 36.2 20.55 36.23"/><polyline class="a" points="19.39 35.47 20.24 35.9 20.24 35.27"/><line class="a" x1="19.4" y1="35.47" x2="20.67" y2="35.47"/><polyline class="a" points="22.33 36.87 22.33 36.4 22.82 36.66 22.82 36.54 22.88 36.45 22.93 36.4 23.11 36.37 23.24 36.37 23.42 36.4 23.54 36.49 23.61 36.62 23.61 36.75 23.54 36.87 23.48 36.92 23.36 36.95"/><polygon class="a" points="23.48 36.02 23.54 36.06 23.6 36.02 23.54 35.99 23.48 36.02"/><polyline class="a" points="22.58 35.56 22.52 35.47 22.33 35.35 23.61 35.35"/><path class="a" d="M23.95,37v-.46l.49.25v-.12c.22-.42,1.14,0,.66.38l-.12,0"/><polygon class="a" points="25.1 36.15 25.16 36.2 25.22 36.15 25.16 36.11 25.1 36.15"/><path class="a" d="M23.95,35.73v-.46l.49.25v-.12c.22-.42,1.14,0,.66.38l-.12,0"/><polyline class="a" points="25.54 36.54 26.38 36.95 26.38 36.32"/><line class="a" x1="25.54" y1="36.54" x2="26.81" y2="36.54"/><polygon class="a" points="26.69 36.02 26.75 36.06 26.81 36.02 26.75 35.99 26.69 36.02"/><polyline class="a" points="25.78 35.56 25.72 35.47 25.54 35.35 26.81 35.35"/><polyline class="a" points="27.04 36.66 27.89 37.09 27.89 36.45"/><line class="a" x1="27.04" y1="36.66" x2="28.32" y2="36.66"/><polygon class="a" points="28.19 36.15 28.25 36.2 28.32 36.15 28.25 36.11 28.19 36.15"/><polyline class="a" points="28.32 35.65 27.04 35.22 27.04 35.82"/><path class="a" d="M28.6,36.6V37l.54,0,0,0c-.42-.75,1.27-.6.66,0l-.12,0"/><polygon class="a" points="29.75 36.17 29.81 36.22 29.87 36.17 29.81 36.13 29.75 36.17"/><polyline class="a" points="28.6 35.41 29.44 35.83 29.44 35.19"/><line class="a" x1="28.6" y1="35.41" x2="29.87" y2="35.41"/><polyline class="a" points="30.16 36.58 30.16 37 30.71 37.04 30.65 37 30.59 36.87 30.59 36.75 30.65 36.62 30.78 36.54 30.95 36.49 31.07 36.49 31.25 36.54 31.38 36.62 31.44 36.75 31.44 36.87 31.38 37 31.31 37.04 31.19 37.09"/><polygon class="a" points="31.31 36.15 31.38 36.2 31.44 36.15 31.38 36.11 31.31 36.15"/><polyline class="a" points="31.44 35.65 30.16 35.22 30.16 35.82"/><polyline class="a" points="32.39 36.54 32.27 36.58 32.21 36.7 32.21 36.78 32.27 36.92 32.45 37 32.76 37.04 33.06 37.04 33.3 37 33.42 36.92 33.48 36.78 33.48 36.75 33.42 36.63 33.3 36.54 33.13 36.49 33.06 36.49 32.88 36.54 32.76 36.63 32.7 36.75 32.7 36.78 32.76 36.92 32.88 37 33.06 37.04"/><polygon class="a" points="33.36 36.15 33.42 36.2 33.48 36.15 33.42 36.11 33.36 36.15"/><polyline class="a" points="32.64 35.27 32.82 35.3 32.94 35.39 33 35.51 33 35.56 32.94 35.68 32.82 35.77 32.64 35.82 32.58 35.82 32.39 35.77 32.27 35.68 32.21 35.56 32.21 35.51 32.27 35.39 32.39 35.3 32.64 35.27 32.94 35.27 33.25 35.3 33.42 35.39 33.48 35.51 33.48 35.6 33.42 35.73 33.3 35.77"/><polyline class="a" points="38.31 36.55 38.48 36.6 38.61 36.69 38.67 36.81 38.67 36.86 38.61 36.98 38.48 37.06 38.31 37.1 38.25 37.1 38.07 37.06 37.95 36.98 37.89 36.86 37.89 36.81 37.95 36.69 38.07 36.6 38.31 36.55 38.61 36.55 38.91 36.6 39.1 36.69 39.16 36.81 39.16 36.89 39.1 37.02 38.98 37.06"/><polygon class="a" points="39.04 36.17 39.1 36.22 39.16 36.17 39.1 36.13 39.04 36.17"/><polyline class="a" points="37.89 35.41 38.73 35.83 38.73 35.19"/><line class="a" x1="37.89" y1="35.41" x2="39.16" y2="35.41"/><polyline class="a" points="52.58 37.44 52.52 37.36 52.34 37.24 53.61 37.24"/><path class="a" d="M52.34,36.22v.42l.55,0-.06,0c-.42-.75,1.28-.6.66,0l-.12,0"/><polygon class="a" points="53.49 35.79 53.55 35.83 53.61 35.79 53.55 35.76 53.49 35.79"/><polyline class="a" points="52.52 34.9 52.4 34.95 52.34 35.07 52.34 35.16 52.4 35.28 52.58 35.36 52.89 35.41 53.18 35.41 53.43 35.36 53.55 35.28 53.61 35.16 53.61 35.12 53.55 34.98 53.43 34.9 53.24 34.86 53.18 34.86 53 34.9 52.89 34.98 52.83 35.12 52.83 35.16 52.89 35.28 53 35.36 53.18 35.41"/><polyline class="a" points="61.94 37.44 61.88 37.36 61.7 37.24 62.97 37.24"/><polyline class="a" points="62.13 36.17 62.31 36.22 62.43 36.31 62.49 36.43 62.49 36.47 62.43 36.6 62.31 36.69 62.13 36.72 62.07 36.72 61.88 36.69 61.76 36.6 61.7 36.47 61.7 36.43 61.76 36.31 61.88 36.22 62.13 36.17 62.43 36.17 62.74 36.22 62.91 36.31 62.97 36.43 62.97 36.52 62.91 36.64 62.79 36.69"/><polygon class="a" points="62.85 35.79 62.91 35.83 62.97 35.79 62.91 35.76 62.85 35.79"/><polyline class="a" points="62.97 35.28 61.7 34.86 61.7 35.45"/><polyline class="a" points="73.59 37.47 73.53 37.47 73.41 37.42 73.35 37.38 73.29 37.3 73.29 37.13 73.35 37.04 73.41 37 73.53 36.95 73.66 36.95 73.78 37 73.96 37.09 74.56 37.51 74.56 36.92"/><polyline class="a" points="73.29 36.23 74.13 36.66 74.13 36.02"/><line class="a" x1="73.29" y1="36.23" x2="74.56" y2="36.23"/><polygon class="a" points="74.44 35.73 74.5 35.77 74.56 35.73 74.5 35.68 74.44 35.73"/><polyline class="a" points="74.56 35.22 73.29 34.8 73.29 35.39"/><polyline class="a" points="85.55 37.44 85.49 37.44 85.37 37.41 85.31 37.36 85.24 37.27 85.24 37.1 85.31 37.02 85.37 36.98 85.49 36.94 85.61 36.94 85.73 36.98 85.92 37.06 86.52 37.49 86.52 36.89"/><polyline class="a" points="85.67 36.09 85.86 36.13 85.98 36.22 86.03 36.34 86.03 36.38 85.98 36.51 85.86 36.6 85.67 36.64 85.61 36.64 85.43 36.6 85.31 36.51 85.24 36.38 85.24 36.34 85.31 36.22 85.43 36.13 85.67 36.09 85.98 36.09 86.27 36.13 86.45 36.22 86.52 36.34 86.52 36.43 86.45 36.55 86.33 36.6"/><polygon class="a" points="86.39 35.71 86.45 35.76 86.52 35.71 86.45 35.67 86.39 35.71"/><polyline class="a" points="85.67 34.81 85.86 34.86 85.98 34.95 86.03 35.07 86.03 35.12 85.98 35.24 85.86 35.33 85.67 35.36 85.61 35.36 85.43 35.33 85.31 35.24 85.24 35.12 85.24 35.07 85.31 34.95 85.43 34.86 85.67 34.81 85.98 34.81 86.27 34.86 86.45 34.95 86.52 35.07 86.52 35.16 86.45 35.28 86.33 35.33"/><polyline class="a" points="101.54 37.41 101.54 36.94 102.03 37.19 102.03 37.06 102.09 36.98 102.16 36.94 102.34 36.89 102.46 36.89 102.63 36.94 102.76 37.02 102.82 37.15 102.82 37.27 102.76 37.41 102.69 37.45 102.58 37.49"/><polyline class="a" points="101.73 36.09 101.61 36.13 101.54 36.26 101.54 36.34 101.61 36.47 101.79 36.55 102.09 36.6 102.4 36.6 102.63 36.55 102.76 36.47 102.82 36.34 102.82 36.31 102.76 36.17 102.63 36.09 102.46 36.05 102.4 36.05 102.22 36.09 102.09 36.17 102.03 36.31 102.03 36.34 102.09 36.47 102.22 36.55 102.4 36.6"/><polygon class="a" points="102.69 35.71 102.76 35.76 102.82 35.71 102.76 35.67 102.69 35.71"/><polyline class="a" points="101.97 34.81 102.16 34.86 102.28 34.95 102.34 35.07 102.34 35.12 102.28 35.24 102.16 35.33 101.97 35.36 101.91 35.36 101.73 35.33 101.61 35.24 101.55 35.12 101.55 35.07 101.61 34.95 101.73 34.86 101.97 34.81 102.28 34.81 102.58 34.86 102.76 34.95 102.82 35.07 102.82 35.16 102.76 35.28 102.63 35.33"/><polyline class="a" points="113.21 36.45 114.05 36.87 114.05 36.23"/><line class="a" x1="113.21" y1="36.45" x2="114.48" y2="36.45"/><polyline class="a" points="113.51 35.99 113.45 35.99 113.33 35.94 113.27 35.9 113.21 35.82 113.21 35.65 113.27 35.56 113.33 35.51 113.45 35.47 113.57 35.47 113.68 35.51 113.87 35.6 114.48 36.02 114.48 35.44"/><polyline class="a" points="123.89 37.09 124.73 37.51 124.73 36.87"/><line class="a" x1="123.89" y1="37.09" x2="125.16" y2="37.09"/><polyline class="a" points="124.07 36.11 123.95 36.15 123.89 36.28 123.89 36.37 123.95 36.49 124.13 36.58 124.43 36.62 124.73 36.62 124.98 36.58 125.1 36.49 125.16 36.37 125.16 36.32 125.1 36.2 124.98 36.11 124.8 36.06 124.73 36.06 124.55 36.11 124.43 36.2 124.37 36.32 124.37 36.37 124.43 36.49 124.55 36.58 124.73 36.62"/><polygon class="a" points="125.04 35.73 125.1 35.77 125.16 35.73 125.1 35.68 125.04 35.73"/><polyline class="a" points="124.07 34.84 123.95 34.88 123.89 35.01 123.89 35.09 123.95 35.22 124.13 35.3 124.43 35.35 124.73 35.35 124.98 35.3 125.1 35.22 125.16 35.09 125.16 35.05 125.1 34.92 124.98 34.84 124.8 34.8 124.73 34.8 124.55 34.84 124.43 34.92 124.37 35.05 124.37 35.09 124.43 35.22 124.55 35.3 124.73 35.35"/><polyline class="a" points="19.63 43.83 19.57 43.75 19.38 43.61 20.66 43.61"/><polyline class="a" points="19.81 42.56 20 42.6 20.12 42.68 20.18 42.8 20.18 42.85 20.12 42.98 20 43.06 19.81 43.11 19.75 43.11 19.57 43.06 19.44 42.98 19.38 42.85 19.38 42.8 19.44 42.68 19.57 42.6 19.81 42.56 20.12 42.56 20.42 42.6 20.59 42.68 20.66 42.8 20.66 42.89 20.59 43.02 20.48 43.06"/><polygon class="a" points="19.38 42.01 19.44 42.13 19.63 42.22 19.93 42.25 20.12 42.25 20.42 42.22 20.59 42.13 20.66 42.01 20.66 41.92 20.59 41.79 20.42 41.7 20.12 41.67 19.93 41.67 19.63 41.7 19.44 41.79 19.38 41.92 19.38 42.01"/><polygon class="a" points="20.53 41.32 20.59 41.37 20.66 41.32 20.59 41.29 20.53 41.32"/><polyline class="a" points="19.63 40.86 19.57 40.77 19.38 40.65 20.66 40.65"/><polyline class="a" points="19.57 39.59 19.44 39.63 19.38 39.76 19.38 39.84 19.44 39.97 19.63 40.05 19.93 40.1 20.24 40.1 20.48 40.05 20.59 39.97 20.66 39.84 20.66 39.79 20.59 39.67 20.48 39.59 20.3 39.55 20.24 39.55 20.05 39.59 19.93 39.67 19.87 39.79 19.87 39.84 19.93 39.97 20.05 40.05 20.24 40.1"/><polyline class="a" points="22.64 43.83 22.58 43.75 22.39 43.61 23.67 43.61"/><polyline class="a" points="22.82 42.56 22.99 42.6 23.11 42.68 23.18 42.8 23.18 42.85 23.11 42.98 22.99 43.06 22.82 43.11 22.76 43.11 22.58 43.06 22.45 42.98 22.39 42.85 22.39 42.8 22.45 42.68 22.58 42.6 22.82 42.56 23.11 42.56 23.42 42.6 23.6 42.68 23.66 42.8 23.66 42.89 23.6 43.02 23.48 43.06"/><polygon class="a" points="22.39 42.01 22.45 42.13 22.64 42.22 22.93 42.25 23.11 42.25 23.42 42.22 23.61 42.13 23.67 42.01 23.67 41.92 23.61 41.79 23.42 41.7 23.11 41.67 22.93 41.67 22.64 41.7 22.45 41.79 22.39 41.92 22.39 42.01"/><polygon class="a" points="23.54 41.32 23.6 41.37 23.66 41.32 23.6 41.29 23.54 41.32"/><polygon class="a" points="22.39 40.74 22.45 40.86 22.64 40.94 22.93 40.98 23.11 40.98 23.42 40.94 23.61 40.86 23.67 40.74 23.67 40.65 23.61 40.52 23.42 40.43 23.11 40.39 22.93 40.39 22.64 40.43 22.45 40.52 22.39 40.65 22.39 40.74"/><path class="a" d="M22.39,39.63v.42l.54,0,0,0c-.42-.75,1.28-.6.66,0l-.12,0"/><polyline class="a" points="24.09 43.83 24.03 43.75 23.85 43.61 25.12 43.61"/><path class="a" d="M23.85,42.89l.06.14.12,0h.12l.12,0,.06-.09.06-.17.06-.12.11-.08.12,0h.18l.12,0,.06,0,.06.13v.16l-.06.14c-.9.42-.44-.72-1.15-.43l-.06.13Z"/><polyline class="a" points="24.28 41.7 24.46 41.75 24.57 41.84 24.63 41.96 24.63 42.01 24.57 42.13 24.46 42.22 24.28 42.25 24.22 42.25 24.03 42.22 23.91 42.13 23.85 42.01 23.85 41.96 23.91 41.84 24.03 41.75 24.28 41.7 24.57 41.7 24.88 41.75 25.06 41.84 25.12 41.96 25.12 42.05 25.06 42.17 24.94 42.22"/><polygon class="a" points="25 41.32 25.06 41.37 25.12 41.32 25.06 41.29 25 41.32"/><polyline class="a" points="24.16 40.94 24.09 40.94 23.97 40.91 23.91 40.86 23.85 40.77 23.85 40.6 23.91 40.52 23.97 40.48 24.09 40.43 24.22 40.43 24.34 40.48 24.51 40.56 25.12 40.98 25.12 40.39"/><polyline class="a" points="24.16 40.1 24.09 40.1 23.97 40.05 23.91 40.01 23.85 39.93 23.85 39.76 23.91 39.67 23.97 39.63 24.09 39.59 24.22 39.59 24.34 39.63 24.51 39.72 25.12 40.14 25.12 39.55"/><polyline class="a" points="25.77 43.83 25.72 43.75 25.54 43.61 26.81 43.61"/><path class="a" d="M25.54,42.89l.06.14.12,0h.11L26,43l.06-.09.06-.17.06-.12.12-.08.12,0h.18l.12,0,.06,0,.06.13v.16l-.06.14c-.9.42-.47-.71-1.15-.43l-.06.13Z"/><polyline class="a" points="25.95 41.7 26.14 41.75 26.26 41.84 26.32 41.96 26.32 42.01 26.26 42.13 26.14 42.22 25.95 42.25 25.89 42.25 25.72 42.22 25.6 42.13 25.54 42.01 25.54 41.96 25.6 41.84 25.72 41.75 25.95 41.7 26.26 41.7 26.57 41.75 26.75 41.84 26.81 41.96 26.81 42.05 26.75 42.17 26.63 42.22"/><polygon class="a" points="26.69 41.32 26.75 41.37 26.81 41.32 26.75 41.29 26.69 41.32"/><polygon class="a" points="25.54 40.74 25.6 40.86 25.77 40.94 26.08 40.98 26.26 40.98 26.57 40.94 26.75 40.86 26.81 40.74 26.81 40.65 26.75 40.52 26.57 40.43 26.26 40.39 26.08 40.39 25.77 40.43 25.6 40.52 25.54 40.65 25.54 40.74"/><polyline class="a" points="26.81 39.97 25.54 39.55 25.54 40.14"/><polyline class="a" points="27.28 42.74 27.21 42.66 27.04 42.53 28.3 42.53"/><polygon class="a" points="27.04 41.81 27.09 41.94 27.21 41.98 27.34 41.98 27.46 41.94 27.52 41.86 27.58 41.69 27.64 41.56 27.77 41.47 27.89 41.43 28.07 41.43 28.19 41.47 28.24 41.52 28.3 41.64 28.3 41.81 28.24 41.94 28.19 41.98 28.07 42.02 27.89 42.02 27.77 41.98 27.64 41.9 27.58 41.78 27.52 41.6 27.46 41.52 27.34 41.47 27.21 41.47 27.09 41.52 27.04 41.64 27.04 41.81"/><polyline class="a" points="27.46 40.63 27.64 40.67 27.77 40.75 27.83 40.88 27.83 40.92 27.77 41.05 27.64 41.14 27.46 41.18 27.4 41.18 27.21 41.14 27.09 41.05 27.04 40.92 27.04 40.88 27.09 40.75 27.21 40.67 27.46 40.63 27.77 40.63 28.07 40.67 28.24 40.75 28.3 40.88 28.3 40.97 28.24 41.09 28.13 41.14"/><polyline class="a" points="28.83 43.83 28.77 43.75 28.6 43.61 29.87 43.61"/><path class="a" d="M28.6,42.89l.06.14.11,0h.12L29,43l.06-.09.06-.17.06-.12.12-.08.12,0h.18l.12,0,.06,0,.06.13v.16l-.06.14c-.9.42-.47-.72-1.15-.43l-.06.13Z"/><polyline class="a" points="29.01 41.7 29.2 41.75 29.32 41.84 29.38 41.96 29.38 42.01 29.32 42.13 29.2 42.22 29.01 42.25 28.95 42.25 28.77 42.22 28.66 42.13 28.6 42.01 28.6 41.96 28.66 41.84 28.77 41.75 29.01 41.7 29.32 41.7 29.63 41.75 29.81 41.84 29.87 41.96 29.87 42.05 29.81 42.17 29.69 42.22"/><polygon class="a" points="29.75 41.32 29.81 41.37 29.87 41.32 29.81 41.29 29.75 41.32"/><polygon class="a" points="28.6 40.74 28.66 40.86 28.83 40.94 29.14 40.98 29.32 40.98 29.63 40.94 29.81 40.86 29.87 40.74 29.87 40.65 29.81 40.52 29.63 40.43 29.32 40.39 29.14 40.39 28.83 40.43 28.66 40.52 28.6 40.65 28.6 40.74"/><path class="a" d="M28.6,39.63v.42l.54,0-.06,0c-.42-.75,1.29-.61.67,0l-.12,0"/><polyline class="a" points="30.34 43.81 30.27 43.72 30.09 43.6 31.36 43.6"/><polyline class="a" points="30.52 42.53 30.7 42.57 30.82 42.66 30.89 42.79 30.89 42.83 30.82 42.96 30.7 43.05 30.52 43.09 30.46 43.09 30.27 43.05 30.15 42.96 30.09 42.83 30.09 42.79 30.15 42.66 30.27 42.57 30.52 42.53 30.82 42.53 31.12 42.57 31.3 42.66 31.36 42.79 31.36 42.88 31.3 43 31.18 43.05"/><polygon class="a" points="30.09 41.98 30.15 42.11 30.34 42.19 30.64 42.24 30.82 42.24 31.12 42.19 31.3 42.11 31.36 41.98 31.36 41.9 31.3 41.78 31.12 41.69 30.82 41.64 30.64 41.64 30.34 41.69 30.15 41.78 30.09 41.9 30.09 41.98"/><polygon class="a" points="31.24 41.3 31.3 41.35 31.36 41.3 31.3 41.26 31.24 41.3"/><polyline class="a" points="30.34 40.83 30.27 40.75 30.09 40.63 31.36 40.63"/><polyline class="a" points="30.52 39.56 30.7 39.61 30.82 39.7 30.89 39.82 30.89 39.87 30.82 39.99 30.7 40.08 30.52 40.11 30.46 40.11 30.27 40.08 30.15 39.99 30.09 39.87 30.09 39.82 30.15 39.7 30.27 39.61 30.52 39.56 30.82 39.56 31.12 39.61 31.3 39.7 31.36 39.82 31.36 39.9 31.3 40.04 31.18 40.08"/><polyline class="a" points="32.45 43.84 32.39 43.76 32.21 43.64 33.48 43.64"/><polyline class="a" points="32.64 42.57 32.82 42.62 32.93 42.71 32.99 42.83 32.99 42.88 32.93 43 32.82 43.09 32.64 43.12 32.58 43.12 32.39 43.09 32.27 43 32.21 42.88 32.21 42.83 32.27 42.71 32.39 42.62 32.64 42.57 32.93 42.57 33.24 42.62 33.42 42.71 33.48 42.83 33.48 42.91 33.42 43.05 33.3 43.09"/><polygon class="a" points="32.21 42.02 32.27 42.16 32.45 42.24 32.76 42.28 32.93 42.28 33.24 42.24 33.42 42.16 33.48 42.02 33.48 41.94 33.42 41.81 33.24 41.73 32.93 41.69 32.76 41.69 32.45 41.73 32.27 41.81 32.21 41.94 32.21 42.02"/><polygon class="a" points="33.36 41.35 33.42 41.38 33.48 41.35 33.42 41.3 33.36 41.35"/><polyline class="a" points="32.51 40.97 32.45 40.97 32.33 40.92 32.27 40.88 32.21 40.8 32.21 40.63 32.27 40.54 32.33 40.5 32.45 40.45 32.58 40.45 32.7 40.5 32.88 40.59 33.48 41.01 33.48 40.42"/><polyline class="a" points="32.21 39.73 33.05 40.16 33.05 39.52"/><line class="a" x1="32.21" y1="39.73" x2="33.48" y2="39.73"/><polyline class="a" points="38.12 43.83 38.07 43.75 37.88 43.61 39.16 43.61"/><path class="a" d="M37.89,42.89l.06.14.12,0h.11l.12,0,.06-.09.06-.17.06-.12.12-.08.12,0h.18l.12,0,.06,0,.06.13v.16L39.1,43c-.9.42-.46-.71-1.15-.43l-.06.13Z"/><polyline class="a" points="38.3 41.7 38.49 41.75 38.61 41.84 38.67 41.96 38.67 42.01 38.61 42.13 38.49 42.22 38.3 42.25 38.24 42.25 38.07 42.22 37.95 42.13 37.89 42.01 37.89 41.96 37.95 41.84 38.07 41.75 38.3 41.7 38.61 41.7 38.91 41.75 39.1 41.84 39.16 41.96 39.16 42.05 39.1 42.17 38.98 42.22"/><polygon class="a" points="39.04 41.32 39.1 41.37 39.16 41.32 39.1 41.29 39.04 41.32"/><polyline class="a" points="38.3 40.43 38.49 40.48 38.61 40.56 38.67 40.69 38.67 40.74 38.61 40.86 38.49 40.94 38.3 40.98 38.24 40.98 38.07 40.94 37.95 40.86 37.89 40.74 37.89 40.69 37.95 40.56 38.07 40.48 38.3 40.43 38.61 40.43 38.91 40.48 39.1 40.56 39.16 40.69 39.16 40.77 39.1 40.91 38.98 40.94"/><path class="a" d="M37.89,39.63v.42l.54,0-.06,0c-.42-.75,1.29-.61.67,0l-.12,0"/><polyline class="a" points="52.58 43.83 52.52 43.75 52.34 43.61 53.61 43.61"/><path class="a" d="M52.34,42.89l.06.14.12,0h.11l.12,0,.06-.09.06-.17.06-.12.12-.08.12,0h.18l.12,0,.06,0,.06.13v.16l-.06.14c-.9.42-.47-.71-1.15-.43l-.06.13Z"/><polyline class="a" points="52.75 41.7 52.94 41.75 53.06 41.84 53.12 41.96 53.12 42.01 53.06 42.13 52.94 42.22 52.75 42.25 52.69 42.25 52.52 42.22 52.4 42.13 52.34 42.01 52.34 41.96 52.4 41.84 52.52 41.75 52.75 41.7 53.06 41.7 53.37 41.75 53.55 41.84 53.61 41.96 53.61 42.05 53.55 42.17 53.43 42.22"/><polygon class="a" points="53.49 41.32 53.55 41.37 53.61 41.32 53.55 41.29 53.49 41.32"/><polyline class="a" points="52.34 40.91 52.34 40.43 52.81 40.69 52.81 40.56 52.88 40.48 52.94 40.43 53.12 40.39 53.24 40.39 53.43 40.43 53.55 40.52 53.61 40.65 53.61 40.77 53.55 40.91 53.49 40.94 53.37 40.98"/><polyline class="a" points="52.63 40.1 52.58 40.1 52.46 40.05 52.4 40.01 52.34 39.93 52.34 39.76 52.4 39.67 52.46 39.63 52.58 39.59 52.69 39.59 52.82 39.63 53 39.72 53.61 40.14 53.61 39.55"/><polyline class="a" points="61.94 43.81 61.88 43.72 61.7 43.6 62.97 43.6"/><polygon class="a" points="61.7 42.88 61.76 43 61.88 43.05 62.01 43.05 62.13 43 62.19 42.91 62.25 42.74 62.31 42.62 62.42 42.53 62.54 42.49 62.73 42.49 62.85 42.53 62.91 42.57 62.97 42.71 62.97 42.88 62.91 43 62.85 43.05 62.73 43.09 62.54 43.09 62.42 43.05 62.31 42.96 62.25 42.83 62.19 42.66 62.13 42.57 62.01 42.53 61.88 42.53 61.76 42.57 61.7 42.71 61.7 42.88"/><polyline class="a" points="62.13 41.69 62.31 41.73 62.42 41.81 62.48 41.94 62.48 41.98 62.42 42.11 62.31 42.19 62.13 42.24 62.07 42.24 61.88 42.19 61.76 42.11 61.7 41.98 61.7 41.94 61.76 41.81 61.88 41.73 62.13 41.69 62.42 41.69 62.73 41.73 62.91 41.81 62.97 41.94 62.97 42.02 62.91 42.16 62.79 42.19"/><polygon class="a" points="62.85 41.3 62.91 41.35 62.97 41.3 62.91 41.26 62.85 41.3"/><polygon class="a" points="61.7 40.71 61.76 40.83 61.95 40.92 62.25 40.97 62.42 40.97 62.73 40.92 62.91 40.83 62.97 40.71 62.97 40.63 62.91 40.5 62.73 40.42 62.42 40.37 62.25 40.37 61.95 40.42 61.76 40.5 61.7 40.63 61.7 40.71"/><polyline class="a" points="62.13 39.56 62.31 39.61 62.42 39.7 62.48 39.82 62.48 39.87 62.42 39.99 62.31 40.08 62.13 40.11 62.07 40.11 61.88 40.08 61.76 39.99 61.7 39.87 61.7 39.82 61.76 39.7 61.88 39.61 62.13 39.56 62.42 39.56 62.73 39.61 62.91 39.7 62.97 39.82 62.97 39.9 62.91 40.04 62.79 40.08"/><polyline class="a" points="73.53 43.4 73.47 43.32 73.29 43.2 74.56 43.2"/><polygon class="a" points="73.29 42.47 73.35 42.6 73.47 42.65 73.59 42.65 73.7 42.6 73.77 42.51 73.83 42.34 73.89 42.22 74.01 42.13 74.13 42.09 74.32 42.09 74.44 42.13 74.5 42.17 74.56 42.3 74.56 42.47 74.5 42.6 74.44 42.65 74.32 42.68 74.13 42.68 74.01 42.65 73.89 42.56 73.83 42.42 73.77 42.25 73.7 42.17 73.59 42.13 73.47 42.13 73.35 42.17 73.29 42.3 73.29 42.47"/><path class="a" d="M73.29,41.62l.06.14.12,0h.12l.11,0,.06-.09.06-.17.06-.12.12-.08.12,0h.18l.12,0,.06,0,.06.13v.16l-.06.14c-.9.42-.47-.72-1.15-.43l-.06.13Z"/><polygon class="a" points="74.44 40.91 74.5 40.94 74.56 40.91 74.5 40.86 74.44 40.91"/><path class="a" d="M73.29,40.36l.06.12.12,0h.12l.11,0,.06-.08.06-.17.06-.12L74,40l.12,0h.18l.12,0,.06,0,.06.14v.17l-.06.12c-.9.42-.47-.72-1.15-.43l-.06.14Z"/><polyline class="a" points="85.49 43.83 85.43 43.75 85.24 43.61 86.52 43.61"/><path class="a" d="M85.24,42.89l.06.14.12,0h.12l.11,0,.06-.09.06-.17.06-.12.12-.08.12,0h.18l.12,0,.06,0,.06.13v.16l-.06.14c-.9.42-.47-.72-1.15-.43l-.06.13Z"/><polygon class="a" points="85.24 42.05 85.31 42.17 85.43 42.22 85.55 42.22 85.66 42.17 85.72 42.09 85.78 41.92 85.84 41.79 85.97 41.7 86.09 41.67 86.27 41.67 86.39 41.7 86.45 41.75 86.52 41.87 86.52 42.05 86.45 42.17 86.39 42.22 86.27 42.25 86.09 42.25 85.97 42.22 85.84 42.13 85.78 42.01 85.72 41.84 85.66 41.75 85.55 41.7 85.43 41.7 85.31 41.75 85.24 41.87 85.24 42.05"/><polygon class="a" points="86.39 41.32 86.46 41.37 86.52 41.32 86.46 41.29 86.39 41.32"/><polyline class="a" points="85.43 40.43 85.31 40.48 85.24 40.6 85.24 40.69 85.31 40.82 85.49 40.91 85.78 40.94 86.09 40.94 86.33 40.91 86.46 40.82 86.52 40.69 86.52 40.65 86.46 40.52 86.33 40.43 86.15 40.39 86.09 40.39 85.91 40.43 85.78 40.52 85.72 40.65 85.72 40.69 85.78 40.82 85.91 40.91 86.09 40.94"/><polyline class="a" points="85.55 40.1 85.49 40.1 85.37 40.05 85.31 40.01 85.24 39.93 85.24 39.76 85.31 39.67 85.37 39.63 85.49 39.59 85.61 39.59 85.72 39.63 85.91 39.72 86.52 40.14 86.52 39.55"/><polyline class="a" points="101.79 43.83 101.73 43.75 101.54 43.61 102.82 43.61"/><path class="a" d="M101.54,42.89l.06.14.12,0h.12l.12,0,.06-.09.06-.17.06-.12.12-.08.11,0h.18l.12,0,.06,0,.06.13v.16l-.06.14c-.88.42-.45-.72-1.15-.43l-.06.13Z"/><polygon class="a" points="101.54 42.05 101.61 42.17 101.73 42.22 101.85 42.22 101.97 42.17 102.03 42.09 102.09 41.92 102.16 41.79 102.28 41.7 102.39 41.67 102.57 41.67 102.69 41.7 102.76 41.75 102.82 41.87 102.82 42.05 102.76 42.17 102.69 42.22 102.57 42.25 102.39 42.25 102.28 42.22 102.16 42.13 102.09 42.01 102.03 41.84 101.97 41.75 101.85 41.7 101.73 41.7 101.61 41.75 101.54 41.87 101.54 42.05"/><polygon class="a" points="102.69 41.32 102.76 41.37 102.82 41.32 102.76 41.29 102.69 41.32"/><path class="a" d="M101.54,40.91v-.48l.49.26v-.12c.21-.42,1.15,0,.66.38l-.12,0"/><polyline class="a" points="102.82 39.97 101.54 39.55 101.54 40.14"/><polyline class="a" points="113.44 43.81 113.38 43.72 113.21 43.6 114.47 43.6"/><polygon class="a" points="113.21 42.88 113.26 43 113.38 43.05 113.5 43.05 113.62 43 113.68 42.91 113.75 42.74 113.81 42.62 113.93 42.53 114.05 42.49 114.23 42.49 114.36 42.53 114.42 42.57 114.47 42.71 114.47 42.88 114.42 43 114.36 43.05 114.23 43.09 114.05 43.09 113.93 43.05 113.81 42.96 113.75 42.83 113.68 42.66 113.62 42.57 113.5 42.53 113.38 42.53 113.26 42.57 113.21 42.71 113.21 42.88"/><polygon class="a" points="113.21 42.02 113.26 42.16 113.38 42.19 113.5 42.19 113.62 42.16 113.68 42.07 113.75 41.9 113.81 41.78 113.93 41.69 114.05 41.64 114.23 41.64 114.36 41.69 114.42 41.73 114.47 41.86 114.47 42.02 114.42 42.16 114.36 42.19 114.23 42.24 114.05 42.24 113.93 42.19 113.81 42.11 113.75 41.98 113.68 41.81 113.62 41.73 113.5 41.69 113.38 41.69 113.26 41.73 113.21 41.86 113.21 42.02"/><polygon class="a" points="114.36 41.3 114.42 41.35 114.47 41.3 114.42 41.26 114.36 41.3"/><polyline class="a" points="113.5 40.92 113.44 40.92 113.32 40.88 113.25 40.83 113.21 40.75 113.21 40.59 113.25 40.5 113.32 40.45 113.44 40.42 113.56 40.42 113.68 40.45 113.87 40.54 114.47 40.97 114.47 40.37"/><polyline class="a" points="113.62 39.56 113.81 39.61 113.93 39.7 113.99 39.82 113.99 39.87 113.93 39.99 113.81 40.08 113.62 40.11 113.56 40.11 113.38 40.08 113.26 39.99 113.21 39.87 113.21 39.82 113.26 39.7 113.38 39.61 113.62 39.56 113.93 39.56 114.23 39.61 114.42 39.7 114.47 39.82 114.47 39.9 114.42 40.04 114.3 40.08"/><polyline class="a" points="124.12 43.83 124.06 43.75 123.89 43.61 125.16 43.61"/><path class="a" d="M123.89,42.89,124,43l.11,0h.12l.12,0,.06-.09.06-.17.06-.12.12-.08.12,0h.18l.12,0,.06,0,.06.13v.16l-.06.14c-.9.42-.47-.72-1.15-.43l-.06.13Z"/><polygon class="a" points="123.89 42.05 123.95 42.17 124.06 42.22 124.18 42.22 124.31 42.17 124.37 42.09 124.43 41.92 124.49 41.79 124.61 41.7 124.73 41.67 124.92 41.67 125.04 41.7 125.1 41.75 125.16 41.87 125.16 42.05 125.1 42.17 125.04 42.22 124.92 42.25 124.73 42.25 124.61 42.22 124.49 42.13 124.43 42.01 124.37 41.84 124.31 41.75 124.18 41.7 124.06 41.7 123.95 41.75 123.89 41.87 123.89 42.05"/><polygon class="a" points="125.04 41.32 125.1 41.37 125.16 41.32 125.1 41.29 125.04 41.32"/><polyline class="a" points="124.18 40.94 124.12 40.94 124.01 40.91 123.95 40.86 123.89 40.77 123.89 40.6 123.95 40.52 124.01 40.48 124.12 40.43 124.25 40.43 124.37 40.48 124.55 40.56 125.16 40.98 125.16 40.39"/><polyline class="a" points="124.18 40.1 124.12 40.1 124.01 40.05 123.95 40.01 123.89 39.93 123.89 39.76 123.95 39.67 124.01 39.63 124.12 39.59 124.25 39.59 124.37 39.63 124.55 39.72 125.16 40.14 125.16 39.55"/><polygon class="a" points="1.92 35.66 1.92 34.73 2.24 34.73 2.37 34.77 2.46 34.86 2.5 34.95 2.54 35.08 2.54 35.3 2.5 35.44 2.46 35.52 2.37 35.61 2.24 35.66 1.92 35.66"/><line class="a" x1="2.85" y1="34.73" x2="2.85" y2="35.66"/><polyline class="a" points="3.78 34.86 3.69 34.76 3.56 34.73 3.39 34.73 3.25 34.76 3.17 34.86 3.17 34.95 3.21 35.03 3.25 35.08 3.34 35.12 3.61 35.22 3.69 35.25 3.74 35.3 3.78 35.39 3.78 35.52 3.69 35.61 3.56 35.66 3.39 35.66 3.25 35.61 3.17 35.52"/><line class="a" x1="4.27" y1="34.73" x2="4.27" y2="35.66"/><line class="a" x1="3.96" y1="34.73" x2="4.59" y2="34.73"/><polygon class="a" points="4.84 35.57 4.81 35.61 4.84 35.66 4.89 35.61 4.84 35.57"/><polyline class="a" points="6.18 35.66 6.18 34.73 6.57 34.73 6.71 34.77 6.75 34.81 6.79 34.9 6.79 35.03 6.75 35.12 6.71 35.17 6.57 35.22 6.18 35.22"/><polyline class="a" points="7.11 35.66 7.11 34.73 7.5 34.73 7.63 34.77 7.68 34.81 7.72 34.9 7.72 34.98 7.68 35.08 7.63 35.12 7.5 35.17 7.11 35.17"/><line class="a" x1="7.41" y1="35.17" x2="7.72" y2="35.66"/><path class="a" d="M8.26,34.73l-.09,0-.1.1a.55.55,0,0,0,.18.8h.17l.1,0a.59.59,0,0,0,0-.84l-.1,0Z"/><path class="a" d="M9.63,34.95l0-.09-.09-.1c-.28-.14-.48,0-.53.32v.22l0,.13a.32.32,0,0,0,.57.09l0-.09V35.3H9.41"/><polyline class="a" points="9.94 35.66 9.94 34.73 10.34 34.73 10.47 34.77 10.51 34.81 10.56 34.9 10.56 34.98 10.51 35.08 10.47 35.12 10.34 35.17 9.94 35.17"/><line class="a" x1="10.25" y1="35.17" x2="10.56" y2="35.66"/><polyline class="a" points="10.87 35.66 10.87 34.73 11.44 34.73"/><line class="a" x1="10.87" y1="35.17" x2="11.22" y2="35.17"/><line class="a" x1="10.87" y1="35.66" x2="11.44" y2="35.66"/><polyline class="a" points="12.29 34.86 12.2 34.76 12.06 34.73 11.89 34.73 11.76 34.76 11.67 34.86 11.67 34.95 11.71 35.03 11.76 35.08 11.84 35.12 12.11 35.22 12.2 35.25 12.25 35.3 12.29 35.39 12.29 35.52 12.2 35.61 12.06 35.66 11.89 35.66 11.76 35.61 11.67 35.52"/><path class="a" d="M13.18,34.86l-.1-.1-.12,0c-.26,0-.57.07-.32.35l.08,0,.27.1.09,0,0,0,0,.08v.14l-.1.08-.12,0h-.18l-.13,0-.09-.08"/><line class="a" x1="13.48" y1="34.73" x2="13.48" y2="35.66"/><polyline class="a" points="13.71 34.73 14.06 35.66 14.41 34.73"/><polyline class="a" points="14.5 35.66 14.86 34.73 15.21 35.66"/><line class="a" x1="14.63" y1="35.34" x2="15.08" y2="35.34"/><path class="a" d="M2.24,36.27l-.09.1a.92.92,0,0,0,0,1.24l.09.09"/><line class="a" x1="2.54" y1="36.76" x2="2.54" y2="37.38"/><polyline class="a" points="2.54 36.94 2.68 36.81 2.76 36.76 2.9 36.76 2.98 36.81 3.03 36.94 3.03 37.38"/><polyline class="a" points="3.03 36.94 3.17 36.81 3.25 36.76 3.39 36.76 3.48 36.81 3.52 36.94 3.52 37.38"/><path class="a" d="M3.83,36.27l.09.1a1,1,0,0,1,0,1.24l-.09.09"/><polygon class="a" points="1.92 30.81 1.92 29.88 2.24 29.88 2.37 29.93 2.46 30.02 2.5 30.1 2.54 30.24 2.54 30.46 2.5 30.59 2.46 30.68 2.37 30.76 2.24 30.81 1.92 30.81"/><line class="a" x1="2.85" y1="29.88" x2="2.85" y2="30.81"/><polyline class="a" points="3.78 30.02 3.69 29.93 3.56 29.88 3.39 29.88 3.25 29.93 3.17 30.02 3.17 30.1 3.21 30.19 3.25 30.24 3.34 30.29 3.61 30.37 3.69 30.41 3.74 30.46 3.78 30.54 3.78 30.68 3.69 30.76 3.56 30.81 3.39 30.81 3.25 30.76 3.17 30.68"/><line class="a" x1="4.27" y1="29.88" x2="4.27" y2="30.81"/><line class="a" x1="3.96" y1="29.88" x2="4.59" y2="29.88"/><polygon class="a" points="4.84 30.73 4.81 30.76 4.84 30.81 4.89 30.76 4.84 30.73"/><polyline class="a" points="6.18 30.81 6.18 29.88 6.57 29.88 6.71 29.93 6.75 29.97 6.79 30.05 6.79 30.19 6.75 30.29 6.71 30.32 6.57 30.37 6.18 30.37"/><polyline class="a" points="6.97 30.81 7.33 29.88 7.68 30.81"/><line class="a" x1="7.11" y1="30.51" x2="7.55" y2="30.51"/><polyline class="a" points="7.9 30.81 7.9 29.88 8.31 29.88 8.43 29.93 8.48 29.97 8.53 30.05 8.53 30.15 8.48 30.24 8.43 30.29 8.31 30.32 7.9 30.32"/><line class="a" x1="8.21" y1="30.32" x2="8.53" y2="30.81"/><polyline class="a" points="8.79 30.81 9.41 29.88 8.79 29.88"/><line class="a" x1="8.79" y1="30.81" x2="9.41" y2="30.81"/><line class="a" x1="9.72" y1="29.88" x2="9.72" y2="30.81"/><polyline class="a" points="9.94 30.81 10.29 29.88 10.65 30.81"/><line class="a" x1="10.07" y1="30.51" x2="10.51" y2="30.51"/><polyline class="a" points="10.87 29.88 10.87 30.81 11.4 30.81"/><polyline class="a" points="11.62 30.81 11.62 29.88 12.2 29.88"/><line class="a" x1="11.62" y1="30.32" x2="11.98" y2="30.32"/><line class="a" x1="11.62" y1="30.81" x2="12.2" y2="30.81"/><path class="a" d="M2.24,31.44l-.09.09a.92.92,0,0,0,0,1.24l.09.08"/><line class="a" x1="2.54" y1="31.91" x2="2.54" y2="32.54"/><polyline class="a" points="2.54 32.1 2.68 31.96 2.76 31.91 2.9 31.91 2.98 31.96 3.03 32.1 3.03 32.54"/><polyline class="a" points="3.03 32.1 3.17 31.96 3.25 31.91 3.39 31.91 3.48 31.96 3.52 32.1 3.52 32.54"/><path class="a" d="M3.83,31.44l.09.09a1,1,0,0,1,0,1.24l-.09.08"/><polyline class="a" points="1.92 27.86 1.92 26.93 2.32 26.93 2.46 26.97 2.5 27.02 2.54 27.1 2.54 27.24 2.5 27.32 2.46 27.37 2.32 27.41 1.92 27.41"/><line class="a" x1="2.85" y1="26.93" x2="2.85" y2="27.86"/><path class="a" d="M3.83,27.15l0-.1L3.69,27a.33.33,0,0,0-.49.18l0,.12v.23l0,.12,0,.1.09.09.08,0h.18l.08,0,.09-.09,0-.1"/><path class="a" d="M4.76,27.15l0-.1L4.62,27a.33.33,0,0,0-.49.18l0,.12v.23l0,.12,0,.1.09.09.08,0h.18l.08,0,.09-.09,0-.1"/><line class="a" x1="5.07" y1="26.93" x2="5.07" y2="27.86"/><line class="a" x1="5.69" y1="26.93" x2="5.69" y2="27.86"/><line class="a" x1="5.07" y1="27.37" x2="5.69" y2="27.37"/><polyline class="a" points="6.04 27.86 6.04 26.93 6.62 26.93"/><line class="a" x1="6.04" y1="27.37" x2="6.4" y2="27.37"/><line class="a" x1="6.04" y1="27.86" x2="6.62" y2="27.86"/><line class="a" x1="7.06" y1="26.93" x2="7.06" y2="27.86"/><line class="a" x1="6.75" y1="26.93" x2="7.38" y2="26.93"/><line class="a" x1="7.77" y1="26.93" x2="7.77" y2="27.86"/><line class="a" x1="7.46" y1="26.93" x2="8.08" y2="26.93"/><path class="a" d="M8.53,26.93l-.1,0-.09.08c-.15.26-.13.69.18.81H8.7l.09,0a.56.56,0,0,0,0-.84l-.09,0Z"/><path class="a" d="M2.19,40.31l-.09,0-.08.1a.53.53,0,0,0,.17.8h.18l.08,0,.09-.09,0-.08,0-.14v-.22l0-.14,0-.08-.09-.1-.08,0Z"/><line class="a" x1="2.32" y1="41.05" x2="2.59" y2="41.32"/><polyline class="a" points="2.95 40.31 2.95 40.97 2.98 41.1 3.08 41.19 3.21 41.24 3.3 41.24 3.42 41.19 3.52 41.1 3.56 40.97 3.56 40.31"/><path class="a" d="M4.14,40.31l-.09,0-.08.1a.55.55,0,0,0,.17.8h.18l.08,0a.56.56,0,0,0,0-.84l-.08,0Z"/><line class="a" x1="5.07" y1="40.31" x2="5.07" y2="41.24"/><line class="a" x1="4.76" y1="40.31" x2="5.38" y2="40.31"/><polyline class="a" points="5.47 41.24 5.82 40.31 6.18 41.24"/><line class="a" x1="5.6" y1="40.92" x2="6.04" y2="40.92"/><line class="a" x1="7.5" y1="40.31" x2="7.5" y2="41.24"/><line class="a" x1="7.19" y1="40.31" x2="7.82" y2="40.31"/><polyline class="a" points="8.04 41.24 8.04 40.31 8.61 40.31"/><line class="a" x1="8.04" y1="40.75" x2="8.39" y2="40.75"/><line class="a" x1="8.04" y1="41.24" x2="8.61" y2="41.24"/><polyline class="a" points="8.88 41.24 8.88 40.31 9.28 40.31 9.41 40.34 9.46 40.39 9.49 40.48 9.49 40.56 9.46 40.66 9.41 40.7 9.28 40.75 8.88 40.75"/><line class="a" x1="9.19" y1="40.75" x2="9.5" y2="41.24"/><polyline class="a" points="9.81 41.24 9.81 40.31 10.21 40.31 10.34 40.34 10.39 40.39 10.43 40.48 10.43 40.56 10.39 40.66 10.34 40.7 10.21 40.75 9.81 40.75"/><line class="a" x1="10.12" y1="40.75" x2="10.43" y2="41.24"/><polyline class="a" points="10.74 41.24 10.74 40.31 11.32 40.31"/><line class="a" x1="10.74" y1="40.75" x2="11.1" y2="40.75"/><line class="a" x1="10.74" y1="41.24" x2="11.32" y2="41.24"/><polyline class="a" points="11.58 41.24 11.58 40.31 12.2 41.24 12.2 40.31"/><path class="a" d="M12.77,40.31l-.09,0-.08.1a.54.54,0,0,0,.17.8H13l.08,0,.09-.09,0-.08,0-.14v-.22l0-.14,0-.08-.09-.1-.08,0Z"/><path class="a" d="M2.24,41.85l-.09.1a.92.92,0,0,0,0,1.24l.09.09"/><line class="a" x1="2.54" y1="42.34" x2="2.54" y2="42.96"/><polyline class="a" points="2.54 42.52 2.68 42.39 2.76 42.34 2.9 42.34 2.98 42.39 3.03 42.52 3.03 42.96"/><polyline class="a" points="3.03 42.52 3.17 42.39 3.25 42.34 3.39 42.34 3.48 42.39 3.52 42.52 3.52 42.96"/><polyline class="a" points="5.25 42.47 5.2 42.39 5.07 42.34 4.93 42.34 4.81 42.39 4.76 42.47 4.81 42.56 4.89 42.61 5.11 42.66 5.2 42.69 5.25 42.78 5.25 42.83 5.2 42.91 5.07 42.96 4.93 42.96 4.81 42.91 4.76 42.83"/><polygon class="a" points="5.6 42.88 5.55 42.91 5.6 42.96 5.64 42.91 5.6 42.88"/><line class="a" x1="6" y1="42.03" x2="6" y2="42.96"/><polygon class="a" points="6.4 42.88 6.35 42.91 6.4 42.96 6.45 42.91 6.4 42.88"/><line class="a" x1="6.79" y1="42.34" x2="6.79" y2="42.96"/><polyline class="a" points="6.79 42.52 6.93 42.39 7.02 42.34 7.15 42.34 7.24 42.39 7.28 42.52 7.28 42.96"/><polyline class="a" points="7.28 42.52 7.42 42.39 7.5 42.34 7.63 42.34 7.72 42.39 7.77 42.52 7.77 42.96"/><polygon class="a" points="8.17 42.88 8.13 42.91 8.17 42.96 8.21 42.91 8.17 42.88"/><path class="a" d="M8.53,41.85l.09.1a1,1,0,0,1,0,1.24l-.09.09"/><polygon class="a" points="26.48 32.1 26.53 32.22 26.66 32.32 26.89 32.35 27.01 32.35 27.23 32.32 27.36 32.22 27.41 32.1 27.41 32 27.36 31.88 27.23 31.79 27.01 31.74 26.89 31.74 26.66 31.79 26.53 31.88 26.48 32 26.48 32.1"/><polygon class="a" points="27.32 31.39 27.36 31.44 27.41 31.39 27.36 31.35 27.32 31.39"/><polyline class="a" points="27.41 30.86 26.48 30.42 26.48 31.03"/><polygon class="a" points="28.01 32.1 28.06 32.23 28.19 32.32 28.41 32.37 28.54 32.37 28.76 32.32 28.89 32.23 28.94 32.1 28.94 32.01 28.89 31.88 28.76 31.79 28.54 31.74 28.41 31.74 28.19 31.79 28.06 31.88 28.01 32.01 28.01 32.1"/><polygon class="a" points="28.86 31.4 28.89 31.44 28.94 31.4 28.89 31.35 28.86 31.4"/><polyline class="a" points="28.94 30.86 28.01 30.42 28.01 31.05"/><line class="a" x1="26.19" y1="25.01" x2="26.19" y2="4.05"/><line class="a" x1="16.81" y1="25.01" x2="128.01" y2="25.01"/><line class="b" x1="23.59" y1="2.26" x2="24.58" y2="1.27"/><line class="b" x1="24.58" y1="2.26" x2="23.59" y2="1.27"/><line class="b" x1="29.59" y1="1.93" x2="30.57" y2="0.95"/><line class="b" x1="30.57" y1="1.93" x2="29.59" y2="0.95"/><line class="c" x1="28.76" y1="4.57" x2="29.74" y2="3.6"/><line class="c" x1="29.74" y1="4.57" x2="28.76" y2="3.6"/><line class="c" x1="24.02" y1="4.18" x2="25" y2="3.2"/><line class="c" x1="25" y1="4.18" x2="24.02" y2="3.2"/><line class="d" x1="27.69" y1="3.51" x2="27.69" y2="4.89"/><path class="d" d="M27,4.2h1.38l0-.17-.07-.17A.7.7,0,0,0,27,4v.36a.7.7,0,0,0,1.27.17l.07-.17,0-.18"/><polyline class="a" points="17.45 31.09 17.55 31.04 17.67 30.91 17.67 31.84"/><polygon class="a" points="18.29 31.75 18.25 31.79 18.29 31.84 18.33 31.79 18.29 31.75"/><polyline class="a" points="19.09 30.91 18.65 31.53 19.31 31.53"/><line class="a" x1="19.09" y1="30.91" x2="19.09" y2="31.84"/><line class="a" x1="3.73" y1="23.6" x2="5.97" y2="23.6"/><polygon class="a" points="8.21 23.6 5.97 25.01 5.97 23.6 8.21 23.6"/><line class="a" x1="7.84" y1="23.84" x2="8.06" y2="23.6"/><line class="a" x1="6.09" y1="24.93" x2="7.42" y2="23.6"/><line class="a" x1="5.97" y1="24.4" x2="6.77" y2="23.6"/><line class="a" x1="5.97" y1="23.75" x2="6.11" y2="23.6"/><line class="a" x1="7.02" y1="24.35" x2="6.28" y2="23.6"/><line class="a" x1="6.62" y1="24.59" x2="5.97" y2="23.95"/><line class="a" x1="6.22" y1="24.85" x2="5.97" y2="24.61"/><line class="a" x1="7.43" y1="24.09" x2="6.94" y2="23.6"/><line class="a" x1="7.83" y1="23.85" x2="7.59" y2="23.6"/><line class="a" x1="3.73" y1="23.6" x2="5.97" y2="25.01"/><path class="a" d="M1.58,21.62l-.11,0-.1.1c-.18.27-.14.82.21.9h.2l.1,0a.63.63,0,0,0,0-1l-.1,0Z"/><line class="a" x1="1.72" y1="22.48" x2="2.03" y2="22.77"/><line class="a" x1="2.42" y1="21.98" x2="2.42" y2="22.67"/><polyline class="a" points="2.42 22.27 2.48 22.12 2.58 22.02 2.68 21.98 2.83 21.98"/><rect class="a" x="3.05" y="21.64" width="0.07" height="0.07" transform="translate(-14.42 8.52) rotate(-44.99)"/><line class="a" x1="3.08" y1="22.03" x2="3.08" y2="22.67"/><polyline class="a" points="3.79 21.62 3.68 21.62 3.58 21.67 3.54 21.82 3.54 22.67"/><line class="a" x1="3.39" y1="21.98" x2="3.73" y2="21.98"/><rect class="a" x="4.1" y="21.99" width="0.07" height="0.07" transform="translate(-14.36 9.38) rotate(-45)"/><rect class="a" x="4.1" y="22.59" width="0.07" height="0.07" transform="translate(-14.79 9.55) rotate(-45)"/><polyline class="a" points="5.75 21.82 5.85 21.77 6 21.62 6 22.67"/><polygon class="a" points="6.85 21.62 6.71 21.67 6.66 21.77 6.66 21.87 6.71 21.98 6.8 22.02 7.01 22.07 7.16 22.12 7.26 22.22 7.3 22.32 7.3 22.48 7.26 22.58 7.21 22.62 7.06 22.67 6.85 22.67 6.71 22.62 6.66 22.58 6.61 22.48 6.61 22.32 6.66 22.22 6.75 22.12 6.91 22.07 7.11 22.02 7.21 21.98 7.26 21.87 7.26 21.77 7.21 21.67 7.06 21.62 6.85 21.62"/><polygon class="a" points="7.92 21.62 7.76 21.67 7.66 21.82 7.61 22.07 7.61 22.22 7.66 22.48 7.76 22.62 7.92 22.67 8.01 22.67 8.16 22.62 8.27 22.48 8.32 22.22 8.32 22.07 8.27 21.82 8.16 21.67 8.01 21.62 7.92 21.62"/><line class="a" x1="9.73" y1="21.98" x2="9.73" y2="22.67"/><polyline class="a" points="9.73 22.17 9.88 22.02 9.97 21.98 10.13 21.98 10.23 22.02 10.28 22.17 10.28 22.67"/><polyline class="a" points="10.28 22.17 10.43 22.02 10.54 21.98 10.68 21.98 10.78 22.02 10.83 22.17 10.83 22.67"/><polyline class="a" points="12.8 22.12 12.75 22.02 12.59 21.98 12.44 21.98 12.3 22.02 12.24 22.12 12.3 22.22 12.39 22.27 12.64 22.32 12.75 22.37 12.8 22.48 12.8 22.53 12.75 22.63 12.59 22.67 12.44 22.67 12.3 22.63 12.24 22.53"/><rect class="a" x="13.17" y="22.59" width="0.07" height="0.07" transform="translate(-12.13 15.96) rotate(-45)"/><line class="a" x1="13.66" y1="21.62" x2="13.66" y2="22.67"/><rect class="a" x="14.07" y="22.59" width="0.07" height="0.07" transform="translate(-11.87 16.6) rotate(-45)"/><line class="a" x1="14.56" y1="21.98" x2="14.56" y2="22.67"/><polyline class="a" points="14.56 22.17 14.71 22.02 14.81 21.98 14.96 21.98 15.06 22.02 15.11 22.17 15.11 22.67"/><polyline class="a" points="15.11 22.17 15.26 22.02 15.36 21.98 15.52 21.98 15.61 22.02 15.66 22.17 15.66 22.67"/><rect class="a" x="16.08" y="22.59" width="0.07" height="0.07" transform="translate(-11.28 18.02) rotate(-45)"/><line class="a" x1="16.81" y1="25.01" x2="0.94" y2="25.01"/></svg>