<svg xmlns="http://www.w3.org/2000/svg" viewBox="0 0 151.37 50.26"><defs><style>.a,.b,.c,.d,.e,.f{fill:none;stroke-linecap:round;stroke-linejoin:round;stroke-width:0.21px;}.a{stroke:#000;}.b{stroke:red;}.c{stroke:#ffbf00;}.d{stroke:#00b800;}.e{stroke:blue;}.f{stroke:#00bfff;}</style></defs><title>cad1.3</title><polyline class="a" points="16.8 31.57 16.91 31.51 17.08 31.34 17.08 32.54"/><line class="a" x1="16.94" y1="34.25" x2="16.94" y2="37.95"/><line class="a" x1="2.87" y1="29.63" x2="150.39" y2="29.63"/><line class="a" x1="16.94" y1="34.25" x2="150.39" y2="34.25"/><line class="a" x1="16.94" y1="37.95" x2="150.39" y2="37.95"/><line class="a" x1="16.94" y1="43.5" x2="150.39" y2="43.5"/><polyline class="a" points="16.94 49.06 150.39 49.06 150.39 29.63"/><line class="a" x1="25.06" y1="34.25" x2="25.06" y2="37.95"/><line class="a" x1="30.23" y1="34.25" x2="30.23" y2="37.95"/><line class="a" x1="32.29" y1="34.25" x2="32.29" y2="37.95"/><line class="a" x1="34.16" y1="34.25" x2="34.16" y2="37.95"/><line class="a" x1="94.27" y1="34.25" x2="94.27" y2="37.95"/><line class="a" x1="112.26" y1="34.25" x2="112.26" y2="37.95"/><line class="a" x1="130.63" y1="34.25" x2="130.63" y2="37.95"/><line class="a" x1="146.93" y1="34.25" x2="146.93" y2="37.95"/><polyline class="a" points="20.03 35.54 20.52 35.54 20.25 35.89 20.38 35.89 20.47 35.93 20.52 35.98 20.57 36.11 20.57 36.2 20.52 36.33 20.43 36.42 20.3 36.45 20.16 36.45 20.03 36.42 19.99 36.37 19.94 36.28"/><polygon class="a" points="20.91 36.37 20.87 36.42 20.91 36.45 20.96 36.42 20.91 36.37"/><polyline class="a" points="21.79 35.54 21.35 35.54 21.31 35.93 21.35 35.89 21.48 35.84 21.62 35.84 21.75 35.89 21.84 35.98 21.89 36.11 21.89 36.2 21.84 36.33 21.75 36.42 21.62 36.45 21.48 36.45 21.35 36.42 21.31 36.37 21.26 36.28"/><polygon class="a" points="16.27 40.81 16.33 40.95 16.5 41.03 16.81 41.07 16.99 41.07 17.3 41.03 17.48 40.95 17.54 40.81 17.54 40.72 17.48 40.6 17.3 40.52 16.99 40.48 16.81 40.48 16.5 40.52 16.33 40.6 16.27 40.72 16.27 40.81"/><polyline class="a" points="16.6 48.45 16.54 48.36 16.36 48.24 17.63 48.24"/><polygon class="a" points="16.36 47.52 16.42 47.64 16.54 47.69 16.66 47.69 16.78 47.64 16.85 47.55 16.91 47.38 16.97 47.26 17.09 47.17 17.21 47.14 17.38 47.14 17.51 47.17 17.57 47.22 17.63 47.35 17.63 47.52 17.57 47.64 17.51 47.69 17.38 47.73 17.21 47.73 17.09 47.69 16.97 47.6 16.91 47.47 16.85 47.3 16.78 47.22 16.66 47.17 16.54 47.17 16.42 47.22 16.36 47.35 16.36 47.52"/><polyline class="a" points="16.78 46.33 16.97 46.37 17.09 46.45 17.15 46.59 17.15 46.62 17.09 46.74 16.97 46.83 16.78 46.88 16.72 46.88 16.54 46.83 16.42 46.74 16.36 46.62 16.36 46.59 16.42 46.45 16.54 46.37 16.78 46.33 17.09 46.33 17.38 46.37 17.57 46.45 17.63 46.59 17.63 46.67 17.57 46.79 17.45 46.83"/><polygon class="a" points="17.51 45.95 17.57 45.99 17.63 45.95 17.57 45.9 17.51 45.95"/><polygon class="a" points="16.36 45.35 16.42 45.49 16.6 45.56 16.91 45.61 17.09 45.61 17.38 45.56 17.57 45.49 17.63 45.35 17.63 45.27 17.57 45.14 17.38 45.06 17.09 45.01 16.91 45.01 16.6 45.06 16.42 45.14 16.36 45.27 16.36 45.35"/><polyline class="a" points="16.36 44.68 16.36 44.21 16.85 44.46 16.85 44.33 16.91 44.25 16.97 44.21 17.15 44.16 17.26 44.16 17.45 44.21 17.57 44.3 17.63 44.42 17.63 44.54 17.57 44.68 17.51 44.71 17.38 44.76"/><line class="a" x1="146.93" y1="11.43" x2="146.93" y2="29.63"/><line class="a" x1="130.63" y1="11.21" x2="130.63" y2="29.63"/><line class="a" x1="112.26" y1="10.87" x2="112.26" y2="29.63"/><line class="a" x1="94.27" y1="10.65" x2="94.27" y2="29.63"/><line class="b" x1="32.3" y1="6.41" x2="32.31" y2="6.41"/><line class="b" x1="32.5" y1="6.63" x2="32.52" y2="6.61"/><line class="b" x1="32.69" y1="6.85" x2="32.73" y2="6.81"/><line class="b" x1="32.89" y1="7.06" x2="32.94" y2="7.01"/><line class="b" x1="33.08" y1="7.28" x2="33.16" y2="7.21"/><line class="b" x1="33.27" y1="7.5" x2="33.37" y2="7.4"/><line class="b" x1="33.46" y1="7.71" x2="33.57" y2="7.6"/><line class="b" x1="33.66" y1="7.93" x2="33.79" y2="7.79"/><line class="b" x1="33.86" y1="8.14" x2="34" y2="7.99"/><polyline class="b" points="34.05 8.36 34.16 8.23 34.26 8.15"/><line class="b" x1="34.36" y1="8.45" x2="34.66" y2="8.15"/><line class="b" x1="34.97" y1="8.25" x2="35.08" y2="8.15"/><line class="b" x1="36.23" y1="8.21" x2="36.3" y2="8.15"/><line class="b" x1="36.54" y1="8.32" x2="36.71" y2="8.15"/><line class="b" x1="36.83" y1="8.43" x2="37.12" y2="8.15"/><line class="b" x1="37.23" y1="8.44" x2="37.53" y2="8.15"/><line class="b" x1="37.66" y1="8.42" x2="37.93" y2="8.15"/><line class="b" x1="38.09" y1="8.39" x2="38.2" y2="8.28"/><line class="b" x1="43.71" y1="7.7" x2="43.73" y2="7.66"/><line class="b" x1="43.99" y1="7.81" x2="44.15" y2="7.66"/><line class="b" x1="44.31" y1="7.92" x2="44.55" y2="7.66"/><line class="b" x1="44.61" y1="8.01" x2="44.97" y2="7.66"/><line class="b" x1="44.92" y1="8.11" x2="45.37" y2="7.66"/><line class="b" x1="45.22" y1="8.22" x2="45.77" y2="7.66"/><line class="b" x1="45.53" y1="8.32" x2="46.19" y2="7.66"/><line class="b" x1="45.84" y1="8.42" x2="46.59" y2="7.66"/><line class="b" x1="46.14" y1="8.52" x2="47.01" y2="7.66"/><line class="b" x1="46.41" y1="8.66" x2="47.41" y2="7.66"/><line class="b" x1="46.68" y1="8.81" x2="47.82" y2="7.66"/><line class="b" x1="46.95" y1="8.94" x2="48.23" y2="7.66"/><line class="b" x1="47.21" y1="9.09" x2="48.64" y2="7.66"/><line class="b" x1="47.48" y1="9.24" x2="49.05" y2="7.66"/><line class="b" x1="47.74" y1="9.37" x2="49.46" y2="7.66"/><line class="b" x1="48.01" y1="9.52" x2="49.87" y2="7.66"/><line class="b" x1="48.31" y1="9.63" x2="50.28" y2="7.66"/><line class="b" x1="48.72" y1="9.62" x2="50.68" y2="7.66"/><line class="b" x1="49.14" y1="9.62" x2="51.1" y2="7.66"/><line class="b" x1="49.56" y1="9.61" x2="51.5" y2="7.66"/><line class="b" x1="49.97" y1="9.61" x2="51.92" y2="7.66"/><line class="b" x1="50.39" y1="9.59" x2="52.32" y2="7.66"/><line class="b" x1="50.8" y1="9.58" x2="52.72" y2="7.66"/><line class="b" x1="51.22" y1="9.58" x2="53.14" y2="7.66"/><line class="b" x1="51.62" y1="9.58" x2="53.54" y2="7.66"/><line class="b" x1="52.03" y1="9.58" x2="53.96" y2="7.66"/><line class="b" x1="52.43" y1="9.59" x2="54.37" y2="7.66"/><line class="b" x1="52.84" y1="9.61" x2="54.77" y2="7.66"/><line class="b" x1="53.24" y1="9.61" x2="55.19" y2="7.66"/><line class="b" x1="53.64" y1="9.62" x2="55.59" y2="7.66"/><polyline class="b" points="54.03 9.62 55.86 7.81 56.01 7.66"/><line class="b" x1="54.44" y1="9.63" x2="56.41" y2="7.66"/><polyline class="b" points="54.84 9.63 55.86 8.63 56.81 7.66"/><line class="b" x1="55.25" y1="9.64" x2="57.23" y2="7.66"/><polyline class="b" points="55.65 9.64 55.86 9.45 57.63 7.66"/><line class="b" x1="56.05" y1="9.65" x2="58.05" y2="7.66"/><line class="b" x1="56.45" y1="9.67" x2="58.45" y2="7.66"/><line class="b" x1="56.85" y1="9.67" x2="58.86" y2="7.66"/><line class="b" x1="57.25" y1="9.68" x2="59.27" y2="7.66"/><line class="b" x1="57.66" y1="9.68" x2="59.68" y2="7.66"/><line class="b" x1="58.06" y1="9.69" x2="60.09" y2="7.66"/><line class="b" x1="58.46" y1="9.69" x2="60.5" y2="7.66"/><line class="b" x1="58.86" y1="9.7" x2="60.9" y2="7.66"/><line class="b" x1="59.26" y1="9.72" x2="61.32" y2="7.66"/><line class="b" x1="59.65" y1="9.73" x2="61.72" y2="7.66"/><line class="b" x1="60.04" y1="9.74" x2="62.14" y2="7.66"/><line class="b" x1="60.45" y1="9.76" x2="62.54" y2="7.66"/><line class="b" x1="60.84" y1="9.78" x2="62.96" y2="7.66"/><line class="b" x1="61.23" y1="9.79" x2="63.36" y2="7.66"/><line class="b" x1="61.62" y1="9.8" x2="63.76" y2="7.66"/><line class="b" x1="62.03" y1="9.81" x2="64.18" y2="7.66"/><line class="b" x1="62.42" y1="9.83" x2="64.58" y2="7.66"/><line class="b" x1="62.81" y1="9.84" x2="65" y2="7.66"/><line class="b" x1="63.21" y1="9.85" x2="65.4" y2="7.66"/><line class="b" x1="63.6" y1="9.86" x2="65.81" y2="7.66"/><line class="b" x1="64" y1="9.87" x2="66.22" y2="7.66"/><line class="b" x1="64.4" y1="9.89" x2="66.63" y2="7.66"/><line class="b" x1="64.79" y1="9.91" x2="67.04" y2="7.66"/><line class="b" x1="65.18" y1="9.92" x2="67.45" y2="7.66"/><line class="b" x1="65.59" y1="9.94" x2="67.85" y2="7.66"/><line class="b" x1="65.98" y1="9.95" x2="68.27" y2="7.66"/><line class="b" x1="66.37" y1="9.96" x2="68.67" y2="7.66"/><line class="b" x1="66.76" y1="9.97" x2="69.09" y2="7.66"/><line class="b" x1="67.15" y1="10" x2="69.49" y2="7.66"/><line class="b" x1="67.54" y1="10.01" x2="69.89" y2="7.66"/><polyline class="b" points="67.94 10.02 70.04 7.93 70.17 7.79"/><line class="b" x1="68.33" y1="10.05" x2="70.38" y2="7.99"/><line class="b" x1="68.72" y1="10.06" x2="70.04" y2="8.75"/><line class="b" x1="70.64" y1="8.15" x2="70.04" y2="8.75"/><line class="b" x1="69.11" y1="10.08" x2="70.04" y2="9.15"/><line class="b" x1="71.04" y1="8.15" x2="70.04" y2="9.15"/><line class="b" x1="69.5" y1="10.09" x2="70.04" y2="9.56"/><polyline class="b" points="71.46 8.15 70.53 9.07 70.04 9.56"/><line class="b" x1="69.89" y1="10.11" x2="70.04" y2="9.97"/><line class="b" x1="71.86" y1="8.15" x2="70.04" y2="9.97"/><polyline class="b" points="70.29 10.13 70.53 9.89 72.28 8.15"/><line class="b" x1="70.68" y1="10.14" x2="72.68" y2="8.15"/><line class="b" x1="71.08" y1="10.17" x2="73.09" y2="8.15"/><line class="b" x1="71.47" y1="10.18" x2="73.5" y2="8.15"/><line class="b" x1="71.86" y1="10.19" x2="73.91" y2="8.15"/><line class="b" x1="72.26" y1="10.22" x2="74.32" y2="8.15"/><line class="b" x1="72.65" y1="10.23" x2="74.73" y2="8.15"/><line class="b" x1="73.04" y1="10.24" x2="75.13" y2="8.15"/><line class="b" x1="73.43" y1="10.27" x2="75.55" y2="8.15"/><line class="b" x1="73.82" y1="10.28" x2="75.95" y2="8.15"/><line class="b" x1="74.21" y1="10.3" x2="76.37" y2="8.15"/><line class="b" x1="74.61" y1="10.31" x2="76.77" y2="8.15"/><line class="b" x1="75" y1="10.33" x2="77.18" y2="8.15"/><polyline class="b" points="75.4 10.33 77.47 8.27 77.76 7.96"/><line class="b" x1="75.81" y1="10.34" x2="78.78" y2="7.37"/><line class="b" x1="76.21" y1="10.34" x2="79.79" y2="6.75"/><line class="b" x1="76.61" y1="10.35" x2="77.47" y2="9.49"/><polyline class="b" points="80.79 6.18 80.76 6.19 77.47 9.49"/><line class="b" x1="77.02" y1="10.35" x2="77.47" y2="9.9"/><line class="b" x1="81.19" y1="6.18" x2="77.47" y2="9.9"/><line class="b" x1="77.42" y1="10.35" x2="77.47" y2="10.31"/><polyline class="b" points="81.61 6.18 80.76 7.01 77.47 10.31"/><line class="b" x1="77.82" y1="10.36" x2="82.01" y2="6.18"/><line class="b" x1="78.23" y1="10.36" x2="82.41" y2="6.18"/><polyline class="b" points="78.63 10.38 80.76 8.23 82.83 6.18"/><line class="b" x1="79.04" y1="10.38" x2="80.76" y2="8.65"/><polyline class="b" points="83.07 6.34 82.95 6.47 80.76 8.65"/><line class="b" x1="79.44" y1="10.39" x2="80.76" y2="9.05"/><polyline class="b" points="83.26 6.57 82.95 6.88 80.76 9.05"/><line class="b" x1="79.84" y1="10.39" x2="80.76" y2="9.47"/><line class="b" x1="83.43" y1="6.8" x2="80.76" y2="9.47"/><line class="b" x1="80.25" y1="10.4" x2="80.76" y2="9.87"/><polyline class="b" points="83.61 7.04 82.95 7.7 80.76 9.87"/><line class="b" x1="80.65" y1="10.4" x2="80.76" y2="10.28"/><polyline class="b" points="83.78 7.26 82.95 8.1 80.76 10.28"/><polyline class="b" points="81.06 10.41 82.95 8.52 83.97 7.49"/><polyline class="b" points="81.45 10.41 82.95 8.92 84.15 7.72"/><line class="b" x1="81.85" y1="10.43" x2="84.32" y2="7.95"/><polyline class="b" points="82.25 10.43 82.95 9.74 84.51 8.19"/><line class="b" x1="82.66" y1="10.44" x2="84.68" y2="8.42"/><line class="b" x1="83.06" y1="10.44" x2="84.86" y2="8.64"/><line class="b" x1="83.47" y1="10.44" x2="85.04" y2="8.87"/><line class="b" x1="83.87" y1="10.45" x2="85.22" y2="9.1"/><line class="b" x1="84.27" y1="10.45" x2="85.4" y2="9.34"/><line class="b" x1="84.68" y1="10.46" x2="85.57" y2="9.57"/><line class="b" x1="85.08" y1="10.47" x2="85.75" y2="9.79"/><line class="b" x1="85.47" y1="10.47" x2="85.94" y2="10.02"/><line class="b" x1="85.88" y1="10.49" x2="86.11" y2="10.25"/><line class="b" x1="86.28" y1="10.5" x2="86.29" y2="10.49"/><line class="b" x1="34.23" y1="8.49" x2="35.27" y2="8.15"/><line class="b" x1="36.03" y1="8.15" x2="36.89" y2="8.45"/><line class="c" x1="41.91" y1="6.74" x2="41.91" y2="6.73"/><polyline class="b" points="44.56 8 46.14 8.52 48.22 9.63 51.33 9.57 58.69 9.7 66.41 9.96 74.68 10.31 84.16 10.45 86.29 10.5"/><polyline class="a" points="94.27 10.64 103.27 10.74 112.26 10.87 121.46 11.07 130.63 11.21 137.76 11.33 146.93 11.43"/><line class="a" x1="16.94" y1="29.63" x2="16.94" y2="8.76"/><line class="a" x1="34.16" y1="29.63" x2="34.16" y2="8.15"/><line class="a" x1="32.29" y1="29.63" x2="32.29" y2="6.4"/><line class="a" x1="30.23" y1="29.63" x2="30.23" y2="5.91"/><line class="a" x1="25.06" y1="29.63" x2="25.06" y2="7.41"/><polyline class="a" points="16.94 8.76 20.41 8.3 25.06 7.42 30.23 5.91 32.29 6.4"/><polyline class="b" points="32.29 6.4 34.16 8.49 34.23 8.49"/><line class="b" x1="36.89" y1="8.45" x2="38.16" y2="8.39"/><line class="c" x1="35.48" y1="8.15" x2="35.58" y2="8.04"/><line class="c" x1="35.89" y1="8.15" x2="35.92" y2="8.11"/><line class="c" x1="39.07" y1="5.79" x2="39.66" y2="5.2"/><line class="c" x1="38.86" y1="6.41" x2="39.99" y2="5.29"/><line class="c" x1="38.64" y1="7.04" x2="40.32" y2="5.36"/><line class="c" x1="38.42" y1="7.66" x2="40.63" y2="5.44"/><line class="c" x1="38.35" y1="8.15" x2="40.93" y2="5.57"/><line class="c" x1="38.75" y1="8.15" x2="41.11" y2="5.79"/><line class="c" x1="39.17" y1="8.15" x2="41.3" y2="6.01"/><line class="c" x1="39.57" y1="8.15" x2="41.48" y2="6.23"/><line class="c" x1="39.97" y1="8.15" x2="41.68" y2="6.46"/><line class="c" x1="40.39" y1="8.15" x2="41.86" y2="6.68"/><line class="c" x1="40.79" y1="8.15" x2="42.1" y2="6.84"/><line class="c" x1="41.69" y1="7.66" x2="42.37" y2="6.99"/><line class="c" x1="42.1" y1="7.66" x2="42.63" y2="7.12"/><line class="c" x1="42.51" y1="7.66" x2="42.9" y2="7.27"/><line class="c" x1="42.92" y1="7.66" x2="43.17" y2="7.4"/><line class="c" x1="43.33" y1="7.66" x2="43.44" y2="7.55"/><polyline class="c" points="38.25 8.15 39.23 5.33 39.66 5.2 40.87 5.49 41.91 6.74"/><polyline class="a" points="24.71 31.63 24.71 31.57 24.77 31.46 24.82 31.4 24.95 31.34 25.17 31.34 25.29 31.4 25.34 31.46 25.4 31.57 25.4 31.68 25.34 31.8 25.23 31.96 24.65 32.54 25.46 32.54"/><polyline class="a" points="29.95 31.34 30.58 31.34 30.23 31.8 30.41 31.8 30.52 31.85 30.58 31.91 30.64 32.09 30.64 32.2 30.58 32.37 30.47 32.48 30.3 32.54 30.12 32.54 29.95 32.48 29.89 32.43 29.83 32.31"/><polyline class="a" points="32.44 31.34 31.86 32.13 32.72 32.13"/><line class="a" x1="32.44" y1="31.34" x2="32.44" y2="32.54"/><path class="a" d="M34.46,31.34h-.58l-.06.51.06,0c1-.4.84,1.18-.06.62l0-.12"/><polyline class="a" points="93.39 31.57 93.5 31.51 93.67 31.34 93.67 32.54"/><polyline class="a" points="95.04 31.34 94.47 31.34 94.42 31.85 94.47 31.8 94.64 31.74 94.81 31.74 94.98 31.8 95.09 31.91 95.15 32.09 95.15 32.2 95.09 32.37 94.98 32.48 94.81 32.54 94.64 32.54 94.47 32.48 94.42 32.43 94.36 32.31"/><polyline class="a" points="111.38 31.57 111.49 31.51 111.66 31.34 111.66 32.54"/><polyline class="a" points="113.09 31.51 113.03 31.4 112.86 31.34 112.75 31.34 112.58 31.4 112.46 31.57 112.41 31.85 112.41 32.13 112.46 32.37 112.58 32.48 112.75 32.54 112.8 32.54 112.97 32.48 113.09 32.37 113.14 32.2 113.14 32.13 113.09 31.96 112.97 31.85 112.8 31.8 112.75 31.8 112.58 31.85 112.46 31.96 112.41 32.13"/><polyline class="a" points="129.74 31.57 129.86 31.51 130.03 31.34 130.03 32.54"/><polyline class="a" points="130.93 32.54 131.51 31.34 130.71 31.34"/><polyline class="a" points="146.03 31.57 146.16 31.51 146.33 31.34 146.33 32.54"/><polygon class="a" points="147.3 31.34 147.13 31.4 147.06 31.51 147.06 31.63 147.13 31.74 147.24 31.8 147.47 31.85 147.64 31.91 147.75 32.02 147.81 32.13 147.81 32.31 147.75 32.43 147.7 32.48 147.53 32.54 147.3 32.54 147.13 32.48 147.06 32.43 147.01 32.31 147.01 32.13 147.06 32.02 147.19 31.91 147.36 31.85 147.58 31.8 147.7 31.74 147.75 31.63 147.75 31.51 147.7 31.4 147.53 31.34 147.3 31.34"/><polyline class="a" points="26.65 35.76 26.65 35.71 26.68 35.62 26.73 35.57 26.82 35.54 27 35.54 27.09 35.57 27.13 35.62 27.17 35.71 27.17 35.79 27.13 35.89 27.04 36.01 26.6 36.45 27.22 36.45"/><polygon class="a" points="27.57 36.37 27.53 36.42 27.57 36.45 27.61 36.42 27.57 36.37"/><polyline class="a" points="27.97 35.76 27.97 35.71 28.01 35.62 28.05 35.57 28.14 35.54 28.32 35.54 28.41 35.57 28.45 35.62 28.5 35.71 28.5 35.79 28.45 35.89 28.36 36.01 27.92 36.45 28.54 36.45"/><polygon class="a" points="30.86 36.76 30.91 36.9 31.03 36.98 31.25 37.03 31.38 37.03 31.6 36.98 31.74 36.9 31.79 36.76 31.79 36.67 31.74 36.54 31.6 36.45 31.38 36.41 31.25 36.41 31.03 36.45 30.91 36.54 30.86 36.67 30.86 36.76"/><polygon class="a" points="31.69 36.06 31.74 36.1 31.79 36.06 31.74 36.01 31.69 36.06"/><polyline class="a" points="31.16 35.13 31.3 35.18 31.38 35.27 31.43 35.4 31.43 35.44 31.38 35.57 31.3 35.66 31.16 35.71 31.13 35.71 30.99 35.66 30.91 35.57 30.86 35.44 30.86 35.4 30.91 35.27 30.99 35.18 31.16 35.13 31.38 35.13 31.6 35.18 31.74 35.27 31.79 35.4 31.79 35.49 31.74 35.62 31.65 35.66"/><polygon class="a" points="32.77 36.76 32.81 36.9 32.94 36.98 33.16 37.03 33.29 37.03 33.51 36.98 33.65 36.9 33.7 36.76 33.7 36.67 33.65 36.54 33.51 36.45 33.29 36.42 33.16 36.42 32.94 36.45 32.81 36.54 32.77 36.67 32.77 36.76"/><polygon class="a" points="33.6 36.06 33.65 36.1 33.7 36.06 33.65 36.01 33.6 36.06"/><path class="a" d="M32.77,35.49l0,.14.09,0H33l.09,0,0-.09,0-.18,0-.13.08-.09.09,0h.13l.09,0,0,0,0,.14v.17l0,.14c-.65.43-.34-.76-.83-.44l0,.14Z"/><polyline class="a" points="102.7 36.45 103.14 35.54 102.53 35.54"/><polygon class="a" points="103.5 36.37 103.46 36.42 103.5 36.45 103.55 36.42 103.5 36.37"/><path class="a" d="M104.07,35.54l-.14,0,0,.1v.08l0,.09.09,0,.18,0,.13,0,.09.08,0,.09v.13l0,.09,0,0-.14,0h-.17l-.14,0c-.43-.66.76-.33.44-.84l-.14,0Z"/><polyline class="a" points="120.98 36.45 121.43 35.54 120.81 35.54"/><polygon class="a" points="121.78 36.37 121.73 36.42 121.78 36.45 121.82 36.42 121.78 36.37"/><polyline class="a" points="122.7 35.84 122.66 35.98 122.56 36.06 122.44 36.11 122.39 36.11 122.26 36.06 122.17 35.98 122.12 35.84 122.12 35.79 122.17 35.67 122.26 35.57 122.39 35.54 122.44 35.54 122.56 35.57 122.66 35.67 122.7 35.84 122.7 36.06 122.66 36.28 122.56 36.42 122.44 36.45 122.34 36.45 122.22 36.42 122.17 36.33"/><polyline class="a" points="138.2 36.45 138.64 35.54 138.02 35.54"/><polygon class="a" points="139 36.37 138.95 36.42 139 36.45 139.04 36.42 139 36.37"/><polyline class="a" points="139.48 35.71 139.56 35.67 139.7 35.54 139.7 36.45"/><polyline class="a" points="24.38 41.62 24.38 41.15 24.87 41.41 24.87 41.27 24.93 41.19 24.98 41.15 25.17 41.12 25.29 41.12 25.47 41.15 25.6 41.24 25.66 41.36 25.66 41.5 25.6 41.62 25.53 41.67 25.41 41.7"/><polygon class="a" points="25.53 40.77 25.59 40.81 25.66 40.77 25.59 40.73 25.53 40.77"/><path class="a" d="M24.38,39.93v.42l.55,0-.06,0c-.42-.75,1.28-.6.66,0l-.12,0"/><path class="a" d="M29.56,41.19v.43l.55,0-.06,0c-.42-.74,1.28-.6.66,0l-.12,0"/><polygon class="a" points="30.71 40.77 30.77 40.81 30.83 40.77 30.77 40.73 30.71 40.77"/><polygon class="a" points="29.56 40.22 29.62 40.34 29.74 40.39 29.87 40.39 29.99 40.34 30.05 40.26 30.11 40.09 30.17 39.97 30.29 39.88 30.42 39.84 30.59 39.84 30.71 39.88 30.77 39.93 30.83 40.05 30.83 40.22 30.77 40.34 30.71 40.39 30.59 40.43 30.42 40.43 30.29 40.39 30.17 40.31 30.11 40.17 30.05 40 29.99 39.93 29.87 39.88 29.74 39.88 29.62 39.93 29.56 40.05 29.56 40.22"/><polyline class="a" points="31.8 41.18 31.68 41.22 31.62 41.35 31.62 41.44 31.68 41.56 31.86 41.64 32.17 41.68 32.47 41.68 32.72 41.64 32.83 41.56 32.89 41.44 32.89 41.39 32.83 41.26 32.72 41.18 32.53 41.13 32.47 41.13 32.29 41.18 32.17 41.26 32.11 41.39 32.11 41.44 32.17 41.56 32.29 41.64 32.47 41.68"/><polygon class="a" points="32.77 40.8 32.83 40.84 32.89 40.8 32.83 40.75 32.77 40.8"/><polyline class="a" points="31.8 39.91 31.68 39.94 31.62 40.08 31.62 40.16 31.68 40.28 31.86 40.37 32.17 40.41 32.47 40.41 32.72 40.37 32.83 40.28 32.89 40.16 32.89 40.11 32.83 39.99 32.72 39.91 32.53 39.86 32.47 39.86 32.29 39.91 32.17 39.99 32.11 40.11 32.11 40.16 32.17 40.28 32.29 40.37 32.47 40.41"/><polyline class="a" points="34.76 41.53 33.5 41.12 33.5 41.7"/><polygon class="a" points="34.65 40.77 34.71 40.81 34.76 40.77 34.71 40.73 34.65 40.77"/><path class="a" d="M33.5,39.93v.42l.54,0-.06,0c-.42-.74,1.27-.62.67,0l-.12,0"/><polyline class="a" points="93.6 42.07 93.6 41.59 94.09 41.85 94.09 41.73 94.14 41.64 94.2 41.59 94.38 41.56 94.5 41.56 94.69 41.59 94.81 41.68 94.87 41.81 94.87 41.94 94.81 42.07 94.75 42.11 94.63 42.14"/><polyline class="a" points="93.6 41.21 93.6 40.75 94.09 41.01 94.09 40.87 94.14 40.8 94.2 40.75 94.38 40.71 94.5 40.71 94.69 40.75 94.81 40.84 94.87 40.96 94.87 41.09 94.81 41.21 94.75 41.26 94.63 41.3"/><polygon class="a" points="94.75 40.37 94.81 40.41 94.87 40.37 94.81 40.32 94.75 40.37"/><polyline class="a" points="93.6 39.61 94.44 40.03 94.44 39.39"/><line class="a" x1="93.6" y1="39.61" x2="94.87" y2="39.61"/><polyline class="a" points="111.59 41.7 112.43 42.13 112.43 41.5"/><line class="a" x1="111.59" y1="41.7" x2="112.86" y2="41.7"/><polyline class="a" points="111.83 41.15 111.77 41.07 111.59 40.95 112.86 40.95"/><polygon class="a" points="112.74 40.34 112.8 40.39 112.86 40.34 112.8 40.31 112.74 40.34"/><polyline class="a" points="111.89 39.97 111.83 39.97 111.71 39.93 111.65 39.88 111.59 39.8 111.59 39.62 111.65 39.54 111.71 39.5 111.83 39.45 111.95 39.45 112.08 39.5 112.26 39.59 112.86 40 112.86 39.41"/><polyline class="a" points="129.96 41.7 130.8 42.13 130.8 41.5"/><line class="a" x1="129.96" y1="41.7" x2="131.23" y2="41.7"/><polyline class="a" points="130.37 40.73 130.56 40.77 130.68 40.86 130.74 40.98 130.74 41.03 130.68 41.15 130.56 41.24 130.37 41.28 130.31 41.28 130.13 41.24 130.02 41.15 129.96 41.03 129.96 40.98 130.02 40.86 130.13 40.77 130.37 40.73 130.68 40.73 130.98 40.77 131.17 40.86 131.23 40.98 131.23 41.07 131.17 41.19 131.04 41.24"/><polygon class="a" points="131.11 40.34 131.17 40.39 131.23 40.34 131.17 40.31 131.11 40.34"/><polyline class="a" points="130.25 39.97 130.19 39.97 130.08 39.93 130.02 39.88 129.96 39.8 129.96 39.62 130.02 39.54 130.08 39.5 130.19 39.45 130.31 39.45 130.43 39.5 130.62 39.59 131.23 40 131.23 39.41"/><polyline class="a" points="146.25 41.62 146.25 42.05 146.79 42.08 146.73 42.05 146.68 41.91 146.68 41.79 146.73 41.67 146.85 41.58 147.04 41.53 147.16 41.53 147.34 41.58 147.47 41.67 147.53 41.79 147.53 41.91 147.47 42.05 147.41 42.08 147.28 42.13"/><polyline class="a" points="146.56 41.24 146.5 41.24 146.38 41.19 146.32 41.15 146.25 41.07 146.25 40.9 146.32 40.81 146.38 40.77 146.5 40.73 146.62 40.73 146.73 40.77 146.92 40.86 147.53 41.28 147.53 40.69"/><polygon class="a" points="147.41 40.34 147.47 40.39 147.53 40.34 147.47 40.31 147.41 40.34"/><polyline class="a" points="146.56 39.97 146.5 39.97 146.38 39.93 146.32 39.88 146.25 39.8 146.25 39.62 146.32 39.54 146.38 39.5 146.5 39.45 146.62 39.45 146.73 39.5 146.92 39.59 147.53 40 147.53 39.41"/><polyline class="a" points="24.66 48.32 24.6 48.24 24.42 48.1 25.69 48.1"/><path class="a" d="M24.42,47.38l.06.14.12,0h.12l.11,0,.06-.09.06-.17.06-.12.12-.08.12,0h.18l.12,0,.06,0,.06.13v.16l-.06.14c-.9.42-.47-.72-1.15-.43l-.06.13Z"/><polyline class="a" points="24.84 46.2 25.02 46.24 25.14 46.33 25.2 46.45 25.2 46.5 25.14 46.62 25.02 46.71 24.84 46.75 24.79 46.75 24.61 46.71 24.48 46.62 24.42 46.5 24.42 46.45 24.48 46.33 24.61 46.24 24.84 46.2 25.14 46.2 25.45 46.24 25.63 46.33 25.69 46.45 25.69 46.54 25.63 46.67 25.51 46.71"/><polygon class="a" points="25.57 45.82 25.63 45.87 25.69 45.82 25.63 45.78 25.57 45.82"/><polyline class="a" points="24.6 44.92 24.48 44.97 24.42 45.09 24.42 45.18 24.48 45.31 24.66 45.4 24.96 45.44 25.27 45.44 25.51 45.4 25.63 45.31 25.69 45.18 25.69 45.14 25.63 45.01 25.51 44.92 25.33 44.88 25.27 44.88 25.08 44.92 24.96 45.01 24.9 45.14 24.9 45.18 24.96 45.31 25.08 45.4 25.27 45.44"/><polyline class="a" points="24.66 44.51 24.6 44.42 24.42 44.3 25.69 44.3"/><polyline class="a" points="29.84 48.45 29.78 48.36 29.6 48.24 30.87 48.24"/><polyline class="a" points="30.02 47.17 30.21 47.22 30.33 47.3 30.38 47.43 30.38 47.47 30.33 47.6 30.21 47.69 30.02 47.73 29.96 47.73 29.78 47.69 29.66 47.6 29.6 47.47 29.6 47.43 29.66 47.3 29.78 47.22 30.02 47.17 30.33 47.17 30.63 47.22 30.81 47.3 30.87 47.43 30.87 47.52 30.81 47.64 30.69 47.69"/><polygon class="a" points="29.6 46.62 29.66 46.74 29.84 46.83 30.15 46.88 30.33 46.88 30.63 46.83 30.81 46.74 30.87 46.62 30.87 46.54 30.81 46.41 30.63 46.33 30.33 46.28 30.15 46.28 29.84 46.33 29.66 46.41 29.6 46.54 29.6 46.62"/><polygon class="a" points="30.75 45.95 30.81 45.99 30.87 45.95 30.81 45.9 30.75 45.95"/><polyline class="a" points="29.9 45.56 29.84 45.56 29.72 45.52 29.66 45.49 29.6 45.4 29.6 45.23 29.66 45.14 29.72 45.09 29.84 45.06 29.96 45.06 30.09 45.09 30.27 45.18 30.87 45.61 30.87 45.01"/><polyline class="a" points="29.78 44.21 29.66 44.25 29.6 44.37 29.6 44.46 29.66 44.59 29.84 44.68 30.15 44.71 30.44 44.71 30.69 44.68 30.81 44.59 30.87 44.46 30.87 44.42 30.81 44.3 30.69 44.21 30.5 44.16 30.44 44.16 30.27 44.21 30.15 44.3 30.09 44.42 30.09 44.46 30.15 44.59 30.27 44.68 30.44 44.71"/><polyline class="a" points="31.9 48.47 31.84 48.38 31.65 48.25 32.93 48.25"/><polyline class="a" points="32.08 47.2 32.27 47.23 32.39 47.32 32.45 47.45 32.45 47.49 32.39 47.61 32.27 47.7 32.08 47.75 32.02 47.75 31.84 47.7 31.71 47.61 31.65 47.49 31.65 47.45 31.71 47.32 31.84 47.23 32.08 47.2 32.39 47.2 32.68 47.23 32.86 47.32 32.92 47.45 32.92 47.54 32.86 47.66 32.74 47.7"/><path class="a" d="M31.65,46.65l.06.12.18.09.31,0h.18l.29,0,.18-.09.06-.12v-.09l-.06-.13a1.39,1.39,0,0,0-1.15,0l-.06.13Z"/><polygon class="a" points="32.8 45.96 32.86 46.01 32.92 45.96 32.86 45.92 32.8 45.96"/><polygon class="a" points="31.65 45.38 31.71 45.5 31.9 45.58 32.2 45.63 32.39 45.63 32.68 45.58 32.87 45.5 32.93 45.38 32.93 45.29 32.87 45.17 32.68 45.08 32.39 45.03 32.2 45.03 31.9 45.08 31.71 45.17 31.65 45.29 31.65 45.38"/><polyline class="a" points="31.65 44.36 32.51 44.77 32.51 44.14"/><line class="a" x1="31.65" y1="44.36" x2="32.93" y2="44.36"/><polyline class="a" points="33.77 48.42 33.71 48.34 33.52 48.21 34.8 48.21"/><polygon class="a" points="33.52 47.49 33.59 47.61 33.71 47.66 33.83 47.66 33.95 47.61 34.02 47.54 34.08 47.37 34.14 47.23 34.26 47.15 34.38 47.11 34.56 47.11 34.67 47.15 34.74 47.2 34.8 47.32 34.8 47.49 34.74 47.61 34.67 47.66 34.56 47.7 34.38 47.7 34.26 47.66 34.14 47.58 34.08 47.45 34.02 47.28 33.95 47.2 33.83 47.15 33.71 47.15 33.59 47.2 33.52 47.32 33.52 47.49"/><polyline class="a" points="33.95 46.3 34.14 46.35 34.26 46.43 34.32 46.56 34.32 46.6 34.26 46.73 34.14 46.82 33.95 46.86 33.89 46.86 33.71 46.82 33.59 46.73 33.52 46.6 33.52 46.56 33.59 46.43 33.71 46.35 33.95 46.3 34.26 46.3 34.56 46.35 34.74 46.43 34.8 46.56 34.8 46.65 34.74 46.77 34.61 46.82"/><polygon class="a" points="34.67 45.93 34.74 45.96 34.8 45.93 34.74 45.88 34.67 45.93"/><polyline class="a" points="33.83 45.55 33.77 45.55 33.65 45.5 33.59 45.46 33.52 45.38 33.52 45.2 33.59 45.12 33.65 45.08 33.77 45.03 33.89 45.03 34.02 45.08 34.2 45.17 34.8 45.58 34.8 44.99"/><polyline class="a" points="33.95 44.19 34.14 44.23 34.26 44.31 34.32 44.45 34.32 44.48 34.26 44.6 34.14 44.69 33.95 44.74 33.89 44.74 33.71 44.69 33.59 44.6 33.52 44.48 33.52 44.45 33.59 44.31 33.71 44.23 33.95 44.19 34.26 44.19 34.56 44.23 34.74 44.31 34.8 44.45 34.8 44.53 34.74 44.65 34.61 44.69"/><polyline class="a" points="93.88 48.32 93.82 48.24 93.64 48.1 94.91 48.1"/><path class="a" d="M93.63,47.38l.06.14.12,0h.12l.11,0,.06-.09.06-.17.06-.12.12-.08.12,0h.18l.12,0,.06,0,.06.13v.16l-.06.14c-.9.42-.47-.72-1.15-.43l-.06.13Z"/><path class="a" d="M93.63,46.54l.06.14.12,0h.12l.11,0,.06-.09.06-.17.06-.13.12-.09.12,0h.18l.12,0,.06,0,.06.12v.17l-.06.14c-.94.39-.47-.74-1.15-.43l-.06.12Z"/><polygon class="a" points="94.78 45.82 94.85 45.87 94.91 45.82 94.85 45.78 94.78 45.82"/><polyline class="a" points="93.94 45.44 93.88 45.44 93.76 45.4 93.7 45.35 93.64 45.27 93.64 45.09 93.7 45.01 93.76 44.97 93.88 44.92 94 44.92 94.11 44.97 94.3 45.06 94.91 45.48 94.91 44.88"/><polyline class="a" points="93.88 44.51 93.82 44.42 93.64 44.3 94.91 44.3"/><polyline class="a" points="111.87 48.32 111.81 48.24 111.62 48.1 112.9 48.1"/><path class="a" d="M111.62,47.38l.06.14.12,0h.12l.12,0,.06-.09.06-.17.06-.12.11-.08.12,0h.18l.12,0,.06,0,.06.13v.16l-.06.14c-.89.42-.44-.72-1.15-.43l-.06.13Z"/><path class="a" d="M111.62,46.54l.06.14.12,0h.12l.12,0,.06-.09.06-.17.06-.13.11-.09.12,0h.18l.12,0,.06,0,.06.12v.17l-.06.14c-.92.4-.45-.74-1.15-.43l-.06.12Z"/><polygon class="a" points="112.77 45.82 112.83 45.87 112.9 45.82 112.83 45.78 112.77 45.82"/><polyline class="a" points="111.87 45.35 111.81 45.27 111.62 45.14 112.9 45.14"/><polyline class="a" points="111.87 44.51 111.81 44.42 111.62 44.3 112.9 44.3"/><polyline class="a" points="130.22 48.45 130.16 48.36 129.99 48.24 131.25 48.24"/><polygon class="a" points="129.99 47.52 130.04 47.64 130.16 47.69 130.29 47.69 130.41 47.64 130.47 47.55 130.53 47.38 130.59 47.26 130.71 47.17 130.84 47.14 131.02 47.14 131.14 47.17 131.19 47.22 131.25 47.35 131.25 47.52 131.19 47.64 131.14 47.69 131.02 47.73 130.84 47.73 130.71 47.69 130.59 47.6 130.53 47.47 130.47 47.3 130.41 47.22 130.29 47.17 130.16 47.17 130.04 47.22 129.99 47.35 129.99 47.52"/><polyline class="a" points="131.25 46.71 129.99 46.28 129.99 46.88"/><polygon class="a" points="131.14 45.95 131.19 45.99 131.25 45.95 131.19 45.9 131.14 45.95"/><polyline class="a" points="130.41 45.06 130.59 45.09 130.71 45.18 130.78 45.31 130.78 45.35 130.71 45.48 130.59 45.56 130.41 45.61 130.35 45.61 130.16 45.56 130.04 45.48 129.99 45.35 129.99 45.31 130.04 45.18 130.16 45.09 130.41 45.06 130.71 45.06 131.02 45.09 131.19 45.18 131.25 45.31 131.25 45.4 131.19 45.52 131.08 45.56"/><polyline class="a" points="131.25 44.59 129.99 44.16 129.99 44.76"/><polyline class="a" points="146.54 48.45 146.48 48.36 146.29 48.24 147.56 48.24"/><polygon class="a" points="146.29 47.52 146.35 47.64 146.48 47.69 146.6 47.69 146.71 47.64 146.77 47.55 146.83 47.38 146.89 47.26 147.01 47.17 147.14 47.14 147.32 47.14 147.44 47.17 147.5 47.22 147.56 47.35 147.56 47.52 147.5 47.64 147.44 47.69 147.32 47.73 147.14 47.73 147.01 47.69 146.89 47.6 146.83 47.47 146.77 47.3 146.71 47.22 146.6 47.17 146.48 47.17 146.35 47.22 146.29 47.35 146.29 47.52"/><polyline class="a" points="147.56 46.71 146.29 46.28 146.29 46.88"/><polygon class="a" points="147.44 45.95 147.5 45.99 147.56 45.95 147.5 45.9 147.44 45.95"/><path class="a" d="M146.29,45.4l.06.12.12,0h.12l.11,0,.06-.09.06-.17.06-.12.12-.09.12,0h.18l.12,0,.06,0,.06.14v.17l-.06.12c-.91.42-.46-.71-1.15-.43l-.06.14Z"/><polyline class="a" points="147.56 44.59 146.29 44.16 146.29 44.76"/><polyline class="a" points="34.16 8.15 41.17 8.15 41.66 7.66 70.04 7.66 70.53 8.15 77.47 8.15"/><polyline class="a" points="82.95 6.18 80.76 6.18 77.47 8.15"/><line class="a" x1="82.95" y1="6.18" x2="86.29" y2="10.5"/><line class="a" x1="41.17" y1="8.15" x2="41.17" y2="29.63"/><line class="a" x1="41.66" y1="7.66" x2="41.66" y2="29.63"/><line class="a" x1="70.04" y1="7.66" x2="70.04" y2="29.63"/><line class="a" x1="70.53" y1="8.15" x2="70.53" y2="29.63"/><line class="a" x1="77.47" y1="8.15" x2="77.47" y2="29.63"/><line class="a" x1="55.86" y1="7.66" x2="55.86" y2="29.63"/><line class="a" x1="80.76" y1="6.18" x2="80.76" y2="29.63"/><line class="a" x1="82.95" y1="6.18" x2="82.95" y2="29.63"/><line class="a" x1="86.29" y1="10.5" x2="86.29" y2="29.63"/><path class="a" d="M41.21,31.51l-.06-.11L41,31.34h-.11l-.17.06-.11.17-.06.28v.28l.06.23.11.11.17.06h.06l.17-.06a.37.37,0,1,0-.4-.62l-.11.11-.06.17"/><polyline class="a" points="41.94 32.54 42.51 31.34 41.71 31.34"/><polygon class="a" points="55.83 31.34 55.66 31.4 55.6 31.51 55.6 31.63 55.66 31.74 55.77 31.8 56.01 31.85 56.18 31.91 56.29 32.02 56.35 32.13 56.35 32.31 56.29 32.43 56.23 32.48 56.05 32.54 55.83 32.54 55.66 32.48 55.6 32.43 55.54 32.31 55.54 32.13 55.6 32.02 55.71 31.91 55.88 31.85 56.12 31.8 56.23 31.74 56.29 31.63 56.29 31.51 56.23 31.4 56.05 31.34 55.83 31.34"/><polyline class="a" points="69.59 31.74 69.53 31.91 69.42 32.02 69.25 32.09 69.18 32.09 69.01 32.02 68.9 31.91 68.84 31.74 68.84 31.68 68.9 31.51 69.01 31.4 69.18 31.34 69.25 31.34 69.42 31.4 69.53 31.51 69.59 31.74 69.59 32.02 69.53 32.31 69.42 32.48 69.25 32.54 69.14 32.54 68.96 32.48 68.9 32.37"/><polyline class="a" points="70.3 31.57 70.41 31.51 70.58 31.34 70.58 32.54"/><polygon class="a" points="71.61 31.34 71.44 31.4 71.33 31.57 71.27 31.85 71.27 32.02 71.33 32.31 71.44 32.48 71.61 32.54 71.73 32.54 71.9 32.48 72.01 32.31 72.07 32.02 72.07 31.85 72.01 31.57 71.9 31.4 71.73 31.34 71.61 31.34"/><polyline class="a" points="76.76 31.57 76.87 31.51 77.04 31.34 77.04 32.54"/><polyline class="a" points="77.9 31.57 78.01 31.51 78.18 31.34 78.18 32.54"/><polyline class="a" points="79.93 31.57 80.04 31.51 80.21 31.34 80.21 32.54"/><polyline class="a" points="80.96 31.63 80.96 31.57 81.01 31.46 81.07 31.4 81.18 31.34 81.41 31.34 81.52 31.4 81.58 31.46 81.64 31.57 81.64 31.68 81.58 31.8 81.47 31.96 80.9 32.54 81.69 32.54"/><polyline class="a" points="82.24 31.57 82.35 31.51 82.52 31.34 82.52 32.54"/><polyline class="a" points="83.32 31.34 83.95 31.34 83.61 31.8 83.78 31.8 83.89 31.85 83.95 31.91 84 32.09 84 32.2 83.95 32.37 83.83 32.48 83.66 32.54 83.49 32.54 83.32 32.48 83.27 32.43 83.21 32.31"/><polyline class="a" points="85.68 31.57 85.79 31.51 85.96 31.34 85.96 32.54"/><polyline class="a" points="87.22 31.34 86.65 32.13 87.5 32.13"/><line class="a" x1="87.22" y1="31.34" x2="87.22" y2="32.54"/><line class="a" x1="41.17" y1="34.25" x2="41.17" y2="37.95"/><line class="a" x1="41.66" y1="34.25" x2="41.66" y2="37.95"/><line class="a" x1="55.86" y1="34.25" x2="55.86" y2="37.95"/><line class="a" x1="70.04" y1="34.25" x2="70.04" y2="37.95"/><line class="a" x1="70.53" y1="34.25" x2="70.53" y2="37.95"/><line class="a" x1="77.47" y1="34.25" x2="77.47" y2="37.95"/><line class="a" x1="80.76" y1="34.25" x2="80.76" y2="37.95"/><line class="a" x1="82.95" y1="34.25" x2="82.95" y2="37.95"/><line class="a" x1="86.29" y1="34.25" x2="86.29" y2="37.95"/><polyline class="a" points="37.01 35.54 37.49 35.54 37.23 35.89 37.36 35.89 37.45 35.93 37.49 35.98 37.54 36.11 37.54 36.2 37.49 36.33 37.41 36.42 37.27 36.45 37.13 36.45 37.01 36.42 36.96 36.37 36.91 36.28"/><polygon class="a" points="41.42 35.95 41.37 36 41.42 36.04 41.45 36 41.42 35.95"/><polyline class="a" points="48.21 35.67 48.17 35.57 48.04 35.54 47.95 35.54 47.82 35.57 47.73 35.71 47.68 35.93 47.68 36.15 47.73 36.33 47.82 36.42 47.95 36.45 47.99 36.45 48.12 36.42 48.21 36.33 48.26 36.2 48.26 36.15 48.21 36.01 48.12 35.93 47.99 35.89 47.95 35.89 47.82 35.93 47.73 36.01 47.68 36.15"/><polygon class="a" points="48.61 36.37 48.56 36.42 48.61 36.45 48.65 36.42 48.61 36.37"/><polyline class="a" points="49.09 35.71 49.19 35.67 49.31 35.54 49.31 36.45"/><polyline class="a" points="62.8 35.67 62.75 35.57 62.61 35.54 62.53 35.54 62.39 35.57 62.31 35.71 62.27 35.93 62.27 36.15 62.31 36.33 62.39 36.42 62.53 36.45 62.58 36.45 62.71 36.42 62.8 36.33 62.83 36.2 62.83 36.15 62.8 36.01 62.71 35.93 62.58 35.89 62.53 35.89 62.39 35.93 62.31 36.01 62.27 36.15"/><polygon class="a" points="63.19 36.37 63.15 36.42 63.19 36.45 63.24 36.42 63.19 36.37"/><polyline class="a" points="63.68 35.71 63.76 35.67 63.9 35.54 63.9 36.45"/><polygon class="a" points="70.29 35.95 70.24 36 70.29 36.04 70.32 36 70.29 35.95"/><polyline class="a" points="73.7 35.54 74.19 35.54 73.92 35.89 74.06 35.89 74.14 35.93 74.19 35.98 74.24 36.11 74.24 36.2 74.19 36.33 74.1 36.42 73.97 36.45 73.83 36.45 73.7 36.42 73.66 36.37 73.61 36.28"/><polyline class="a" points="78.16 35.71 78.24 35.67 78.38 35.54 78.38 36.45"/><polygon class="a" points="78.99 36.37 78.94 36.42 78.99 36.45 79.04 36.42 78.99 36.37"/><polyline class="a" points="79.78 35.54 79.34 36.15 80 36.15"/><line class="a" x1="79.78" y1="35.54" x2="79.78" y2="36.45"/><polygon class="a" points="81.14 35.54 81 35.57 80.92 35.71 80.87 35.93 80.87 36.06 80.92 36.28 81 36.42 81.14 36.45 81.23 36.45 81.36 36.42 81.45 36.28 81.5 36.06 81.5 35.93 81.45 35.71 81.36 35.57 81.23 35.54 81.14 35.54"/><polygon class="a" points="81.85 36.37 81.8 36.42 81.85 36.45 81.89 36.42 81.85 36.37"/><polyline class="a" points="82.77 35.84 82.73 35.98 82.63 36.06 82.51 36.11 82.46 36.11 82.33 36.06 82.24 35.98 82.19 35.84 82.19 35.79 82.24 35.67 82.33 35.57 82.46 35.54 82.51 35.54 82.63 35.57 82.73 35.67 82.77 35.84 82.77 36.06 82.73 36.28 82.63 36.42 82.51 36.45 82.41 36.45 82.29 36.42 82.24 36.33"/><polyline class="a" points="83.63 35.71 83.71 35.67 83.84 35.54 83.84 36.45"/><polygon class="a" points="84.46 36.37 84.41 36.42 84.46 36.45 84.51 36.42 84.46 36.37"/><polyline class="a" points="85.25 35.54 84.81 36.15 85.47 36.15"/><line class="a" x1="85.25" y1="35.54" x2="85.25" y2="36.45"/><polyline class="a" points="89.14 35.54 89.62 35.54 89.36 35.89 89.5 35.89 89.58 35.93 89.62 35.98 89.67 36.11 89.67 36.2 89.62 36.33 89.54 36.42 89.4 36.45 89.28 36.45 89.14 36.42 89.09 36.37 89.06 36.28"/><polygon class="a" points="90.03 36.37 89.98 36.42 90.03 36.45 90.06 36.42 90.03 36.37"/><polyline class="a" points="90.82 35.54 90.38 36.15 91.04 36.15"/><line class="a" x1="90.82" y1="35.54" x2="90.82" y2="36.45"/><polyline class="a" points="40.15 42.07 40.08 41.98 39.9 41.85 41.17 41.85"/><path class="a" d="M39.9,41.09l.06.12.18.09.31,0h.18l.29,0,.18-.09.06-.12V41l-.06-.13a1.38,1.38,0,0,0-1.15,0L39.9,41Z"/><polygon class="a" points="41.05 40.41 41.11 40.46 41.17 40.41 41.11 40.37 41.05 40.41"/><polyline class="a" points="39.9 39.56 39.9 39.99 40.45 40.03 40.39 39.99 40.33 39.86 40.33 39.73 40.39 39.61 40.51 39.52 40.7 39.48 40.81 39.48 40.99 39.52 41.11 39.61 41.17 39.73 41.17 39.86 41.11 39.99 41.05 40.03 40.93 40.08"/><polyline class="a" points="41.87 42.07 41.81 41.98 41.63 41.85 42.9 41.85"/><path class="a" d="M41.63,41.09l.06.12.18.09.31,0h.17l.31,0,.18-.09.06-.12V41l-.06-.13a1.39,1.39,0,0,0-1.15,0l-.06.13Z"/><polygon class="a" points="42.78 40.41 42.84 40.46 42.9 40.41 42.84 40.37 42.78 40.41"/><polyline class="a" points="42.9 39.91 41.63 39.48 41.63 40.08"/><polyline class="a" points="55.52 42.07 55.45 41.98 55.27 41.85 56.54 41.85"/><polyline class="a" points="55.45 40.8 55.33 40.84 55.27 40.96 55.27 41.04 55.33 41.18 55.52 41.26 55.82 41.3 56.13 41.3 56.36 41.26 56.48 41.18 56.54 41.04 56.54 41.01 56.48 40.87 56.36 40.8 56.19 40.75 56.13 40.75 55.94 40.8 55.82 40.87 55.76 41.01 55.76 41.04 55.82 41.18 55.94 41.26 56.13 41.3"/><polygon class="a" points="56.42 40.41 56.48 40.46 56.54 40.41 56.48 40.37 56.42 40.41"/><path class="a" d="M55.27,39.86l.06.14.12,0h.12l.12,0,.06-.09.06-.17.06-.12.12-.08.12,0h.17l.12,0,.06,0,.06.12v.17l-.06.14c-.88.42-.45-.72-1.15-.43l-.06.12Z"/><polyline class="a" points="69.15 41.45 69.09 41.45 68.96 41.41 68.9 41.36 68.84 41.28 68.84 41.12 68.9 41.03 68.96 40.98 69.09 40.95 69.21 40.95 69.33 40.98 69.52 41.07 70.11 41.5 70.11 40.9"/><polyline class="a" points="68.84 40.57 68.84 40.09 69.33 40.35 69.33 40.22 69.39 40.14 69.45 40.09 69.64 40.05 69.76 40.05 69.93 40.09 70.05 40.17 70.11 40.31 70.11 40.43 70.05 40.57 69.99 40.6 69.88 40.64"/><polyline class="a" points="71.01 42.08 70.95 42.08 70.82 42.05 70.76 42 70.7 41.91 70.7 41.75 70.76 41.67 70.82 41.62 70.95 41.58 71.07 41.58 71.19 41.62 71.38 41.7 71.97 42.13 71.97 41.53"/><polyline class="a" points="70.7 41.19 70.7 40.73 71.19 40.98 71.19 40.86 71.25 40.77 71.31 40.73 71.5 40.69 71.62 40.69 71.8 40.73 71.91 40.81 71.97 40.95 71.97 41.07 71.91 41.19 71.85 41.24 71.74 41.28"/><polygon class="a" points="71.85 40.34 71.91 40.39 71.97 40.34 71.91 40.31 71.85 40.34"/><polyline class="a" points="71.01 39.97 70.95 39.97 70.82 39.93 70.76 39.88 70.7 39.8 70.7 39.62 70.76 39.54 70.82 39.5 70.95 39.45 71.07 39.45 71.19 39.5 71.38 39.59 71.97 40 71.97 39.41"/><polyline class="a" points="77.22 42.08 77.16 42.08 77.04 42.05 76.98 42 76.93 41.91 76.93 41.75 76.98 41.67 77.04 41.62 77.16 41.58 77.28 41.58 77.41 41.62 77.59 41.7 78.19 42.13 78.19 41.53"/><polyline class="a" points="77.1 40.73 76.98 40.77 76.93 40.9 76.93 40.98 76.98 41.12 77.16 41.19 77.47 41.24 77.78 41.24 78.02 41.19 78.14 41.12 78.19 40.98 78.19 40.95 78.14 40.81 78.02 40.73 77.84 40.69 77.78 40.69 77.59 40.73 77.47 40.81 77.41 40.95 77.41 40.98 77.47 41.12 77.59 41.19 77.78 41.24"/><polygon class="a" points="78.08 40.34 78.14 40.39 78.19 40.34 78.14 40.31 78.08 40.34"/><polyline class="a" points="77.22 39.97 77.16 39.97 77.04 39.93 76.98 39.88 76.93 39.8 76.93 39.62 76.98 39.54 77.04 39.5 77.16 39.45 77.28 39.45 77.41 39.5 77.59 39.59 78.19 40 78.19 39.41"/><polyline class="a" points="80.49 42.08 80.43 42.08 80.31 42.05 80.25 42 80.19 41.91 80.19 41.75 80.25 41.67 80.31 41.62 80.43 41.58 80.55 41.58 80.66 41.62 80.85 41.7 81.46 42.13 81.46 41.53"/><polyline class="a" points="81.46 41.12 80.19 40.69 80.19 41.27"/><polygon class="a" points="81.34 40.34 81.4 40.39 81.46 40.34 81.4 40.31 81.34 40.34"/><polyline class="a" points="80.37 39.45 80.25 39.5 80.19 39.62 80.19 39.71 80.25 39.84 80.43 39.93 80.72 39.97 81.03 39.97 81.28 39.93 81.4 39.84 81.46 39.71 81.46 39.67 81.4 39.54 81.28 39.45 81.09 39.41 81.03 39.41 80.85 39.45 80.72 39.54 80.66 39.67 80.66 39.71 80.72 39.84 80.85 39.93 81.03 39.97"/><polyline class="a" points="82.72 42.08 82.66 42.08 82.53 42.05 82.47 42 82.41 41.91 82.41 41.75 82.47 41.67 82.53 41.62 82.66 41.58 82.78 41.58 82.9 41.62 83.09 41.7 83.69 42.13 83.69 41.53"/><polygon class="a" points="82.41 41.07 82.47 41.19 82.6 41.24 82.72 41.24 82.84 41.19 82.9 41.12 82.96 40.95 83.03 40.81 83.15 40.72 83.26 40.69 83.44 40.69 83.56 40.72 83.63 40.77 83.69 40.9 83.69 41.07 83.63 41.19 83.56 41.24 83.44 41.27 83.26 41.27 83.15 41.24 83.03 41.15 82.96 41.03 82.9 40.86 82.84 40.77 82.72 40.72 82.6 40.72 82.47 40.77 82.41 40.9 82.41 41.07"/><polygon class="a" points="83.56 40.34 83.62 40.39 83.69 40.34 83.62 40.31 83.56 40.34"/><polyline class="a" points="82.41 39.5 82.41 39.93 82.96 39.97 82.9 39.93 82.84 39.8 82.84 39.67 82.9 39.54 83.03 39.45 83.2 39.41 83.32 39.41 83.5 39.45 83.63 39.54 83.69 39.67 83.69 39.8 83.63 39.93 83.56 39.97 83.44 40"/><polyline class="a" points="85.84 41.41 85.84 40.95 86.33 41.19 86.33 41.07 86.39 40.98 86.45 40.95 86.64 40.9 86.76 40.9 86.94 40.95 87.05 41.03 87.11 41.15 87.11 41.27 87.05 41.41 87 41.45 86.88 41.5"/><polygon class="a" points="85.84 40.39 85.9 40.52 86.08 40.6 86.39 40.64 86.57 40.64 86.88 40.6 87.05 40.52 87.11 40.39 87.11 40.31 87.05 40.17 86.88 40.09 86.57 40.05 86.39 40.05 86.08 40.09 85.9 40.17 85.84 40.31 85.84 40.39"/><polyline class="a" points="40.38 48.42 40.32 48.34 40.13 48.21 41.41 48.21"/><polygon class="a" points="40.13 47.49 40.19 47.61 40.32 47.66 40.44 47.66 40.56 47.61 40.62 47.54 40.67 47.37 40.73 47.23 40.85 47.15 40.98 47.11 41.16 47.11 41.28 47.15 41.34 47.2 41.41 47.32 41.41 47.49 41.34 47.61 41.28 47.66 41.16 47.7 40.98 47.7 40.85 47.66 40.73 47.58 40.67 47.45 40.62 47.28 40.56 47.2 40.44 47.15 40.32 47.15 40.19 47.2 40.13 47.32 40.13 47.49"/><polyline class="a" points="40.56 46.3 40.73 46.35 40.85 46.43 40.92 46.56 40.92 46.6 40.85 46.73 40.73 46.82 40.56 46.86 40.5 46.86 40.32 46.82 40.19 46.73 40.13 46.6 40.13 46.56 40.19 46.43 40.32 46.35 40.56 46.3 40.85 46.3 41.16 46.35 41.34 46.43 41.41 46.56 41.41 46.65 41.34 46.77 41.22 46.82"/><polygon class="a" points="41.28 45.93 41.34 45.96 41.41 45.93 41.34 45.88 41.28 45.93"/><polyline class="a" points="40.44 45.55 40.38 45.55 40.26 45.5 40.19 45.46 40.13 45.38 40.13 45.2 40.19 45.12 40.26 45.08 40.38 45.03 40.5 45.03 40.62 45.08 40.79 45.17 41.41 45.58 41.41 44.99"/><polyline class="a" points="40.56 44.19 40.73 44.23 40.85 44.31 40.92 44.45 40.92 44.48 40.85 44.6 40.73 44.69 40.56 44.74 40.5 44.74 40.32 44.69 40.19 44.6 40.13 44.48 40.13 44.45 40.19 44.31 40.32 44.23 40.56 44.19 40.85 44.19 41.16 44.23 41.34 44.31 41.41 44.45 41.41 44.53 41.34 44.65 41.22 44.69"/><polyline class="a" points="42.12 48.02 42.05 47.93 41.88 47.81 43.16 47.81"/><path class="a" d="M41.88,47.09l.06.14.11,0h.12l.12,0,.06-.09.06-.17.06-.13.12-.09.12,0h.18l.12,0,.06,0,.06.12v.17l-.06.14c-.94.39-.47-.74-1.15-.43l-.06.12Z"/><polyline class="a" points="42.3 45.9 42.48 45.95 42.6 46.04 42.67 46.16 42.67 46.2 42.6 46.33 42.48 46.41 42.3 46.45 42.24 46.45 42.05 46.41 41.94 46.33 41.88 46.2 41.88 46.16 41.94 46.04 42.05 45.95 42.3 45.9 42.6 45.9 42.91 45.95 43.09 46.04 43.16 46.16 43.16 46.24 43.09 46.37 42.97 46.41"/><polygon class="a" points="43.03 45.52 43.09 45.56 43.16 45.52 43.09 45.48 43.03 45.52"/><path class="a" d="M41.88,44.68v.42l.54,0-.06,0c-.42-.75,1.29-.61.67,0l-.12,0"/><polyline class="a" points="55.64 48.02 55.58 47.93 55.39 47.81 56.67 47.81"/><path class="a" d="M55.39,47.09l.06.14.12,0h.12l.12,0,.06-.09.06-.17.06-.13.12-.09.12,0h.18l.11,0,.06,0,.06.12v.17l-.06.14c-.92.39-.45-.75-1.15-.43l-.06.12Z"/><polyline class="a" points="55.82 45.9 56.01 45.95 56.13 46.04 56.19 46.16 56.19 46.2 56.13 46.33 56.01 46.41 55.82 46.45 55.76 46.45 55.58 46.41 55.45 46.33 55.39 46.2 55.39 46.16 55.45 46.04 55.58 45.95 55.82 45.9 56.13 45.9 56.43 45.95 56.6 46.04 56.66 46.16 56.66 46.24 56.6 46.37 56.49 46.41"/><polygon class="a" points="56.54 45.52 56.6 45.56 56.66 45.52 56.6 45.48 56.54 45.52"/><path class="a" d="M55.39,44.68v.42l.55,0-.06,0c-.42-.74,1.28-.61.66,0l-.11,0"/><polyline class="a" points="69.23 48.02 69.17 47.93 68.99 47.81 70.26 47.81"/><path class="a" d="M69,47.09l.06.14.12,0h.12l.12,0,.06-.09.06-.17.06-.13.12-.09.11,0H70l.12,0,.06,0,.06.12v.17l-.06.14c-.93.39-.45-.75-1.15-.43l-.06.12Z"/><polyline class="a" points="69.42 45.9 69.6 45.95 69.72 46.04 69.78 46.16 69.78 46.2 69.72 46.33 69.6 46.41 69.42 46.45 69.36 46.45 69.17 46.41 69.05 46.33 68.99 46.2 68.99 46.16 69.05 46.04 69.17 45.95 69.42 45.9 69.72 45.9 70.02 45.95 70.2 46.04 70.26 46.16 70.26 46.24 70.2 46.37 70.08 46.41"/><polygon class="a" points="70.14 45.52 70.2 45.56 70.26 45.52 70.2 45.48 70.14 45.52"/><path class="a" d="M69,44.68v.42l.55,0-.06,0c-.42-.75,1.27-.6.66,0l-.12,0"/><polyline class="a" points="71.24 48.42 71.18 48.34 71 48.21 72.27 48.21"/><polygon class="a" points="71 47.49 71.06 47.61 71.18 47.66 71.3 47.66 71.42 47.61 71.49 47.54 71.55 47.37 71.61 47.23 71.73 47.15 71.84 47.11 72.02 47.11 72.15 47.15 72.21 47.2 72.27 47.32 72.27 47.49 72.21 47.61 72.15 47.66 72.02 47.7 71.84 47.7 71.73 47.66 71.61 47.58 71.55 47.45 71.49 47.28 71.42 47.2 71.3 47.15 71.18 47.15 71.06 47.2 71 47.32 71 47.49"/><polyline class="a" points="71.42 46.3 71.61 46.35 71.73 46.43 71.79 46.56 71.79 46.6 71.73 46.73 71.61 46.82 71.42 46.86 71.36 46.86 71.18 46.82 71.06 46.73 71 46.6 71 46.56 71.06 46.43 71.18 46.35 71.42 46.3 71.73 46.3 72.02 46.35 72.21 46.43 72.27 46.56 72.27 46.65 72.21 46.77 72.08 46.82"/><polygon class="a" points="72.15 45.93 72.21 45.96 72.27 45.93 72.21 45.88 72.15 45.93"/><polyline class="a" points="71.3 45.55 71.24 45.55 71.12 45.5 71.06 45.46 71 45.38 71 45.2 71.06 45.12 71.12 45.08 71.24 45.03 71.36 45.03 71.49 45.08 71.67 45.17 72.27 45.58 72.27 44.99"/><polyline class="a" points="71.42 44.19 71.61 44.23 71.73 44.31 71.79 44.45 71.79 44.48 71.73 44.6 71.61 44.69 71.42 44.74 71.36 44.74 71.18 44.69 71.06 44.6 71 44.48 71 44.45 71.06 44.31 71.18 44.23 71.42 44.19 71.73 44.19 72.02 44.23 72.21 44.31 72.27 44.45 72.27 44.53 72.21 44.65 72.08 44.69"/><polyline class="a" points="77.26 48.42 77.2 48.34 77.03 48.21 78.29 48.21"/><polygon class="a" points="77.03 47.49 77.09 47.61 77.2 47.66 77.32 47.66 77.44 47.61 77.51 47.54 77.57 47.37 77.63 47.23 77.75 47.15 77.87 47.11 78.06 47.11 78.18 47.15 78.24 47.2 78.29 47.32 78.29 47.49 78.24 47.61 78.18 47.66 78.06 47.7 77.87 47.7 77.75 47.66 77.63 47.58 77.57 47.45 77.51 47.28 77.44 47.2 77.32 47.15 77.2 47.15 77.09 47.2 77.03 47.32 77.03 47.49"/><polyline class="a" points="77.44 46.3 77.63 46.35 77.75 46.43 77.81 46.56 77.81 46.6 77.75 46.73 77.63 46.82 77.44 46.86 77.38 46.86 77.2 46.82 77.09 46.73 77.03 46.6 77.03 46.56 77.09 46.43 77.2 46.35 77.44 46.3 77.75 46.3 78.06 46.35 78.24 46.43 78.29 46.56 78.29 46.65 78.24 46.77 78.12 46.82"/><polygon class="a" points="78.18 45.93 78.24 45.96 78.29 45.93 78.24 45.88 78.18 45.93"/><polyline class="a" points="77.32 45.55 77.26 45.55 77.14 45.5 77.09 45.46 77.03 45.38 77.03 45.2 77.09 45.12 77.14 45.08 77.26 45.03 77.38 45.03 77.51 45.08 77.69 45.17 78.29 45.58 78.29 44.99"/><polyline class="a" points="77.44 44.19 77.63 44.23 77.75 44.31 77.81 44.45 77.81 44.48 77.75 44.6 77.63 44.69 77.44 44.74 77.38 44.74 77.2 44.69 77.09 44.6 77.03 44.48 77.03 44.45 77.09 44.31 77.2 44.23 77.44 44.19 77.75 44.19 78.06 44.23 78.24 44.31 78.29 44.45 78.29 44.53 78.24 44.65 78.12 44.69"/><polyline class="a" points="80.64 48.47 80.58 48.38 80.39 48.25 81.67 48.25"/><polyline class="a" points="80.82 47.2 81.01 47.23 81.13 47.32 81.19 47.45 81.19 47.49 81.13 47.61 81.01 47.7 80.82 47.75 80.76 47.75 80.58 47.7 80.45 47.61 80.39 47.49 80.39 47.45 80.45 47.32 80.58 47.23 80.82 47.2 81.13 47.2 81.42 47.23 81.61 47.32 81.67 47.45 81.67 47.54 81.61 47.66 81.48 47.7"/><path class="a" d="M80.39,46.65l.06.12.18.09.31,0h.18l.29,0,.18-.09.06-.12v-.09l-.06-.13a1.39,1.39,0,0,0-1.15,0l-.06.13Z"/><polygon class="a" points="81.54 45.96 81.61 46.01 81.67 45.96 81.61 45.92 81.54 45.96"/><polyline class="a" points="80.64 45.5 80.58 45.41 80.39 45.29 81.67 45.29"/><polyline class="a" points="80.39 44.36 81.25 44.77 81.25 44.14"/><line class="a" x1="80.39" y1="44.36" x2="81.67" y2="44.36"/><polyline class="a" points="82.82 48.47 82.76 48.38 82.57 48.25 83.84 48.25"/><polyline class="a" points="83 47.2 83.17 47.23 83.3 47.32 83.36 47.45 83.36 47.49 83.3 47.61 83.17 47.7 83 47.75 82.94 47.75 82.76 47.7 82.63 47.61 82.57 47.49 82.57 47.45 82.63 47.32 82.76 47.23 83 47.2 83.3 47.2 83.6 47.23 83.78 47.32 83.84 47.45 83.84 47.54 83.78 47.66 83.66 47.7"/><path class="a" d="M82.57,46.65l.06.12.18.09.29,0h.18l.31,0,.18-.09.06-.12v-.09l-.06-.13a1.38,1.38,0,0,0-1.15,0l-.06.13Z"/><polygon class="a" points="83.72 45.96 83.78 46.01 83.84 45.96 83.78 45.92 83.72 45.96"/><polyline class="a" points="82.82 45.5 82.76 45.41 82.57 45.29 83.84 45.29"/><polyline class="a" points="82.57 44.36 83.42 44.77 83.42 44.14"/><line class="a" x1="82.57" y1="44.36" x2="83.85" y2="44.36"/><polyline class="a" points="86.24 48.45 86.18 48.36 86 48.24 87.27 48.24"/><polygon class="a" points="86 47.52 86.06 47.64 86.18 47.69 86.31 47.69 86.43 47.64 86.49 47.55 86.55 47.38 86.61 47.26 86.73 47.17 86.84 47.14 87.03 47.14 87.15 47.17 87.21 47.22 87.27 47.34 87.27 47.52 87.21 47.64 87.15 47.69 87.03 47.72 86.84 47.72 86.73 47.69 86.61 47.6 86.55 47.47 86.49 47.3 86.43 47.22 86.31 47.17 86.18 47.17 86.06 47.22 86 47.34 86 47.52"/><path class="a" d="M86,46.67l.06.12.12,0h.12l.12,0,.06-.09.06-.17.06-.12.12-.09.11,0H87l.12,0,.06,0,.06.14v.17l-.06.12c-.88.42-.45-.72-1.15-.43L86,46.5Z"/><polygon class="a" points="87.15 45.95 87.21 45.99 87.27 45.95 87.21 45.9 87.15 45.95"/><polyline class="a" points="86.31 45.56 86.24 45.56 86.12 45.52 86.06 45.49 86 45.4 86 45.23 86.06 45.14 86.12 45.09 86.24 45.06 86.37 45.06 86.49 45.09 86.67 45.18 87.27 45.61 87.27 45.01"/><polyline class="a" points="87.27 44.59 86 44.16 86 44.76"/><polygon class="a" points="2.04 40.3 2.04 39.37 2.36 39.37 2.49 39.42 2.58 39.5 2.61 39.59 2.66 39.72 2.66 39.94 2.61 40.08 2.58 40.16 2.49 40.26 2.36 40.3 2.04 40.3"/><line class="a" x1="2.97" y1="39.37" x2="2.97" y2="40.3"/><polyline class="a" points="3.9 39.5 3.81 39.41 3.68 39.37 3.51 39.37 3.37 39.41 3.29 39.5 3.29 39.59 3.32 39.69 3.37 39.72 3.46 39.77 3.73 39.86 3.81 39.91 3.86 39.94 3.9 40.04 3.9 40.16 3.81 40.26 3.68 40.3 3.51 40.3 3.37 40.26 3.29 40.16"/><line class="a" x1="4.39" y1="39.37" x2="4.39" y2="40.3"/><line class="a" x1="4.08" y1="39.37" x2="4.71" y2="39.37"/><polygon class="a" points="4.96 40.21 4.93 40.26 4.96 40.3 5.01 40.26 4.96 40.21"/><polyline class="a" points="6.3 40.3 6.3 39.37 6.69 39.37 6.82 39.42 6.87 39.45 6.92 39.55 6.92 39.69 6.87 39.77 6.82 39.81 6.69 39.86 6.3 39.86"/><polyline class="a" points="7.23 40.3 7.23 39.37 7.62 39.37 7.75 39.42 7.8 39.45 7.85 39.55 7.85 39.64 7.8 39.72 7.75 39.77 7.62 39.81 7.23 39.81"/><line class="a" x1="7.53" y1="39.81" x2="7.85" y2="40.3"/><path class="a" d="M8.38,39.37l-.09,0-.1.09a.55.55,0,0,0,.18.79h.17l.1,0,.09-.1,0-.09,0-.13v-.22l0-.14,0-.08-.09-.09-.1,0Z"/><polyline class="a" points="9.75 39.59 9.71 39.5 9.61 39.42 9.53 39.37 9.36 39.37 9.26 39.42 9.17 39.5 9.12 39.59 9.09 39.72 9.09 39.94 9.12 40.08 9.17 40.16 9.26 40.26 9.36 40.3 9.53 40.3 9.61 40.26 9.71 40.16 9.75 40.08 9.75 39.94 9.53 39.94"/><polyline class="a" points="10.05 40.3 10.05 39.37 10.46 39.37 10.59 39.42 10.64 39.45 10.68 39.55 10.68 39.64 10.64 39.72 10.59 39.77 10.46 39.81 10.05 39.81"/><line class="a" x1="10.37" y1="39.81" x2="10.68" y2="40.3"/><polyline class="a" points="10.98 40.3 10.98 39.37 11.57 39.37"/><line class="a" x1="10.98" y1="39.81" x2="11.34" y2="39.81"/><line class="a" x1="10.98" y1="40.3" x2="11.57" y2="40.3"/><polyline class="a" points="12.4 39.5 12.32 39.41 12.18 39.37 12.01 39.37 11.88 39.41 11.79 39.5 11.79 39.59 11.83 39.69 11.88 39.72 11.96 39.77 12.23 39.86 12.32 39.91 12.37 39.94 12.4 40.04 12.4 40.16 12.32 40.26 12.18 40.3 12.01 40.3 11.88 40.26 11.79 40.16"/><polyline class="a" points="13.3 39.5 13.2 39.41 13.08 39.37 12.89 39.37 12.76 39.41 12.67 39.5 12.67 39.59 12.72 39.69 12.76 39.72 12.84 39.77 13.11 39.86 13.2 39.91 13.25 39.94 13.3 40.04 13.3 40.16 13.2 40.26 13.08 40.3 12.89 40.3 12.76 40.26 12.67 40.16"/><line class="a" x1="13.6" y1="39.37" x2="13.6" y2="40.3"/><polyline class="a" points="13.82 39.37 14.18 40.3 14.53 39.37"/><polyline class="a" points="14.62 40.3 14.97 39.37 15.33 40.3"/><line class="a" x1="14.75" y1="39.99" x2="15.19" y2="39.99"/><path class="a" d="M2.36,40.92,2.27,41a.93.93,0,0,0,0,1.24l.09.1"/><line class="a" x1="2.66" y1="41.41" x2="2.66" y2="42.02"/><polyline class="a" points="2.66 41.58 2.8 41.45 2.88 41.41 3.02 41.41 3.1 41.45 3.15 41.58 3.15 42.02"/><polyline class="a" points="3.15 41.58 3.29 41.45 3.37 41.41 3.51 41.41 3.59 41.45 3.64 41.58 3.64 42.02"/><path class="a" d="M3.95,40.92,4,41a1,1,0,0,1,0,1.24l-.09.1"/><polygon class="a" points="2.04 35.45 2.04 34.52 2.36 34.52 2.49 34.57 2.58 34.66 2.61 34.75 2.66 34.88 2.66 35.11 2.61 35.23 2.58 35.33 2.49 35.41 2.36 35.45 2.04 35.45"/><line class="a" x1="2.97" y1="34.52" x2="2.97" y2="35.45"/><polyline class="a" points="3.9 34.66 3.81 34.57 3.68 34.52 3.51 34.52 3.37 34.57 3.29 34.66 3.29 34.75 3.32 34.84 3.37 34.88 3.46 34.92 3.73 35.01 3.81 35.06 3.86 35.11 3.9 35.19 3.9 35.33 3.81 35.41 3.68 35.45 3.51 35.45 3.37 35.41 3.29 35.33"/><line class="a" x1="4.39" y1="34.52" x2="4.39" y2="35.45"/><line class="a" x1="4.08" y1="34.52" x2="4.71" y2="34.52"/><polygon class="a" points="4.96 35.37 4.93 35.41 4.96 35.45 5.01 35.41 4.96 35.37"/><polyline class="a" points="6.3 35.45 6.3 34.52 6.69 34.52 6.82 34.57 6.87 34.62 6.92 34.7 6.92 34.84 6.87 34.92 6.82 34.97 6.69 35.01 6.3 35.01"/><polyline class="a" points="7.09 35.45 7.45 34.52 7.8 35.45"/><line class="a" x1="7.23" y1="35.14" x2="7.67" y2="35.14"/><path class="a" d="M8,35.45v-.93h.4c.3.07.3.38,0,.45H8"/><line class="a" x1="8.33" y1="34.97" x2="8.65" y2="35.45"/><polyline class="a" points="8.9 35.45 9.53 34.52 8.9 34.52"/><line class="a" x1="8.9" y1="35.45" x2="9.53" y2="35.45"/><line class="a" x1="9.83" y1="34.52" x2="9.83" y2="35.45"/><polyline class="a" points="10.05 35.45 10.41 34.52 10.76 35.45"/><line class="a" x1="10.19" y1="35.14" x2="10.64" y2="35.14"/><polyline class="a" points="10.98 34.52 10.98 35.45 11.52 35.45"/><polyline class="a" points="11.74 35.45 11.74 34.52 12.32 34.52"/><line class="a" x1="11.74" y1="34.97" x2="12.1" y2="34.97"/><line class="a" x1="11.74" y1="35.45" x2="12.32" y2="35.45"/><path class="a" d="M2.36,36.07l-.09.09a.94.94,0,0,0,0,1.25l.09.09"/><line class="a" x1="2.66" y1="36.56" x2="2.66" y2="37.19"/><polyline class="a" points="2.66 36.73 2.8 36.61 2.88 36.56 3.02 36.56 3.1 36.61 3.15 36.73 3.15 37.19"/><polyline class="a" points="3.15 36.73 3.29 36.61 3.37 36.56 3.51 36.56 3.59 36.61 3.64 36.73 3.64 37.19"/><path class="a" d="M3.95,36.07l.09.09a1,1,0,0,1,0,1.25l-.09.09"/><polyline class="a" points="2.04 31.57 2.39 32.5 2.75 31.57"/><polyline class="a" points="2.97 32.5 2.97 31.57 3.54 31.57"/><line class="a" x1="2.97" y1="32.01" x2="3.32" y2="32.01"/><line class="a" x1="2.97" y1="32.5" x2="3.54" y2="32.5"/><polyline class="a" points="3.81 32.5 3.81 31.57 4.22 31.57 4.35 31.62 4.39 31.66 4.44 31.74 4.44 31.84 4.39 31.93 4.35 31.98 4.22 32.01 3.81 32.01"/><line class="a" x1="4.13" y1="32.01" x2="4.44" y2="32.5"/><line class="a" x1="4.93" y1="31.57" x2="4.93" y2="32.5"/><line class="a" x1="4.61" y1="31.57" x2="5.23" y2="31.57"/><line class="a" x1="5.45" y1="31.57" x2="5.45" y2="32.5"/><polyline class="a" points="6.43 31.79 6.38 31.71 6.3 31.62 6.21 31.57 6.03 31.57 5.94 31.62 5.86 31.71 5.81 31.79 5.76 31.93 5.76 32.15 5.81 32.28 5.86 32.37 5.94 32.45 6.03 32.5 6.21 32.5 6.3 32.45 6.38 32.37 6.43 32.28"/><line class="a" x1="6.74" y1="31.57" x2="6.74" y2="32.5"/><path class="a" d="M2.31,44.95l-.09,0-.08.09a.54.54,0,0,0,.17.79h.18l.08,0,.09-.1,0-.09,0-.13V45.3l0-.14,0-.08L2.58,45l-.08,0Z"/><line class="a" x1="2.44" y1="45.71" x2="2.71" y2="45.96"/><polyline class="a" points="3.07 44.95 3.07 45.62 3.1 45.74 3.2 45.84 3.32 45.88 3.42 45.88 3.54 45.84 3.64 45.74 3.68 45.62 3.68 44.95"/><path class="a" d="M4.25,44.95l-.09,0-.08.09c-.16.21-.12.71.17.79h.18l.08,0a.56.56,0,0,0,0-.84l-.08,0Z"/><line class="a" x1="5.18" y1="44.95" x2="5.18" y2="45.88"/><line class="a" x1="4.88" y1="44.95" x2="5.5" y2="44.95"/><polyline class="a" points="5.59 45.88 5.94 44.95 6.3 45.88"/><line class="a" x1="5.72" y1="45.57" x2="6.16" y2="45.57"/><line class="a" x1="7.62" y1="44.95" x2="7.62" y2="45.88"/><line class="a" x1="7.31" y1="44.95" x2="7.94" y2="44.95"/><polyline class="a" points="8.16 45.88 8.16 44.95 8.73 44.95"/><line class="a" x1="8.16" y1="45.39" x2="8.51" y2="45.39"/><line class="a" x1="8.16" y1="45.88" x2="8.73" y2="45.88"/><polyline class="a" points="9 45.88 9 44.95 9.39 44.95 9.53 45 9.58 45.03 9.61 45.13 9.61 45.22 9.58 45.3 9.53 45.35 9.39 45.39 9 45.39"/><line class="a" x1="9.31" y1="45.39" x2="9.61" y2="45.88"/><polyline class="a" points="9.93 45.88 9.93 44.95 10.32 44.95 10.46 45 10.51 45.03 10.54 45.13 10.54 45.22 10.51 45.3 10.46 45.35 10.32 45.39 9.93 45.39"/><line class="a" x1="10.24" y1="45.39" x2="10.54" y2="45.88"/><polyline class="a" points="10.86 45.88 10.86 44.95 11.44 44.95"/><line class="a" x1="10.86" y1="45.39" x2="11.22" y2="45.39"/><line class="a" x1="10.86" y1="45.88" x2="11.44" y2="45.88"/><polyline class="a" points="11.69 45.88 11.69 44.95 12.32 45.88 12.32 44.95"/><path class="a" d="M12.89,44.95l-.09,0-.08.09a.54.54,0,0,0,.17.79h.18l.08,0,.09-.1,0-.09,0-.13V45.3l0-.14,0-.08L13.16,45l-.08,0Z"/><path class="a" d="M2.36,46.5l-.09.09a.93.93,0,0,0,0,1.24l.09.1"/><line class="a" x1="2.66" y1="46.99" x2="2.66" y2="47.6"/><polyline class="a" points="2.66 47.16 2.8 47.03 2.88 46.99 3.02 46.99 3.1 47.03 3.15 47.16 3.15 47.6"/><polyline class="a" points="3.15 47.16 3.29 47.03 3.37 46.99 3.51 46.99 3.59 47.03 3.64 47.16 3.64 47.6"/><polyline class="a" points="5.37 47.13 5.32 47.03 5.18 46.99 5.06 46.99 4.93 47.03 4.88 47.13 4.93 47.21 5.01 47.25 5.23 47.3 5.32 47.34 5.37 47.43 5.37 47.48 5.32 47.57 5.18 47.6 5.06 47.6 4.93 47.57 4.88 47.48"/><polygon class="a" points="5.72 47.52 5.67 47.57 5.72 47.6 5.76 47.57 5.72 47.52"/><line class="a" x1="6.11" y1="46.67" x2="6.11" y2="47.6"/><polygon class="a" points="6.52 47.52 6.47 47.57 6.52 47.6 6.57 47.57 6.52 47.52"/><line class="a" x1="6.92" y1="46.99" x2="6.92" y2="47.6"/><polyline class="a" points="6.92 47.16 7.04 47.03 7.14 46.99 7.26 46.99 7.36 47.03 7.4 47.16 7.4 47.6"/><polyline class="a" points="7.4 47.16 7.53 47.03 7.62 46.99 7.75 46.99 7.85 47.03 7.89 47.16 7.89 47.6"/><polygon class="a" points="8.29 47.52 8.24 47.57 8.29 47.6 8.33 47.57 8.29 47.52"/><path class="a" d="M8.65,46.5l.09.09a1,1,0,0,1,0,1.24l-.09.1"/><line class="b" x1="43.83" y1="7.76" x2="44.56" y2="8"/><line class="a" x1="86.29" y1="10.5" x2="94.27" y2="10.65"/><polyline class="a" points="40.07 1.43 39.97 1.34 39.84 1.3 39.67 1.3 39.53 1.34 39.45 1.43 39.45 1.52 39.48 1.61 39.53 1.65 39.62 1.7 39.89 1.79 39.97 1.83 40.02 1.87 40.07 1.96 40.07 2.09 39.97 2.19 39.84 2.23 39.67 2.23 39.53 2.19 39.45 2.09"/><path class="a" d="M41,1.52l0-.09-.09-.08-.1,0H40.6l-.08,0-.1.08,0,.09,0,.14v.22c.07.28.23.45.54.32l.09-.1L41,2"/><polyline class="a" points="41.17 2.23 41.53 1.3 41.88 2.23"/><line class="a" x1="41.31" y1="1.92" x2="41.75" y2="1.92"/><polyline class="a" points="41.97 1.3 42.32 2.23 42.68 1.3"/><path class="a" d="M43.12,1.3l-.09,0-.08.09c-.16.21-.12.71.17.79h.18l.08,0,.09-.1,0-.09,0-.13V1.65l0-.14,0-.08-.09-.09-.08,0Z"/><line class="a" x1="43.88" y1="1.7" x2="44.67" y2="1.7"/><line class="a" x1="43.88" y1="1.96" x2="44.67" y2="1.96"/><polyline class="a" points="45.11 1.48 45.2 1.43 45.33 1.3 45.33 2.23"/><polygon class="a" points="45.96 2.14 45.91 2.19 45.96 2.23 45.99 2.19 45.96 2.14"/><polyline class="a" points="46.89 1.43 46.84 1.34 46.7 1.3 46.62 1.3 46.48 1.34 46.4 1.48 46.35 1.7 46.35 1.92 46.4 2.09 46.48 2.19 46.62 2.23 46.67 2.23 46.8 2.19 46.89 2.09 46.92 1.96 46.92 1.92 46.89 1.79 46.8 1.7 46.67 1.65 46.62 1.65 46.48 1.7 46.4 1.79 46.35 1.92"/><polyline class="a" points="47.28 1.3 47.77 1.3 47.51 1.65 47.63 1.65 47.73 1.7 47.77 1.74 47.82 1.87 47.82 1.96 47.77 2.09 47.68 2.19 47.55 2.23 47.41 2.23 47.28 2.19 47.24 2.14 47.19 2.06"/><line class="a" x1="49.05" y1="1.61" x2="49.05" y2="2.23"/><polyline class="a" points="49.05 1.79 49.19 1.65 49.27 1.61 49.41 1.61 49.49 1.65 49.54 1.79 49.54 2.23"/><polyline class="a" points="49.54 1.79 49.68 1.65 49.76 1.61 49.9 1.61 49.98 1.65 50.03 1.79 50.03 2.23"/><line class="a" x1="50.88" y1="1.61" x2="50.88" y2="2.54"/><path class="a" d="M50.88,1.74l-.1-.09c-.59-.26-.58.8,0,.54l.1-.1"/><polyline class="a" points="66.27 4.2 66.27 3.27 66.68 3.27 66.81 3.3 66.85 3.35 66.9 3.44 66.9 3.52 66.85 3.62 66.81 3.66 66.68 3.71 66.27 3.71"/><line class="a" x1="66.59" y1="3.71" x2="66.9" y2="4.2"/><line class="a" x1="67.2" y1="3.27" x2="67.2" y2="4.2"/><polyline class="a" points="67.56 4.2 67.56 3.27 67.96 3.27 68.09 3.3 68.13 3.35 68.18 3.44 68.18 3.57 68.13 3.66 68.09 3.71 67.96 3.74 67.56 3.74"/><path class="a" d="M68.71,3.27l-.09,0-.08.1a.55.55,0,0,0,.17.79h.18l.08,0a.56.56,0,0,0,0-.84l-.08,0Z"/><polyline class="a" points="69.47 4.2 69.47 3.27 69.86 3.27 69.99 3.3 70.04 3.35 70.09 3.44 70.09 3.52 70.04 3.62 69.99 3.66 69.86 3.71 69.47 3.71"/><line class="a" x1="69.77" y1="3.71" x2="70.09" y2="4.2"/><line class="a" x1="70.57" y1="3.27" x2="70.57" y2="4.2"/><line class="a" x1="70.26" y1="3.27" x2="70.89" y2="3.27"/><path class="a" d="M71.33,3.27l-.09,0-.1.1a.55.55,0,0,0,.18.79h.17l.1,0a.59.59,0,0,0,0-.84l-.1,0Z"/><line class="a" x1="72.07" y1="3.66" x2="72.88" y2="3.66"/><line class="a" x1="72.07" y1="3.93" x2="72.88" y2="3.93"/><polyline class="a" points="73.32 3.44 73.41 3.4 73.54 3.27 73.54 4.2"/><polyline class="a" points="74.25 4.2 74.69 3.27 74.07 3.27"/><polygon class="a" points="75.05 4.1 75 4.15 75.05 4.2 75.08 4.15 75.05 4.1"/><polyline class="a" points="75.49 3.27 75.98 3.27 75.71 3.62 75.84 3.62 75.93 3.66 75.98 3.71 76.01 3.84 76.01 3.93 75.98 4.06 75.89 4.15 75.76 4.2 75.62 4.2 75.49 4.15 75.44 4.1 75.4 4.01"/><polyline class="a" points="76.42 3.44 76.5 3.4 76.64 3.27 76.64 4.2"/><line class="a" x1="78.14" y1="3.57" x2="78.14" y2="4.2"/><polyline class="a" points="78.14 3.74 78.28 3.62 78.36 3.57 78.5 3.57 78.58 3.62 78.63 3.74 78.63 4.2"/><polyline class="a" points="78.63 3.74 78.77 3.62 78.85 3.57 78.99 3.57 79.07 3.62 79.12 3.74 79.12 4.2"/><line class="a" x1="79.97" y1="3.57" x2="79.97" y2="4.5"/><path class="a" d="M80,3.71l-.1-.09c-.58-.29-.58.82,0,.53l.1-.09"/><polyline class="c" points="51.48 2.43 38.88 2.43 40.26 5.35"/><polyline class="b" points="81.25 4.5 66.27 4.5 66.27 7.66"/><line class="a" x1="32.29" y1="6.4" x2="34.16" y2="8.15"/><polyline class="c" points="35.27 8.15 35.67 8.01 36.03 8.15"/><line class="b" x1="38.25" y1="8.15" x2="38.16" y2="8.39"/><line class="c" x1="41.91" y1="6.74" x2="43.65" y2="7.66"/><line class="b" x1="43.65" y1="7.66" x2="43.83" y2="7.76"/><line class="a" x1="16.94" y1="29.63" x2="1.07" y2="29.63"/><line class="a" x1="4.06" y1="28.21" x2="6.3" y2="28.21"/><polygon class="a" points="8.54 28.21 6.3 29.61 6.3 28.21 8.54 28.21"/><line class="a" x1="8.17" y1="28.44" x2="8.4" y2="28.21"/><line class="a" x1="6.43" y1="29.53" x2="7.75" y2="28.21"/><line class="a" x1="6.3" y1="29" x2="7.09" y2="28.21"/><line class="a" x1="6.3" y1="28.35" x2="6.44" y2="28.21"/><line class="a" x1="7.35" y1="28.95" x2="6.62" y2="28.21"/><line class="a" x1="6.96" y1="29.2" x2="6.3" y2="28.55"/><line class="a" x1="6.55" y1="29.45" x2="6.3" y2="29.21"/><line class="a" x1="7.75" y1="28.7" x2="7.26" y2="28.21"/><line class="a" x1="8.16" y1="28.45" x2="7.92" y2="28.21"/><line class="a" x1="4.06" y1="28.21" x2="6.3" y2="29.61"/><path class="a" d="M1.9,26.22l-.1,0-.1.1a.61.61,0,0,0,.2.9h.21l.1,0a.66.66,0,0,0,0-1l-.1,0Z"/><line class="a" x1="2.05" y1="27.08" x2="2.36" y2="27.37"/><line class="a" x1="2.76" y1="26.58" x2="2.76" y2="27.28"/><polyline class="a" points="2.76 26.87 2.81 26.73 2.91 26.63 3.02 26.58 3.16 26.58"/><polygon class="a" points="3.36 26.27 3.42 26.32 3.47 26.27 3.42 26.22 3.36 26.27"/><line class="a" x1="3.42" y1="26.63" x2="3.42" y2="27.28"/><polyline class="a" points="4.12 26.22 4.02 26.22 3.92 26.27 3.87 26.42 3.87 27.28"/><line class="a" x1="3.71" y1="26.58" x2="4.07" y2="26.58"/><rect class="a" x="4.44" y="26.59" width="0.07" height="0.07" transform="translate(-17.52 10.96) rotate(-45)"/><rect class="a" x="4.44" y="27.19" width="0.07" height="0.07" transform="translate(-17.94 11.14) rotate(-45)"/><polyline class="a" points="6.09 26.42 6.19 26.37 6.33 26.22 6.33 27.28"/><polygon class="a" points="7.19 26.22 7.04 26.27 6.99 26.37 6.99 26.47 7.04 26.58 7.14 26.63 7.34 26.68 7.5 26.73 7.59 26.82 7.64 26.92 7.64 27.08 7.59 27.18 7.54 27.23 7.39 27.28 7.19 27.28 7.04 27.23 6.99 27.18 6.93 27.08 6.93 26.92 6.99 26.82 7.09 26.73 7.24 26.68 7.45 26.63 7.54 26.58 7.59 26.47 7.59 26.37 7.54 26.27 7.39 26.22 7.19 26.22"/><polygon class="a" points="8.24 26.22 8.1 26.27 8 26.42 7.95 26.68 7.95 26.82 8 27.08 8.1 27.23 8.24 27.28 8.35 27.28 8.5 27.23 8.6 27.08 8.65 26.82 8.65 26.68 8.6 26.42 8.5 26.27 8.35 26.22 8.24 26.22"/><line class="a" x1="10.05" y1="26.58" x2="10.05" y2="27.28"/><polyline class="a" points="10.05 26.77 10.21 26.63 10.31 26.58 10.46 26.58 10.57 26.63 10.62 26.77 10.62 27.28"/><polyline class="a" points="10.62 26.77 10.76 26.63 10.86 26.58 11.02 26.58 11.12 26.63 11.17 26.77 11.17 27.28"/><polyline class="a" points="13.13 26.73 13.08 26.63 12.93 26.58 12.78 26.58 12.62 26.63 12.57 26.73 12.62 26.82 12.72 26.87 12.98 26.92 13.08 26.97 13.13 27.08 13.13 27.13 13.08 27.23 12.93 27.28 12.78 27.28 12.62 27.23 12.57 27.13"/><rect class="a" x="13.49" y="27.19" width="0.07" height="0.07" transform="translate(-15.29 17.54) rotate(-45)"/><line class="a" x1="13.98" y1="26.22" x2="13.98" y2="27.28"/><rect class="a" x="14.4" y="27.19" width="0.07" height="0.07" transform="translate(-15.03 18.18) rotate(-45)"/><line class="a" x1="14.89" y1="26.58" x2="14.89" y2="27.28"/><polyline class="a" points="14.89 26.77 15.05 26.63 15.14 26.58 15.29 26.58 15.39 26.63 15.45 26.77 15.45 27.28"/><polyline class="a" points="15.45 26.77 15.6 26.63 15.7 26.58 15.84 26.58 15.95 26.63 16 26.77 16 27.28"/><rect class="a" x="16.42" y="27.19" width="0.07" height="0.07" transform="translate(-14.43 19.61) rotate(-45)"/><line class="d" x1="29.74" y1="6.4" x2="30.72" y2="5.41"/><line class="d" x1="30.72" y1="6.4" x2="29.74" y2="5.41"/><line class="d" x1="80.27" y1="6.67" x2="81.26" y2="5.69"/><line class="d" x1="81.26" y1="6.67" x2="80.27" y2="5.69"/><line class="e" x1="37.67" y1="7.45" x2="37.67" y2="8.83"/><path class="e" d="M37,8.15h1.38V8l-.07-.17A.7.7,0,0,0,37,8l0,.18,0,.17a.7.7,0,0,0,1.27.17l.07-.17V8.15"/><line class="e" x1="74.01" y1="7.45" x2="74.01" y2="8.83"/><path class="e" d="M73.31,8.15h1.38l0-.18-.06-.17A.7.7,0,0,0,73.33,8l0,.18,0,.17a.7.7,0,0,0,1.27.17l.06-.17,0-.17"/><line class="d" x1="41.17" y1="8.15" x2="42.15" y2="7.17"/><line class="d" x1="42.15" y1="8.15" x2="41.17" y2="7.17"/><line class="d" x1="69.55" y1="8.15" x2="70.53" y2="7.17"/><line class="d" x1="70.53" y1="8.15" x2="69.55" y2="7.17"/><line class="f" x1="33.67" y1="8.64" x2="34.65" y2="7.66"/><line class="f" x1="34.65" y1="8.64" x2="33.67" y2="7.66"/><line class="f" x1="40.68" y1="8.64" x2="41.66" y2="7.66"/><line class="f" x1="41.66" y1="8.64" x2="40.68" y2="7.66"/><line class="f" x1="76.98" y1="8.64" x2="77.96" y2="7.66"/><line class="f" x1="77.96" y1="8.64" x2="76.98" y2="7.66"/><line class="f" x1="70.04" y1="8.64" x2="71.02" y2="7.66"/><line class="f" x1="71.02" y1="8.64" x2="70.04" y2="7.66"/></svg>