<svg xmlns="http://www.w3.org/2000/svg" viewBox="0 0 212.76 50.18"><defs><style>.a,.b,.c,.d,.e,.f{fill:none;stroke-linecap:round;stroke-linejoin:round;stroke-width:0.21px;}.a{stroke:#000;}.b{stroke:red;}.c{stroke:#ffbf00;}.d{stroke:#00b800;}.e{stroke:blue;}.f{stroke:#00bfff;}</style></defs><title>cad1.7</title><polyline class="a" points="16.37 31.73 16.5 31.68 16.67 31.51 16.67 32.71"/><line class="a" x1="16.52" y1="34.42" x2="16.52" y2="38.11"/><line class="a" x1="2.65" y1="29.8" x2="211.52" y2="29.8"/><line class="a" x1="16.52" y1="34.42" x2="211.52" y2="34.42"/><line class="a" x1="16.52" y1="38.11" x2="211.52" y2="38.11"/><line class="a" x1="16.52" y1="43.65" x2="211.52" y2="43.65"/><polyline class="a" points="16.52 49.19 211.52 49.19 211.52 29.8"/><polyline class="a" points="23.42 35.83 23.38 35.74 23.25 35.69 23.16 35.69 23.03 35.74 22.94 35.87 22.89 36.09 22.89 36.31 22.94 36.48 23.03 36.57 23.16 36.62 23.2 36.62 23.33 36.57 23.42 36.48 23.47 36.35 23.47 36.31 23.42 36.18 23.33 36.09 23.2 36.05 23.16 36.05 23.03 36.09 22.94 36.18 22.89 36.31"/><polygon class="a" points="23.82 36.53 23.77 36.57 23.82 36.62 23.86 36.57 23.82 36.53"/><polyline class="a" points="24.3 35.87 24.38 35.83 24.52 35.69 24.52 36.62"/><polygon class="a" points="15.85 40.97 15.91 41.09 16.09 41.17 16.4 41.22 16.58 41.22 16.87 41.17 17.06 41.09 17.12 40.97 17.12 40.88 17.06 40.76 16.87 40.67 16.58 40.62 16.4 40.62 16.09 40.67 15.91 40.76 15.85 40.88 15.85 40.97"/><polyline class="a" points="16.09 48.61 16.03 48.53 15.85 48.39 17.12 48.39"/><path class="a" d="M15.85,47.67l.06.13.12,0h.12l.12,0,.06-.08.06-.17.06-.12.12-.09.11,0h.18l.12,0,.06,0,.06.13v.16l-.06.13c-.88.42-.45-.72-1.15-.43l-.06.13Z"/><polyline class="a" points="16.27 46.49 16.46 46.53 16.58 46.62 16.63 46.74 16.63 46.79 16.58 46.91 16.46 47 16.27 47.05 16.21 47.05 16.03 47 15.91 46.91 15.85 46.79 15.85 46.74 15.91 46.62 16.03 46.53 16.27 46.49 16.58 46.49 16.87 46.53 17.06 46.62 17.12 46.74 17.12 46.83 17.06 46.96 16.93 47"/><polygon class="a" points="17 46.11 17.06 46.16 17.12 46.11 17.06 46.07 17 46.11"/><polyline class="a" points="15.85 45.27 15.85 45.69 16.4 45.73 16.34 45.69 16.27 45.56 16.27 45.44 16.34 45.3 16.46 45.23 16.63 45.18 16.75 45.18 16.93 45.23 17.06 45.3 17.12 45.44 17.12 45.56 17.06 45.69 17 45.73 16.87 45.78"/><path class="a" d="M15.85,44.84v-.46l.49.26v-.12c.21-.41,1.14-.06.66.38l-.12,0"/><line class="a" x1="16.52" y1="29.8" x2="16.52" y2="7.8"/><line class="a" x1="208.06" y1="29.8" x2="208.06" y2="11.74"/><line class="a" x1="192.55" y1="29.8" x2="192.55" y2="11.57"/><line class="a" x1="164.6" y1="29.8" x2="164.6" y2="11.3"/><line class="a" x1="137.67" y1="29.8" x2="137.67" y2="10.79"/><line class="a" x1="98.88" y1="29.8" x2="98.88" y2="10"/><line class="a" x1="75.66" y1="29.8" x2="75.66" y2="9.31"/><line class="a" x1="55.79" y1="29.8" x2="55.79" y2="8.64"/><line class="a" x1="37.98" y1="29.8" x2="37.98" y2="7.2"/><line class="a" x1="35.22" y1="29.8" x2="35.22" y2="5.59"/><line class="a" x1="30.6" y1="29.8" x2="30.6" y2="6.5"/><line class="b" x1="38.04" y1="7.2" x2="38.05" y2="7.2"/><line class="b" x1="38.42" y1="7.24" x2="38.45" y2="7.2"/><line class="b" x1="38.79" y1="7.27" x2="38.85" y2="7.2"/><line class="b" x1="39.17" y1="7.3" x2="39.27" y2="7.2"/><line class="b" x1="39.55" y1="7.33" x2="39.67" y2="7.2"/><line class="b" x1="39.92" y1="7.36" x2="40.09" y2="7.2"/><line class="b" x1="40.3" y1="7.4" x2="40.49" y2="7.2"/><line class="b" x1="40.67" y1="7.42" x2="40.89" y2="7.2"/><line class="b" x1="41.08" y1="7.43" x2="41.31" y2="7.2"/><line class="b" x1="41.48" y1="7.43" x2="41.71" y2="7.2"/><line class="b" x1="41.9" y1="7.43" x2="42.13" y2="7.2"/><line class="b" x1="42.3" y1="7.43" x2="42.53" y2="7.2"/><line class="b" x1="42.71" y1="7.43" x2="42.93" y2="7.2"/><line class="b" x1="43.12" y1="7.43" x2="43.35" y2="7.2"/><line class="b" x1="45.01" y1="6.76" x2="45.44" y2="6.33"/><line class="b" x1="45.55" y1="6.63" x2="46.78" y2="5.41"/><line class="b" x1="46.39" y1="6.2" x2="47.7" y2="4.89"/><line class="b" x1="47.99" y1="5.01" x2="48.1" y2="4.89"/><line class="b" x1="48.34" y1="5.06" x2="48.51" y2="4.89"/><line class="b" x1="48.71" y1="5.1" x2="48.92" y2="4.89"/><line class="b" x1="49.06" y1="5.15" x2="49.33" y2="4.89"/><line class="b" x1="49.43" y1="5.2" x2="49.74" y2="4.89"/><line class="b" x1="49.8" y1="5.25" x2="50.14" y2="4.89"/><line class="b" x1="50.15" y1="5.3" x2="50.55" y2="4.89"/><line class="b" x1="50.4" y1="5.45" x2="50.88" y2="4.98"/><line class="b" x1="50.64" y1="5.61" x2="51.12" y2="5.15"/><line class="b" x1="50.88" y1="5.78" x2="51.35" y2="5.32"/><line class="b" x1="51.13" y1="5.94" x2="51.58" y2="5.49"/><line class="b" x1="51.37" y1="6.11" x2="51.81" y2="5.67"/><line class="b" x1="51.62" y1="6.27" x2="52.04" y2="5.85"/><line class="b" x1="51.86" y1="6.44" x2="52.28" y2="6.02"/><line class="b" x1="52.1" y1="6.6" x2="52.52" y2="6.19"/><line class="b" x1="52.36" y1="6.75" x2="52.75" y2="6.37"/><line class="b" x1="52.63" y1="6.9" x2="52.98" y2="6.54"/><line class="b" x1="52.89" y1="7.04" x2="53.22" y2="6.71"/><line class="b" x1="53.16" y1="7.19" x2="53.45" y2="6.9"/><line class="b" x1="53.41" y1="7.33" x2="53.68" y2="7.07"/><line class="b" x1="53.68" y1="7.48" x2="53.91" y2="7.24"/><line class="b" x1="53.95" y1="7.62" x2="54.16" y2="7.41"/><line class="b" x1="54.21" y1="7.76" x2="54.39" y2="7.59"/><line class="b" x1="54.47" y1="7.91" x2="54.62" y2="7.76"/><line class="b" x1="54.73" y1="8.06" x2="54.85" y2="7.93"/><line class="b" x1="55" y1="8.2" x2="55.08" y2="8.1"/><line class="b" x1="55.26" y1="8.35" x2="55.32" y2="8.29"/><line class="b" x1="55.52" y1="8.48" x2="55.55" y2="8.46"/><line class="b" x1="55.78" y1="8.63" x2="55.79" y2="8.63"/><line class="c" x1="43.75" y1="7.2" x2="43.8" y2="7.16"/><line class="c" x1="44.17" y1="7.2" x2="44.47" y2="6.88"/><polyline class="a" points="16.52 7.8 21.76 7.33 22.98 7.43 27.59 6.97 30.6 6.5 35.22 5.59 37.98 7.2"/><polyline class="b" points="37.98 7.2 40.75 7.43 43.29 7.43 43.73 7.2"/><polyline class="b" points="44.73 6.82 46.06 6.5 47.7 4.98"/><line class="b" x1="52.13" y1="6.63" x2="55.79" y2="8.64"/><polyline class="a" points="55.79 8.64 57.21 8.84 63.78 9.01 75.66 9.31 87.3 9.85 98.88 10 112.06 10.35 124.47 10.54 137.67 10.79 150.48 10.94 164.6 11.3 178.71 11.37 192.55 11.57 208.06 11.74"/><polyline class="b" points="47.7 4.98 50.15 5.3 52.13 6.63"/><polyline class="a" points="30.26 31.8 30.26 31.73 30.32 31.62 30.37 31.56 30.49 31.51 30.71 31.51 30.83 31.56 30.88 31.62 30.94 31.73 30.94 31.86 30.88 31.97 30.77 32.14 30.2 32.71 31 32.71"/><polyline class="a" points="34.94 31.51 35.56 31.51 35.22 31.97 35.39 31.97 35.5 32.03 35.56 32.08 35.62 32.25 35.62 32.37 35.56 32.54 35.45 32.65 35.28 32.71 35.11 32.71 34.94 32.65 34.87 32.59 34.81 32.48"/><polyline class="a" points="38.13 31.51 37.56 32.31 38.41 32.31"/><line class="a" x1="38.13" y1="31.51" x2="38.13" y2="32.71"/><path class="a" d="M55.68,31.51l-.17,0,0,.12v.11l0,.11.12.06.22.06.17,0,.12.12,0,.11v.17l0,.11-.06.06-.17.06h-.23l-.17-.06c-.54-.86,1-.43.57-1.09l-.17,0Z"/><polyline class="a" points="76.04 31.91 75.98 32.08 75.87 32.2 75.7 32.25 75.64 32.25 75.47 32.2 75.36 32.08 75.3 31.91 75.3 31.86 75.36 31.68 75.47 31.56 75.64 31.51 75.7 31.51 75.87 31.56 75.98 31.68 76.04 31.91 76.04 32.2 75.98 32.48 75.87 32.65 75.7 32.71 75.59 32.71 75.42 32.65 75.36 32.54"/><polyline class="a" points="98.01 31.73 98.12 31.68 98.29 31.51 98.29 32.71"/><polygon class="a" points="99.32 31.51 99.14 31.56 99.03 31.73 98.97 32.03 98.97 32.2 99.03 32.48 99.14 32.65 99.32 32.71 99.43 32.71 99.6 32.65 99.71 32.48 99.77 32.2 99.77 32.03 99.71 31.73 99.6 31.56 99.43 31.51 99.32 31.51"/><polyline class="a" points="136.97 31.73 137.09 31.68 137.26 31.51 137.26 32.71"/><polyline class="a" points="138.1 31.73 138.22 31.68 138.39 31.51 138.39 32.71"/><polyline class="a" points="163.72 31.73 163.84 31.68 164.01 31.51 164.01 32.71"/><polyline class="a" points="164.75 31.8 164.75 31.73 164.81 31.62 164.87 31.56 164.98 31.51 165.21 31.51 165.32 31.56 165.38 31.62 165.43 31.73 165.43 31.86 165.38 31.97 165.26 32.14 164.7 32.71 165.49 32.71"/><polyline class="a" points="191.68 31.73 191.78 31.68 191.96 31.51 191.96 32.71"/><polyline class="a" points="192.76 31.51 193.38 31.51 193.04 31.97 193.21 31.97 193.32 32.03 193.38 32.08 193.45 32.25 193.45 32.37 193.38 32.54 193.28 32.65 193.1 32.71 192.93 32.71 192.76 32.65 192.7 32.59 192.64 32.48"/><polyline class="a" points="207.16 31.73 207.27 31.68 207.44 31.51 207.44 32.71"/><polyline class="a" points="208.69 31.51 208.12 32.31 208.98 32.31"/><line class="a" x1="208.69" y1="31.51" x2="208.69" y2="32.71"/><line class="a" x1="30.6" y1="34.42" x2="30.6" y2="38.11"/><line class="a" x1="35.22" y1="34.42" x2="35.22" y2="38.11"/><line class="a" x1="37.98" y1="34.42" x2="37.98" y2="38.11"/><line class="a" x1="55.79" y1="34.42" x2="55.79" y2="38.11"/><line class="a" x1="75.66" y1="34.42" x2="75.66" y2="38.11"/><line class="a" x1="98.88" y1="34.42" x2="98.88" y2="38.11"/><line class="a" x1="137.67" y1="34.42" x2="137.67" y2="38.11"/><line class="a" x1="164.6" y1="34.42" x2="164.6" y2="38.11"/><line class="a" x1="192.55" y1="34.42" x2="192.55" y2="38.11"/><line class="a" x1="208.06" y1="34.42" x2="208.06" y2="38.11"/><polyline class="a" points="32.43 35.91 32.43 35.87 32.48 35.79 32.53 35.74 32.62 35.69 32.79 35.69 32.87 35.74 32.92 35.79 32.97 35.87 32.97 35.96 32.92 36.05 32.84 36.18 32.4 36.62 33.01 36.62"/><polyline class="a" points="35.66 35.87 35.74 35.83 35.88 35.69 35.88 36.62"/><polygon class="a" points="36.5 36.53 36.45 36.57 36.5 36.62 36.53 36.57 36.5 36.53"/><polyline class="a" points="36.89 35.91 36.89 35.87 36.94 35.79 36.97 35.74 37.06 35.69 37.24 35.69 37.33 35.74 37.38 35.79 37.41 35.87 37.41 35.96 37.38 36.05 37.28 36.18 36.84 36.62 37.46 36.62"/><polygon class="a" points="64.77 35.69 64.64 35.74 64.6 35.83 64.6 35.91 64.64 36.01 64.72 36.05 64.9 36.09 65.04 36.13 65.12 36.23 65.16 36.31 65.16 36.45 65.12 36.53 65.07 36.57 64.94 36.62 64.77 36.62 64.64 36.57 64.6 36.53 64.55 36.45 64.55 36.31 64.6 36.23 64.68 36.13 64.82 36.09 64.99 36.05 65.07 36.01 65.12 35.91 65.12 35.83 65.07 35.74 64.94 35.69 64.77 35.69"/><polygon class="a" points="65.51 36.53 65.48 36.57 65.51 36.62 65.56 36.57 65.51 36.53"/><polyline class="a" points="66.44 35.83 66.39 35.74 66.26 35.69 66.17 35.69 66.04 35.74 65.95 35.87 65.92 36.09 65.92 36.31 65.95 36.48 66.04 36.57 66.17 36.62 66.22 36.62 66.36 36.57 66.44 36.48 66.48 36.35 66.48 36.31 66.44 36.18 66.36 36.09 66.22 36.05 66.17 36.05 66.04 36.09 65.95 36.18 65.92 36.31"/><polyline class="a" points="86.24 35.87 86.32 35.83 86.46 35.69 86.46 36.62"/><polygon class="a" points="87.25 35.69 87.12 35.74 87.03 35.87 86.98 36.09 86.98 36.23 87.03 36.45 87.12 36.57 87.25 36.62 87.34 36.62 87.47 36.57 87.56 36.45 87.61 36.23 87.61 36.09 87.56 35.87 87.47 35.74 87.34 35.69 87.25 35.69"/><polygon class="a" points="87.96 36.53 87.91 36.57 87.96 36.62 88 36.57 87.96 36.53"/><polyline class="a" points="88.44 35.87 88.52 35.83 88.66 35.69 88.66 36.62"/><polyline class="a" points="117.55 35.87 117.63 35.83 117.77 35.69 117.77 36.62"/><polyline class="a" points="118.87 35.83 118.82 35.74 118.68 35.69 118.6 35.69 118.46 35.74 118.38 35.87 118.34 36.09 118.34 36.31 118.38 36.48 118.46 36.57 118.6 36.62 118.65 36.62 118.77 36.57 118.87 36.48 118.9 36.35 118.9 36.31 118.87 36.18 118.77 36.09 118.65 36.05 118.6 36.05 118.46 36.09 118.38 36.18 118.34 36.31"/><polygon class="a" points="119.26 36.53 119.21 36.57 119.26 36.62 119.31 36.57 119.26 36.53"/><polygon class="a" points="119.83 35.69 119.7 35.74 119.65 35.83 119.65 35.91 119.7 36.01 119.78 36.05 119.97 36.09 120.09 36.13 120.19 36.23 120.22 36.31 120.22 36.45 120.19 36.53 120.14 36.57 120 36.62 119.83 36.62 119.7 36.57 119.65 36.53 119.61 36.45 119.61 36.31 119.65 36.23 119.75 36.13 119.87 36.09 120.05 36.05 120.14 36.01 120.19 35.91 120.19 35.83 120.14 35.74 120 35.69 119.83 35.69"/><polyline class="a" points="149.58 35.87 149.66 35.83 149.8 35.69 149.8 36.62"/><polyline class="a" points="150.46 35.87 150.54 35.83 150.68 35.69 150.68 36.62"/><polygon class="a" points="151.3 36.53 151.25 36.57 151.3 36.62 151.34 36.57 151.3 36.53"/><polyline class="a" points="151.83 36.62 152.27 35.69 151.64 35.69"/><polyline class="a" points="177.36 35.87 177.45 35.83 177.58 35.69 177.58 36.62"/><polyline class="a" points="178.16 35.91 178.16 35.87 178.21 35.79 178.24 35.74 178.33 35.69 178.51 35.69 178.6 35.74 178.64 35.79 178.68 35.87 178.68 35.96 178.64 36.05 178.55 36.18 178.11 36.62 178.73 36.62"/><polygon class="a" points="179.08 36.53 179.03 36.57 179.08 36.62 179.12 36.57 179.08 36.53"/><polyline class="a" points="179.56 35.87 179.65 35.83 179.78 35.69 179.78 36.62"/><polyline class="a" points="200.06 35.83 200.03 35.74 199.89 35.69 199.81 35.69 199.67 35.74 199.59 35.87 199.54 36.09 199.54 36.31 199.59 36.48 199.67 36.57 199.81 36.62 199.84 36.62 199.98 36.57 200.06 36.48 200.11 36.35 200.11 36.31 200.06 36.18 199.98 36.09 199.84 36.05 199.81 36.05 199.67 36.09 199.59 36.18 199.54 36.31"/><polygon class="a" points="200.47 36.53 200.42 36.57 200.47 36.62 200.5 36.57 200.47 36.53"/><polyline class="a" points="200.99 36.62 201.43 35.69 200.81 35.69"/><polyline class="a" points="30.15 41.2 30.03 41.23 29.96 41.37 29.96 41.45 30.03 41.58 30.21 41.66 30.51 41.7 30.81 41.7 31.05 41.66 31.17 41.58 31.23 41.45 31.23 41.41 31.17 41.28 31.05 41.2 30.87 41.15 30.81 41.15 30.64 41.2 30.51 41.28 30.45 41.41 30.45 41.45 30.51 41.58 30.64 41.66 30.81 41.7"/><polygon class="a" points="31.11 40.82 31.17 40.86 31.23 40.82 31.17 40.77 31.11 40.82"/><polyline class="a" points="30.21 40.36 30.15 40.27 29.96 40.14 31.23 40.14"/><polygon class="a" points="34.58 41.52 34.64 41.64 34.76 41.69 34.89 41.69 35.01 41.64 35.07 41.55 35.13 41.39 35.19 41.26 35.3 41.17 35.42 41.14 35.61 41.14 35.73 41.17 35.79 41.22 35.85 41.34 35.85 41.52 35.79 41.64 35.73 41.69 35.61 41.72 35.42 41.72 35.3 41.69 35.19 41.6 35.13 41.47 35.07 41.31 35.01 41.22 34.89 41.17 34.76 41.17 34.64 41.22 34.58 41.34 34.58 41.52"/><polygon class="a" points="35.73 40.8 35.79 40.83 35.85 40.8 35.79 40.76 35.73 40.8"/><polyline class="a" points="34.83 40.33 34.76 40.25 34.58 40.12 35.85 40.12"/><polyline class="a" points="37.77 41.31 37.95 41.34 38.07 41.43 38.13 41.55 38.13 41.6 38.07 41.72 37.95 41.81 37.77 41.86 37.71 41.86 37.54 41.81 37.41 41.72 37.35 41.6 37.35 41.55 37.41 41.43 37.54 41.34 37.77 41.31 38.07 41.31 38.38 41.34 38.56 41.43 38.62 41.55 38.62 41.64 38.56 41.77 38.44 41.81"/><polygon class="a" points="38.5 40.92 38.56 40.97 38.62 40.92 38.56 40.88 38.5 40.92"/><polyline class="a" points="37.35 40.5 37.35 40.04 37.83 40.28 37.83 40.16 37.89 40.08 37.95 40.04 38.13 39.99 38.26 39.99 38.44 40.04 38.56 40.12 38.62 40.25 38.62 40.37 38.56 40.5 38.5 40.54 38.38 40.59"/><polyline class="a" points="55.4 41.58 55.34 41.49 55.17 41.37 56.44 41.37"/><polyline class="a" points="56.44 40.69 55.17 40.27 55.17 40.86"/><polyline class="a" points="75.33 42.24 75.28 42.24 75.16 42.19 75.1 42.15 75.04 42.06 75.04 41.89 75.1 41.81 75.16 41.77 75.28 41.72 75.39 41.72 75.52 41.77 75.7 41.86 76.31 42.27 76.31 41.69"/><path class="a" d="M75,40.92v.43l.54,0-.06,0c-.42-.75,1.28-.61.67,0l-.12,0"/><polygon class="a" points="76.19 40.5 76.25 40.54 76.31 40.5 76.25 40.45 76.19 40.5"/><polyline class="a" points="75.22 39.61 75.1 39.65 75.04 39.78 75.04 39.87 75.1 39.99 75.28 40.08 75.58 40.12 75.88 40.12 76.13 40.08 76.25 39.99 76.31 39.87 76.31 39.82 76.25 39.7 76.13 39.61 75.94 39.57 75.88 39.57 75.7 39.61 75.58 39.7 75.52 39.82 75.52 39.87 75.58 39.99 75.7 40.08 75.88 40.12"/><path class="a" d="M98.25,42.19v-.46l.48.26v-.12c.21-.4,1.16-.07.67.38l-.12,0"/><path class="a" d="M98.25,40.92v.43l.54,0-.06,0c-.42-.75,1.28-.61.67,0l-.12,0"/><polygon class="a" points="99.4 40.5 99.46 40.54 99.52 40.5 99.46 40.45 99.4 40.5"/><polyline class="a" points="99.52 39.99 98.25 39.57 98.25 40.16"/><path class="a" d="M137,41.77v.42l.55,0-.06,0c-.41-.74,1.27-.61.66,0l-.11,0"/><polyline class="a" points="137.34 41.39 137.28 41.39 137.16 41.34 137.1 41.31 137.04 41.22 137.04 41.05 137.1 40.97 137.16 40.92 137.28 40.88 137.41 40.88 137.53 40.92 137.71 41 138.31 41.43 138.31 40.83"/><polygon class="a" points="138.19 40.5 138.25 40.54 138.31 40.5 138.25 40.45 138.19 40.5"/><path class="a" d="M137,39.65v.43l.55,0-.06,0c-.41-.74,1.27-.61.66,0l-.11,0"/><polyline class="a" points="164.16 41.75 164.04 41.78 163.98 41.92 163.98 42 164.04 42.13 164.22 42.21 164.51 42.26 164.82 42.26 165.06 42.21 165.19 42.13 165.25 42 165.25 41.96 165.19 41.83 165.06 41.75 164.88 41.7 164.82 41.7 164.64 41.75 164.51 41.83 164.45 41.96 164.45 42 164.51 42.13 164.64 42.21 164.82 42.26"/><polyline class="a" points="163.98 41.03 164.82 41.45 164.82 40.82"/><line class="a" x1="163.98" y1="41.03" x2="165.25" y2="41.03"/><polygon class="a" points="165.13 40.52 165.19 40.56 165.25 40.52 165.19 40.48 165.13 40.52"/><polyline class="a" points="164.27 40.14 164.22 40.14 164.1 40.1 164.04 40.05 163.98 39.97 163.98 39.81 164.04 39.72 164.1 39.67 164.22 39.63 164.33 39.63 164.45 39.67 164.64 39.76 165.25 40.19 165.25 39.59"/><polyline class="a" points="193.19 42.1 191.92 41.69 191.92 42.27"/><polyline class="a" points="192.1 40.88 191.98 40.92 191.92 41.05 191.92 41.14 191.98 41.26 192.16 41.34 192.47 41.39 192.76 41.39 193.01 41.34 193.13 41.26 193.19 41.14 193.19 41.09 193.13 40.97 193.01 40.88 192.82 40.83 192.76 40.83 192.59 40.88 192.47 40.97 192.41 41.09 192.41 41.14 192.47 41.26 192.59 41.34 192.76 41.39"/><polygon class="a" points="193.07 40.5 193.13 40.54 193.19 40.5 193.13 40.45 193.07 40.5"/><polyline class="a" points="191.92 40.08 191.92 39.61 192.41 39.87 192.41 39.73 192.47 39.65 192.53 39.61 192.71 39.57 192.82 39.57 193.01 39.61 193.13 39.7 193.19 39.82 193.19 39.95 193.13 40.08 193.07 40.12 192.94 40.16"/><polygon class="a" points="207.43 41.43 207.49 41.55 207.61 41.6 207.73 41.6 207.85 41.55 207.92 41.47 207.98 41.31 208.04 41.17 208.15 41.09 208.27 41.05 208.45 41.05 208.58 41.09 208.64 41.14 208.7 41.26 208.7 41.43 208.64 41.55 208.58 41.6 208.45 41.64 208.27 41.64 208.15 41.6 208.04 41.52 207.98 41.39 207.92 41.22 207.85 41.14 207.73 41.09 207.61 41.09 207.49 41.14 207.43 41.26 207.43 41.43"/><polyline class="a" points="207.43 40.71 207.43 40.25 207.92 40.5 207.92 40.37 207.98 40.28 208.04 40.25 208.21 40.21 208.33 40.21 208.51 40.25 208.64 40.33 208.7 40.45 208.7 40.59 208.64 40.71 208.58 40.76 208.45 40.8"/><polyline class="a" points="30.22 48.59 30.16 48.5 29.98 48.38 31.25 48.38"/><polyline class="a" points="30.39 47.32 30.57 47.35 30.7 47.44 30.76 47.57 30.76 47.61 30.7 47.74 30.57 47.83 30.39 47.87 30.33 47.87 30.16 47.83 30.04 47.74 29.98 47.61 29.98 47.57 30.04 47.44 30.16 47.35 30.39 47.32 30.7 47.32 31 47.35 31.19 47.44 31.25 47.57 31.25 47.66 31.19 47.78 31.06 47.83"/><polygon class="a" points="29.98 46.77 30.04 46.89 30.22 46.98 30.51 47.02 30.7 47.02 31 46.98 31.19 46.89 31.25 46.77 31.25 46.68 31.19 46.56 31 46.47 30.7 46.42 30.51 46.42 30.22 46.47 30.04 46.56 29.98 46.68 29.98 46.77"/><polygon class="a" points="31.13 46.09 31.19 46.13 31.25 46.09 31.19 46.05 31.13 46.09"/><polygon class="a" points="29.98 45.5 30.04 45.62 30.22 45.7 30.51 45.75 30.7 45.75 31 45.7 31.19 45.62 31.25 45.5 31.25 45.41 31.19 45.29 31 45.2 30.7 45.16 30.51 45.16 30.22 45.2 30.04 45.29 29.98 45.41 29.98 45.5"/><polyline class="a" points="30.39 44.36 30.57 44.4 30.7 44.48 30.76 44.6 30.76 44.65 30.7 44.78 30.57 44.86 30.39 44.91 30.33 44.91 30.16 44.86 30.04 44.78 29.98 44.65 29.98 44.6 30.04 44.48 30.16 44.4 30.39 44.36 30.7 44.36 31 44.4 31.19 44.48 31.25 44.6 31.25 44.69 31.19 44.83 31.06 44.86"/><polyline class="a" points="34.83 48.59 34.78 48.5 34.59 48.38 35.86 48.38"/><polyline class="a" points="35.01 47.32 35.19 47.35 35.31 47.44 35.37 47.57 35.37 47.61 35.31 47.74 35.19 47.83 35.01 47.87 34.95 47.87 34.78 47.83 34.65 47.74 34.59 47.61 34.59 47.57 34.65 47.44 34.78 47.35 35.01 47.32 35.31 47.32 35.62 47.35 35.8 47.44 35.86 47.57 35.86 47.66 35.8 47.78 35.68 47.83"/><polygon class="a" points="34.59 46.77 34.65 46.89 34.83 46.98 35.13 47.02 35.31 47.02 35.62 46.98 35.8 46.89 35.86 46.77 35.86 46.68 35.8 46.56 35.62 46.47 35.31 46.42 35.13 46.42 34.83 46.47 34.65 46.56 34.59 46.68 34.59 46.77"/><polygon class="a" points="35.74 46.09 35.8 46.13 35.86 46.09 35.8 46.05 35.74 46.09"/><polyline class="a" points="34.59 45.33 35.44 45.75 35.44 45.12"/><line class="a" x1="34.59" y1="45.33" x2="35.86" y2="45.33"/><polyline class="a" points="35.01 44.36 35.19 44.4 35.31 44.48 35.37 44.6 35.37 44.65 35.31 44.78 35.19 44.86 35.01 44.91 34.95 44.91 34.78 44.86 34.65 44.78 34.59 44.65 34.59 44.6 34.65 44.48 34.78 44.4 35.01 44.36 35.31 44.36 35.62 44.4 35.8 44.48 35.86 44.6 35.86 44.69 35.8 44.83 35.68 44.86"/><polyline class="a" points="37.6 48.59 37.54 48.5 37.35 48.38 38.62 48.38"/><polygon class="a" points="37.35 47.66 37.41 47.78 37.54 47.83 37.66 47.83 37.78 47.78 37.84 47.7 37.9 47.52 37.96 47.4 38.09 47.32 38.21 47.28 38.39 47.28 38.51 47.32 38.56 47.35 38.62 47.49 38.62 47.66 38.56 47.78 38.51 47.83 38.39 47.87 38.21 47.87 38.09 47.83 37.96 47.74 37.9 47.61 37.84 47.44 37.78 47.35 37.66 47.32 37.54 47.32 37.41 47.35 37.35 47.49 37.35 47.66"/><polyline class="a" points="37.78 46.47 37.96 46.51 38.09 46.6 38.15 46.73 38.15 46.77 38.09 46.89 37.96 46.98 37.78 47.02 37.72 47.02 37.54 46.98 37.41 46.89 37.35 46.77 37.35 46.73 37.41 46.6 37.54 46.51 37.78 46.47 38.09 46.47 38.39 46.51 38.56 46.6 38.62 46.73 38.62 46.8 38.56 46.94 38.45 46.98"/><polygon class="a" points="38.51 46.09 38.56 46.13 38.62 46.09 38.56 46.05 38.51 46.09"/><polyline class="a" points="38.62 45.58 37.35 45.16 37.35 45.75"/><polyline class="a" points="37.78 44.36 37.96 44.4 38.09 44.48 38.15 44.6 38.15 44.65 38.09 44.78 37.96 44.86 37.78 44.91 37.72 44.91 37.54 44.86 37.41 44.78 37.35 44.65 37.35 44.6 37.41 44.48 37.54 44.4 37.78 44.36 38.09 44.36 38.39 44.4 38.56 44.48 38.62 44.6 38.62 44.69 38.56 44.83 38.45 44.86"/><polyline class="a" points="55.41 48.61 55.35 48.53 55.17 48.39 56.44 48.39"/><path class="a" d="M55.17,47.67l.06.13.12,0h.12l.12,0,.06-.08.06-.17.06-.12.12-.09.12,0h.17l.12,0,.06,0,.06.13v.16l-.06.13c-.88.42-.45-.72-1.15-.43l-.06.13Z"/><polyline class="a" points="55.6 46.49 55.78 46.53 55.9 46.62 55.96 46.74 55.96 46.79 55.9 46.91 55.78 47 55.6 47.05 55.54 47.05 55.35 47 55.23 46.91 55.17 46.79 55.17 46.74 55.23 46.62 55.35 46.53 55.6 46.49 55.9 46.49 56.2 46.53 56.38 46.62 56.44 46.74 56.44 46.83 56.38 46.96 56.26 47"/><polygon class="a" points="56.32 46.11 56.38 46.16 56.44 46.11 56.38 46.07 56.32 46.11"/><polyline class="a" points="55.41 45.64 55.35 45.56 55.17 45.44 56.44 45.44"/><polyline class="a" points="56.44 44.75 55.17 44.34 55.17 44.92"/><polyline class="a" points="75.28 48.61 75.22 48.53 75.04 48.39 76.31 48.39"/><path class="a" d="M75,47.67l.06.13.12,0h.12l.12,0,.06-.08.06-.17.06-.12.12-.09.12,0h.18l.11,0,.06,0,.06.13v.16l-.06.13c-.88.42-.45-.72-1.15-.43l-.06.13Z"/><path class="a" d="M75,46.83l.06.13.12,0h.12l.12,0,.06-.08.06-.17.06-.13.12-.09.12,0h.18l.11,0,.06,0,.06.12v.17l-.06.13c-.88.43-.47-.75-1.15-.43l-.06.12Z"/><polygon class="a" points="76.19 46.11 76.25 46.16 76.31 46.11 76.25 46.07 76.19 46.11"/><path class="a" d="M75,45.56l.06.13.12,0h.12l.12,0,.06-.08.06-.17.06-.13.12-.07.12,0h.18l.11,0,.06,0,.06.12v.17l-.06.13c-.88.42-.45-.72-1.15-.43l-.06.12Z"/><polygon class="a" points="75.04 44.72 75.1 44.84 75.22 44.89 75.34 44.89 75.47 44.84 75.53 44.75 75.59 44.59 75.65 44.46 75.77 44.37 75.89 44.34 76.08 44.34 76.19 44.37 76.25 44.42 76.31 44.54 76.31 44.72 76.25 44.84 76.19 44.89 76.08 44.92 75.89 44.92 75.77 44.89 75.65 44.8 75.59 44.67 75.53 44.51 75.47 44.42 75.34 44.37 75.22 44.37 75.1 44.42 75.04 44.54 75.04 44.72"/><polyline class="a" points="98.5 48.61 98.44 48.53 98.25 48.39 99.52 48.39"/><polygon class="a" points="98.25 47.67 98.31 47.8 98.44 47.84 98.56 47.84 98.68 47.8 98.74 47.72 98.8 47.55 98.86 47.43 98.99 47.34 99.11 47.29 99.29 47.29 99.41 47.34 99.46 47.38 99.52 47.51 99.52 47.67 99.46 47.8 99.41 47.84 99.29 47.89 99.11 47.89 98.99 47.84 98.86 47.76 98.8 47.63 98.74 47.46 98.68 47.38 98.56 47.34 98.44 47.34 98.31 47.38 98.25 47.51 98.25 47.67"/><polygon class="a" points="98.25 46.83 98.31 46.96 98.44 47 98.56 47 98.68 46.96 98.74 46.88 98.8 46.71 98.86 46.57 98.99 46.49 99.11 46.45 99.29 46.45 99.41 46.49 99.46 46.53 99.52 46.66 99.52 46.83 99.46 46.96 99.41 47 99.29 47.05 99.11 47.05 98.99 47 98.86 46.91 98.8 46.79 98.74 46.62 98.68 46.53 98.56 46.49 98.44 46.49 98.31 46.53 98.25 46.66 98.25 46.83"/><polygon class="a" points="99.41 46.11 99.46 46.16 99.52 46.11 99.46 46.07 99.41 46.11"/><polyline class="a" points="98.25 45.27 98.25 45.69 98.8 45.73 98.74 45.69 98.68 45.56 98.68 45.44 98.74 45.3 98.86 45.23 99.05 45.18 99.17 45.18 99.35 45.23 99.46 45.3 99.52 45.44 99.52 45.56 99.46 45.69 99.41 45.73 99.29 45.78"/><polygon class="a" points="98.25 44.72 98.31 44.84 98.44 44.89 98.56 44.89 98.68 44.84 98.74 44.75 98.8 44.59 98.86 44.46 98.99 44.37 99.11 44.34 99.29 44.34 99.41 44.37 99.46 44.42 99.52 44.54 99.52 44.72 99.46 44.84 99.41 44.89 99.29 44.92 99.11 44.92 98.99 44.89 98.86 44.8 98.8 44.67 98.74 44.51 98.68 44.42 98.56 44.37 98.44 44.37 98.31 44.42 98.25 44.54 98.25 44.72"/><polyline class="a" points="137.29 48.62 137.23 48.54 137.05 48.41 138.32 48.41"/><path class="a" d="M137.05,47.7l.06.13.12,0h.12l.12,0,.06-.08.06-.17.06-.13.12-.09.11,0h.18l.12,0,.06,0,.06.12v.17l-.06.13c-.87.43-.47-.75-1.15-.43l-.06.12Z"/><polygon class="a" points="137.05 46.85 137.11 46.98 137.23 47.02 137.36 47.02 137.48 46.98 137.54 46.89 137.6 46.73 137.66 46.6 137.78 46.51 137.89 46.47 138.08 46.47 138.2 46.51 138.26 46.56 138.32 46.68 138.32 46.85 138.26 46.98 138.2 47.02 138.08 47.06 137.89 47.06 137.78 47.02 137.66 46.94 137.6 46.8 137.54 46.65 137.48 46.56 137.36 46.51 137.23 46.51 137.11 46.56 137.05 46.68 137.05 46.85"/><polygon class="a" points="138.2 46.13 138.26 46.17 138.32 46.13 138.26 46.09 138.2 46.13"/><polyline class="a" points="137.36 45.75 137.29 45.75 137.17 45.7 137.11 45.67 137.05 45.58 137.05 45.41 137.11 45.33 137.17 45.29 137.29 45.24 137.42 45.24 137.54 45.29 137.72 45.37 138.32 45.79 138.32 45.2"/><polyline class="a" points="137.05 44.52 137.89 44.95 137.89 44.31"/><line class="a" x1="137.05" y1="44.52" x2="138.32" y2="44.52"/><polyline class="a" points="164.22 48.61 164.16 48.53 163.98 48.39 165.25 48.39"/><path class="a" d="M164,47.67l.06.13.12,0h.12l.12,0,.06-.08.06-.17.06-.12.12-.09.12,0H165l.11,0,.06,0,.06.13v.16l-.06.13c-.88.42-.45-.72-1.15-.43l-.06.13Z"/><path class="a" d="M164,46.83,164,47l.12,0h.12l.12,0,.06-.08.06-.17.06-.13.12-.09.12,0H165l.11,0,.06,0,.06.12v.17l-.06.13c-.88.43-.47-.75-1.15-.43l-.06.12Z"/><polygon class="a" points="165.13 46.11 165.19 46.16 165.25 46.11 165.19 46.07 165.13 46.11"/><path class="a" d="M164,45.52l.06.12.18.09.31,0h.18l.31,0,.17-.09.06-.12v-.08l-.06-.14a1.39,1.39,0,0,0-1.15,0l-.06.14Z"/><polyline class="a" points="164.28 44.89 164.22 44.89 164.1 44.84 164.04 44.8 163.98 44.72 163.98 44.54 164.04 44.46 164.1 44.42 164.22 44.37 164.34 44.37 164.47 44.42 164.65 44.51 165.25 44.92 165.25 44.34"/><polyline class="a" points="192.18 48.16 192.12 48.07 191.93 47.95 193.2 47.95"/><polygon class="a" points="191.93 47.23 191.99 47.35 192.11 47.4 192.24 47.4 192.36 47.35 192.41 47.28 192.47 47.11 192.53 46.98 192.65 46.89 192.77 46.85 192.96 46.85 193.08 46.89 193.14 46.94 193.2 47.06 193.2 47.23 193.14 47.35 193.08 47.4 192.96 47.44 192.77 47.44 192.65 47.4 192.53 47.32 192.47 47.19 192.41 47.02 192.36 46.94 192.24 46.89 192.11 46.89 191.99 46.94 191.93 47.06 191.93 47.23"/><polyline class="a" points="193.2 46.42 191.93 46.01 191.93 46.6"/><polygon class="a" points="193.08 45.67 193.14 45.7 193.2 45.67 193.14 45.62 193.08 45.67"/><polyline class="a" points="192.36 44.78 192.53 44.83 192.65 44.91 192.71 45.03 192.71 45.07 192.65 45.2 192.53 45.29 192.36 45.33 192.3 45.33 192.12 45.29 191.99 45.2 191.93 45.07 191.93 45.03 191.99 44.91 192.12 44.83 192.36 44.78 192.65 44.78 192.96 44.83 193.14 44.91 193.2 45.03 193.2 45.12 193.14 45.24 193.02 45.29"/><polyline class="a" points="207.69 48.61 207.62 48.53 207.44 48.39 208.71 48.39"/><path class="a" d="M207.44,47.67l.06.13.12,0h.12l.11,0,.06-.08.06-.17.06-.12.12-.09.12,0h.18l.12,0,.06,0,.06.13v.16l-.06.13c-.9.42-.47-.71-1.15-.43l-.06.13Z"/><polyline class="a" points="208.71 46.88 207.44 46.45 207.44 47.05"/><polygon class="a" points="208.59 46.11 208.65 46.16 208.71 46.11 208.65 46.07 208.59 46.11"/><path class="a" d="M207.44,45.56l.06.13.12,0h.12l.11,0,.06-.08.06-.17.06-.13.12-.07.12,0h.18l.12,0,.06,0,.06.12v.17l-.06.13c-.9.42-.47-.71-1.15-.43l-.06.12Z"/><path class="a" d="M207.44,44.84v-.46l.48.26v-.12c.21-.4,1.16-.07.67.38l-.12,0"/><line class="a" x1="37.98" y1="7.2" x2="44.19" y2="7.2"/><polyline class="a" points="50.77 4.89 47.51 4.89 44.19 7.2"/><line class="a" x1="50.77" y1="4.89" x2="55.79" y2="8.64"/><line class="a" x1="44.19" y1="7.2" x2="44.19" y2="29.8"/><line class="a" x1="47.51" y1="4.89" x2="47.51" y2="29.8"/><line class="a" x1="50.77" y1="4.89" x2="50.77" y2="29.8"/><polyline class="a" points="44.48 31.51 43.91 31.51 43.86 32.03 43.91 31.97 44.08 31.91 44.25 31.91 44.42 31.97 44.55 32.08 44.59 32.25 44.59 32.37 44.55 32.54 44.42 32.65 44.25 32.71 44.08 32.71 43.91 32.65 43.86 32.59 43.8 32.48"/><polyline class="a" points="47.83 31.68 47.78 31.56 47.61 31.51 47.49 31.51 47.32 31.56 47.21 31.73 47.15 32.03 47.15 32.31 47.21 32.54 47.32 32.65 47.49 32.71 47.55 32.71 47.72 32.65 47.83 32.54 47.89 32.37 47.89 32.31 47.83 32.14 47.72 32.03 47.55 31.97 47.49 31.97 47.32 32.03 47.21 32.14 47.15 32.31"/><polyline class="a" points="50.62 32.71 51.18 31.51 50.38 31.51"/><line class="a" x1="44.19" y1="34.42" x2="44.19" y2="38.11"/><line class="a" x1="47.51" y1="34.42" x2="47.51" y2="38.11"/><line class="a" x1="50.77" y1="34.42" x2="50.77" y2="38.11"/><polyline class="a" points="40.11 35.91 40.11 35.87 40.15 35.79 40.2 35.74 40.28 35.69 40.45 35.69 40.55 35.74 40.59 35.79 40.64 35.87 40.64 35.96 40.59 36.05 40.5 36.18 40.06 36.62 40.67 36.62"/><polygon class="a" points="41.03 36.53 40.99 36.57 41.03 36.62 41.08 36.57 41.03 36.53"/><polyline class="a" points="41.55 36.62 41.99 35.69 41.38 35.69"/><polyline class="a" points="44.9 35.87 45 35.83 45.12 35.69 45.12 36.62"/><polygon class="a" points="45.74 36.53 45.69 36.57 45.74 36.62 45.78 36.57 45.74 36.53"/><polyline class="a" points="46.54 35.69 46.1 36.31 46.76 36.31"/><line class="a" x1="46.54" y1="35.69" x2="46.54" y2="36.62"/><polyline class="a" points="48.14 35.87 48.22 35.83 48.36 35.69 48.36 36.62"/><polygon class="a" points="48.98 36.53 48.93 36.57 48.98 36.62 49.02 36.57 48.98 36.53"/><polyline class="a" points="49.76 35.69 49.32 36.31 49.98 36.31"/><line class="a" x1="49.76" y1="35.69" x2="49.76" y2="36.62"/><polyline class="a" points="52.24 35.91 52.24 35.87 52.28 35.79 52.33 35.74 52.41 35.69 52.58 35.69 52.68 35.74 52.72 35.79 52.76 35.87 52.76 35.96 52.72 36.05 52.63 36.18 52.19 36.62 52.8 36.62"/><polygon class="a" points="53.16 36.53 53.12 36.57 53.16 36.62 53.2 36.57 53.16 36.53"/><polyline class="a" points="53.56 35.91 53.56 35.87 53.59 35.79 53.64 35.74 53.73 35.69 53.9 35.69 54 35.74 54.03 35.79 54.08 35.87 54.08 35.96 54.03 36.05 53.95 36.18 53.51 36.62 54.12 36.62"/><polyline class="a" points="43.9 41.58 43.84 41.49 43.65 41.37 44.92 41.37"/><polyline class="a" points="43.96 40.82 43.9 40.82 43.78 40.77 43.72 40.73 43.66 40.65 43.66 40.48 43.72 40.39 43.78 40.36 43.9 40.31 44.02 40.31 44.14 40.36 44.33 40.44 44.92 40.86 44.92 40.27"/><polyline class="a" points="47.15 42.24 47.09 42.15 46.9 42.02 48.17 42.02"/><polyline class="a" points="46.9 41.43 46.9 40.97 47.39 41.22 47.39 41.09 47.45 41 47.5 40.97 47.69 40.92 47.81 40.92 47.99 40.97 48.11 41.05 48.17 41.17 48.17 41.31 48.11 41.43 48.05 41.47 47.93 41.52"/><polygon class="a" points="48.05 40.59 48.11 40.63 48.17 40.59 48.11 40.54 48.05 40.59"/><polyline class="a" points="46.9 39.82 47.75 40.24 47.75 39.61"/><line class="a" x1="46.9" y1="39.82" x2="48.17" y2="39.82"/><polyline class="a" points="50.48 42.21 50.42 42.13 50.25 42 51.51 42"/><polyline class="a" points="50.25 41.08 51.09 41.49 51.09 40.86"/><line class="a" x1="50.25" y1="41.08" x2="51.51" y2="41.08"/><polygon class="a" points="51.4 40.56 51.46 40.6 51.51 40.56 51.46 40.51 51.4 40.56"/><polygon class="a" points="50.25 40.01 50.31 40.14 50.42 40.19 50.54 40.19 50.66 40.14 50.73 40.05 50.79 39.89 50.85 39.76 50.97 39.67 51.09 39.63 51.27 39.63 51.4 39.67 51.46 39.72 51.51 39.84 51.51 40.01 51.46 40.14 51.4 40.19 51.27 40.22 51.09 40.22 50.97 40.19 50.85 40.1 50.79 39.97 50.73 39.81 50.66 39.72 50.54 39.67 50.42 39.67 50.31 39.72 50.25 39.84 50.25 40.01"/><polyline class="a" points="43.87 48.59 43.81 48.5 43.63 48.38 44.9 48.38"/><polygon class="a" points="43.63 47.66 43.69 47.78 43.81 47.83 43.94 47.83 44.05 47.78 44.11 47.7 44.17 47.52 44.23 47.4 44.35 47.32 44.47 47.28 44.66 47.28 44.78 47.32 44.84 47.35 44.9 47.49 44.9 47.66 44.84 47.78 44.78 47.83 44.66 47.87 44.47 47.87 44.35 47.83 44.23 47.74 44.17 47.61 44.11 47.44 44.05 47.35 43.94 47.32 43.81 47.32 43.69 47.35 43.63 47.49 43.63 47.66"/><polyline class="a" points="44.05 46.47 44.23 46.51 44.35 46.6 44.41 46.73 44.41 46.77 44.35 46.89 44.23 46.98 44.05 47.02 43.98 47.02 43.81 46.98 43.69 46.89 43.63 46.77 43.63 46.73 43.69 46.6 43.81 46.51 44.05 46.47 44.35 46.47 44.66 46.51 44.84 46.6 44.9 46.73 44.9 46.8 44.84 46.94 44.72 46.98"/><polygon class="a" points="44.78 46.09 44.84 46.13 44.9 46.09 44.84 46.05 44.78 46.09"/><polyline class="a" points="44.9 45.58 43.63 45.16 43.63 45.75"/><polyline class="a" points="44.05 44.36 44.23 44.4 44.35 44.48 44.41 44.6 44.41 44.65 44.35 44.78 44.23 44.86 44.05 44.91 43.98 44.91 43.81 44.86 43.69 44.78 43.63 44.65 43.63 44.6 43.69 44.48 43.81 44.4 44.05 44.36 44.35 44.36 44.66 44.4 44.84 44.48 44.9 44.6 44.9 44.69 44.84 44.83 44.72 44.86"/><polyline class="a" points="47.23 48.59 47.18 48.5 47 48.38 48.27 48.38"/><polyline class="a" points="47.42 47.32 47.6 47.35 47.72 47.44 47.78 47.57 47.78 47.61 47.72 47.74 47.6 47.83 47.42 47.87 47.35 47.87 47.18 47.83 47.06 47.74 47 47.61 47 47.57 47.06 47.44 47.18 47.35 47.42 47.32 47.72 47.32 48.03 47.35 48.21 47.44 48.27 47.57 48.27 47.66 48.21 47.78 48.09 47.83"/><polygon class="a" points="47 46.77 47.06 46.89 47.23 46.98 47.54 47.02 47.72 47.02 48.03 46.98 48.21 46.89 48.27 46.77 48.27 46.68 48.21 46.56 48.03 46.47 47.72 46.42 47.54 46.42 47.23 46.47 47.06 46.56 47 46.68 47 46.77"/><polygon class="a" points="48.15 46.09 48.21 46.13 48.27 46.09 48.21 46.05 48.15 46.09"/><polyline class="a" points="48.27 45.58 47 45.16 47 45.75"/><polyline class="a" points="47.42 44.36 47.6 44.4 47.72 44.48 47.78 44.6 47.78 44.65 47.72 44.78 47.6 44.86 47.42 44.91 47.35 44.91 47.18 44.86 47.06 44.78 47 44.65 47 44.6 47.06 44.48 47.18 44.4 47.42 44.36 47.72 44.36 48.03 44.4 48.21 44.48 48.27 44.6 48.27 44.69 48.21 44.83 48.09 44.86"/><polyline class="a" points="50.6 48.59 50.54 48.5 50.36 48.38 51.63 48.38"/><polyline class="a" points="50.77 47.32 50.96 47.35 51.08 47.44 51.14 47.57 51.14 47.61 51.08 47.74 50.96 47.83 50.77 47.87 50.71 47.87 50.54 47.83 50.42 47.74 50.36 47.61 50.36 47.57 50.42 47.44 50.54 47.35 50.77 47.32 51.08 47.32 51.38 47.35 51.57 47.44 51.63 47.57 51.63 47.66 51.57 47.78 51.45 47.83"/><polygon class="a" points="50.36 46.77 50.42 46.89 50.6 46.98 50.9 47.02 51.08 47.02 51.38 46.98 51.57 46.89 51.63 46.77 51.63 46.68 51.57 46.56 51.38 46.47 51.08 46.42 50.9 46.42 50.6 46.47 50.42 46.56 50.36 46.68 50.36 46.77"/><polygon class="a" points="51.51 46.09 51.57 46.13 51.63 46.09 51.57 46.05 51.51 46.09"/><polyline class="a" points="51.63 45.58 50.36 45.16 50.36 45.75"/><polyline class="a" points="50.77 44.36 50.96 44.4 51.08 44.48 51.14 44.6 51.14 44.65 51.08 44.78 50.96 44.86 50.77 44.91 50.71 44.91 50.54 44.86 50.42 44.78 50.36 44.65 50.36 44.6 50.42 44.48 50.54 44.4 50.77 44.36 51.08 44.36 51.38 44.4 51.57 44.48 51.63 44.6 51.63 44.69 51.57 44.83 51.45 44.86"/><polygon class="a" points="1.66 40.33 1.66 39.4 1.96 39.4 2.1 39.45 2.18 39.54 2.23 39.63 2.28 39.76 2.28 39.98 2.23 40.11 2.18 40.21 2.1 40.29 1.96 40.33 1.66 40.33"/><line class="a" x1="2.59" y1="39.4" x2="2.59" y2="40.33"/><polyline class="a" points="3.51 39.54 3.43 39.45 3.29 39.4 3.11 39.4 2.98 39.45 2.89 39.54 2.89 39.64 2.94 39.72 2.98 39.76 3.07 39.81 3.33 39.89 3.43 39.94 3.46 39.98 3.51 40.08 3.51 40.21 3.43 40.3 3.29 40.33 3.11 40.33 2.98 40.3 2.89 40.21"/><line class="a" x1="4" y1="39.4" x2="4" y2="40.33"/><line class="a" x1="3.68" y1="39.4" x2="4.31" y2="39.4"/><polygon class="a" points="4.58 40.25 4.53 40.3 4.58 40.33 4.61 40.3 4.58 40.25"/><polyline class="a" points="5.89 40.33 5.89 39.4 6.3 39.4 6.43 39.45 6.47 39.5 6.52 39.59 6.52 39.72 6.47 39.81 6.43 39.85 6.3 39.89 5.89 39.89"/><polyline class="a" points="6.82 40.33 6.82 39.4 7.23 39.4 7.36 39.45 7.4 39.5 7.45 39.59 7.45 39.67 7.4 39.76 7.36 39.81 7.23 39.85 6.82 39.85"/><line class="a" x1="7.14" y1="39.86" x2="7.45" y2="40.33"/><path class="a" d="M8,39.4l-.09,0-.09.08c-.15.22-.13.71.17.79h.18l.09,0a.56.56,0,0,0,0-.84l-.09,0Z"/><polyline class="a" points="9.35 39.63 9.3 39.54 9.22 39.45 9.13 39.4 8.95 39.4 8.86 39.45 8.78 39.54 8.73 39.63 8.68 39.76 8.68 39.98 8.73 40.11 8.78 40.21 8.86 40.29 8.95 40.33 9.13 40.33 9.22 40.29 9.3 40.21 9.35 40.11 9.35 39.98 9.13 39.98"/><path class="a" d="M9.66,40.33V39.4h.4c.3.07.3.38,0,.45h-.4"/><line class="a" x1="9.96" y1="39.86" x2="10.28" y2="40.33"/><polyline class="a" points="10.58 40.33 10.58 39.4 11.16 39.4"/><line class="a" x1="10.58" y1="39.86" x2="10.94" y2="39.86"/><line class="a" x1="10.58" y1="40.33" x2="11.16" y2="40.33"/><polyline class="a" points="12 39.54 11.92 39.45 11.78 39.4 11.6 39.4 11.46 39.45 11.38 39.54 11.38 39.64 11.43 39.72 11.46 39.76 11.56 39.81 11.82 39.89 11.92 39.94 11.95 39.98 12 40.08 12 40.21 11.92 40.3 11.78 40.33 11.6 40.33 11.46 40.3 11.38 40.21"/><polyline class="a" points="12.88 39.54 12.79 39.45 12.66 39.4 12.49 39.4 12.36 39.45 12.26 39.54 12.26 39.64 12.31 39.72 12.36 39.76 12.44 39.81 12.71 39.89 12.79 39.94 12.84 39.98 12.88 40.08 12.88 40.21 12.79 40.3 12.66 40.33 12.49 40.33 12.36 40.3 12.26 40.21"/><line class="a" x1="13.19" y1="39.4" x2="13.19" y2="40.33"/><polyline class="a" points="13.42 39.4 13.77 40.33 14.11 39.4"/><polyline class="a" points="14.21 40.33 14.56 39.4 14.92 40.33"/><line class="a" x1="14.35" y1="40.03" x2="14.79" y2="40.03"/><path class="a" d="M2,41,1.88,41a1,1,0,0,0,0,1.25l.09.09"/><line class="a" x1="2.28" y1="41.44" x2="2.28" y2="42.07"/><polyline class="a" points="2.28 41.61 2.4 41.49 2.5 41.44 2.63 41.44 2.72 41.49 2.76 41.61 2.76 42.07"/><polyline class="a" points="2.76 41.61 2.89 41.49 2.98 41.44 3.11 41.44 3.21 41.49 3.25 41.61 3.25 42.07"/><path class="a" d="M3.56,41l.08.09a1,1,0,0,1,0,1.25l-.08.09"/><polygon class="a" points="1.66 35.51 1.66 34.58 1.96 34.58 2.1 34.62 2.18 34.71 2.23 34.8 2.28 34.93 2.28 35.15 2.23 35.29 2.18 35.37 2.1 35.46 1.96 35.51 1.66 35.51"/><line class="a" x1="2.59" y1="34.58" x2="2.59" y2="35.51"/><path class="a" d="M3.51,34.71l-.09-.1-.13,0c-.26,0-.57.07-.32.35l.1,0,.26.09.1,0,0,0,0,.08v.13l-.09.09-.13,0H3.11l-.13,0-.09-.09"/><line class="a" x1="4" y1="34.58" x2="4" y2="35.51"/><line class="a" x1="3.68" y1="34.58" x2="4.31" y2="34.58"/><polygon class="a" points="4.58 35.41 4.53 35.46 4.58 35.51 4.61 35.46 4.58 35.41"/><polyline class="a" points="5.89 35.51 5.89 34.58 6.3 34.58 6.43 34.62 6.47 34.66 6.52 34.75 6.52 34.88 6.47 34.97 6.43 35.02 6.3 35.06 5.89 35.06"/><polyline class="a" points="6.69 35.51 7.04 34.58 7.4 35.51"/><line class="a" x1="6.82" y1="35.19" x2="7.28" y2="35.19"/><polyline class="a" points="7.62 35.51 7.62 34.58 8.02 34.58 8.15 34.62 8.2 34.66 8.24 34.75 8.24 34.84 8.2 34.93 8.15 34.97 8.02 35.02 7.62 35.02"/><line class="a" x1="7.93" y1="35.02" x2="8.24" y2="35.51"/><polyline class="a" points="8.51 35.51 9.13 34.58 8.51 34.58"/><line class="a" x1="8.51" y1="35.51" x2="9.13" y2="35.51"/><line class="a" x1="9.44" y1="34.58" x2="9.44" y2="35.51"/><polyline class="a" points="9.66 35.51 10.01 34.58 10.36 35.51"/><line class="a" x1="9.79" y1="35.19" x2="10.23" y2="35.19"/><polyline class="a" points="10.59 34.58 10.59 35.51 11.11 35.51"/><polyline class="a" points="11.33 35.51 11.33 34.58 11.91 34.58"/><line class="a" x1="11.33" y1="35.02" x2="11.68" y2="35.02"/><line class="a" x1="11.33" y1="35.51" x2="11.92" y2="35.51"/><path class="a" d="M2,36.12l-.09.1a1,1,0,0,0,0,1.23l.09.09"/><line class="a" x1="2.28" y1="36.61" x2="2.28" y2="37.23"/><polyline class="a" points="2.28 36.79 2.4 36.66 2.5 36.61 2.63 36.61 2.72 36.66 2.76 36.79 2.76 37.23"/><polyline class="a" points="2.76 36.79 2.89 36.66 2.98 36.61 3.11 36.61 3.21 36.66 3.25 36.79 3.25 37.23"/><path class="a" d="M3.56,36.12l.09.1a1,1,0,0,1,0,1.23l-.09.09"/><polyline class="a" points="1.66 31.62 2.01 32.55 2.37 31.62"/><polyline class="a" points="2.59 32.55 2.59 31.62 3.16 31.62"/><line class="a" x1="2.59" y1="32.06" x2="2.94" y2="32.06"/><line class="a" x1="2.59" y1="32.55" x2="3.16" y2="32.55"/><polyline class="a" points="3.43 32.55 3.43 31.62 3.82 31.62 3.95 31.67 4 31.71 4.04 31.81 4.04 31.89 4 31.98 3.95 32.03 3.82 32.06 3.43 32.06"/><line class="a" x1="3.73" y1="32.06" x2="4.04" y2="32.55"/><line class="a" x1="4.53" y1="31.62" x2="4.53" y2="32.55"/><line class="a" x1="4.22" y1="31.62" x2="4.83" y2="31.62"/><line class="a" x1="5.06" y1="31.62" x2="5.06" y2="32.55"/><path class="a" d="M6,31.84l0-.08-.1-.09-.09,0H5.64l-.1,0-.09.09,0,.08,0,.13v.22c.07.27.22.46.53.32l.1-.1,0-.09"/><line class="a" x1="6.35" y1="31.62" x2="6.35" y2="32.55"/><path class="a" d="M1.93,45l-.1,0-.08.08c-.15.24-.13.7.18.79H2.1l.08,0a.56.56,0,0,0,0-.84L2.1,45Z"/><line class="a" x1="2.05" y1="45.73" x2="2.32" y2="46"/><polyline class="a" points="2.67 44.97 2.67 45.64 2.72 45.78 2.81 45.86 2.94 45.9 3.02 45.9 3.16 45.86 3.25 45.78 3.29 45.64 3.29 44.97"/><path class="a" d="M3.87,45l-.09,0-.1.08c-.15.25-.13.69.18.79H4l.1,0a.59.59,0,0,0,0-.84L4,45Z"/><line class="a" x1="4.8" y1="44.97" x2="4.8" y2="45.9"/><line class="a" x1="4.49" y1="44.97" x2="5.1" y2="44.97"/><polyline class="a" points="5.19 45.9 5.54 44.97 5.89 45.9"/><line class="a" x1="5.32" y1="45.59" x2="5.76" y2="45.59"/><line class="a" x1="7.23" y1="44.97" x2="7.23" y2="45.9"/><line class="a" x1="6.92" y1="44.97" x2="7.53" y2="44.97"/><polyline class="a" points="7.75 45.9 7.75 44.97 8.32 44.97"/><line class="a" x1="7.75" y1="45.42" x2="8.11" y2="45.42"/><line class="a" x1="7.75" y1="45.9" x2="8.33" y2="45.9"/><polyline class="a" points="8.59 45.9 8.59 44.97 9 44.97 9.13 45.02 9.17 45.07 9.22 45.16 9.22 45.24 9.17 45.33 9.13 45.38 9 45.42 8.59 45.42"/><line class="a" x1="8.9" y1="45.42" x2="9.22" y2="45.9"/><polyline class="a" points="9.52 45.9 9.52 44.97 9.93 44.97 10.06 45.02 10.1 45.07 10.14 45.16 10.14 45.24 10.1 45.33 10.06 45.38 9.93 45.42 9.52 45.42"/><line class="a" x1="9.83" y1="45.42" x2="10.15" y2="45.9"/><polyline class="a" points="10.45 45.9 10.45 44.97 11.02 44.97"/><line class="a" x1="10.45" y1="45.42" x2="10.8" y2="45.42"/><line class="a" x1="10.45" y1="45.9" x2="11.02" y2="45.9"/><polyline class="a" points="11.29 45.9 11.29 44.97 11.92 45.9 11.92 44.97"/><path class="a" d="M12.49,45l-.1,0-.09.08,0,.09,0,.13v.22l0,.13,0,.1.09.08.1,0h.17l.09,0a.56.56,0,0,0,0-.84l-.09,0Z"/><path class="a" d="M2,46.52l-.09.09a1,1,0,0,0,0,1.25l.09.09"/><line class="a" x1="2.28" y1="47.01" x2="2.28" y2="47.63"/><polyline class="a" points="2.28 47.18 2.4 47.05 2.5 47.01 2.63 47.01 2.72 47.05 2.76 47.18 2.76 47.63"/><polyline class="a" points="2.76 47.18 2.89 47.05 2.98 47.01 3.11 47.01 3.21 47.05 3.25 47.18 3.25 47.63"/><polyline class="a" points="4.97 47.15 4.93 47.05 4.8 47.01 4.66 47.01 4.53 47.05 4.49 47.15 4.53 47.23 4.61 47.28 4.83 47.32 4.93 47.37 4.97 47.45 4.97 47.5 4.93 47.59 4.8 47.63 4.66 47.63 4.53 47.59 4.49 47.5"/><polygon class="a" points="5.32 47.54 5.28 47.59 5.32 47.63 5.37 47.59 5.32 47.54"/><line class="a" x1="5.72" y1="46.71" x2="5.72" y2="47.63"/><polygon class="a" points="6.12 47.54 6.08 47.59 6.12 47.63 6.16 47.59 6.12 47.54"/><line class="a" x1="6.52" y1="47.01" x2="6.52" y2="47.63"/><polyline class="a" points="6.52 47.18 6.65 47.05 6.74 47.01 6.87 47.01 6.96 47.05 7.01 47.18 7.01 47.63"/><polyline class="a" points="7.01 47.18 7.14 47.05 7.23 47.01 7.36 47.01 7.45 47.05 7.5 47.18 7.5 47.63"/><polygon class="a" points="7.89 47.54 7.85 47.59 7.89 47.63 7.93 47.59 7.89 47.54"/><path class="a" d="M8.24,46.52l.08.09a1,1,0,0,1,0,1.25l-.08.09"/><polyline class="c" points="43.72 7.2 44.17 6.96 44.73 6.82"/><polyline class="a" points="55.13 2.23 55.13 1.3 55.54 1.3 55.66 1.35 55.71 1.39 55.76 1.49 55.76 1.57 55.71 1.66 55.66 1.71 55.54 1.74 55.13 1.74"/><line class="a" x1="55.44" y1="1.74" x2="55.76" y2="2.23"/><line class="a" x1="56.06" y1="1.3" x2="56.06" y2="2.23"/><polyline class="a" points="56.42 2.23 56.42 1.3 56.81 1.3 56.94 1.35 56.99 1.39 57.04 1.49 57.04 1.62 56.99 1.71 56.94 1.74 56.81 1.79 56.42 1.79"/><path class="a" d="M57.56,1.3l-.09,0-.09.08a.54.54,0,0,0,.17.79h.17l.1,0,.08-.1L58,2l0-.13V1.66l0-.13,0-.09-.08-.08-.1,0Z"/><polyline class="a" points="58.32 2.23 58.32 1.3 58.71 1.3 58.85 1.35 58.9 1.39 58.93 1.49 58.93 1.57 58.9 1.66 58.85 1.71 58.71 1.74 58.32 1.74"/><line class="a" x1="58.63" y1="1.74" x2="58.93" y2="2.23"/><line class="a" x1="59.42" y1="1.3" x2="59.42" y2="2.23"/><line class="a" x1="59.11" y1="1.3" x2="59.73" y2="1.3"/><path class="a" d="M60.18,1.3l-.1,0L60,1.44c-.16.2-.12.73.18.79h.17l.09,0a.55.55,0,0,0,0-.84l-.09,0Z"/><line class="a" x1="60.92" y1="1.71" x2="61.72" y2="1.71"/><line class="a" x1="60.92" y1="1.97" x2="61.72" y2="1.97"/><polyline class="a" points="62.16 1.49 62.25 1.44 62.38 1.3 62.38 2.23"/><line class="a" x1="63.89" y1="1.62" x2="63.89" y2="2.23"/><polyline class="a" points="63.89 1.79 64.01 1.66 64.11 1.62 64.23 1.62 64.33 1.66 64.37 1.79 64.37 2.23"/><polyline class="a" points="64.37 1.79 64.5 1.66 64.59 1.62 64.72 1.62 64.82 1.66 64.85 1.79 64.85 2.23"/><line class="a" x1="65.7" y1="1.62" x2="65.7" y2="2.55"/><path class="a" d="M65.7,1.74l-.09-.08c-.61-.26-.6.79,0,.54l.09-.1"/><line class="b" x1="66.51" y1="2.55" x2="54.22" y2="2.55"/><line class="b" x1="54.2" y1="2.56" x2="54.19" y2="2.57"/><line class="b" x1="54.17" y1="2.59" x2="54.16" y2="2.6"/><line class="b" x1="54.14" y1="2.61" x2="54.13" y2="2.61"/><line class="b" x1="54.11" y1="2.62" x2="54.09" y2="2.64"/><line class="b" x1="54.08" y1="2.65" x2="54.07" y2="2.66"/><line class="b" x1="54.06" y1="2.67" x2="54.05" y2="2.67"/><line class="b" x1="54.02" y1="2.68" x2="54.01" y2="2.7"/><line class="b" x1="54" y1="2.71" x2="53.98" y2="2.71"/><line class="b" x1="53.96" y1="2.72" x2="53.95" y2="2.73"/><line class="b" x1="53.94" y1="2.75" x2="53.92" y2="2.76"/><line class="b" x1="53.9" y1="2.77" x2="53.9" y2="2.76"/><line class="b" x1="53.87" y1="2.78" x2="53.86" y2="2.79"/><line class="b" x1="53.85" y1="2.81" x2="53.84" y2="2.82"/><line class="b" x1="53.81" y1="2.83" x2="53.8" y2="2.83"/><line class="b" x1="53.79" y1="2.84" x2="53.78" y2="2.86"/><line class="b" x1="53.75" y1="2.87" x2="53.74" y2="2.88"/><line class="b" x1="53.73" y1="2.89" x2="53.72" y2="2.89"/><line class="b" x1="53.7" y1="2.9" x2="53.69" y2="2.92"/><line class="b" x1="53.67" y1="2.93" x2="53.65" y2="2.93"/><line class="b" x1="53.64" y1="2.94" x2="53.63" y2="2.95"/><line class="b" x1="53.61" y1="2.97" x2="53.59" y2="2.98"/><line class="b" x1="53.58" y1="2.99" x2="53.57" y2="2.99"/><line class="b" x1="53.56" y1="3" x2="53.55" y2="3.01"/><line class="b" x1="53.52" y1="3.03" x2="53.51" y2="3.04"/><line class="b" x1="53.5" y1="3.05" x2="53.48" y2="3.05"/><line class="b" x1="53.46" y1="3.06" x2="53.45" y2="3.07"/><line class="b" x1="53.43" y1="3.09" x2="53.42" y2="3.1"/><line class="b" x1="53.41" y1="3.11" x2="53.4" y2="3.11"/><line class="b" x1="53.37" y1="3.12" x2="53.36" y2="3.14"/><line class="b" x1="53.35" y1="3.15" x2="53.34" y2="3.15"/><line class="b" x1="53.31" y1="3.16" x2="53.3" y2="3.17"/><line class="b" x1="53.29" y1="3.18" x2="53.28" y2="3.2"/><line class="b" x1="53.25" y1="3.21" x2="53.24" y2="3.21"/><line class="b" x1="53.23" y1="3.22" x2="53.22" y2="3.23"/><line class="b" x1="53.2" y1="3.25" x2="53.19" y2="3.26"/><line class="b" x1="53.17" y1="3.27" x2="53.15" y2="3.27"/><line class="b" x1="53.14" y1="3.28" x2="53.13" y2="3.29"/><line class="b" x1="53.11" y1="3.31" x2="53.09" y2="3.32"/><line class="b" x1="53.08" y1="3.33" x2="53.07" y2="3.33"/><line class="b" x1="53.06" y1="3.34" x2="53.04" y2="3.36"/><line class="b" x1="53.02" y1="3.37" x2="53.01" y2="3.37"/><line class="b" x1="53" y1="3.38" x2="52.98" y2="3.39"/><line class="b" x1="52.96" y1="3.4" x2="52.95" y2="3.42"/><line class="b" x1="52.93" y1="3.43" x2="52.92" y2="3.43"/><line class="b" x1="52.91" y1="3.44" x2="52.9" y2="3.45"/><line class="b" x1="52.87" y1="3.47" x2="52.86" y2="3.48"/><line class="b" x1="52.85" y1="3.49" x2="52.84" y2="3.49"/><line class="b" x1="52.81" y1="3.5" x2="52.8" y2="3.51"/><line class="b" x1="52.79" y1="3.53" x2="52.78" y2="3.54"/><line class="b" x1="52.75" y1="3.55" x2="52.75" y2="3.54"/><line class="b" x1="52.73" y1="3.56" x2="52.71" y2="3.58"/><line class="b" x1="52.7" y1="3.59" x2="52.69" y2="3.6"/><line class="b" x1="52.67" y1="3.6" x2="52.65" y2="3.61"/><line class="b" x1="52.64" y1="3.62" x2="52.63" y2="3.64"/><line class="b" x1="52.6" y1="3.65" x2="52.59" y2="3.65"/><line class="b" x1="52.58" y1="3.66" x2="52.57" y2="3.67"/><line class="b" x1="52.56" y1="3.69" x2="52.54" y2="3.7"/><line class="b" x1="52.52" y1="3.71" x2="52.51" y2="3.71"/><line class="b" x1="52.49" y1="3.72" x2="52.48" y2="3.73"/><line class="b" x1="52.46" y1="3.75" x2="52.45" y2="3.76"/><line class="b" x1="52.43" y1="3.77" x2="52.42" y2="3.77"/><line class="b" x1="52.41" y1="3.78" x2="52.4" y2="3.8"/><line class="b" x1="52.37" y1="3.81" x2="52.36" y2="3.82"/><line class="b" x1="52.35" y1="3.83" x2="52.34" y2="3.83"/><line class="b" x1="52.31" y1="3.84" x2="52.3" y2="3.86"/><line class="b" x1="52.29" y1="3.87" x2="52.27" y2="3.87"/><line class="b" x1="52.26" y1="3.88" x2="52.25" y2="3.89"/><line class="b" x1="52.23" y1="3.91" x2="52.21" y2="3.92"/><line class="b" x1="52.2" y1="3.93" x2="52.19" y2="3.93"/><line class="b" x1="52.16" y1="3.94" x2="52.15" y2="3.95"/><line class="b" x1="52.14" y1="3.97" x2="52.13" y2="3.98"/><line class="b" x1="52.1" y1="3.99" x2="52.09" y2="3.99"/><line class="b" x1="52.08" y1="4" x2="52.07" y2="4.02"/><line class="b" x1="52.05" y1="4.03" x2="52.04" y2="4.04"/><line class="b" x1="52.02" y1="4.05" x2="52.01" y2="4.05"/><line class="b" x1="51.99" y1="4.06" x2="51.98" y2="4.08"/><line class="b" x1="51.96" y1="4.09" x2="51.95" y2="4.09"/><line class="b" x1="51.93" y1="4.1" x2="51.92" y2="4.11"/><line class="b" x1="51.91" y1="4.13" x2="51.9" y2="4.14"/><line class="b" x1="51.87" y1="4.15" x2="51.86" y2="4.15"/><line class="b" x1="51.85" y1="4.16" x2="51.84" y2="4.17"/><line class="b" x1="51.81" y1="4.19" x2="51.8" y2="4.2"/><line class="b" x1="51.79" y1="4.21" x2="51.77" y2="4.21"/><line class="b" x1="51.76" y1="4.22" x2="51.75" y2="4.23"/><line class="b" x1="51.73" y1="4.25" x2="51.71" y2="4.26"/><line class="b" x1="51.7" y1="4.27" x2="51.69" y2="4.27"/><line class="b" x1="51.66" y1="4.28" x2="51.65" y2="4.3"/><line class="b" x1="51.64" y1="4.31" x2="51.63" y2="4.31"/><line class="b" x1="51.6" y1="4.32" x2="51.6" y2="4.33"/><line class="b" x1="51.58" y1="4.35" x2="51.57" y2="4.36"/><line class="b" x1="51.55" y1="4.37" x2="51.54" y2="4.37"/><line class="b" x1="51.52" y1="4.38" x2="51.51" y2="4.39"/><line class="b" x1="51.49" y1="4.41" x2="51.48" y2="4.42"/><line class="b" x1="51.46" y1="4.43" x2="51.44" y2="4.43"/><line class="b" x1="51.43" y1="4.44" x2="51.42" y2="4.45"/><line class="b" x1="51.41" y1="4.47" x2="51.4" y2="4.48"/><line class="b" x1="51.37" y1="4.49" x2="51.36" y2="4.49"/><line class="b" x1="51.35" y1="4.5" x2="51.33" y2="4.52"/><line class="b" x1="51.31" y1="4.53" x2="51.3" y2="4.53"/><line class="b" x1="51.29" y1="4.54" x2="51.27" y2="4.55"/><line class="b" x1="51.26" y1="4.56" x2="51.25" y2="4.58"/><line class="b" x1="51.22" y1="4.59" x2="51.21" y2="4.59"/><line class="b" x1="51.2" y1="4.6" x2="51.19" y2="4.61"/><line class="b" x1="51.16" y1="4.63" x2="51.15" y2="4.64"/><line class="b" x1="51.14" y1="4.65" x2="51.13" y2="4.65"/><line class="b" x1="51.11" y1="4.66" x2="51.1" y2="4.67"/><line class="b" x1="51.08" y1="4.69" x2="51.07" y2="4.7"/><line class="b" x1="51.05" y1="4.71" x2="51.04" y2="4.71"/><line class="b" x1="51.02" y1="4.72" x2="51" y2="4.74"/><line class="b" x1="50.99" y1="4.75" x2="50.98" y2="4.76"/><line class="b" x1="50.96" y1="4.76" x2="50.96" y2="4.77"/><line class="b" x1="50.93" y1="4.78" x2="50.92" y2="4.8"/><line class="b" x1="50.91" y1="4.81" x2="50.89" y2="4.81"/><line class="b" x1="50.87" y1="4.82" x2="50.86" y2="4.83"/><line class="b" x1="50.85" y1="4.85" x2="50.83" y2="4.86"/><line class="b" x1="50.81" y1="4.87" x2="50.8" y2="4.87"/><line class="b" x1="50.78" y1="4.88" x2="50.77" y2="4.89"/><line class="a" x1="16.52" y1="29.8" x2="0.69" y2="29.8"/><line class="a" x1="3.67" y1="28.39" x2="5.91" y2="28.39"/><polygon class="a" points="8.14 28.39 5.91 29.78 5.91 28.39 8.14 28.39"/><line class="a" x1="7.78" y1="28.62" x2="8.01" y2="28.39"/><line class="a" x1="6.03" y1="29.71" x2="7.35" y2="28.39"/><line class="a" x1="5.91" y1="29.18" x2="6.7" y2="28.39"/><line class="a" x1="5.91" y1="28.52" x2="6.04" y2="28.39"/><line class="a" x1="6.96" y1="29.12" x2="6.21" y2="28.39"/><line class="a" x1="6.55" y1="29.38" x2="5.91" y2="28.73"/><line class="a" x1="6.15" y1="29.63" x2="5.91" y2="29.38"/><line class="a" x1="7.36" y1="28.88" x2="6.87" y2="28.39"/><line class="a" x1="7.76" y1="28.62" x2="7.52" y2="28.39"/><line class="a" x1="3.67" y1="28.39" x2="5.91" y2="29.78"/><path class="a" d="M1.52,26.4l-.11,0-.1.11c-.19.26-.13.8.21.9h.19l.1,0a.64.64,0,0,0,0-1l-.1,0Z"/><line class="a" x1="1.67" y1="27.25" x2="1.97" y2="27.56"/><line class="a" x1="2.38" y1="26.75" x2="2.38" y2="27.46"/><polyline class="a" points="2.38 27.06 2.43 26.9 2.52 26.8 2.62 26.75 2.77 26.75"/><polygon class="a" points="2.98 26.45 3.02 26.51 3.07 26.45 3.02 26.4 2.98 26.45"/><line class="a" x1="3.03" y1="26.8" x2="3.03" y2="27.46"/><polyline class="a" points="3.73 26.4 3.62 26.4 3.52 26.45 3.48 26.61 3.48 27.46"/><line class="a" x1="3.33" y1="26.75" x2="3.68" y2="26.75"/><polygon class="a" points="4.08 26.75 4.03 26.8 4.08 26.85 4.14 26.8 4.08 26.75"/><polygon class="a" points="4.08 27.35 4.03 27.41 4.08 27.46 4.14 27.41 4.08 27.35"/><polyline class="a" points="5.69 26.61 5.79 26.56 5.94 26.4 5.94 27.46"/><path class="a" d="M6.8,26.4l-.16,0,0,.11v.1l0,.1.1,0,.21,0,.15,0,.1.11.06.1v.15l-.06.1,0,.06-.15,0H6.8l-.16,0c-.48-.78.85-.37.5-1L7,26.4Z"/><polygon class="a" points="7.85 26.4 7.7 26.45 7.59 26.61 7.54 26.85 7.54 27.01 7.59 27.25 7.7 27.41 7.85 27.46 7.95 27.46 8.09 27.41 8.2 27.25 8.25 27.01 8.25 26.85 8.2 26.61 8.09 26.45 7.95 26.4 7.85 26.4"/><line class="a" x1="9.66" y1="26.75" x2="9.66" y2="27.46"/><polyline class="a" points="9.66 26.96 9.8 26.8 9.91 26.75 10.06 26.75 10.16 26.8 10.21 26.96 10.21 27.46"/><polyline class="a" points="10.21 26.96 10.37 26.8 10.46 26.75 10.61 26.75 10.71 26.8 10.76 26.96 10.76 27.46"/><path class="a" d="M12.72,26.9l0-.1-.16,0c-.36-.05-.46.22-.2.31l.24,0,.11,0,0,.1v0l0,.11-.16,0h-.15l-.15,0,0-.11"/><polygon class="a" points="13.12 27.35 13.07 27.41 13.12 27.46 13.17 27.41 13.12 27.35"/><line class="a" x1="13.58" y1="26.4" x2="13.58" y2="27.46"/><polygon class="a" points="14.03 27.35 13.98 27.41 14.03 27.46 14.08 27.41 14.03 27.35"/><line class="a" x1="14.48" y1="26.75" x2="14.48" y2="27.46"/><polyline class="a" points="14.48 26.96 14.63 26.8 14.72 26.75 14.88 26.75 14.98 26.8 15.03 26.96 15.03 27.46"/><polyline class="a" points="15.03 26.96 15.18 26.8 15.29 26.75 15.43 26.75 15.53 26.8 15.58 26.96 15.58 27.46"/><polygon class="a" points="16.03 27.35 15.98 27.41 16.03 27.46 16.08 27.41 16.03 27.35"/><line class="d" x1="34.73" y1="6.08" x2="35.7" y2="5.1"/><line class="d" x1="35.7" y1="6.08" x2="34.73" y2="5.1"/><line class="d" x1="47.02" y1="5.38" x2="48" y2="4.4"/><line class="d" x1="48" y1="5.38" x2="47.02" y2="4.4"/><line class="e" x1="41.09" y1="6.5" x2="41.09" y2="7.9"/><path class="e" d="M40.39,7.2h1.38l0-.18-.06-.16A.69.69,0,0,0,40.42,7l0,.18,0,.18a.69.69,0,0,0,1.27.16l.06-.16,0-.18"/><line class="f" x1="37.49" y1="7.69" x2="38.48" y2="6.71"/><line class="f" x1="38.48" y1="7.69" x2="37.49" y2="6.71"/><line class="f" x1="43.7" y1="7.69" x2="44.68" y2="6.71"/><line class="f" x1="44.68" y1="7.69" x2="43.7" y2="6.71"/></svg>