<svg xmlns="http://www.w3.org/2000/svg" viewBox="0 0 141.36 51.03"><defs><style>.a,.b,.c,.d,.e,.f{fill:none;stroke-linecap:round;stroke-linejoin:round;stroke-width:0.21px;}.a{stroke:#000;}.b{stroke:red;}.c{stroke:#ffbf00;}.d{stroke:#00b800;}.e{stroke:blue;}.f{stroke:#00bfff;}</style></defs><title>cad1.2</title><polyline class="a" points="23.96 42.4 23.96 41.93 24.45 42.19 24.45 42.07 24.51 41.98 24.56 41.93 24.74 41.9 24.86 41.9 25.05 41.93 25.17 42.02 25.23 42.15 25.23 42.28 25.17 42.4 25.11 42.45 24.99 42.48"/><polygon class="a" points="25.11 41.55 25.17 41.6 25.23 41.55 25.17 41.52 25.11 41.55"/><polyline class="a" points="23.96 40.8 24.8 41.21 24.8 40.58"/><line class="a" x1="23.96" y1="40.8" x2="25.23" y2="40.8"/><line class="a" x1="16.68" y1="35.02" x2="16.68" y2="38.72"/><line class="a" x1="2.77" y1="30.39" x2="140.25" y2="30.39"/><line class="a" x1="16.68" y1="35.02" x2="140.25" y2="35.02"/><line class="a" x1="16.68" y1="38.71" x2="140.25" y2="38.71"/><line class="a" x1="16.68" y1="44.27" x2="140.25" y2="44.27"/><polyline class="a" points="16.68 49.81 140.25 49.81 140.25 30.39"/><line class="a" x1="136.77" y1="11.23" x2="136.77" y2="12.01"/><line class="a" x1="136.77" y1="12.85" x2="136.77" y2="13.41"/><line class="a" x1="136.77" y1="14.24" x2="136.77" y2="14.79"/><line class="a" x1="136.77" y1="15.62" x2="136.77" y2="16.19"/><line class="a" x1="136.77" y1="17.02" x2="136.77" y2="17.57"/><line class="a" x1="136.77" y1="18.4" x2="136.77" y2="18.95"/><line class="a" x1="136.77" y1="19.78" x2="136.77" y2="20.35"/><line class="a" x1="136.77" y1="21.18" x2="136.77" y2="21.73"/><line class="a" x1="136.77" y1="22.56" x2="136.77" y2="23.12"/><line class="a" x1="136.77" y1="23.96" x2="136.77" y2="24.51"/><line class="a" x1="136.77" y1="25.34" x2="136.77" y2="25.89"/><line class="a" x1="136.77" y1="26.72" x2="136.77" y2="27.29"/><line class="a" x1="136.77" y1="28.12" x2="136.77" y2="28.67"/><line class="a" x1="136.77" y1="29.5" x2="136.77" y2="30.28"/><line class="a" x1="136.77" y1="11.23" x2="136.77" y2="30.39"/><line class="a" x1="121.05" y1="11" x2="121.05" y2="30.39"/><line class="a" x1="105.67" y1="10.81" x2="105.67" y2="30.39"/><line class="a" x1="89.37" y1="10.56" x2="89.37" y2="30.39"/><line class="a" x1="81.12" y1="10.5" x2="81.12" y2="30.39"/><line class="a" x1="73.64" y1="10.29" x2="73.64" y2="30.39"/><polyline class="a" points="48.22 9.81 53.52 10.01 58.72 10.14"/><polyline class="a" points="62.02 10.16 65.3 10.19 73.64 10.29 81.12 10.49 89.37 10.56 97.79 10.77 105.67 10.81 113.63 10.91 121.05 11 128.66 11.14 136.77 11.23"/><polyline class="a" points="16.74 8.54 24.59 7.11 28.71 6.41 30.88 8.62 33.09 8.86 35.12 8.86"/><line class="a" x1="35.25" y1="8.62" x2="36.99" y2="5.81"/><line class="a" x1="16.74" y1="30.39" x2="16.74" y2="8.54"/><line class="a" x1="30.88" y1="30.39" x2="30.88" y2="9.09"/><line class="a" x1="28.71" y1="30.39" x2="28.71" y2="6.41"/><line class="a" x1="24.59" y1="30.39" x2="24.59" y2="7.11"/><polyline class="a" points="36.99 5.81 39.41 6.41 42.61 7.8 43.43 8.13"/><line class="b" x1="44.68" y1="8.65" x2="44.71" y2="8.61"/><line class="b" x1="44.96" y1="8.77" x2="45.02" y2="8.72"/><line class="b" x1="45.83" y1="9.12" x2="45.86" y2="9.09"/><line class="b" x1="46.12" y1="9.25" x2="46.28" y2="9.09"/><line class="b" x1="46.41" y1="9.37" x2="46.68" y2="9.09"/><line class="b" x1="46.69" y1="9.49" x2="47.09" y2="9.09"/><line class="b" x1="46.99" y1="9.6" x2="47.5" y2="9.09"/><line class="b" x1="47.28" y1="9.72" x2="47.91" y2="9.09"/><line class="b" x1="47.6" y1="9.81" x2="48.32" y2="9.09"/><line class="b" x1="48" y1="9.81" x2="48.73" y2="9.09"/><line class="b" x1="48.41" y1="9.82" x2="49.13" y2="9.09"/><line class="b" x1="48.8" y1="9.83" x2="49.55" y2="9.09"/><line class="b" x1="49.2" y1="9.85" x2="49.95" y2="9.09"/><line class="b" x1="49.59" y1="9.86" x2="50.37" y2="9.09"/><line class="b" x1="49.99" y1="9.87" x2="50.77" y2="9.09"/><line class="b" x1="50.38" y1="9.9" x2="51.17" y2="9.09"/><line class="b" x1="50.77" y1="9.91" x2="51.59" y2="9.09"/><line class="b" x1="51.17" y1="9.92" x2="51.99" y2="9.09"/><line class="b" x1="51.57" y1="9.93" x2="52.72" y2="8.78"/><polyline class="b" points="51.96 9.95 52.34 9.58 54.82 7.08"/><polyline class="b" points="52.35 9.97 55.77 6.54 55.99 6.31"/><polyline class="b" points="52.75 9.98 55.77 6.95 56.41 6.31"/><polyline class="b" points="53.14 9.99 55.77 7.35 56.81 6.31"/><line class="b" x1="53.54" y1="10.01" x2="57.23" y2="6.31"/><polyline class="b" points="53.94 10.02 55.77 8.17 57.63 6.31"/><line class="b" x1="54.33" y1="10.03" x2="55.77" y2="8.59"/><line class="b" x1="58.03" y1="6.34" x2="55.77" y2="8.59"/><line class="b" x1="54.73" y1="10.04" x2="55.77" y2="8.99"/><line class="b" x1="58.23" y1="6.53" x2="55.77" y2="8.99"/><line class="b" x1="55.13" y1="10.06" x2="55.78" y2="9.41"/><polyline class="b" points="58.44 6.74 58 7.17 55.77 9.41"/><line class="b" x1="55.53" y1="10.06" x2="55.78" y2="9.81"/><line class="b" x1="58.65" y1="6.93" x2="55.77" y2="9.81"/><polyline class="b" points="55.92 10.07 58 7.99 58.86 7.14"/><line class="b" x1="56.33" y1="10.08" x2="59.07" y2="7.34"/><line class="b" x1="56.72" y1="10.09" x2="59.28" y2="7.53"/><line class="b" x1="57.12" y1="10.1" x2="59.48" y2="7.74"/><line class="b" x1="57.51" y1="10.12" x2="59.69" y2="7.94"/><polyline class="b" points="57.92 10.13 58 10.03 59.9 8.13"/><line class="b" x1="58.31" y1="10.14" x2="60.11" y2="8.34"/><line class="b" x1="58.71" y1="10.14" x2="60.31" y2="8.54"/><line class="b" x1="59.12" y1="10.15" x2="60.52" y2="8.75"/><line class="b" x1="59.52" y1="10.15" x2="60.73" y2="8.94"/><line class="b" x1="59.92" y1="10.15" x2="60.94" y2="9.14"/><line class="b" x1="60.34" y1="10.15" x2="61.15" y2="9.35"/><line class="b" x1="60.74" y1="10.17" x2="61.36" y2="9.54"/><line class="b" x1="61.15" y1="10.17" x2="61.56" y2="9.74"/><line class="b" x1="61.55" y1="10.17" x2="61.77" y2="9.95"/><line class="b" x1="61.95" y1="10.17" x2="61.98" y2="10.14"/><line class="b" x1="47.49" y1="9.81" x2="48.22" y2="9.81"/><line class="a" x1="24.59" y1="35.02" x2="24.59" y2="38.72"/><line class="a" x1="28.71" y1="35.02" x2="28.71" y2="38.72"/><line class="a" x1="30.88" y1="35.02" x2="30.88" y2="38.72"/><line class="a" x1="73.64" y1="35.02" x2="73.64" y2="38.72"/><line class="a" x1="81.12" y1="35.02" x2="81.12" y2="38.72"/><line class="a" x1="89.37" y1="35.02" x2="89.37" y2="38.72"/><line class="a" x1="105.67" y1="35.02" x2="105.67" y2="38.72"/><line class="a" x1="121.05" y1="35.02" x2="121.05" y2="38.72"/><line class="a" x1="136.77" y1="35.02" x2="136.77" y2="38.72"/><polyline class="a" points="19.75 36.29 20.23 36.29 19.97 36.65 20.1 36.65 20.19 36.7 20.23 36.73 20.27 36.87 20.27 36.95 20.23 37.09 20.14 37.17 20 37.22 19.88 37.22 19.75 37.17 19.7 37.14 19.66 37.05"/><polygon class="a" points="20.63 37.14 20.58 37.17 20.63 37.22 20.67 37.17 20.63 37.14"/><polyline class="a" points="21.43 36.29 20.98 36.92 21.64 36.92"/><line class="a" x1="21.42" y1="36.29" x2="21.42" y2="37.22"/><polyline class="a" points="25.63 36.48 25.72 36.43 25.85 36.29 25.85 37.22"/><polygon class="a" points="26.48 37.14 26.43 37.17 26.48 37.22 26.52 37.17 26.48 37.14"/><polygon class="a" points="27.04 36.29 26.92 36.34 26.87 36.43 26.87 36.51 26.92 36.61 27 36.65 27.18 36.7 27.31 36.73 27.4 36.83 27.45 36.92 27.45 37.05 27.4 37.14 27.36 37.17 27.23 37.22 27.04 37.22 26.92 37.17 26.87 37.14 26.82 37.05 26.82 36.92 26.87 36.83 26.95 36.73 27.09 36.7 27.26 36.65 27.36 36.61 27.4 36.51 27.4 36.43 27.36 36.34 27.23 36.29 27.04 36.29"/><polyline class="a" points="129.06 36.43 129.01 36.34 128.88 36.29 128.79 36.29 128.66 36.34 128.57 36.48 128.54 36.7 128.54 36.92 128.57 37.09 128.66 37.17 128.79 37.22 128.84 37.22 128.98 37.17 129.06 37.09 129.1 36.95 129.1 36.92 129.06 36.78 128.98 36.7 128.84 36.65 128.79 36.65 128.66 36.7 128.57 36.78 128.54 36.92"/><polygon class="a" points="129.46 37.14 129.42 37.17 129.46 37.22 129.5 37.17 129.46 37.14"/><polygon class="a" points="130.03 36.29 129.9 36.34 129.86 36.43 129.86 36.51 129.9 36.61 129.98 36.65 130.17 36.7 130.3 36.73 130.39 36.83 130.42 36.92 130.42 37.05 130.39 37.14 130.34 37.17 130.2 37.22 130.03 37.22 129.9 37.17 129.86 37.14 129.81 37.05 129.81 36.92 129.86 36.83 129.94 36.73 130.08 36.7 130.25 36.65 130.34 36.61 130.39 36.51 130.39 36.43 130.34 36.34 130.2 36.29 130.03 36.29"/><polyline class="a" points="28.12 41.96 28.12 42.39 28.66 42.42 28.59 42.39 28.53 42.25 28.53 42.13 28.59 42.01 28.72 41.92 28.9 41.87 29.02 41.87 29.21 41.92 29.33 42.01 29.39 42.13 29.39 42.25 29.33 42.39 29.27 42.42 29.15 42.47"/><polygon class="a" points="29.27 41.53 29.33 41.58 29.39 41.53 29.33 41.49 29.27 41.53"/><polyline class="a" points="28.41 41.15 28.35 41.15 28.24 41.11 28.18 41.06 28.12 40.98 28.12 40.82 28.18 40.73 28.24 40.69 28.35 40.65 28.47 40.65 28.6 40.69 28.78 40.77 29.39 41.2 29.39 40.6"/><polyline class="a" points="30.49 42.39 30.37 42.42 30.31 42.56 30.31 42.63 30.37 42.77 30.55 42.85 30.86 42.89 31.17 42.89 31.41 42.85 31.52 42.77 31.58 42.63 31.58 42.59 31.52 42.47 31.41 42.39 31.23 42.34 31.17 42.34 30.98 42.39 30.86 42.47 30.8 42.59 30.8 42.63 30.86 42.77 30.98 42.85 31.17 42.89"/><polygon class="a" points="31.46 42.01 31.52 42.04 31.58 42.01 31.52 41.96 31.46 42.01"/><polyline class="a" points="30.55 41.53 30.49 41.44 30.31 41.32 31.58 41.32"/><polyline class="a" points="30.31 40.39 31.17 40.82 31.17 40.18"/><line class="a" x1="30.31" y1="40.39" x2="31.58" y2="40.39"/><polyline class="a" points="73.32 43.27 73.26 43.27 73.14 43.23 73.09 43.19 73.03 43.11 73.03 42.94 73.09 42.85 73.14 42.8 73.26 42.77 73.38 42.77 73.51 42.8 73.69 42.89 74.3 43.32 74.3 42.72"/><polyline class="a" points="73.03 42.04 73.87 42.47 73.87 41.84"/><line class="a" x1="73.03" y1="42.04" x2="74.3" y2="42.04"/><polygon class="a" points="74.18 41.53 74.24 41.58 74.3 41.53 74.24 41.49 74.18 41.53"/><polyline class="a" points="73.2 40.65 73.09 40.69 73.03 40.82 73.03 40.89 73.09 41.03 73.26 41.11 73.57 41.15 73.87 41.15 74.12 41.11 74.24 41.03 74.3 40.89 74.3 40.86 74.24 40.73 74.12 40.65 73.94 40.6 73.87 40.6 73.69 40.65 73.57 40.73 73.51 40.86 73.51 40.89 73.57 41.03 73.69 41.11 73.87 41.15"/><path class="a" d="M73,40.26v-.46l.48.26v-.12c.21-.4,1.16-.07.67.38l-.12,0"/><polyline class="a" points="80.95 43.27 80.89 43.27 80.76 43.23 80.7 43.19 80.64 43.11 80.64 42.94 80.7 42.85 80.76 42.8 80.89 42.77 81.01 42.77 81.13 42.8 81.31 42.89 81.91 43.32 81.91 42.72"/><polyline class="a" points="81.91 42.3 80.64 41.87 80.64 42.47"/><polygon class="a" points="81.79 41.53 81.85 41.58 81.91 41.53 81.85 41.49 81.79 41.53"/><path class="a" d="M80.64,41l.06.14.12,0h.12l.12,0,.06-.09.06-.17.06-.12.11-.08.12,0h.18l.12,0,.06,0,.06.13V41l-.06.14c-.89.42-.44-.72-1.15-.43l-.06.13Z"/><polyline class="a" points="80.83 39.79 80.7 39.84 80.64 39.96 80.64 40.05 80.7 40.18 80.89 40.26 81.19 40.31 81.49 40.31 81.73 40.26 81.85 40.18 81.91 40.05 81.91 40.01 81.85 39.88 81.73 39.79 81.55 39.76 81.49 39.76 81.31 39.79 81.19 39.88 81.13 40.01 81.13 40.05 81.19 40.18 81.31 40.26 81.49 40.31"/><polyline class="a" points="88.86 43.23 88.86 42.77 89.36 43.02 89.36 42.89 89.42 42.8 89.48 42.77 89.66 42.72 89.78 42.72 89.95 42.77 90.08 42.85 90.14 42.97 90.14 43.11 90.08 43.23 90.02 43.27 89.91 43.32"/><polyline class="a" points="89.11 42.34 89.05 42.25 88.86 42.13 90.14 42.13"/><polygon class="a" points="90.02 41.53 90.08 41.58 90.14 41.53 90.08 41.49 90.02 41.53"/><polyline class="a" points="88.86 40.77 89.72 41.2 89.72 40.56"/><line class="a" x1="88.86" y1="40.77" x2="90.14" y2="40.77"/><polyline class="a" points="88.86 40.26 88.86 39.79 89.36 40.05 89.36 39.93 89.42 39.84 89.48 39.79 89.66 39.76 89.78 39.76 89.95 39.79 90.08 39.88 90.14 40.01 90.14 40.13 90.08 40.26 90.02 40.31 89.91 40.34"/><path class="a" d="M105.09,43.23v-.46l.49.26v-.14c.22-.42,1.14,0,.66.38l-.12,0"/><path class="a" d="M105.09,42.25l.06.14.12,0h.12l.12,0,.06-.09.06-.17.06-.12.11-.08.12,0h.18l.12,0,.06,0,.06.12v.17l-.06.14c-.89.42-.44-.72-1.15-.43l-.06.12Z"/><polygon class="a" points="106.24 41.53 106.3 41.58 106.36 41.53 106.3 41.49 106.24 41.53"/><polyline class="a" points="105.09 40.77 105.94 41.2 105.94 40.56"/><line class="a" x1="105.09" y1="40.77" x2="106.36" y2="40.77"/><polygon class="a" points="105.09 40.13 105.15 40.26 105.28 40.3 105.4 40.3 105.52 40.26 105.58 40.18 105.64 40.01 105.7 39.88 105.81 39.79 105.94 39.76 106.12 39.76 106.24 39.79 106.3 39.84 106.36 39.96 106.36 40.13 106.3 40.26 106.24 40.3 106.12 40.34 105.94 40.34 105.81 40.3 105.7 40.22 105.64 40.1 105.58 39.93 105.52 39.84 105.4 39.79 105.28 39.79 105.15 39.84 105.09 39.96 105.09 40.13"/><polyline class="a" points="120.28 42.89 121.12 43.32 121.12 42.68"/><line class="a" x1="120.28" y1="42.89" x2="121.55" y2="42.89"/><polyline class="a" points="120.28 41.96 120.28 42.39 120.83 42.42 120.77 42.39 120.71 42.25 120.71 42.13 120.77 42.01 120.89 41.92 121.07 41.87 121.18 41.87 121.37 41.92 121.49 42.01 121.55 42.13 121.55 42.25 121.49 42.39 121.43 42.42 121.31 42.47"/><polygon class="a" points="121.43 41.53 121.49 41.58 121.55 41.53 121.49 41.49 121.43 41.53"/><polyline class="a" points="120.52 41.06 120.46 40.98 120.28 40.86 121.55 40.86"/><polyline class="a" points="120.28 40.26 120.28 39.79 120.77 40.05 120.77 39.93 120.83 39.84 120.89 39.79 121.07 39.76 121.18 39.76 121.37 39.79 121.49 39.88 121.55 40.01 121.55 40.13 121.49 40.26 121.43 40.31 121.31 40.34"/><polyline class="a" points="135.99 42.8 135.99 43.23 136.54 43.27 136.48 43.23 136.42 43.11 136.42 42.97 136.48 42.85 136.6 42.77 136.77 42.72 136.9 42.72 137.08 42.77 137.2 42.85 137.26 42.97 137.26 43.11 137.2 43.23 137.14 43.27 137.02 43.32"/><polyline class="a" points="136.24 42.34 136.17 42.25 135.99 42.13 137.26 42.13"/><polygon class="a" points="137.14 41.53 137.2 41.58 137.26 41.53 137.2 41.49 137.14 41.53"/><polyline class="a" points="136.42 40.65 136.6 40.69 136.71 40.77 136.77 40.89 136.77 40.94 136.71 41.06 136.6 41.15 136.42 41.2 136.36 41.2 136.17 41.15 136.05 41.06 135.99 40.94 135.99 40.89 136.05 40.77 136.17 40.69 136.42 40.65 136.71 40.65 137.02 40.69 137.2 40.77 137.26 40.89 137.26 40.98 137.2 41.11 137.08 41.15"/><path class="a" d="M136,40.26v-.46l.49.26v-.12c.21-.41,1.14-.06.66.38l-.12,0"/><polygon class="a" points="16 41.58 16.07 41.7 16.25 41.79 16.55 41.84 16.73 41.84 17.03 41.79 17.22 41.7 17.28 41.58 17.28 41.49 17.22 41.37 17.03 41.28 16.73 41.23 16.55 41.23 16.25 41.28 16.07 41.37 16 41.49 16 41.58"/><polyline class="a" points="16.33 49.21 16.27 49.13 16.1 48.99 17.36 48.99"/><polygon class="a" points="16.1 48.27 16.15 48.41 16.27 48.44 16.39 48.44 16.52 48.41 16.58 48.32 16.64 48.15 16.7 48.03 16.82 47.94 16.95 47.89 17.13 47.89 17.25 47.94 17.31 47.98 17.36 48.11 17.36 48.27 17.31 48.41 17.25 48.44 17.13 48.49 16.95 48.49 16.82 48.44 16.7 48.36 16.64 48.23 16.58 48.06 16.52 47.98 16.39 47.94 16.27 47.94 16.15 47.98 16.1 48.11 16.1 48.27"/><polyline class="a" points="16.52 47.09 16.7 47.13 16.82 47.22 16.88 47.34 16.88 47.39 16.82 47.51 16.7 47.6 16.52 47.64 16.46 47.64 16.27 47.6 16.15 47.51 16.1 47.39 16.1 47.34 16.15 47.22 16.27 47.13 16.52 47.09 16.82 47.09 17.13 47.13 17.31 47.22 17.36 47.34 17.36 47.43 17.31 47.55 17.19 47.6"/><polygon class="a" points="17.25 46.71 17.31 46.76 17.36 46.71 17.31 46.67 17.25 46.71"/><polyline class="a" points="16.1 45.95 16.95 46.36 16.95 45.74"/><line class="a" x1="16.1" y1="45.95" x2="17.36" y2="45.95"/><path class="a" d="M16.1,45v.42l.54,0-.06,0c-.41-.74,1.27-.62.67,0l-.12,0"/><polyline class="a" points="80.72 48.97 80.65 48.88 80.48 48.76 81.75 48.76"/><polygon class="a" points="80.48 48.04 80.54 48.16 80.65 48.21 80.78 48.21 80.9 48.16 80.96 48.09 81.02 47.92 81.08 47.78 81.2 47.7 81.33 47.66 81.51 47.66 81.63 47.7 81.69 47.75 81.75 47.87 81.75 48.04 81.69 48.16 81.63 48.21 81.51 48.25 81.33 48.25 81.2 48.21 81.08 48.13 81.02 48 80.96 47.83 80.9 47.75 80.78 47.7 80.65 47.7 80.54 47.75 80.48 47.87 80.48 48.04"/><polygon class="a" points="80.48 47.2 80.54 47.32 80.65 47.37 80.78 47.37 80.9 47.32 80.96 47.23 81.02 47.06 81.08 46.94 81.2 46.85 81.33 46.82 81.51 46.82 81.63 46.85 81.69 46.9 81.75 47.02 81.75 47.2 81.69 47.32 81.63 47.37 81.51 47.4 81.33 47.4 81.2 47.37 81.08 47.28 81.02 47.15 80.96 46.98 80.9 46.9 80.78 46.85 80.65 46.85 80.54 46.9 80.48 47.02 80.48 47.2"/><polygon class="a" points="81.63 46.47 81.69 46.51 81.75 46.47 81.69 46.42 81.63 46.47"/><path class="a" d="M80.48,45.63V46l.54,0L81,46c-.42-.75,1.29-.61.67,0l-.12,0"/><polyline class="a" points="80.65 44.74 80.54 44.77 80.48 44.91 80.48 44.99 80.54 45.12 80.71 45.2 81.02 45.24 81.33 45.24 81.57 45.2 81.69 45.12 81.75 44.99 81.75 44.94 81.69 44.82 81.57 44.74 81.39 44.69 81.33 44.69 81.14 44.74 81.02 44.82 80.96 44.94 80.96 44.99 81.02 45.12 81.14 45.2 81.33 45.24"/><polyline class="a" points="120.66 48.99 120.6 48.91 120.41 48.79 121.69 48.79"/><polygon class="a" points="120.41 48.06 120.47 48.19 120.6 48.23 120.72 48.23 120.84 48.19 120.9 48.1 120.96 47.93 121.02 47.81 121.15 47.72 121.26 47.69 121.44 47.69 121.56 47.72 121.62 47.77 121.69 47.89 121.69 48.06 121.62 48.19 121.56 48.23 121.44 48.27 121.26 48.27 121.15 48.23 121.02 48.15 120.96 48.02 120.9 47.84 120.84 47.77 120.72 47.72 120.6 47.72 120.47 47.77 120.41 47.89 120.41 48.06"/><path class="a" d="M120.41,47.21l.06.14.12,0h.12l.12,0,.06-.09.06-.17L121,47l.12-.08.11,0h.18l.12,0,.06,0,.06.13v.16l-.06.14c-.88.42-.45-.72-1.15-.43l-.06.13Z"/><polygon class="a" points="121.56 46.5 121.62 46.53 121.69 46.5 121.62 46.45 121.56 46.5"/><polyline class="a" points="120.41 46.07 120.41 45.6 120.9 45.86 120.9 45.73 120.96 45.64 121.02 45.6 121.21 45.56 121.32 45.56 121.5 45.6 121.62 45.69 121.69 45.81 121.69 45.95 121.62 46.07 121.56 46.11 121.44 46.16"/><polyline class="a" points="120.41 44.88 121.26 45.31 121.26 44.67"/><line class="a" x1="120.41" y1="44.88" x2="121.69" y2="44.88"/><polyline class="a" points="24.43 49.21 24.37 49.13 24.19 48.99 25.46 48.99"/><polyline class="a" points="24.62 47.94 24.8 47.98 24.91 48.06 24.97 48.19 24.97 48.24 24.91 48.36 24.8 48.44 24.62 48.49 24.56 48.49 24.37 48.44 24.25 48.36 24.19 48.24 24.19 48.19 24.25 48.06 24.37 47.98 24.62 47.94 24.91 47.94 25.22 47.98 25.4 48.06 25.46 48.19 25.46 48.27 25.4 48.41 25.28 48.44"/><polygon class="a" points="24.19 47.39 24.25 47.51 24.43 47.6 24.74 47.64 24.91 47.64 25.22 47.6 25.4 47.51 25.46 47.39 25.46 47.3 25.4 47.17 25.22 47.09 24.91 47.05 24.74 47.05 24.43 47.09 24.25 47.17 24.19 47.3 24.19 47.39"/><polygon class="a" points="25.34 46.71 25.4 46.76 25.46 46.71 25.4 46.67 25.34 46.71"/><polygon class="a" points="24.19 46.12 24.25 46.24 24.43 46.33 24.74 46.36 24.91 46.36 25.22 46.33 25.4 46.24 25.46 46.12 25.46 46.03 25.4 45.9 25.22 45.81 24.91 45.77 24.74 45.77 24.43 45.81 24.25 45.9 24.19 46.03 24.19 46.12"/><polyline class="a" points="25.46 45.35 24.19 44.93 24.19 45.52"/><polyline class="a" points="73.25 49.19 73.19 49.1 73 48.98 74.28 48.98"/><polygon class="a" points="73 48.26 73.07 48.38 73.19 48.43 73.31 48.43 73.43 48.38 73.5 48.3 73.54 48.13 73.61 48 73.73 47.92 73.85 47.87 74.03 47.87 74.16 47.92 74.22 47.95 74.28 48.09 74.28 48.26 74.22 48.38 74.16 48.43 74.03 48.47 73.85 48.47 73.73 48.43 73.61 48.35 73.54 48.21 73.5 48.04 73.43 47.95 73.31 47.92 73.19 47.92 73.07 47.95 73 48.09 73 48.26"/><polygon class="a" points="73 47.4 73.07 47.54 73.19 47.57 73.31 47.57 73.43 47.54 73.5 47.45 73.54 47.28 73.61 47.16 73.73 47.07 73.85 47.02 74.03 47.02 74.16 47.07 74.22 47.11 74.28 47.24 74.28 47.4 74.22 47.54 74.16 47.57 74.03 47.62 73.85 47.62 73.73 47.57 73.61 47.49 73.54 47.37 73.5 47.2 73.43 47.11 73.31 47.07 73.19 47.07 73.07 47.11 73 47.24 73 47.4"/><polygon class="a" points="74.16 46.68 74.22 46.73 74.28 46.68 74.22 46.64 74.16 46.68"/><polyline class="a" points="73.19 45.8 73.07 45.84 73 45.97 73 46.06 73.07 46.18 73.25 46.27 73.54 46.3 73.85 46.3 74.09 46.27 74.22 46.18 74.28 46.06 74.28 46.01 74.22 45.89 74.09 45.8 73.91 45.75 73.85 45.75 73.67 45.8 73.54 45.89 73.5 46.01 73.5 46.06 73.54 46.18 73.67 46.27 73.85 46.3"/><polyline class="a" points="73.43 44.94 73.6 44.99 73.73 45.08 73.79 45.2 73.79 45.25 73.73 45.37 73.6 45.46 73.43 45.49 73.37 45.49 73.19 45.46 73.07 45.37 73 45.25 73 45.2 73.07 45.08 73.19 44.99 73.43 44.94 73.73 44.94 74.03 44.99 74.22 45.08 74.28 45.2 74.28 45.29 74.22 45.42 74.09 45.46"/><polyline class="a" points="88.97 49.21 88.91 49.13 88.73 48.99 90 48.99"/><polygon class="a" points="88.73 48.27 88.79 48.41 88.91 48.44 89.04 48.44 89.16 48.41 89.22 48.32 89.27 48.15 89.33 48.03 89.45 47.94 89.57 47.89 89.76 47.89 89.88 47.94 89.94 47.98 90 48.11 90 48.27 89.94 48.41 89.88 48.44 89.76 48.49 89.57 48.49 89.45 48.44 89.33 48.36 89.27 48.23 89.22 48.06 89.16 47.98 89.04 47.94 88.91 47.94 88.79 47.98 88.73 48.11 88.73 48.27"/><polygon class="a" points="88.73 47.43 88.79 47.55 88.91 47.6 89.04 47.6 89.16 47.55 89.22 47.48 89.27 47.31 89.33 47.17 89.45 47.09 89.57 47.05 89.76 47.05 89.88 47.09 89.94 47.13 90 47.26 90 47.43 89.94 47.55 89.88 47.6 89.76 47.64 89.57 47.64 89.45 47.6 89.33 47.51 89.27 47.39 89.22 47.22 89.16 47.13 89.04 47.09 88.91 47.09 88.79 47.13 88.73 47.26 88.73 47.43"/><polygon class="a" points="89.88 46.71 89.94 46.76 90 46.71 89.94 46.67 89.88 46.71"/><polyline class="a" points="88.73 45.86 88.73 46.29 89.27 46.33 89.22 46.29 89.16 46.16 89.16 46.03 89.22 45.9 89.33 45.81 89.51 45.77 89.64 45.77 89.82 45.81 89.94 45.9 90 46.03 90 46.16 89.94 46.29 89.88 46.33 89.76 46.36"/><polyline class="a" points="90 45.35 88.73 44.93 88.73 45.52"/><polyline class="a" points="105.28 49.21 105.21 49.13 105.03 48.99 106.3 48.99"/><path class="a" d="M105,48.27l.06.14.12,0h.12l.12,0,.06-.09.06-.17.06-.12.12-.08.11,0h.18l.12,0,.06,0,.06.13v.16l-.06.14c-.88.42-.45-.72-1.15-.43l-.06.13Z"/><polygon class="a" points="105.03 47.43 105.09 47.55 105.21 47.6 105.34 47.6 105.46 47.55 105.52 47.48 105.58 47.31 105.64 47.17 105.76 47.09 105.87 47.05 106.06 47.05 106.18 47.09 106.24 47.13 106.3 47.26 106.3 47.43 106.24 47.55 106.18 47.6 106.06 47.64 105.87 47.64 105.76 47.6 105.64 47.51 105.58 47.39 105.52 47.22 105.46 47.13 105.34 47.09 105.21 47.09 105.09 47.13 105.03 47.26 105.03 47.43"/><polygon class="a" points="106.18 46.71 106.24 46.76 106.3 46.71 106.24 46.67 106.18 46.71"/><polyline class="a" points="105.03 45.95 105.87 46.36 105.87 45.74"/><line class="a" x1="105.03" y1="45.95" x2="106.3" y2="45.95"/><polyline class="a" points="105.21 44.97 105.09 45.02 105.03 45.14 105.03 45.23 105.09 45.35 105.28 45.43 105.58 45.48 105.88 45.48 106.12 45.43 106.24 45.35 106.3 45.23 106.3 45.18 106.24 45.05 106.12 44.97 105.94 44.93 105.88 44.93 105.7 44.97 105.58 45.05 105.52 45.18 105.52 45.23 105.58 45.35 105.7 45.43 105.88 45.48"/><polyline class="a" points="136.38 49.23 136.32 49.14 136.14 49.02 137.41 49.02"/><path class="a" d="M136.14,48.3l.06.14.12,0h.12l.12,0,0-.09.06-.17.06-.14.12-.09.12,0h.18l.12,0,.06,0,.06.12v.17l-.06.14c-1,.39-.45-.75-1.15-.43l-.06.12Z"/><polygon class="a" points="136.14 47.45 136.2 47.57 136.32 47.62 136.44 47.62 136.56 47.57 136.61 47.49 136.68 47.32 136.74 47.2 136.86 47.11 136.98 47.07 137.16 47.07 137.29 47.11 137.35 47.16 137.41 47.28 137.41 47.45 137.35 47.57 137.29 47.62 137.16 47.66 136.98 47.66 136.86 47.62 136.74 47.54 136.68 47.4 136.61 47.24 136.56 47.16 136.44 47.11 136.32 47.11 136.2 47.16 136.14 47.28 136.14 47.45"/><polygon class="a" points="137.29 46.73 137.35 46.77 137.41 46.73 137.35 46.68 137.29 46.73"/><polyline class="a" points="136.44 46.35 136.38 46.35 136.26 46.3 136.2 46.27 136.14 46.18 136.14 46.01 136.2 45.92 136.26 45.89 136.38 45.84 136.5 45.84 136.61 45.89 136.8 45.97 137.41 46.39 137.41 45.8"/><polyline class="a" points="136.14 45.12 136.98 45.54 136.98 44.91"/><line class="a" x1="136.14" y1="45.12" x2="137.41" y2="45.12"/><polyline class="a" points="23.96 42.4 23.96 41.93 24.45 42.19 24.45 42.07 24.51 41.98 24.56 41.93 24.74 41.9 24.86 41.9 25.05 41.93 25.17 42.02 25.23 42.15 25.23 42.28 25.17 42.4 25.11 42.45 24.99 42.48"/><polygon class="a" points="25.11 41.55 25.17 41.6 25.23 41.55 25.17 41.52 25.11 41.55"/><polyline class="a" points="23.96 40.8 24.8 41.21 24.8 40.58"/><line class="a" x1="23.96" y1="40.8" x2="25.23" y2="40.8"/><polyline class="a" points="16.59 32.33 16.7 32.28 16.87 32.11 16.87 33.31"/><line class="a" x1="16.68" y1="35.02" x2="16.68" y2="38.72"/><line class="a" x1="2.77" y1="30.39" x2="140.25" y2="30.39"/><line class="a" x1="16.68" y1="35.02" x2="140.25" y2="35.02"/><line class="a" x1="16.68" y1="38.71" x2="140.25" y2="38.71"/><line class="a" x1="16.68" y1="44.27" x2="140.25" y2="44.27"/><polyline class="a" points="16.68 49.81 140.25 49.81 140.25 30.39"/><line class="a" x1="136.77" y1="11.23" x2="136.77" y2="12.01"/><line class="a" x1="136.77" y1="12.85" x2="136.77" y2="13.41"/><line class="a" x1="136.77" y1="14.24" x2="136.77" y2="14.79"/><line class="a" x1="136.77" y1="15.62" x2="136.77" y2="16.19"/><line class="a" x1="136.77" y1="17.02" x2="136.77" y2="17.57"/><line class="a" x1="136.77" y1="18.4" x2="136.77" y2="18.95"/><line class="a" x1="136.77" y1="19.78" x2="136.77" y2="20.35"/><line class="a" x1="136.77" y1="21.18" x2="136.77" y2="21.73"/><line class="a" x1="136.77" y1="22.56" x2="136.77" y2="23.12"/><line class="a" x1="136.77" y1="23.96" x2="136.77" y2="24.51"/><line class="a" x1="136.77" y1="25.34" x2="136.77" y2="25.89"/><line class="a" x1="136.77" y1="26.72" x2="136.77" y2="27.29"/><line class="a" x1="136.77" y1="28.12" x2="136.77" y2="28.67"/><line class="a" x1="136.77" y1="29.5" x2="136.77" y2="30.28"/><line class="a" x1="136.77" y1="11.23" x2="136.77" y2="30.39"/><line class="a" x1="121.05" y1="11" x2="121.05" y2="30.39"/><line class="a" x1="105.67" y1="10.81" x2="105.67" y2="30.39"/><line class="a" x1="89.37" y1="10.56" x2="89.37" y2="30.39"/><line class="a" x1="81.12" y1="10.5" x2="81.12" y2="30.39"/><line class="a" x1="73.64" y1="10.29" x2="73.64" y2="30.39"/><polyline class="b" points="48.22 9.81 53.52 10.01 58.72 10.14 62.02 10.16"/><polyline class="a" points="65.3 10.19 73.64 10.29 81.12 10.5 89.37 10.56 97.79 10.77 105.67 10.81 113.63 10.91 121.05 11 128.66 11.14 136.77 11.23"/><polyline class="a" points="16.74 8.54 24.59 7.11 28.71 6.41"/><line class="c" x1="28.8" y1="6.53" x2="28.82" y2="6.52"/><line class="c" x1="28.99" y1="6.75" x2="29.02" y2="6.73"/><line class="c" x1="29.17" y1="6.98" x2="29.22" y2="6.93"/><line class="c" x1="29.35" y1="7.2" x2="29.43" y2="7.14"/><line class="c" x1="29.54" y1="7.44" x2="29.62" y2="7.34"/><line class="c" x1="29.72" y1="7.66" x2="29.83" y2="7.55"/><line class="c" x1="29.91" y1="7.89" x2="30.03" y2="7.75"/><line class="c" x1="30.09" y1="8.11" x2="30.24" y2="7.96"/><line class="c" x1="30.27" y1="8.33" x2="30.43" y2="8.17"/><line class="c" x1="30.46" y1="8.56" x2="30.64" y2="8.38"/><line class="c" x1="30.64" y1="8.78" x2="30.84" y2="8.59"/><line class="c" x1="30.82" y1="9.01" x2="31.18" y2="8.66"/><line class="c" x1="31.15" y1="9.09" x2="31.55" y2="8.7"/><line class="c" x1="31.56" y1="9.09" x2="31.91" y2="8.73"/><line class="c" x1="31.96" y1="9.09" x2="32.28" y2="8.77"/><line class="c" x1="32.38" y1="9.09" x2="32.66" y2="8.82"/><line class="c" x1="32.78" y1="9.09" x2="33.03" y2="8.86"/><line class="c" x1="33.2" y1="9.09" x2="33.43" y2="8.86"/><line class="c" x1="33.6" y1="9.09" x2="33.83" y2="8.86"/><line class="c" x1="34" y1="9.09" x2="34.25" y2="8.86"/><line class="c" x1="36.5" y1="6.6" x2="37.24" y2="5.87"/><line class="c" x1="34.42" y1="9.09" x2="34.65" y2="8.86"/><line class="c" x1="35.85" y1="7.66" x2="37.57" y2="5.94"/><line class="c" x1="34.82" y1="9.09" x2="35.06" y2="8.86"/><line class="c" x1="35.2" y1="8.72" x2="37.9" y2="6.03"/><line class="c" x1="35.24" y1="9.09" x2="38.21" y2="6.11"/><line class="c" x1="35.64" y1="9.09" x2="38.54" y2="6.19"/><line class="c" x1="36.05" y1="9.09" x2="38.88" y2="6.27"/><line class="c" x1="36.46" y1="9.09" x2="39.21" y2="6.35"/><line class="c" x1="36.87" y1="9.09" x2="39.51" y2="6.45"/><line class="c" x1="37.28" y1="9.09" x2="39.81" y2="6.57"/><line class="c" x1="37.69" y1="9.09" x2="40.09" y2="6.7"/><line class="c" x1="38.58" y1="8.61" x2="40.37" y2="6.82"/><line class="c" x1="39" y1="8.61" x2="40.65" y2="6.95"/><line class="c" x1="39.4" y1="8.61" x2="40.94" y2="7.07"/><line class="c" x1="39.81" y1="8.61" x2="41.23" y2="7.19"/><line class="c" x1="40.22" y1="8.61" x2="41.51" y2="7.31"/><line class="c" x1="40.63" y1="8.61" x2="41.79" y2="7.45"/><line class="c" x1="41.04" y1="8.61" x2="42.07" y2="7.57"/><line class="c" x1="41.44" y1="8.61" x2="42.36" y2="7.69"/><line class="c" x1="41.85" y1="8.61" x2="42.64" y2="7.82"/><line class="c" x1="42.26" y1="8.61" x2="42.94" y2="7.94"/><line class="c" x1="42.67" y1="8.61" x2="43.22" y2="8.06"/><line class="c" x1="43.08" y1="8.61" x2="43.51" y2="8.17"/><line class="c" x1="43.49" y1="8.61" x2="43.81" y2="8.29"/><line class="c" x1="43.89" y1="8.61" x2="44.09" y2="8.41"/><line class="c" x1="44.31" y1="8.61" x2="44.38" y2="8.54"/><line class="c" x1="45.21" y1="8.92" x2="45.25" y2="8.89"/><line class="c" x1="45.46" y1="9.09" x2="45.54" y2="9.02"/><polyline class="c" points="28.71 6.41 30.88 8.62 33.09 8.86 35.12 8.86"/><line class="c" x1="35.25" y1="8.62" x2="36.99" y2="5.81"/><line class="a" x1="16.74" y1="30.39" x2="16.74" y2="8.54"/><line class="a" x1="30.88" y1="30.39" x2="30.88" y2="9.09"/><line class="a" x1="28.71" y1="30.39" x2="28.71" y2="6.41"/><line class="a" x1="24.59" y1="30.39" x2="24.59" y2="7.11"/><polyline class="c" points="36.99 5.81 39.41 6.41 42.61 7.8 43.43 8.13"/><polyline class="a" points="24.25 32.39 24.25 32.33 24.31 32.22 24.36 32.16 24.48 32.11 24.7 32.11 24.83 32.16 24.88 32.22 24.94 32.33 24.94 32.45 24.88 32.56 24.77 32.73 24.19 33.31 25 33.31"/><polyline class="a" points="28.42 32.11 29.05 32.11 28.7 32.56 28.88 32.56 29 32.62 29.05 32.67 29.11 32.84 29.11 32.96 29.05 33.13 28.94 33.24 28.77 33.31 28.59 33.31 28.42 33.24 28.36 33.18 28.31 33.07"/><polyline class="a" points="31.03 32.11 30.46 32.9 31.31 32.9"/><line class="a" x1="31.03" y1="32.11" x2="31.03" y2="33.31"/><line class="a" x1="24.59" y1="35.02" x2="24.59" y2="38.72"/><line class="a" x1="28.71" y1="35.02" x2="28.71" y2="38.72"/><line class="a" x1="30.88" y1="35.02" x2="30.88" y2="38.72"/><line class="a" x1="73.64" y1="35.02" x2="73.64" y2="38.72"/><line class="a" x1="81.12" y1="35.02" x2="81.12" y2="38.72"/><line class="a" x1="89.37" y1="35.02" x2="89.37" y2="38.72"/><line class="a" x1="105.67" y1="35.02" x2="105.67" y2="38.72"/><line class="a" x1="121.05" y1="35.02" x2="121.05" y2="38.72"/><line class="a" x1="136.77" y1="35.02" x2="136.77" y2="38.72"/><polyline class="a" points="19.75 36.29 20.23 36.29 19.97 36.65 20.1 36.65 20.19 36.7 20.23 36.73 20.27 36.87 20.27 36.95 20.23 37.09 20.14 37.17 20 37.22 19.88 37.22 19.75 37.17 19.7 37.14 19.66 37.05"/><polygon class="a" points="20.63 37.14 20.58 37.17 20.63 37.22 20.67 37.17 20.63 37.14"/><polyline class="a" points="21.43 36.29 20.98 36.92 21.64 36.92"/><line class="a" x1="21.42" y1="36.29" x2="21.42" y2="37.22"/><polyline class="a" points="25.63 36.48 25.72 36.43 25.85 36.29 25.85 37.22"/><polygon class="a" points="26.48 37.14 26.43 37.17 26.48 37.22 26.52 37.17 26.48 37.14"/><polygon class="a" points="27.04 36.29 26.92 36.34 26.87 36.43 26.87 36.51 26.92 36.61 27 36.65 27.18 36.7 27.31 36.73 27.4 36.83 27.45 36.92 27.45 37.05 27.4 37.14 27.36 37.17 27.23 37.22 27.04 37.22 26.92 37.17 26.87 37.14 26.82 37.05 26.82 36.92 26.87 36.83 26.95 36.73 27.09 36.7 27.26 36.65 27.36 36.61 27.4 36.51 27.4 36.43 27.36 36.34 27.23 36.29 27.04 36.29"/><polygon class="a" points="29.3 37.63 29.35 37.76 29.48 37.85 29.7 37.9 29.83 37.9 30.05 37.85 30.19 37.76 30.23 37.63 30.23 37.54 30.19 37.41 30.05 37.32 29.83 37.27 29.7 37.27 29.48 37.32 29.35 37.41 29.3 37.54 29.3 37.63"/><polygon class="a" points="30.14 36.93 30.19 36.97 30.24 36.93 30.19 36.88 30.14 36.93"/><polyline class="a" points="29.61 36 29.75 36.05 29.83 36.13 29.88 36.27 29.88 36.3 29.83 36.44 29.75 36.52 29.61 36.57 29.57 36.57 29.44 36.52 29.35 36.44 29.3 36.3 29.3 36.27 29.35 36.13 29.44 36.05 29.61 36 29.83 36 30.05 36.05 30.19 36.13 30.23 36.27 30.23 36.35 30.19 36.49 30.1 36.52"/><polyline class="a" points="76.42 36.29 76.9 36.29 76.64 36.65 76.77 36.65 76.86 36.7 76.9 36.73 76.94 36.87 76.94 36.95 76.9 37.09 76.81 37.17 76.68 37.22 76.55 37.22 76.42 37.17 76.37 37.14 76.33 37.05"/><polygon class="a" points="77.3 37.14 77.25 37.17 77.3 37.22 77.34 37.17 77.3 37.14"/><polyline class="a" points="77.69 36.51 77.69 36.48 77.74 36.39 77.78 36.34 77.88 36.29 78.05 36.29 78.13 36.34 78.18 36.39 78.22 36.48 78.22 36.56 78.18 36.65 78.1 36.78 77.66 37.22 78.27 37.22"/><polyline class="a" points="84.03 36.29 84.52 36.29 84.25 36.65 84.39 36.65 84.47 36.7 84.52 36.73 84.56 36.87 84.56 36.95 84.52 37.09 84.44 37.17 84.3 37.22 84.17 37.22 84.03 37.17 83.99 37.14 83.94 37.05"/><polygon class="a" points="84.91 37.14 84.88 37.17 84.91 37.22 84.96 37.17 84.91 37.14"/><polyline class="a" points="85.84 36.43 85.79 36.34 85.66 36.29 85.57 36.29 85.44 36.34 85.35 36.48 85.32 36.7 85.32 36.92 85.35 37.09 85.44 37.17 85.57 37.22 85.62 37.22 85.76 37.17 85.84 37.09 85.88 36.95 85.88 36.92 85.84 36.78 85.76 36.7 85.62 36.65 85.57 36.65 85.44 36.7 85.35 36.78 85.32 36.92"/><polyline class="a" points="96.75 37.22 97.19 36.29 96.57 36.29"/><polygon class="a" points="97.54 37.14 97.49 37.17 97.54 37.22 97.59 37.17 97.54 37.14"/><polyline class="a" points="98.03 36.48 98.12 36.43 98.25 36.29 98.25 37.22"/><polyline class="a" points="113.33 36.43 113.29 36.34 113.16 36.29 113.07 36.29 112.94 36.34 112.85 36.48 112.8 36.7 112.8 36.92 112.85 37.09 112.94 37.17 113.07 37.22 113.11 37.22 113.24 37.17 113.33 37.09 113.38 36.95 113.38 36.92 113.33 36.78 113.24 36.7 113.11 36.65 113.07 36.65 112.94 36.7 112.85 36.78 112.8 36.92"/><polygon class="a" points="113.73 37.14 113.68 37.17 113.73 37.22 113.77 37.17 113.73 37.14"/><polyline class="a" points="114.26 37.22 114.7 36.29 114.07 36.29"/><polyline class="a" points="129.06 36.43 129.01 36.34 128.88 36.29 128.79 36.29 128.66 36.34 128.57 36.48 128.54 36.7 128.54 36.92 128.57 37.09 128.66 37.17 128.79 37.22 128.84 37.22 128.98 37.17 129.06 37.09 129.1 36.95 129.1 36.92 129.06 36.78 128.98 36.7 128.84 36.65 128.79 36.65 128.66 36.7 128.57 36.78 128.54 36.92"/><polygon class="a" points="129.46 37.14 129.42 37.17 129.46 37.22 129.5 37.17 129.46 37.14"/><polygon class="a" points="130.03 36.29 129.9 36.34 129.86 36.43 129.86 36.51 129.9 36.61 129.98 36.65 130.17 36.7 130.3 36.73 130.39 36.83 130.42 36.92 130.42 37.05 130.39 37.14 130.34 37.17 130.2 37.22 130.03 37.22 129.9 37.17 129.86 37.14 129.81 37.05 129.81 36.92 129.86 36.83 129.94 36.73 130.08 36.7 130.25 36.65 130.34 36.61 130.39 36.51 130.39 36.43 130.34 36.34 130.2 36.29 130.03 36.29"/><polyline class="a" points="28.12 41.96 28.12 42.39 28.66 42.42 28.59 42.39 28.53 42.25 28.53 42.13 28.59 42.01 28.72 41.92 28.9 41.87 29.02 41.87 29.21 41.92 29.33 42.01 29.39 42.13 29.39 42.25 29.33 42.39 29.27 42.42 29.15 42.47"/><polygon class="a" points="29.27 41.53 29.33 41.58 29.39 41.53 29.33 41.49 29.27 41.53"/><polyline class="a" points="28.41 41.15 28.35 41.15 28.24 41.11 28.18 41.06 28.12 40.98 28.12 40.82 28.18 40.73 28.24 40.69 28.35 40.65 28.47 40.65 28.6 40.69 28.78 40.77 29.39 41.2 29.39 40.6"/><polyline class="a" points="30.49 42.39 30.37 42.42 30.31 42.56 30.31 42.63 30.37 42.77 30.55 42.85 30.86 42.89 31.17 42.89 31.41 42.85 31.52 42.77 31.58 42.63 31.58 42.59 31.52 42.47 31.41 42.39 31.23 42.34 31.17 42.34 30.98 42.39 30.86 42.47 30.8 42.59 30.8 42.63 30.86 42.77 30.98 42.85 31.17 42.89"/><polygon class="a" points="31.46 42.01 31.52 42.04 31.58 42.01 31.52 41.96 31.46 42.01"/><polyline class="a" points="30.55 41.53 30.49 41.44 30.31 41.32 31.58 41.32"/><polyline class="a" points="30.31 40.39 31.17 40.82 31.17 40.18"/><line class="a" x1="30.31" y1="40.39" x2="31.58" y2="40.39"/><polyline class="a" points="73.32 43.27 73.26 43.27 73.14 43.23 73.09 43.19 73.03 43.11 73.03 42.94 73.09 42.85 73.14 42.8 73.26 42.77 73.38 42.77 73.51 42.8 73.69 42.89 74.3 43.32 74.3 42.72"/><polyline class="a" points="73.03 42.04 73.87 42.47 73.87 41.84"/><line class="a" x1="73.03" y1="42.04" x2="74.3" y2="42.04"/><polygon class="a" points="74.18 41.53 74.24 41.58 74.3 41.53 74.24 41.49 74.18 41.53"/><polyline class="a" points="73.2 40.65 73.09 40.69 73.03 40.82 73.03 40.89 73.09 41.03 73.26 41.11 73.57 41.15 73.87 41.15 74.12 41.11 74.24 41.03 74.3 40.89 74.3 40.86 74.24 40.73 74.12 40.65 73.94 40.6 73.87 40.6 73.69 40.65 73.57 40.73 73.51 40.86 73.51 40.89 73.57 41.03 73.69 41.11 73.87 41.15"/><path class="a" d="M73,40.26v-.46l.48.26v-.12c.21-.4,1.16-.07.67.38l-.12,0"/><polyline class="a" points="80.95 43.27 80.89 43.27 80.76 43.23 80.7 43.19 80.64 43.11 80.64 42.94 80.7 42.85 80.76 42.8 80.89 42.77 81.01 42.77 81.13 42.8 81.31 42.89 81.91 43.32 81.91 42.72"/><polyline class="a" points="81.91 42.3 80.64 41.87 80.64 42.47"/><polygon class="a" points="81.79 41.53 81.85 41.58 81.91 41.53 81.85 41.49 81.79 41.53"/><path class="a" d="M80.64,41l.06.14.12,0h.12l.12,0,.06-.09.06-.17.06-.12.11-.08.12,0h.18l.12,0,.06,0,.06.13V41l-.06.14c-.89.42-.44-.72-1.15-.43l-.06.13Z"/><polyline class="a" points="80.83 39.79 80.7 39.84 80.64 39.96 80.64 40.05 80.7 40.18 80.89 40.26 81.19 40.31 81.49 40.31 81.73 40.26 81.85 40.18 81.91 40.05 81.91 40.01 81.85 39.88 81.73 39.79 81.55 39.76 81.49 39.76 81.31 39.79 81.19 39.88 81.13 40.01 81.13 40.05 81.19 40.18 81.31 40.26 81.49 40.31"/><polyline class="a" points="88.86 43.23 88.86 42.77 89.36 43.02 89.36 42.89 89.42 42.8 89.48 42.77 89.66 42.72 89.78 42.72 89.95 42.77 90.08 42.85 90.14 42.97 90.14 43.11 90.08 43.23 90.02 43.27 89.91 43.32"/><polyline class="a" points="89.11 42.34 89.05 42.25 88.86 42.13 90.14 42.13"/><polygon class="a" points="90.02 41.53 90.08 41.58 90.14 41.53 90.08 41.49 90.02 41.53"/><polyline class="a" points="88.86 40.77 89.72 41.2 89.72 40.56"/><line class="a" x1="88.86" y1="40.77" x2="90.14" y2="40.77"/><polyline class="a" points="88.86 40.26 88.86 39.79 89.36 40.05 89.36 39.93 89.42 39.84 89.48 39.79 89.66 39.76 89.78 39.76 89.95 39.79 90.08 39.88 90.14 40.01 90.14 40.13 90.08 40.26 90.02 40.31 89.91 40.34"/><path class="a" d="M105.09,43.23v-.46l.49.26v-.14c.22-.42,1.15,0,.66.38l-.12,0"/><path class="a" d="M105.09,42.25l.06.14.12,0h.12l.12,0,.06-.09.06-.17.06-.12.11-.08.12,0h.18l.12,0,.06,0,.06.12v.17l-.06.14c-.89.42-.44-.72-1.15-.43l-.06.12Z"/><polygon class="a" points="106.24 41.53 106.3 41.58 106.36 41.53 106.3 41.49 106.24 41.53"/><polyline class="a" points="105.09 40.77 105.94 41.2 105.94 40.56"/><line class="a" x1="105.09" y1="40.77" x2="106.36" y2="40.77"/><polygon class="a" points="105.09 40.13 105.15 40.26 105.28 40.3 105.4 40.3 105.52 40.26 105.58 40.18 105.64 40.01 105.7 39.88 105.81 39.79 105.94 39.76 106.12 39.76 106.24 39.79 106.3 39.84 106.36 39.96 106.36 40.13 106.3 40.26 106.24 40.3 106.12 40.34 105.94 40.34 105.81 40.3 105.7 40.22 105.64 40.1 105.58 39.93 105.52 39.84 105.4 39.79 105.28 39.79 105.15 39.84 105.09 39.96 105.09 40.13"/><polyline class="a" points="120.28 42.89 121.12 43.32 121.12 42.68"/><line class="a" x1="120.28" y1="42.89" x2="121.55" y2="42.89"/><polyline class="a" points="120.28 41.96 120.28 42.39 120.83 42.42 120.77 42.39 120.71 42.25 120.71 42.13 120.77 42.01 120.89 41.92 121.07 41.87 121.18 41.87 121.37 41.92 121.49 42.01 121.55 42.13 121.55 42.25 121.49 42.39 121.43 42.42 121.31 42.47"/><polygon class="a" points="121.43 41.53 121.49 41.58 121.55 41.53 121.49 41.49 121.43 41.53"/><polyline class="a" points="120.52 41.06 120.46 40.98 120.28 40.86 121.55 40.86"/><polyline class="a" points="120.28 40.26 120.28 39.79 120.77 40.05 120.77 39.93 120.83 39.84 120.89 39.79 121.07 39.76 121.18 39.76 121.37 39.79 121.49 39.88 121.55 40.01 121.55 40.13 121.49 40.26 121.43 40.31 121.31 40.34"/><polyline class="a" points="135.99 42.8 135.99 43.23 136.54 43.27 136.48 43.23 136.42 43.11 136.42 42.97 136.48 42.85 136.6 42.77 136.77 42.72 136.9 42.72 137.08 42.77 137.2 42.85 137.26 42.97 137.26 43.11 137.2 43.23 137.14 43.27 137.02 43.32"/><polyline class="a" points="136.24 42.34 136.17 42.25 135.99 42.13 137.26 42.13"/><polygon class="a" points="137.14 41.53 137.2 41.58 137.26 41.53 137.2 41.49 137.14 41.53"/><polyline class="a" points="136.42 40.65 136.6 40.69 136.71 40.77 136.77 40.89 136.77 40.94 136.71 41.06 136.6 41.15 136.42 41.2 136.36 41.2 136.17 41.15 136.05 41.06 135.99 40.94 135.99 40.89 136.05 40.77 136.17 40.69 136.42 40.65 136.71 40.65 137.02 40.69 137.2 40.77 137.26 40.89 137.26 40.98 137.2 41.11 137.08 41.15"/><path class="a" d="M136,40.26v-.46l.49.26v-.12c.21-.41,1.14-.06.66.38l-.12,0"/><polygon class="a" points="16 41.58 16.07 41.7 16.25 41.79 16.55 41.84 16.73 41.84 17.03 41.79 17.22 41.7 17.28 41.58 17.28 41.49 17.22 41.37 17.03 41.28 16.73 41.23 16.55 41.23 16.25 41.28 16.07 41.37 16 41.49 16 41.58"/><polyline class="a" points="16.33 49.21 16.27 49.13 16.1 48.99 17.36 48.99"/><polygon class="a" points="16.1 48.27 16.15 48.41 16.27 48.44 16.39 48.44 16.52 48.41 16.58 48.32 16.64 48.15 16.7 48.03 16.82 47.94 16.95 47.89 17.13 47.89 17.25 47.94 17.31 47.98 17.36 48.11 17.36 48.27 17.31 48.41 17.25 48.44 17.13 48.49 16.95 48.49 16.82 48.44 16.7 48.36 16.64 48.23 16.58 48.06 16.52 47.98 16.39 47.94 16.27 47.94 16.15 47.98 16.1 48.11 16.1 48.27"/><polyline class="a" points="16.52 47.09 16.7 47.13 16.82 47.22 16.88 47.34 16.88 47.39 16.82 47.51 16.7 47.6 16.52 47.64 16.46 47.64 16.27 47.6 16.15 47.51 16.1 47.39 16.1 47.34 16.15 47.22 16.27 47.13 16.52 47.09 16.82 47.09 17.13 47.13 17.31 47.22 17.36 47.34 17.36 47.43 17.31 47.55 17.19 47.6"/><polygon class="a" points="17.25 46.71 17.31 46.76 17.36 46.71 17.31 46.67 17.25 46.71"/><polyline class="a" points="16.1 45.95 16.95 46.36 16.95 45.74"/><line class="a" x1="16.1" y1="45.95" x2="17.36" y2="45.95"/><path class="a" d="M16.1,45v.42l.54,0-.06,0c-.41-.74,1.27-.62.67,0l-.12,0"/><polyline class="a" points="28.2 49.08 28.14 48.99 27.96 48.87 29.23 48.87"/><polyline class="a" points="28.39 47.81 28.57 47.86 28.69 47.94 28.75 48.06 28.75 48.11 28.69 48.23 28.57 48.32 28.39 48.36 28.33 48.36 28.14 48.32 28.02 48.23 27.96 48.11 27.96 48.06 28.02 47.94 28.14 47.86 28.39 47.81 28.69 47.81 29 47.86 29.17 47.94 29.23 48.06 29.23 48.15 29.17 48.27 29.05 48.32"/><polygon class="a" points="27.96 47.26 28.02 47.39 28.2 47.48 28.51 47.51 28.69 47.51 29 47.48 29.17 47.39 29.23 47.26 29.23 47.17 29.17 47.05 29 46.96 28.69 46.93 28.51 46.93 28.2 46.96 28.02 47.05 27.96 47.17 27.96 47.26"/><polygon class="a" points="29.11 46.58 29.17 46.62 29.23 46.58 29.17 46.53 29.11 46.58"/><polyline class="a" points="27.96 46.16 27.96 45.69 28.45 45.95 28.45 45.83 28.51 45.74 28.57 45.69 28.75 45.65 28.88 45.65 29.05 45.69 29.17 45.78 29.23 45.9 29.23 46.03 29.17 46.16 29.11 46.2 29 46.24"/><polyline class="a" points="29.23 45.23 27.96 44.8 27.96 45.4"/><polyline class="a" points="30.49 49.12 30.43 49.03 30.25 48.9 31.52 48.9"/><path class="a" d="M30.25,48.17l.06.14.12,0h.12l.12,0,.06-.09.06-.17.06-.12.11-.08.12,0h.18l.12,0,.06,0,.06.12v.17l-.06.14c-.89.42-.44-.72-1.15-.43l-.06.12Z"/><polyline class="a" points="30.68 46.99 30.86 47.04 30.97 47.12 31.03 47.24 31.03 47.29 30.97 47.41 30.86 47.5 30.68 47.54 30.61 47.54 30.43 47.5 30.31 47.41 30.25 47.29 30.25 47.24 30.31 47.12 30.43 47.04 30.68 46.99 30.97 46.99 31.28 47.04 31.46 47.12 31.52 47.24 31.52 47.33 31.46 47.45 31.34 47.5"/><polygon class="a" points="31.4 46.61 31.46 46.66 31.52 46.61 31.46 46.57 31.4 46.61"/><polyline class="a" points="30.55 46.23 30.49 46.23 30.37 46.19 30.31 46.14 30.25 46.06 30.25 45.89 30.31 45.8 30.37 45.76 30.49 45.72 30.61 45.72 30.74 45.76 30.92 45.85 31.52 46.27 31.52 45.68"/><polyline class="a" points="30.49 45.3 30.43 45.21 30.25 45.08 31.52 45.08"/><polyline class="a" points="80.72 48.97 80.65 48.88 80.48 48.76 81.75 48.76"/><polygon class="a" points="80.48 48.04 80.54 48.16 80.65 48.21 80.78 48.21 80.9 48.16 80.96 48.09 81.02 47.92 81.08 47.78 81.2 47.7 81.33 47.66 81.51 47.66 81.63 47.7 81.69 47.75 81.75 47.87 81.75 48.04 81.69 48.16 81.63 48.21 81.51 48.25 81.33 48.25 81.2 48.21 81.08 48.13 81.02 48 80.96 47.83 80.9 47.75 80.78 47.7 80.65 47.7 80.54 47.75 80.48 47.87 80.48 48.04"/><polygon class="a" points="80.48 47.2 80.54 47.32 80.65 47.37 80.78 47.37 80.9 47.32 80.96 47.23 81.02 47.06 81.08 46.94 81.2 46.85 81.33 46.82 81.51 46.82 81.63 46.85 81.69 46.9 81.75 47.02 81.75 47.2 81.69 47.32 81.63 47.37 81.51 47.4 81.33 47.4 81.2 47.37 81.08 47.28 81.02 47.15 80.96 46.98 80.9 46.9 80.78 46.85 80.65 46.85 80.54 46.9 80.48 47.02 80.48 47.2"/><polygon class="a" points="81.63 46.47 81.69 46.51 81.75 46.47 81.69 46.42 81.63 46.47"/><path class="a" d="M80.48,45.63V46l.54,0L81,46c-.42-.75,1.29-.61.67,0l-.12,0"/><polyline class="a" points="80.65 44.74 80.54 44.77 80.48 44.91 80.48 44.99 80.54 45.12 80.71 45.2 81.02 45.24 81.33 45.24 81.57 45.2 81.69 45.12 81.75 44.99 81.75 44.94 81.69 44.82 81.57 44.74 81.39 44.69 81.33 44.69 81.14 44.74 81.02 44.82 80.96 44.94 80.96 44.99 81.02 45.12 81.14 45.2 81.33 45.24"/><polyline class="a" points="120.66 48.99 120.6 48.91 120.41 48.79 121.69 48.79"/><polygon class="a" points="120.41 48.06 120.47 48.19 120.6 48.23 120.72 48.23 120.84 48.19 120.9 48.1 120.96 47.93 121.03 47.81 121.15 47.72 121.26 47.69 121.44 47.69 121.56 47.72 121.63 47.77 121.69 47.89 121.69 48.06 121.63 48.19 121.56 48.23 121.44 48.27 121.26 48.27 121.15 48.23 121.03 48.15 120.96 48.02 120.9 47.84 120.84 47.77 120.72 47.72 120.6 47.72 120.47 47.77 120.41 47.89 120.41 48.06"/><path class="a" d="M120.41,47.21l.06.14.12,0h.12l.12,0,.06-.09.06-.17L121,47l.12-.08.11,0h.18l.12,0,.06,0,.06.13v.16l-.06.14c-.88.42-.45-.72-1.15-.43l-.06.13Z"/><polygon class="a" points="121.56 46.5 121.62 46.53 121.69 46.5 121.62 46.45 121.56 46.5"/><polyline class="a" points="120.41 46.07 120.41 45.6 120.9 45.86 120.9 45.73 120.96 45.64 121.03 45.6 121.21 45.56 121.32 45.56 121.5 45.6 121.63 45.69 121.69 45.81 121.69 45.95 121.63 46.07 121.56 46.11 121.44 46.16"/><polyline class="a" points="120.41 44.88 121.26 45.31 121.26 44.67"/><line class="a" x1="120.41" y1="44.88" x2="121.69" y2="44.88"/><polyline class="a" points="24.43 49.22 24.37 49.13 24.19 48.99 25.46 48.99"/><polyline class="a" points="24.62 47.94 24.8 47.98 24.91 48.06 24.97 48.19 24.97 48.24 24.91 48.36 24.8 48.44 24.62 48.49 24.56 48.49 24.37 48.44 24.25 48.36 24.19 48.24 24.19 48.19 24.25 48.06 24.37 47.98 24.62 47.94 24.91 47.94 25.22 47.98 25.4 48.06 25.46 48.19 25.46 48.27 25.4 48.41 25.28 48.44"/><polygon class="a" points="24.19 47.39 24.25 47.51 24.43 47.6 24.74 47.64 24.91 47.64 25.22 47.6 25.4 47.51 25.46 47.39 25.46 47.3 25.4 47.17 25.22 47.09 24.91 47.05 24.74 47.05 24.43 47.09 24.25 47.17 24.19 47.3 24.19 47.39"/><polygon class="a" points="25.34 46.71 25.4 46.76 25.46 46.71 25.4 46.67 25.34 46.71"/><polygon class="a" points="24.19 46.12 24.25 46.24 24.43 46.33 24.74 46.36 24.91 46.36 25.22 46.33 25.4 46.24 25.46 46.12 25.46 46.03 25.4 45.9 25.22 45.81 24.91 45.77 24.74 45.77 24.43 45.81 24.25 45.9 24.19 46.03 24.19 46.12"/><polyline class="a" points="25.46 45.35 24.19 44.93 24.19 45.52"/><polyline class="a" points="73.25 49.19 73.19 49.1 73 48.98 74.28 48.98"/><polygon class="a" points="73 48.26 73.07 48.38 73.19 48.43 73.31 48.43 73.43 48.38 73.5 48.3 73.54 48.13 73.61 48 73.73 47.92 73.85 47.87 74.03 47.87 74.16 47.92 74.22 47.95 74.28 48.09 74.28 48.26 74.22 48.38 74.16 48.43 74.03 48.47 73.85 48.47 73.73 48.43 73.61 48.35 73.54 48.21 73.5 48.04 73.43 47.95 73.31 47.92 73.19 47.92 73.07 47.95 73 48.09 73 48.26"/><polygon class="a" points="73 47.4 73.07 47.54 73.19 47.57 73.31 47.57 73.43 47.54 73.5 47.45 73.54 47.28 73.61 47.16 73.73 47.07 73.85 47.02 74.03 47.02 74.16 47.07 74.22 47.11 74.28 47.24 74.28 47.4 74.22 47.54 74.16 47.57 74.03 47.62 73.85 47.62 73.73 47.57 73.61 47.49 73.54 47.37 73.5 47.2 73.43 47.11 73.31 47.07 73.19 47.07 73.07 47.11 73 47.24 73 47.4"/><polygon class="a" points="74.16 46.68 74.22 46.73 74.28 46.68 74.22 46.64 74.16 46.68"/><polyline class="a" points="73.19 45.8 73.07 45.84 73 45.97 73 46.06 73.07 46.18 73.25 46.27 73.54 46.3 73.85 46.3 74.09 46.27 74.22 46.18 74.28 46.06 74.28 46.01 74.22 45.89 74.09 45.8 73.91 45.75 73.85 45.75 73.67 45.8 73.54 45.89 73.5 46.01 73.5 46.06 73.54 46.18 73.67 46.27 73.85 46.3"/><polyline class="a" points="73.43 44.94 73.6 44.99 73.73 45.08 73.79 45.2 73.79 45.25 73.73 45.37 73.6 45.46 73.43 45.49 73.37 45.49 73.19 45.46 73.07 45.37 73 45.25 73 45.2 73.07 45.08 73.19 44.99 73.43 44.94 73.73 44.94 74.03 44.99 74.22 45.08 74.28 45.2 74.28 45.29 74.22 45.42 74.09 45.46"/><polyline class="a" points="88.97 49.22 88.91 49.13 88.73 48.99 90 48.99"/><polygon class="a" points="88.73 48.27 88.79 48.41 88.91 48.44 89.04 48.44 89.16 48.41 89.22 48.32 89.27 48.15 89.33 48.03 89.45 47.94 89.57 47.89 89.76 47.89 89.88 47.94 89.94 47.98 90 48.11 90 48.27 89.94 48.41 89.88 48.44 89.76 48.49 89.57 48.49 89.45 48.44 89.33 48.36 89.27 48.23 89.22 48.06 89.16 47.98 89.04 47.94 88.91 47.94 88.79 47.98 88.73 48.11 88.73 48.27"/><polygon class="a" points="88.73 47.43 88.79 47.55 88.91 47.6 89.04 47.6 89.16 47.55 89.22 47.48 89.27 47.31 89.33 47.17 89.45 47.09 89.57 47.05 89.76 47.05 89.88 47.09 89.94 47.13 90 47.26 90 47.43 89.94 47.55 89.88 47.6 89.76 47.64 89.57 47.64 89.45 47.6 89.33 47.51 89.27 47.39 89.22 47.22 89.16 47.13 89.04 47.09 88.91 47.09 88.79 47.13 88.73 47.26 88.73 47.43"/><polygon class="a" points="89.88 46.71 89.94 46.76 90 46.71 89.94 46.67 89.88 46.71"/><polyline class="a" points="88.73 45.86 88.73 46.29 89.27 46.33 89.22 46.29 89.16 46.16 89.16 46.03 89.22 45.9 89.33 45.81 89.51 45.78 89.64 45.78 89.82 45.81 89.94 45.9 90 46.03 90 46.16 89.94 46.29 89.88 46.33 89.76 46.36"/><polyline class="a" points="90 45.35 88.73 44.93 88.73 45.52"/><polyline class="a" points="105.28 49.22 105.21 49.13 105.03 48.99 106.3 48.99"/><path class="a" d="M105,48.27l.06.14.12,0h.12l.12,0,.06-.09.06-.17.06-.12.12-.08.11,0h.18l.12,0,.06,0,.06.13v.16l-.06.14c-.88.42-.45-.72-1.15-.43l-.06.13Z"/><polygon class="a" points="105.03 47.43 105.09 47.55 105.21 47.6 105.34 47.6 105.46 47.55 105.52 47.48 105.58 47.31 105.64 47.17 105.76 47.09 105.87 47.05 106.06 47.05 106.18 47.09 106.24 47.13 106.3 47.26 106.3 47.43 106.24 47.55 106.18 47.6 106.06 47.64 105.87 47.64 105.76 47.6 105.64 47.51 105.58 47.39 105.52 47.22 105.46 47.13 105.34 47.09 105.21 47.09 105.09 47.13 105.03 47.26 105.03 47.43"/><polygon class="a" points="106.18 46.71 106.24 46.76 106.3 46.71 106.24 46.67 106.18 46.71"/><polyline class="a" points="105.03 45.95 105.87 46.36 105.87 45.74"/><line class="a" x1="105.03" y1="45.95" x2="106.3" y2="45.95"/><polyline class="a" points="105.21 44.97 105.09 45.02 105.03 45.14 105.03 45.23 105.09 45.35 105.28 45.43 105.58 45.48 105.88 45.48 106.12 45.43 106.24 45.35 106.3 45.23 106.3 45.18 106.24 45.05 106.12 44.97 105.94 44.93 105.88 44.93 105.7 44.97 105.58 45.05 105.52 45.18 105.52 45.23 105.58 45.35 105.7 45.43 105.88 45.48"/><polyline class="a" points="136.38 49.23 136.32 49.14 136.14 49.02 137.41 49.02"/><path class="a" d="M136.14,48.3l.06.14.12,0h.12l.12,0,0-.09.06-.17.06-.14.12-.09.12,0h.18l.12,0,.06,0,.06.12v.17l-.06.14c-1,.39-.45-.75-1.15-.43l-.06.12Z"/><polygon class="a" points="136.14 47.45 136.2 47.57 136.32 47.62 136.44 47.62 136.57 47.57 136.62 47.49 136.68 47.32 136.74 47.2 136.86 47.11 136.98 47.07 137.17 47.07 137.29 47.11 137.35 47.16 137.41 47.28 137.41 47.45 137.35 47.57 137.29 47.62 137.17 47.66 136.98 47.66 136.86 47.62 136.74 47.54 136.68 47.4 136.62 47.24 136.57 47.16 136.44 47.11 136.32 47.11 136.2 47.16 136.14 47.28 136.14 47.45"/><polygon class="a" points="137.29 46.73 137.35 46.77 137.41 46.73 137.35 46.68 137.29 46.73"/><polyline class="a" points="136.44 46.35 136.38 46.35 136.26 46.3 136.2 46.27 136.14 46.18 136.14 46.01 136.2 45.92 136.26 45.89 136.38 45.84 136.5 45.84 136.61 45.89 136.8 45.97 137.41 46.39 137.41 45.8"/><polyline class="a" points="136.14 45.12 136.98 45.54 136.98 44.91"/><line class="a" x1="136.14" y1="45.12" x2="137.41" y2="45.12"/><polyline class="a" points="30.89 9.09 37.82 9.09 38.31 8.61 44.91 8.61 45.4 9.09 52.34 9.09"/><polyline class="a" points="58 6.31 55.78 6.31 52.34 9.09"/><line class="a" x1="58" y1="6.31" x2="62.02" y2="10.17"/><line class="a" x1="37.82" y1="9.09" x2="37.82" y2="30.39"/><line class="a" x1="38.31" y1="8.61" x2="38.31" y2="30.39"/><line class="a" x1="44.91" y1="8.61" x2="44.91" y2="30.39"/><line class="a" x1="45.4" y1="9.09" x2="45.4" y2="30.39"/><line class="a" x1="52.34" y1="9.09" x2="52.34" y2="30.39"/><line class="a" x1="55.78" y1="6.31" x2="55.78" y2="30.39"/><line class="a" x1="58" y1="6.31" x2="58" y2="30.39"/><line class="a" x1="62.02" y1="10.17" x2="62.02" y2="30.39"/><polyline class="a" points="37.64 32.11 37.06 32.11 37.02 32.62 37.06 32.56 37.23 32.5 37.41 32.5 37.58 32.56 37.7 32.67 37.75 32.84 37.75 32.96 37.7 33.13 37.58 33.24 37.41 33.31 37.23 33.31 37.06 33.24 37.02 33.18 36.95 33.07"/><polyline class="a" points="39.17 32.28 39.11 32.16 38.94 32.11 38.83 32.11 38.66 32.16 38.53 32.33 38.48 32.62 38.48 32.9 38.53 33.13 38.66 33.24 38.83 33.31 38.88 33.31 39.05 33.24 39.17 33.13 39.22 32.96 39.22 32.9 39.17 32.73 39.05 32.62 38.88 32.56 38.83 32.56 38.66 32.62 38.53 32.73 38.48 32.9"/><polyline class="a" points="44.27 33.31 44.84 32.11 44.04 32.11"/><path class="a" d="M45.7,32.11l-.17,0,0,.12v.11l0,.11.12.06.22.06.17,0,.12.12,0,.11v.17l0,.11-.06.06-.17.06H45.7l-.17-.06c-.54-.86,1-.43.58-1.09l-.17,0Z"/><polyline class="a" points="52.7 32.5 52.64 32.67 52.53 32.79 52.36 32.84 52.3 32.84 52.13 32.79 52.02 32.67 51.96 32.5 51.96 32.45 52.02 32.28 52.13 32.16 52.3 32.11 52.36 32.11 52.53 32.16 52.64 32.28 52.7 32.5 52.7 32.79 52.64 33.07 52.53 33.24 52.36 33.31 52.25 33.31 52.08 33.24 52.02 33.13"/><polyline class="a" points="54.64 32.33 54.75 32.28 54.92 32.11 54.92 33.31"/><polygon class="a" points="55.95 32.11 55.78 32.16 55.67 32.33 55.6 32.62 55.6 32.79 55.67 33.07 55.78 33.24 55.95 33.31 56.06 33.31 56.23 33.24 56.35 33.07 56.4 32.79 56.4 32.62 56.35 32.33 56.23 32.16 56.06 32.11 55.95 32.11"/><polyline class="a" points="57.51 32.33 57.62 32.28 57.79 32.11 57.79 33.31"/><polyline class="a" points="58.65 32.33 58.76 32.28 58.93 32.11 58.93 33.31"/><polyline class="a" points="61.12 32.33 61.24 32.28 61.42 32.11 61.42 33.31"/><polyline class="a" points="62.15 32.39 62.15 32.33 62.21 32.22 62.27 32.16 62.38 32.11 62.62 32.11 62.73 32.16 62.79 32.22 62.84 32.33 62.84 32.45 62.79 32.56 62.66 32.73 62.1 33.31 62.9 33.31"/><polyline class="a" points="72.76 32.33 72.87 32.28 73.04 32.11 73.04 33.31"/><polyline class="a" points="73.84 32.11 74.47 32.11 74.13 32.56 74.3 32.56 74.41 32.62 74.47 32.67 74.52 32.84 74.52 32.96 74.47 33.13 74.35 33.24 74.18 33.31 74.01 33.31 73.84 33.24 73.79 33.18 73.73 33.07"/><polyline class="a" points="80.2 32.33 80.31 32.28 80.48 32.11 80.48 33.31"/><polyline class="a" points="81.74 32.11 81.17 32.9 82.02 32.9"/><line class="a" x1="81.74" y1="32.11" x2="81.74" y2="33.31"/><polyline class="a" points="88.49 32.33 88.6 32.28 88.77 32.11 88.77 33.31"/><polyline class="a" points="90.14 32.11 89.58 32.11 89.51 32.62 89.58 32.56 89.75 32.5 89.92 32.5 90.09 32.56 90.2 32.67 90.25 32.84 90.25 32.96 90.2 33.13 90.09 33.24 89.92 33.31 89.75 33.31 89.58 33.24 89.51 33.18 89.45 33.07"/><polyline class="a" points="104.79 32.33 104.9 32.28 105.07 32.11 105.07 33.31"/><polyline class="a" points="106.5 32.28 106.44 32.16 106.27 32.11 106.16 32.11 105.98 32.16 105.88 32.33 105.81 32.62 105.81 32.9 105.88 33.13 105.98 33.24 106.16 33.31 106.22 33.31 106.39 33.24 106.5 33.13 106.56 32.96 106.56 32.9 106.5 32.73 106.39 32.62 106.22 32.56 106.16 32.56 105.98 32.62 105.88 32.73 105.81 32.9"/><polyline class="a" points="120.17 32.33 120.28 32.28 120.45 32.11 120.45 33.31"/><polyline class="a" points="121.37 33.31 121.93 32.11 121.14 32.11"/><line class="a" x1="37.82" y1="35.02" x2="37.82" y2="38.72"/><line class="a" x1="38.31" y1="35.02" x2="38.31" y2="38.72"/><line class="a" x1="44.91" y1="35.02" x2="44.91" y2="38.72"/><line class="a" x1="45.36" y1="35.04" x2="45.36" y2="38.74"/><line class="a" x1="52.34" y1="35.02" x2="52.34" y2="38.72"/><line class="a" x1="55.78" y1="35.02" x2="55.78" y2="38.72"/><line class="a" x1="58" y1="35.02" x2="58" y2="38.72"/><line class="a" x1="62.02" y1="35.02" x2="62.02" y2="38.72"/><polyline class="a" points="33.91 36.29 34.4 36.29 34.13 36.65 34.26 36.65 34.35 36.7 34.4 36.73 34.45 36.87 34.45 36.95 34.4 37.09 34.31 37.17 34.18 37.22 34.04 37.22 33.91 37.17 33.87 37.14 33.82 37.05"/><polygon class="a" points="38.12 36.72 38.07 36.76 38.12 36.81 38.15 36.76 38.12 36.72"/><polyline class="a" points="40.53 36.51 40.53 36.48 40.58 36.39 40.63 36.34 40.71 36.29 40.88 36.29 40.97 36.34 41.02 36.39 41.07 36.48 41.07 36.56 41.02 36.65 40.93 36.78 40.49 37.22 41.1 37.22"/><polygon class="a" points="41.46 37.14 41.41 37.17 41.46 37.22 41.51 37.17 41.46 37.14"/><polyline class="a" points="42.39 36.61 42.34 36.73 42.25 36.83 42.12 36.87 42.07 36.87 41.95 36.83 41.85 36.73 41.81 36.61 41.81 36.56 41.85 36.43 41.95 36.34 42.07 36.29 42.12 36.29 42.25 36.34 42.34 36.43 42.39 36.61 42.39 36.83 42.34 37.05 42.25 37.17 42.12 37.22 42.03 37.22 41.9 37.17 41.85 37.09"/><polygon class="a" points="45.17 36.72 45.13 36.76 45.17 36.81 45.22 36.76 45.17 36.72"/><polyline class="a" points="48.55 36.29 49.03 36.29 48.77 36.65 48.91 36.65 49 36.7 49.03 36.73 49.08 36.87 49.08 36.95 49.03 37.09 48.95 37.17 48.81 37.22 48.69 37.22 48.55 37.17 48.51 37.14 48.47 37.05"/><polyline class="a" points="53.16 36.48 53.26 36.43 53.38 36.29 53.38 37.22"/><polygon class="a" points="54 37.14 53.95 37.17 54 37.22 54.04 37.17 54 37.14"/><path class="a" d="M54.88,36.29h-.44l0,.4,0,0c.78-.28.63.91,0,.49l0-.09"/><polyline class="a" points="56.82 36.48 56.9 36.43 57.04 36.29 57.04 37.22"/><polyline class="a" points="58.91 36.48 58.99 36.43 59.13 36.29 59.13 37.22"/><polygon class="a" points="59.74 37.14 59.7 37.17 59.74 37.22 59.79 37.17 59.74 37.14"/><polyline class="a" points="60.28 37.22 60.72 36.29 60.09 36.29"/><polyline class="a" points="67.74 36.29 67.3 36.29 67.27 36.7 67.3 36.65 67.44 36.61 67.57 36.61 67.71 36.65 67.79 36.73 67.83 36.87 67.83 36.95 67.79 37.09 67.71 37.17 67.57 37.22 67.44 37.22 67.3 37.17 67.27 37.14 67.22 37.05"/><polyline class="a" points="36.99 42.36 37.17 42.4 37.3 42.48 37.36 42.62 37.36 42.66 37.3 42.79 37.17 42.88 36.99 42.91 36.93 42.91 36.75 42.88 36.62 42.79 36.56 42.66 36.56 42.62 36.62 42.48 36.75 42.4 36.99 42.36 37.3 42.36 37.59 42.4 37.77 42.48 37.84 42.62 37.84 42.7 37.77 42.83 37.65 42.88"/><polygon class="a" points="37.71 41.98 37.77 42.02 37.84 41.98 37.77 41.93 37.71 41.98"/><polyline class="a" points="36.81 41.52 36.75 41.43 36.56 41.3 37.84 41.3"/><polyline class="a" points="36.56 40.37 37.42 40.8 37.42 40.16"/><line class="a" x1="36.56" y1="40.37" x2="37.84" y2="40.37"/><polyline class="a" points="38.83 42.34 39.01 42.39 39.13 42.47 39.19 42.59 39.19 42.63 39.13 42.77 39.01 42.85 38.83 42.89 38.77 42.89 38.58 42.85 38.46 42.77 38.4 42.63 38.4 42.59 38.46 42.47 38.58 42.39 38.83 42.34 39.13 42.34 39.43 42.39 39.61 42.47 39.67 42.59 39.67 42.68 39.61 42.8 39.49 42.85"/><polygon class="a" points="39.55 41.96 39.61 42.01 39.67 41.96 39.61 41.92 39.55 41.96"/><polyline class="a" points="38.4 41.53 38.4 41.06 38.89 41.32 38.89 41.2 38.95 41.11 39.01 41.06 39.19 41.03 39.32 41.03 39.49 41.06 39.61 41.15 39.67 41.28 39.67 41.41 39.61 41.53 39.55 41.58 39.43 41.62"/><polyline class="a" points="38.58 40.22 38.46 40.26 38.4 40.39 38.4 40.48 38.46 40.6 38.64 40.69 38.95 40.73 39.26 40.73 39.49 40.69 39.61 40.6 39.67 40.48 39.67 40.43 39.61 40.31 39.49 40.22 39.32 40.18 39.26 40.18 39.07 40.22 38.95 40.31 38.89 40.43 38.89 40.48 38.95 40.6 39.07 40.69 39.26 40.73"/><polyline class="a" points="43.97 43.12 43.91 43.03 43.72 42.91 44.99 42.91"/><polyline class="a" points="44.03 42.36 43.97 42.36 43.84 42.33 43.78 42.28 43.72 42.19 43.72 42.02 43.78 41.93 43.84 41.9 43.97 41.85 44.09 41.85 44.2 41.9 44.38 41.98 44.99 42.4 44.99 41.81"/><polygon class="a" points="44.87 41.47 44.93 41.52 44.99 41.47 44.93 41.43 44.87 41.47"/><polyline class="a" points="44.03 41.09 43.97 41.09 43.84 41.05 43.78 41 43.72 40.92 43.72 40.75 43.78 40.66 43.84 40.62 43.97 40.58 44.09 40.58 44.2 40.62 44.38 40.71 44.99 41.14 44.99 40.54"/><polyline class="a" points="43.97 40.16 43.91 40.07 43.72 39.95 44.99 39.95"/><polyline class="a" points="45.84 43.12 45.78 43.03 45.59 42.91 46.87 42.91"/><polyline class="a" points="45.9 42.36 45.84 42.36 45.72 42.33 45.66 42.28 45.59 42.19 45.59 42.02 45.66 41.93 45.72 41.9 45.84 41.85 45.96 41.85 46.08 41.9 46.27 41.98 46.87 42.4 46.87 41.81"/><polygon class="a" points="46.74 41.47 46.8 41.52 46.87 41.47 46.8 41.43 46.74 41.47"/><polyline class="a" points="45.59 40.71 46.44 41.14 46.44 40.5"/><line class="a" x1="45.59" y1="40.71" x2="46.87" y2="40.71"/><polyline class="a" points="45.84 40.16 45.78 40.07 45.59 39.95 46.87 39.95"/><polyline class="a" points="51.93 43.26 51.87 43.17 51.69 43.03 52.96 43.03"/><polyline class="a" points="51.69 42.02 51.69 42.45 52.24 42.48 52.18 42.45 52.12 42.33 52.12 42.19 52.18 42.07 52.3 41.98 52.47 41.93 52.59 41.93 52.78 41.98 52.9 42.07 52.96 42.19 52.96 42.33 52.9 42.45 52.84 42.48 52.72 42.53"/><polygon class="a" points="52.84 41.6 52.9 41.64 52.96 41.6 52.9 41.55 52.84 41.6"/><polyline class="a" points="51.69 40.83 52.53 41.26 52.53 40.62"/><line class="a" x1="51.69" y1="40.83" x2="52.96" y2="40.83"/><polyline class="a" points="51.99 40.37 51.93 40.37 51.81 40.33 51.75 40.28 51.69 40.2 51.69 40.02 51.75 39.95 51.81 39.9 51.93 39.87 52.05 39.87 52.18 39.9 52.36 39.99 52.96 40.42 52.96 39.82"/><polyline class="a" points="55.4 43.12 55.34 43.03 55.15 42.91 56.42 42.91"/><polyline class="a" points="55.33 41.85 55.21 41.9 55.15 42.02 55.15 42.1 55.21 42.24 55.4 42.33 55.69 42.36 55.99 42.36 56.24 42.33 56.36 42.24 56.42 42.1 56.42 42.07 56.36 41.93 56.24 41.85 56.06 41.81 55.99 41.81 55.81 41.85 55.69 41.93 55.63 42.07 55.63 42.1 55.69 42.24 55.81 42.33 55.99 42.36"/><polygon class="a" points="56.3 41.47 56.36 41.52 56.42 41.47 56.36 41.43 56.3 41.47"/><polyline class="a" points="55.57 40.58 55.75 40.62 55.87 40.71 55.93 40.83 55.93 40.88 55.87 41 55.75 41.09 55.57 41.14 55.52 41.14 55.33 41.09 55.21 41 55.15 40.88 55.15 40.83 55.21 40.71 55.33 40.62 55.57 40.58 55.87 40.58 56.18 40.62 56.36 40.71 56.42 40.83 56.42 40.92 56.36 41.05 56.24 41.09"/><polyline class="a" points="55.4 40.16 55.34 40.07 55.15 39.95 56.42 39.95"/><polyline class="a" points="57.72 43.26 57.66 43.17 57.48 43.03 58.75 43.03"/><polyline class="a" points="58.75 42.36 57.48 41.93 57.48 42.53"/><polygon class="a" points="58.63 41.6 58.69 41.64 58.75 41.6 58.69 41.55 58.63 41.6"/><path class="a" d="M57.48,41.05l.06.12.12,0h.12l.12,0,.06-.08.06-.17.06-.12.12-.09.12,0h.17l.12,0,.06,0,.06.14v.17l-.06.12c-.9.42-.44-.71-1.15-.43l-.06.14Z"/><polyline class="a" points="58.75 40.24 57.48 39.82 57.48 40.42"/><polyline class="a" points="61.73 42.83 61.67 42.74 61.49 42.62 62.76 42.62"/><polyline class="a" points="61.92 41.55 62.1 41.6 62.21 41.69 62.27 41.81 62.27 41.85 62.21 41.98 62.1 42.07 61.92 42.1 61.86 42.1 61.67 42.07 61.55 41.98 61.49 41.85 61.49 41.81 61.55 41.69 61.67 41.6 61.92 41.55 62.21 41.55 62.52 41.6 62.7 41.69 62.76 41.81 62.76 41.9 62.7 42.02 62.58 42.07"/><polygon class="a" points="62.64 41.17 62.7 41.21 62.76 41.17 62.7 41.14 62.64 41.17"/><polyline class="a" points="61.67 40.28 61.55 40.33 61.49 40.45 61.49 40.54 61.55 40.66 61.73 40.75 62.04 40.8 62.33 40.8 62.58 40.75 62.7 40.66 62.76 40.54 62.76 40.5 62.7 40.37 62.58 40.28 62.4 40.24 62.33 40.24 62.15 40.28 62.04 40.37 61.98 40.5 61.98 40.54 62.04 40.66 62.15 40.75 62.33 40.8"/><polyline class="a" points="37.03 49.12 36.97 49.03 36.78 48.9 38.05 48.9"/><path class="a" d="M36.78,48.17l.06.14.12,0h.12l.11,0,.06-.09.06-.17.06-.12.12-.08.12,0h.18l.12,0,.06,0,.06.12v.17l-.06.14c-.9.42-.47-.72-1.15-.43l-.06.12Z"/><polyline class="a" points="37.2 46.99 37.38 47.04 37.51 47.12 37.57 47.24 37.57 47.29 37.51 47.41 37.38 47.5 37.2 47.54 37.15 47.54 36.97 47.5 36.84 47.41 36.78 47.29 36.78 47.24 36.84 47.12 36.97 47.04 37.2 46.99 37.51 46.99 37.81 47.04 37.99 47.12 38.06 47.24 38.06 47.33 37.99 47.45 37.87 47.5"/><polygon class="a" points="37.93 46.61 37.99 46.66 38.05 46.61 37.99 46.57 37.93 46.61"/><polyline class="a" points="37.09 46.23 37.03 46.23 36.9 46.19 36.84 46.14 36.78 46.06 36.78 45.89 36.84 45.8 36.9 45.76 37.03 45.72 37.15 45.72 37.26 45.76 37.44 45.85 38.05 46.27 38.05 45.68"/><polyline class="a" points="37.03 45.3 36.97 45.21 36.78 45.08 38.05 45.08"/><polyline class="a" points="38.78 49.24 38.72 49.15 38.53 49.03 39.8 49.03"/><polygon class="a" points="38.53 48.31 38.59 48.43 38.72 48.48 38.84 48.48 38.96 48.43 39.02 48.35 39.08 48.17 39.14 48.05 39.27 47.97 39.39 47.93 39.56 47.93 39.68 47.97 39.74 48 39.8 48.14 39.8 48.31 39.74 48.43 39.68 48.48 39.56 48.52 39.39 48.52 39.27 48.48 39.14 48.4 39.08 48.26 39.02 48.09 38.96 48 38.84 47.97 38.72 47.97 38.59 48 38.53 48.14 38.53 48.31"/><polyline class="a" points="38.96 47.12 39.15 47.16 39.27 47.24 39.33 47.38 39.33 47.42 39.27 47.54 39.15 47.62 38.96 47.67 38.9 47.67 38.72 47.62 38.59 47.54 38.53 47.42 38.53 47.38 38.59 47.24 38.72 47.16 38.96 47.12 39.27 47.12 39.56 47.16 39.74 47.24 39.8 47.38 39.8 47.45 39.74 47.59 39.62 47.62"/><polygon class="a" points="39.68 46.74 39.74 46.78 39.8 46.74 39.74 46.69 39.68 46.74"/><polyline class="a" points="38.53 45.97 39.39 46.4 39.39 45.76"/><line class="a" x1="38.53" y1="45.97" x2="39.81" y2="45.97"/><polyline class="a" points="38.84 45.51 38.78 45.51 38.65 45.47 38.59 45.42 38.53 45.34 38.53 45.16 38.59 45.08 38.65 45.04 38.78 45.01 38.9 45.01 39.02 45.04 39.2 45.13 39.8 45.56 39.8 44.96"/><polyline class="a" points="44.17 49.24 44.11 49.15 43.93 49.03 45.2 49.03"/><polygon class="a" points="43.93 48.31 43.99 48.43 44.11 48.48 44.23 48.48 44.34 48.43 44.41 48.35 44.47 48.17 44.53 48.05 44.65 47.97 44.77 47.93 44.96 47.93 45.08 47.97 45.14 48 45.2 48.14 45.2 48.31 45.14 48.43 45.08 48.48 44.96 48.52 44.77 48.52 44.65 48.48 44.53 48.4 44.47 48.26 44.41 48.09 44.34 48 44.23 47.97 44.11 47.97 43.99 48 43.93 48.14 43.93 48.31"/><polyline class="a" points="44.34 47.12 44.53 47.16 44.65 47.24 44.71 47.38 44.71 47.42 44.65 47.54 44.53 47.62 44.34 47.67 44.28 47.67 44.11 47.62 43.99 47.54 43.93 47.42 43.93 47.38 43.99 47.24 44.11 47.16 44.34 47.12 44.65 47.12 44.96 47.16 45.14 47.24 45.2 47.38 45.2 47.45 45.14 47.59 45.02 47.62"/><polygon class="a" points="45.08 46.74 45.14 46.78 45.2 46.74 45.14 46.69 45.08 46.74"/><polyline class="a" points="43.93 45.97 44.77 46.4 44.77 45.76"/><line class="a" x1="43.93" y1="45.97" x2="45.2" y2="45.97"/><polyline class="a" points="44.23 45.51 44.17 45.51 44.05 45.47 43.99 45.42 43.93 45.34 43.93 45.16 43.99 45.08 44.05 45.04 44.17 45.01 44.28 45.01 44.41 45.04 44.59 45.13 45.2 45.56 45.2 44.96"/><polyline class="a" points="46.18 49.12 46.12 49.03 45.94 48.9 47.21 48.9"/><path class="a" d="M45.94,48.17l.06.14.12,0h.11l.12,0,.06-.09.06-.17.06-.12.12-.08.12,0H47l.12,0,.06,0,.06.12v.17l-.06.14c-.9.42-.46-.71-1.15-.43l-.06.12Z"/><polyline class="a" points="46.35 46.99 46.54 47.04 46.66 47.12 46.72 47.24 46.72 47.29 46.66 47.41 46.54 47.5 46.35 47.54 46.29 47.54 46.12 47.5 46 47.41 45.94 47.29 45.94 47.24 46 47.12 46.12 47.04 46.35 46.99 46.66 46.99 46.96 47.04 47.15 47.12 47.21 47.24 47.21 47.33 47.15 47.45 47.02 47.5"/><polygon class="a" points="47.09 46.61 47.15 46.66 47.21 46.61 47.15 46.57 47.09 46.61"/><polyline class="a" points="46.23 46.23 46.18 46.23 46.06 46.19 46 46.14 45.94 46.06 45.94 45.89 46 45.8 46.06 45.76 46.18 45.72 46.29 45.72 46.41 45.76 46.6 45.85 47.21 46.27 47.21 45.68"/><polyline class="a" points="46.18 45.3 46.12 45.21 45.94 45.08 47.21 45.08"/><polyline class="a" points="52.13 49.12 52.07 49.03 51.88 48.9 53.16 48.9"/><path class="a" d="M51.88,48.17l.06.14.12,0h.12l.12,0,.06-.09.06-.17.06-.12.12-.08.12,0h.17l.12,0,.06,0,.06.12v.17l-.06.14c-.88.42-.45-.72-1.15-.43l-.06.12Z"/><polyline class="a" points="52.31 46.99 52.5 47.04 52.62 47.12 52.68 47.24 52.68 47.29 52.62 47.41 52.5 47.5 52.31 47.54 52.25 47.54 52.07 47.5 51.95 47.41 51.88 47.29 51.88 47.24 51.95 47.12 52.07 47.04 52.31 46.99 52.62 46.99 52.91 47.04 53.09 47.12 53.16 47.24 53.16 47.33 53.09 47.45 52.97 47.5"/><polygon class="a" points="53.03 46.61 53.09 46.66 53.16 46.61 53.09 46.57 53.03 46.61"/><polyline class="a" points="52.19 46.23 52.13 46.23 52.01 46.19 51.94 46.14 51.88 46.06 51.88 45.89 51.94 45.8 52.01 45.76 52.13 45.72 52.25 45.72 52.37 45.76 52.56 45.85 53.16 46.27 53.16 45.68"/><polyline class="a" points="52.13 45.3 52.07 45.21 51.88 45.08 53.16 45.08"/><polyline class="a" points="55.64 49.12 55.58 49.03 55.4 48.9 56.67 48.9"/><polyline class="a" points="55.82 47.84 56.01 47.88 56.13 47.97 56.19 48.09 56.19 48.14 56.13 48.26 56.01 48.35 55.82 48.4 55.76 48.4 55.58 48.35 55.46 48.26 55.4 48.14 55.4 48.09 55.46 47.97 55.58 47.88 55.82 47.84 56.13 47.84 56.42 47.88 56.61 47.97 56.67 48.09 56.67 48.17 56.61 48.31 56.48 48.35"/><polygon class="a" points="55.4 47.29 55.46 47.41 55.64 47.5 55.95 47.54 56.13 47.54 56.42 47.5 56.61 47.41 56.67 47.29 56.67 47.21 56.61 47.07 56.42 46.99 56.13 46.95 55.95 46.95 55.64 46.99 55.46 47.07 55.4 47.21 55.4 47.29"/><polygon class="a" points="56.55 46.61 56.61 46.66 56.67 46.61 56.61 46.57 56.55 46.61"/><polyline class="a" points="55.4 45.85 56.24 46.27 56.24 45.63"/><line class="a" x1="55.4" y1="45.85" x2="56.67" y2="45.85"/><polyline class="a" points="55.64 45.3 55.58 45.21 55.4 45.08 56.67 45.08"/><polyline class="a" points="57.83 49.12 57.77 49.03 57.59 48.9 58.86 48.9"/><polyline class="a" points="58.01 47.84 58.2 47.88 58.32 47.97 58.38 48.09 58.38 48.14 58.32 48.26 58.2 48.35 58.01 48.4 57.95 48.4 57.77 48.35 57.65 48.26 57.59 48.14 57.59 48.09 57.65 47.97 57.77 47.88 58.01 47.84 58.32 47.84 58.63 47.88 58.8 47.97 58.86 48.09 58.86 48.17 58.8 48.31 58.69 48.35"/><polygon class="a" points="57.59 47.29 57.65 47.41 57.83 47.5 58.14 47.54 58.32 47.54 58.63 47.5 58.8 47.41 58.86 47.29 58.86 47.21 58.8 47.07 58.63 46.99 58.32 46.95 58.14 46.95 57.83 46.99 57.65 47.07 57.59 47.21 57.59 47.29"/><polygon class="a" points="58.75 46.61 58.8 46.66 58.86 46.61 58.8 46.57 58.75 46.61"/><polyline class="a" points="57.59 45.85 58.44 46.27 58.44 45.63"/><line class="a" x1="57.59" y1="45.85" x2="58.86" y2="45.85"/><polyline class="a" points="57.83 45.3 57.77 45.21 57.59 45.08 58.86 45.08"/><polyline class="a" points="62.03 49.26 61.98 49.18 61.8 49.04 63.07 49.04"/><path class="a" d="M61.8,48.32l.06.14.12,0h.11l.12,0,.06-.09.06-.17.06-.12.12-.08.12,0h.18l.12,0L63,48l.06.13v.16l-.06.14c-.9.42-.46-.71-1.15-.43l-.06.13Z"/><path class="a" d="M61.8,47.48l.06.14.12,0h.11l.12,0,.06-.09.06-.17.06-.14.12-.09.12,0h.18l.12,0,.06,0,.06.12v.17l-.06.14c-.94.39-.46-.74-1.15-.43l-.06.12Z"/><polygon class="a" points="62.95 46.76 63.01 46.8 63.07 46.76 63.01 46.72 62.95 46.76"/><polyline class="a" points="63.07 46.25 61.8 45.83 61.8 46.42"/><polyline class="a" points="61.8 45.15 62.64 45.57 62.64 44.93"/><line class="a" x1="61.8" y1="45.15" x2="63.07" y2="45.15"/><polygon class="a" points="1.78 41.2 1.78 40.27 2.09 40.27 2.23 40.31 2.31 40.4 2.36 40.49 2.4 40.62 2.4 40.84 2.36 40.98 2.31 41.06 2.23 41.15 2.09 41.2 1.78 41.2"/><line class="a" x1="2.71" y1="40.27" x2="2.71" y2="41.2"/><path class="a" d="M3.64,40.4l-.09-.1-.13,0c-.26,0-.57.07-.32.35l.1,0,.26.1.1,0,0,0,0,.08v.14l-.09.08-.13,0H3.24l-.13,0L3,41.06"/><line class="a" x1="4.13" y1="40.27" x2="4.13" y2="41.2"/><line class="a" x1="3.82" y1="40.27" x2="4.44" y2="40.27"/><polygon class="a" points="4.71 41.11 4.66 41.15 4.71 41.2 4.75 41.15 4.71 41.11"/><polyline class="a" points="6.03 41.2 6.03 40.27 6.43 40.27 6.57 40.31 6.61 40.35 6.66 40.44 6.66 40.58 6.61 40.66 6.57 40.71 6.43 40.76 6.03 40.76"/><polyline class="a" points="6.96 41.2 6.96 40.27 7.37 40.27 7.5 40.31 7.54 40.35 7.58 40.44 7.58 40.54 7.54 40.62 7.5 40.66 7.37 40.71 6.96 40.71"/><line class="a" x1="7.28" y1="40.71" x2="7.58" y2="41.2"/><path class="a" d="M8.11,40.27l-.09,0-.08.1a.55.55,0,0,0,.17.8h.18l.09,0,.09-.09,0-.08,0-.14v-.22l0-.14,0-.08-.09-.1-.09,0Z"/><path class="a" d="M9.48,40.49l0-.09-.09-.1c-.31-.14-.47,0-.54.32v.22l0,.14a.32.32,0,0,0,.58.08l0-.08v-.14H9.26"/><polyline class="a" points="9.8 41.2 9.8 40.27 10.19 40.27 10.32 40.31 10.37 40.35 10.41 40.44 10.41 40.54 10.37 40.62 10.32 40.66 10.19 40.71 9.8 40.71"/><line class="a" x1="10.11" y1="40.71" x2="10.41" y2="41.2"/><polyline class="a" points="10.73 41.2 10.73 40.27 11.3 40.27"/><line class="a" x1="10.73" y1="40.71" x2="11.08" y2="40.71"/><line class="a" x1="10.73" y1="41.2" x2="11.3" y2="41.2"/><path class="a" d="M12.15,40.4l-.1-.1-.12,0c-.26,0-.57.07-.32.35l.09,0,.27.1.09,0,0,0,0,.08v.14l-.1.08-.12,0h-.18l-.13,0-.09-.08"/><polyline class="a" points="13.03 40.4 12.94 40.31 12.81 40.27 12.63 40.27 12.5 40.31 12.41 40.4 12.41 40.49 12.46 40.58 12.5 40.62 12.59 40.66 12.86 40.76 12.94 40.8 12.98 40.84 13.03 40.93 13.03 41.06 12.94 41.15 12.81 41.2 12.63 41.2 12.5 41.15 12.41 41.06"/><line class="a" x1="13.34" y1="40.27" x2="13.34" y2="41.2"/><polyline class="a" points="13.56 40.27 13.91 41.2 14.27 40.27"/><polyline class="a" points="14.36 41.2 14.72 40.27 15.06 41.2"/><line class="a" x1="14.49" y1="40.89" x2="14.94" y2="40.89"/><path class="a" d="M2.09,41.82,2,41.91a1,1,0,0,0,0,1.24l.09.08"/><line class="a" x1="2.4" y1="42.3" x2="2.4" y2="42.92"/><polyline class="a" points="2.4 42.48 2.53 42.35 2.63 42.3 2.75 42.3 2.85 42.35 2.89 42.48 2.89 42.92"/><polyline class="a" points="2.88 42.48 3.02 42.35 3.1 42.3 3.24 42.3 3.33 42.35 3.38 42.48 3.38 42.92"/><path class="a" d="M3.68,41.82l.1.09a1,1,0,0,1,0,1.24l-.1.08"/><polygon class="a" points="1.78 36.35 1.78 35.42 2.09 35.42 2.23 35.47 2.31 35.56 2.36 35.64 2.4 35.78 2.4 36 2.36 36.13 2.31 36.22 2.23 36.3 2.09 36.35 1.78 36.35"/><line class="a" x1="2.71" y1="35.42" x2="2.71" y2="36.35"/><path class="a" d="M3.64,35.56l-.09-.09-.13,0c-.22,0-.58.08-.32.35l.1,0,.26.09.1,0,0,0,0,.08v.14l-.09.08-.13,0H3.24l-.13,0L3,36.22"/><line class="a" x1="4.13" y1="35.42" x2="4.13" y2="36.35"/><line class="a" x1="3.82" y1="35.42" x2="4.44" y2="35.42"/><polygon class="a" points="4.71 36.27 4.66 36.3 4.71 36.35 4.75 36.3 4.71 36.27"/><polyline class="a" points="6.03 36.35 6.03 35.42 6.43 35.42 6.57 35.47 6.61 35.51 6.65 35.61 6.65 35.73 6.61 35.83 6.57 35.86 6.43 35.91 6.03 35.91"/><polyline class="a" points="6.83 36.35 7.18 35.42 7.54 36.35"/><line class="a" x1="6.96" y1="36.05" x2="7.4" y2="36.05"/><polyline class="a" points="7.76 36.35 7.76 35.42 8.16 35.42 8.29 35.47 8.33 35.51 8.38 35.61 8.38 35.69 8.33 35.78 8.29 35.83 8.16 35.86 7.76 35.86"/><line class="a" x1="8.07" y1="35.86" x2="8.38" y2="36.35"/><polyline class="a" points="8.65 36.35 9.26 35.42 8.65 35.42"/><line class="a" x1="8.65" y1="36.35" x2="9.26" y2="36.35"/><line class="a" x1="9.58" y1="35.42" x2="9.58" y2="36.35"/><polyline class="a" points="9.8 36.35 10.15 35.42 10.51 36.35"/><line class="a" x1="9.93" y1="36.05" x2="10.37" y2="36.05"/><polyline class="a" points="10.73 35.42 10.73 36.35 11.26 36.35"/><polyline class="a" points="11.48 36.35 11.48 35.42 12.05 35.42"/><line class="a" x1="11.48" y1="35.86" x2="11.83" y2="35.86"/><line class="a" x1="11.48" y1="36.35" x2="12.05" y2="36.35"/><path class="a" d="M2.09,37,2,37.06A1,1,0,0,0,2,38.3l.09.1"/><line class="a" x1="2.4" y1="37.47" x2="2.4" y2="38.08"/><polyline class="a" points="2.4 37.64 2.53 37.5 2.63 37.47 2.75 37.47 2.85 37.5 2.88 37.64 2.88 38.08"/><polyline class="a" points="2.88 37.64 3.02 37.5 3.1 37.47 3.24 37.47 3.33 37.5 3.38 37.64 3.38 38.08"/><path class="a" d="M3.68,37l.1.09a1,1,0,0,1,0,1.24l-.1.1"/><polyline class="a" points="1.78 32.47 2.14 33.4 2.49 32.47"/><polyline class="a" points="2.71 33.4 2.71 32.47 3.29 32.47"/><line class="a" x1="2.71" y1="32.91" x2="3.07" y2="32.91"/><line class="a" x1="2.71" y1="33.4" x2="3.29" y2="33.4"/><polyline class="a" points="3.56 33.4 3.56 32.47 3.95 32.47 4.08 32.51 4.13 32.56 4.17 32.65 4.17 32.73 4.13 32.83 4.08 32.87 3.95 32.91 3.56 32.91"/><line class="a" x1="3.86" y1="32.91" x2="4.17" y2="33.4"/><line class="a" x1="4.66" y1="32.47" x2="4.66" y2="33.4"/><line class="a" x1="4.35" y1="32.47" x2="4.97" y2="32.47"/><line class="a" x1="5.19" y1="32.47" x2="5.19" y2="33.4"/><path class="a" d="M6.16,32.69l0-.1L6,32.51a.33.33,0,0,0-.49.18l0,.14V33l0,.14,0,.08.09.09.09,0h.18l.08,0,.09-.09,0-.08"/><line class="a" x1="6.47" y1="32.47" x2="6.47" y2="33.4"/><path class="a" d="M2,45.85l-.09,0-.08.1a.55.55,0,0,0,.17.8h.18l.09,0a.56.56,0,0,0,0-.84l-.09,0Z"/><line class="a" x1="2.18" y1="46.6" x2="2.44" y2="46.86"/><polyline class="a" points="2.8 45.85 2.8 46.51 2.85 46.64 2.93 46.73 3.07 46.78 3.15 46.78 3.29 46.73 3.37 46.64 3.42 46.51 3.42 45.85"/><path class="a" d="M4,45.85l-.1,0-.09.1a.55.55,0,0,0,.18.8h.17l.09,0a.56.56,0,0,0,0-.84l-.09,0Z"/><line class="a" x1="4.93" y1="45.85" x2="4.93" y2="46.78"/><line class="a" x1="4.61" y1="45.85" x2="5.23" y2="45.85"/><polyline class="a" points="5.32 46.78 5.67 45.85 6.03 46.78"/><line class="a" x1="5.45" y1="46.46" x2="5.9" y2="46.46"/><line class="a" x1="7.36" y1="45.85" x2="7.36" y2="46.78"/><line class="a" x1="7.05" y1="45.85" x2="7.67" y2="45.85"/><polyline class="a" points="7.89 46.78 7.89 45.85 8.46 45.85"/><line class="a" x1="7.89" y1="46.29" x2="8.25" y2="46.29"/><line class="a" x1="7.89" y1="46.78" x2="8.47" y2="46.78"/><polyline class="a" points="8.73 46.78 8.73 45.85 9.14 45.85 9.26 45.89 9.31 45.94 9.36 46.02 9.36 46.12 9.31 46.2 9.26 46.24 9.14 46.29 8.73 46.29"/><line class="a" x1="9.04" y1="46.29" x2="9.36" y2="46.78"/><polyline class="a" points="9.66 46.78 9.66 45.85 10.07 45.85 10.19 45.89 10.24 45.94 10.29 46.02 10.29 46.12 10.24 46.2 10.19 46.24 10.07 46.29 9.66 46.29"/><line class="a" x1="9.97" y1="46.29" x2="10.29" y2="46.78"/><polyline class="a" points="10.6 46.78 10.6 45.85 11.17 45.85"/><line class="a" x1="10.59" y1="46.29" x2="10.95" y2="46.29"/><line class="a" x1="10.59" y1="46.78" x2="11.17" y2="46.78"/><polyline class="a" points="11.44 46.78 11.44 45.85 12.05 46.78 12.05 45.85"/><path class="a" d="M12.63,45.85l-.09,0-.08.1a.55.55,0,0,0,.17.8h.18l.09,0a.56.56,0,0,0,0-.84l-.09,0Z"/><path class="a" d="M2.09,47.39l-.09.1a1,1,0,0,0,0,1.24l.09.09"/><line class="a" x1="2.4" y1="47.88" x2="2.4" y2="48.5"/><polyline class="a" points="2.4 48.06 2.53 47.93 2.63 47.88 2.75 47.88 2.85 47.93 2.89 48.06 2.89 48.51"/><polyline class="a" points="2.88 48.06 3.02 47.93 3.1 47.88 3.24 47.88 3.33 47.93 3.37 48.06 3.37 48.51"/><polyline class="a" points="5.1 48.02 5.06 47.93 4.93 47.88 4.79 47.88 4.66 47.93 4.61 48.02 4.66 48.1 4.75 48.15 4.96 48.2 5.06 48.23 5.1 48.32 5.1 48.37 5.06 48.46 4.93 48.5 4.79 48.5 4.66 48.46 4.61 48.37"/><polygon class="a" points="5.46 48.42 5.42 48.46 5.46 48.51 5.5 48.46 5.46 48.42"/><line class="a" x1="5.86" y1="47.57" x2="5.86" y2="48.5"/><polygon class="a" points="6.25 48.42 6.21 48.46 6.25 48.51 6.3 48.46 6.25 48.42"/><line class="a" x1="6.65" y1="47.88" x2="6.65" y2="48.5"/><polyline class="a" points="6.65 48.06 6.79 47.93 6.87 47.88 7.01 47.88 7.09 47.93 7.14 48.06 7.14 48.51"/><polyline class="a" points="7.14 48.06 7.28 47.93 7.36 47.88 7.5 47.88 7.58 47.93 7.62 48.06 7.62 48.51"/><polygon class="a" points="8.03 48.42 7.98 48.46 8.03 48.51 8.07 48.46 8.03 48.42"/><path class="a" d="M8.38,47.39l.09.1a1,1,0,0,1,0,1.24l-.09.09"/><line class="c" x1="35.25" y1="8.62" x2="35.12" y2="8.86"/><line class="c" x1="43.43" y1="8.13" x2="44.57" y2="8.61"/><path class="a" d="M34.92,1.57l-.1-.09-.13,0c-.22,0-.56.08-.31.35l.09,0,.27.09.09,0,0,0,0,.08v.14l-.1.08-.13,0h-.17l-.13,0-.09-.08"/><path class="a" d="M35.85,1.66l0-.09-.09-.08a.32.32,0,0,0-.49.17l0,.14V2c.06.25.27.49.54.31l.09-.09,0-.08"/><polyline class="a" points="36.02 2.37 36.38 1.44 36.73 2.37"/><line class="a" x1="36.16" y1="2.06" x2="36.6" y2="2.06"/><polyline class="a" points="36.82 1.44 37.17 2.37 37.53 1.44"/><path class="a" d="M38,1.44l-.09,0-.08.09a.55.55,0,0,0,.17.8h.18l.08,0,.09-.09,0-.08,0-.14V1.79l0-.14,0-.08-.09-.09-.08,0Z"/><line class="a" x1="38.73" y1="1.84" x2="39.52" y2="1.84"/><line class="a" x1="38.73" y1="2.1" x2="39.52" y2="2.1"/><polyline class="a" points="39.93 1.44 40.41 1.44 40.15 1.79 40.27 1.79 40.37 1.84 40.41 1.88 40.45 2.02 40.45 2.1 40.41 2.23 40.32 2.32 40.19 2.37 40.05 2.37 39.93 2.32 39.88 2.28 39.83 2.2"/><polygon class="a" points="40.81 2.28 40.76 2.32 40.81 2.37 40.86 2.32 40.81 2.28"/><path class="a" d="M41.2,1.66v0c.11-.38.83-.16.4.31l-.44.44h.62"/><polyline class="a" points="42.13 1.44 42.62 1.44 42.36 1.79 42.48 1.79 42.58 1.84 42.62 1.88 42.67 2.02 42.67 2.1 42.62 2.23 42.53 2.32 42.4 2.37 42.27 2.37 42.13 2.32 42.09 2.28 42.04 2.2"/><line class="a" x1="43.9" y1="1.75" x2="43.9" y2="2.37"/><polyline class="a" points="43.91 1.93 44.04 1.79 44.13 1.75 44.26 1.75 44.35 1.79 44.39 1.93 44.39 2.37"/><polyline class="a" points="44.39 1.93 44.53 1.79 44.61 1.75 44.75 1.75 44.84 1.79 44.88 1.93 44.88 2.37"/><line class="a" x1="45.73" y1="1.75" x2="45.73" y2="2.68"/><path class="a" d="M45.73,1.88l-.1-.09c-.58-.29-.58.82,0,.53l.1-.09"/><polyline class="a" points="56.64 2.68 56.64 1.75 57.04 1.75 57.17 1.79 57.22 1.83 57.27 1.92 57.27 2.02 57.22 2.1 57.17 2.14 57.04 2.19 56.64 2.19"/><line class="a" x1="56.95" y1="2.19" x2="57.27" y2="2.68"/><line class="a" x1="57.57" y1="1.75" x2="57.57" y2="2.68"/><polyline class="a" points="57.93 2.68 57.93 1.75 58.32 1.75 58.45 1.79 58.5 1.83 58.55 1.92 58.55 2.05 58.5 2.14 58.45 2.19 58.32 2.23 57.93 2.23"/><path class="a" d="M59.08,1.75l-.09,0-.1.09a.55.55,0,0,0,.18.8h.17l.1,0,.09-.09,0-.08,0-.14V2.1l0-.14,0-.08-.09-.09-.1,0Z"/><polyline class="a" points="59.83 2.68 59.83 1.75 60.23 1.75 60.36 1.79 60.41 1.83 60.45 1.92 60.45 2.02 60.41 2.1 60.36 2.14 60.23 2.19 59.83 2.19"/><line class="a" x1="60.14" y1="2.19" x2="60.45" y2="2.68"/><line class="a" x1="60.94" y1="1.75" x2="60.94" y2="2.68"/><line class="a" x1="60.63" y1="1.75" x2="61.25" y2="1.75"/><path class="a" d="M61.69,1.75l-.09,0-.08.09a.55.55,0,0,0,.17.8h.18l.08,0a.54.54,0,0,0,0-.83l-.08,0Z"/><line class="a" x1="62.44" y1="2.14" x2="63.24" y2="2.14"/><line class="a" x1="62.44" y1="2.41" x2="63.24" y2="2.41"/><path class="a" d="M64.08,1.75h-.44l0,.39,0,0c.77-.3.65.92,0,.49l0-.1"/><polygon class="a" points="64.53 2.59 64.48 2.63 64.53 2.68 64.57 2.63 64.53 2.59"/><polyline class="a" points="64.97 1.75 65.45 1.75 65.19 2.1 65.32 2.1 65.41 2.14 65.45 2.19 65.5 2.32 65.5 2.41 65.45 2.54 65.37 2.63 65.23 2.68 65.1 2.68 64.97 2.63 64.93 2.59 64.88 2.49"/><polyline class="a" points="65.86 1.75 66.33 1.75 66.08 2.1 66.21 2.1 66.3 2.14 66.33 2.19 66.38 2.32 66.38 2.41 66.33 2.54 66.25 2.63 66.11 2.68 65.99 2.68 65.86 2.63 65.81 2.59 65.76 2.49"/><line class="a" x1="67.62" y1="2.05" x2="67.62" y2="2.68"/><polyline class="a" points="67.62 2.23 67.76 2.1 67.85 2.05 67.98 2.05 68.07 2.1 68.11 2.23 68.11 2.68"/><polyline class="a" points="68.11 2.23 68.25 2.1 68.33 2.05 68.47 2.05 68.55 2.1 68.6 2.23 68.6 2.68"/><line class="a" x1="69.44" y1="2.05" x2="69.44" y2="2.98"/><path class="a" d="M69.44,2.19l-.09-.09c-.6-.29-.6.82,0,.53l.09-.09"/><polyline class="c" points="46.24 2.58 33.86 2.58 38.2 6.1"/><polyline class="b" points="70.11 3.18 55.95 3.18 56.89 6.31"/><line class="a" x1="28.71" y1="6.41" x2="30.88" y2="9.09"/><line class="a" x1="38.31" y1="30.39" x2="38.66" y2="30.39"/><line class="a" x1="38.99" y1="30.39" x2="39.22" y2="30.39"/><line class="a" x1="39.55" y1="30.39" x2="39.78" y2="30.39"/><line class="a" x1="40.12" y1="30.39" x2="40.34" y2="30.39"/><line class="a" x1="40.69" y1="30.39" x2="40.91" y2="30.39"/><line class="a" x1="41.25" y1="30.39" x2="41.47" y2="30.39"/><line class="a" x1="41.81" y1="30.39" x2="42.03" y2="30.39"/><line class="a" x1="42.37" y1="30.39" x2="42.61" y2="30.39"/><line class="a" x1="42.94" y1="30.39" x2="43.17" y2="30.39"/><line class="a" x1="43.5" y1="30.39" x2="43.73" y2="30.39"/><line class="a" x1="44.08" y1="30.39" x2="44.3" y2="30.39"/><line class="a" x1="44.64" y1="30.39" x2="44.86" y2="30.39"/><line class="a" x1="45.2" y1="30.39" x2="45.42" y2="30.39"/><line class="a" x1="45.76" y1="30.39" x2="45.98" y2="30.39"/><line class="a" x1="46.33" y1="30.39" x2="46.56" y2="30.39"/><line class="a" x1="46.89" y1="30.39" x2="47.12" y2="30.39"/><line class="a" x1="47.45" y1="30.39" x2="47.69" y2="30.39"/><line class="a" x1="48.02" y1="30.39" x2="48.25" y2="30.39"/><line class="a" x1="48.59" y1="30.39" x2="48.81" y2="30.39"/><line class="a" x1="49.15" y1="30.39" x2="49.37" y2="30.39"/><line class="a" x1="49.72" y1="30.39" x2="49.94" y2="30.39"/><line class="a" x1="50.28" y1="30.39" x2="50.51" y2="30.39"/><line class="a" x1="50.84" y1="30.39" x2="51.08" y2="30.39"/><line class="a" x1="51.41" y1="30.39" x2="51.64" y2="30.39"/><line class="a" x1="51.97" y1="30.39" x2="52.2" y2="30.39"/><line class="a" x1="52.54" y1="30.39" x2="52.76" y2="30.39"/><line class="a" x1="53.11" y1="30.39" x2="53.33" y2="30.39"/><line class="a" x1="53.67" y1="30.39" x2="53.89" y2="30.39"/><line class="a" x1="54.23" y1="30.39" x2="54.45" y2="30.39"/><line class="a" x1="54.8" y1="30.39" x2="55.03" y2="30.39"/><line class="a" x1="55.36" y1="30.39" x2="55.59" y2="30.39"/><line class="a" x1="55.92" y1="30.39" x2="56.15" y2="30.39"/><line class="a" x1="56.5" y1="30.39" x2="56.72" y2="30.39"/><line class="a" x1="57.06" y1="30.39" x2="57.28" y2="30.39"/><line class="a" x1="57.62" y1="30.39" x2="57.84" y2="30.39"/><line class="a" x1="58.19" y1="30.39" x2="58.41" y2="30.39"/><line class="a" x1="58.75" y1="30.39" x2="58.98" y2="30.39"/><line class="a" x1="59.31" y1="30.39" x2="59.54" y2="30.39"/><line class="a" x1="59.87" y1="30.39" x2="60.11" y2="30.39"/><line class="a" x1="60.45" y1="30.39" x2="60.67" y2="30.39"/><line class="a" x1="61.01" y1="30.39" x2="61.23" y2="30.39"/><line class="a" x1="61.58" y1="30.39" x2="61.8" y2="30.39"/><line class="a" x1="62.14" y1="30.39" x2="62.36" y2="30.39"/><line class="a" x1="62.7" y1="30.39" x2="62.93" y2="30.39"/><line class="a" x1="63.26" y1="30.39" x2="63.5" y2="30.39"/><line class="a" x1="63.83" y1="30.39" x2="64.06" y2="30.39"/><line class="a" x1="64.39" y1="30.39" x2="64.62" y2="30.39"/><line class="a" x1="64.97" y1="30.39" x2="65.19" y2="30.39"/><line class="a" x1="65.53" y1="30.39" x2="65.75" y2="30.39"/><line class="a" x1="66.09" y1="30.39" x2="66.31" y2="30.39"/><line class="a" x1="66.65" y1="30.39" x2="66.87" y2="30.39"/><line class="a" x1="67.22" y1="30.39" x2="67.45" y2="30.39"/><line class="a" x1="67.78" y1="30.39" x2="68.01" y2="30.39"/><line class="a" x1="68.34" y1="30.39" x2="68.57" y2="30.39"/><line class="a" x1="68.92" y1="30.39" x2="69.14" y2="30.39"/><line class="a" x1="69.48" y1="30.39" x2="69.7" y2="30.39"/><line class="a" x1="70.04" y1="30.39" x2="70.26" y2="30.39"/><line class="a" x1="70.61" y1="30.39" x2="70.83" y2="30.39"/><polyline class="a" points="71.17 30.39 71.51 30.39 65.82 30.39"/><line class="a" x1="55.41" y1="30.39" x2="49.73" y2="30.39"/><line class="b" x1="47.49" y1="9.81" x2="45.74" y2="9.09"/><line class="c" x1="45.15" y1="8.86" x2="45.74" y2="9.09"/><line class="b" x1="44.57" y1="8.61" x2="45.15" y2="8.86"/><polyline class="a" points="135.91 32.33 136.01 32.28 136.19 32.11 136.19 33.31"/><path class="a" d="M137.15,32.11l-.17,0,0,.12v.11l0,.11.12.06.22.06.17,0,.12.12,0,.11v.17l0,.11-.06.06-.17.06h-.23l-.17-.06c-.54-.86,1-.43.58-1.09l-.17,0Z"/><line class="a" x1="3.8" y1="28.97" x2="6.04" y2="28.97"/><polygon class="a" points="8.28 28.97 6.04 30.37 6.04 28.97 8.28 28.97"/><line class="a" x1="7.91" y1="29.21" x2="8.13" y2="28.97"/><line class="a" x1="6.16" y1="30.3" x2="7.49" y2="28.97"/><line class="a" x1="6.04" y1="29.77" x2="6.83" y2="28.97"/><line class="a" x1="6.04" y1="29.11" x2="6.18" y2="28.97"/><line class="a" x1="7.09" y1="29.71" x2="6.35" y2="28.97"/><line class="a" x1="6.69" y1="29.97" x2="6.04" y2="29.32"/><line class="a" x1="6.29" y1="30.22" x2="6.04" y2="29.97"/><line class="a" x1="7.5" y1="29.46" x2="7.01" y2="28.97"/><line class="a" x1="7.89" y1="29.21" x2="7.66" y2="28.97"/><line class="a" x1="3.8" y1="28.97" x2="6.04" y2="30.37"/><path class="a" d="M1.64,27l-.1,0-.1.11a.64.64,0,0,0,.2.91h.21l.1,0a.64.64,0,0,0,0-1l-.1,0Z"/><line class="a" x1="1.8" y1="27.84" x2="2.09" y2="28.14"/><line class="a" x1="2.49" y1="27.33" x2="2.49" y2="28.04"/><polyline class="a" points="2.49 27.64 2.55 27.48 2.65 27.38 2.75 27.33 2.9 27.33"/><polygon class="a" points="3.1 27.03 3.15 27.09 3.2 27.03 3.15 26.98 3.1 27.03"/><line class="a" x1="3.15" y1="27.38" x2="3.15" y2="28.04"/><polyline class="a" points="3.85 26.98 3.75 26.98 3.66 27.03 3.61 27.19 3.61 28.04"/><line class="a" x1="3.46" y1="27.33" x2="3.8" y2="27.33"/><rect class="a" x="4.17" y="27.35" width="0.07" height="0.07" transform="translate(-18.13 10.99) rotate(-45)"/><polygon class="a" points="4.21 27.93 4.16 28 4.21 28.04 4.26 28 4.21 27.93"/><polyline class="a" points="5.82 27.19 5.92 27.14 6.07 26.98 6.07 28.04"/><path class="a" d="M6.92,27l-.15,0,0,.11v.1l0,.1.1,0,.21,0,.15,0,.1.11,0,.1v.15l0,.1,0,.06-.15,0H6.92l-.15,0c-.48-.79.85-.37.5-1l-.15,0Z"/><path class="a" d="M8,27l-.16,0-.1.16,0,.24v.16l0,.24.1.16L8,28h.1l.15,0a.8.8,0,0,0,0-1l-.15,0Z"/><line class="a" x1="9.8" y1="27.33" x2="9.8" y2="28.04"/><polyline class="a" points="9.8 27.54 9.95 27.38 10.04 27.33 10.2 27.33 10.3 27.38 10.35 27.54 10.35 28.04"/><polyline class="a" points="10.35 27.54 10.5 27.38 10.61 27.33 10.75 27.33 10.85 27.38 10.9 27.54 10.9 28.04"/><polyline class="a" points="12.87 27.48 12.82 27.38 12.66 27.33 12.52 27.33 12.37 27.38 12.31 27.48 12.37 27.59 12.47 27.64 12.71 27.69 12.82 27.74 12.87 27.84 12.87 27.89 12.82 28 12.66 28.04 12.52 28.04 12.37 28 12.31 27.89"/><polygon class="a" points="13.28 27.93 13.21 28 13.28 28.04 13.32 28 13.28 27.93"/><line class="a" x1="13.73" y1="26.98" x2="13.73" y2="28.04"/><polygon class="a" points="14.18 27.93 14.12 28 14.18 28.04 14.23 28 14.18 27.93"/><line class="a" x1="14.63" y1="27.33" x2="14.63" y2="28.04"/><polyline class="a" points="14.63 27.54 14.78 27.38 14.88 27.33 15.04 27.33 15.13 27.38 15.18 27.54 15.18 28.04"/><polyline class="a" points="15.18 27.54 15.33 27.38 15.43 27.33 15.59 27.33 15.69 27.38 15.73 27.54 15.73 28.04"/><polygon class="a" points="16.19 27.93 16.14 28 16.19 28.04 16.24 28 16.19 27.93"/><line class="a" x1="16.74" y1="30.39" x2="0.87" y2="30.39"/><line class="d" x1="28.22" y1="6.9" x2="29.2" y2="5.92"/><line class="d" x1="29.2" y1="6.9" x2="28.22" y2="5.92"/><line class="d" x1="55.29" y1="6.81" x2="56.26" y2="5.82"/><line class="d" x1="56.26" y1="6.81" x2="55.29" y2="5.82"/><line class="e" x1="34.35" y1="8.4" x2="34.35" y2="9.79"/><path class="e" d="M33.66,9.09H35l0-.17L35,8.75a.7.7,0,0,0-1.27.17l0,.17,0,.18A.7.7,0,0,0,35,9.44L35,9.27l0-.18"/><line class="e" x1="48.86" y1="8.4" x2="48.86" y2="9.79"/><path class="e" d="M48.16,9.09h1.39l0-.17-.07-.17a.7.7,0,0,0-1.27.17l0,.17,0,.18a.7.7,0,0,0,1.27.17l.07-.17,0-.18"/><line class="d" x1="37.82" y1="9.1" x2="38.8" y2="8.12"/><line class="d" x1="38.8" y1="9.1" x2="37.82" y2="8.12"/><line class="d" x1="44.42" y1="9.1" x2="45.4" y2="8.12"/><line class="d" x1="45.4" y1="9.1" x2="44.42" y2="8.12"/><line class="f" x1="30.39" y1="9.58" x2="31.37" y2="8.6"/><line class="f" x1="31.37" y1="9.58" x2="30.39" y2="8.6"/><line class="f" x1="37.33" y1="9.59" x2="38.31" y2="8.61"/><line class="f" x1="38.31" y1="9.59" x2="37.33" y2="8.61"/><line class="f" x1="44.91" y1="9.59" x2="45.89" y2="8.61"/><line class="f" x1="45.89" y1="9.59" x2="44.91" y2="8.61"/><line class="f" x1="51.85" y1="9.58" x2="52.83" y2="8.6"/><line class="f" x1="52.83" y1="9.58" x2="51.85" y2="8.6"/></svg>