<svg xmlns="http://www.w3.org/2000/svg" viewBox="0 0 166.87 52.54"><defs><style>.a,.b,.c,.d,.e,.f{fill:none;stroke-linecap:round;stroke-linejoin:round;stroke-width:0.21px;}.a{stroke:#000;}.b{stroke:#ffbf00;}.c{stroke:red;}.d{stroke:#00b800;}.e{stroke:blue;}.f{stroke:#00bfff;}</style></defs><title>cad1.5</title><polyline class="a" points="16.36 33.68 16.48 33.62 16.65 33.45 16.65 34.64"/><line class="a" x1="16.51" y1="36.35" x2="16.51" y2="40.05"/><line class="a" x1="2.63" y1="31.74" x2="165.75" y2="31.74"/><line class="a" x1="16.51" y1="36.35" x2="165.75" y2="36.35"/><line class="a" x1="16.51" y1="40.05" x2="165.75" y2="40.05"/><line class="a" x1="16.51" y1="45.59" x2="165.75" y2="45.59"/><polyline class="a" points="16.51 51.13 165.75 51.13 165.75 31.74"/><line class="a" x1="19.98" y1="36.35" x2="19.98" y2="40.05"/><polyline class="a" points="17.29 37.82 17.37 37.77 17.51 37.64 17.51 38.56"/><rect class="a" x="18.08" y="38.48" width="0.07" height="0.07" transform="translate(-21.93 24.09) rotate(-45)"/><polyline class="a" points="19 37.63 18.56 37.63 18.51 38.04 18.56 37.99 18.69 37.94 18.83 37.94 18.95 37.99 19.05 38.08 19.08 38.21 19.08 38.29 19.05 38.43 18.95 38.51 18.83 38.56 18.69 38.56 18.56 38.51 18.51 38.47 18.47 38.38"/><polygon class="a" points="15.84 42.91 15.9 43.03 16.08 43.12 16.39 43.16 16.57 43.16 16.86 43.12 17.04 43.03 17.11 42.91 17.11 42.83 17.04 42.69 16.86 42.61 16.57 42.57 16.39 42.57 16.08 42.61 15.9 42.69 15.84 42.83 15.84 42.91"/><polyline class="a" points="16.08 50.54 16.02 50.46 15.84 50.34 17.11 50.34"/><path class="a" d="M15.84,49.62l.06.13.12,0h.12l.12,0,.06-.08.06-.17.06-.13.12-.09.11,0h.18l.12,0,.06,0,.06.12v.17l-.06.13c-.92.39-.45-.74-1.15-.43l-.06.12Z"/><polyline class="a" points="16.26 48.43 16.45 48.48 16.57 48.56 16.63 48.69 16.63 48.72 16.57 48.86 16.45 48.94 16.26 48.98 16.2 48.98 16.02 48.94 15.9 48.86 15.84 48.72 15.84 48.69 15.9 48.56 16.02 48.48 16.26 48.43 16.57 48.43 16.86 48.48 17.05 48.56 17.11 48.69 17.11 48.77 17.05 48.9 16.92 48.94"/><polygon class="a" points="16.98 48.05 17.04 48.09 17.11 48.05 17.04 48.02 16.98 48.05"/><polyline class="a" points="15.84 47.3 16.68 47.71 16.68 47.08"/><line class="a" x1="15.84" y1="47.29" x2="17.11" y2="47.29"/><polygon class="a" points="15.84 46.66 15.9 46.78 16.02 46.83 16.14 46.83 16.26 46.78 16.32 46.7 16.39 46.53 16.45 46.4 16.57 46.32 16.68 46.27 16.86 46.27 16.98 46.32 17.04 46.35 17.11 46.49 17.11 46.66 17.04 46.78 16.98 46.83 16.86 46.87 16.68 46.87 16.57 46.83 16.45 46.74 16.39 46.61 16.32 46.44 16.26 46.35 16.14 46.32 16.02 46.32 15.9 46.35 15.84 46.49 15.84 46.66"/><line class="a" x1="162.29" y1="31.74" x2="162.29" y2="13.22"/><line class="a" x1="151.95" y1="31.74" x2="151.95" y2="13.05"/><line class="a" x1="140.09" y1="31.74" x2="140.09" y2="12.73"/><line class="a" x1="118.6" y1="31.74" x2="118.6" y2="12.32"/><line class="a" x1="99.51" y1="31.74" x2="99.51" y2="11.87"/><line class="a" x1="79.37" y1="31.74" x2="79.37" y2="11.34"/><line class="b" x1="34.67" y1="9.61" x2="34.68" y2="9.6"/><line class="b" x1="35.07" y1="9.61" x2="35.11" y2="9.57"/><line class="b" x1="35.48" y1="9.61" x2="35.52" y2="9.56"/><line class="b" x1="35.89" y1="9.61" x2="35.94" y2="9.56"/><line class="b" x1="36.3" y1="9.61" x2="36.34" y2="9.56"/><line class="b" x1="36.71" y1="9.61" x2="36.77" y2="9.55"/><line class="b" x1="37.12" y1="9.61" x2="37.19" y2="9.54"/><line class="b" x1="37.52" y1="9.61" x2="37.62" y2="9.51"/><line class="b" x1="37.93" y1="9.61" x2="37.99" y2="9.55"/><line class="b" x1="38.34" y1="9.61" x2="38.35" y2="9.6"/><line class="b" x1="40.38" y1="9.61" x2="40.42" y2="9.57"/><line class="b" x1="41.69" y1="9.12" x2="41.93" y2="8.86"/><polyline class="b" points="42.09 9.12 44.08 7.12 44.31 6.9"/><line class="b" x1="42.49" y1="9.12" x2="44.68" y2="6.93"/><polyline class="b" points="42.91 9.12 44.08 7.94 45.05 6.97"/><line class="b" x1="43.31" y1="9.12" x2="45.41" y2="7.02"/><polyline class="b" points="43.73 9.12 44.08 8.76 45.79 7.06"/><line class="b" x1="44.13" y1="9.12" x2="46.16" y2="7.09"/><line class="b" x1="44.53" y1="9.12" x2="46.52" y2="7.13"/><line class="b" x1="44.95" y1="9.12" x2="46.8" y2="7.25"/><line class="b" x1="45.35" y1="9.12" x2="47.07" y2="7.4"/><line class="b" x1="45.77" y1="9.12" x2="47.33" y2="7.55"/><line class="b" x1="46.17" y1="9.12" x2="47.6" y2="7.69"/><line class="b" x1="46.59" y1="9.12" x2="47.87" y2="7.83"/><line class="b" x1="46.99" y1="9.12" x2="48.12" y2="7.97"/><line class="b" x1="47.39" y1="9.12" x2="48.39" y2="8.12"/><line class="b" x1="47.81" y1="9.12" x2="48.66" y2="8.27"/><line class="b" x1="48.21" y1="9.12" x2="48.92" y2="8.41"/><line class="b" x1="48.62" y1="9.12" x2="49.19" y2="8.55"/><line class="b" x1="49.03" y1="9.12" x2="49.44" y2="8.69"/><line class="b" x1="49.43" y1="9.12" x2="49.71" y2="8.84"/><line class="b" x1="49.85" y1="9.12" x2="49.98" y2="8.99"/><line class="c" x1="38.71" y1="9.65" x2="38.75" y2="9.61"/><line class="c" x1="39.07" y1="9.68" x2="39.16" y2="9.61"/><line class="c" x1="39.5" y1="9.66" x2="39.56" y2="9.61"/><line class="c" x1="39.94" y1="9.63" x2="39.97" y2="9.61"/><line class="c" x1="40.89" y1="9.5" x2="41.27" y2="9.12"/><line class="c" x1="50.24" y1="9.13" x2="50.25" y2="9.12"/><line class="c" x1="50.51" y1="9.27" x2="50.66" y2="9.12"/><line class="c" x1="50.76" y1="9.41" x2="51.07" y2="9.12"/><line class="c" x1="51.03" y1="9.56" x2="51.47" y2="9.12"/><line class="c" x1="51.3" y1="9.71" x2="51.88" y2="9.12"/><line class="c" x1="51.56" y1="9.85" x2="52.29" y2="9.12"/><line class="c" x1="51.82" y1="9.99" x2="52.7" y2="9.12"/><line class="c" x1="52.08" y1="10.13" x2="53.11" y2="9.12"/><line class="c" x1="52.43" y1="10.2" x2="53.51" y2="9.12"/><line class="c" x1="52.84" y1="10.2" x2="53.92" y2="9.12"/><line class="c" x1="53.24" y1="10.21" x2="54.33" y2="9.12"/><line class="c" x1="53.64" y1="10.21" x2="54.74" y2="9.12"/><line class="c" x1="54.05" y1="10.21" x2="55.15" y2="9.12"/><line class="c" x1="54.45" y1="10.22" x2="55.55" y2="9.12"/><line class="c" x1="54.85" y1="10.22" x2="55.88" y2="9.21"/><line class="c" x1="55.27" y1="10.22" x2="56.09" y2="9.4"/><line class="c" x1="55.67" y1="10.23" x2="56.37" y2="9.52"/><line class="c" x1="56.07" y1="10.23" x2="56.77" y2="9.52"/><line class="c" x1="56.48" y1="10.23" x2="57.18" y2="9.52"/><line class="c" x1="56.88" y1="10.24" x2="57.59" y2="9.52"/><line class="c" x1="57.28" y1="10.24" x2="58" y2="9.52"/><line class="c" x1="57.69" y1="10.24" x2="58.41" y2="9.52"/><line class="c" x1="58.09" y1="10.26" x2="58.81" y2="9.52"/><line class="c" x1="58.49" y1="10.26" x2="59.22" y2="9.52"/><line class="c" x1="58.89" y1="10.26" x2="59.63" y2="9.52"/><line class="c" x1="59.3" y1="10.27" x2="60.04" y2="9.52"/><line class="c" x1="59.7" y1="10.27" x2="60.45" y2="9.52"/><line class="c" x1="60.1" y1="10.27" x2="60.85" y2="9.52"/><line class="c" x1="60.51" y1="10.28" x2="61.26" y2="9.52"/><line class="c" x1="60.89" y1="10.31" x2="61.67" y2="9.52"/><line class="c" x1="61.28" y1="10.33" x2="62.08" y2="9.52"/><line class="c" x1="61.65" y1="10.35" x2="62.48" y2="9.52"/><line class="c" x1="62.03" y1="10.38" x2="62.89" y2="9.52"/><line class="c" x1="62.42" y1="10.4" x2="63.8" y2="9.02"/><line class="c" x1="62.8" y1="10.44" x2="65.35" y2="7.88"/><line class="c" x1="63.18" y1="10.46" x2="66.43" y2="7.22"/><line class="c" x1="63.57" y1="10.49" x2="66.83" y2="7.22"/><line class="c" x1="63.95" y1="10.51" x2="67.24" y2="7.22"/><line class="c" x1="64.33" y1="10.54" x2="67.65" y2="7.22"/><line class="c" x1="64.72" y1="10.56" x2="68.05" y2="7.22"/><line class="c" x1="65.1" y1="10.59" x2="68.47" y2="7.22"/><line class="c" x1="65.48" y1="10.61" x2="68.87" y2="7.22"/><line class="c" x1="65.87" y1="10.63" x2="69.23" y2="7.28"/><line class="c" x1="66.25" y1="10.66" x2="69.43" y2="7.48"/><line class="c" x1="66.62" y1="10.68" x2="69.63" y2="7.68"/><line class="c" x1="67.02" y1="10.71" x2="69.84" y2="7.89"/><line class="c" x1="67.39" y1="10.73" x2="70.04" y2="8.09"/><line class="c" x1="67.77" y1="10.76" x2="70.25" y2="8.29"/><line class="c" x1="68.16" y1="10.78" x2="70.45" y2="8.5"/><line class="c" x1="68.54" y1="10.82" x2="70.65" y2="8.71"/><line class="c" x1="68.92" y1="10.84" x2="70.86" y2="8.9"/><line class="c" x1="69.31" y1="10.87" x2="71.06" y2="9.11"/><line class="c" x1="69.69" y1="10.89" x2="71.26" y2="9.32"/><line class="c" x1="70.08" y1="10.9" x2="71.47" y2="9.52"/><line class="c" x1="70.47" y1="10.93" x2="71.67" y2="9.72"/><line class="c" x1="70.86" y1="10.94" x2="71.88" y2="9.93"/><line class="c" x1="71.25" y1="10.96" x2="72.08" y2="10.13"/><line class="c" x1="71.64" y1="10.98" x2="72.29" y2="10.33"/><line class="c" x1="72.03" y1="11" x2="72.49" y2="10.54"/><line class="c" x1="72.41" y1="11.01" x2="72.69" y2="10.74"/><line class="c" x1="72.8" y1="11.04" x2="72.9" y2="10.94"/><line class="c" x1="40.7" y1="9.52" x2="41.32" y2="9.44"/><line class="b" x1="41.66" y1="9.12" x2="44.08" y2="6.87"/><polyline class="c" points="52.19 10.2 60.42 10.28 69.78 10.89"/><polyline class="a" points="73 11.05 79.37 11.34 90.08 11.66 99.51 11.87 108.97 12.15 118.6 12.32 130.97 12.66 140.09 12.73 151.95 13.05 162.29 13.22"/><line class="a" x1="16.51" y1="31.74" x2="16.51" y2="9.87"/><line class="a" x1="33.7" y1="31.74" x2="33.7" y2="9.61"/><line class="a" x1="29.78" y1="31.74" x2="29.78" y2="7.02"/><line class="a" x1="24.6" y1="31.74" x2="24.6" y2="8.53"/><polyline class="a" points="19.98 31.74 19.98 9.4 16.51 9.87"/><polyline class="a" points="19.98 9.4 24.6 8.53 29.78 7.02 31.83 7.52 33.7 9.61"/><polyline class="b" points="35.36 9.56 36.42 9.56 37.69 9.51 38.43 9.61"/><line class="b" x1="34.4" y1="9.61" x2="35.36" y2="9.56"/><polyline class="c" points="38.43 9.61 38.96 9.68 39.93 9.65"/><line class="b" x1="44.08" y1="6.87" x2="46.58" y2="7.13"/><line class="c" x1="50.21" y1="9.12" x2="52.19" y2="10.2"/><polyline class="a" points="19.65 33.74 19.65 33.68 19.7 33.57 19.76 33.51 19.87 33.45 20.1 33.45 20.21 33.51 20.27 33.57 20.33 33.68 20.33 33.79 20.27 33.91 20.16 34.08 19.59 34.64 20.38 34.64"/><polyline class="a" points="24.34 33.45 24.96 33.45 24.62 33.91 24.79 33.91 24.91 33.96 24.96 34.02 25.02 34.19 25.02 34.3 24.96 34.47 24.85 34.59 24.68 34.64 24.51 34.64 24.34 34.59 24.27 34.53 24.23 34.42"/><polyline class="a" points="29.93 33.45 29.37 34.25 30.22 34.25"/><line class="a" x1="29.93" y1="33.45" x2="29.93" y2="34.64"/><polyline class="a" points="33.98 33.45 33.42 33.45 33.36 33.96 33.42 33.91 33.59 33.85 33.76 33.85 33.93 33.91 34.04 34.02 34.1 34.19 34.1 34.3 34.04 34.47 33.93 34.59 33.76 34.64 33.59 34.64 33.42 34.59 33.36 34.53 33.3 34.42"/><polyline class="a" points="78.47 33.68 78.58 33.62 78.75 33.45 78.75 34.64"/><polyline class="a" points="80.01 33.45 79.44 34.25 80.29 34.25"/><line class="a" x1="80.01" y1="33.45" x2="80.01" y2="34.64"/><polyline class="a" points="98.64 33.68 98.77 33.62 98.94 33.45 98.94 34.64"/><polyline class="a" points="100.29 33.45 99.73 33.45 99.67 33.96 99.73 33.91 99.9 33.85 100.07 33.85 100.24 33.91 100.35 34.02 100.42 34.19 100.42 34.3 100.35 34.47 100.24 34.59 100.07 34.64 99.9 34.64 99.73 34.59 99.67 34.53 99.62 34.42"/><polyline class="a" points="117.73 33.68 117.84 33.62 118.01 33.45 118.01 34.64"/><polyline class="a" points="119.44 33.62 119.38 33.51 119.21 33.45 119.1 33.45 118.93 33.51 118.82 33.68 118.76 33.96 118.76 34.25 118.82 34.47 118.93 34.59 119.1 34.64 119.16 34.64 119.33 34.59 119.44 34.47 119.5 34.3 119.5 34.25 119.44 34.08 119.33 33.96 119.16 33.91 119.1 33.91 118.93 33.96 118.82 34.08 118.76 34.25"/><polyline class="a" points="139.21 33.68 139.33 33.62 139.5 33.45 139.5 34.64"/><polyline class="a" points="140.41 34.64 140.98 33.45 140.19 33.45"/><polyline class="a" points="151.08 33.68 151.19 33.62 151.36 33.45 151.36 34.64"/><path class="a" d="M152.33,33.45l-.17.06,0,.11v.12l0,.11.12.06.22,0,.17.06.12.11,0,.12v.17l0,.11-.06.06-.17,0h-.23l-.17,0c-.56-.86,1-.43.57-1.09l-.17-.06Z"/><polyline class="a" points="161.45 33.68 161.56 33.62 161.73 33.45 161.73 34.64"/><polyline class="a" points="163.16 33.85 163.1 34.02 162.99 34.13 162.82 34.19 162.76 34.19 162.59 34.13 162.48 34.02 162.41 33.85 162.41 33.79 162.48 33.62 162.59 33.51 162.76 33.45 162.82 33.45 162.99 33.51 163.1 33.62 163.16 33.85 163.16 34.13 163.1 34.42 162.99 34.59 162.82 34.64 162.7 34.64 162.53 34.59 162.48 34.47"/><line class="a" x1="33.7" y1="9.61" x2="34.4" y2="9.61"/><line class="a" x1="24.6" y1="36.35" x2="24.6" y2="40.05"/><line class="a" x1="29.78" y1="36.35" x2="29.78" y2="40.05"/><line class="a" x1="33.7" y1="36.35" x2="33.7" y2="40.05"/><line class="a" x1="79.37" y1="36.35" x2="79.37" y2="40.05"/><line class="a" x1="99.51" y1="36.35" x2="99.51" y2="40.05"/><line class="a" x1="118.6" y1="36.35" x2="118.6" y2="40.05"/><line class="a" x1="140.09" y1="36.35" x2="140.09" y2="40.05"/><line class="a" x1="151.95" y1="36.35" x2="151.95" y2="40.05"/><line class="a" x1="162.29" y1="36.35" x2="162.29" y2="40.05"/><polyline class="a" points="21.76 37.85 21.76 37.82 21.8 37.72 21.84 37.68 21.93 37.63 22.11 37.63 22.2 37.68 22.23 37.72 22.28 37.82 22.28 37.9 22.23 37.99 22.15 38.12 21.71 38.56 22.33 38.56"/><polyline class="a" points="26.06 37.85 26.06 37.82 26.09 37.72 26.14 37.68 26.23 37.63 26.4 37.63 26.5 37.68 26.53 37.72 26.58 37.82 26.58 37.9 26.53 37.99 26.45 38.12 26.01 38.56 26.62 38.56"/><polygon class="a" points="26.97 38.47 26.94 38.52 26.97 38.56 27.02 38.52 26.97 38.47"/><polyline class="a" points="27.38 37.85 27.38 37.82 27.41 37.72 27.46 37.68 27.55 37.63 27.72 37.63 27.82 37.68 27.85 37.72 27.9 37.82 27.9 37.9 27.85 37.99 27.77 38.12 27.33 38.56 27.94 38.56"/><polyline class="a" points="30.76 37.82 30.84 37.77 30.98 37.64 30.98 38.56"/><polygon class="a" points="31.59 38.47 31.55 38.52 31.59 38.56 31.64 38.52 31.59 38.47"/><polyline class="a" points="32.13 38.56 32.57 37.63 31.94 37.63"/><path class="a" d="M88.52,37.64l-.13,0,0,.08v.09l0,.08.08,0,.18,0,.14,0,.08.08,0,.09v.13l0,.08,0,0-.13,0h-.17l-.13,0c-.43-.65.76-.34.44-.83l-.13,0Z"/><polygon class="a" points="89.27 38.47 89.23 38.52 89.27 38.56 89.31 38.52 89.27 38.47"/><polyline class="a" points="89.79 38.56 90.23 37.63 89.62 37.63"/><polygon class="a" points="108.47 37.63 108.35 37.68 108.3 37.77 108.3 37.85 108.35 37.94 108.44 37.99 108.61 38.04 108.74 38.08 108.83 38.16 108.88 38.25 108.88 38.38 108.83 38.47 108.79 38.51 108.66 38.56 108.47 38.56 108.35 38.51 108.3 38.47 108.25 38.38 108.25 38.25 108.3 38.16 108.39 38.08 108.52 38.04 108.69 37.99 108.79 37.94 108.83 37.85 108.83 37.77 108.79 37.68 108.66 37.63 108.47 37.63"/><polygon class="a" points="109.23 38.47 109.18 38.52 109.23 38.56 109.27 38.52 109.23 38.47"/><polyline class="a" points="109.67 37.63 110.15 37.63 109.89 37.99 110.01 37.99 110.11 38.04 110.15 38.08 110.2 38.21 110.2 38.29 110.15 38.43 110.06 38.51 109.93 38.56 109.79 38.56 109.67 38.51 109.62 38.47 109.57 38.38"/><polyline class="a" points="129.63 37.94 129.58 38.08 129.49 38.16 129.36 38.21 129.32 38.21 129.19 38.16 129.1 38.08 129.05 37.94 129.05 37.9 129.1 37.77 129.19 37.69 129.32 37.64 129.36 37.64 129.49 37.69 129.58 37.77 129.63 37.94 129.63 38.16 129.58 38.38 129.49 38.52 129.36 38.56 129.27 38.56 129.14 38.52 129.1 38.43"/><polygon class="a" points="130.02 38.47 129.98 38.52 130.02 38.56 130.07 38.52 130.02 38.47"/><polyline class="a" points="130.46 37.63 130.94 37.63 130.68 37.99 130.81 37.99 130.9 38.04 130.94 38.08 130.99 38.21 130.99 38.29 130.94 38.43 130.86 38.51 130.72 38.56 130.59 38.56 130.46 38.51 130.42 38.47 130.37 38.38"/><polyline class="a" points="145.57 37.63 145.13 37.63 145.1 38.04 145.13 37.99 145.27 37.94 145.4 37.94 145.54 37.99 145.62 38.08 145.67 38.21 145.67 38.29 145.62 38.43 145.54 38.51 145.4 38.56 145.27 38.56 145.13 38.51 145.1 38.47 145.05 38.38"/><polygon class="a" points="146.01 38.47 145.98 38.52 146.01 38.56 146.06 38.52 146.01 38.47"/><polyline class="a" points="146.5 37.82 146.59 37.77 146.72 37.64 146.72 38.56"/><polyline class="a" points="156.37 37.63 155.93 38.25 156.59 38.25"/><line class="a" x1="156.37" y1="37.64" x2="156.37" y2="38.56"/><rect class="a" x="156.86" y="38.48" width="0.07" height="0.07" transform="translate(18.71 122.21) rotate(-45)"/><polyline class="a" points="157.77 37.63 157.33 37.63 157.29 38.04 157.33 37.99 157.47 37.94 157.6 37.94 157.72 37.99 157.82 38.08 157.86 38.21 157.86 38.29 157.82 38.43 157.72 38.51 157.6 38.56 157.47 38.56 157.33 38.51 157.29 38.47 157.25 38.38"/><polyline class="a" points="19.54 43.73 19.48 43.64 19.3 43.52 20.57 43.52"/><polygon class="a" points="20.45 42.92 20.51 42.97 20.57 42.92 20.51 42.89 20.45 42.92"/><polyline class="a" points="19.3 42.08 19.3 42.51 19.84 42.54 19.78 42.51 19.72 42.37 19.72 42.25 19.78 42.12 19.9 42.04 20.09 41.99 20.21 41.99 20.39 42.04 20.51 42.12 20.57 42.25 20.57 42.37 20.51 42.51 20.45 42.54 20.33 42.59"/><polyline class="a" points="23.93 43.7 23.93 43.24 24.42 43.5 24.42 43.38 24.48 43.29 24.54 43.24 24.73 43.2 24.85 43.2 25.03 43.24 25.14 43.33 25.2 43.46 25.2 43.58 25.14 43.7 25.09 43.75 24.97 43.79"/><polygon class="a" points="25.09 42.86 25.14 42.91 25.2 42.86 25.14 42.83 25.09 42.86"/><path class="a" d="M23.93,42v.42l.55,0-.06,0c-.41-.72,1.24-.64.67,0l-.12,0"/><path class="a" d="M29.11,43.29v.42l.54,0-.06,0c-.42-.75,1.29-.6.67,0l-.12,0"/><polygon class="a" points="30.26 42.86 30.32 42.91 30.38 42.86 30.32 42.83 30.26 42.86"/><polygon class="a" points="29.11 42.31 29.17 42.43 29.29 42.48 29.41 42.48 29.52 42.43 29.59 42.36 29.65 42.19 29.71 42.06 29.83 41.97 29.95 41.93 30.14 41.93 30.26 41.97 30.32 42.02 30.38 42.14 30.38 42.31 30.32 42.43 30.26 42.48 30.14 42.52 29.95 42.52 29.83 42.48 29.71 42.4 29.65 42.27 29.59 42.1 29.52 42.02 29.41 41.97 29.29 41.97 29.17 42.02 29.11 42.14 29.11 42.31"/><polyline class="a" points="34.41 43.62 33.14 43.2 33.14 43.79"/><polygon class="a" points="34.29 42.86 34.35 42.91 34.41 42.86 34.35 42.83 34.29 42.86"/><path class="a" d="M33.14,42v.42l.54,0-.06,0c-.42-.75,1.29-.6.67,0l-.12,0"/><polyline class="a" points="98.85 43.5 98.85 43.03 99.33 43.29 99.33 43.16 99.39 43.07 99.45 43.03 99.63 42.98 99.76 42.98 99.94 43.03 100.06 43.12 100.11 43.24 100.11 43.38 100.06 43.5 100 43.55 99.88 43.58"/><polyline class="a" points="99.02 42.19 98.9 42.23 98.85 42.36 98.85 42.43 98.9 42.57 99.08 42.65 99.39 42.69 99.69 42.69 99.94 42.65 100.06 42.57 100.11 42.43 100.11 42.4 100.06 42.27 99.94 42.19 99.76 42.14 99.69 42.14 99.51 42.19 99.39 42.27 99.33 42.4 99.33 42.43 99.39 42.57 99.51 42.65 99.69 42.69"/><polyline class="a" points="117.93 43.79 118.78 44.22 118.78 43.58"/><line class="a" x1="117.93" y1="43.79" x2="119.2" y2="43.79"/><polyline class="a" points="117.93 42.95 118.78 43.38 118.78 42.74"/><line class="a" x1="117.93" y1="42.95" x2="119.2" y2="42.95"/><polygon class="a" points="119.08 42.44 119.14 42.48 119.2 42.44 119.14 42.4 119.08 42.44"/><polyline class="a" points="118.23 42.06 118.17 42.06 118.05 42.02 117.99 41.97 117.93 41.88 117.93 41.73 117.99 41.64 118.05 41.59 118.17 41.55 118.29 41.55 118.42 41.59 118.6 41.68 119.2 42.1 119.2 41.51"/><polyline class="a" points="139.42 43.7 139.42 44.13 139.96 44.17 139.9 44.13 139.84 44.01 139.84 43.88 139.9 43.75 140.02 43.67 140.2 43.62 140.32 43.62 140.51 43.67 140.63 43.75 140.69 43.88 140.69 44.01 140.63 44.13 140.57 44.17 140.45 44.22"/><polyline class="a" points="139.42 43.29 139.42 42.83 139.9 43.07 139.9 42.95 139.96 42.86 140.02 42.83 140.2 42.78 140.32 42.78 140.51 42.83 140.63 42.91 140.69 43.03 140.69 43.16 140.63 43.29 140.57 43.33 140.45 43.37"/><polygon class="a" points="140.57 42.44 140.63 42.48 140.69 42.44 140.63 42.4 140.57 42.44"/><polyline class="a" points="139.6 41.55 139.48 41.59 139.42 41.73 139.42 41.8 139.48 41.93 139.65 42.02 139.96 42.06 140.26 42.06 140.51 42.02 140.63 41.93 140.69 41.8 140.69 41.76 140.63 41.64 140.51 41.55 140.32 41.51 140.26 41.51 140.08 41.55 139.96 41.64 139.9 41.76 139.9 41.8 139.96 41.93 140.08 42.02 140.26 42.06"/><polyline class="a" points="151.28 43.7 151.28 44.13 151.83 44.17 151.77 44.13 151.71 44.01 151.71 43.88 151.77 43.75 151.89 43.67 152.06 43.62 152.18 43.62 152.37 43.67 152.49 43.75 152.55 43.88 152.55 44.01 152.49 44.13 152.43 44.17 152.3 44.22"/><path class="a" d="M151.28,43.16l.06.13.12,0h.12l.12,0,.06-.08.06-.17.06-.12.11-.09.12,0h.18l.12,0,.06,0,.06.12v.17l-.06.13c-.89.42-.44-.71-1.15-.43l-.06.12Z"/><polygon class="a" points="152.43 42.44 152.49 42.48 152.55 42.44 152.49 42.4 152.43 42.44"/><polyline class="a" points="152.55 41.93 151.28 41.51 151.28 42.1"/><polyline class="a" points="161.79 43.69 161.68 43.73 161.62 43.85 161.62 43.94 161.68 44.07 161.85 44.16 162.16 44.19 162.46 44.19 162.71 44.16 162.83 44.07 162.89 43.94 162.89 43.9 162.83 43.78 162.71 43.69 162.53 43.64 162.46 43.64 162.28 43.69 162.16 43.78 162.1 43.9 162.1 43.94 162.16 44.07 162.28 44.16 162.46 44.19"/><path class="a" d="M161.62,43.3v-.46l.48.26V43c.21-.4,1.16-.07.67.38l-.12,0"/><polygon class="a" points="162.77 42.46 162.83 42.51 162.89 42.46 162.83 42.42 162.77 42.46"/><polyline class="a" points="161.91 42.08 161.85 42.08 161.74 42.04 161.68 41.99 161.62 41.91 161.62 41.74 161.68 41.65 161.74 41.62 161.85 41.57 161.97 41.57 162.1 41.62 162.28 41.7 162.89 42.12 162.89 41.53"/><polyline class="a" points="19.59 50.54 19.52 50.46 19.34 50.34 20.61 50.34"/><path class="a" d="M19.34,49.62l.06.13.12,0h.12l.12,0,.06-.08.06-.17.06-.13.11-.09.12,0h.18l.12,0,.06,0,.06.12v.17l-.06.13c-.92.4-.44-.74-1.15-.43l-.06.12Z"/><polyline class="a" points="19.77 48.43 19.95 48.48 20.06 48.56 20.12 48.69 20.12 48.72 20.06 48.86 19.95 48.94 19.77 48.98 19.71 48.98 19.52 48.94 19.4 48.86 19.34 48.72 19.34 48.69 19.4 48.56 19.52 48.48 19.77 48.43 20.06 48.43 20.37 48.48 20.55 48.56 20.61 48.69 20.61 48.77 20.55 48.9 20.43 48.94"/><polygon class="a" points="20.49 48.05 20.55 48.09 20.61 48.05 20.55 48.02 20.49 48.05"/><polyline class="a" points="19.52 47.16 19.4 47.21 19.34 47.33 19.34 47.42 19.4 47.54 19.59 47.63 19.89 47.67 20.18 47.67 20.43 47.63 20.55 47.54 20.61 47.42 20.61 47.38 20.55 47.25 20.43 47.16 20.24 47.12 20.18 47.12 20 47.16 19.89 47.25 19.83 47.38 19.83 47.42 19.89 47.54 20 47.63 20.18 47.67"/><polygon class="a" points="19.34 46.66 19.4 46.78 19.52 46.83 19.64 46.83 19.77 46.78 19.83 46.7 19.89 46.53 19.95 46.4 20.06 46.32 20.18 46.27 20.37 46.27 20.49 46.32 20.55 46.35 20.61 46.49 20.61 46.66 20.55 46.78 20.49 46.83 20.37 46.87 20.18 46.87 20.06 46.83 19.95 46.74 19.89 46.61 19.83 46.44 19.77 46.35 19.64 46.32 19.52 46.32 19.4 46.35 19.34 46.49 19.34 46.66"/><polyline class="a" points="24.23 50.54 24.16 50.46 23.98 50.34 25.25 50.34"/><polyline class="a" points="24.41 49.27 24.58 49.32 24.7 49.41 24.76 49.53 24.76 49.58 24.7 49.7 24.58 49.79 24.41 49.82 24.35 49.82 24.16 49.79 24.04 49.7 23.98 49.58 23.98 49.53 24.04 49.41 24.16 49.32 24.41 49.27 24.7 49.27 25.01 49.32 25.19 49.41 25.25 49.53 25.25 49.62 25.19 49.75 25.07 49.79"/><polygon class="a" points="23.98 48.72 24.04 48.86 24.23 48.94 24.52 48.98 24.7 48.98 25.01 48.94 25.19 48.86 25.25 48.72 25.25 48.64 25.19 48.52 25.01 48.43 24.7 48.39 24.52 48.39 24.23 48.43 24.04 48.52 23.98 48.64 23.98 48.72"/><polygon class="a" points="25.13 48.05 25.19 48.09 25.25 48.05 25.19 48.02 25.13 48.05"/><polygon class="a" points="23.98 47.45 24.04 47.59 24.23 47.67 24.52 47.71 24.7 47.71 25.01 47.67 25.19 47.59 25.25 47.45 25.25 47.38 25.19 47.25 25.01 47.16 24.7 47.12 24.52 47.12 24.23 47.16 24.04 47.25 23.98 47.38 23.98 47.45"/><polyline class="a" points="24.16 46.32 24.04 46.35 23.98 46.49 23.98 46.57 24.04 46.7 24.23 46.78 24.52 46.83 24.82 46.83 25.07 46.78 25.19 46.7 25.25 46.57 25.25 46.53 25.19 46.4 25.07 46.32 24.88 46.27 24.82 46.27 24.64 46.32 24.52 46.4 24.46 46.53 24.46 46.57 24.52 46.7 24.64 46.78 24.82 46.83"/><polyline class="a" points="29.39 50.42 29.33 50.34 29.15 50.21 30.42 50.21"/><polyline class="a" points="29.57 49.15 29.76 49.2 29.88 49.27 29.94 49.41 29.94 49.44 29.88 49.58 29.76 49.66 29.57 49.7 29.51 49.7 29.33 49.66 29.21 49.58 29.15 49.44 29.15 49.41 29.21 49.27 29.33 49.2 29.57 49.15 29.88 49.15 30.17 49.2 30.36 49.27 30.42 49.41 30.42 49.49 30.36 49.62 30.23 49.66"/><polygon class="a" points="29.15 48.6 29.21 48.72 29.39 48.81 29.7 48.86 29.88 48.86 30.17 48.81 30.36 48.72 30.42 48.6 30.42 48.52 30.36 48.39 30.17 48.31 29.88 48.26 29.7 48.26 29.39 48.31 29.21 48.39 29.15 48.52 29.15 48.6"/><polygon class="a" points="30.29 47.93 30.36 47.97 30.42 47.93 30.36 47.88 30.29 47.93"/><polyline class="a" points="30.42 47.42 29.15 46.99 29.15 47.59"/><polyline class="a" points="29.39 46.61 29.33 46.53 29.15 46.4 30.42 46.4"/><polyline class="a" points="33.49 50.53 33.43 50.45 33.25 50.31 34.52 50.31"/><path class="a" d="M33.25,49.59l.06.13.12,0h.12l.12,0,.06-.08.06-.17,0-.12.12-.09.12,0h.18l.12,0,.06,0,.06.13v.16l-.06.13c-.93.41-.42-.71-1.15-.43l-.06.13Z"/><polyline class="a" points="33.68 48.41 33.85 48.45 33.97 48.54 34.03 48.66 34.03 48.71 33.97 48.83 33.85 48.92 33.68 48.96 33.62 48.96 33.43 48.92 33.31 48.83 33.25 48.71 33.25 48.66 33.31 48.54 33.43 48.45 33.68 48.41 33.97 48.41 34.27 48.45 34.46 48.54 34.52 48.66 34.52 48.75 34.46 48.88 34.34 48.92"/><polygon class="a" points="34.4 48.03 34.46 48.08 34.52 48.03 34.46 47.99 34.4 48.03"/><polyline class="a" points="33.25 47.19 33.25 47.61 33.8 47.65 33.74 47.61 33.68 47.48 33.68 47.36 33.74 47.22 33.85 47.14 34.03 47.1 34.15 47.1 34.34 47.14 34.46 47.22 34.52 47.36 34.52 47.48 34.46 47.61 34.4 47.65 34.28 47.7"/><polyline class="a" points="33.68 46.29 33.85 46.34 33.97 46.43 34.03 46.55 34.03 46.59 33.97 46.72 33.85 46.81 33.68 46.84 33.62 46.84 33.43 46.81 33.31 46.72 33.25 46.59 33.25 46.55 33.31 46.43 33.43 46.34 33.68 46.29 33.97 46.29 34.27 46.34 34.46 46.43 34.52 46.55 34.52 46.64 34.46 46.76 34.34 46.81"/><polyline class="a" points="78.98 50.57 78.92 50.48 78.74 50.36 80.01 50.36"/><polygon class="a" points="78.74 49.64 78.8 49.76 78.92 49.81 79.04 49.81 79.17 49.76 79.23 49.68 79.29 49.51 79.35 49.38 79.47 49.3 79.59 49.26 79.77 49.26 79.89 49.3 79.95 49.35 80.01 49.47 80.01 49.64 79.95 49.76 79.89 49.81 79.77 49.85 79.59 49.85 79.47 49.81 79.35 49.73 79.29 49.59 79.23 49.43 79.17 49.35 79.04 49.3 78.92 49.3 78.8 49.35 78.74 49.47 78.74 49.64"/><path class="a" d="M78.74,48.8l.06.12.12,0H79l.12,0,.06-.08.06-.17.06-.12.12-.09.12,0h.17l.12,0,.06,0,.06.13v.17l-.06.12c-.9.42-.44-.71-1.15-.43l-.06.13Z"/><polygon class="a" points="79.89 48.08 79.95 48.11 80.01 48.08 79.95 48.03 79.89 48.08"/><polygon class="a" points="78.74 47.53 78.8 47.65 78.92 47.7 79.04 47.7 79.17 47.65 79.23 47.56 79.29 47.39 79.35 47.27 79.47 47.19 79.59 47.14 79.77 47.14 79.89 47.19 79.95 47.22 80.01 47.36 80.01 47.53 79.95 47.65 79.89 47.7 79.77 47.73 79.59 47.73 79.47 47.7 79.35 47.61 79.29 47.48 79.23 47.31 79.17 47.22 79.04 47.19 78.92 47.19 78.8 47.22 78.74 47.36 78.74 47.53"/><polyline class="a" points="78.74 46.47 79.59 46.89 79.59 46.26"/><line class="a" x1="78.74" y1="46.46" x2="80.01" y2="46.46"/><polyline class="a" points="99.13 50.42 99.07 50.34 98.89 50.21 100.16 50.21"/><polygon class="a" points="98.89 49.49 98.95 49.62 99.07 49.66 99.19 49.66 99.32 49.62 99.38 49.53 99.43 49.36 99.49 49.24 99.61 49.15 99.73 49.11 99.92 49.11 100.04 49.15 100.1 49.2 100.16 49.32 100.16 49.49 100.1 49.62 100.04 49.66 99.92 49.7 99.73 49.7 99.61 49.66 99.49 49.58 99.43 49.44 99.38 49.27 99.32 49.2 99.19 49.15 99.07 49.15 98.95 49.2 98.89 49.32 98.89 49.49"/><polygon class="a" points="98.89 48.64 98.95 48.77 99.07 48.81 99.19 48.81 99.32 48.77 99.38 48.69 99.43 48.52 99.49 48.39 99.61 48.31 99.73 48.26 99.92 48.26 100.04 48.31 100.1 48.34 100.16 48.48 100.16 48.64 100.1 48.77 100.04 48.81 99.92 48.86 99.73 48.86 99.61 48.81 99.49 48.72 99.43 48.6 99.38 48.43 99.32 48.34 99.19 48.31 99.07 48.31 98.95 48.34 98.89 48.48 98.89 48.64"/><polygon class="a" points="100.04 47.93 100.1 47.97 100.16 47.93 100.1 47.88 100.04 47.93"/><polyline class="a" points="99.07 47.04 98.95 47.08 98.89 47.21 98.89 47.29 98.95 47.42 99.13 47.5 99.43 47.54 99.73 47.54 99.98 47.5 100.1 47.42 100.16 47.29 100.16 47.25 100.1 47.12 99.98 47.04 99.79 46.99 99.73 46.99 99.55 47.04 99.43 47.12 99.38 47.25 99.38 47.29 99.43 47.42 99.55 47.5 99.73 47.54"/><polyline class="a" points="99.13 46.61 99.07 46.53 98.89 46.4 100.16 46.4"/><polyline class="a" points="118.22 50.54 118.16 50.46 117.98 50.34 119.25 50.34"/><path class="a" d="M118,49.62l.06.13.12,0h.12l.11,0,.06-.08.06-.17.06-.13.12-.09.12,0H119l.12,0,.06,0,.06.12v.17l-.06.13c-.94.39-.47-.74-1.15-.43l-.06.12Z"/><polygon class="a" points="117.98 48.77 118.04 48.9 118.16 48.94 118.28 48.94 118.39 48.9 118.45 48.81 118.51 48.64 118.57 48.52 118.7 48.43 118.82 48.39 119 48.39 119.12 48.43 119.19 48.48 119.25 48.6 119.25 48.77 119.19 48.9 119.12 48.94 119 48.98 118.82 48.98 118.7 48.94 118.57 48.86 118.51 48.72 118.45 48.56 118.39 48.48 118.28 48.43 118.16 48.43 118.04 48.48 117.98 48.6 117.98 48.77"/><polygon class="a" points="119.12 48.05 119.19 48.09 119.25 48.05 119.19 48.02 119.12 48.05"/><polyline class="a" points="117.98 47.3 118.82 47.71 118.82 47.08"/><line class="a" x1="117.98" y1="47.29" x2="119.25" y2="47.29"/><polyline class="a" points="118.28 46.83 118.22 46.83 118.1 46.78 118.04 46.75 117.98 46.66 117.98 46.49 118.04 46.4 118.1 46.35 118.22 46.32 118.33 46.32 118.45 46.35 118.64 46.44 119.25 46.87 119.25 46.27"/><polyline class="a" points="139.7 50.57 139.64 50.48 139.46 50.36 140.73 50.36"/><polygon class="a" points="139.46 49.64 139.52 49.76 139.64 49.81 139.76 49.81 139.88 49.76 139.94 49.68 140.01 49.51 140.07 49.38 140.18 49.3 140.3 49.26 140.48 49.26 140.6 49.3 140.67 49.35 140.73 49.47 140.73 49.64 140.67 49.76 140.6 49.81 140.48 49.85 140.3 49.85 140.18 49.81 140.07 49.73 140.01 49.59 139.94 49.43 139.88 49.35 139.76 49.3 139.64 49.3 139.52 49.35 139.46 49.47 139.46 49.64"/><path class="a" d="M139.46,48.8l.06.12.12,0h.12l.12,0,.06-.08.06-.17.06-.12.11-.09.12,0h.18l.12,0,.06,0,.06.13v.17l-.06.12c-.91.42-.43-.71-1.15-.43l-.06.13Z"/><polygon class="a" points="140.6 48.08 140.67 48.11 140.73 48.08 140.67 48.03 140.6 48.08"/><polyline class="a" points="139.76 47.7 139.7 47.7 139.58 47.65 139.52 47.61 139.46 47.53 139.46 47.36 139.52 47.27 139.58 47.22 139.7 47.19 139.82 47.19 139.94 47.22 140.13 47.31 140.73 47.73 140.73 47.14"/><polyline class="a" points="139.46 46.47 140.3 46.89 140.3 46.26"/><line class="a" x1="139.46" y1="46.46" x2="140.73" y2="46.46"/><polyline class="a" points="151.56 49.99 151.5 49.91 151.31 49.79 152.59 49.79"/><path class="a" d="M151.31,49.07l.06.13.12,0h.12l.12,0,.06-.08.06-.17.06-.13.12-.09.12,0h.18l.11,0,.06,0,.06.12v.17l-.06.13c-.92.39-.45-.74-1.15-.43l-.06.12Z"/><polygon class="a" points="151.31 48.22 151.38 48.34 151.5 48.39 151.62 48.39 151.74 48.34 151.8 48.26 151.86 48.09 151.93 47.97 152.05 47.88 152.17 47.84 152.35 47.84 152.46 47.88 152.52 47.93 152.58 48.05 152.58 48.22 152.52 48.34 152.46 48.39 152.35 48.43 152.17 48.43 152.05 48.39 151.93 48.31 151.86 48.17 151.8 48.02 151.74 47.93 151.62 47.88 151.5 47.88 151.38 47.93 151.31 48.05 151.31 48.22"/><polygon class="a" points="152.46 47.5 152.52 47.54 152.58 47.5 152.52 47.45 152.46 47.5"/><polyline class="a" points="151.56 47.04 151.5 46.95 151.31 46.83 152.59 46.83"/><polyline class="a" points="161.9 50.54 161.84 50.46 161.66 50.34 162.93 50.34"/><path class="a" d="M161.66,49.62l.06.13.12,0H162l.12,0,.06-.08.06-.17.06-.13.11-.09.12,0h.18l.12,0,.06,0,.06.12v.17l-.06.13c-.92.4-.45-.74-1.15-.43l-.06.12Z"/><polygon class="a" points="161.66 48.77 161.72 48.9 161.84 48.94 161.96 48.94 162.09 48.9 162.15 48.81 162.21 48.64 162.27 48.52 162.38 48.43 162.5 48.39 162.68 48.39 162.81 48.43 162.87 48.48 162.93 48.6 162.93 48.77 162.87 48.9 162.81 48.94 162.68 48.98 162.5 48.98 162.38 48.94 162.27 48.86 162.21 48.72 162.15 48.56 162.09 48.48 161.96 48.43 161.84 48.43 161.72 48.48 161.66 48.6 161.66 48.77"/><polygon class="a" points="162.81 48.05 162.87 48.09 162.93 48.05 162.87 48.02 162.81 48.05"/><polygon class="a" points="161.66 47.45 161.72 47.59 161.9 47.67 162.21 47.71 162.38 47.71 162.68 47.67 162.87 47.59 162.93 47.45 162.93 47.38 162.87 47.25 162.68 47.16 162.38 47.12 162.21 47.12 161.9 47.16 161.72 47.25 161.66 47.38 161.66 47.45"/><polyline class="a" points="161.96 46.83 161.9 46.83 161.78 46.78 161.72 46.75 161.66 46.66 161.66 46.49 161.72 46.4 161.78 46.35 161.9 46.32 162.02 46.32 162.15 46.35 162.32 46.44 162.93 46.87 162.93 46.27"/><polyline class="a" points="33.7 9.61 40.63 9.61 41.12 9.12 55.79 9.12 56.2 9.52 63.12 9.52"/><polyline class="a" points="69.17 7.22 66.25 7.22 63.12 9.52"/><line class="a" x1="69.17" y1="7.22" x2="73" y2="11.05"/><line class="a" x1="40.63" y1="9.61" x2="40.63" y2="31.74"/><line class="a" x1="41.11" y1="9.12" x2="41.11" y2="31.74"/><line class="a" x1="55.79" y1="9.12" x2="55.79" y2="31.74"/><line class="a" x1="56.2" y1="9.52" x2="56.2" y2="31.76"/><line class="a" x1="63.12" y1="9.52" x2="63.12" y2="31.76"/><line class="a" x1="66.25" y1="7.22" x2="66.25" y2="31.76"/><line class="a" x1="69.17" y1="7.22" x2="69.17" y2="31.76"/><line class="a" x1="73" y1="11.05" x2="73" y2="31.76"/><polyline class="a" points="40.58 33.62 40.52 33.51 40.34 33.45 40.23 33.45 40.06 33.51 39.94 33.68 39.89 33.96 39.89 34.25 39.94 34.47 40.06 34.59 40.23 34.64 40.28 34.64 40.45 34.59 40.58 34.47 40.63 34.3 40.63 34.25 40.58 34.08 40.45 33.96 40.28 33.91 40.23 33.91 40.06 33.96 39.94 34.08 39.89 34.25"/><polyline class="a" points="41.28 34.64 41.86 33.45 41.06 33.45"/><path class="a" d="M55.37,33.45l-.17.06,0,.11v.12l0,.11.12.06.22,0,.17.06.12.11,0,.12v.17l0,.11-.06.06-.17,0h-.23l-.17,0c-.56-.86,1-.43.57-1.09l-.17-.06Z"/><polyline class="a" points="57.06 33.85 57.01 34.02 56.89 34.13 56.72 34.19 56.67 34.19 56.5 34.13 56.38 34.02 56.33 33.85 56.33 33.79 56.38 33.62 56.5 33.51 56.67 33.45 56.72 33.45 56.89 33.51 57.01 33.62 57.06 33.85 57.06 34.13 57.01 34.42 56.89 34.59 56.72 34.64 56.61 34.64 56.44 34.59 56.38 34.47"/><polyline class="a" points="62.24 33.68 62.35 33.62 62.52 33.45 62.52 34.64"/><polygon class="a" points="63.55 33.45 63.38 33.51 63.27 33.68 63.21 33.96 63.21 34.13 63.27 34.42 63.38 34.59 63.55 34.64 63.67 34.64 63.84 34.59 63.95 34.42 64.01 34.13 64.01 33.96 63.95 33.68 63.84 33.51 63.67 33.45 63.55 33.45"/><polyline class="a" points="65.62 33.68 65.73 33.62 65.91 33.45 65.91 34.64"/><polyline class="a" points="66.76 33.68 66.88 33.62 67.05 33.45 67.05 34.64"/><polyline class="a" points="68.36 33.68 68.47 33.62 68.64 33.45 68.64 34.64"/><polyline class="a" points="69.39 33.74 69.39 33.68 69.45 33.57 69.5 33.51 69.62 33.45 69.84 33.45 69.96 33.51 70.01 33.57 70.07 33.68 70.07 33.79 70.01 33.91 69.9 34.08 69.32 34.64 70.13 34.64"/><polyline class="a" points="72.14 33.68 72.27 33.62 72.44 33.45 72.44 34.64"/><polyline class="a" points="73.23 33.45 73.86 33.45 73.51 33.91 73.68 33.91 73.79 33.96 73.86 34.02 73.92 34.19 73.92 34.3 73.86 34.47 73.75 34.59 73.57 34.64 73.4 34.64 73.23 34.59 73.17 34.53 73.12 34.42"/><line class="a" x1="40.63" y1="36.35" x2="40.63" y2="40.05"/><line class="a" x1="41.11" y1="36.35" x2="41.11" y2="40.05"/><line class="a" x1="55.79" y1="36.35" x2="55.79" y2="40.05"/><line class="a" x1="56.2" y1="36.35" x2="56.2" y2="40.05"/><line class="a" x1="63.12" y1="36.35" x2="63.12" y2="40.05"/><line class="a" x1="66.25" y1="36.35" x2="66.25" y2="40.05"/><line class="a" x1="69.16" y1="36.35" x2="69.16" y2="40.05"/><line class="a" x1="72.95" y1="36.35" x2="72.95" y2="40.05"/><polyline class="a" points="36.66 37.63 37.15 37.63 36.88 37.99 37.01 37.99 37.1 38.04 37.15 38.08 37.18 38.21 37.18 38.29 37.15 38.43 37.06 38.51 36.93 38.56 36.79 38.56 36.66 38.51 36.62 38.47 36.57 38.38"/><polygon class="a" points="40.85 38.05 40.81 38.1 40.85 38.15 40.9 38.1 40.85 38.05"/><polyline class="a" points="47.65 37.77 47.61 37.69 47.48 37.64 47.39 37.64 47.26 37.69 47.17 37.82 47.12 38.04 47.12 38.25 47.17 38.43 47.26 38.52 47.39 38.56 47.43 38.56 47.56 38.52 47.65 38.43 47.7 38.3 47.7 38.25 47.65 38.12 47.56 38.04 47.43 37.99 47.39 37.99 47.26 38.04 47.17 38.12 47.12 38.25"/><polygon class="a" points="48.05 38.47 48 38.52 48.05 38.56 48.09 38.52 48.05 38.47"/><polyline class="a" points="48.49 37.63 48.97 37.63 48.71 37.99 48.84 37.99 48.93 38.04 48.97 38.08 49.02 38.21 49.02 38.29 48.97 38.43 48.88 38.51 48.75 38.56 48.62 38.56 48.49 38.51 48.44 38.47 48.41 38.38"/><polygon class="a" points="55.98 38.05 55.94 38.1 55.98 38.15 56.02 38.1 55.98 38.05"/><polyline class="a" points="59.36 37.63 59.84 37.63 59.58 37.99 59.7 37.99 59.8 38.04 59.84 38.08 59.88 38.21 59.88 38.29 59.84 38.43 59.75 38.51 59.62 38.56 59.48 38.56 59.36 38.51 59.31 38.47 59.26 38.38"/><polyline class="a" points="63.77 37.82 63.87 37.77 63.99 37.64 63.99 38.56"/><polygon class="a" points="64.61 38.47 64.56 38.52 64.61 38.56 64.65 38.52 64.61 38.47"/><polyline class="a" points="65.4 37.63 64.96 38.25 65.62 38.25"/><line class="a" x1="65.4" y1="37.64" x2="65.4" y2="38.56"/><polyline class="a" points="66.71 37.82 66.8 37.77 66.93 37.64 66.93 38.56"/><polygon class="a" points="67.54 38.47 67.5 38.52 67.54 38.56 67.59 38.52 67.54 38.47"/><polyline class="a" points="67.98 37.63 68.47 37.63 68.2 37.99 68.33 37.99 68.42 38.04 68.47 38.08 68.5 38.21 68.5 38.29 68.47 38.43 68.38 38.51 68.25 38.56 68.11 38.56 67.98 38.51 67.94 38.47 67.89 38.38"/><polyline class="a" points="70.18 37.82 70.27 37.77 70.4 37.64 70.4 38.56"/><polygon class="a" points="71.02 38.47 70.97 38.52 71.02 38.56 71.06 38.52 71.02 38.47"/><polyline class="a" points="71.94 37.77 71.9 37.69 71.77 37.64 71.68 37.64 71.55 37.69 71.46 37.82 71.41 38.04 71.41 38.25 71.46 38.43 71.55 38.52 71.68 38.56 71.72 38.56 71.85 38.52 71.94 38.43 71.99 38.3 71.99 38.25 71.94 38.12 71.85 38.04 71.72 37.99 71.68 37.99 71.55 38.04 71.46 38.12 71.41 38.25"/><polyline class="a" points="75.1 37.85 75.1 37.82 75.14 37.72 75.19 37.68 75.27 37.63 75.45 37.63 75.54 37.68 75.58 37.72 75.63 37.82 75.63 37.9 75.58 37.99 75.49 38.12 75.05 38.56 75.67 38.56"/><polygon class="a" points="76.02 38.47 75.98 38.52 76.02 38.56 76.06 38.52 76.02 38.47"/><path class="a" d="M76.59,37.64l-.13,0,0,.08v.09l0,.08.1,0,.17,0,.14,0,.08.08,0,.09v.13l0,.08,0,0-.12,0h-.18l-.13,0c-.43-.65.76-.34.44-.83l-.12,0Z"/><polyline class="a" points="39.72 44.16 39.66 44.07 39.48 43.94 40.75 43.94"/><polygon class="a" points="39.48 43.18 39.54 43.3 39.72 43.39 40.03 43.44 40.21 43.44 40.5 43.39 40.69 43.3 40.75 43.18 40.75 43.09 40.69 42.97 40.5 42.89 40.21 42.84 40.03 42.84 39.72 42.89 39.54 42.97 39.48 43.09 39.48 43.18"/><polygon class="a" points="40.63 42.51 40.69 42.55 40.75 42.51 40.69 42.46 40.63 42.51"/><polyline class="a" points="39.48 41.65 39.48 42.08 40.03 42.12 39.97 42.08 39.91 41.96 39.91 41.82 39.97 41.7 40.09 41.62 40.27 41.57 40.39 41.57 40.56 41.62 40.69 41.7 40.75 41.82 40.75 41.96 40.69 42.08 40.63 42.12 40.5 42.17"/><polyline class="a" points="41.38 44.16 41.32 44.07 41.14 43.94 42.41 43.94"/><polygon class="a" points="41.14 43.18 41.2 43.3 41.38 43.39 41.69 43.44 41.87 43.44 42.16 43.39 42.35 43.3 42.41 43.18 42.41 43.09 42.35 42.97 42.16 42.89 41.87 42.84 41.69 42.84 41.38 42.89 41.2 42.97 41.14 43.09 41.14 43.18"/><polygon class="a" points="42.29 42.51 42.35 42.55 42.41 42.51 42.35 42.46 42.29 42.51"/><polyline class="a" points="42.41 41.99 41.14 41.57 41.14 42.17"/><polyline class="a" points="54.87 43.52 54.8 43.44 54.62 43.3 55.89 43.3"/><polyline class="a" points="55.89 42.63 54.62 42.2 54.62 42.8"/><polyline class="a" points="56.55 44.16 56.49 44.07 56.31 43.94 57.58 43.94"/><polyline class="a" points="57.58 43.27 56.31 42.84 56.31 43.44"/><polygon class="a" points="57.45 42.51 57.52 42.55 57.58 42.51 57.52 42.46 57.45 42.51"/><polyline class="a" points="56.61 42.12 56.55 42.12 56.43 42.08 56.37 42.04 56.31 41.96 56.31 41.79 56.37 41.7 56.43 41.65 56.55 41.62 56.67 41.62 56.79 41.65 56.97 41.74 57.58 42.17 57.58 41.57"/><polyline class="a" points="62.81 44.17 62.77 44.17 62.64 44.13 62.58 44.1 62.52 44.01 62.52 43.84 62.58 43.75 62.64 43.7 62.77 43.67 62.88 43.67 63 43.7 63.18 43.79 63.79 44.22 63.79 43.62"/><polygon class="a" points="62.52 43.12 62.58 43.24 62.77 43.33 63.06 43.37 63.24 43.37 63.55 43.33 63.73 43.24 63.79 43.12 63.79 43.03 63.73 42.91 63.55 42.83 63.24 42.78 63.06 42.78 62.77 42.83 62.58 42.91 62.52 43.03 62.52 43.12"/><polygon class="a" points="63.67 42.44 63.73 42.48 63.79 42.44 63.73 42.4 63.67 42.44"/><polyline class="a" points="62.81 42.06 62.77 42.06 62.64 42.02 62.58 41.97 62.52 41.88 62.52 41.73 62.58 41.64 62.64 41.59 62.77 41.55 62.88 41.55 63 41.59 63.18 41.68 63.79 42.1 63.79 41.51"/><polyline class="a" points="65.95 44.17 65.89 44.17 65.77 44.13 65.71 44.1 65.65 44.01 65.65 43.84 65.71 43.75 65.77 43.7 65.89 43.67 66.01 43.67 66.12 43.7 66.31 43.79 66.92 44.22 66.92 43.62"/><polyline class="a" points="65.89 43.24 65.83 43.16 65.65 43.03 66.92 43.03"/><polygon class="a" points="66.8 42.44 66.86 42.48 66.92 42.44 66.86 42.4 66.8 42.44"/><polyline class="a" points="65.83 41.55 65.71 41.59 65.65 41.73 65.65 41.8 65.71 41.93 65.89 42.02 66.19 42.06 66.49 42.06 66.73 42.02 66.86 41.93 66.92 41.8 66.92 41.76 66.86 41.64 66.73 41.55 66.55 41.51 66.49 41.51 66.31 41.55 66.19 41.64 66.12 41.76 66.12 41.8 66.19 41.93 66.31 42.02 66.49 42.06"/><polyline class="a" points="68.87 44.17 68.81 44.17 68.69 44.13 68.63 44.1 68.57 44.01 68.57 43.84 68.63 43.75 68.69 43.7 68.81 43.67 68.93 43.67 69.04 43.7 69.23 43.79 69.84 44.22 69.84 43.62"/><polyline class="a" points="68.87 43.33 68.81 43.33 68.69 43.29 68.63 43.24 68.57 43.16 68.57 42.98 68.63 42.91 68.69 42.86 68.81 42.83 68.93 42.83 69.04 42.86 69.23 42.95 69.84 43.38 69.84 42.78"/><polygon class="a" points="69.72 42.44 69.78 42.48 69.84 42.44 69.78 42.4 69.72 42.44"/><path class="a" d="M68.57,41.89l.06.13.12,0h.12L69,42l.06-.08.06-.17.06-.12.12-.09.12,0h.18l.12,0,.06,0,.06.13v.16l-.06.13c-.9.42-.47-.71-1.15-.43l-.06.13Z"/><polyline class="a" points="72.64 44.17 72.58 44.17 72.47 44.13 72.41 44.1 72.35 44.01 72.35 43.84 72.41 43.75 72.47 43.7 72.58 43.67 72.71 43.67 72.83 43.7 73.01 43.79 73.62 44.22 73.62 43.62"/><polyline class="a" points="72.35 42.95 73.19 43.38 73.19 42.74"/><line class="a" x1="72.35" y1="42.95" x2="73.62" y2="42.95"/><polygon class="a" points="73.5 42.44 73.56 42.48 73.62 42.44 73.56 42.4 73.5 42.44"/><polyline class="a" points="72.35 41.59 72.35 42.02 72.89 42.06 72.83 42.02 72.77 41.88 72.77 41.76 72.83 41.64 72.95 41.55 73.13 41.51 73.26 41.51 73.44 41.55 73.56 41.64 73.62 41.76 73.62 41.88 73.56 42.02 73.5 42.06 73.38 42.1"/><polyline class="a" points="79.07 44.17 79.01 44.17 78.89 44.13 78.83 44.1 78.76 44.01 78.76 43.84 78.83 43.75 78.89 43.7 79.01 43.67 79.13 43.67 79.25 43.7 79.42 43.79 80.03 44.22 80.03 43.62"/><polyline class="a" points="80.03 43.2 78.76 42.78 78.76 43.38"/><polygon class="a" points="79.91 42.44 79.97 42.48 80.03 42.44 79.97 42.4 79.91 42.44"/><polyline class="a" points="79.07 42.06 79.01 42.06 78.89 42.02 78.83 41.97 78.76 41.88 78.76 41.73 78.83 41.64 78.89 41.59 79.01 41.55 79.13 41.55 79.25 41.59 79.42 41.68 80.03 42.1 80.03 41.51"/><polyline class="a" points="39.83 50.53 39.77 50.45 39.6 50.31 40.86 50.31"/><polygon class="a" points="39.6 49.59 39.65 49.73 39.77 49.76 39.89 49.76 40.02 49.73 40.08 49.64 40.14 49.47 40.2 49.35 40.32 49.26 40.44 49.21 40.63 49.21 40.75 49.26 40.81 49.3 40.86 49.43 40.86 49.59 40.81 49.73 40.75 49.76 40.63 49.81 40.44 49.81 40.32 49.76 40.2 49.68 40.14 49.55 40.08 49.38 40.02 49.3 39.89 49.26 39.77 49.26 39.65 49.3 39.6 49.43 39.6 49.59"/><polyline class="a" points="40.02 48.41 40.2 48.45 40.32 48.54 40.38 48.66 40.38 48.71 40.32 48.83 40.2 48.92 40.02 48.96 39.95 48.96 39.77 48.92 39.65 48.83 39.6 48.71 39.6 48.66 39.65 48.54 39.77 48.45 40.02 48.41 40.32 48.41 40.63 48.45 40.81 48.54 40.86 48.66 40.86 48.75 40.81 48.88 40.69 48.92"/><polygon class="a" points="40.75 48.03 40.81 48.08 40.86 48.03 40.81 47.99 40.75 48.03"/><polyline class="a" points="39.6 47.19 39.6 47.61 40.14 47.65 40.08 47.61 40.02 47.48 40.02 47.36 40.08 47.22 40.2 47.14 40.38 47.1 40.5 47.1 40.69 47.14 40.81 47.22 40.86 47.36 40.86 47.48 40.81 47.61 40.75 47.65 40.63 47.7"/><polyline class="a" points="40.02 46.29 40.2 46.34 40.32 46.43 40.38 46.55 40.38 46.59 40.32 46.72 40.2 46.81 40.02 46.84 39.95 46.84 39.77 46.81 39.65 46.72 39.6 46.59 39.6 46.55 39.65 46.43 39.77 46.34 40.02 46.29 40.32 46.29 40.63 46.34 40.81 46.43 40.86 46.55 40.86 46.64 40.81 46.76 40.69 46.81"/><polyline class="a" points="41.51 50.42 41.44 50.34 41.26 50.21 42.53 50.21"/><polygon class="a" points="41.26 49.49 41.32 49.62 41.44 49.66 41.57 49.66 41.69 49.62 41.75 49.53 41.81 49.36 41.87 49.24 41.99 49.15 42.12 49.11 42.3 49.11 42.41 49.15 42.47 49.2 42.53 49.32 42.53 49.49 42.47 49.62 42.41 49.66 42.3 49.7 42.12 49.7 41.99 49.66 41.87 49.58 41.81 49.44 41.75 49.27 41.69 49.2 41.57 49.15 41.44 49.15 41.32 49.2 41.26 49.32 41.26 49.49"/><polyline class="a" points="41.69 48.31 41.87 48.35 41.99 48.43 42.05 48.56 42.05 48.6 41.99 48.72 41.87 48.81 41.69 48.86 41.63 48.86 41.44 48.81 41.32 48.72 41.26 48.6 41.26 48.56 41.32 48.43 41.44 48.35 41.69 48.31 41.99 48.31 42.3 48.35 42.47 48.43 42.53 48.56 42.53 48.64 42.47 48.77 42.36 48.81"/><polygon class="a" points="42.41 47.93 42.47 47.97 42.53 47.93 42.47 47.88 42.41 47.93"/><path class="a" d="M41.26,47.38l.06.12.12,0h.12l.12,0,.06-.08.06-.17.06-.12L42,47l.12,0h.18l.11,0,.06,0,.06.13v.17l-.06.12c-.88.42-.45-.72-1.15-.43l-.06.13Z"/><polyline class="a" points="41.51 46.61 41.44 46.53 41.26 46.4 42.53 46.4"/><polyline class="a" points="54.96 50.42 54.9 50.34 54.72 50.21 55.99 50.21"/><polygon class="a" points="54.72 49.49 54.78 49.62 54.9 49.66 55.02 49.66 55.15 49.62 55.19 49.53 55.26 49.36 55.32 49.24 55.44 49.15 55.56 49.11 55.74 49.11 55.87 49.15 55.93 49.2 55.99 49.32 55.99 49.49 55.93 49.62 55.87 49.66 55.74 49.7 55.56 49.7 55.44 49.66 55.32 49.58 55.26 49.44 55.19 49.27 55.15 49.2 55.02 49.15 54.9 49.15 54.78 49.2 54.72 49.32 54.72 49.49"/><polyline class="a" points="55.15 48.31 55.32 48.35 55.44 48.43 55.5 48.56 55.5 48.6 55.44 48.72 55.32 48.81 55.15 48.86 55.09 48.86 54.9 48.81 54.78 48.72 54.72 48.6 54.72 48.56 54.78 48.43 54.9 48.35 55.15 48.31 55.44 48.31 55.74 48.35 55.93 48.43 55.99 48.56 55.99 48.64 55.93 48.77 55.8 48.81"/><polygon class="a" points="55.87 47.93 55.93 47.97 55.99 47.93 55.93 47.88 55.87 47.93"/><path class="a" d="M54.72,47.38l.06.12.12,0H55l.12,0,0-.08.06-.17.06-.12.12-.09.12,0h.18l.12,0,.06,0,.06.13v.17l-.06.12c-.91.42-.45-.72-1.15-.43l-.06.13Z"/><polyline class="a" points="54.96 46.61 54.9 46.53 54.72 46.4 55.99 46.4"/><polyline class="a" points="56.81 50.53 56.75 50.45 56.56 50.31 57.83 50.31"/><path class="a" d="M56.56,49.59l.06.13.12,0h.11l.12,0,.06-.08.06-.17.06-.12.12-.09.12,0h.18l.12,0,.06,0,.06.13v.16l-.06.13c-.9.42-.46-.71-1.15-.43l-.06.13Z"/><polyline class="a" points="56.98 48.41 57.16 48.45 57.28 48.54 57.34 48.66 57.34 48.71 57.28 48.83 57.16 48.92 56.98 48.96 56.92 48.96 56.75 48.92 56.62 48.83 56.56 48.71 56.56 48.66 56.62 48.54 56.75 48.45 56.98 48.41 57.28 48.41 57.59 48.45 57.77 48.54 57.83 48.66 57.83 48.75 57.77 48.88 57.65 48.92"/><polygon class="a" points="57.71 48.03 57.77 48.08 57.83 48.03 57.77 47.99 57.71 48.03"/><polyline class="a" points="56.56 47.19 56.56 47.61 57.1 47.65 57.04 47.61 56.98 47.48 56.98 47.36 57.04 47.22 57.16 47.14 57.34 47.1 57.47 47.1 57.65 47.14 57.77 47.22 57.83 47.36 57.83 47.48 57.77 47.61 57.71 47.65 57.59 47.7"/><polyline class="a" points="56.98 46.29 57.16 46.34 57.28 46.43 57.34 46.55 57.34 46.59 57.28 46.72 57.16 46.81 56.98 46.84 56.92 46.84 56.75 46.81 56.62 46.72 56.56 46.59 56.56 46.55 56.62 46.43 56.75 46.34 56.98 46.29 57.28 46.29 57.59 46.34 57.77 46.43 57.83 46.55 57.83 46.64 57.77 46.76 57.65 46.81"/><polyline class="a" points="62.96 50.53 62.9 50.45 62.72 50.31 63.99 50.31"/><path class="a" d="M62.72,49.59l.06.13.12,0H63l.11,0,.06-.08.06-.17.06-.12.12-.09.12,0h.18l.12,0,.06,0,.06.13v.16l-.06.13c-.9.42-.47-.71-1.15-.43l-.06.13Z"/><polyline class="a" points="63.13 48.41 63.31 48.45 63.44 48.54 63.5 48.66 63.5 48.71 63.44 48.83 63.31 48.92 63.13 48.96 63.07 48.96 62.9 48.92 62.78 48.83 62.72 48.71 62.72 48.66 62.78 48.54 62.9 48.45 63.13 48.41 63.44 48.41 63.74 48.45 63.93 48.54 63.99 48.66 63.99 48.75 63.93 48.88 63.8 48.92"/><polygon class="a" points="63.87 48.03 63.93 48.08 63.99 48.03 63.93 47.99 63.87 48.03"/><polyline class="a" points="62.72 47.19 62.72 47.61 63.25 47.65 63.19 47.61 63.13 47.48 63.13 47.36 63.19 47.22 63.31 47.14 63.5 47.1 63.62 47.1 63.8 47.14 63.93 47.22 63.99 47.36 63.99 47.48 63.93 47.61 63.87 47.65 63.74 47.7"/><polyline class="a" points="63.13 46.29 63.31 46.34 63.44 46.43 63.5 46.55 63.5 46.59 63.44 46.72 63.31 46.81 63.13 46.84 63.07 46.84 62.9 46.81 62.78 46.72 62.72 46.59 62.72 46.55 62.78 46.43 62.9 46.34 63.13 46.29 63.44 46.29 63.74 46.34 63.93 46.43 63.99 46.55 63.99 46.64 63.93 46.76 63.8 46.81"/><polyline class="a" points="66.11 50.53 66.05 50.45 65.87 50.31 67.14 50.31"/><polyline class="a" points="66.28 49.26 66.47 49.3 66.59 49.38 66.65 49.51 66.65 49.55 66.59 49.68 66.47 49.76 66.28 49.81 66.22 49.81 66.05 49.76 65.93 49.68 65.87 49.55 65.87 49.51 65.93 49.38 66.05 49.3 66.28 49.26 66.59 49.26 66.89 49.3 67.08 49.38 67.14 49.51 67.14 49.59 67.08 49.73 66.95 49.76"/><polygon class="a" points="65.87 48.71 65.93 48.83 66.11 48.92 66.41 48.96 66.59 48.96 66.89 48.92 67.08 48.83 67.14 48.71 67.14 48.63 67.08 48.49 66.89 48.41 66.59 48.37 66.41 48.37 66.11 48.41 65.93 48.49 65.87 48.63 65.87 48.71"/><polygon class="a" points="67.02 48.03 67.08 48.08 67.14 48.03 67.08 47.99 67.02 48.03"/><polyline class="a" points="65.87 47.19 65.87 47.61 66.41 47.65 66.34 47.61 66.28 47.48 66.28 47.36 66.34 47.22 66.47 47.14 66.65 47.1 66.77 47.1 66.95 47.14 67.08 47.22 67.14 47.36 67.14 47.48 67.08 47.61 67.02 47.65 66.89 47.7"/><polyline class="a" points="66.28 46.29 66.47 46.34 66.59 46.43 66.65 46.55 66.65 46.59 66.59 46.72 66.47 46.81 66.28 46.84 66.22 46.84 66.05 46.81 65.93 46.72 65.87 46.59 65.87 46.55 65.93 46.43 66.05 46.34 66.28 46.29 66.59 46.29 66.89 46.34 67.08 46.43 67.14 46.55 67.14 46.64 67.08 46.76 66.95 46.81"/><polyline class="a" points="69.08 50.53 69.02 50.45 68.84 50.31 70.11 50.31"/><polyline class="a" points="69.26 49.26 69.45 49.3 69.57 49.38 69.63 49.51 69.63 49.55 69.57 49.68 69.45 49.76 69.26 49.81 69.2 49.81 69.02 49.76 68.9 49.68 68.84 49.55 68.84 49.51 68.9 49.38 69.02 49.3 69.26 49.26 69.57 49.26 69.86 49.3 70.05 49.38 70.11 49.51 70.11 49.59 70.05 49.73 69.92 49.76"/><polygon class="a" points="68.83 48.71 68.9 48.83 69.08 48.92 69.39 48.96 69.57 48.96 69.86 48.92 70.04 48.83 70.11 48.71 70.11 48.63 70.04 48.49 69.86 48.41 69.57 48.37 69.39 48.37 69.08 48.41 68.9 48.49 68.83 48.63 68.83 48.71"/><polygon class="a" points="69.98 48.03 70.04 48.08 70.11 48.03 70.04 47.99 69.98 48.03"/><polyline class="a" points="68.83 47.19 68.83 47.61 69.39 47.65 69.32 47.61 69.26 47.48 69.26 47.36 69.32 47.22 69.45 47.14 69.63 47.1 69.75 47.1 69.92 47.14 70.04 47.22 70.11 47.36 70.11 47.48 70.04 47.61 69.98 47.65 69.86 47.7"/><polyline class="a" points="69.26 46.29 69.45 46.34 69.57 46.43 69.63 46.55 69.63 46.59 69.57 46.72 69.45 46.81 69.26 46.84 69.2 46.84 69.02 46.81 68.9 46.72 68.84 46.59 68.84 46.55 68.9 46.43 69.02 46.34 69.26 46.29 69.57 46.29 69.86 46.34 70.05 46.43 70.11 46.55 70.11 46.64 70.05 46.76 69.92 46.81"/><polyline class="a" points="72.79 50.54 72.73 50.46 72.55 50.34 73.82 50.34"/><path class="a" d="M72.55,49.62l.06.13.12,0h.12l.12,0,.06-.08.06-.17.06-.13.11-.09.12,0h.18l.12,0,.06,0,.06.12v.17l-.06.13c-.92.4-.45-.74-1.15-.43l-.06.12Z"/><polygon class="a" points="72.55 48.77 72.61 48.9 72.73 48.94 72.85 48.94 72.97 48.9 73.04 48.81 73.1 48.64 73.16 48.52 73.27 48.43 73.39 48.39 73.57 48.39 73.7 48.43 73.76 48.48 73.82 48.6 73.82 48.77 73.76 48.9 73.7 48.94 73.57 48.98 73.39 48.98 73.27 48.94 73.16 48.86 73.1 48.72 73.04 48.56 72.97 48.48 72.85 48.43 72.73 48.43 72.61 48.48 72.55 48.6 72.55 48.77"/><polygon class="a" points="73.69 48.05 73.76 48.09 73.82 48.05 73.76 48.02 73.69 48.05"/><polyline class="a" points="72.97 47.16 73.16 47.21 73.27 47.3 73.33 47.42 73.33 47.45 73.27 47.59 73.16 47.67 72.97 47.71 72.91 47.71 72.73 47.67 72.61 47.59 72.55 47.45 72.55 47.42 72.61 47.3 72.73 47.21 72.97 47.16 73.27 47.16 73.57 47.21 73.76 47.3 73.82 47.42 73.82 47.5 73.76 47.63 73.63 47.67"/><polygon class="a" points="72.55 46.66 72.61 46.78 72.73 46.83 72.85 46.83 72.97 46.78 73.04 46.7 73.1 46.53 73.16 46.4 73.27 46.32 73.39 46.27 73.57 46.27 73.7 46.32 73.76 46.35 73.82 46.49 73.82 46.66 73.76 46.78 73.7 46.83 73.57 46.87 73.39 46.87 73.27 46.83 73.16 46.74 73.1 46.61 73.04 46.44 72.97 46.35 72.85 46.32 72.73 46.32 72.61 46.35 72.55 46.49 72.55 46.66"/><polygon class="a" points="1.65 42.41 1.65 41.48 1.95 41.48 2.08 41.53 2.17 41.62 2.22 41.7 2.27 41.84 2.27 42.06 2.22 42.19 2.17 42.28 2.08 42.36 1.95 42.41 1.65 42.41"/><line class="a" x1="2.57" y1="41.48" x2="2.57" y2="42.41"/><polyline class="a" points="3.5 41.62 3.42 41.53 3.28 41.48 3.1 41.48 2.98 41.53 2.88 41.62 2.88 41.7 2.93 41.79 2.98 41.84 3.06 41.88 3.32 41.97 3.42 42.01 3.45 42.06 3.5 42.14 3.5 42.27 3.42 42.36 3.28 42.41 3.1 42.41 2.98 42.36 2.88 42.27"/><line class="a" x1="3.99" y1="41.48" x2="3.99" y2="42.41"/><line class="a" x1="3.67" y1="41.48" x2="4.3" y2="41.48"/><polygon class="a" points="4.56 42.33 4.51 42.36 4.56 42.41 4.6 42.36 4.56 42.33"/><polyline class="a" points="5.88 42.41 5.88 41.48 6.29 41.48 6.42 41.53 6.46 41.57 6.51 41.65 6.51 41.79 6.46 41.88 6.42 41.92 6.29 41.97 5.88 41.97"/><polyline class="a" points="6.81 42.41 6.81 41.48 7.21 41.48 7.35 41.53 7.38 41.57 7.43 41.65 7.43 41.75 7.38 41.84 7.35 41.88 7.21 41.92 6.81 41.92"/><line class="a" x1="7.13" y1="41.92" x2="7.43" y2="42.41"/><path class="a" d="M8,41.48l-.09,0-.09.08a.55.55,0,0,0,.17.79h.18l.09,0a.54.54,0,0,0,0-.83l-.09,0Z"/><path class="a" d="M9.34,41.7l0-.08-.08-.09-.09,0H8.94l-.08,0-.09.09,0,.08,0,.13v.22l0,.13a.32.32,0,0,0,.57.09l0-.09v-.13H9.12"/><polyline class="a" points="9.64 42.41 9.64 41.48 10.05 41.48 10.17 41.53 10.22 41.57 10.27 41.65 10.27 41.75 10.22 41.84 10.17 41.88 10.05 41.92 9.64 41.92"/><line class="a" x1="9.95" y1="41.92" x2="10.27" y2="42.41"/><polyline class="a" points="10.57 42.41 10.57 41.48 11.15 41.48"/><line class="a" x1="10.57" y1="41.92" x2="10.93" y2="41.92"/><line class="a" x1="10.57" y1="42.41" x2="11.15" y2="42.41"/><path class="a" d="M12,41.62l-.09-.08-.13,0c-.22,0-.58.08-.32.35l.1,0,.26.08.1,0,0,0,0,.08v.13l-.09.09-.13,0h-.18l-.13,0-.09-.09"/><polyline class="a" points="12.87 41.62 12.78 41.53 12.65 41.48 12.48 41.48 12.34 41.53 12.26 41.62 12.26 41.7 12.29 41.79 12.34 41.84 12.43 41.88 12.7 41.97 12.78 42.01 12.83 42.06 12.87 42.14 12.87 42.27 12.78 42.36 12.65 42.41 12.48 42.41 12.34 42.36 12.26 42.27"/><line class="a" x1="13.19" y1="41.48" x2="13.19" y2="42.41"/><polyline class="a" points="13.41 41.48 13.76 42.41 14.11 41.48"/><polyline class="a" points="14.2 42.41 14.55 41.48 14.91 42.41"/><line class="a" x1="14.33" y1="42.1" x2="14.77" y2="42.1"/><path class="a" d="M2,43l-.09.09a1,1,0,0,0,0,1.23l.09.09"/><line class="a" x1="2.27" y1="43.51" x2="2.27" y2="44.13"/><polyline class="a" points="2.27 43.69 2.39 43.56 2.49 43.51 2.62 43.51 2.71 43.56 2.74 43.69 2.74 44.13"/><polyline class="a" points="2.75 43.69 2.88 43.56 2.98 43.51 3.1 43.51 3.2 43.56 3.23 43.69 3.23 44.13"/><path class="a" d="M3.55,43l.09.09a1,1,0,0,1,0,1.23l-.09.09"/><polygon class="a" points="1.65 37.57 1.65 36.65 1.95 36.65 2.09 36.7 2.17 36.78 2.22 36.87 2.27 37 2.27 37.22 2.22 37.35 2.17 37.44 2.09 37.54 1.95 37.57 1.65 37.57"/><line class="a" x1="2.57" y1="36.65" x2="2.57" y2="37.57"/><path class="a" d="M3.5,36.78l-.09-.08-.13,0H3.1L3,36.7l-.1.08v.09l0,.1,0,0,.08,0,.26.08c.3.11.27.51-.22.44l-.12,0-.1-.1"/><line class="a" x1="3.99" y1="36.65" x2="3.99" y2="37.57"/><line class="a" x1="3.67" y1="36.65" x2="4.3" y2="36.65"/><polygon class="a" points="4.56 37.49 4.51 37.54 4.56 37.57 4.6 37.54 4.56 37.49"/><polyline class="a" points="5.88 37.57 5.88 36.65 6.29 36.65 6.42 36.7 6.46 36.73 6.51 36.83 6.51 36.96 6.46 37.05 6.42 37.09 6.29 37.13 5.88 37.13"/><polyline class="a" points="6.69 37.57 7.03 36.65 7.38 37.57"/><line class="a" x1="6.81" y1="37.27" x2="7.26" y2="37.27"/><polyline class="a" points="7.62 37.57 7.62 36.65 8.01 36.65 8.14 36.7 8.19 36.73 8.23 36.83 8.23 36.91 8.19 37 8.14 37.05 8.01 37.09 7.62 37.09"/><line class="a" x1="7.92" y1="37.09" x2="8.23" y2="37.57"/><polyline class="a" points="8.5 37.57 9.12 36.65 8.5 36.65"/><line class="a" x1="8.5" y1="37.57" x2="9.12" y2="37.57"/><line class="a" x1="9.42" y1="36.65" x2="9.42" y2="37.57"/><polyline class="a" points="9.64 37.57 10 36.65 10.35 37.57"/><line class="a" x1="9.78" y1="37.27" x2="10.22" y2="37.27"/><polyline class="a" points="10.57 36.65 10.57 37.57 11.1 37.57"/><polyline class="a" points="11.33 37.57 11.33 36.65 11.9 36.65"/><line class="a" x1="11.33" y1="37.09" x2="11.67" y2="37.09"/><line class="a" x1="11.33" y1="37.57" x2="11.9" y2="37.57"/><path class="a" d="M2,38.2l-.09.09a1,1,0,0,0,0,1.23l.09.1"/><line class="a" x1="2.27" y1="38.69" x2="2.27" y2="39.3"/><polyline class="a" points="2.27 38.86 2.39 38.72 2.49 38.69 2.62 38.69 2.71 38.72 2.74 38.86 2.74 39.3"/><polyline class="a" points="2.75 38.86 2.88 38.72 2.98 38.69 3.1 38.69 3.2 38.72 3.23 38.86 3.23 39.3"/><path class="a" d="M3.55,38.2l.09.09a1,1,0,0,1,0,1.23l-.09.1"/><polyline class="a" points="1.65 33.7 2 34.63 2.35 33.7"/><polyline class="a" points="2.57 34.63 2.57 33.7 3.15 33.7"/><line class="a" x1="2.57" y1="34.14" x2="2.93" y2="34.14"/><line class="a" x1="2.57" y1="34.63" x2="3.15" y2="34.63"/><polyline class="a" points="3.42 34.63 3.42 33.7 3.81 33.7 3.94 33.74 3.99 33.79 4.03 33.87 4.03 33.96 3.99 34.06 3.94 34.09 3.81 34.14 3.42 34.14"/><line class="a" x1="3.72" y1="34.14" x2="4.03" y2="34.63"/><line class="a" x1="4.52" y1="33.7" x2="4.52" y2="34.63"/><line class="a" x1="4.21" y1="33.7" x2="4.83" y2="33.7"/><line class="a" x1="5.05" y1="33.7" x2="5.05" y2="34.63"/><path class="a" d="M6,33.92l0-.08-.1-.1a.31.31,0,0,0-.48.18l0,.13v.22c0,.26.28.48.53.31L6,34.5l0-.09"/><line class="a" x1="6.33" y1="33.7" x2="6.33" y2="34.63"/><path class="a" d="M1.91,47.05l-.1,0-.08.08a.55.55,0,0,0,.18.79h.17l.08,0a.55.55,0,0,0,0-.83l-.08,0Z"/><line class="a" x1="2.05" y1="47.8" x2="2.3" y2="48.06"/><polyline class="a" points="2.66 47.05 2.66 47.71 2.71 47.84 2.79 47.93 2.93 47.98 3.01 47.98 3.15 47.93 3.23 47.84 3.28 47.71 3.28 47.05"/><path class="a" d="M3.86,47.05l-.09,0-.1.08a.55.55,0,0,0,.18.79H4l.1,0a.57.57,0,0,0,0-.83l-.1,0Z"/><line class="a" x1="4.78" y1="47.05" x2="4.78" y2="47.98"/><line class="a" x1="4.48" y1="47.05" x2="5.09" y2="47.05"/><polyline class="a" points="5.17 47.98 5.53 47.05 5.88 47.98"/><line class="a" x1="5.31" y1="47.67" x2="5.76" y2="47.67"/><line class="a" x1="7.21" y1="47.05" x2="7.21" y2="47.98"/><line class="a" x1="6.91" y1="47.05" x2="7.52" y2="47.05"/><polyline class="a" points="7.74 47.98 7.74 47.05 8.31 47.05"/><line class="a" x1="7.74" y1="47.49" x2="8.09" y2="47.49"/><line class="a" x1="7.74" y1="47.98" x2="8.31" y2="47.98"/><polyline class="a" points="8.58 47.98 8.58 47.05 8.98 47.05 9.12 47.1 9.16 47.14 9.21 47.22 9.21 47.32 9.16 47.41 9.12 47.45 8.98 47.49 8.58 47.49"/><line class="a" x1="8.89" y1="47.49" x2="9.21" y2="47.98"/><polyline class="a" points="9.51 47.98 9.51 47.05 9.91 47.05 10.05 47.1 10.08 47.14 10.13 47.22 10.13 47.32 10.08 47.41 10.05 47.45 9.91 47.49 9.51 47.49"/><line class="a" x1="9.82" y1="47.49" x2="10.13" y2="47.98"/><polyline class="a" points="10.44 47.98 10.44 47.05 11.01 47.05"/><line class="a" x1="10.44" y1="47.49" x2="10.79" y2="47.49"/><line class="a" x1="10.44" y1="47.98" x2="11.01" y2="47.98"/><polyline class="a" points="11.28 47.98 11.28 47.05 11.9 47.98 11.9 47.05"/><path class="a" d="M12.48,47.05l-.1,0-.08.08a.55.55,0,0,0,.18.79h.17l.08,0a.55.55,0,0,0,0-.83l-.08,0Z"/><path class="a" d="M2,48.6l-.09.09a1,1,0,0,0,0,1.23L2,50"/><line class="a" x1="2.27" y1="49.08" x2="2.27" y2="49.7"/><polyline class="a" points="2.27 49.26 2.39 49.13 2.49 49.08 2.62 49.08 2.71 49.13 2.74 49.26 2.74 49.7"/><polyline class="a" points="2.75 49.26 2.88 49.13 2.98 49.08 3.1 49.08 3.2 49.13 3.23 49.26 3.23 49.7"/><polyline class="a" points="4.96 49.21 4.92 49.13 4.78 49.08 4.65 49.08 4.51 49.13 4.48 49.21 4.51 49.31 4.6 49.35 4.83 49.4 4.92 49.43 4.96 49.53 4.96 49.57 4.92 49.65 4.78 49.7 4.65 49.7 4.51 49.65 4.48 49.57"/><polygon class="a" points="5.31 49.62 5.27 49.65 5.31 49.7 5.36 49.65 5.31 49.62"/><line class="a" x1="5.71" y1="48.77" x2="5.71" y2="49.7"/><polygon class="a" points="6.1 49.62 6.07 49.65 6.1 49.7 6.15 49.65 6.1 49.62"/><line class="a" x1="6.51" y1="49.08" x2="6.51" y2="49.7"/><polyline class="a" points="6.51 49.26 6.64 49.13 6.73 49.08 6.86 49.08 6.95 49.13 6.99 49.26 6.99 49.7"/><polyline class="a" points="6.99 49.26 7.13 49.13 7.21 49.08 7.35 49.08 7.43 49.13 7.48 49.26 7.48 49.7"/><polygon class="a" points="7.87 49.62 7.84 49.65 7.87 49.7 7.92 49.65 7.87 49.62"/><path class="a" d="M8.23,48.6l.08.09a.92.92,0,0,1,0,1.23L8.23,50"/><line class="b" x1="46.59" y1="7.13" x2="50.21" y2="9.12"/><line class="c" x1="41.66" y1="9.12" x2="41.32" y2="9.44"/><line class="b" x1="40.7" y1="9.52" x2="40.17" y2="9.61"/><line class="c" x1="40.17" y1="9.61" x2="39.93" y2="9.65"/><line class="c" x1="69.78" y1="10.89" x2="73" y2="11.05"/><path class="a" d="M40.1,1.61,40,1.51l-.13,0c-.26,0-.57.07-.32.35l.1,0,.26.1L40,2l0,0,0,.09v.13L40,2.36l-.13,0H39.7l-.13,0-.09-.09"/><path class="a" d="M41,1.7l0-.08-.08-.1a.32.32,0,0,0-.49.18l0,.13V2l0,.13,0,.09.09.09.08,0h.18l.09,0L41,2.27l0-.09"/><polyline class="a" points="41.2 2.4 41.55 1.48 41.91 2.4"/><line class="a" x1="41.33" y1="2.09" x2="41.77" y2="2.09"/><polyline class="a" points="42.01 1.48 42.35 2.4 42.7 1.48"/><path class="a" d="M43.15,1.48l-.1,0-.08.1a.55.55,0,0,0,.18.79h.17l.08,0a.56.56,0,0,0,0-.84l-.08,0Z"/><line class="a" x1="43.9" y1="1.87" x2="44.69" y2="1.87"/><line class="a" x1="43.9" y1="2.14" x2="44.69" y2="2.14"/><polyline class="a" points="45.05 1.7 45.05 1.65 45.09 1.56 45.13 1.51 45.23 1.48 45.4 1.48 45.49 1.51 45.53 1.56 45.58 1.65 45.58 1.73 45.53 1.83 45.45 1.97 45.01 2.4 45.62 2.4"/><polygon class="a" points="45.97 2.31 45.94 2.35 45.97 2.4 46.02 2.35 45.97 2.31"/><polyline class="a" points="46.38 1.7 46.38 1.65 46.41 1.56 46.46 1.51 46.55 1.48 46.73 1.48 46.82 1.51 46.87 1.56 46.9 1.65 46.9 1.73 46.87 1.83 46.77 1.97 46.33 2.4 46.95 2.4"/><polyline class="a" points="47.34 1.65 47.44 1.61 47.57 1.48 47.57 2.4"/><line class="a" x1="49.08" y1="1.78" x2="49.08" y2="2.4"/><polyline class="a" points="49.08 1.96 49.2 1.83 49.3 1.78 49.43 1.78 49.52 1.83 49.55 1.96 49.55 2.4"/><polyline class="a" points="49.55 1.96 49.69 1.83 49.77 1.78 49.91 1.78 50.01 1.83 50.04 1.96 50.04 2.4"/><line class="a" x1="50.88" y1="1.78" x2="50.88" y2="2.71"/><path class="a" d="M50.88,1.92l-.09-.08c-.59-.3-.59.82,0,.52l.09-.09"/><polyline class="a" points="59.65 4.85 59.65 3.92 60.05 3.92 60.18 3.96 60.23 4 60.27 4.09 60.27 4.17 60.23 4.27 60.18 4.31 60.05 4.36 59.65 4.36"/><line class="a" x1="59.96" y1="4.36" x2="60.28" y2="4.85"/><line class="a" x1="60.58" y1="3.92" x2="60.58" y2="4.85"/><polyline class="a" points="60.93 4.85 60.93 3.92 61.33 3.92 61.46 3.96 61.51 4 61.56 4.09 61.56 4.22 61.51 4.31 61.46 4.36 61.33 4.41 60.93 4.41"/><path class="a" d="M62.08,3.92,62,4l-.09.1a.53.53,0,0,0,.17.79h.17l.1,0,.08-.09,0-.09,0-.13V4.27l0-.13,0-.09L62.35,4l-.1,0Z"/><polyline class="a" points="62.84 4.85 62.84 3.92 63.23 3.92 63.36 3.96 63.41 4 63.45 4.09 63.45 4.17 63.41 4.27 63.36 4.31 63.23 4.36 62.84 4.36"/><line class="a" x1="63.14" y1="4.36" x2="63.45" y2="4.85"/><line class="a" x1="63.94" y1="3.92" x2="63.94" y2="4.85"/><line class="a" x1="63.63" y1="3.92" x2="64.24" y2="3.92"/><path class="a" d="M64.7,3.92l-.1,0-.08.1c-.16.23-.12.7.18.79h.17l.08,0A.55.55,0,0,0,65,4l-.08,0Z"/><line class="a" x1="65.44" y1="4.31" x2="66.23" y2="4.31"/><line class="a" x1="65.44" y1="4.58" x2="66.23" y2="4.58"/><polyline class="a" points="67.13 4.05 67.08 3.96 66.94 3.92 66.86 3.92 66.72 3.96 66.64 4.09 66.59 4.31 66.59 4.53 66.64 4.71 66.72 4.8 66.86 4.85 66.89 4.85 67.03 4.8 67.13 4.71 67.16 4.58 67.16 4.53 67.13 4.41 67.03 4.31 66.89 4.27 66.86 4.27 66.72 4.31 66.64 4.41 66.59 4.53"/><polygon class="a" points="67.52 4.76 67.48 4.8 67.52 4.85 67.56 4.8 67.52 4.76"/><polyline class="a" points="68.44 4.05 68.41 3.96 68.27 3.92 68.17 3.92 68.05 3.96 67.96 4.09 67.92 4.31 67.92 4.53 67.96 4.71 68.05 4.8 68.17 4.85 68.22 4.85 68.36 4.8 68.44 4.71 68.49 4.58 68.49 4.53 68.44 4.41 68.36 4.31 68.22 4.27 68.17 4.27 68.05 4.31 67.96 4.41 67.92 4.53"/><line class="a" x1="69.73" y1="4.22" x2="69.73" y2="4.85"/><polyline class="a" points="69.73 4.41 69.86 4.27 69.95 4.22 70.08 4.22 70.17 4.27 70.22 4.41 70.22 4.85"/><polyline class="a" points="70.22 4.41 70.35 4.27 70.44 4.22 70.57 4.22 70.66 4.27 70.7 4.41 70.7 4.85"/><line class="a" x1="71.53" y1="4.22" x2="71.53" y2="5.15"/><path class="a" d="M71.53,4.36l-.09-.08c-.58-.29-.58.82,0,.52l.09-.09"/><polyline class="b" points="51.9 2.71 38.85 2.71 38.89 2.72"/><line class="b" x1="38.92" y1="2.75" x2="38.94" y2="2.76"/><line class="b" x1="38.98" y1="2.78" x2="39" y2="2.79"/><line class="b" x1="39.03" y1="2.82" x2="39.05" y2="2.83"/><line class="b" x1="39.09" y1="2.86" x2="39.11" y2="2.87"/><line class="b" x1="39.14" y1="2.89" x2="39.16" y2="2.9"/><line class="b" x1="39.2" y1="2.93" x2="39.22" y2="2.94"/><line class="b" x1="39.25" y1="2.97" x2="39.27" y2="2.98"/><line class="b" x1="39.31" y1="3" x2="39.33" y2="3.01"/><line class="b" x1="39.36" y1="3.04" x2="39.38" y2="3.05"/><line class="b" x1="39.42" y1="3.08" x2="39.44" y2="3.09"/><line class="b" x1="39.47" y1="3.11" x2="39.49" y2="3.12"/><line class="b" x1="39.53" y1="3.15" x2="39.55" y2="3.16"/><line class="b" x1="39.58" y1="3.19" x2="39.6" y2="3.2"/><line class="b" x1="39.64" y1="3.22" x2="39.66" y2="3.23"/><line class="b" x1="39.69" y1="3.26" x2="39.71" y2="3.27"/><line class="b" x1="39.75" y1="3.3" x2="39.77" y2="3.31"/><line class="b" x1="39.8" y1="3.33" x2="39.82" y2="3.34"/><line class="b" x1="39.86" y1="3.37" x2="39.88" y2="3.38"/><line class="b" x1="39.92" y1="3.41" x2="39.93" y2="3.42"/><line class="b" x1="39.97" y1="3.44" x2="39.99" y2="3.45"/><line class="b" x1="40.03" y1="3.48" x2="40.04" y2="3.49"/><line class="b" x1="40.08" y1="3.52" x2="40.1" y2="3.53"/><line class="b" x1="40.14" y1="3.55" x2="40.15" y2="3.56"/><line class="b" x1="40.19" y1="3.59" x2="40.21" y2="3.6"/><line class="b" x1="40.25" y1="3.63" x2="40.26" y2="3.64"/><line class="b" x1="40.3" y1="3.66" x2="40.32" y2="3.67"/><line class="b" x1="40.36" y1="3.7" x2="40.37" y2="3.71"/><line class="b" x1="40.41" y1="3.74" x2="40.43" y2="3.75"/><line class="b" x1="40.47" y1="3.77" x2="40.48" y2="3.78"/><line class="b" x1="40.52" y1="3.81" x2="40.54" y2="3.82"/><line class="b" x1="40.58" y1="3.85" x2="40.59" y2="3.86"/><line class="b" x1="40.63" y1="3.88" x2="40.65" y2="3.89"/><line class="b" x1="40.69" y1="3.92" x2="40.7" y2="3.93"/><line class="b" x1="40.74" y1="3.96" x2="40.76" y2="3.97"/><line class="b" x1="40.8" y1="3.99" x2="40.82" y2="4"/><line class="b" x1="40.85" y1="4.03" x2="40.87" y2="4.04"/><line class="b" x1="40.91" y1="4.07" x2="40.93" y2="4.08"/><line class="b" x1="40.96" y1="4.1" x2="40.98" y2="4.11"/><line class="b" x1="41.02" y1="4.14" x2="41.04" y2="4.15"/><line class="b" x1="41.07" y1="4.18" x2="41.09" y2="4.19"/><line class="b" x1="41.13" y1="4.21" x2="41.15" y2="4.22"/><line class="b" x1="41.18" y1="4.25" x2="41.2" y2="4.26"/><line class="b" x1="41.24" y1="4.29" x2="41.26" y2="4.3"/><line class="b" x1="41.29" y1="4.32" x2="41.31" y2="4.33"/><line class="b" x1="41.35" y1="4.36" x2="41.37" y2="4.37"/><line class="b" x1="41.4" y1="4.4" x2="41.42" y2="4.41"/><line class="b" x1="41.46" y1="4.43" x2="41.48" y2="4.44"/><line class="b" x1="41.51" y1="4.47" x2="41.53" y2="4.48"/><line class="b" x1="41.57" y1="4.5" x2="41.59" y2="4.52"/><line class="b" x1="41.61" y1="4.54" x2="41.64" y2="4.55"/><line class="b" x1="41.68" y1="4.58" x2="41.7" y2="4.59"/><line class="b" x1="41.72" y1="4.61" x2="41.75" y2="4.63"/><line class="b" x1="41.79" y1="4.65" x2="41.81" y2="4.66"/><line class="b" x1="41.83" y1="4.69" x2="41.86" y2="4.7"/><line class="b" x1="41.9" y1="4.72" x2="41.92" y2="4.74"/><line class="b" x1="41.94" y1="4.76" x2="41.97" y2="4.77"/><line class="b" x1="42.01" y1="4.8" x2="42.03" y2="4.81"/><line class="b" x1="42.07" y1="4.83" x2="42.08" y2="4.85"/><line class="b" x1="42.12" y1="4.87" x2="42.14" y2="4.88"/><line class="b" x1="42.18" y1="4.91" x2="42.19" y2="4.92"/><line class="b" x1="42.23" y1="4.94" x2="42.25" y2="4.96"/><line class="b" x1="42.29" y1="4.98" x2="42.3" y2="4.99"/><line class="b" x1="42.34" y1="5.02" x2="42.36" y2="5.03"/><line class="b" x1="42.4" y1="5.05" x2="42.41" y2="5.07"/><line class="b" x1="42.45" y1="5.09" x2="42.47" y2="5.1"/><line class="b" x1="42.51" y1="5.13" x2="42.52" y2="5.14"/><line class="b" x1="42.56" y1="5.16" x2="42.58" y2="5.18"/><line class="b" x1="42.62" y1="5.2" x2="42.63" y2="5.21"/><line class="b" x1="42.67" y1="5.24" x2="42.69" y2="5.25"/><line class="b" x1="42.73" y1="5.27" x2="42.74" y2="5.29"/><line class="b" x1="42.78" y1="5.31" x2="42.8" y2="5.32"/><line class="b" x1="42.84" y1="5.35" x2="42.85" y2="5.36"/><line class="b" x1="42.89" y1="5.38" x2="42.91" y2="5.4"/><line class="b" x1="42.95" y1="5.42" x2="42.97" y2="5.43"/><line class="b" x1="43" y1="5.46" x2="43.02" y2="5.47"/><line class="b" x1="43.06" y1="5.49" x2="43.08" y2="5.51"/><line class="b" x1="43.1" y1="5.53" x2="43.13" y2="5.54"/><line class="b" x1="43.17" y1="5.57" x2="43.19" y2="5.58"/><line class="b" x1="43.21" y1="5.6" x2="43.24" y2="5.62"/><line class="b" x1="43.28" y1="5.64" x2="43.3" y2="5.65"/><line class="b" x1="43.32" y1="5.68" x2="43.35" y2="5.69"/><line class="b" x1="43.39" y1="5.71" x2="43.41" y2="5.73"/><line class="b" x1="43.43" y1="5.75" x2="43.46" y2="5.76"/><line class="b" x1="43.5" y1="5.79" x2="43.52" y2="5.8"/><line class="b" x1="43.54" y1="5.82" x2="43.57" y2="5.84"/><line class="b" x1="43.61" y1="5.86" x2="43.63" y2="5.87"/><line class="b" x1="43.65" y1="5.9" x2="43.68" y2="5.91"/><line class="b" x1="43.72" y1="5.93" x2="43.74" y2="5.95"/><line class="b" x1="43.76" y1="5.97" x2="43.79" y2="5.98"/><line class="b" x1="43.83" y1="6.01" x2="43.85" y2="6.02"/><line class="b" x1="43.87" y1="6.04" x2="43.9" y2="6.06"/><line class="b" x1="43.94" y1="6.08" x2="43.96" y2="6.09"/><line class="b" x1="43.98" y1="6.12" x2="44.01" y2="6.13"/><line class="b" x1="44.05" y1="6.15" x2="44.07" y2="6.17"/><line class="b" x1="44.09" y1="6.19" x2="44.12" y2="6.2"/><line class="b" x1="44.16" y1="6.23" x2="44.18" y2="6.24"/><line class="b" x1="44.22" y1="6.26" x2="44.23" y2="6.28"/><line class="b" x1="44.27" y1="6.3" x2="44.29" y2="6.31"/><line class="b" x1="44.33" y1="6.34" x2="44.34" y2="6.35"/><line class="b" x1="44.38" y1="6.37" x2="44.4" y2="6.39"/><line class="b" x1="44.44" y1="6.41" x2="44.45" y2="6.42"/><line class="b" x1="44.48" y1="6.45" x2="44.51" y2="6.46"/><line class="b" x1="44.55" y1="6.48" x2="44.56" y2="6.5"/><line class="b" x1="44.59" y1="6.52" x2="44.62" y2="6.53"/><line class="b" x1="44.66" y1="6.56" x2="44.67" y2="6.57"/><line class="b" x1="44.7" y1="6.59" x2="44.73" y2="6.61"/><line class="b" x1="44.77" y1="6.63" x2="44.78" y2="6.64"/><line class="b" x1="44.81" y1="6.65" x2="44.84" y2="6.68"/><line class="b" x1="44.88" y1="6.69" x2="44.89" y2="6.72"/><line class="b" x1="44.92" y1="6.73" x2="44.95" y2="6.75"/><line class="b" x1="44.99" y1="6.76" x2="45" y2="6.79"/><line class="b" x1="45.03" y1="6.8" x2="45.06" y2="6.83"/><line class="b" x1="45.1" y1="6.84" x2="45.12" y2="6.86"/><line class="b" x1="45.14" y1="6.87" x2="45.17" y2="6.9"/><line class="b" x1="45.21" y1="6.91" x2="45.23" y2="6.94"/><line class="b" x1="45.25" y1="6.95" x2="45.28" y2="6.97"/><line class="b" x1="45.32" y1="6.98" x2="45.34" y2="7.01"/><polyline class="c" points="72.36 5.29 59.65 5.15 59.64 5.18"/><line class="c" x1="59.64" y1="5.19" x2="59.63" y2="5.21"/><line class="c" x1="59.62" y1="5.22" x2="59.62" y2="5.25"/><line class="c" x1="59.6" y1="5.26" x2="59.59" y2="5.29"/><line class="c" x1="59.59" y1="5.3" x2="59.58" y2="5.32"/><line class="c" x1="59.57" y1="5.35" x2="59.57" y2="5.36"/><line class="c" x1="59.55" y1="5.38" x2="59.54" y2="5.4"/><line class="c" x1="59.54" y1="5.42" x2="59.53" y2="5.43"/><line class="c" x1="59.52" y1="5.46" x2="59.52" y2="5.47"/><line class="c" x1="59.51" y1="5.49" x2="59.51" y2="5.51"/><line class="c" x1="59.49" y1="5.53" x2="59.48" y2="5.54"/><line class="c" x1="59.47" y1="5.57" x2="59.47" y2="5.58"/><line class="c" x1="59.46" y1="5.6" x2="59.46" y2="5.62"/><line class="c" x1="59.44" y1="5.64" x2="59.43" y2="5.65"/><line class="c" x1="59.42" y1="5.68" x2="59.42" y2="5.69"/><line class="c" x1="59.41" y1="5.71" x2="59.41" y2="5.73"/><line class="c" x1="59.4" y1="5.75" x2="59.38" y2="5.76"/><line class="c" x1="59.38" y1="5.79" x2="59.37" y2="5.8"/><line class="c" x1="59.36" y1="5.82" x2="59.36" y2="5.84"/><line class="c" x1="59.35" y1="5.86" x2="59.33" y2="5.87"/><line class="c" x1="59.33" y1="5.9" x2="59.32" y2="5.91"/><line class="c" x1="59.31" y1="5.93" x2="59.31" y2="5.96"/><line class="c" x1="59.3" y1="5.97" x2="59.29" y2="5.99"/><line class="c" x1="59.29" y1="6.01" x2="59.27" y2="6.03"/><line class="c" x1="59.26" y1="6.04" x2="59.26" y2="6.07"/><line class="c" x1="59.25" y1="6.08" x2="59.24" y2="6.1"/><line class="c" x1="59.24" y1="6.13" x2="59.22" y2="6.14"/><line class="c" x1="59.21" y1="6.17" x2="59.21" y2="6.18"/><line class="c" x1="59.2" y1="6.2" x2="59.19" y2="6.21"/><line class="c" x1="59.19" y1="6.24" x2="59.18" y2="6.25"/><line class="c" x1="59.16" y1="6.28" x2="59.16" y2="6.29"/><line class="c" x1="59.15" y1="6.31" x2="59.15" y2="6.32"/><line class="c" x1="59.14" y1="6.35" x2="59.13" y2="6.36"/><line class="c" x1="59.11" y1="6.39" x2="59.11" y2="6.4"/><line class="c" x1="59.1" y1="6.42" x2="59.1" y2="6.43"/><line class="c" x1="59.09" y1="6.46" x2="59.08" y2="6.47"/><line class="c" x1="59.07" y1="6.5" x2="59.07" y2="6.51"/><line class="c" x1="59.05" y1="6.53" x2="59.05" y2="6.54"/><line class="c" x1="59.04" y1="6.57" x2="59.03" y2="6.58"/><line class="c" x1="59.03" y1="6.61" x2="59.02" y2="6.62"/><line class="c" x1="59" y1="6.64" x2="59" y2="6.65"/><line class="c" x1="58.99" y1="6.68" x2="58.98" y2="6.69"/><line class="c" x1="58.98" y1="6.72" x2="58.97" y2="6.74"/><line class="c" x1="58.96" y1="6.75" x2="58.96" y2="6.78"/><line class="c" x1="58.94" y1="6.79" x2="58.93" y2="6.81"/><line class="c" x1="58.93" y1="6.83" x2="58.92" y2="6.85"/><line class="c" x1="58.91" y1="6.86" x2="58.91" y2="6.89"/><line class="c" x1="58.89" y1="6.91" x2="58.88" y2="6.92"/><line class="c" x1="58.88" y1="6.95" x2="58.87" y2="6.96"/><line class="c" x1="58.86" y1="6.98" x2="58.86" y2="7"/><line class="c" x1="58.85" y1="7.02" x2="58.85" y2="7.03"/><line class="c" x1="58.83" y1="7.06" x2="58.82" y2="7.07"/><line class="c" x1="58.81" y1="7.09" x2="58.81" y2="7.11"/><line class="c" x1="58.8" y1="7.13" x2="58.8" y2="7.14"/><line class="c" x1="58.78" y1="7.17" x2="58.77" y2="7.18"/><line class="c" x1="58.76" y1="7.2" x2="58.76" y2="7.22"/><line class="c" x1="58.75" y1="7.24" x2="58.75" y2="7.25"/><line class="c" x1="58.74" y1="7.28" x2="58.72" y2="7.29"/><line class="c" x1="58.72" y1="7.31" x2="58.71" y2="7.33"/><line class="c" x1="58.7" y1="7.35" x2="58.7" y2="7.36"/><line class="c" x1="58.69" y1="7.39" x2="58.67" y2="7.4"/><line class="c" x1="58.67" y1="7.42" x2="58.66" y2="7.44"/><line class="c" x1="58.65" y1="7.46" x2="58.65" y2="7.47"/><line class="c" x1="58.64" y1="7.5" x2="58.63" y2="7.52"/><line class="c" x1="58.63" y1="7.53" x2="58.61" y2="7.56"/><line class="c" x1="58.6" y1="7.57" x2="58.6" y2="7.59"/><line class="c" x1="58.59" y1="7.61" x2="58.58" y2="7.63"/><line class="c" x1="58.58" y1="7.64" x2="58.56" y2="7.67"/><line class="c" x1="58.55" y1="7.69" x2="58.55" y2="7.7"/><line class="c" x1="58.54" y1="7.73" x2="58.54" y2="7.74"/><line class="c" x1="58.53" y1="7.77" x2="58.52" y2="7.78"/><line class="c" x1="58.5" y1="7.8" x2="58.5" y2="7.81"/><line class="c" x1="58.49" y1="7.84" x2="58.49" y2="7.85"/><line class="c" x1="58.48" y1="7.88" x2="58.47" y2="7.89"/><line class="c" x1="58.45" y1="7.91" x2="58.45" y2="7.92"/><line class="c" x1="58.44" y1="7.95" x2="58.44" y2="7.96"/><line class="c" x1="58.43" y1="7.99" x2="58.42" y2="8"/><line class="c" x1="58.42" y1="8.02" x2="58.41" y2="8.03"/><line class="c" x1="58.39" y1="8.06" x2="58.39" y2="8.07"/><line class="c" x1="58.38" y1="8.1" x2="58.37" y2="8.11"/><line class="c" x1="58.37" y1="8.13" x2="58.36" y2="8.14"/><line class="c" x1="58.34" y1="8.17" x2="58.34" y2="8.18"/><line class="c" x1="58.33" y1="8.21" x2="58.32" y2="8.22"/><line class="c" x1="58.32" y1="8.24" x2="58.31" y2="8.25"/><line class="c" x1="58.3" y1="8.28" x2="58.3" y2="8.3"/><line class="c" x1="58.28" y1="8.32" x2="58.27" y2="8.34"/><line class="c" x1="58.27" y1="8.35" x2="58.26" y2="8.38"/><line class="c" x1="58.25" y1="8.39" x2="58.25" y2="8.41"/><line class="c" x1="58.23" y1="8.43" x2="58.23" y2="8.45"/><line class="c" x1="58.22" y1="8.47" x2="58.21" y2="8.49"/><line class="c" x1="58.2" y1="8.51" x2="58.2" y2="8.52"/><line class="c" x1="58.19" y1="8.55" x2="58.19" y2="8.56"/><line class="c" x1="58.17" y1="8.58" x2="58.16" y2="8.6"/><line class="c" x1="58.15" y1="8.62" x2="58.15" y2="8.63"/><line class="c" x1="58.14" y1="8.66" x2="58.14" y2="8.67"/><line class="c" x1="58.12" y1="8.69" x2="58.11" y2="8.71"/><line class="c" x1="58.11" y1="8.73" x2="58.1" y2="8.74"/><line class="c" x1="58.09" y1="8.77" x2="58.09" y2="8.78"/><line class="c" x1="58.08" y1="8.8" x2="58.06" y2="8.82"/><line class="c" x1="58.06" y1="8.84" x2="58.05" y2="8.85"/><line class="c" x1="58.04" y1="8.88" x2="58.04" y2="8.89"/><line class="c" x1="58.03" y1="8.91" x2="58.01" y2="8.93"/><line class="c" x1="58.01" y1="8.95" x2="58" y2="8.96"/><line class="c" x1="57.99" y1="8.99" x2="57.99" y2="9"/><line class="c" x1="57.98" y1="9.02" x2="57.97" y2="9.04"/><line class="c" x1="57.97" y1="9.06" x2="57.95" y2="9.08"/><line class="c" x1="57.94" y1="9.1" x2="57.94" y2="9.12"/><line class="c" x1="57.93" y1="9.13" x2="57.92" y2="9.16"/><line class="c" x1="57.92" y1="9.17" x2="57.9" y2="9.19"/><line class="c" x1="57.89" y1="9.21" x2="57.89" y2="9.23"/><line class="c" x1="57.88" y1="9.26" x2="57.88" y2="9.27"/><line class="c" x1="57.87" y1="9.29" x2="57.86" y2="9.3"/><line class="c" x1="57.84" y1="9.33" x2="57.84" y2="9.34"/><line class="c" x1="57.83" y1="9.37" x2="57.83" y2="9.38"/><line class="c" x1="57.82" y1="9.4" x2="57.81" y2="9.41"/><line class="c" x1="57.79" y1="9.44" x2="57.79" y2="9.45"/><line class="c" x1="57.78" y1="9.48" x2="57.78" y2="9.49"/><line class="c" x1="57.77" y1="9.51" x2="57.76" y2="9.52"/><line class="a" x1="16.51" y1="31.74" x2="0.68" y2="31.74"/><line class="a" x1="3.66" y1="30.32" x2="5.9" y2="30.32"/><polygon class="a" points="8.13 30.32 5.89 31.72 5.89 30.32 8.13 30.32"/><line class="a" x1="7.76" y1="30.55" x2="8" y2="30.32"/><line class="a" x1="6.02" y1="31.65" x2="7.34" y2="30.32"/><line class="a" x1="5.89" y1="31.11" x2="6.69" y2="30.32"/><line class="a" x1="5.89" y1="30.47" x2="6.03" y2="30.32"/><line class="a" x1="6.95" y1="31.07" x2="6.2" y2="30.32"/><line class="a" x1="6.54" y1="31.32" x2="5.9" y2="30.66"/><line class="a" x1="6.14" y1="31.57" x2="5.9" y2="31.32"/><line class="a" x1="7.35" y1="30.81" x2="6.86" y2="30.32"/><line class="a" x1="7.75" y1="30.56" x2="7.51" y2="30.32"/><line class="a" x1="3.66" y1="30.32" x2="5.9" y2="31.72"/><path class="a" d="M1.51,28.34l-.11,0-.1.1c-.17.28-.15.79.21.9h.19l.1,0,.11-.1,0-.1L2,29v-.24l0-.15,0-.11-.11-.1-.1,0Z"/><line class="a" x1="1.66" y1="29.2" x2="1.96" y2="29.5"/><line class="a" x1="2.37" y1="28.7" x2="2.37" y2="29.39"/><polyline class="a" points="2.37 28.99 2.42 28.84 2.51 28.75 2.61 28.7 2.77 28.7"/><rect class="a" x="2.98" y="28.36" width="0.07" height="0.07" transform="translate(-19.19 10.44) rotate(-45)"/><line class="a" x1="3.01" y1="28.75" x2="3.01" y2="29.39"/><polyline class="a" points="3.72 28.34 3.61 28.34 3.51 28.39 3.46 28.54 3.46 29.39"/><line class="a" x1="3.32" y1="28.7" x2="3.67" y2="28.7"/><polygon class="a" points="4.06 28.7 4.01 28.75 4.06 28.79 4.12 28.75 4.06 28.7"/><polygon class="a" points="4.06 29.3 4.01 29.34 4.06 29.39 4.12 29.34 4.06 29.3"/><polyline class="a" points="5.67 28.54 5.77 28.49 5.93 28.34 5.93 29.39"/><polygon class="a" points="6.79 28.34 6.63 28.39 6.58 28.49 6.58 28.6 6.63 28.7 6.72 28.75 6.93 28.79 7.08 28.84 7.18 28.94 7.24 29.05 7.24 29.2 7.18 29.3 7.13 29.34 6.98 29.39 6.79 29.39 6.63 29.34 6.58 29.3 6.53 29.2 6.53 29.05 6.58 28.94 6.68 28.84 6.83 28.79 7.03 28.75 7.13 28.7 7.18 28.6 7.18 28.49 7.13 28.39 6.98 28.34 6.79 28.34"/><polygon class="a" points="7.84 28.34 7.69 28.39 7.58 28.54 7.53 28.79 7.53 28.94 7.58 29.2 7.69 29.34 7.84 29.39 7.93 29.39 8.08 29.34 8.19 29.2 8.24 28.94 8.24 28.79 8.19 28.54 8.08 28.39 7.93 28.34 7.84 28.34"/><line class="a" x1="9.64" y1="28.7" x2="9.64" y2="29.39"/><polyline class="a" points="9.64 28.89 9.79 28.75 9.9 28.7 10.05 28.7 10.14 28.75 10.19 28.89 10.19 29.39"/><polyline class="a" points="10.19 28.89 10.35 28.75 10.45 28.7 10.6 28.7 10.7 28.75 10.74 28.89 10.74 29.39"/><polyline class="a" points="12.71 28.84 12.66 28.75 12.5 28.7 12.36 28.7 12.21 28.75 12.16 28.84 12.21 28.94 12.31 28.99 12.56 29.05 12.66 29.1 12.71 29.2 12.71 29.25 12.66 29.34 12.5 29.39 12.36 29.39 12.21 29.34 12.16 29.25"/><rect class="a" x="13.08" y="29.31" width="0.07" height="0.07" transform="translate(-16.91 17.87) rotate(-45)"/><line class="a" x1="13.56" y1="28.34" x2="13.56" y2="29.39"/><rect class="a" x="13.98" y="29.31" width="0.07" height="0.07" transform="translate(-16.64 18.51) rotate(-45)"/><line class="a" x1="14.47" y1="28.7" x2="14.47" y2="29.39"/><polyline class="a" points="14.47 28.89 14.62 28.75 14.71 28.7 14.87 28.7 14.97 28.75 15.02 28.89 15.02 29.39"/><polyline class="a" points="15.02 28.89 15.16 28.75 15.27 28.7 15.42 28.7 15.52 28.75 15.57 28.89 15.57 29.39"/><rect class="a" x="15.98" y="29.31" width="0.07" height="0.07" transform="translate(-16.06 19.92) rotate(-45)"/><line class="d" x1="29.29" y1="7.51" x2="30.27" y2="6.53"/><line class="d" x1="30.27" y1="7.51" x2="29.29" y2="6.53"/><line class="d" x1="65.76" y1="7.7" x2="66.75" y2="6.73"/><line class="d" x1="66.75" y1="7.7" x2="65.76" y2="6.73"/><line class="e" x1="37.16" y1="8.91" x2="37.16" y2="10.29"/><path class="e" d="M36.47,9.61h1.38l0-.18-.07-.17a.69.69,0,0,0-1.26.17l0,.18,0,.17a.69.69,0,0,0,1.26.17l.07-.17,0-.17"/><line class="e" x1="59.66" y1="8.84" x2="59.66" y2="10.22"/><path class="e" d="M59,9.52h1.39l0-.17-.07-.17A.7.7,0,0,0,59,9.35l0,.17,0,.18a.7.7,0,0,0,1.27.17l.07-.17,0-.18"/><line class="d" x1="40.63" y1="9.61" x2="41.6" y2="8.63"/><line class="d" x1="41.6" y1="9.61" x2="40.63" y2="8.63"/><line class="d" x1="55.3" y1="9.61" x2="56.28" y2="8.63"/><line class="d" x1="56.28" y1="9.61" x2="55.3" y2="8.63"/><line class="f" x1="33.21" y1="10.1" x2="34.19" y2="9.12"/><line class="f" x1="34.19" y1="10.1" x2="33.21" y2="9.12"/><line class="f" x1="40.14" y1="10.1" x2="41.11" y2="9.12"/><line class="f" x1="41.11" y1="10.1" x2="40.14" y2="9.12"/><line class="f" x1="62.63" y1="10.01" x2="63.61" y2="9.04"/><line class="f" x1="63.61" y1="10.01" x2="62.63" y2="9.04"/><line class="f" x1="55.71" y1="10.01" x2="56.7" y2="9.04"/><line class="f" x1="56.7" y1="10.01" x2="55.71" y2="9.04"/></svg>