<svg xmlns="http://www.w3.org/2000/svg" viewBox="0 0 213.05 51.75"><defs><style>.a,.b,.c,.d,.e,.f{fill:none;stroke-linecap:round;stroke-linejoin:round;stroke-width:0.21px;}.a{stroke:#000;}.b{stroke:#ffbf00;}.c{stroke:red;}.d{stroke:#00b800;}.e{stroke:#00bfff;}.f{stroke:blue;}</style></defs><title>cad2.7</title><polyline class="a" points="17.01 33.14 17.12 33.09 17.29 32.92 17.29 34.11"/><line class="a" x1="17.15" y1="35.82" x2="17.15" y2="39.52"/><line class="a" x1="1.19" y1="31.22" x2="212.14" y2="31.22"/><line class="a" x1="17.15" y1="35.82" x2="212.14" y2="35.82"/><line class="a" x1="17.15" y1="39.52" x2="212.14" y2="39.52"/><line class="a" x1="17.15" y1="45.05" x2="212.14" y2="45.05"/><polyline class="a" points="17.16 50.59 212.14 50.59 212.14 31.21"/><polyline class="a" points="24.05 37.23 24 37.15 23.87 37.1 23.79 37.1 23.65 37.15 23.57 37.28 23.53 37.5 23.53 37.72 23.57 37.89 23.65 37.98 23.79 38.03 23.83 38.03 23.97 37.98 24.05 37.89 24.09 37.76 24.09 37.72 24.05 37.59 23.97 37.5 23.83 37.45 23.79 37.45 23.65 37.5 23.57 37.59 23.53 37.72"/><polygon class="a" points="24.45 37.94 24.41 37.98 24.45 38.03 24.49 37.98 24.45 37.94"/><polyline class="a" points="24.93 37.28 25.02 37.23 25.15 37.1 25.15 38.03"/><polygon class="a" points="16.48 42.38 16.54 42.5 16.73 42.58 17.02 42.62 17.2 42.62 17.51 42.58 17.69 42.5 17.75 42.38 17.75 42.29 17.69 42.16 17.51 42.07 17.2 42.03 17.02 42.03 16.73 42.07 16.54 42.16 16.48 42.29 16.48 42.38"/><polyline class="a" points="16.73 50.02 16.67 49.94 16.48 49.8 17.75 49.8"/><polyline class="a" points="16.9 47.9 17.08 47.94 17.2 48.03 17.26 48.15 17.26 48.2 17.2 48.32 17.08 48.41 16.9 48.44 16.84 48.44 16.67 48.41 16.54 48.32 16.48 48.2 16.48 48.15 16.54 48.03 16.67 47.94 16.9 47.9 17.2 47.9 17.51 47.94 17.69 48.03 17.75 48.15 17.75 48.24 17.69 48.36 17.57 48.41"/><polygon class="a" points="17.63 47.52 17.69 47.57 17.75 47.52 17.69 47.48 17.63 47.52"/><line class="a" x1="17.15" y1="31.22" x2="17.15" y2="9.21"/><line class="a" x1="208.68" y1="31.22" x2="208.68" y2="13.16"/><line class="a" x1="193.18" y1="31.22" x2="193.18" y2="12.97"/><line class="a" x1="165.23" y1="31.22" x2="165.23" y2="12.72"/><line class="a" x1="138.3" y1="31.22" x2="138.3" y2="12.19"/><line class="a" x1="99.51" y1="31.22" x2="99.51" y2="11.4"/><line class="b" x1="44.39" y1="8.61" x2="44.42" y2="8.56"/><line class="b" x1="44.79" y1="8.61" x2="45.11" y2="8.3"/><line class="b" x1="45.2" y1="8.61" x2="45.64" y2="8.16"/><line class="b" x1="46.03" y1="8.19" x2="46.18" y2="8.04"/><line class="b" x1="46.45" y1="8.19" x2="47.02" y2="7.6"/><polyline class="b" points="46.85 8.19 48.33 6.71 48.61 6.41"/><polyline class="b" points="47.27 8.19 48.33 7.11 48.98 6.46"/><line class="b" x1="47.67" y1="8.19" x2="49.34" y2="6.51"/><line class="b" x1="48.07" y1="8.19" x2="49.7" y2="6.56"/><line class="b" x1="48.49" y1="8.19" x2="50.06" y2="6.61"/><line class="b" x1="48.89" y1="8.19" x2="50.42" y2="6.65"/><line class="b" x1="49.31" y1="8.19" x2="50.78" y2="6.7"/><line class="b" x1="49.71" y1="8.19" x2="51.03" y2="6.87"/><line class="b" x1="50.11" y1="8.19" x2="51.27" y2="7.03"/><line class="b" x1="50.53" y1="8.19" x2="51.52" y2="7.2"/><line class="b" x1="50.93" y1="8.19" x2="51.76" y2="7.36"/><line class="b" x1="51.35" y1="8.19" x2="52" y2="7.53"/><line class="b" x1="51.75" y1="8.19" x2="52.25" y2="7.68"/><line class="b" x1="52.15" y1="8.19" x2="52.48" y2="7.86"/><line class="b" x1="52.57" y1="8.19" x2="52.73" y2="8.01"/><line class="b" x1="52.97" y1="8.19" x2="52.99" y2="8.16"/><line class="a" x1="38.61" y1="31.22" x2="38.61" y2="8.61"/><line class="a" x1="35.84" y1="31.22" x2="35.84" y2="6.99"/><line class="a" x1="31.22" y1="31.22" x2="31.22" y2="7.92"/><line class="c" x1="38.67" y1="8.61" x2="38.67" y2="8.6"/><line class="c" x1="39.05" y1="8.65" x2="39.09" y2="8.61"/><line class="c" x1="39.43" y1="8.67" x2="39.49" y2="8.61"/><line class="c" x1="39.79" y1="8.71" x2="39.9" y2="8.61"/><line class="c" x1="40.17" y1="8.73" x2="40.31" y2="8.61"/><line class="c" x1="40.55" y1="8.77" x2="40.71" y2="8.61"/><line class="c" x1="40.93" y1="8.81" x2="41.12" y2="8.61"/><line class="c" x1="41.31" y1="8.83" x2="41.53" y2="8.61"/><line class="c" x1="41.71" y1="8.84" x2="41.94" y2="8.61"/><line class="c" x1="42.11" y1="8.84" x2="42.35" y2="8.61"/><line class="c" x1="42.52" y1="8.84" x2="42.75" y2="8.61"/><line class="c" x1="42.93" y1="8.84" x2="43.16" y2="8.61"/><line class="c" x1="43.34" y1="8.84" x2="43.57" y2="8.61"/><line class="c" x1="43.75" y1="8.84" x2="43.98" y2="8.61"/><line class="c" x1="53.25" y1="8.31" x2="53.38" y2="8.19"/><line class="c" x1="53.52" y1="8.45" x2="53.79" y2="8.18"/><line class="c" x1="53.79" y1="8.6" x2="54.2" y2="8.19"/><line class="c" x1="54.04" y1="8.73" x2="54.61" y2="8.19"/><line class="c" x1="54.31" y1="8.88" x2="55.01" y2="8.19"/><line class="c" x1="54.57" y1="9.03" x2="55.42" y2="8.18"/><line class="c" x1="54.84" y1="9.17" x2="55.83" y2="8.19"/><line class="c" x1="55.09" y1="9.32" x2="56.24" y2="8.18"/><line class="c" x1="55.36" y1="9.47" x2="56.64" y2="8.19"/><line class="c" x1="55.62" y1="9.6" x2="57.05" y2="8.19"/><line class="c" x1="55.89" y1="9.75" x2="57.46" y2="8.19"/><line class="c" x1="56.16" y1="9.89" x2="57.87" y2="8.18"/><line class="c" x1="56.41" y1="10.04" x2="58.28" y2="8.19"/><line class="c" x1="56.77" y1="10.09" x2="58.68" y2="8.18"/><line class="c" x1="57.12" y1="10.15" x2="59.09" y2="8.18"/><line class="c" x1="57.49" y1="10.2" x2="59.5" y2="8.18"/><line class="c" x1="57.84" y1="10.25" x2="59.91" y2="8.18"/><line class="c" x1="58.23" y1="10.26" x2="60.32" y2="8.18"/><line class="c" x1="58.64" y1="10.27" x2="60.72" y2="8.19"/><line class="c" x1="59.04" y1="10.27" x2="61.13" y2="8.19"/><line class="c" x1="59.43" y1="10.29" x2="61.54" y2="8.19"/><line class="c" x1="59.83" y1="10.3" x2="61.94" y2="8.18"/><line class="c" x1="60.22" y1="10.31" x2="62.36" y2="8.18"/><line class="c" x1="60.63" y1="10.32" x2="62.76" y2="8.18"/><line class="c" x1="61.02" y1="10.33" x2="63.17" y2="8.19"/><line class="c" x1="61.42" y1="10.35" x2="63.58" y2="8.19"/><line class="c" x1="61.81" y1="10.35" x2="63.98" y2="8.19"/><line class="c" x1="62.21" y1="10.36" x2="64.4" y2="8.18"/><line class="c" x1="62.62" y1="10.37" x2="64.8" y2="8.18"/><line class="c" x1="63.01" y1="10.38" x2="65.21" y2="8.18"/><line class="c" x1="63.41" y1="10.4" x2="65.62" y2="8.19"/><line class="c" x1="63.8" y1="10.41" x2="66.02" y2="8.19"/><line class="c" x1="64.2" y1="10.41" x2="66.44" y2="8.19"/><line class="c" x1="64.59" y1="10.42" x2="66.84" y2="8.18"/><line class="c" x1="65" y1="10.43" x2="67.26" y2="8.18"/><line class="c" x1="65.4" y1="10.44" x2="67.66" y2="8.19"/><line class="c" x1="65.79" y1="10.46" x2="68.06" y2="8.19"/><line class="c" x1="66.19" y1="10.47" x2="68.48" y2="8.19"/><line class="c" x1="66.58" y1="10.47" x2="68.88" y2="8.19"/><line class="c" x1="66.99" y1="10.48" x2="69.3" y2="8.18"/><line class="c" x1="67.38" y1="10.49" x2="69.7" y2="8.18"/><line class="c" x1="67.78" y1="10.51" x2="70.1" y2="8.19"/><line class="c" x1="68.18" y1="10.52" x2="70.52" y2="8.19"/><line class="c" x1="68.58" y1="10.52" x2="70.92" y2="8.19"/><line class="c" x1="68.98" y1="10.53" x2="71.34" y2="8.18"/><line class="c" x1="69.37" y1="10.54" x2="71.74" y2="8.18"/><line class="c" x1="69.77" y1="10.55" x2="72.14" y2="8.18"/><line class="c" x1="70.17" y1="10.57" x2="72.56" y2="8.19"/><line class="c" x1="70.57" y1="10.58" x2="72.96" y2="8.19"/><line class="c" x1="70.97" y1="10.58" x2="73.37" y2="8.19"/><line class="c" x1="71.36" y1="10.59" x2="73.78" y2="8.18"/><line class="c" x1="71.76" y1="10.6" x2="74.18" y2="8.18"/><line class="c" x1="72.17" y1="10.61" x2="74.6" y2="8.18"/><line class="c" x1="72.56" y1="10.63" x2="75" y2="8.19"/><line class="c" x1="72.96" y1="10.64" x2="75.41" y2="8.19"/><line class="c" x1="73.35" y1="10.64" x2="75.82" y2="8.19"/><line class="c" x1="73.75" y1="10.65" x2="76.22" y2="8.18"/><line class="c" x1="74.14" y1="10.66" x2="76.63" y2="8.18"/><line class="c" x1="74.55" y1="10.68" x2="77.04" y2="8.19"/><line class="c" x1="74.95" y1="10.69" x2="77.45" y2="8.19"/><line class="c" x1="75.34" y1="10.69" x2="77.86" y2="8.19"/><line class="c" x1="75.74" y1="10.7" x2="78.26" y2="8.19"/><line class="c" x1="76.13" y1="10.71" x2="78.67" y2="8.18"/><line class="c" x1="76.54" y1="10.72" x2="79.08" y2="8.18"/><line class="c" x1="76.92" y1="10.75" x2="79.49" y2="8.19"/><line class="c" x1="77.31" y1="10.76" x2="79.9" y2="8.18"/><line class="c" x1="77.7" y1="10.79" x2="80.31" y2="8.18"/><line class="c" x1="78.09" y1="10.8" x2="80.71" y2="8.19"/><line class="c" x1="78.48" y1="10.82" x2="81.12" y2="8.18"/><line class="c" x1="78.87" y1="10.83" x2="81.53" y2="8.18"/><line class="c" x1="79.26" y1="10.86" x2="81.93" y2="8.19"/><line class="c" x1="82.96" y1="7.15" x2="84.3" y2="5.82"/><line class="c" x1="79.65" y1="10.87" x2="84.71" y2="5.82"/><line class="c" x1="80.04" y1="10.9" x2="85.12" y2="5.82"/><line class="c" x1="80.43" y1="10.91" x2="85.52" y2="5.82"/><line class="c" x1="80.82" y1="10.93" x2="85.94" y2="5.82"/><line class="c" x1="81.2" y1="10.94" x2="86.09" y2="6.06"/><line class="c" x1="81.59" y1="10.97" x2="86.24" y2="6.32"/><line class="c" x1="81.98" y1="10.98" x2="86.39" y2="6.57"/><line class="c" x1="82.37" y1="11.01" x2="86.55" y2="6.83"/><line class="c" x1="82.76" y1="11.02" x2="86.7" y2="7.09"/><line class="c" x1="83.16" y1="11.04" x2="86.86" y2="7.34"/><line class="c" x1="83.55" y1="11.05" x2="87" y2="7.6"/><line class="c" x1="83.94" y1="11.08" x2="87.16" y2="7.85"/><line class="c" x1="84.33" y1="11.09" x2="87.31" y2="8.11"/><line class="c" x1="84.72" y1="11.12" x2="87.47" y2="8.37"/><line class="c" x1="85.11" y1="11.13" x2="87.61" y2="8.62"/><line class="c" x1="85.49" y1="11.15" x2="87.77" y2="8.88"/><line class="c" x1="85.88" y1="11.16" x2="87.92" y2="9.14"/><line class="c" x1="86.27" y1="11.19" x2="88.08" y2="9.38"/><line class="c" x1="86.66" y1="11.2" x2="88.22" y2="9.64"/><line class="c" x1="87.05" y1="11.23" x2="88.37" y2="9.89"/><line class="c" x1="87.44" y1="11.24" x2="88.53" y2="10.15"/><line class="c" x1="87.83" y1="11.26" x2="88.68" y2="10.41"/><line class="c" x1="88.24" y1="11.26" x2="88.83" y2="10.66"/><line class="c" x1="88.64" y1="11.27" x2="88.98" y2="10.92"/><line class="c" x1="89.04" y1="11.27" x2="89.14" y2="11.18"/><polyline class="a" points="17.16 9.21 22.39 8.75 23.61 8.85 28.23 8.38 31.22 7.92 35.84 6.99 38.61 8.61"/><polyline class="c" points="38.61 8.61 41.38 8.84 43.92 8.84"/><polyline class="b" points="44.35 8.61 44.8 8.37 46.69 7.92 48.33 6.38"/><polyline class="c" points="53.03 8.19 56.43 10.04 57.83 10.25 64.41 10.42 76.29 10.71 87.93 11.26"/><polyline class="a" points="89.2 11.27 99.51 11.4 112.68 11.76 125.1 11.95 138.3 12.19 151.11 12.35 165.23 12.71 179.33 12.76 193.18 12.97 208.69 13.15"/><polyline class="b" points="48.33 6.38 50.78 6.7 52.76 8.03"/><polyline class="a" points="30.89 33.2 30.89 33.14 30.94 33.03 31 32.97 31.11 32.92 31.34 32.92 31.45 32.97 31.52 33.03 31.58 33.14 31.58 33.27 31.52 33.38 31.41 33.55 30.83 34.11 31.63 34.11"/><polyline class="a" points="35.56 32.92 36.19 32.92 35.85 33.38 36.02 33.38 36.13 33.44 36.19 33.49 36.24 33.66 36.24 33.77 36.19 33.94 36.07 34.06 35.9 34.11 35.73 34.11 35.56 34.06 35.51 34 35.45 33.89"/><polyline class="a" points="38.76 32.92 38.19 33.72 39.05 33.72"/><line class="a" x1="38.76" y1="32.92" x2="38.76" y2="34.11"/><polyline class="a" points="98.63 33.14 98.75 33.09 98.92 32.92 98.92 34.11"/><polyline class="a" points="99.65 33.2 99.65 33.14 99.71 33.03 99.77 32.97 99.88 32.92 100.12 32.92 100.23 32.97 100.29 33.03 100.34 33.14 100.34 33.27 100.29 33.38 100.17 33.55 99.6 34.11 100.4 34.11"/><polyline class="a" points="137.42 33.14 137.53 33.09 137.7 32.92 137.7 34.11"/><polyline class="a" points="138.51 32.92 139.13 32.92 138.79 33.38 138.96 33.38 139.07 33.44 139.13 33.49 139.19 33.66 139.19 33.77 139.13 33.94 139.02 34.06 138.85 34.11 138.68 34.11 138.51 34.06 138.45 34 138.39 33.89"/><polyline class="a" points="164.32 33.14 164.43 33.09 164.6 32.92 164.6 34.11"/><polyline class="a" points="165.86 32.92 165.29 33.72 166.14 33.72"/><line class="a" x1="165.86" y1="32.92" x2="165.86" y2="34.11"/><polyline class="a" points="192.3 33.14 192.41 33.09 192.58 32.92 192.58 34.11"/><polyline class="a" points="193.95 32.92 193.37 32.92 193.32 33.44 193.37 33.38 193.54 33.32 193.71 33.32 193.88 33.38 194.01 33.49 194.06 33.66 194.06 33.77 194.01 33.94 193.88 34.06 193.71 34.11 193.54 34.11 193.37 34.06 193.32 34 193.26 33.89"/><polyline class="a" points="207.81 33.14 207.91 33.09 208.09 32.92 208.09 34.11"/><polyline class="a" points="209.51 33.1 209.45 32.97 209.28 32.92 209.17 32.92 209 32.97 208.88 33.15 208.83 33.44 208.83 33.72 208.88 33.94 209 34.06 209.17 34.11 209.22 34.11 209.39 34.06 209.51 33.94 209.56 33.77 209.56 33.72 209.51 33.55 209.39 33.44 209.22 33.38 209.17 33.38 209 33.44 208.88 33.55 208.83 33.72"/><line class="a" x1="31.22" y1="35.82" x2="31.22" y2="39.52"/><line class="a" x1="35.84" y1="35.82" x2="35.84" y2="39.52"/><line class="a" x1="38.61" y1="35.82" x2="38.61" y2="39.52"/><line class="a" x1="99.51" y1="35.82" x2="99.51" y2="39.52"/><line class="a" x1="138.3" y1="35.82" x2="138.3" y2="39.52"/><line class="a" x1="165.23" y1="35.82" x2="165.23" y2="39.52"/><line class="a" x1="193.18" y1="35.82" x2="193.18" y2="39.52"/><line class="a" x1="208.68" y1="35.82" x2="208.68" y2="39.52"/><polyline class="a" points="33.07 37.32 33.07 37.28 33.12 37.19 33.15 37.15 33.25 37.1 33.42 37.1 33.51 37.15 33.55 37.19 33.59 37.28 33.59 37.37 33.55 37.45 33.47 37.59 33.03 38.03 33.64 38.03"/><polyline class="a" points="36.29 37.28 36.37 37.23 36.51 37.1 36.51 38.03"/><polygon class="a" points="37.12 37.94 37.08 37.98 37.12 38.03 37.17 37.98 37.12 37.94"/><polyline class="a" points="37.52 37.32 37.52 37.28 37.56 37.19 37.61 37.15 37.69 37.1 37.87 37.1 37.96 37.15 38 37.19 38.05 37.28 38.05 37.37 38 37.45 37.91 37.59 37.47 38.03 38.09 38.03"/><polyline class="a" points="118.16 37.28 118.26 37.23 118.38 37.1 118.38 38.03"/><polyline class="a" points="119.48 37.23 119.45 37.15 119.31 37.1 119.23 37.1 119.09 37.15 119.01 37.28 118.96 37.5 118.96 37.72 119.01 37.89 119.09 37.98 119.23 38.03 119.26 38.03 119.4 37.98 119.48 37.89 119.53 37.76 119.53 37.72 119.48 37.59 119.4 37.5 119.26 37.45 119.23 37.45 119.09 37.5 119.01 37.59 118.96 37.72"/><polygon class="a" points="119.89 37.94 119.84 37.98 119.89 38.03 119.92 37.98 119.89 37.94"/><polygon class="a" points="120.46 37.1 120.33 37.15 120.28 37.23 120.28 37.32 120.33 37.41 120.41 37.45 120.58 37.5 120.72 37.54 120.8 37.63 120.85 37.72 120.85 37.85 120.8 37.94 120.77 37.98 120.63 38.03 120.46 38.03 120.33 37.98 120.28 37.94 120.24 37.85 120.24 37.72 120.28 37.63 120.36 37.54 120.5 37.5 120.68 37.45 120.77 37.41 120.8 37.32 120.8 37.23 120.77 37.15 120.63 37.1 120.46 37.1"/><polyline class="a" points="150.21 37.28 150.29 37.23 150.43 37.1 150.43 38.03"/><polyline class="a" points="151.09 37.28 151.17 37.23 151.31 37.1 151.31 38.03"/><polygon class="a" points="151.92 37.94 151.88 37.98 151.92 38.03 151.97 37.98 151.92 37.94"/><polyline class="a" points="152.45 38.03 152.89 37.1 152.27 37.1"/><polyline class="a" points="177.99 37.28 178.07 37.23 178.21 37.1 178.21 38.03"/><polyline class="a" points="178.78 37.32 178.78 37.28 178.82 37.19 178.87 37.15 178.95 37.1 179.13 37.1 179.22 37.15 179.26 37.19 179.31 37.28 179.31 37.37 179.26 37.45 179.17 37.59 178.73 38.03 179.35 38.03"/><polygon class="a" points="179.7 37.94 179.66 37.98 179.7 38.03 179.75 37.98 179.7 37.94"/><polyline class="a" points="180.18 37.28 180.27 37.23 180.4 37.1 180.4 38.03"/><polyline class="a" points="200.69 37.23 200.64 37.15 200.51 37.1 200.42 37.1 200.29 37.15 200.2 37.28 200.16 37.5 200.16 37.72 200.2 37.89 200.29 37.98 200.42 38.03 200.47 38.03 200.6 37.98 200.69 37.89 200.74 37.76 200.74 37.72 200.69 37.59 200.6 37.5 200.47 37.45 200.42 37.45 200.29 37.5 200.2 37.59 200.16 37.72"/><polygon class="a" points="201.08 37.94 201.04 37.98 201.08 38.03 201.13 37.98 201.08 37.94"/><polyline class="a" points="201.62 38.03 202.06 37.1 201.43 37.1"/><polyline class="a" points="30.78 42.61 30.66 42.65 30.6 42.78 30.6 42.86 30.66 42.99 30.84 43.07 31.14 43.11 31.44 43.11 31.69 43.07 31.81 42.99 31.87 42.86 31.87 42.82 31.81 42.69 31.69 42.61 31.5 42.56 31.44 42.56 31.26 42.61 31.14 42.69 31.07 42.82 31.07 42.86 31.14 42.99 31.26 43.07 31.44 43.11"/><polygon class="a" points="31.75 42.23 31.81 42.27 31.87 42.23 31.81 42.18 31.75 42.23"/><polyline class="a" points="30.84 41.75 30.78 41.67 30.6 41.55 31.87 41.55"/><polygon class="a" points="35.22 42.92 35.28 43.05 35.4 43.1 35.51 43.1 35.63 43.05 35.69 42.96 35.75 42.79 35.81 42.67 35.94 42.58 36.06 42.55 36.24 42.55 36.36 42.58 36.42 42.62 36.48 42.75 36.48 42.92 36.42 43.05 36.36 43.1 36.24 43.13 36.06 43.13 35.94 43.1 35.81 43.01 35.75 42.88 35.69 42.7 35.63 42.62 35.51 42.58 35.4 42.58 35.28 42.62 35.22 42.75 35.22 42.92"/><polygon class="a" points="36.36 42.2 36.42 42.24 36.48 42.2 36.42 42.16 36.36 42.2"/><polyline class="a" points="35.45 41.74 35.4 41.66 35.22 41.52 36.48 41.52"/><polyline class="a" points="38.4 42.71 38.59 42.76 38.71 42.84 38.77 42.96 38.77 43.01 38.71 43.13 38.59 43.22 38.4 43.26 38.34 43.26 38.16 43.22 38.04 43.13 37.98 43.01 37.98 42.96 38.04 42.84 38.16 42.76 38.4 42.71 38.71 42.71 39.01 42.76 39.18 42.84 39.24 42.96 39.24 43.05 39.18 43.17 39.07 43.22"/><polygon class="a" points="39.12 42.33 39.18 42.38 39.24 42.33 39.18 42.29 39.12 42.33"/><polyline class="a" points="37.97 41.91 37.97 41.44 38.46 41.69 38.46 41.57 38.52 41.48 38.59 41.44 38.77 41.4 38.89 41.4 39.07 41.44 39.18 41.52 39.24 41.66 39.24 41.78 39.18 41.91 39.12 41.95 39.01 41.98"/><polyline class="a" points="98.88 43.6 98.88 43.13 99.36 43.39 99.36 43.26 99.42 43.17 99.48 43.13 99.66 43.1 99.79 43.1 99.97 43.13 100.09 43.22 100.14 43.34 100.14 43.48 100.09 43.6 100.03 43.65 99.91 43.68"/><polyline class="a" points="98.88 42.33 98.88 42.75 99.42 42.79 99.36 42.75 99.3 42.62 99.3 42.5 99.36 42.38 99.48 42.29 99.66 42.24 99.79 42.24 99.97 42.29 100.09 42.38 100.14 42.5 100.14 42.62 100.09 42.75 100.03 42.79 99.91 42.84"/><polygon class="a" points="100.03 41.91 100.09 41.95 100.14 41.91 100.09 41.86 100.03 41.91"/><polyline class="a" points="100.14 41.4 98.88 40.97 98.88 41.57"/><polyline class="a" points="137.97 42.79 137.91 42.79 137.79 42.75 137.73 42.71 137.67 42.62 137.67 42.46 137.73 42.38 137.79 42.33 137.91 42.29 138.03 42.29 138.15 42.33 138.34 42.41 138.94 42.84 138.94 42.24"/><polygon class="a" points="138.81 41.91 138.87 41.95 138.94 41.91 138.87 41.86 138.81 41.91"/><polyline class="a" points="137.66 41.06 137.66 41.48 138.21 41.52 138.15 41.48 138.09 41.36 138.09 41.23 138.15 41.11 138.28 41.02 138.46 40.97 138.57 40.97 138.75 41.02 138.87 41.11 138.94 41.23 138.94 41.36 138.87 41.48 138.81 41.52 138.69 41.57"/><polyline class="a" points="164.77 43.16 164.66 43.2 164.6 43.33 164.6 43.41 164.66 43.54 164.84 43.62 165.14 43.66 165.45 43.66 165.69 43.62 165.81 43.54 165.86 43.41 165.86 43.37 165.81 43.24 165.69 43.16 165.51 43.11 165.45 43.11 165.26 43.16 165.14 43.24 165.08 43.37 165.08 43.41 165.14 43.54 165.26 43.62 165.45 43.66"/><polyline class="a" points="164.6 42.44 165.45 42.86 165.45 42.23"/><line class="a" x1="164.6" y1="42.44" x2="165.86" y2="42.44"/><polygon class="a" points="165.75 41.92 165.81 41.97 165.86 41.92 165.81 41.89 165.75 41.92"/><polyline class="a" points="164.9 41.55 164.84 41.55 164.71 41.51 164.66 41.46 164.6 41.38 164.6 41.2 164.66 41.12 164.71 41.08 164.84 41.05 164.96 41.05 165.08 41.08 165.26 41.17 165.86 41.59 165.86 41"/><polyline class="a" points="193.81 43.51 192.54 43.1 192.54 43.68"/><polyline class="a" points="192.72 42.29 192.6 42.33 192.54 42.46 192.54 42.55 192.6 42.67 192.79 42.76 193.09 42.79 193.38 42.79 193.63 42.76 193.75 42.67 193.81 42.55 193.81 42.5 193.75 42.38 193.63 42.29 193.44 42.24 193.38 42.24 193.2 42.29 193.09 42.38 193.03 42.5 193.03 42.55 193.09 42.67 193.2 42.76 193.38 42.79"/><polygon class="a" points="193.69 41.91 193.75 41.95 193.81 41.91 193.75 41.86 193.69 41.91"/><polygon class="a" points="208.05 42.84 208.11 42.96 208.23 43.01 208.35 43.01 208.48 42.96 208.54 42.88 208.6 42.71 208.65 42.58 208.77 42.5 208.89 42.46 209.08 42.46 209.2 42.5 209.26 42.55 209.32 42.67 209.32 42.84 209.26 42.96 209.2 43.01 209.08 43.05 208.89 43.05 208.77 43.01 208.65 42.92 208.6 42.79 208.54 42.62 208.48 42.55 208.35 42.5 208.23 42.5 208.11 42.55 208.05 42.67 208.05 42.84"/><polyline class="a" points="208.05 42.12 208.05 41.66 208.54 41.91 208.54 41.78 208.6 41.69 208.65 41.66 208.83 41.61 208.95 41.61 209.14 41.66 209.26 41.74 209.32 41.86 209.32 41.99 209.26 42.12 209.2 42.16 209.08 42.2"/><polyline class="a" points="30.84 50 30.78 49.91 30.6 49.78 31.87 49.78"/><polyline class="a" points="31.03 48.73 31.21 48.76 31.33 48.85 31.39 48.98 31.39 49.02 31.33 49.14 31.21 49.23 31.03 49.27 30.96 49.27 30.78 49.23 30.66 49.14 30.6 49.02 30.6 48.98 30.66 48.85 30.78 48.76 31.03 48.73 31.33 48.73 31.64 48.76 31.81 48.85 31.87 48.98 31.87 49.07 31.81 49.19 31.7 49.23"/><polygon class="a" points="31.75 47.49 31.81 47.54 31.87 47.49 31.81 47.45 31.75 47.49"/><polygon class="a" points="30.6 46.91 30.66 47.03 30.84 47.11 31.15 47.16 31.33 47.16 31.64 47.11 31.81 47.03 31.87 46.91 31.87 46.82 31.81 46.7 31.64 46.61 31.33 46.56 31.15 46.56 30.84 46.61 30.66 46.7 30.6 46.82 30.6 46.91"/><polyline class="a" points="31.03 45.76 31.21 45.81 31.33 45.89 31.39 46.01 31.39 46.06 31.33 46.19 31.21 46.27 31.03 46.31 30.96 46.31 30.78 46.27 30.66 46.19 30.6 46.06 30.6 46.01 30.66 45.89 30.78 45.81 31.03 45.76 31.33 45.76 31.64 45.81 31.81 45.89 31.87 46.01 31.87 46.1 31.81 46.22 31.7 46.27"/><polyline class="a" points="35.46 50 35.4 49.91 35.22 49.78 36.48 49.78"/><polyline class="a" points="35.64 48.73 35.83 48.76 35.95 48.85 36.01 48.98 36.01 49.02 35.95 49.14 35.83 49.23 35.64 49.27 35.58 49.27 35.4 49.23 35.28 49.14 35.22 49.02 35.22 48.98 35.28 48.85 35.4 48.76 35.64 48.73 35.95 48.73 36.25 48.76 36.42 48.85 36.48 48.98 36.48 49.07 36.42 49.19 36.3 49.23"/><polygon class="a" points="36.36 47.49 36.42 47.54 36.48 47.49 36.42 47.45 36.36 47.49"/><polyline class="a" points="35.22 46.73 36.07 47.16 36.07 46.53"/><line class="a" x1="35.21" y1="46.74" x2="36.48" y2="46.74"/><polyline class="a" points="35.64 45.76 35.83 45.81 35.95 45.89 36.01 46.01 36.01 46.06 35.95 46.19 35.83 46.27 35.64 46.31 35.58 46.31 35.4 46.27 35.28 46.19 35.22 46.06 35.22 46.01 35.28 45.89 35.4 45.81 35.64 45.76 35.95 45.76 36.25 45.81 36.42 45.89 36.48 46.01 36.48 46.1 36.42 46.22 36.3 46.27"/><polyline class="a" points="38.23 50 38.17 49.91 37.99 49.78 39.26 49.78"/><polyline class="a" points="38.41 47.88 38.6 47.92 38.72 48.01 38.77 48.13 38.77 48.18 38.72 48.3 38.6 48.38 38.41 48.43 38.35 48.43 38.17 48.38 38.05 48.3 37.99 48.18 37.99 48.13 38.05 48.01 38.17 47.92 38.41 47.88 38.72 47.88 39.01 47.92 39.2 48.01 39.26 48.13 39.26 48.21 39.2 48.35 39.07 48.38"/><polygon class="a" points="39.13 47.49 39.2 47.54 39.26 47.49 39.2 47.45 39.13 47.49"/><polyline class="a" points="39.26 46.99 37.99 46.56 37.99 47.16"/><polyline class="a" points="38.41 45.76 38.6 45.81 38.72 45.89 38.77 46.01 38.77 46.06 38.72 46.19 38.6 46.27 38.41 46.31 38.35 46.31 38.17 46.27 38.05 46.19 37.99 46.06 37.99 46.01 38.05 45.89 38.17 45.81 38.41 45.76 38.72 45.76 39.01 45.81 39.2 45.89 39.26 46.01 39.26 46.1 39.2 46.22 39.07 46.27"/><polyline class="a" points="99.13 50.02 99.07 49.94 98.88 49.8 100.15 49.8"/><polygon class="a" points="98.88 48.24 98.94 48.36 99.07 48.41 99.19 48.41 99.31 48.36 99.37 48.27 99.43 48.12 99.49 47.98 99.62 47.9 99.74 47.86 99.91 47.86 100.03 47.9 100.09 47.94 100.15 48.07 100.15 48.24 100.09 48.36 100.03 48.41 99.91 48.45 99.74 48.45 99.62 48.41 99.49 48.32 99.43 48.2 99.37 48.03 99.31 47.94 99.19 47.9 99.07 47.9 98.94 47.94 98.88 48.07 98.88 48.24"/><polygon class="a" points="100.03 47.52 100.09 47.57 100.15 47.52 100.09 47.48 100.03 47.52"/><polygon class="a" points="98.88 46.13 98.94 46.25 99.07 46.3 99.19 46.3 99.31 46.25 99.37 46.16 99.43 45.99 99.49 45.87 99.62 45.78 99.74 45.75 99.91 45.75 100.03 45.78 100.09 45.83 100.15 45.95 100.15 46.13 100.09 46.25 100.03 46.3 99.91 46.33 99.74 46.33 99.62 46.3 99.49 46.21 99.43 46.08 99.37 45.91 99.31 45.83 99.19 45.78 99.07 45.78 98.94 45.83 98.88 45.95 98.88 46.13"/><polyline class="a" points="137.92 50.03 137.86 49.95 137.68 49.82 138.95 49.82"/><polygon class="a" points="137.68 49.1 137.74 49.23 137.86 49.27 137.98 49.27 138.1 49.23 138.17 49.14 138.22 48.98 138.28 48.85 138.4 48.76 138.52 48.73 138.7 48.73 138.83 48.76 138.89 48.81 138.95 48.93 138.95 49.1 138.89 49.23 138.83 49.27 138.7 49.31 138.52 49.31 138.4 49.27 138.28 49.19 138.22 49.07 138.17 48.9 138.1 48.81 137.98 48.76 137.86 48.76 137.74 48.81 137.68 48.93 137.68 49.1"/><polygon class="a" points="137.68 48.26 137.74 48.38 137.86 48.43 137.98 48.43 138.1 48.38 138.17 48.3 138.22 48.13 138.28 48.01 138.4 47.92 138.52 47.88 138.7 47.88 138.83 47.92 138.89 47.96 138.95 48.09 138.95 48.26 138.89 48.38 138.83 48.43 138.7 48.47 138.52 48.47 138.4 48.43 138.28 48.35 138.22 48.21 138.17 48.04 138.1 47.96 137.98 47.92 137.86 47.92 137.74 47.96 137.68 48.09 137.68 48.26"/><polygon class="a" points="138.82 47.54 138.89 47.58 138.95 47.54 138.89 47.49 138.82 47.54"/><polyline class="a" points="137.98 47.16 137.92 47.16 137.8 47.11 137.74 47.08 137.68 46.99 137.68 46.82 137.74 46.74 137.8 46.7 137.92 46.65 138.04 46.65 138.17 46.7 138.34 46.77 138.95 47.2 138.95 46.61"/><polyline class="a" points="137.68 45.93 138.52 46.36 138.52 45.72"/><line class="a" x1="137.68" y1="45.93" x2="138.95" y2="45.93"/><polyline class="a" points="164.85 50.02 164.79 49.94 164.6 49.8 165.87 49.8"/><polygon class="a" points="164.6 48.24 164.66 48.36 164.79 48.41 164.91 48.41 165.03 48.36 165.09 48.27 165.15 48.12 165.21 47.98 165.34 47.9 165.46 47.86 165.63 47.86 165.75 47.9 165.81 47.94 165.87 48.07 165.87 48.24 165.81 48.36 165.75 48.41 165.63 48.45 165.46 48.45 165.34 48.41 165.21 48.32 165.15 48.2 165.09 48.03 165.03 47.94 164.91 47.9 164.79 47.9 164.66 47.94 164.6 48.07 164.6 48.24"/><polygon class="a" points="165.75 47.52 165.81 47.57 165.87 47.52 165.81 47.48 165.75 47.52"/><polygon class="a" points="164.6 46.93 164.66 47.05 164.85 47.14 165.15 47.17 165.34 47.17 165.63 47.14 165.81 47.05 165.87 46.93 165.87 46.85 165.81 46.71 165.63 46.63 165.34 46.59 165.15 46.59 164.85 46.63 164.66 46.71 164.6 46.85 164.6 46.93"/><polyline class="a" points="164.91 46.3 164.85 46.3 164.72 46.25 164.66 46.21 164.6 46.13 164.6 45.95 164.66 45.87 164.72 45.83 164.85 45.78 164.97 45.78 165.27 45.91 165.87 46.33 165.87 45.75"/><polyline class="a" points="192.8 49.57 192.74 49.48 192.55 49.36 193.82 49.36"/><polygon class="a" points="192.55 48.64 192.62 48.76 192.74 48.81 192.85 48.81 192.97 48.76 193.03 48.68 193.09 48.52 193.15 48.38 193.27 48.3 193.4 48.26 193.58 48.26 193.7 48.3 193.76 48.35 193.82 48.47 193.82 48.64 193.76 48.76 193.7 48.81 193.58 48.85 193.4 48.85 193.27 48.81 193.15 48.73 193.09 48.59 193.03 48.43 192.97 48.35 192.85 48.3 192.74 48.3 192.62 48.35 192.55 48.47 192.55 48.64"/><polyline class="a" points="193.82 47.83 192.55 47.41 192.55 48.01"/><polygon class="a" points="193.7 47.08 193.76 47.11 193.82 47.08 193.76 47.03 193.7 47.08"/><polyline class="a" points="192.97 46.19 193.15 46.22 193.27 46.31 193.34 46.44 193.34 46.48 193.27 46.61 193.15 46.7 192.97 46.73 192.91 46.73 192.74 46.7 192.62 46.61 192.55 46.48 192.55 46.44 192.62 46.31 192.74 46.22 192.97 46.19 193.27 46.19 193.58 46.22 193.76 46.31 193.82 46.44 193.82 46.53 193.76 46.65 193.64 46.7"/><polyline class="a" points="208.29 50.02 208.25 49.94 208.06 49.8 209.33 49.8"/><polyline class="a" points="209.33 48.27 208.06 47.86 208.06 48.45"/><polygon class="a" points="209.21 47.52 209.27 47.57 209.33 47.52 209.27 47.48 209.21 47.52"/><polygon class="a" points="208.06 46.97 208.12 47.09 208.25 47.14 208.35 47.14 208.48 47.09 208.54 47.02 208.6 46.84 208.66 46.71 208.78 46.63 208.91 46.59 209.09 46.59 209.21 46.63 209.27 46.67 209.33 46.8 209.33 46.97 209.27 47.09 209.21 47.14 209.09 47.17 208.91 47.17 208.78 47.14 208.66 47.05 208.6 46.93 208.54 46.76 208.48 46.67 208.35 46.63 208.25 46.63 208.12 46.67 208.06 46.8 208.06 46.97"/><polyline class="a" points="38.61 8.61 45.53 8.61 46.02 8.19 82.13 8.19"/><polyline class="a" points="85.94 5.82 84.05 5.82 82.13 8.19"/><line class="a" x1="85.94" y1="5.82" x2="89.2" y2="11.27"/><polygon class="a" points="2.17 41.81 2.17 40.89 2.48 40.89 2.61 40.94 2.7 41.02 2.75 41.11 2.78 41.24 2.78 41.46 2.75 41.59 2.7 41.68 2.61 41.77 2.48 41.81 2.17 41.81"/><line class="a" x1="3.1" y1="40.89" x2="3.1" y2="41.81"/><line class="a" x1="4.5" y1="40.89" x2="4.5" y2="41.81"/><line class="a" x1="4.2" y1="40.89" x2="4.82" y2="40.89"/><polygon class="a" points="5.09 41.73 5.04 41.77 5.09 41.81 5.13 41.77 5.09 41.73"/><polyline class="a" points="6.41 41.81 6.41 40.89 6.81 40.89 6.95 40.94 6.98 40.97 7.03 41.06 7.03 41.19 6.98 41.29 6.95 41.33 6.81 41.37 6.41 41.37"/><polyline class="a" points="7.34 41.81 7.34 40.89 7.74 40.89 7.87 40.94 7.91 40.97 7.96 41.06 7.96 41.16 7.91 41.24 7.87 41.29 7.74 41.33 7.34 41.33"/><line class="a" x1="7.64" y1="41.33" x2="7.96" y2="41.81"/><polyline class="a" points="10.17 41.81 10.17 40.89 10.56 40.89 10.7 40.94 10.74 40.97 10.78 41.06 10.78 41.16 10.74 41.24 10.7 41.29 10.56 41.33 10.17 41.33"/><line class="a" x1="10.48" y1="41.33" x2="10.78" y2="41.81"/><polyline class="a" points="11.1 41.81 11.1 40.89 11.67 40.89"/><line class="a" x1="11.1" y1="41.33" x2="11.45" y2="41.33"/><line class="a" x1="11.1" y1="41.81" x2="11.67" y2="41.81"/><polyline class="a" points="12.52 41.02 12.42 40.94 12.28 40.89 12.11 40.89 11.98 40.94 11.89 41.02 11.89 41.11 11.93 41.19 11.98 41.24 12.06 41.29 12.33 41.38 12.42 41.41 12.47 41.46 12.52 41.55 12.52 41.68 12.42 41.77 12.28 41.81 12.11 41.81 11.98 41.77 11.89 41.68"/><line class="a" x1="13.7" y1="40.89" x2="13.7" y2="41.81"/><polyline class="a" points="13.92 40.89 14.27 41.81 14.63 40.89"/><polyline class="a" points="14.71 41.81 15.07 40.89 15.42 41.81"/><line class="a" x1="14.85" y1="41.51" x2="15.3" y2="41.51"/><line class="a" x1="2.78" y1="42.91" x2="2.78" y2="43.54"/><polyline class="a" points="2.78 43.1 2.92 42.96 3 42.91 3.14 42.91 3.23 42.96 3.27 43.1 3.27 43.54"/><polyline class="a" points="3.27 43.1 3.4 42.96 3.49 42.91 3.63 42.91 3.71 42.96 3.76 43.1 3.76 43.54"/><polygon class="a" points="2.17 36.98 2.17 36.05 2.48 36.05 2.61 36.1 2.7 36.19 2.75 36.27 2.78 36.41 2.78 36.63 2.75 36.76 2.7 36.84 2.61 36.94 2.48 36.98 2.17 36.98"/><line class="a" x1="3.1" y1="36.05" x2="3.1" y2="36.98"/><polyline class="a" points="4.03 36.19 3.93 36.1 3.81 36.05 3.63 36.05 3.49 36.1 3.4 36.19 3.4 36.27 3.45 36.37 3.49 36.41 3.58 36.45 3.85 36.54 3.93 36.59 3.98 36.63 4.03 36.71 4.03 36.84 3.93 36.94 3.81 36.98 3.63 36.98 3.49 36.94 3.4 36.84"/><line class="a" x1="4.5" y1="36.05" x2="4.5" y2="36.98"/><line class="a" x1="4.2" y1="36.05" x2="4.82" y2="36.05"/><polygon class="a" points="5.09 36.89 5.04 36.94 5.09 36.98 5.13 36.94 5.09 36.89"/><polyline class="a" points="6.41 36.98 6.41 36.05 6.81 36.05 6.95 36.1 6.98 36.14 7.03 36.23 7.03 36.37 6.98 36.45 6.95 36.49 6.81 36.54 6.41 36.54"/><polyline class="a" points="7.2 36.98 7.56 36.05 7.91 36.98"/><line class="a" x1="7.34" y1="36.67" x2="7.78" y2="36.67"/><polyline class="a" points="8.13 36.98 8.13 36.05 8.53 36.05 8.67 36.1 8.71 36.14 8.75 36.23 8.75 36.32 8.71 36.41 8.67 36.45 8.53 36.49 8.13 36.49"/><line class="a" x1="8.45" y1="36.49" x2="8.75" y2="36.98"/><polyline class="a" points="9.02 36.98 9.63 36.05 9.02 36.05"/><line class="a" x1="9.02" y1="36.98" x2="9.63" y2="36.98"/><line class="a" x1="9.95" y1="36.05" x2="9.95" y2="36.98"/><polyline class="a" points="10.17 36.98 10.52 36.05 10.88 36.98"/><line class="a" x1="10.3" y1="36.67" x2="10.74" y2="36.67"/><polyline class="a" points="11.1 36.05 11.1 36.98 11.62 36.98"/><polyline class="a" points="11.84 36.98 11.84 36.05 12.42 36.05"/><line class="a" x1="11.84" y1="36.49" x2="12.2" y2="36.49"/><line class="a" x1="11.84" y1="36.98" x2="12.42" y2="36.98"/><line class="a" x1="2.78" y1="38.09" x2="2.78" y2="38.7"/><polyline class="a" points="2.78 38.26 2.92 38.13 3 38.09 3.14 38.09 3.23 38.13 3.27 38.26 3.27 38.7"/><polyline class="a" points="3.27 38.26 3.4 38.13 3.49 38.09 3.63 38.09 3.71 38.13 3.76 38.26 3.76 38.7"/><polyline class="a" points="2.17 33.11 2.53 34.04 2.88 33.11"/><polyline class="a" points="3.1 34.04 3.1 33.11 3.67 33.11"/><line class="a" x1="3.1" y1="33.55" x2="3.45" y2="33.55"/><line class="a" x1="3.1" y1="34.04" x2="3.67" y2="34.04"/><polyline class="a" points="3.93 34.04 3.93 33.11 4.33 33.11 4.47 33.15 4.5 33.19 4.55 33.28 4.55 33.36 4.5 33.46 4.47 33.5 4.33 33.55 3.93 33.55"/><line class="a" x1="4.25" y1="33.55" x2="4.55" y2="34.04"/><line class="a" x1="5.04" y1="33.11" x2="5.04" y2="34.04"/><line class="a" x1="4.74" y1="33.11" x2="5.35" y2="33.11"/><line class="a" x1="5.57" y1="33.11" x2="5.57" y2="34.04"/><line class="a" x1="6.85" y1="33.11" x2="6.85" y2="34.04"/><line class="a" x1="2.56" y1="47.2" x2="2.83" y2="47.47"/><polyline class="a" points="3.19 46.45 3.19 47.11 3.23 47.25 3.32 47.33 3.45 47.38 3.54 47.38 3.67 47.33 3.76 47.25 3.81 47.11 3.81 46.45"/><line class="a" x1="5.31" y1="46.45" x2="5.31" y2="47.38"/><line class="a" x1="4.99" y1="46.45" x2="5.62" y2="46.45"/><polyline class="a" points="5.7 47.38 6.05 46.45 6.41 47.38"/><line class="a" x1="5.84" y1="47.08" x2="6.28" y2="47.08"/><line class="a" x1="7.74" y1="46.45" x2="7.74" y2="47.38"/><line class="a" x1="7.42" y1="46.45" x2="8.05" y2="46.45"/><polyline class="a" points="8.27 47.38 8.27 46.45 8.84 46.45"/><line class="a" x1="8.27" y1="46.89" x2="8.62" y2="46.89"/><line class="a" x1="8.27" y1="47.38" x2="8.84" y2="47.38"/><polyline class="a" points="9.11 47.38 9.11 46.45 9.5 46.45 9.63 46.5 9.68 46.54 9.73 46.63 9.73 46.72 9.68 46.81 9.63 46.86 9.5 46.9 9.11 46.9"/><line class="a" x1="9.41" y1="46.89" x2="9.73" y2="47.38"/><polyline class="a" points="10.04 47.38 10.04 46.45 10.43 46.45 10.56 46.5 10.61 46.54 10.66 46.63 10.66 46.72 10.61 46.81 10.56 46.86 10.43 46.9 10.04 46.9"/><line class="a" x1="10.34" y1="46.89" x2="10.66" y2="47.38"/><polyline class="a" points="10.96 47.38 10.96 46.45 11.54 46.45"/><line class="a" x1="10.96" y1="46.89" x2="11.32" y2="46.89"/><line class="a" x1="10.96" y1="47.38" x2="11.54" y2="47.38"/><polyline class="a" points="11.81 47.38 11.81 46.45 12.42 47.38 12.42 46.45"/><line class="a" x1="2.78" y1="48.48" x2="2.78" y2="49.1"/><polyline class="a" points="2.78 48.66 2.92 48.53 3 48.48 3.14 48.48 3.23 48.53 3.27 48.66 3.27 49.1"/><polyline class="a" points="3.27 48.66 3.4 48.53 3.49 48.48 3.63 48.48 3.71 48.53 3.76 48.66 3.76 49.1"/><polyline class="a" points="5.48 48.62 5.43 48.53 5.31 48.48 5.18 48.48 5.04 48.53 4.99 48.62 5.04 48.71 5.13 48.75 5.35 48.8 5.43 48.84 5.48 48.93 5.48 48.97 5.43 49.06 5.31 49.1 5.18 49.1 5.04 49.06 4.99 48.97"/><polygon class="a" points="5.83 49.02 5.79 49.06 5.83 49.1 5.88 49.06 5.83 49.02"/><line class="a" x1="6.24" y1="48.18" x2="6.24" y2="49.1"/><polygon class="a" points="6.63 49.02 6.59 49.06 6.63 49.1 6.68 49.06 6.63 49.02"/><line class="a" x1="7.03" y1="48.48" x2="7.03" y2="49.1"/><polyline class="a" points="7.03 48.66 7.17 48.53 7.25 48.48 7.39 48.48 7.47 48.53 7.52 48.66 7.52 49.1"/><polyline class="a" points="7.52 48.66 7.64 48.53 7.74 48.48 7.87 48.48 7.96 48.53 8 48.66 8 49.1"/><polygon class="a" points="8.4 49.02 8.35 49.06 8.4 49.1 8.45 49.06 8.4 49.02"/><line class="c" x1="44.35" y1="8.61" x2="43.92" y2="8.84"/><line class="b" x1="52.76" y1="8.03" x2="53.03" y2="8.19"/><line class="c" x1="87.93" y1="11.26" x2="89.2" y2="11.27"/><line class="a" x1="45.53" y1="8.61" x2="45.53" y2="31.22"/><line class="a" x1="46.02" y1="8.19" x2="46.02" y2="31.22"/><line class="a" x1="64.08" y1="8.19" x2="64.08" y2="31.22"/><line class="a" x1="82.13" y1="8.19" x2="82.13" y2="31.22"/><line class="a" x1="84.05" y1="5.82" x2="84.05" y2="31.22"/><line class="a" x1="85.94" y1="5.82" x2="85.94" y2="31.22"/><line class="a" x1="89.2" y1="11.27" x2="89.2" y2="31.22"/><line class="a" x1="45.53" y1="35.82" x2="45.53" y2="39.52"/><line class="a" x1="46.02" y1="35.82" x2="46.02" y2="39.52"/><line class="a" x1="64.08" y1="35.82" x2="64.08" y2="39.52"/><line class="a" x1="82.13" y1="35.82" x2="82.13" y2="39.52"/><line class="a" x1="84.05" y1="35.82" x2="84.05" y2="39.52"/><line class="a" x1="85.94" y1="35.82" x2="85.94" y2="39.52"/><line class="a" x1="89.2" y1="35.82" x2="89.2" y2="39.52"/><polyline class="a" points="41.82 37.1 42.31 37.1 42.04 37.45 42.17 37.45 42.26 37.5 42.31 37.54 42.36 37.67 42.36 37.76 42.31 37.9 42.22 37.98 42.09 38.03 41.95 38.03 41.82 37.98 41.78 37.94 41.74 37.85"/><polygon class="a" points="45.8 37.52 45.77 37.56 45.8 37.61 45.85 37.56 45.8 37.52"/><polyline class="a" points="54.29 38.03 54.73 37.1 54.12 37.1"/><polygon class="a" points="55.08 37.94 55.03 37.98 55.08 38.03 55.12 37.98 55.08 37.94"/><polygon class="a" points="55.66 37.1 55.52 37.15 55.47 37.23 55.47 37.32 55.52 37.41 55.61 37.45 55.78 37.5 55.91 37.54 56 37.63 56.05 37.72 56.05 37.85 56 37.94 55.96 37.98 55.83 38.03 55.66 38.03 55.52 37.98 55.47 37.94 55.44 37.85 55.44 37.72 55.47 37.63 55.56 37.54 55.69 37.5 55.88 37.45 55.96 37.41 56 37.32 56 37.23 55.96 37.15 55.83 37.1 55.66 37.1"/><polyline class="a" points="72.4 38.03 72.84 37.1 72.23 37.1"/><polygon class="a" points="73.19 37.94 73.14 37.98 73.19 38.03 73.23 37.98 73.19 37.94"/><polygon class="a" points="73.77 37.1 73.63 37.15 73.58 37.23 73.58 37.32 73.63 37.41 73.72 37.45 73.89 37.5 74.02 37.54 74.11 37.63 74.16 37.72 74.16 37.85 74.11 37.94 74.07 37.98 73.94 38.03 73.77 38.03 73.63 37.98 73.58 37.94 73.55 37.85 73.55 37.72 73.58 37.63 73.67 37.54 73.8 37.5 73.98 37.45 74.07 37.41 74.11 37.32 74.11 37.23 74.07 37.15 73.94 37.1 73.77 37.1"/><polygon class="a" points="82.61 38.27 82.66 38.4 82.79 38.49 83.01 38.53 83.14 38.53 83.36 38.49 83.48 38.4 83.53 38.27 83.53 38.17 83.48 38.05 83.36 37.96 83.14 37.92 83.01 37.92 82.79 37.96 82.66 38.05 82.61 38.17 82.61 38.27"/><polygon class="a" points="83.45 37.56 83.48 37.61 83.53 37.56 83.48 37.52 83.45 37.56"/><polygon class="a" points="82.61 36.99 82.66 37.13 82.74 37.17 82.83 37.17 82.92 37.13 82.96 37.04 83.01 36.86 83.05 36.73 83.14 36.64 83.23 36.6 83.36 36.6 83.45 36.64 83.48 36.69 83.53 36.82 83.53 36.99 83.48 37.13 83.45 37.17 83.36 37.21 83.23 37.21 83.14 37.17 83.05 37.08 83.01 36.95 82.96 36.77 82.92 36.69 82.83 36.64 82.74 36.64 82.66 36.69 82.61 36.82 82.61 36.99"/><polygon class="a" points="84.52 38.26 84.56 38.4 84.69 38.48 84.91 38.53 85.05 38.53 85.27 38.48 85.4 38.4 85.44 38.26 85.44 38.18 85.4 38.04 85.27 37.96 85.05 37.91 84.91 37.91 84.69 37.96 84.56 38.04 84.52 38.18 84.52 38.26"/><polygon class="a" points="85.35 37.56 85.4 37.6 85.44 37.56 85.4 37.52 85.35 37.56"/><polyline class="a" points="86.61 37.28 86.7 37.23 86.83 37.1 86.83 38.03"/><polygon class="a" points="87.44 37.94 87.4 37.98 87.44 38.03 87.49 37.98 87.44 37.94"/><polyline class="a" points="88.23 37.1 87.8 37.72 88.45 37.72"/><line class="a" x1="88.24" y1="37.1" x2="88.24" y2="38.03"/><polyline class="a" points="93.78 37.1 93.34 37.72 94 37.72"/><line class="a" x1="93.78" y1="37.1" x2="93.78" y2="38.03"/><polygon class="a" points="94.3 37.94 94.27 37.98 94.3 38.03 94.35 37.98 94.3 37.94"/><polyline class="a" points="95.18 37.1 94.74 37.1 94.71 37.5 94.74 37.45 94.88 37.41 95.01 37.41 95.15 37.45 95.23 37.54 95.28 37.67 95.28 37.76 95.23 37.9 95.15 37.98 95.01 38.03 94.88 38.03 94.74 37.98 94.71 37.94 94.66 37.85"/><polyline class="a" points="44.45 43.62 44.38 43.54 44.2 43.41 45.47 43.41"/><polyline class="a" points="44.51 42.86 44.45 42.86 44.32 42.81 44.26 42.78 44.2 42.69 44.2 42.52 44.26 42.44 44.32 42.39 44.45 42.35 44.57 42.35 44.69 42.39 44.87 42.47 45.47 42.9 45.47 42.3"/><polygon class="a" points="45.35 41.97 45.41 42.01 45.47 41.97 45.41 41.92 45.35 41.97"/><polyline class="a" points="44.2 41.55 44.2 41.08 44.69 41.34 44.69 41.2 44.75 41.12 44.81 41.08 45 41.05 45.12 41.05 45.29 41.08 45.41 41.17 45.47 41.29 45.47 41.42 45.41 41.55 45.35 41.59 45.23 41.63"/><polyline class="a" points="46.34 43.62 46.28 43.54 46.09 43.41 47.37 43.41"/><polyline class="a" points="46.4 42.86 46.34 42.86 46.22 42.81 46.16 42.78 46.09 42.69 46.09 42.52 46.16 42.44 46.22 42.39 46.34 42.35 46.45 42.35 46.57 42.39 46.75 42.47 47.37 42.9 47.37 42.3"/><polygon class="a" points="47.24 41.97 47.3 42.01 47.37 41.97 47.3 41.92 47.24 41.97"/><polyline class="a" points="63.74 43.65 63.68 43.65 63.56 43.6 63.5 43.56 63.44 43.48 63.44 43.3 63.5 43.22 63.56 43.17 63.68 43.13 63.8 43.13 63.92 43.17 64.11 43.26 64.7 43.68 64.7 43.1"/><polygon class="a" points="63.43 42.58 63.49 42.71 63.68 42.79 63.98 42.84 64.17 42.84 64.47 42.79 64.64 42.71 64.7 42.58 64.7 42.5 64.64 42.38 64.47 42.29 64.17 42.24 63.98 42.24 63.68 42.29 63.49 42.38 63.43 42.5 63.43 42.58"/><polygon class="a" points="64.59 41.91 64.64 41.95 64.7 41.91 64.64 41.86 64.59 41.91"/><polyline class="a" points="63.43 41.48 63.43 41.02 63.92 41.28 63.92 41.14 63.98 41.06 64.05 41.02 64.23 40.97 64.35 40.97 64.53 41.02 64.64 41.11 64.7 41.23 64.7 41.36 64.64 41.48 64.59 41.52 64.47 41.57"/><polyline class="a" points="81.8 43.65 81.74 43.65 81.62 43.6 81.56 43.56 81.5 43.48 81.5 43.3 81.56 43.22 81.62 43.17 81.74 43.13 81.86 43.13 81.98 43.17 82.15 43.26 82.77 43.68 82.77 43.1"/><polygon class="a" points="82.64 41.91 82.7 41.95 82.76 41.91 82.7 41.86 82.64 41.91"/><polyline class="a" points="81.8 41.52 81.74 41.52 81.62 41.48 81.56 41.44 81.5 41.36 81.5 41.19 81.56 41.11 81.62 41.06 81.74 41.02 81.86 41.02 81.98 41.06 82.15 41.14 82.77 41.57 82.77 40.97"/><polyline class="a" points="83.72 42.99 83.66 42.99 83.53 42.94 83.47 42.9 83.41 42.82 83.41 42.65 83.47 42.56 83.53 42.52 83.66 42.47 83.78 42.47 83.9 42.52 84.07 42.61 84.68 43.02 84.68 42.44"/><polyline class="a" points="83.84 41.63 84.01 41.67 84.13 41.75 84.19 41.89 84.19 41.92 84.13 42.06 84.01 42.14 83.84 42.18 83.78 42.18 83.59 42.14 83.47 42.06 83.41 41.92 83.41 41.89 83.47 41.75 83.59 41.67 83.84 41.63 84.13 41.63 84.44 41.67 84.62 41.75 84.68 41.89 84.68 41.97 84.62 42.09 84.5 42.14"/><polyline class="a" points="85.61 43.65 85.55 43.65 85.43 43.6 85.37 43.56 85.31 43.48 85.31 43.3 85.37 43.22 85.43 43.17 85.55 43.13 85.67 43.13 85.79 43.17 85.96 43.26 86.58 43.68 86.58 43.1"/><polygon class="a" points="86.45 41.91 86.51 41.95 86.57 41.91 86.51 41.86 86.45 41.91"/><polyline class="a" points="88.55 43.6 88.55 43.13 89.04 43.39 89.04 43.26 89.1 43.17 89.16 43.13 89.35 43.1 89.47 43.1 89.65 43.13 89.76 43.22 89.82 43.34 89.82 43.48 89.76 43.6 89.71 43.65 89.59 43.68"/><polyline class="a" points="88.8 42.71 88.74 42.62 88.55 42.5 89.82 42.5"/><polygon class="a" points="89.71 41.91 89.76 41.95 89.82 41.91 89.76 41.86 89.71 41.91"/><polyline class="a" points="88.86 41.52 88.8 41.52 88.67 41.48 88.61 41.44 88.55 41.36 88.55 41.19 88.61 41.11 88.67 41.06 88.8 41.02 88.92 41.02 89.04 41.06 89.22 41.14 89.82 41.57 89.82 40.97"/><polyline class="a" points="44.51 50 44.45 49.91 44.26 49.78 45.53 49.78"/><polyline class="a" points="44.69 47.88 44.87 47.92 45 48.01 45.05 48.13 45.05 48.18 45 48.3 44.87 48.38 44.69 48.43 44.63 48.43 44.45 48.38 44.33 48.3 44.26 48.18 44.26 48.13 44.33 48.01 44.45 47.92 44.69 47.88 45 47.88 45.29 47.92 45.47 48.01 45.53 48.13 45.53 48.21 45.47 48.35 45.35 48.38"/><polygon class="a" points="45.41 47.49 45.47 47.54 45.53 47.49 45.47 47.45 45.41 47.49"/><polyline class="a" points="45.53 46.99 44.26 46.56 44.26 47.16"/><polyline class="a" points="44.69 45.76 44.87 45.81 45 45.89 45.05 46.01 45.05 46.06 45 46.19 44.87 46.27 44.69 46.31 44.63 46.31 44.45 46.27 44.33 46.19 44.26 46.06 44.26 46.01 44.33 45.89 44.45 45.81 44.69 45.76 45 45.76 45.29 45.81 45.47 45.89 45.53 46.01 45.53 46.1 45.47 46.22 45.35 46.27"/><polyline class="a" points="46.28 50.02 46.22 49.94 46.03 49.8 47.3 49.8"/><polyline class="a" points="46.46 47.9 46.64 47.94 46.77 48.03 46.83 48.15 46.83 48.2 46.77 48.32 46.64 48.41 46.46 48.44 46.4 48.44 46.22 48.41 46.09 48.32 46.03 48.2 46.03 48.15 46.09 48.03 46.22 47.94 46.46 47.9 46.77 47.9 47.07 47.94 47.24 48.03 47.3 48.15 47.3 48.24 47.24 48.36 47.13 48.41"/><polygon class="a" points="47.18 47.52 47.24 47.57 47.3 47.52 47.24 47.48 47.18 47.52"/><polyline class="a" points="46.46 46.63 46.64 46.67 46.77 46.76 46.83 46.88 46.83 46.93 46.77 47.05 46.64 47.14 46.46 47.17 46.4 47.17 46.22 47.14 46.09 47.05 46.03 46.93 46.03 46.88 46.09 46.76 46.22 46.67 46.46 46.63 46.77 46.63 47.07 46.67 47.24 46.76 47.3 46.88 47.3 46.97 47.24 47.09 47.13 47.14"/><polygon class="a" points="46.03 46.13 46.09 46.25 46.22 46.3 46.34 46.3 46.46 46.25 46.52 46.16 46.58 45.99 46.65 45.87 46.77 45.78 46.89 45.75 47.07 45.75 47.18 45.78 47.24 45.83 47.3 45.95 47.3 46.13 47.24 46.25 47.18 46.3 47.07 46.33 46.89 46.33 46.77 46.3 46.65 46.21 46.58 46.08 46.52 45.91 46.46 45.83 46.34 45.78 46.22 45.78 46.09 45.83 46.03 45.95 46.03 46.13"/><polyline class="a" points="63.78 50.02 63.72 49.94 63.53 49.8 64.8 49.8"/><polyline class="a" points="63.96 47.9 64.14 47.94 64.27 48.03 64.33 48.15 64.33 48.2 64.27 48.32 64.14 48.41 63.96 48.44 63.9 48.44 63.72 48.41 63.59 48.32 63.53 48.2 63.53 48.15 63.59 48.03 63.72 47.94 63.96 47.9 64.27 47.9 64.57 47.94 64.74 48.03 64.8 48.15 64.8 48.24 64.74 48.36 64.63 48.41"/><polygon class="a" points="64.68 47.52 64.74 47.57 64.8 47.52 64.74 47.48 64.68 47.52"/><polyline class="a" points="63.96 46.63 64.14 46.67 64.27 46.76 64.33 46.88 64.33 46.93 64.27 47.05 64.14 47.14 63.96 47.17 63.9 47.17 63.72 47.14 63.59 47.05 63.53 46.93 63.53 46.88 63.59 46.76 63.72 46.67 63.96 46.63 64.27 46.63 64.57 46.67 64.74 46.76 64.8 46.88 64.8 46.97 64.74 47.09 64.63 47.14"/><polygon class="a" points="63.53 46.13 63.59 46.25 63.72 46.3 63.84 46.3 63.96 46.25 64.02 46.16 64.08 45.99 64.14 45.87 64.27 45.78 64.39 45.75 64.57 45.75 64.68 45.78 64.74 45.83 64.8 45.95 64.8 46.13 64.74 46.25 64.68 46.3 64.57 46.33 64.39 46.33 64.27 46.3 64.14 46.21 64.08 46.08 64.02 45.91 63.96 45.83 63.84 45.78 63.72 45.78 63.59 45.83 63.53 45.95 63.53 46.13"/><polyline class="a" points="81.71 50.02 81.65 49.94 81.48 49.8 82.75 49.8"/><polyline class="a" points="81.9 47.9 82.08 47.94 82.2 48.03 82.26 48.15 82.26 48.2 82.2 48.32 82.08 48.41 81.9 48.44 81.84 48.44 81.65 48.41 81.54 48.32 81.48 48.2 81.48 48.15 81.54 48.03 81.65 47.94 81.9 47.9 82.2 47.9 82.51 47.94 82.69 48.03 82.75 48.15 82.75 48.24 82.69 48.36 82.57 48.41"/><polygon class="a" points="82.63 47.52 82.69 47.57 82.75 47.52 82.69 47.48 82.63 47.52"/><polyline class="a" points="81.9 46.63 82.08 46.67 82.2 46.76 82.26 46.88 82.26 46.93 82.2 47.05 82.08 47.14 81.9 47.17 81.84 47.17 81.65 47.14 81.54 47.05 81.48 46.93 81.48 46.88 81.54 46.76 81.65 46.67 81.9 46.63 82.2 46.63 82.51 46.67 82.69 46.76 82.75 46.88 82.75 46.97 82.69 47.09 82.57 47.14"/><polygon class="a" points="81.48 46.13 81.54 46.25 81.65 46.3 81.78 46.3 81.9 46.25 81.96 46.16 82.02 45.99 82.08 45.87 82.2 45.78 82.33 45.75 82.51 45.75 82.63 45.78 82.69 45.83 82.75 45.95 82.75 46.13 82.69 46.25 82.63 46.3 82.51 46.33 82.33 46.33 82.2 46.3 82.08 46.21 82.02 46.08 81.96 45.91 81.9 45.83 81.78 45.78 81.65 45.78 81.54 45.83 81.48 45.95 81.48 46.13"/><polyline class="a" points="83.66 49.89 83.59 49.8 83.41 49.68 84.68 49.68"/><polyline class="a" points="83.84 48.62 84.02 48.66 84.14 48.75 84.2 48.87 84.2 48.91 84.14 49.04 84.02 49.13 83.84 49.16 83.78 49.16 83.59 49.13 83.47 49.04 83.41 48.91 83.41 48.87 83.47 48.75 83.59 48.66 83.84 48.62 84.14 48.62 84.44 48.66 84.62 48.75 84.68 48.87 84.68 48.96 84.62 49.08 84.5 49.13"/><polyline class="a" points="83.66 48.2 83.59 48.12 83.41 47.98 84.68 47.98"/><polygon class="a" points="84.56 47.4 84.62 47.43 84.68 47.4 84.62 47.35 84.56 47.4"/><polygon class="a" points="83.41 46.8 83.47 46.93 83.66 47.02 83.96 47.05 84.14 47.05 84.44 47.02 84.62 46.93 84.68 46.8 84.68 46.71 84.62 46.59 84.44 46.5 84.14 46.45 83.96 46.45 83.66 46.5 83.47 46.59 83.41 46.71 83.41 46.8"/><polyline class="a" points="83.66 46.08 83.59 45.99 83.41 45.87 84.68 45.87"/><polyline class="a" points="85.52 49.89 85.46 49.8 85.28 49.68 86.55 49.68"/><polyline class="a" points="85.71 48.62 85.89 48.66 86.01 48.75 86.07 48.87 86.07 48.91 86.01 49.04 85.89 49.13 85.71 49.16 85.65 49.16 85.46 49.13 85.34 49.04 85.28 48.91 85.28 48.87 85.34 48.75 85.46 48.66 85.71 48.62 86.01 48.62 86.31 48.66 86.49 48.75 86.55 48.87 86.55 48.96 86.49 49.08 86.37 49.13"/><polyline class="a" points="85.52 48.2 85.46 48.12 85.28 47.98 86.55 47.98"/><polygon class="a" points="86.43 47.4 86.49 47.43 86.55 47.4 86.49 47.35 86.43 47.4"/><polygon class="a" points="85.28 46.8 85.34 46.93 85.52 47.02 85.83 47.05 86.01 47.05 86.31 47.02 86.49 46.93 86.55 46.8 86.55 46.71 86.49 46.59 86.31 46.5 86.01 46.45 85.83 46.45 85.52 46.5 85.34 46.59 85.28 46.71 85.28 46.8"/><polyline class="a" points="85.52 46.08 85.46 45.99 85.28 45.87 86.55 45.87"/><polyline class="a" points="88.78 50.03 88.72 49.95 88.54 49.82 89.81 49.82"/><polygon class="a" points="88.54 49.1 88.6 49.23 88.72 49.27 88.83 49.27 88.95 49.23 89.02 49.14 89.08 48.98 89.14 48.85 89.26 48.76 89.38 48.73 89.57 48.73 89.69 48.76 89.75 48.81 89.81 48.93 89.81 49.1 89.75 49.23 89.69 49.27 89.57 49.31 89.38 49.31 89.26 49.27 89.14 49.19 89.08 49.07 89.02 48.9 88.95 48.81 88.83 48.76 88.72 48.76 88.6 48.81 88.54 48.93 88.54 49.1"/><polygon class="a" points="88.54 48.26 88.6 48.38 88.72 48.43 88.83 48.43 88.95 48.38 89.02 48.3 89.08 48.13 89.14 48.01 89.26 47.92 89.38 47.88 89.57 47.88 89.69 47.92 89.75 47.96 89.81 48.09 89.81 48.26 89.75 48.38 89.69 48.43 89.57 48.47 89.38 48.47 89.26 48.43 89.14 48.35 89.08 48.21 89.02 48.04 88.95 47.96 88.83 47.92 88.72 47.92 88.6 47.96 88.54 48.09 88.54 48.26"/><polygon class="a" points="89.69 47.54 89.75 47.58 89.81 47.54 89.75 47.49 89.69 47.54"/><polyline class="a" points="88.72 46.65 88.6 46.7 88.54 46.82 88.54 46.91 88.6 47.03 88.78 47.11 89.08 47.16 89.38 47.16 89.63 47.11 89.75 47.03 89.81 46.91 89.81 46.86 89.75 46.73 89.63 46.65 89.44 46.61 89.38 46.61 89.2 46.65 89.08 46.73 89.02 46.86 89.02 46.91 89.08 47.03 89.2 47.11 89.38 47.16"/><polyline class="a" points="88.54 45.93 89.38 46.36 89.38 45.72"/><line class="a" x1="88.54" y1="45.93" x2="89.81" y2="45.93"/><polyline class="a" points="49.42 2.45 49.67 1.77 49.93 2.45"/><line class="a" x1="49.51" y1="2.23" x2="49.83" y2="2.23"/><polyline class="a" points="50 1.77 50.26 2.45 50.52 1.77"/><line class="a" x1="51.39" y1="2.06" x2="51.98" y2="2.06"/><line class="a" x1="51.39" y1="2.25" x2="51.98" y2="2.25"/><polyline class="a" points="52.3 1.9 52.36 1.86 52.46 1.77 52.46 2.44"/><polygon class="a" points="52.92 2.38 52.88 2.42 52.92 2.45 52.95 2.42 52.92 2.38"/><polyline class="a" points="53.49 1.77 53.18 2.23 53.67 2.23"/><line class="a" x1="53.49" y1="1.77" x2="53.49" y2="2.45"/><line class="a" x1="55.19" y1="1.99" x2="55.19" y2="2.45"/><polyline class="a" points="55.19 2.13 55.29 2.03 55.35 1.99 55.45 1.99 55.51 2.03 55.55 2.13 55.55 2.45"/><polyline class="a" points="55.55 2.13 55.64 2.03 55.7 1.99 55.8 1.99 55.86 2.03 55.9 2.13 55.9 2.45"/><line class="a" x1="56.51" y1="1.99" x2="56.51" y2="2.68"/><polyline class="a" points="68.27 5.46 68.27 4.78 68.56 4.78 68.66 4.82 68.7 4.85 68.72 4.91 68.72 4.97 68.7 5.05 68.66 5.07 68.56 5.11 68.27 5.11"/><line class="a" x1="68.5" y1="5.11" x2="68.72" y2="5.46"/><line class="a" x1="68.95" y1="4.78" x2="68.95" y2="5.46"/><polyline class="a" points="69.21 5.46 69.21 4.78 69.5 4.78 69.6 4.82 69.64 4.85 69.66 4.91 69.66 5.01 69.64 5.07 69.6 5.11 69.5 5.14 69.21 5.14"/><polyline class="a" points="70.6 5.46 70.6 4.78 70.89 4.78 70.99 4.82 71.03 4.85 71.07 4.91 71.07 4.97 71.03 5.05 70.99 5.07 70.89 5.11 70.6 5.11"/><line class="a" x1="70.83" y1="5.11" x2="71.07" y2="5.46"/><line class="a" x1="71.42" y1="4.78" x2="71.42" y2="5.46"/><line class="a" x1="71.19" y1="4.78" x2="71.64" y2="4.78"/><line class="a" x1="72.52" y1="5.07" x2="73.11" y2="5.07"/><line class="a" x1="72.52" y1="5.27" x2="73.11" y2="5.27"/><polyline class="a" points="73.42 4.91 73.5 4.88 73.59 4.78 73.59 5.46"/><polyline class="a" points="74.11 5.46 74.44 4.78 73.98 4.78"/><polygon class="a" points="74.69 5.4 74.66 5.42 74.69 5.46 74.73 5.42 74.69 5.4"/><polyline class="a" points="74.99 4.95 74.99 4.91 75.02 4.85 75.05 4.82 75.12 4.78 75.24 4.78 75.3 4.82 75.34 4.85 75.38 4.91 75.38 4.97 75.34 5.05 75.28 5.14 74.95 5.46 75.4 5.46"/><polyline class="a" points="75.69 4.91 75.77 4.88 75.86 4.78 75.86 5.46"/><line class="a" x1="76.96" y1="5.01" x2="76.96" y2="5.46"/><polyline class="a" points="76.96 5.14 77.06 5.05 77.12 5.01 77.22 5.01 77.28 5.05 77.32 5.14 77.32 5.46"/><polyline class="a" points="77.32 5.14 77.42 5.05 77.48 5.01 77.57 5.01 77.65 5.05 77.67 5.14 77.67 5.46"/><line class="a" x1="78.3" y1="5.01" x2="78.3" y2="5.69"/><polyline class="b" points="56.53 2.64 47.62 2.64 49.55 6.54"/><polyline class="c" points="67.84 5.72 78.92 5.72 78.92 8.19"/><polyline class="a" points="45.31 32.92 44.75 32.92 44.69 33.44 44.75 33.38 44.92 33.32 45.09 33.32 45.26 33.38 45.37 33.49 45.44 33.66 45.44 33.77 45.37 33.94 45.26 34.06 45.09 34.11 44.92 34.11 44.75 34.06 44.69 34 44.63 33.89"/><polyline class="a" points="46.7 33.1 46.66 32.97 46.48 32.92 46.36 32.92 46.19 32.97 46.08 33.15 46.02 33.44 46.02 33.72 46.08 33.94 46.19 34.06 46.36 34.11 46.42 34.11 46.59 34.06 46.7 33.94 46.77 33.77 46.77 33.72 46.7 33.55 46.59 33.44 46.42 33.38 46.36 33.38 46.19 33.44 46.08 33.55 46.02 33.72"/><polyline class="a" points="63.91 34.11 64.47 32.92 63.68 32.92"/><polygon class="a" points="82.02 32.92 81.85 32.97 81.79 33.1 81.79 33.21 81.85 33.32 81.96 33.38 82.19 33.44 82.36 33.49 82.47 33.6 82.53 33.72 82.53 33.89 82.47 34 82.42 34.06 82.25 34.11 82.02 34.11 81.85 34.06 81.79 34 81.74 33.89 81.74 33.72 81.79 33.6 81.91 33.49 82.08 33.44 82.3 33.38 82.42 33.32 82.47 33.21 82.47 33.1 82.42 32.97 82.25 32.92 82.02 32.92"/><polyline class="a" points="84.41 33.31 84.36 33.49 84.24 33.6 84.07 33.66 84.02 33.66 83.85 33.6 83.73 33.49 83.68 33.31 83.68 33.27 83.73 33.09 83.85 32.97 84.02 32.92 84.07 32.92 84.24 32.97 84.36 33.09 84.41 33.31 84.41 33.6 84.36 33.89 84.24 34.06 84.07 34.11 83.96 34.11 83.79 34.06 83.73 33.94"/><polyline class="a" points="85.06 33.14 85.17 33.09 85.34 32.92 85.34 34.11"/><polygon class="a" points="86.37 32.92 86.2 32.97 86.09 33.15 86.03 33.44 86.03 33.6 86.09 33.89 86.2 34.06 86.37 34.11 86.49 34.11 86.66 34.06 86.77 33.89 86.83 33.6 86.83 33.44 86.77 33.15 86.66 32.97 86.49 32.92 86.37 32.92"/><polyline class="a" points="88.48 33.14 88.6 33.09 88.77 32.92 88.77 34.11"/><polyline class="a" points="89.63 33.14 89.74 33.09 89.91 32.92 89.91 34.11"/><line class="a" x1="4.3" y1="29.81" x2="6.53" y2="29.81"/><polygon class="a" points="8.77 29.81 6.53 31.21 6.53 29.81 8.77 29.81"/><line class="a" x1="8.4" y1="30.04" x2="8.63" y2="29.81"/><line class="a" x1="6.65" y1="31.13" x2="7.97" y2="29.81"/><line class="a" x1="6.53" y1="30.6" x2="7.32" y2="29.81"/><line class="a" x1="6.53" y1="29.95" x2="6.66" y2="29.81"/><line class="a" x1="7.58" y1="30.56" x2="6.84" y2="29.81"/><line class="a" x1="7.18" y1="30.8" x2="6.53" y2="30.15"/><line class="a" x1="6.78" y1="31.06" x2="6.53" y2="30.8"/><line class="a" x1="7.98" y1="30.3" x2="7.5" y2="29.81"/><line class="a" x1="8.39" y1="30.04" x2="8.14" y2="29.81"/><line class="a" x1="4.3" y1="29.81" x2="6.53" y2="31.21"/><line class="a" x1="2.29" y1="28.68" x2="2.6" y2="28.98"/><line class="a" x1="3" y1="28.17" x2="3" y2="28.88"/><polyline class="a" points="3 28.48 3.05 28.33 3.15 28.22 3.25 28.18 3.4 28.18"/><rect class="a" x="3.61" y="27.85" width="0.07" height="0.07" transform="translate(-18.65 10.74) rotate(-45)"/><line class="a" x1="3.65" y1="28.22" x2="3.65" y2="28.88"/><polyline class="a" points="4.36 27.83 4.26 27.83 4.15 27.88 4.1 28.03 4.1 28.88"/><line class="a" x1="3.95" y1="28.17" x2="4.31" y2="28.17"/><polygon class="a" points="4.71 28.18 4.65 28.22 4.71 28.29 4.76 28.22 4.71 28.18"/><polygon class="a" points="4.71 28.79 4.65 28.83 4.71 28.88 4.76 28.83 4.71 28.79"/><polyline class="a" points="6.31 28.03 6.41 27.98 6.57 27.83 6.57 28.88"/><polygon class="a" points="7.42 27.83 7.26 27.88 7.21 27.98 7.21 28.08 7.26 28.18 7.37 28.22 7.57 28.29 7.71 28.33 7.83 28.43 7.87 28.53 7.87 28.68 7.83 28.79 7.76 28.83 7.62 28.88 7.42 28.88 7.26 28.83 7.21 28.79 7.17 28.68 7.17 28.53 7.21 28.43 7.31 28.33 7.47 28.29 7.67 28.22 7.76 28.18 7.83 28.08 7.83 27.98 7.76 27.88 7.62 27.83 7.42 27.83"/><polygon class="a" points="8.47 27.83 8.32 27.88 8.22 28.03 8.17 28.29 8.17 28.43 8.22 28.68 8.32 28.83 8.47 28.88 8.57 28.88 8.73 28.83 8.83 28.68 8.88 28.43 8.88 28.29 8.83 28.03 8.73 27.88 8.57 27.83 8.47 27.83"/><line class="a" x1="10.28" y1="28.17" x2="10.28" y2="28.88"/><polyline class="a" points="10.28 28.38 10.43 28.22 10.54 28.17 10.68 28.17 10.78 28.22 10.83 28.38 10.83 28.88"/><polyline class="a" points="10.83 28.38 10.99 28.22 11.09 28.17 11.23 28.17 11.33 28.22 11.39 28.38 11.39 28.88"/><polyline class="a" points="13.35 28.33 13.3 28.22 13.15 28.17 12.99 28.17 12.84 28.22 12.8 28.33 12.84 28.43 12.94 28.48 13.2 28.53 13.3 28.58 13.35 28.68 13.35 28.74 13.3 28.83 13.15 28.88 12.99 28.88 12.84 28.83 12.8 28.74"/><rect class="a" x="13.71" y="28.8" width="0.07" height="0.07" transform="translate(-16.36 18.16) rotate(-45)"/><line class="a" x1="14.2" y1="27.83" x2="14.2" y2="28.88"/><rect class="a" x="14.62" y="28.8" width="0.07" height="0.07" transform="translate(-16.1 18.8) rotate(-45)"/><line class="a" x1="15.1" y1="28.17" x2="15.1" y2="28.88"/><polyline class="a" points="15.1 28.38 15.25 28.22 15.36 28.17 15.51 28.17 15.6 28.22 15.65 28.38 15.65 28.88"/><polyline class="a" points="15.65 28.38 15.81 28.22 15.91 28.17 16.06 28.17 16.15 28.22 16.2 28.38 16.2 28.88"/><polygon class="a" points="16.65 28.79 16.61 28.83 16.65 28.88 16.71 28.83 16.65 28.79"/><line class="d" x1="35.35" y1="7.49" x2="36.33" y2="6.5"/><line class="d" x1="36.33" y1="7.49" x2="35.35" y2="6.5"/><line class="d" x1="83.56" y1="6.3" x2="84.54" y2="5.33"/><line class="d" x1="84.54" y1="6.3" x2="83.56" y2="5.33"/><line class="e" x1="38.12" y1="9.1" x2="39.1" y2="8.11"/><line class="e" x1="39.1" y1="9.1" x2="38.12" y2="8.11"/><line class="e" x1="45.04" y1="9.1" x2="46.02" y2="8.11"/><line class="e" x1="46.02" y1="9.1" x2="45.04" y2="8.11"/><line class="f" x1="42.08" y1="7.92" x2="42.08" y2="9.3"/><line class="a" x1="63.59" y1="8.67" x2="64.57" y2="7.7"/><line class="a" x1="64.57" y1="8.67" x2="63.59" y2="7.7"/></svg>