<svg xmlns="http://www.w3.org/2000/svg" viewBox="0 0 139.26 51.05"><defs><style>.a,.b,.c,.d,.e,.f{fill:none;stroke-linecap:round;stroke-linejoin:round;stroke-width:0.21px;}.a{stroke:#000;}.b{stroke:#ffbf00;}.c{stroke:red;}.d{stroke:#00b800;}.e{stroke:#00bfff;}.f{stroke:blue;}</style></defs><title>cad2.6</title><polyline class="a" points="16.59 32.44 16.71 32.38 16.88 32.2 16.88 33.4"/><line class="a" x1="16.73" y1="35.11" x2="16.73" y2="38.8"/><line class="a" x1="0.77" y1="30.49" x2="138.42" y2="30.49"/><line class="a" x1="16.73" y1="35.11" x2="138.42" y2="35.11"/><line class="a" x1="16.73" y1="38.8" x2="138.42" y2="38.8"/><line class="a" x1="16.73" y1="44.34" x2="138.42" y2="44.34"/><polyline class="a" points="16.73 49.87 138.42 49.87 138.42 30.49"/><polygon class="a" points="20.81 37.22 20.78 37.27 20.81 37.31 20.86 37.27 20.81 37.22"/><polyline class="a" points="21.69 36.39 21.25 36.39 21.22 36.78 21.25 36.73 21.39 36.7 21.52 36.7 21.66 36.73 21.74 36.83 21.79 36.95 21.79 37.05 21.74 37.17 21.66 37.27 21.52 37.31 21.39 37.31 21.25 37.27 21.22 37.22 21.17 37.14"/><polygon class="a" points="16.06 41.66 16.12 41.78 16.31 41.86 16.61 41.91 16.8 41.91 17.09 41.86 17.27 41.78 17.33 41.66 17.33 41.57 17.27 41.45 17.09 41.36 16.8 41.31 16.61 41.31 16.31 41.36 16.12 41.45 16.06 41.57 16.06 41.66"/><polyline class="a" points="16.31 49.18 16.25 49.09 16.06 48.96 17.33 48.96"/><polyline class="a" points="16.49 47.05 16.67 47.1 16.8 47.19 16.86 47.31 16.86 47.36 16.8 47.48 16.67 47.56 16.49 47.6 16.43 47.6 16.25 47.56 16.12 47.48 16.06 47.36 16.06 47.31 16.12 47.19 16.25 47.1 16.49 47.05 16.8 47.05 17.09 47.1 17.27 47.19 17.33 47.31 17.33 47.39 17.27 47.52 17.15 47.56"/><polygon class="a" points="17.21 46.67 17.27 46.72 17.33 46.67 17.27 46.64 17.21 46.67"/><polyline class="a" points="16.25 45.78 16.12 45.83 16.06 45.95 16.06 46.04 16.12 46.17 16.31 46.25 16.61 46.3 16.92 46.3 17.15 46.25 17.27 46.17 17.33 46.04 17.33 46 17.27 45.87 17.15 45.78 16.97 45.74 16.92 45.74 16.73 45.78 16.61 45.87 16.55 46 16.55 46.04 16.61 46.17 16.73 46.25 16.92 46.3"/><polyline class="a" points="16.31 45.37 16.25 45.28 16.06 45.15 17.33 45.15"/><line class="a" x1="16.73" y1="30.49" x2="16.73" y2="8.31"/><line class="a" x1="134.95" y1="30.49" x2="134.95" y2="11.41"/><line class="a" x1="101.41" y1="30.49" x2="101.41" y2="10.57"/><line class="a" x1="90.23" y1="30.49" x2="90.23" y2="10.41"/><line class="a" x1="33.93" y1="30.49" x2="33.93" y2="8.16"/><line class="a" x1="30.01" y1="30.49" x2="30.01" y2="5.46"/><line class="a" x1="24.83" y1="30.49" x2="24.83" y2="6.96"/><polyline class="a" points="16.73 8.31 20.2 7.84 24.83 6.96 30.01 5.46 32.06 5.96"/><line class="b" x1="32.14" y1="6.06" x2="32.14" y2="6.05"/><line class="b" x1="32.33" y1="6.28" x2="32.34" y2="6.27"/><line class="b" x1="32.52" y1="6.5" x2="32.54" y2="6.49"/><line class="b" x1="32.71" y1="6.72" x2="32.72" y2="6.7"/><line class="b" x1="32.89" y1="6.94" x2="32.91" y2="6.91"/><line class="b" x1="33.09" y1="7.16" x2="33.11" y2="7.13"/><line class="b" x1="33.27" y1="7.38" x2="33.31" y2="7.34"/><line class="b" x1="33.45" y1="7.6" x2="33.5" y2="7.56"/><line class="b" x1="33.65" y1="7.82" x2="33.68" y2="7.77"/><line class="b" x1="33.83" y1="8.04" x2="33.88" y2="7.99"/><line class="b" x1="34.12" y1="8.16" x2="34.25" y2="8.04"/><line class="b" x1="34.53" y1="8.16" x2="34.66" y2="8.03"/><line class="b" x1="34.94" y1="8.16" x2="35.08" y2="8.01"/><line class="b" x1="35.34" y1="8.16" x2="35.49" y2="8"/><line class="b" x1="35.76" y1="8.16" x2="35.91" y2="8"/><line class="b" x1="36.16" y1="8.16" x2="36.31" y2="8"/><line class="b" x1="36.57" y1="8.16" x2="36.72" y2="8"/><line class="b" x1="36.98" y1="8.16" x2="37.15" y2="7.98"/><line class="b" x1="37.38" y1="8.16" x2="37.58" y2="7.96"/><line class="b" x1="37.8" y1="8.16" x2="37.99" y2="7.95"/><line class="b" x1="38.2" y1="8.16" x2="38.36" y2="8"/><line class="b" x1="39.95" y1="6.41" x2="40.62" y2="5.74"/><line class="b" x1="38.6" y1="8.16" x2="38.71" y2="8.05"/><line class="b" x1="39.53" y1="7.23" x2="41.27" y2="5.51"/><line class="b" x1="39.02" y1="8.16" x2="39.07" y2="8.1"/><line class="b" x1="39.12" y1="8.05" x2="41.78" y2="5.39"/><line class="b" x1="39.42" y1="8.16" x2="42.11" y2="5.47"/><line class="b" x1="39.84" y1="8.16" x2="42.44" y2="5.55"/><line class="b" x1="40.24" y1="8.16" x2="42.77" y2="5.63"/><line class="b" x1="40.64" y1="8.16" x2="43.1" y2="5.72"/><line class="b" x1="41.45" y1="7.77" x2="43.42" y2="5.79"/><line class="b" x1="41.85" y1="7.77" x2="43.75" y2="5.88"/><line class="b" x1="42.27" y1="7.77" x2="44.07" y2="5.95"/><line class="b" x1="42.67" y1="7.77" x2="44.36" y2="6.08"/><line class="b" x1="43.09" y1="7.77" x2="44.64" y2="6.21"/><line class="b" x1="43.49" y1="7.77" x2="44.93" y2="6.33"/><line class="b" x1="43.89" y1="7.77" x2="45.21" y2="6.45"/><line class="b" x1="44.31" y1="7.77" x2="45.49" y2="6.57"/><line class="b" x1="44.71" y1="7.77" x2="45.77" y2="6.69"/><line class="b" x1="45.13" y1="7.77" x2="46.07" y2="6.83"/><line class="b" x1="45.53" y1="7.77" x2="46.35" y2="6.95"/><line class="b" x1="45.93" y1="7.77" x2="46.63" y2="7.07"/><line class="b" x1="46.35" y1="7.77" x2="46.91" y2="7.2"/><line class="b" x1="46.75" y1="7.77" x2="47.2" y2="7.32"/><line class="b" x1="47.16" y1="7.77" x2="47.48" y2="7.44"/><line class="b" x1="47.57" y1="7.77" x2="47.78" y2="7.56"/><line class="b" x1="47.98" y1="7.77" x2="48.06" y2="7.68"/><polyline class="b" points="32.06 5.96 33.93 8.04 35.59 8 36.65 8 37.92 7.94 38.65 8.04"/><polyline class="b" points="39.13 8.04 40.2 5.89 41.66 5.36 44.07 5.96 47.26 7.35"/><line class="c" x1="48.35" y1="7.79" x2="48.39" y2="7.77"/><line class="c" x1="48.64" y1="7.92" x2="48.79" y2="7.77"/><line class="c" x1="48.92" y1="8.04" x2="49.2" y2="7.77"/><line class="c" x1="49.22" y1="8.16" x2="49.61" y2="7.77"/><line class="c" x1="49.51" y1="8.27" x2="50.02" y2="7.77"/><line class="c" x1="49.79" y1="8.39" x2="50.42" y2="7.77"/><line class="c" x1="50.08" y1="8.51" x2="50.83" y2="7.77"/><line class="c" x1="50.38" y1="8.64" x2="51.24" y2="7.77"/><line class="c" x1="50.66" y1="8.75" x2="51.65" y2="7.77"/><line class="c" x1="50.95" y1="8.87" x2="52.06" y2="7.77"/><line class="c" x1="51.24" y1="8.99" x2="52.46" y2="7.77"/><line class="c" x1="51.52" y1="9.11" x2="52.87" y2="7.77"/><line class="c" x1="51.82" y1="9.22" x2="53.28" y2="7.77"/><line class="c" x1="52.11" y1="9.34" x2="53.68" y2="7.77"/><line class="c" x1="52.5" y1="9.36" x2="54.1" y2="7.77"/><line class="c" x1="52.92" y1="9.36" x2="54.5" y2="7.77"/><line class="c" x1="53.32" y1="9.36" x2="54.91" y2="7.77"/><line class="c" x1="53.72" y1="9.36" x2="55.32" y2="7.77"/><line class="c" x1="54.14" y1="9.36" x2="55.72" y2="7.77"/><line class="c" x1="54.54" y1="9.36" x2="56.14" y2="7.77"/><line class="c" x1="54.96" y1="9.36" x2="56.54" y2="7.77"/><line class="c" x1="55.36" y1="9.36" x2="56.94" y2="7.77"/><line class="c" x1="55.76" y1="9.36" x2="57.36" y2="7.77"/><line class="c" x1="56.18" y1="9.36" x2="57.76" y2="7.77"/><line class="c" x1="56.58" y1="9.36" x2="58.18" y2="7.77"/><line class="c" x1="56.98" y1="9.36" x2="58.58" y2="7.77"/><line class="c" x1="57.4" y1="9.36" x2="58.98" y2="7.77"/><polyline class="c" points="57.8 9.36 59.2 7.95 59.4 7.77"/><polyline class="c" points="58.22 9.36 59.2 8.36 59.8 7.77"/><polyline class="c" points="58.62 9.36 59.2 8.77 60.22 7.77"/><polyline class="c" points="59.02 9.36 59.2 9.17 60.62 7.77"/><line class="c" x1="59.44" y1="9.36" x2="61.04" y2="7.77"/><line class="c" x1="59.84" y1="9.36" x2="61.44" y2="7.77"/><line class="c" x1="60.24" y1="9.37" x2="61.84" y2="7.77"/><line class="c" x1="60.65" y1="9.37" x2="62.26" y2="7.77"/><line class="c" x1="61.05" y1="9.38" x2="62.66" y2="7.77"/><line class="c" x1="61.44" y1="9.39" x2="63.08" y2="7.77"/><line class="c" x1="61.84" y1="9.41" x2="63.48" y2="7.77"/><line class="c" x1="62.24" y1="9.41" x2="63.88" y2="7.77"/><line class="c" x1="62.64" y1="9.42" x2="64.3" y2="7.77"/><line class="c" x1="63.04" y1="9.43" x2="64.7" y2="7.77"/><line class="c" x1="63.44" y1="9.43" x2="65.11" y2="7.77"/><line class="c" x1="63.83" y1="9.44" x2="65.52" y2="7.77"/><line class="c" x1="64.24" y1="9.45" x2="65.92" y2="7.77"/><line class="c" x1="64.64" y1="9.47" x2="66.34" y2="7.77"/><line class="c" x1="65.03" y1="9.47" x2="66.74" y2="7.77"/><line class="c" x1="65.43" y1="9.48" x2="67.15" y2="7.77"/><line class="c" x1="65.83" y1="9.49" x2="67.56" y2="7.77"/><line class="c" x1="66.24" y1="9.49" x2="67.96" y2="7.77"/><line class="c" x1="66.63" y1="9.5" x2="68.37" y2="7.77"/><line class="c" x1="67.03" y1="9.52" x2="68.78" y2="7.77"/><line class="c" x1="67.43" y1="9.53" x2="69.19" y2="7.77"/><line class="c" x1="67.83" y1="9.53" x2="69.6" y2="7.77"/><line class="c" x1="68.22" y1="9.55" x2="70" y2="7.77"/><line class="c" x1="68.61" y1="9.58" x2="70.41" y2="7.77"/><line class="c" x1="68.99" y1="9.6" x2="70.82" y2="7.77"/><line class="c" x1="69.38" y1="9.63" x2="71.23" y2="7.77"/><line class="c" x1="69.75" y1="9.65" x2="71.64" y2="7.77"/><line class="c" x1="70.15" y1="9.66" x2="72.05" y2="7.77"/><line class="c" x1="70.52" y1="9.69" x2="72.45" y2="7.77"/><line class="c" x1="70.91" y1="9.71" x2="72.86" y2="7.77"/><line class="c" x1="71.29" y1="9.74" x2="73.27" y2="7.77"/><line class="c" x1="71.68" y1="9.76" x2="73.67" y2="7.77"/><line class="c" x1="72.06" y1="9.78" x2="74.09" y2="7.77"/><line class="c" x1="72.45" y1="9.81" x2="74.49" y2="7.77"/><line class="c" x1="72.83" y1="9.83" x2="74.9" y2="7.77"/><line class="c" x1="73.22" y1="9.86" x2="75.31" y2="7.77"/><line class="c" x1="73.6" y1="9.87" x2="75.71" y2="7.77"/><line class="c" x1="73.99" y1="9.89" x2="76.13" y2="7.77"/><line class="c" x1="74.37" y1="9.92" x2="76.53" y2="7.77"/><line class="c" x1="74.76" y1="9.94" x2="76.94" y2="7.77"/><line class="c" x1="79.46" y1="5.24" x2="77.72" y2="6.99"/><line class="c" x1="75.14" y1="9.97" x2="77.08" y2="8.03"/><polyline class="c" points="79.86 5.24 79.14 5.97 77.08 8.03"/><line class="c" x1="75.53" y1="9.99" x2="77.08" y2="8.44"/><polyline class="c" points="80.27 5.24 79.14 6.38 77.08 8.44"/><line class="c" x1="75.91" y1="10.02" x2="77.08" y2="8.84"/><line class="c" x1="80.68" y1="5.24" x2="77.08" y2="8.84"/><line class="c" x1="76.3" y1="10.04" x2="77.08" y2="9.26"/><line class="c" x1="81.09" y1="5.24" x2="81.09" y2="5.23"/><polyline class="c" points="77.08 9.26 79.14 7.2 81.09 5.24"/><line class="c" x1="76.68" y1="10.07" x2="77.08" y2="9.66"/><line class="c" x1="81.09" y1="5.66" x2="81.25" y2="5.5"/><line class="c" x1="77.08" y1="9.66" x2="81.09" y2="5.66"/><line class="c" x1="77.07" y1="10.08" x2="77.08" y2="10.07"/><line class="c" x1="81.09" y1="6.06" x2="81.4" y2="5.74"/><polyline class="c" points="77.08 10.06 79.14 8.01 81.09 6.06"/><line class="c" x1="77.45" y1="10.1" x2="79.14" y2="8.42"/><line class="c" x1="81.56" y1="6" x2="79.14" y2="8.42"/><line class="c" x1="77.84" y1="10.13" x2="79.15" y2="8.82"/><line class="c" x1="81.72" y1="6.24" x2="79.14" y2="8.82"/><line class="c" x1="78.23" y1="10.15" x2="79.15" y2="9.23"/><polyline class="c" points="81.88 6.49 81.09 7.28 79.14 9.23"/><line class="c" x1="78.62" y1="10.16" x2="79.14" y2="9.64"/><line class="c" x1="82.04" y1="6.74" x2="79.14" y2="9.64"/><line class="c" x1="79.02" y1="10.18" x2="79.14" y2="10.05"/><polyline class="c" points="82.2 6.99 81.09 8.1 79.14 10.05"/><line class="c" x1="79.41" y1="10.19" x2="82.36" y2="7.24"/><line class="c" x1="79.82" y1="10.19" x2="82.52" y2="7.49"/><polyline class="c" points="80.22 10.2 81.09 9.32 82.67 7.75"/><line class="c" x1="80.61" y1="10.21" x2="82.83" y2="7.99"/><line class="c" x1="81.01" y1="10.21" x2="82.99" y2="8.23"/><line class="c" x1="81.42" y1="10.22" x2="83.15" y2="8.49"/><line class="c" x1="81.82" y1="10.24" x2="83.31" y2="8.73"/><line class="c" x1="82.21" y1="10.24" x2="83.47" y2="8.99"/><line class="c" x1="82.61" y1="10.25" x2="83.63" y2="9.23"/><line class="c" x1="83.02" y1="10.26" x2="83.78" y2="9.49"/><line class="c" x1="83.42" y1="10.26" x2="83.94" y2="9.74"/><line class="c" x1="83.81" y1="10.27" x2="84.1" y2="9.98"/><line class="c" x1="84.21" y1="10.29" x2="84.26" y2="10.24"/><polyline class="c" points="48.26 7.77 52.13 9.36 59.99 9.36 67.87 9.53 78.35 10.16"/><polyline class="a" points="84.29 10.29 90.23 10.41 101.41 10.57 113.81 11.07 134.95 11.41"/><polyline class="a" points="24.5 32.48 24.5 32.44 24.55 32.31 24.61 32.26 24.72 32.2 24.95 32.2 25.06 32.26 25.12 32.31 25.18 32.44 25.18 32.55 25.12 32.66 25.01 32.83 24.44 33.4 25.23 33.4"/><polyline class="a" points="29.73 32.2 30.35 32.2 30.01 32.66 30.18 32.66 30.29 32.72 30.35 32.78 30.41 32.95 30.41 33.06 30.35 33.23 30.24 33.34 30.07 33.4 29.9 33.4 29.73 33.34 29.67 33.29 29.61 33.17"/><polyline class="a" points="34.07 32.2 33.5 33 34.35 33"/><line class="a" x1="34.07" y1="32.2" x2="34.07" y2="33.4"/><polyline class="a" points="89.35 32.44 89.46 32.38 89.64 32.2 89.64 33.4"/><polyline class="a" points="90.38 32.48 90.38 32.44 90.44 32.31 90.49 32.26 90.61 32.2 90.83 32.2 90.95 32.26 91 32.31 91.06 32.44 91.06 32.55 91 32.66 90.89 32.83 90.32 33.4 91.12 33.4"/><polyline class="a" points="100.53 32.44 100.64 32.38 100.81 32.2 100.81 33.4"/><polyline class="a" points="101.6 32.2 102.24 32.2 101.89 32.66 102.06 32.66 102.17 32.72 102.24 32.78 102.28 32.95 102.28 33.06 102.24 33.23 102.11 33.34 101.94 33.4 101.77 33.4 101.6 33.34 101.55 33.29 101.49 33.17"/><polyline class="a" points="134.05 32.44 134.16 32.38 134.33 32.2 134.33 33.4"/><polyline class="a" points="135.58 32.2 135.01 33 135.87 33"/><line class="a" x1="135.58" y1="32.2" x2="135.58" y2="33.4"/><line class="a" x1="24.83" y1="35.11" x2="24.83" y2="38.8"/><line class="a" x1="30.01" y1="35.11" x2="30.01" y2="38.8"/><line class="a" x1="33.93" y1="35.11" x2="33.93" y2="38.8"/><line class="a" x1="90.23" y1="35.11" x2="90.23" y2="38.8"/><line class="a" x1="101.41" y1="35.11" x2="101.41" y2="38.8"/><line class="a" x1="134.95" y1="35.11" x2="134.95" y2="38.8"/><polyline class="a" points="26.33 36.61 26.33 36.56 26.38 36.48 26.42 36.43 26.5 36.39 26.69 36.39 26.77 36.43 26.82 36.48 26.86 36.56 26.86 36.65 26.82 36.73 26.72 36.87 26.28 37.31 26.91 37.31"/><polygon class="a" points="27.26 37.22 27.21 37.27 27.26 37.31 27.3 37.27 27.26 37.22"/><polyline class="a" points="27.65 36.61 27.65 36.56 27.7 36.48 27.74 36.43 27.82 36.39 28 36.39 28.09 36.43 28.14 36.48 28.18 36.56 28.18 36.65 28.14 36.73 28.04 36.87 27.6 37.31 28.23 37.31"/><polyline class="a" points="31 36.56 31.08 36.51 31.22 36.39 31.22 37.31"/><polygon class="a" points="31.83 37.22 31.78 37.27 31.83 37.31 31.88 37.27 31.83 37.22"/><polyline class="a" points="32.35 37.31 32.79 36.39 32.18 36.39"/><polyline class="a" points="95.24 36.39 94.8 37 95.46 37"/><line class="a" x1="95.24" y1="36.39" x2="95.24" y2="37.31"/><polygon class="a" points="95.76 37.22 95.72 37.27 95.76 37.31 95.8 37.27 95.76 37.22"/><polygon class="a" points="96.34 36.39 96.2 36.43 96.16 36.51 96.16 36.61 96.2 36.7 96.29 36.73 96.46 36.78 96.59 36.83 96.68 36.92 96.73 37 96.73 37.14 96.68 37.22 96.64 37.27 96.51 37.31 96.34 37.31 96.2 37.27 96.16 37.22 96.12 37.14 96.12 37 96.16 36.92 96.24 36.83 96.38 36.78 96.56 36.73 96.64 36.7 96.68 36.61 96.68 36.51 96.64 36.43 96.51 36.39 96.34 36.39"/><polyline class="a" points="116.51 36.56 116.61 36.51 116.73 36.39 116.73 37.31"/><polyline class="a" points="117.71 36.39 117.27 37 117.93 37"/><line class="a" x1="117.71" y1="36.39" x2="117.71" y2="37.31"/><polygon class="a" points="118.23 37.22 118.18 37.27 118.23 37.31 118.27 37.27 118.23 37.22"/><polyline class="a" points="119.11 36.39 118.67 36.39 118.62 36.78 118.67 36.73 118.81 36.7 118.93 36.7 119.06 36.73 119.15 36.83 119.2 36.95 119.2 37.05 119.15 37.17 119.06 37.27 118.93 37.31 118.81 37.31 118.67 37.27 118.62 37.22 118.59 37.14"/><polyline class="a" points="24.23 42.46 24.23 42 24.72 42.25 24.72 42.12 24.78 42.03 24.84 42 25.03 41.95 25.14 41.95 25.32 42 25.44 42.08 25.5 42.2 25.5 42.33 25.44 42.46 25.38 42.5 25.26 42.55"/><polygon class="a" points="25.38 41.62 25.44 41.66 25.5 41.62 25.44 41.57 25.38 41.62"/><polyline class="a" points="24.23 40.76 24.23 41.19 24.78 41.23 24.72 41.19 24.66 41.07 24.66 40.94 24.72 40.81 24.84 40.73 25.03 40.68 25.14 40.68 25.32 40.73 25.44 40.81 25.5 40.94 25.5 41.07 25.44 41.19 25.38 41.23 25.26 41.28"/><polyline class="a" points="29.41 42.03 29.41 42.46 29.95 42.5 29.89 42.46 29.82 42.33 29.82 42.2 29.89 42.08 30.01 42 30.19 41.95 30.31 41.95 30.5 42 30.62 42.08 30.67 42.2 30.67 42.33 30.62 42.46 30.56 42.5 30.44 42.55"/><polygon class="a" points="30.56 41.62 30.62 41.66 30.67 41.62 30.62 41.57 30.56 41.62"/><polygon class="a" points="29.41 41.07 29.46 41.19 29.58 41.23 29.7 41.23 29.82 41.19 29.89 41.11 29.95 40.94 30.01 40.81 30.13 40.73 30.25 40.68 30.44 40.68 30.56 40.73 30.62 40.76 30.67 40.9 30.67 41.07 30.62 41.19 30.56 41.23 30.44 41.28 30.25 41.28 30.13 41.23 30.01 41.14 29.95 41.02 29.89 40.85 29.82 40.76 29.7 40.73 29.58 40.73 29.46 40.76 29.41 40.9 29.41 41.07"/><polyline class="a" points="34.6 42.38 33.33 41.95 33.33 42.55"/><polygon class="a" points="34.48 41.62 34.54 41.66 34.6 41.62 34.54 41.57 34.48 41.62"/><polyline class="a" points="33.33 40.76 33.33 41.19 33.87 41.23 33.8 41.19 33.74 41.07 33.74 40.94 33.8 40.81 33.93 40.73 34.11 40.68 34.23 40.68 34.42 40.73 34.54 40.81 34.6 40.94 34.6 41.07 34.54 41.19 34.48 41.23 34.35 41.28"/><polyline class="a" points="89.63 42.86 89.63 42.4 90.11 42.64 90.11 42.52 90.17 42.44 90.23 42.4 90.42 42.35 90.54 42.35 90.72 42.4 90.84 42.48 90.9 42.61 90.9 42.73 90.84 42.86 90.78 42.9 90.66 42.95"/><polyline class="a" points="89.88 41.97 89.82 41.89 89.64 41.76 90.91 41.76"/><polygon class="a" points="90.78 41.17 90.84 41.22 90.9 41.17 90.84 41.13 90.78 41.17"/><polyline class="a" points="90.05 40.27 90.23 40.32 90.36 40.41 90.42 40.53 90.42 40.58 90.36 40.7 90.23 40.79 90.05 40.84 89.99 40.84 89.82 40.79 89.7 40.7 89.64 40.58 89.64 40.53 89.7 40.41 89.82 40.32 90.05 40.27 90.36 40.27 90.66 40.32 90.84 40.41 90.91 40.53 90.91 40.62 90.84 40.75 90.72 40.79"/><polyline class="a" points="100.8 42.89 100.8 42.41 101.28 42.67 101.28 42.55 101.34 42.46 101.41 42.41 101.59 42.38 101.71 42.38 101.89 42.41 102 42.5 102.06 42.63 102.06 42.75 102 42.89 101.94 42.92 101.83 42.96"/><polyline class="a" points="100.98 41.57 100.86 41.62 100.8 41.74 100.8 41.83 100.86 41.95 101.04 42.03 101.34 42.08 101.65 42.08 101.89 42.03 102 41.95 102.06 41.83 102.06 41.78 102 41.65 101.89 41.57 101.71 41.53 101.65 41.53 101.47 41.57 101.34 41.65 101.28 41.78 101.28 41.83 101.34 41.95 101.47 42.03 101.65 42.08"/><polygon class="a" points="101.94 41.19 102 41.23 102.06 41.19 102 41.14 101.94 41.19"/><polyline class="a" points="102.06 40.68 100.8 40.26 100.8 40.85"/><polyline class="a" points="134.35 42.46 134.35 42.89 134.9 42.92 134.84 42.89 134.78 42.75 134.78 42.63 134.84 42.5 134.96 42.41 135.13 42.38 135.25 42.38 135.44 42.41 135.56 42.5 135.62 42.63 135.62 42.75 135.56 42.89 135.5 42.92 135.38 42.96"/><polyline class="a" points="134.59 42 134.53 41.91 134.35 41.78 135.62 41.78"/><polygon class="a" points="135.5 41.19 135.56 41.23 135.62 41.19 135.56 41.14 135.5 41.19"/><polyline class="a" points="134.66 40.81 134.59 40.81 134.47 40.76 134.41 40.73 134.35 40.64 134.35 40.47 134.41 40.38 134.47 40.35 134.59 40.3 134.72 40.3 134.84 40.35 135.02 40.43 135.62 40.85 135.62 40.26"/><polyline class="a" points="24.44 48.87 24.38 48.79 24.2 48.66 25.47 48.66"/><polyline class="a" points="24.62 47.6 24.81 47.65 24.93 47.74 24.99 47.86 24.99 47.91 24.93 48.03 24.81 48.12 24.62 48.15 24.56 48.15 24.38 48.12 24.26 48.03 24.2 47.91 24.2 47.86 24.26 47.74 24.38 47.65 24.62 47.6 24.93 47.6 25.23 47.65 25.4 47.74 25.47 47.86 25.47 47.94 25.4 48.07 25.3 48.12"/><polygon class="a" points="24.2 47.05 24.26 47.19 24.44 47.27 24.74 47.31 24.93 47.31 25.23 47.27 25.4 47.19 25.46 47.05 25.46 46.97 25.4 46.84 25.23 46.76 24.93 46.72 24.74 46.72 24.44 46.76 24.26 46.84 24.2 46.97 24.2 47.05"/><polygon class="a" points="25.36 46.38 25.41 46.42 25.47 46.38 25.41 46.33 25.36 46.38"/><polyline class="a" points="24.5 46 24.44 46 24.32 45.95 24.26 45.92 24.2 45.83 24.2 45.66 24.26 45.58 24.32 45.54 24.44 45.49 24.56 45.49 24.68 45.54 24.87 45.62 25.47 46.04 25.47 45.45"/><polyline class="a" points="29.62 49.3 29.56 49.21 29.37 49.09 30.64 49.09"/><polyline class="a" points="29.79 48.03 29.97 48.07 30.09 48.15 30.15 48.28 30.15 48.32 30.09 48.46 29.97 48.54 29.79 48.58 29.74 48.58 29.56 48.54 29.43 48.46 29.37 48.32 29.37 48.28 29.43 48.15 29.56 48.07 29.79 48.03 30.09 48.03 30.4 48.07 30.58 48.15 30.64 48.28 30.64 48.37 30.58 48.49 30.46 48.54"/><polygon class="a" points="29.37 47.48 29.43 47.6 29.62 47.69 29.91 47.74 30.09 47.74 30.4 47.69 30.58 47.6 30.64 47.48 30.64 47.4 30.58 47.27 30.4 47.19 30.09 47.14 29.91 47.14 29.62 47.19 29.43 47.27 29.37 47.4 29.37 47.48"/><polygon class="a" points="30.52 46.81 30.58 46.84 30.64 46.81 30.58 46.76 30.52 46.81"/><polyline class="a" points="29.37 45.11 29.37 45.54 29.91 45.58 29.85 45.54 29.79 45.4 29.79 45.28 29.85 45.15 29.97 45.06 30.16 45.03 30.28 45.03 30.46 45.06 30.58 45.15 30.64 45.28 30.64 45.4 30.58 45.54 30.52 45.58 30.4 45.62"/><polyline class="a" points="33.54 49.3 33.48 49.21 33.29 49.09 34.56 49.09"/><polygon class="a" points="33.29 48.37 33.35 48.49 33.48 48.54 33.6 48.54 33.72 48.49 33.78 48.41 33.84 48.24 33.9 48.12 34.01 48.03 34.14 47.99 34.32 47.99 34.44 48.03 34.5 48.07 34.56 48.2 34.56 48.37 34.5 48.49 34.44 48.54 34.32 48.58 34.14 48.58 34.01 48.54 33.9 48.46 33.84 48.32 33.78 48.15 33.72 48.07 33.6 48.03 33.48 48.03 33.35 48.07 33.29 48.2 33.29 48.37"/><polyline class="a" points="33.72 47.19 33.9 47.22 34.01 47.31 34.07 47.43 34.07 47.48 34.01 47.6 33.9 47.69 33.72 47.74 33.66 47.74 33.48 47.69 33.35 47.6 33.29 47.48 33.29 47.43 33.35 47.31 33.48 47.22 33.72 47.19 34.01 47.19 34.32 47.22 34.5 47.31 34.56 47.43 34.56 47.52 34.5 47.65 34.38 47.69"/><polygon class="a" points="34.44 46.81 34.5 46.84 34.56 46.81 34.5 46.76 34.44 46.81"/><polyline class="a" points="33.48 45.92 33.35 45.95 33.29 46.09 33.29 46.17 33.35 46.3 33.54 46.38 33.84 46.42 34.13 46.42 34.38 46.38 34.5 46.3 34.56 46.17 34.56 46.13 34.5 46 34.38 45.92 34.2 45.87 34.13 45.87 33.96 45.92 33.84 46 33.78 46.13 33.78 46.17 33.84 46.3 33.96 46.38 34.13 46.42"/><polyline class="a" points="89.84 49.18 89.78 49.09 89.6 48.96 90.87 48.96"/><polygon class="a" points="89.6 47.39 89.66 47.52 89.78 47.56 89.9 47.56 90.03 47.52 90.09 47.43 90.15 47.27 90.21 47.14 90.32 47.05 90.44 47.02 90.62 47.02 90.75 47.05 90.81 47.1 90.87 47.22 90.87 47.39 90.81 47.52 90.75 47.56 90.62 47.6 90.44 47.6 90.32 47.56 90.21 47.48 90.15 47.36 90.09 47.19 90.03 47.1 89.9 47.05 89.78 47.05 89.66 47.1 89.6 47.22 89.6 47.39"/><polygon class="a" points="90.75 46.67 90.81 46.72 90.87 46.67 90.81 46.64 90.75 46.67"/><polyline class="a" points="90.87 46.17 89.6 45.75 89.6 46.33"/><polyline class="a" points="89.84 45.37 89.78 45.28 89.6 45.15 90.87 45.15"/><polyline class="a" points="101.02 49.32 100.95 49.24 100.77 49.1 102.04 49.1"/><polygon class="a" points="101.92 46.82 101.98 46.87 102.04 46.82 101.98 46.78 101.92 46.82"/><polyline class="a" points="102.04 46.32 100.77 45.89 100.77 46.49"/><polyline class="a" points="100.77 45.22 101.61 45.64 101.61 45"/><line class="a" x1="100.77" y1="45.22" x2="102.04" y2="45.22"/><polyline class="a" points="134.56 49.3 134.5 49.21 134.31 49.09 135.59 49.09"/><polygon class="a" points="134.31 48.37 134.38 48.49 134.5 48.54 134.62 48.54 134.74 48.49 134.8 48.41 134.86 48.24 134.93 48.12 135.05 48.03 135.17 47.99 135.35 47.99 135.46 48.03 135.52 48.07 135.59 48.2 135.59 48.37 135.52 48.49 135.46 48.54 135.35 48.58 135.17 48.58 135.05 48.54 134.93 48.46 134.86 48.32 134.8 48.15 134.74 48.07 134.62 48.03 134.5 48.03 134.38 48.07 134.31 48.2 134.31 48.37"/><polygon class="a" points="135.46 46.81 135.52 46.84 135.58 46.81 135.52 46.76 135.46 46.81"/><polyline class="a" points="134.62 46.42 134.56 46.42 134.44 46.38 134.38 46.33 134.31 46.25 134.31 46.09 134.38 46 134.44 45.95 134.56 45.92 134.68 45.92 134.8 45.95 134.99 46.04 135.59 46.47 135.59 45.87"/><polyline class="a" points="135.58 45.45 134.31 45.03 134.31 45.62"/><polyline class="a" points="33.93 8.16 40.85 8.16 41.34 7.77 77.08 7.77"/><polyline class="a" points="81.09 5.24 79.14 5.24 77.08 7.77"/><line class="a" x1="81.09" y1="5.24" x2="84.29" y2="10.28"/><polygon class="a" points="1.75 41.1 1.75 40.18 2.06 40.18 2.19 40.21 2.29 40.31 2.33 40.4 2.38 40.53 2.38 40.75 2.33 40.88 2.29 40.97 2.19 41.06 2.06 41.1 1.75 41.1"/><line class="a" x1="2.68" y1="40.18" x2="2.68" y2="41.11"/><line class="a" x1="4.1" y1="40.18" x2="4.1" y2="41.11"/><line class="a" x1="3.79" y1="40.18" x2="4.4" y2="40.18"/><rect class="a" x="4.64" y="41.02" width="0.07" height="0.07" transform="translate(-27.66 15.33) rotate(-45)"/><polyline class="a" points="6 41.1 6 40.18 6.39 40.18 6.53 40.21 6.58 40.26 6.61 40.35 6.61 40.48 6.58 40.57 6.53 40.62 6.39 40.65 6 40.65"/><polyline class="a" points="6.93 41.1 6.93 40.18 7.32 40.18 7.45 40.21 7.5 40.26 7.54 40.35 7.54 40.43 7.5 40.53 7.45 40.57 7.32 40.62 6.93 40.62"/><line class="a" x1="7.23" y1="40.62" x2="7.54" y2="41.11"/><polyline class="a" points="9.75 41.1 9.75 40.18 10.15 40.18 10.29 40.21 10.32 40.26 10.37 40.35 10.37 40.43 10.32 40.53 10.29 40.57 10.15 40.62 9.75 40.62"/><line class="a" x1="10.06" y1="40.62" x2="10.37" y2="41.11"/><polyline class="a" points="10.68 41.1 10.68 40.18 11.25 40.18"/><line class="a" x1="10.68" y1="40.62" x2="11.03" y2="40.62"/><line class="a" x1="10.68" y1="41.11" x2="11.25" y2="41.11"/><polyline class="a" points="12.09 40.31 12.01 40.21 11.87 40.18 11.69 40.18 11.57 40.21 11.47 40.31 11.47 40.4 11.52 40.48 11.57 40.53 11.65 40.57 11.91 40.65 12.01 40.7 12.04 40.75 12.09 40.84 12.09 40.97 12.01 41.06 11.87 41.11 11.69 41.11 11.57 41.06 11.47 40.97"/><polyline class="a" points="12.97 40.31 12.89 40.21 12.75 40.18 12.58 40.18 12.45 40.21 12.36 40.31 12.36 40.4 12.4 40.48 12.45 40.53 12.53 40.57 12.8 40.65 12.89 40.7 12.94 40.75 12.97 40.84 12.97 40.97 12.89 41.06 12.75 41.11 12.58 41.11 12.45 41.06 12.36 40.97"/><line class="a" x1="13.29" y1="40.18" x2="13.29" y2="41.11"/><polyline class="a" points="13.51 40.18 13.87 41.1 14.22 40.18"/><polyline class="a" points="14.3 41.1 14.66 40.18 15.01 41.1"/><line class="a" x1="14.44" y1="40.79" x2="14.88" y2="40.79"/><line class="a" x1="2.37" y1="42.2" x2="2.37" y2="42.83"/><polyline class="a" points="2.38 42.39 2.51 42.25 2.6 42.2 2.73 42.2 2.81 42.25 2.86 42.39 2.86 42.83"/><polyline class="a" points="2.86 42.39 2.98 42.25 3.08 42.2 3.22 42.2 3.3 42.25 3.34 42.39 3.34 42.83"/><polygon class="a" points="1.75 36.27 1.75 35.34 2.06 35.34 2.19 35.39 2.29 35.48 2.33 35.56 2.38 35.7 2.38 35.92 2.33 36.05 2.29 36.14 2.19 36.22 2.06 36.27 1.75 36.27"/><line class="a" x1="2.68" y1="35.34" x2="2.68" y2="36.27"/><line class="a" x1="4.1" y1="35.34" x2="4.1" y2="36.27"/><line class="a" x1="3.79" y1="35.34" x2="4.4" y2="35.34"/><polygon class="a" points="4.67 36.18 4.62 36.22 4.67 36.27 4.72 36.22 4.67 36.18"/><polyline class="a" points="6 36.27 6 35.34 6.39 35.34 6.53 35.39 6.58 35.43 6.61 35.51 6.61 35.65 6.58 35.73 6.53 35.78 6.39 35.83 6 35.83"/><polyline class="a" points="6.79 36.27 7.15 35.34 7.5 36.27"/><line class="a" x1="6.93" y1="35.96" x2="7.37" y2="35.96"/><polyline class="a" points="7.72 36.27 7.72 35.34 8.11 35.34 8.25 35.39 8.3 35.43 8.33 35.51 8.33 35.61 8.3 35.7 8.25 35.73 8.11 35.78 7.72 35.78"/><line class="a" x1="8.03" y1="35.78" x2="8.33" y2="36.27"/><polyline class="a" points="8.6 36.27 9.22 35.34 8.6 35.34"/><line class="a" x1="8.6" y1="36.27" x2="9.23" y2="36.27"/><line class="a" x1="9.53" y1="35.34" x2="9.53" y2="36.27"/><polyline class="a" points="9.75 36.27 10.1 35.34 10.46 36.27"/><line class="a" x1="9.88" y1="35.96" x2="10.32" y2="35.96"/><polyline class="a" points="10.68 35.34 10.68 36.27 11.21 36.27"/><polyline class="a" points="11.44 36.27 11.44 35.34 12.01 35.34"/><line class="a" x1="11.44" y1="35.78" x2="11.79" y2="35.78"/><line class="a" x1="11.44" y1="36.27" x2="12.01" y2="36.27"/><line class="a" x1="2.37" y1="37.37" x2="2.37" y2="37.99"/><polyline class="a" points="2.38 37.55 2.51 37.42 2.6 37.37 2.73 37.37 2.81 37.42 2.86 37.55 2.86 37.99"/><polyline class="a" points="2.86 37.55 2.98 37.42 3.08 37.37 3.22 37.37 3.3 37.42 3.34 37.55 3.34 37.99"/><polyline class="a" points="1.75 32.39 2.11 33.31 2.46 32.39"/><polyline class="a" points="2.68 33.31 2.68 32.39 3.25 32.39"/><line class="a" x1="2.68" y1="32.84" x2="3.03" y2="32.84"/><line class="a" x1="2.68" y1="33.31" x2="3.25" y2="33.31"/><line class="a" x1="3.83" y1="32.84" x2="4.15" y2="33.31"/><line class="a" x1="4.62" y1="32.39" x2="4.62" y2="33.31"/><line class="a" x1="4.32" y1="32.39" x2="4.94" y2="32.39"/><line class="a" x1="5.16" y1="32.39" x2="5.16" y2="33.31"/><line class="a" x1="6.44" y1="32.39" x2="6.44" y2="33.31"/><line class="a" x1="2.15" y1="46.49" x2="2.41" y2="46.76"/><polyline class="a" points="2.77 45.75 2.77 46.41 2.81 46.54 2.9 46.63 3.03 46.67 3.12 46.67 3.25 46.63 3.34 46.54 3.39 46.41 3.39 45.75"/><line class="a" x1="4.89" y1="45.75" x2="4.89" y2="46.67"/><line class="a" x1="4.58" y1="45.75" x2="5.2" y2="45.75"/><polyline class="a" points="5.29 46.67 5.65 45.75 6 46.67"/><line class="a" x1="5.42" y1="46.36" x2="5.87" y2="46.36"/><line class="a" x1="7.32" y1="45.75" x2="7.32" y2="46.67"/><line class="a" x1="7.01" y1="45.75" x2="7.63" y2="45.75"/><polyline class="a" points="7.86 46.67 7.86 45.75 8.43 45.75"/><line class="a" x1="7.86" y1="46.19" x2="8.2" y2="46.19"/><line class="a" x1="7.86" y1="46.67" x2="8.43" y2="46.67"/><polyline class="a" points="8.69 46.67 8.69 45.75 9.09 45.75 9.22 45.78 9.26 45.83 9.31 45.92 9.31 46 9.26 46.1 9.22 46.14 9.09 46.19 8.69 46.19"/><line class="a" x1="9.01" y1="46.19" x2="9.31" y2="46.67"/><polyline class="a" points="9.62 46.67 9.62 45.75 10.02 45.75 10.15 45.78 10.19 45.83 10.24 45.92 10.24 46 10.19 46.1 10.15 46.14 10.02 46.19 9.62 46.19"/><line class="a" x1="9.93" y1="46.19" x2="10.24" y2="46.67"/><polyline class="a" points="10.54 46.67 10.54 45.75 11.12 45.75"/><line class="a" x1="10.54" y1="46.19" x2="10.9" y2="46.19"/><line class="a" x1="10.54" y1="46.67" x2="11.12" y2="46.67"/><polyline class="a" points="11.39 46.67 11.39 45.75 12.01 46.67 12.01 45.75"/><line class="a" x1="2.37" y1="47.77" x2="2.37" y2="48.4"/><polyline class="a" points="2.38 47.96 2.51 47.82 2.6 47.77 2.73 47.77 2.81 47.82 2.86 47.96 2.86 48.4"/><polyline class="a" points="2.86 47.96 2.98 47.82 3.08 47.77 3.22 47.77 3.3 47.82 3.34 47.96 3.34 48.4"/><polyline class="a" points="5.07 47.91 5.02 47.82 4.89 47.77 4.75 47.77 4.62 47.82 4.58 47.91 4.62 47.99 4.72 48.04 4.94 48.08 5.02 48.13 5.07 48.21 5.07 48.26 5.02 48.35 4.89 48.4 4.75 48.4 4.62 48.35 4.58 48.26"/><polygon class="a" points="5.42 48.31 5.38 48.35 5.42 48.4 5.46 48.35 5.42 48.31"/><line class="a" x1="5.82" y1="47.47" x2="5.82" y2="48.4"/><polygon class="a" points="6.22 48.31 6.17 48.35 6.22 48.4 6.26 48.35 6.22 48.31"/><line class="a" x1="6.61" y1="47.77" x2="6.61" y2="48.4"/><polyline class="a" points="6.61 47.96 6.75 47.82 6.83 47.77 6.97 47.77 7.05 47.82 7.1 47.96 7.1 48.4"/><polyline class="a" points="7.1 47.96 7.23 47.82 7.32 47.77 7.45 47.77 7.54 47.82 7.59 47.96 7.59 48.4"/><polygon class="a" points="7.98 48.31 7.94 48.35 7.98 48.4 8.03 48.35 7.98 48.31"/><polyline class="b" points="38.65 8.04 39.09 8.1 39.13 8.04"/><line class="b" x1="47.26" y1="7.35" x2="48.26" y2="7.77"/><line class="c" x1="78.35" y1="10.16" x2="84.29" y2="10.28"/><line class="a" x1="40.85" y1="8.16" x2="40.85" y2="30.49"/><line class="a" x1="41.34" y1="7.77" x2="41.34" y2="30.49"/><line class="a" x1="59.2" y1="7.77" x2="59.2" y2="30.49"/><line class="a" x1="77.08" y1="7.77" x2="77.08" y2="30.49"/><line class="a" x1="81.09" y1="5.24" x2="81.09" y2="30.49"/><line class="a" x1="84.29" y1="10.28" x2="84.29" y2="30.49"/><line class="a" x1="79.15" y1="5.24" x2="79.15" y2="30.49"/><polyline class="a" points="40.61 32.2 40.03 32.2 39.98 32.72 40.03 32.66 40.2 32.61 40.38 32.61 40.55 32.66 40.67 32.78 40.72 32.95 40.72 33.06 40.67 33.23 40.55 33.34 40.38 33.4 40.2 33.4 40.03 33.34 39.98 33.29 39.92 33.17"/><polyline class="a" points="42.12 32.38 42.06 32.27 41.89 32.2 41.78 32.2 41.61 32.27 41.5 32.44 41.44 32.72 41.44 33 41.5 33.23 41.61 33.34 41.78 33.4 41.84 33.4 42.01 33.34 42.12 33.23 42.18 33.06 42.18 33 42.12 32.83 42.01 32.72 41.84 32.66 41.78 32.66 41.61 32.72 41.5 32.83 41.44 33"/><polyline class="a" points="59.03 33.4 59.6 32.2 58.8 32.2"/><polygon class="a" points="76.96 32.2 76.79 32.27 76.73 32.38 76.73 32.48 76.79 32.61 76.9 32.66 77.13 32.72 77.3 32.78 77.41 32.89 77.47 33 77.47 33.17 77.41 33.29 77.35 33.34 77.18 33.4 76.96 33.4 76.79 33.34 76.73 33.29 76.67 33.17 76.67 33 76.73 32.89 76.84 32.78 77.01 32.72 77.24 32.66 77.35 32.61 77.41 32.48 77.41 32.38 77.35 32.27 77.18 32.2 76.96 32.2"/><polyline class="a" points="79.39 32.61 79.33 32.78 79.22 32.89 79.05 32.95 78.99 32.95 78.82 32.89 78.71 32.78 78.64 32.61 78.64 32.55 78.71 32.38 78.82 32.27 78.99 32.2 79.05 32.2 79.22 32.27 79.33 32.38 79.39 32.61 79.39 32.89 79.33 33.17 79.22 33.34 79.05 33.4 78.94 33.4 78.77 33.34 78.71 33.23"/><polyline class="a" points="80.37 32.44 80.49 32.38 80.66 32.2 80.66 33.4"/><polygon class="a" points="81.69 32.2 81.51 32.27 81.39 32.44 81.34 32.72 81.34 32.89 81.39 33.17 81.51 33.34 81.69 33.4 81.8 33.4 81.97 33.34 82.08 33.17 82.14 32.89 82.14 32.72 82.08 32.44 81.97 32.27 81.8 32.2 81.69 32.2"/><polyline class="a" points="83.57 32.44 83.69 32.38 83.86 32.2 83.86 33.4"/><polyline class="a" points="84.71 32.44 84.82 32.38 84.99 32.2 84.99 33.4"/><line class="a" x1="40.85" y1="35.11" x2="40.85" y2="38.8"/><line class="a" x1="41.34" y1="35.11" x2="41.34" y2="38.8"/><line class="a" x1="59.2" y1="35.11" x2="59.2" y2="38.8"/><line class="a" x1="77.08" y1="35.11" x2="77.08" y2="38.8"/><line class="a" x1="79.15" y1="35.11" x2="79.15" y2="38.8"/><line class="a" x1="81.09" y1="35.11" x2="81.09" y2="38.8"/><line class="a" x1="84.29" y1="35.11" x2="84.29" y2="38.8"/><polyline class="a" points="37.14 36.39 37.63 36.39 37.36 36.73 37.49 36.73 37.58 36.78 37.63 36.83 37.66 36.95 37.66 37.05 37.63 37.17 37.54 37.27 37.41 37.31 37.27 37.31 37.14 37.27 37.1 37.22 37.05 37.14"/><polygon class="a" points="41.08 36.81 41.05 36.84 41.08 36.89 41.13 36.84 41.08 36.81"/><polyline class="a" points="49.5 37.31 49.94 36.39 49.33 36.39"/><polygon class="a" points="50.29 37.22 50.25 37.27 50.29 37.31 50.34 37.27 50.29 37.22"/><polyline class="a" points="50.82 37.31 51.26 36.39 50.65 36.39"/><polyline class="a" points="67.31 37.31 67.75 36.39 67.14 36.39"/><polygon class="a" points="68.11 37.22 68.06 37.27 68.11 37.31 68.14 37.27 68.11 37.22"/><polyline class="a" points="68.63 37.31 69.07 36.39 68.46 36.39"/><polygon class="a" points="77.72 37.59 77.75 37.72 77.89 37.81 78.11 37.86 78.24 37.86 78.46 37.81 78.6 37.72 78.63 37.59 78.63 37.5 78.6 37.37 78.46 37.28 78.24 37.23 78.11 37.23 77.89 37.28 77.75 37.37 77.72 37.5 77.72 37.59"/><polygon class="a" points="78.55 36.88 78.6 36.93 78.63 36.88 78.6 36.84 78.55 36.88"/><polyline class="a" points="78.02 35.97 78.16 36 78.24 36.1 78.28 36.22 78.28 36.27 78.24 36.41 78.16 36.49 78.02 36.54 77.97 36.54 77.84 36.49 77.75 36.41 77.72 36.27 77.72 36.22 77.75 36.1 77.84 36 78.02 35.97 78.24 35.97 78.46 36 78.6 36.1 78.63 36.22 78.63 36.32 78.6 36.44 78.5 36.49"/><polygon class="a" points="79.63 37.6 79.68 37.73 79.82 37.82 80.04 37.86 80.16 37.86 80.38 37.82 80.51 37.73 80.56 37.6 80.56 37.52 80.51 37.38 80.38 37.3 80.16 37.25 80.04 37.25 79.82 37.3 79.68 37.38 79.63 37.52 79.63 37.6"/><polygon class="a" points="80.48 36.89 80.51 36.94 80.56 36.89 80.51 36.86 80.48 36.89"/><polygon class="a" points="79.63 36.32 79.68 36.45 79.77 36.5 79.85 36.5 79.94 36.45 79.99 36.37 80.04 36.2 80.07 36.06 80.16 35.98 80.26 35.93 80.38 35.93 80.48 35.98 80.51 36.01 80.56 36.15 80.56 36.32 80.51 36.45 80.48 36.5 80.38 36.54 80.26 36.54 80.16 36.5 80.07 36.42 80.04 36.28 79.99 36.1 79.94 36.01 79.85 35.98 79.77 35.98 79.68 36.01 79.63 36.15 79.63 36.32"/><polyline class="a" points="81.71 36.56 81.8 36.51 81.93 36.39 81.93 37.31"/><polygon class="a" points="82.54 37.22 82.5 37.27 82.54 37.31 82.59 37.27 82.54 37.22"/><polyline class="a" points="83.33 36.39 82.89 37 83.55 37"/><line class="a" x1="83.33" y1="36.39" x2="83.33" y2="37.31"/><polyline class="a" points="86.24 36.61 86.24 36.56 86.29 36.48 86.33 36.43 86.41 36.39 86.59 36.39 86.68 36.43 86.73 36.48 86.77 36.56 86.77 36.65 86.73 36.73 86.63 36.87 86.19 37.31 86.81 37.31"/><polygon class="a" points="87.17 37.22 87.12 37.27 87.17 37.31 87.2 37.27 87.17 37.22"/><polyline class="a" points="88.08 36.51 88.05 36.43 87.91 36.39 87.83 36.39 87.69 36.43 87.61 36.56 87.56 36.78 87.56 37 87.61 37.17 87.69 37.27 87.83 37.31 87.86 37.31 88 37.27 88.08 37.17 88.13 37.05 88.13 37 88.08 36.87 88 36.78 87.86 36.73 87.83 36.73 87.69 36.78 87.61 36.87 87.56 37"/><polyline class="a" points="39.73 42.9 39.67 42.81 39.48 42.69 40.75 42.69"/><polygon class="a" points="39.48 41.94 39.55 42.06 39.73 42.14 40.02 42.18 40.2 42.18 40.51 42.14 40.69 42.06 40.75 41.94 40.75 41.85 40.69 41.72 40.51 41.63 40.2 41.59 40.02 41.59 39.73 41.63 39.55 41.72 39.48 41.85 39.48 41.94"/><polygon class="a" points="40.63 41.25 40.69 41.3 40.75 41.25 40.69 41.22 40.63 41.25"/><polyline class="a" points="39.48 40.41 39.48 40.84 40.02 40.87 39.96 40.84 39.9 40.7 39.9 40.58 39.96 40.45 40.08 40.36 40.27 40.32 40.39 40.32 40.57 40.36 40.69 40.45 40.75 40.58 40.75 40.7 40.69 40.84 40.63 40.87 40.51 40.91"/><polyline class="a" points="41.72 42.9 41.66 42.81 41.49 42.69 42.74 42.69"/><polygon class="a" points="41.49 41.94 41.54 42.06 41.72 42.14 42.02 42.18 42.21 42.18 42.51 42.14 42.7 42.06 42.74 41.94 42.74 41.85 42.7 41.72 42.51 41.63 42.21 41.59 42.02 41.59 41.72 41.63 41.54 41.72 41.49 41.85 41.49 41.94"/><polygon class="a" points="42.63 41.25 42.7 41.3 42.74 41.25 42.7 41.22 42.63 41.25"/><polyline class="a" points="42.74 40.75 41.49 40.32 41.49 40.91"/><polyline class="a" points="58.83 42.92 58.77 42.84 58.58 42.72 59.85 42.72"/><polygon class="a" points="58.58 42 58.64 42.12 58.77 42.17 58.89 42.17 59 42.12 59.06 42.03 59.12 41.86 59.18 41.74 59.3 41.66 59.42 41.62 59.61 41.62 59.73 41.66 59.79 41.7 59.85 41.83 59.85 42 59.79 42.12 59.73 42.17 59.61 42.2 59.42 42.2 59.3 42.17 59.18 42.08 59.12 41.95 59.06 41.78 59 41.7 58.89 41.66 58.77 41.66 58.64 41.7 58.58 41.83 58.58 42"/><polygon class="a" points="59.73 41.28 59.79 41.31 59.85 41.28 59.79 41.23 59.73 41.28"/><polyline class="a" points="58.58 40.52 59.42 40.93 59.42 40.3"/><line class="a" x1="58.58" y1="40.52" x2="59.85" y2="40.52"/><polyline class="a" points="76.75 42.92 76.69 42.92 76.57 42.89 76.51 42.84 76.45 42.75 76.45 42.58 76.51 42.5 76.57 42.46 76.69 42.41 76.81 42.41 76.94 42.46 77.12 42.55 77.72 42.96 77.72 42.38"/><polyline class="a" points="76.63 41.57 76.51 41.62 76.45 41.74 76.45 41.83 76.51 41.95 76.69 42.03 77 42.08 77.3 42.08 77.53 42.03 77.66 41.95 77.72 41.83 77.72 41.78 77.66 41.65 77.53 41.57 77.35 41.53 77.3 41.53 77.12 41.57 77 41.65 76.94 41.78 76.94 41.83 77 41.95 77.12 42.03 77.3 42.08"/><polygon class="a" points="77.59 41.19 77.66 41.23 77.72 41.19 77.66 41.14 77.59 41.19"/><polyline class="a" points="76.75 40.81 76.69 40.81 76.57 40.76 76.51 40.73 76.45 40.64 76.45 40.47 76.51 40.38 76.57 40.35 76.69 40.3 76.81 40.3 76.94 40.35 77.12 40.43 77.72 40.85 77.72 40.26"/><polyline class="a" points="78.82 42.29 78.75 42.29 78.63 42.25 78.57 42.2 78.51 42.12 78.51 41.95 78.57 41.86 78.63 41.83 78.75 41.78 78.88 41.78 79 41.83 79.18 41.91 79.78 42.33 79.78 41.74"/><polyline class="a" points="79.78 41.31 78.51 40.9 78.51 41.48"/><polyline class="a" points="80.76 42.9 80.7 42.9 80.57 42.86 80.51 42.81 80.46 42.73 80.46 42.57 80.51 42.48 80.57 42.44 80.7 42.4 80.82 42.4 80.94 42.44 81.12 42.52 81.72 42.95 81.72 42.35"/><polyline class="a" points="81.72 41.94 80.46 41.51 80.46 42.09"/><polygon class="a" points="81.61 41.17 81.67 41.22 81.72 41.17 81.67 41.13 81.61 41.17"/><polyline class="a" points="80.88 40.27 81.06 40.32 81.18 40.41 81.25 40.53 81.25 40.58 81.18 40.7 81.06 40.79 80.88 40.84 80.82 40.84 80.64 40.79 80.51 40.7 80.46 40.58 80.46 40.53 80.51 40.41 80.64 40.32 80.88 40.27 81.18 40.27 81.49 40.32 81.67 40.41 81.72 40.53 81.72 40.62 81.67 40.75 81.55 40.79"/><polyline class="a" points="83.96 42.92 83.89 42.92 83.78 42.89 83.72 42.84 83.66 42.75 83.66 42.58 83.72 42.5 83.78 42.46 83.89 42.41 84.02 42.41 84.14 42.46 84.32 42.55 84.93 42.96 84.93 42.38"/><polyline class="a" points="84.08 41.57 84.26 41.62 84.38 41.7 84.44 41.83 84.44 41.86 84.38 42 84.26 42.08 84.08 42.12 84.02 42.12 83.85 42.08 83.72 42 83.66 41.86 83.66 41.83 83.72 41.7 83.85 41.62 84.08 41.57 84.38 41.57 84.69 41.62 84.87 41.7 84.93 41.83 84.93 41.91 84.87 42.03 84.75 42.08"/><polygon class="a" points="84.81 41.19 84.87 41.23 84.93 41.19 84.87 41.14 84.81 41.19"/><polyline class="a" points="39.7 49.3 39.64 49.21 39.46 49.09 40.73 49.09"/><polygon class="a" points="39.46 48.37 39.52 48.49 39.64 48.54 39.75 48.54 39.87 48.49 39.94 48.41 40 48.24 40.06 48.12 40.18 48.03 40.3 47.99 40.48 47.99 40.61 48.03 40.67 48.07 40.73 48.2 40.73 48.37 40.67 48.49 40.61 48.54 40.48 48.58 40.3 48.58 40.18 48.54 40.06 48.46 40 48.32 39.94 48.15 39.87 48.07 39.75 48.03 39.64 48.03 39.52 48.07 39.46 48.2 39.46 48.37"/><polyline class="a" points="39.88 47.19 40.06 47.22 40.18 47.31 40.24 47.43 40.24 47.48 40.18 47.6 40.06 47.69 39.88 47.74 39.81 47.74 39.64 47.69 39.52 47.6 39.46 47.48 39.46 47.43 39.52 47.31 39.64 47.22 39.88 47.19 40.18 47.19 40.49 47.22 40.67 47.31 40.73 47.43 40.73 47.52 40.67 47.65 40.55 47.69"/><polygon class="a" points="40.61 46.81 40.67 46.84 40.73 46.81 40.67 46.76 40.61 46.81"/><polyline class="a" points="39.64 45.92 39.52 45.95 39.46 46.09 39.46 46.17 39.52 46.3 39.7 46.38 40 46.42 40.3 46.42 40.55 46.38 40.67 46.3 40.73 46.17 40.73 46.13 40.67 46 40.55 45.92 40.36 45.87 40.3 45.87 40.12 45.92 40 46 39.94 46.13 39.94 46.17 40 46.3 40.12 46.38 40.3 46.42"/><polyline class="a" points="41.72 49.3 41.66 49.21 41.47 49.09 42.74 49.09"/><polygon class="a" points="41.47 48.37 41.53 48.49 41.66 48.54 41.77 48.54 41.89 48.49 41.95 48.41 42.01 48.24 42.07 48.12 42.19 48.03 42.32 47.99 42.5 47.99 42.62 48.03 42.68 48.07 42.74 48.2 42.74 48.37 42.68 48.49 42.62 48.54 42.5 48.58 42.32 48.58 42.19 48.54 42.07 48.46 42.01 48.32 41.95 48.15 41.89 48.07 41.77 48.03 41.66 48.03 41.53 48.07 41.47 48.2 41.47 48.37"/><polyline class="a" points="41.89 47.19 42.07 47.22 42.19 47.31 42.26 47.43 42.26 47.48 42.19 47.6 42.07 47.69 41.89 47.74 41.83 47.74 41.66 47.69 41.53 47.6 41.47 47.48 41.47 47.43 41.53 47.31 41.66 47.22 41.89 47.19 42.19 47.19 42.5 47.22 42.68 47.31 42.74 47.43 42.74 47.52 42.68 47.65 42.56 47.69"/><polygon class="a" points="42.62 46.81 42.68 46.84 42.74 46.81 42.68 46.76 42.62 46.81"/><polyline class="a" points="41.47 45.11 41.47 45.54 42.01 45.58 41.95 45.54 41.89 45.4 41.89 45.28 41.95 45.15 42.07 45.06 42.26 45.03 42.38 45.03 42.56 45.06 42.68 45.15 42.74 45.28 42.74 45.4 42.68 45.54 42.62 45.58 42.5 45.62"/><polyline class="a" points="58.81 49.3 58.75 49.21 58.58 49.09 59.85 49.09"/><polygon class="a" points="58.58 48.37 58.64 48.49 58.75 48.54 58.88 48.54 59 48.49 59.06 48.41 59.12 48.24 59.18 48.12 59.3 48.03 59.42 47.99 59.61 47.99 59.73 48.03 59.79 48.07 59.85 48.2 59.85 48.37 59.79 48.49 59.73 48.54 59.61 48.58 59.42 48.58 59.3 48.54 59.18 48.46 59.12 48.32 59.06 48.15 59 48.07 58.88 48.03 58.75 48.03 58.64 48.07 58.58 48.2 58.58 48.37"/><polyline class="a" points="59 47.19 59.18 47.22 59.3 47.31 59.36 47.43 59.36 47.48 59.3 47.6 59.18 47.69 59 47.74 58.94 47.74 58.75 47.69 58.64 47.6 58.58 47.48 58.58 47.43 58.64 47.31 58.75 47.22 59 47.19 59.3 47.19 59.61 47.22 59.79 47.31 59.85 47.43 59.85 47.52 59.79 47.65 59.67 47.69"/><polygon class="a" points="59.73 46.81 59.79 46.84 59.85 46.81 59.79 46.76 59.73 46.81"/><polyline class="a" points="58.58 45.11 58.58 45.54 59.12 45.58 59.06 45.54 59 45.4 59 45.28 59.06 45.15 59.18 45.06 59.36 45.03 59.49 45.03 59.67 45.06 59.79 45.15 59.85 45.28 59.85 45.4 59.79 45.54 59.73 45.58 59.61 45.62"/><polyline class="a" points="76.69 49.3 76.63 49.21 76.45 49.09 77.72 49.09"/><polygon class="a" points="76.45 48.37 76.51 48.49 76.63 48.54 76.75 48.54 76.87 48.49 76.94 48.41 77 48.24 77.06 48.12 77.17 48.03 77.29 47.99 77.47 47.99 77.59 48.03 77.66 48.07 77.72 48.2 77.72 48.37 77.66 48.49 77.59 48.54 77.47 48.58 77.29 48.58 77.17 48.54 77.06 48.46 77 48.32 76.94 48.15 76.87 48.07 76.75 48.03 76.63 48.03 76.51 48.07 76.45 48.2 76.45 48.37"/><polyline class="a" points="76.87 47.19 77.06 47.22 77.17 47.31 77.23 47.43 77.23 47.48 77.17 47.6 77.06 47.69 76.87 47.74 76.81 47.74 76.63 47.69 76.51 47.6 76.45 47.48 76.45 47.43 76.51 47.31 76.63 47.22 76.87 47.19 77.17 47.19 77.47 47.22 77.66 47.31 77.72 47.43 77.72 47.52 77.66 47.65 77.53 47.69"/><polygon class="a" points="77.59 46.81 77.66 46.84 77.72 46.81 77.66 46.76 77.59 46.81"/><polyline class="a" points="76.45 45.11 76.45 45.54 77 45.58 76.94 45.54 76.87 45.4 76.87 45.28 76.94 45.15 77.06 45.06 77.23 45.03 77.35 45.03 77.53 45.06 77.66 45.15 77.72 45.28 77.72 45.4 77.66 45.54 77.59 45.58 77.47 45.62"/><polyline class="a" points="78.75 49.32 78.69 49.24 78.51 49.1 79.78 49.1"/><polyline class="a" points="78.94 48.05 79.11 48.09 79.23 48.18 79.29 48.31 79.29 48.35 79.23 48.47 79.11 48.55 78.94 48.6 78.88 48.6 78.69 48.55 78.57 48.47 78.51 48.35 78.51 48.31 78.57 48.18 78.69 48.09 78.94 48.05 79.23 48.05 79.54 48.09 79.72 48.18 79.78 48.31 79.78 48.38 79.72 48.52 79.6 48.55"/><polygon class="a" points="78.51 47.5 78.57 47.63 78.75 47.71 79.05 47.75 79.23 47.75 79.54 47.71 79.72 47.63 79.78 47.5 79.78 47.42 79.72 47.28 79.54 47.2 79.23 47.16 79.05 47.16 78.75 47.2 78.57 47.28 78.51 47.42 78.51 47.5"/><polygon class="a" points="79.66 46.82 79.72 46.87 79.78 46.82 79.72 46.78 79.66 46.82"/><polyline class="a" points="78.94 45.93 79.11 45.98 79.23 46.06 79.29 46.19 79.29 46.23 79.23 46.36 79.11 46.44 78.94 46.49 78.88 46.49 78.69 46.44 78.57 46.36 78.51 46.23 78.51 46.19 78.57 46.06 78.69 45.98 78.94 45.93 79.23 45.93 79.54 45.98 79.72 46.06 79.78 46.19 79.78 46.27 79.72 46.41 79.6 46.44"/><polyline class="a" points="78.51 45.22 79.35 45.64 79.35 45"/><line class="a" x1="78.51" y1="45.22" x2="79.78" y2="45.22"/><polyline class="a" points="80.7 49.27 80.64 49.19 80.45 49.07 81.72 49.07"/><polyline class="a" points="80.88 48.01 81.06 48.05 81.18 48.14 81.25 48.26 81.25 48.3 81.18 48.43 81.06 48.52 80.88 48.55 80.82 48.55 80.64 48.52 80.51 48.43 80.45 48.3 80.45 48.26 80.51 48.14 80.64 48.05 80.88 48.01 81.18 48.01 81.48 48.05 81.66 48.14 81.72 48.26 81.72 48.35 81.66 48.47 81.54 48.52"/><polygon class="a" points="80.45 47.45 80.51 47.59 80.7 47.66 81 47.71 81.19 47.71 81.48 47.66 81.66 47.59 81.72 47.45 81.72 47.37 81.66 47.25 81.48 47.16 81.19 47.11 81 47.11 80.7 47.16 80.51 47.25 80.45 47.37 80.45 47.45"/><polygon class="a" points="81.6 46.78 81.66 46.82 81.72 46.78 81.66 46.73 81.6 46.78"/><polyline class="a" points="80.88 45.89 81.06 45.93 81.18 46.01 81.25 46.15 81.25 46.19 81.18 46.32 81.06 46.41 80.88 46.44 80.82 46.44 80.64 46.41 80.51 46.32 80.45 46.19 80.45 46.15 80.51 46.01 80.64 45.93 80.88 45.89 81.18 45.89 81.48 45.93 81.66 46.01 81.72 46.15 81.72 46.23 81.66 46.36 81.54 46.41"/><polyline class="a" points="80.45 45.17 81.31 45.6 81.31 44.96"/><line class="a" x1="80.45" y1="45.17" x2="81.72" y2="45.17"/><polyline class="a" points="83.89 49.3 83.83 49.21 83.65 49.09 84.92 49.09"/><polygon class="a" points="83.65 48.37 83.71 48.49 83.83 48.54 83.96 48.54 84.08 48.49 84.14 48.41 84.2 48.24 84.26 48.12 84.38 48.03 84.51 47.99 84.69 47.99 84.81 48.03 84.86 48.07 84.92 48.2 84.92 48.37 84.86 48.49 84.81 48.54 84.69 48.58 84.51 48.58 84.38 48.54 84.26 48.46 84.2 48.32 84.14 48.15 84.08 48.07 83.96 48.03 83.83 48.03 83.71 48.07 83.65 48.2 83.65 48.37"/><polygon class="a" points="83.65 47.52 83.71 47.65 83.83 47.69 83.96 47.69 84.08 47.65 84.14 47.56 84.2 47.39 84.26 47.27 84.38 47.19 84.51 47.14 84.69 47.14 84.81 47.19 84.86 47.22 84.92 47.36 84.92 47.52 84.86 47.65 84.81 47.69 84.69 47.74 84.51 47.74 84.38 47.69 84.26 47.6 84.2 47.48 84.14 47.31 84.08 47.22 83.96 47.19 83.83 47.19 83.71 47.22 83.65 47.36 83.65 47.52"/><polygon class="a" points="84.81 46.81 84.86 46.84 84.92 46.81 84.86 46.76 84.81 46.81"/><polyline class="a" points="84.92 46.3 83.65 45.87 83.65 46.47"/><polyline class="a" points="83.83 45.06 83.71 45.11 83.65 45.23 83.65 45.32 83.71 45.45 83.89 45.54 84.2 45.58 84.51 45.58 84.75 45.54 84.86 45.45 84.92 45.32 84.92 45.28 84.86 45.15 84.75 45.06 84.57 45.02 84.51 45.02 84.32 45.06 84.2 45.15 84.14 45.28 84.14 45.32 84.2 45.45 84.32 45.54 84.51 45.58"/><polyline class="a" points="44.99 1.5 45.25 0.82 45.52 1.5"/><line class="a" x1="45.09" y1="1.27" x2="45.42" y2="1.27"/><polyline class="a" points="45.58 0.82 45.83 1.5 46.09 0.82"/><line class="a" x1="46.97" y1="1.11" x2="47.56" y2="1.11"/><line class="a" x1="46.97" y1="1.31" x2="47.56" y2="1.31"/><polyline class="a" points="47.81 0.99 47.81 0.95 47.85 0.89 47.87 0.86 47.95 0.82 48.07 0.82 48.14 0.86 48.17 0.89 48.2 0.95 48.2 1.02 48.17 1.09 48.1 1.18 47.79 1.5 48.24 1.5"/><polygon class="a" points="48.49 1.44 48.46 1.47 48.49 1.5 48.53 1.47 48.49 1.44"/><polyline class="a" points="48.89 1.5 49.2 0.82 48.75 0.82"/><polyline class="a" points="49.5 0.96 49.57 0.92 49.67 0.82 49.67 1.51"/><line class="a" x1="50.77" y1="1.05" x2="50.77" y2="1.51"/><polyline class="a" points="50.77 1.18 50.87 1.09 50.93 1.05 51.02 1.05 51.09 1.09 51.12 1.18 51.12 1.5"/><polyline class="a" points="51.12 1.18 51.22 1.09 51.28 1.05 51.38 1.05 51.45 1.09 51.48 1.18 51.48 1.5"/><line class="a" x1="52.1" y1="1.05" x2="52.1" y2="1.74"/><polyline class="a" points="61.72 5.51 61.72 4.83 62.01 4.83 62.11 4.86 62.13 4.9 62.17 4.96 62.17 5.02 62.13 5.08 62.11 5.12 62.01 5.16 61.72 5.16"/><line class="a" x1="61.94" y1="5.16" x2="62.17" y2="5.51"/><line class="a" x1="62.39" y1="4.83" x2="62.39" y2="5.51"/><polyline class="a" points="62.66 5.51 62.66 4.83 62.95 4.83 63.05 4.86 63.08 4.9 63.11 4.96 63.11 5.06 63.08 5.12 63.05 5.16 62.95 5.18 62.66 5.18"/><polyline class="a" points="64.05 5.51 64.05 4.83 64.34 4.83 64.44 4.86 64.47 4.9 64.5 4.96 64.5 5.02 64.47 5.08 64.44 5.12 64.34 5.16 64.05 5.16"/><line class="a" x1="64.27" y1="5.16" x2="64.5" y2="5.51"/><line class="a" x1="64.86" y1="4.83" x2="64.86" y2="5.51"/><line class="a" x1="64.64" y1="4.83" x2="65.09" y2="4.83"/><line class="a" x1="65.97" y1="5.12" x2="66.54" y2="5.12"/><line class="a" x1="65.97" y1="5.31" x2="66.54" y2="5.31"/><polyline class="a" points="66.87 4.96 66.93 4.92 67.03 4.83 67.03 5.51"/><polygon class="a" points="68.13 5.45 68.11 5.47 68.13 5.51 68.17 5.47 68.13 5.45"/><polyline class="a" points="68.81 4.92 68.79 4.86 68.69 4.83 68.62 4.83 68.52 4.86 68.46 4.96 68.42 5.12 68.42 5.28 68.46 5.41 68.52 5.47 68.62 5.51 68.66 5.51 68.75 5.47 68.81 5.41 68.85 5.32 68.85 5.28 68.81 5.18 68.75 5.12 68.66 5.08 68.62 5.08 68.52 5.12 68.46 5.18 68.42 5.28"/><polyline class="a" points="69.17 5.51 69.5 4.83 69.05 4.83"/><line class="a" x1="70.4" y1="5.06" x2="70.4" y2="5.51"/><polyline class="a" points="70.4 5.18 70.5 5.08 70.57 5.06 70.67 5.06 70.73 5.08 70.77 5.18 70.77 5.51"/><polyline class="a" points="70.77 5.18 70.87 5.08 70.93 5.06 71.02 5.06 71.09 5.08 71.12 5.18 71.12 5.51"/><line class="a" x1="71.73" y1="5.06" x2="71.73" y2="5.74"/><polyline class="b" points="52.59 1.71 43.13 1.71 42.87 5.66"/><polyline class="c" points="61.29 5.69 72.12 5.74 72.12 7.77"/><line class="a" x1="32.06" y1="5.96" x2="33.93" y2="8.16"/><line class="a" x1="3.88" y1="29.09" x2="6.11" y2="29.09"/><polygon class="a" points="8.35 29.09 6.11 30.49 6.11 29.09 8.35 29.09"/><line class="a" x1="7.98" y1="29.32" x2="8.21" y2="29.09"/><line class="a" x1="6.25" y1="30.41" x2="7.56" y2="29.09"/><line class="a" x1="6.11" y1="29.88" x2="6.9" y2="29.09"/><line class="a" x1="6.11" y1="29.24" x2="6.26" y2="29.09"/><line class="a" x1="7.16" y1="29.83" x2="6.43" y2="29.09"/><line class="a" x1="6.77" y1="30.09" x2="6.11" y2="29.43"/><line class="a" x1="6.37" y1="30.34" x2="6.11" y2="30.09"/><line class="a" x1="7.56" y1="29.58" x2="7.08" y2="29.09"/><line class="a" x1="7.97" y1="29.33" x2="7.73" y2="29.09"/><line class="a" x1="3.88" y1="29.09" x2="6.11" y2="30.49"/><line class="a" x1="1.89" y1="27.97" x2="2.18" y2="28.27"/><line class="a" x1="2.58" y1="27.47" x2="2.58" y2="28.16"/><polyline class="a" points="2.58 27.76 2.63 27.61 2.73 27.52 2.84 27.47 2.98 27.47"/><polygon class="a" points="3.18 27.16 3.24 27.21 3.29 27.16 3.24 27.11 3.18 27.16"/><line class="a" x1="3.24" y1="27.51" x2="3.24" y2="28.16"/><polyline class="a" points="3.94 27.11 3.84 27.11 3.74 27.16 3.69 27.31 3.69 28.16"/><line class="a" x1="3.53" y1="27.47" x2="3.89" y2="27.47"/><rect class="a" x="4.26" y="27.48" width="0.07" height="0.07" transform="translate(-18.2 11.09) rotate(-45)"/><rect class="a" x="4.26" y="28.08" width="0.07" height="0.07" transform="translate(-18.62 11.27) rotate(-45)"/><polyline class="a" points="5.9 27.31 6 27.26 6.15 27.11 6.15 28.16"/><polygon class="a" points="7 27.11 6.86 27.16 6.81 27.26 6.81 27.36 6.86 27.47 6.95 27.52 7.15 27.56 7.31 27.61 7.41 27.71 7.45 27.82 7.45 27.97 7.41 28.06 7.36 28.11 7.21 28.16 7 28.16 6.86 28.11 6.81 28.06 6.76 27.97 6.76 27.82 6.81 27.71 6.9 27.61 7.05 27.56 7.26 27.52 7.36 27.47 7.41 27.36 7.41 27.26 7.36 27.16 7.21 27.11 7 27.11"/><polygon class="a" points="8.05 27.11 7.91 27.16 7.81 27.31 7.76 27.56 7.76 27.71 7.81 27.97 7.91 28.11 8.05 28.16 8.16 28.16 8.31 28.11 8.41 27.97 8.46 27.71 8.46 27.56 8.41 27.31 8.31 27.16 8.16 27.11 8.05 27.11"/><line class="a" x1="9.87" y1="27.47" x2="9.87" y2="28.16"/><polyline class="a" points="9.87 27.66 10.02 27.51 10.12 27.47 10.26 27.47 10.37 27.51 10.42 27.66 10.42 28.16"/><polyline class="a" points="10.42 27.66 10.57 27.51 10.66 27.47 10.82 27.47 10.92 27.51 10.97 27.66 10.97 28.16"/><rect class="a" x="13.29" y="28.08" width="0.07" height="0.07" transform="translate(-15.97 17.66) rotate(-45)"/><line class="a" x1="13.78" y1="27.11" x2="13.78" y2="28.16"/><rect class="a" x="14.2" y="28.08" width="0.07" height="0.07" transform="translate(-15.71 18.29) rotate(-45)"/><line class="a" x1="14.68" y1="27.47" x2="14.68" y2="28.16"/><polyline class="a" points="14.68 27.66 14.84 27.51 14.94 27.47 15.09 27.47 15.18 27.51 15.24 27.66 15.24 28.16"/><polyline class="a" points="15.24 27.66 15.39 27.51 15.49 27.47 15.65 27.47 15.75 27.51 15.79 27.66 15.79 28.16"/><rect class="a" x="16.21" y="28.08" width="0.07" height="0.07" transform="translate(-15.12 19.72) rotate(-45)"/><line class="d" x1="78.66" y1="5.73" x2="79.63" y2="4.75"/><line class="d" x1="79.63" y1="5.73" x2="78.66" y2="4.75"/><line class="d" x1="29.52" y1="5.95" x2="30.5" y2="4.97"/><line class="d" x1="30.5" y1="5.95" x2="29.52" y2="4.97"/><line class="e" x1="40.36" y1="8.65" x2="41.34" y2="7.66"/><line class="e" x1="41.34" y1="8.65" x2="40.36" y2="7.66"/><line class="e" x1="33.44" y1="8.65" x2="34.42" y2="7.66"/><line class="e" x1="34.42" y1="8.65" x2="33.44" y2="7.66"/><line class="f" x1="37.38" y1="7.46" x2="37.38" y2="8.84"/><line class="a" x1="58.72" y1="8.26" x2="59.71" y2="7.27"/><line class="a" x1="59.71" y1="8.26" x2="58.72" y2="7.27"/></svg>