<svg xmlns="http://www.w3.org/2000/svg" viewBox="0 0 150.62 50.52"><defs><style>.a,.b,.c,.d,.e,.f{fill:none;stroke-linecap:round;stroke-linejoin:round;stroke-width:0.21px;}.a{stroke:#000;}.b{stroke:red;}.c{stroke:#ffbf00;}.d{stroke:#00b800;}.e{stroke:blue;}.f{stroke:#00bfff;}</style></defs><title>cad2.3</title><polyline class="a" points="16.43 32.24 16.55 32.18 16.72 32.01 16.72 33.21"/><line class="a" x1="16.57" y1="34.92" x2="16.57" y2="38.62"/><line class="a" x1="0.58" y1="30.3" x2="150.03" y2="30.3"/><line class="a" x1="16.57" y1="34.92" x2="150.03" y2="34.92"/><line class="a" x1="16.57" y1="38.62" x2="150.03" y2="38.62"/><line class="a" x1="16.57" y1="44.18" x2="150.03" y2="44.18"/><polyline class="a" points="16.57 49.72 150.03 49.72 150.03 30.3"/><line class="a" x1="24.69" y1="34.92" x2="24.69" y2="38.62"/><line class="a" x1="29.87" y1="34.92" x2="29.87" y2="38.62"/><line class="a" x1="31.93" y1="34.92" x2="31.93" y2="38.62"/><line class="a" x1="33.8" y1="34.92" x2="33.8" y2="38.62"/><line class="a" x1="93.9" y1="34.92" x2="93.9" y2="38.62"/><line class="a" x1="111.9" y1="34.92" x2="111.9" y2="38.62"/><line class="a" x1="130.26" y1="34.92" x2="130.26" y2="38.62"/><line class="a" x1="146.56" y1="34.92" x2="146.56" y2="38.62"/><polyline class="a" points="19.67 36.21 20.15 36.21 19.89 36.56 20.02 36.56 20.11 36.6 20.15 36.65 20.2 36.78 20.2 36.87 20.15 37 20.06 37.09 19.93 37.13 19.8 37.13 19.67 37.09 19.62 37.04 19.58 36.95"/><polygon class="a" points="20.55 37.04 20.5 37.09 20.55 37.13 20.59 37.09 20.55 37.04"/><polyline class="a" points="21.43 36.21 20.99 36.21 20.94 36.6 20.99 36.56 21.13 36.52 21.25 36.52 21.38 36.56 21.47 36.65 21.52 36.78 21.52 36.87 21.47 37 21.38 37.09 21.25 37.13 21.13 37.13 20.99 37.09 20.94 37.04 20.91 36.95"/><polygon class="a" points="15.9 41.48 15.96 41.62 16.14 41.7 16.45 41.74 16.63 41.74 16.93 41.7 17.11 41.62 17.17 41.48 17.17 41.4 17.11 41.27 16.93 41.19 16.63 41.14 16.45 41.14 16.14 41.19 15.96 41.27 15.9 41.4 15.9 41.48"/><polyline class="a" points="16.24 49.12 16.18 49.03 16 48.91 17.27 48.91"/><polygon class="a" points="16 48.19 16.06 48.31 16.18 48.36 16.3 48.36 16.41 48.31 16.48 48.23 16.54 48.05 16.6 47.93 16.72 47.85 16.84 47.81 17.03 47.81 17.15 47.85 17.21 47.88 17.27 48.02 17.27 48.19 17.21 48.31 17.15 48.36 17.03 48.4 16.84 48.4 16.72 48.36 16.6 48.28 16.54 48.14 16.48 47.97 16.41 47.88 16.3 47.85 16.18 47.85 16.06 47.88 16 48.02 16 48.19"/><polyline class="a" points="16.41 47 16.6 47.04 16.72 47.12 16.78 47.26 16.78 47.3 16.72 47.42 16.6 47.5 16.41 47.55 16.35 47.55 16.18 47.5 16.06 47.42 16 47.3 16 47.26 16.06 47.12 16.18 47.04 16.41 47 16.72 47 17.03 47.04 17.21 47.12 17.27 47.26 17.27 47.33 17.21 47.47 17.09 47.5"/><polygon class="a" points="17.15 46.62 17.21 46.66 17.27 46.62 17.21 46.57 17.15 46.62"/><polygon class="a" points="16 46.02 16.06 46.15 16.24 46.23 16.54 46.28 16.72 46.28 17.03 46.23 17.21 46.15 17.27 46.02 17.27 45.94 17.21 45.82 17.03 45.73 16.72 45.68 16.54 45.68 16.24 45.73 16.06 45.82 16 45.94 16 46.02"/><polyline class="a" points="16 45.35 16 44.87 16.48 45.13 16.48 45.01 16.54 44.92 16.6 44.87 16.78 44.84 16.9 44.84 17.09 44.87 17.21 44.96 17.27 45.09 17.27 45.22 17.21 45.35 17.15 45.39 17.03 45.44"/><line class="a" x1="146.56" y1="12.1" x2="146.56" y2="30.3"/><line class="a" x1="130.26" y1="11.88" x2="130.26" y2="30.3"/><line class="a" x1="111.9" y1="11.54" x2="111.9" y2="30.3"/><line class="a" x1="93.9" y1="11.32" x2="93.9" y2="30.3"/><line class="b" x1="31.94" y1="7.08" x2="31.94" y2="7.07"/><line class="b" x1="32.14" y1="7.3" x2="32.18" y2="7.26"/><line class="b" x1="32.33" y1="7.52" x2="32.41" y2="7.44"/><line class="b" x1="32.52" y1="7.73" x2="32.64" y2="7.61"/><line class="b" x1="32.71" y1="7.95" x2="32.87" y2="7.79"/><line class="b" x1="32.91" y1="8.16" x2="33.11" y2="7.97"/><line class="b" x1="33.11" y1="8.38" x2="33.34" y2="8.14"/><line class="b" x1="33.29" y1="8.6" x2="33.57" y2="8.32"/><polyline class="b" points="33.48 8.81 33.8 8.5 33.81 8.49"/><line class="b" x1="33.68" y1="9.03" x2="34.22" y2="8.49"/><line class="b" x1="34" y1="9.12" x2="34.62" y2="8.49"/><line class="b" x1="34.61" y1="8.92" x2="35.04" y2="8.49"/><line class="b" x1="35.22" y1="8.71" x2="35.44" y2="8.49"/><line class="b" x1="35.57" y1="8.79" x2="35.86" y2="8.49"/><line class="b" x1="35.87" y1="8.88" x2="36.26" y2="8.49"/><line class="b" x1="36.16" y1="8.99" x2="36.67" y2="8.49"/><line class="b" x1="36.47" y1="9.1" x2="37.08" y2="8.49"/><line class="b" x1="36.87" y1="9.1" x2="37.49" y2="8.49"/><line class="b" x1="37.3" y1="9.09" x2="37.9" y2="8.49"/><line class="b" x1="37.73" y1="9.07" x2="37.84" y2="8.96"/><polyline class="b" points="33.88 9.16 35.31 8.69 36.53 9.13"/><line class="c" x1="38.71" y1="6.45" x2="39.3" y2="5.87"/><line class="c" x1="38.49" y1="7.08" x2="39.62" y2="5.95"/><line class="c" x1="38.27" y1="7.71" x2="39.95" y2="6.03"/><line class="c" x1="38.06" y1="8.33" x2="40.28" y2="6.12"/><line class="c" x1="38.31" y1="8.49" x2="40.56" y2="6.24"/><line class="c" x1="38.71" y1="8.49" x2="40.74" y2="6.46"/><line class="c" x1="39.13" y1="8.49" x2="40.94" y2="6.68"/><line class="c" x1="39.53" y1="8.49" x2="41.12" y2="6.9"/><line class="c" x1="39.95" y1="8.49" x2="41.3" y2="7.12"/><line class="c" x1="40.35" y1="8.49" x2="41.49" y2="7.35"/><line class="c" x1="40.75" y1="8.49" x2="41.73" y2="7.51"/><line class="c" x1="41.48" y1="8.19" x2="42" y2="7.66"/><line class="c" x1="41.88" y1="8.19" x2="42.27" y2="7.79"/><line class="c" x1="42.3" y1="8.19" x2="42.54" y2="7.94"/><line class="c" x1="42.7" y1="8.19" x2="42.81" y2="8.08"/><line class="c" x1="41.55" y1="7.41" x2="43.01" y2="8.19"/><line class="b" x1="43.08" y1="8.22" x2="43.1" y2="8.19"/><line class="b" x1="43.34" y1="8.36" x2="43.52" y2="8.19"/><line class="b" x1="43.63" y1="8.48" x2="43.92" y2="8.19"/><line class="b" x1="43.94" y1="8.59" x2="44.34" y2="8.19"/><line class="b" x1="44.24" y1="8.69" x2="44.74" y2="8.19"/><line class="b" x1="44.55" y1="8.79" x2="45.15" y2="8.19"/><line class="b" x1="44.87" y1="8.88" x2="45.56" y2="8.19"/><line class="b" x1="45.17" y1="8.99" x2="45.97" y2="8.19"/><line class="b" x1="45.48" y1="9.09" x2="46.38" y2="8.19"/><line class="b" x1="45.78" y1="9.19" x2="46.79" y2="8.19"/><line class="b" x1="46.05" y1="9.34" x2="47.2" y2="8.19"/><line class="b" x1="46.31" y1="9.47" x2="47.61" y2="8.19"/><line class="b" x1="46.58" y1="9.62" x2="48.01" y2="8.19"/><line class="b" x1="46.85" y1="9.76" x2="48.43" y2="8.19"/><line class="b" x1="47.12" y1="9.9" x2="48.83" y2="8.19"/><line class="b" x1="47.39" y1="10.05" x2="49.25" y2="8.19"/><line class="b" x1="47.64" y1="10.19" x2="49.65" y2="8.19"/><line class="b" x1="47.94" y1="10.3" x2="50.05" y2="8.19"/><line class="b" x1="48.35" y1="10.29" x2="50.47" y2="8.19"/><line class="b" x1="48.77" y1="10.29" x2="50.87" y2="8.19"/><line class="b" x1="49.2" y1="10.28" x2="51.29" y2="8.19"/><line class="b" x1="49.61" y1="10.27" x2="51.69" y2="8.19"/><line class="b" x1="50.03" y1="10.27" x2="52.1" y2="8.19"/><line class="b" x1="50.45" y1="10.25" x2="52.51" y2="8.19"/><line class="b" x1="50.86" y1="10.24" x2="52.92" y2="8.19"/><line class="b" x1="51.27" y1="10.25" x2="53.33" y2="8.19"/><line class="b" x1="51.67" y1="10.25" x2="53.74" y2="8.19"/><line class="b" x1="52.07" y1="10.27" x2="54.14" y2="8.19"/><line class="b" x1="52.46" y1="10.27" x2="54.56" y2="8.19"/><line class="b" x1="52.87" y1="10.28" x2="54.96" y2="8.19"/><line class="b" x1="53.27" y1="10.29" x2="55.38" y2="8.19"/><line class="b" x1="53.68" y1="10.29" x2="55.78" y2="8.19"/><line class="b" x1="54.08" y1="10.3" x2="56.19" y2="8.19"/><line class="b" x1="54.48" y1="10.3" x2="56.6" y2="8.19"/><line class="b" x1="54.88" y1="10.31" x2="57" y2="8.19"/><line class="b" x1="55.28" y1="10.31" x2="57.42" y2="8.19"/><line class="b" x1="55.68" y1="10.33" x2="57.83" y2="8.18"/><line class="b" x1="56.09" y1="10.33" x2="58.23" y2="8.18"/><line class="b" x1="56.49" y1="10.34" x2="58.64" y2="8.19"/><line class="b" x1="56.89" y1="10.35" x2="59.05" y2="8.19"/><line class="b" x1="57.3" y1="10.35" x2="59.46" y2="8.19"/><line class="b" x1="57.69" y1="10.36" x2="59.87" y2="8.19"/><polyline class="b" points="58.09 10.36 60.08 8.39 60.28 8.19"/><line class="b" x1="58.5" y1="10.38" x2="60.69" y2="8.19"/><polyline class="b" points="58.89 10.39 60.08 9.21 61.09 8.19"/><line class="b" x1="59.29" y1="10.4" x2="61.51" y2="8.19"/><line class="b" x1="59.68" y1="10.41" x2="61.91" y2="8.19"/><line class="b" x1="60.08" y1="10.42" x2="62.33" y2="8.19"/><line class="b" x1="60.47" y1="10.45" x2="62.73" y2="8.19"/><line class="b" x1="60.87" y1="10.46" x2="63.14" y2="8.19"/><line class="b" x1="61.26" y1="10.47" x2="63.55" y2="8.19"/><line class="b" x1="61.66" y1="10.49" x2="63.96" y2="8.19"/><line class="b" x1="62.06" y1="10.5" x2="64.37" y2="8.19"/><line class="b" x1="62.45" y1="10.51" x2="64.78" y2="8.19"/><line class="b" x1="62.84" y1="10.52" x2="65.18" y2="8.19"/><line class="b" x1="63.25" y1="10.54" x2="65.6" y2="8.19"/><line class="b" x1="63.64" y1="10.55" x2="66" y2="8.19"/><line class="b" x1="64.03" y1="10.56" x2="66.42" y2="8.19"/><line class="b" x1="64.43" y1="10.57" x2="66.82" y2="8.19"/><line class="b" x1="64.82" y1="10.6" x2="67.22" y2="8.19"/><line class="b" x1="65.22" y1="10.61" x2="67.64" y2="8.19"/><line class="b" x1="65.62" y1="10.62" x2="68.04" y2="8.19"/><line class="b" x1="66.01" y1="10.63" x2="68.46" y2="8.19"/><line class="b" x1="66.4" y1="10.65" x2="68.86" y2="8.19"/><line class="b" x1="66.79" y1="10.67" x2="69.27" y2="8.19"/><line class="b" x1="67.19" y1="10.68" x2="69.68" y2="8.19"/><line class="b" x1="67.58" y1="10.69" x2="70.09" y2="8.19"/><line class="b" x1="67.97" y1="10.72" x2="70.5" y2="8.19"/><line class="b" x1="68.36" y1="10.73" x2="70.91" y2="8.19"/><line class="b" x1="68.75" y1="10.74" x2="71.31" y2="8.19"/><line class="b" x1="69.14" y1="10.77" x2="71.73" y2="8.19"/><line class="b" x1="69.54" y1="10.78" x2="72.13" y2="8.19"/><line class="b" x1="69.93" y1="10.8" x2="72.55" y2="8.19"/><line class="b" x1="70.32" y1="10.82" x2="72.95" y2="8.19"/><line class="b" x1="70.71" y1="10.83" x2="73.37" y2="8.19"/><line class="b" x1="71.1" y1="10.85" x2="73.77" y2="8.19"/><line class="b" x1="71.49" y1="10.87" x2="74.17" y2="8.19"/><line class="b" x1="71.89" y1="10.89" x2="74.59" y2="8.19"/><line class="b" x1="72.28" y1="10.9" x2="74.99" y2="8.19"/><line class="b" x1="72.67" y1="10.91" x2="75.41" y2="8.19"/><line class="b" x1="73.06" y1="10.94" x2="75.81" y2="8.19"/><line class="b" x1="73.45" y1="10.95" x2="77.3" y2="7.11"/><polyline class="b" points="73.84 10.98 78.68 6.13 78.8 6.01"/><line class="b" x1="74.24" y1="10.99" x2="79.22" y2="6.01"/><polyline class="b" points="74.64 11 78.68 6.95 79.62 6.01"/><line class="b" x1="75.04" y1="11" x2="80.04" y2="6.01"/><line class="b" x1="75.45" y1="11" x2="80.44" y2="6.01"/><polyline class="b" points="75.85 11.01 78.68 8.17 80.84 6.01"/><line class="b" x1="76.25" y1="11.01" x2="81.26" y2="6.01"/><polyline class="b" points="76.67 11.01 78.68 8.99 81.66 6.01"/><line class="b" x1="77.07" y1="11.01" x2="81.94" y2="6.14"/><line class="b" x1="77.48" y1="11.01" x2="82.17" y2="6.33"/><polyline class="b" points="77.89 11.01 78.68 10.22 82.39 6.51"/><line class="b" x1="78.3" y1="11.01" x2="82.61" y2="6.7"/><line class="b" x1="78.68" y1="11.04" x2="82.83" y2="6.89"/><line class="b" x1="79.07" y1="11.06" x2="83.05" y2="7.08"/><line class="b" x1="79.47" y1="11.06" x2="83.27" y2="7.27"/><line class="b" x1="79.88" y1="11.07" x2="83.49" y2="7.46"/><line class="b" x1="80.28" y1="11.07" x2="83.71" y2="7.65"/><line class="b" x1="80.68" y1="11.09" x2="83.93" y2="7.84"/><line class="b" x1="81.09" y1="11.09" x2="84.15" y2="8.03"/><line class="b" x1="81.49" y1="11.09" x2="84.37" y2="8.21"/><line class="b" x1="81.9" y1="11.1" x2="84.59" y2="8.41"/><line class="b" x1="82.3" y1="11.11" x2="84.81" y2="8.59"/><line class="b" x1="82.7" y1="11.11" x2="85.03" y2="8.79"/><line class="b" x1="83.1" y1="11.12" x2="85.25" y2="8.97"/><line class="b" x1="83.5" y1="11.12" x2="85.47" y2="9.16"/><line class="b" x1="83.9" y1="11.13" x2="85.69" y2="9.35"/><line class="b" x1="84.31" y1="11.13" x2="85.91" y2="9.54"/><line class="b" x1="84.71" y1="11.15" x2="86.13" y2="9.73"/><line class="b" x1="85.11" y1="11.16" x2="86.35" y2="9.91"/><line class="b" x1="85.51" y1="11.16" x2="86.57" y2="10.11"/><line class="b" x1="85.91" y1="11.17" x2="86.79" y2="10.29"/><line class="b" x1="86.31" y1="11.17" x2="87.01" y2="10.49"/><line class="b" x1="86.72" y1="11.18" x2="87.23" y2="10.67"/><line class="b" x1="87.12" y1="11.18" x2="87.45" y2="10.87"/><line class="b" x1="87.53" y1="11.2" x2="87.66" y2="11.05"/><polyline class="b" points="44.2 8.68 45.78 9.19 47.86 10.3 50.96 10.24 58.31 10.38 66.04 10.63 74.32 10.99"/><line class="b" x1="75.95" y1="10.99" x2="83.8" y2="11.12"/><line class="a" x1="16.57" y1="30.3" x2="16.57" y2="9.43"/><line class="a" x1="33.8" y1="30.3" x2="33.8" y2="8.49"/><line class="a" x1="31.93" y1="30.3" x2="31.93" y2="7.07"/><line class="a" x1="29.87" y1="30.3" x2="29.87" y2="6.57"/><line class="a" x1="24.69" y1="30.3" x2="24.69" y2="8.09"/><polyline class="a" points="16.57 9.43 20.05 8.96 24.69 8.09 29.88 6.57 31.93 7.07"/><polyline class="b" points="31.93 7.07 33.8 9.16 33.88 9.16"/><polyline class="b" points="36.53 9.13 37.8 9.07 38 8.49"/><polyline class="c" points="38.87 6 39.28 5.87 40.51 6.17 41.55 7.42"/><polyline class="a" points="24.23 32.29 24.23 32.24 24.29 32.12 24.36 32.07 24.47 32.01 24.7 32.01 24.81 32.07 24.87 32.12 24.92 32.24 24.92 32.35 24.87 32.46 24.75 32.64 24.18 33.21 24.98 33.21"/><polyline class="a" points="29.47 32.01 30.11 32.01 29.77 32.47 29.94 32.47 30.05 32.53 30.11 32.59 30.16 32.76 30.16 32.87 30.11 33.04 29.98 33.15 29.81 33.21 29.64 33.21 29.47 33.15 29.42 33.1 29.36 32.98"/><polyline class="a" points="31.97 32.01 31.39 32.81 32.25 32.81"/><line class="a" x1="31.97" y1="32.01" x2="31.97" y2="33.21"/><polyline class="a" points="92.91 32.24 93.02 32.18 93.19 32.01 93.19 33.21"/><polyline class="a" points="94 32.01 94.62 32.01 94.28 32.47 94.45 32.47 94.56 32.53 94.62 32.59 94.68 32.76 94.68 32.87 94.62 33.04 94.51 33.15 94.34 33.21 94.17 33.21 94 33.15 93.94 33.1 93.88 32.98"/><polyline class="a" points="110.87 32.24 110.98 32.18 111.16 32.01 111.16 33.21"/><polyline class="a" points="112.42 32.01 111.84 32.81 112.7 32.81"/><line class="a" x1="112.42" y1="32.01" x2="112.42" y2="33.21"/><polyline class="a" points="129.27 32.24 129.38 32.18 129.55 32.01 129.55 33.21"/><polyline class="a" points="130.92 32.01 130.34 32.01 130.29 32.53 130.34 32.47 130.51 32.42 130.69 32.42 130.86 32.47 130.98 32.59 131.03 32.76 131.03 32.87 130.98 33.04 130.86 33.15 130.69 33.21 130.51 33.21 130.34 33.15 130.29 33.1 130.23 32.98"/><polyline class="a" points="145.57 32.24 145.68 32.18 145.85 32.01 145.85 33.21"/><polyline class="a" points="147.28 32.18 147.22 32.07 147.05 32.01 146.94 32.01 146.77 32.07 146.66 32.24 146.59 32.53 146.59 32.81 146.66 33.04 146.77 33.15 146.94 33.21 147 33.21 147.17 33.15 147.28 33.04 147.34 32.87 147.34 32.81 147.28 32.64 147.17 32.53 147 32.46 146.94 32.46 146.77 32.53 146.66 32.64 146.59 32.81"/><polyline class="a" points="26.28 36.43 26.28 36.38 26.33 36.29 26.38 36.24 26.46 36.21 26.63 36.21 26.72 36.24 26.77 36.29 26.82 36.38 26.82 36.47 26.77 36.56 26.68 36.69 26.24 37.13 26.85 37.13"/><polygon class="a" points="27.21 37.04 27.16 37.09 27.21 37.13 27.26 37.09 27.21 37.04"/><polyline class="a" points="27.6 36.43 27.6 36.38 27.65 36.29 27.7 36.24 27.78 36.21 27.95 36.21 28.04 36.24 28.09 36.29 28.14 36.38 28.14 36.47 28.09 36.56 28 36.69 27.56 37.13 28.17 37.13"/><polyline class="a" points="102.34 37.13 102.78 36.21 102.17 36.21"/><polygon class="a" points="103.14 37.04 103.09 37.09 103.14 37.13 103.18 37.09 103.14 37.04"/><polygon class="a" points="103.72 36.21 103.58 36.25 103.53 36.34 103.53 36.43 103.58 36.52 103.67 36.56 103.84 36.6 103.97 36.65 104.06 36.73 104.11 36.82 104.11 36.95 104.06 37.04 104.02 37.09 103.89 37.13 103.72 37.13 103.58 37.09 103.53 37.04 103.5 36.95 103.5 36.82 103.53 36.73 103.62 36.65 103.75 36.6 103.94 36.56 104.02 36.52 104.06 36.43 104.06 36.34 104.02 36.25 103.89 36.21 103.72 36.21"/><polyline class="a" points="120.63 37.13 121.07 36.21 120.44 36.21"/><polygon class="a" points="121.41 37.04 121.37 37.09 121.41 37.13 121.46 37.09 121.41 37.04"/><polyline class="a" points="122.34 36.52 122.29 36.65 122.2 36.73 122.07 36.78 122.03 36.78 121.9 36.73 121.81 36.65 121.77 36.52 121.77 36.47 121.81 36.34 121.9 36.25 122.03 36.21 122.07 36.21 122.2 36.25 122.29 36.34 122.34 36.52 122.34 36.73 122.29 36.96 122.2 37.09 122.07 37.13 121.98 37.13 121.85 37.09 121.81 37"/><polyline class="a" points="137.83 37.13 138.27 36.21 137.66 36.21"/><polygon class="a" points="138.63 37.04 138.59 37.09 138.63 37.13 138.68 37.09 138.63 37.04"/><polyline class="a" points="139.12 36.38 139.2 36.34 139.34 36.21 139.34 37.13"/><polyline class="a" points="24.02 42.29 24.02 41.83 24.5 42.08 24.5 41.95 24.56 41.86 24.63 41.83 24.81 41.78 24.93 41.78 25.11 41.83 25.24 41.91 25.29 42.03 25.29 42.17 25.24 42.29 25.18 42.33 25.05 42.38"/><polygon class="a" points="25.18 41.45 25.24 41.48 25.29 41.45 25.24 41.4 25.18 41.45"/><polyline class="a" points="29.2 41.86 29.2 42.29 29.74 42.33 29.68 42.29 29.62 42.17 29.62 42.03 29.68 41.91 29.8 41.83 29.98 41.78 30.11 41.78 30.29 41.83 30.41 41.91 30.48 42.03 30.48 42.17 30.41 42.29 30.35 42.33 30.23 42.38"/><polygon class="a" points="30.35 41.45 30.41 41.48 30.47 41.45 30.41 41.4 30.35 41.45"/><polygon class="a" points="29.2 40.9 29.26 41.02 29.39 41.07 29.51 41.07 29.62 41.02 29.68 40.93 29.74 40.76 29.8 40.64 29.92 40.55 30.05 40.52 30.23 40.52 30.35 40.55 30.41 40.59 30.48 40.73 30.48 40.9 30.41 41.02 30.35 41.07 30.23 41.1 30.05 41.1 29.92 41.07 29.8 40.98 29.74 40.85 29.68 40.68 29.62 40.59 29.51 40.55 29.39 40.55 29.26 40.59 29.2 40.73 29.2 40.9"/><polyline class="a" points="31.44 41.85 31.32 41.89 31.26 42.02 31.26 42.1 31.32 42.23 31.5 42.32 31.81 42.35 32.1 42.35 32.35 42.32 32.47 42.23 32.53 42.1 32.53 42.06 32.47 41.94 32.35 41.85 32.16 41.8 32.1 41.8 31.92 41.85 31.81 41.94 31.75 42.06 31.75 42.1 31.81 42.23 31.92 42.32 32.1 42.35"/><polygon class="a" points="32.41 41.46 32.47 41.51 32.53 41.46 32.47 41.42 32.41 41.46"/><polyline class="a" points="31.44 40.58 31.32 40.62 31.26 40.75 31.26 40.84 31.32 40.96 31.5 41.04 31.81 41.08 32.1 41.08 32.35 41.04 32.47 40.96 32.53 40.84 32.53 40.79 32.47 40.66 32.35 40.58 32.16 40.53 32.1 40.53 31.92 40.58 31.81 40.66 31.75 40.79 31.75 40.84 31.81 40.96 31.92 41.04 32.1 41.08"/><polyline class="a" points="34.44 42.2 33.17 41.78 33.17 42.38"/><polygon class="a" points="34.32 41.45 34.38 41.48 34.44 41.45 34.38 41.4 34.32 41.45"/><polyline class="a" points="93.24 42.73 93.24 42.27 93.72 42.52 93.72 42.4 93.78 42.32 93.84 42.27 94.02 42.23 94.15 42.23 94.33 42.27 94.45 42.35 94.5 42.49 94.5 42.61 94.45 42.73 94.39 42.78 94.27 42.82"/><polyline class="a" points="93.24 41.89 93.24 41.42 93.72 41.68 93.72 41.54 93.78 41.46 93.84 41.42 94.02 41.38 94.15 41.38 94.33 41.42 94.45 41.51 94.5 41.63 94.5 41.77 94.45 41.89 94.39 41.94 94.27 41.97"/><polygon class="a" points="94.39 41.04 94.45 41.08 94.5 41.04 94.45 40.99 94.39 41.04"/><polyline class="a" points="93.24 40.27 94.08 40.7 94.08 40.06"/><line class="a" x1="93.24" y1="40.27" x2="94.5" y2="40.27"/><polyline class="a" points="111.23 42.38 112.07 42.8 112.07 42.17"/><line class="a" x1="111.23" y1="42.38" x2="112.5" y2="42.38"/><polyline class="a" points="111.47 41.83 111.41 41.74 111.23 41.62 112.5 41.62"/><polygon class="a" points="112.38 41.02 112.44 41.07 112.5 41.02 112.44 40.98 112.38 41.02"/><polyline class="a" points="111.53 40.64 111.47 40.64 111.35 40.59 111.29 40.55 111.23 40.47 111.23 40.3 111.29 40.21 111.35 40.17 111.47 40.13 111.58 40.13 111.71 40.17 111.89 40.26 112.5 40.68 112.5 40.09"/><polyline class="a" points="129.59 42.38 130.44 42.8 130.44 42.17"/><line class="a" x1="129.58" y1="42.38" x2="130.86" y2="42.38"/><polyline class="a" points="130.01 41.4 130.2 41.45 130.32 41.53 130.38 41.66 130.38 41.7 130.32 41.83 130.2 41.91 130.01 41.95 129.95 41.95 129.77 41.91 129.65 41.83 129.59 41.7 129.59 41.66 129.65 41.53 129.77 41.45 130.01 41.4 130.32 41.4 130.61 41.45 130.8 41.53 130.86 41.66 130.86 41.74 130.8 41.86 130.67 41.91"/><polygon class="a" points="130.74 41.02 130.8 41.07 130.86 41.02 130.8 40.98 130.74 41.02"/><polyline class="a" points="129.89 40.64 129.83 40.64 129.71 40.59 129.65 40.55 129.59 40.47 129.59 40.3 129.65 40.21 129.71 40.17 129.83 40.13 129.95 40.13 130.07 40.17 130.26 40.26 130.86 40.68 130.86 40.09"/><polyline class="a" points="145.9 42.29 145.9 42.72 146.44 42.76 146.37 42.72 146.31 42.59 146.31 42.46 146.37 42.33 146.5 42.25 146.68 42.2 146.8 42.2 146.99 42.25 147.1 42.33 147.16 42.46 147.16 42.59 147.1 42.72 147.05 42.76 146.93 42.8"/><polyline class="a" points="146.19 41.91 146.13 41.91 146.01 41.86 145.95 41.83 145.9 41.74 145.9 41.57 145.95 41.48 146.01 41.45 146.13 41.4 146.25 41.4 146.38 41.45 146.56 41.53 147.16 41.95 147.16 41.36"/><polygon class="a" points="147.05 41.02 147.1 41.07 147.16 41.02 147.1 40.98 147.05 41.02"/><polyline class="a" points="146.19 40.64 146.13 40.64 146.01 40.59 145.95 40.55 145.9 40.47 145.9 40.3 145.95 40.21 146.01 40.17 146.13 40.13 146.25 40.13 146.38 40.17 146.56 40.26 147.16 40.68 147.16 40.09"/><polyline class="a" points="24.3 49 24.23 48.91 24.05 48.78 25.32 48.78"/><polyline class="a" points="24.48 46.87 24.66 46.92 24.78 47 24.84 47.13 24.84 47.17 24.78 47.3 24.66 47.38 24.48 47.42 24.42 47.42 24.23 47.38 24.11 47.3 24.05 47.17 24.05 47.13 24.11 47 24.23 46.92 24.48 46.87 24.78 46.87 25.09 46.92 25.26 47 25.32 47.13 25.32 47.21 25.26 47.33 25.14 47.38"/><polygon class="a" points="25.2 46.49 25.26 46.54 25.32 46.49 25.26 46.45 25.2 46.49"/><polyline class="a" points="24.23 45.59 24.11 45.64 24.05 45.77 24.05 45.85 24.11 45.99 24.29 46.07 24.6 46.11 24.91 46.11 25.14 46.07 25.26 45.99 25.32 45.85 25.32 45.81 25.26 45.68 25.14 45.59 24.97 45.56 24.91 45.56 24.72 45.59 24.6 45.68 24.54 45.81 24.54 45.85 24.6 45.99 24.72 46.07 24.91 46.11"/><polyline class="a" points="24.3 45.18 24.23 45.09 24.05 44.96 25.32 44.96"/><polyline class="a" points="29.48 49.12 29.42 49.03 29.24 48.91 30.51 48.91"/><polyline class="a" points="29.66 47.85 29.84 47.88 29.96 47.97 30.02 48.1 30.02 48.14 29.96 48.27 29.84 48.36 29.66 48.4 29.59 48.4 29.42 48.36 29.3 48.27 29.24 48.14 29.24 48.1 29.3 47.97 29.42 47.88 29.66 47.85 29.96 47.85 30.27 47.88 30.45 47.97 30.51 48.1 30.51 48.19 30.45 48.31 30.33 48.36"/><polygon class="a" points="29.24 47.3 29.3 47.42 29.48 47.5 29.78 47.55 29.96 47.55 30.27 47.5 30.45 47.42 30.51 47.3 30.51 47.21 30.45 47.09 30.27 47 29.96 46.95 29.78 46.95 29.48 47 29.3 47.09 29.24 47.21 29.24 47.3"/><polygon class="a" points="30.39 46.62 30.45 46.66 30.51 46.62 30.45 46.57 30.39 46.62"/><polyline class="a" points="29.53 46.23 29.48 46.23 29.36 46.2 29.3 46.15 29.24 46.07 29.24 45.9 29.3 45.82 29.36 45.77 29.48 45.73 29.59 45.73 29.72 45.77 29.9 45.85 30.51 46.28 30.51 45.68"/><polyline class="a" points="29.42 44.87 29.3 44.92 29.24 45.04 29.24 45.13 29.3 45.27 29.48 45.35 29.78 45.39 30.08 45.39 30.33 45.35 30.45 45.27 30.51 45.13 30.51 45.09 30.45 44.96 30.33 44.87 30.14 44.84 30.08 44.84 29.9 44.87 29.78 44.96 29.72 45.09 29.72 45.13 29.78 45.27 29.9 45.35 30.08 45.39"/><polyline class="a" points="31.54 49.14 31.48 49.06 31.29 48.92 32.57 48.92"/><polyline class="a" points="31.72 47.87 31.89 47.91 32.02 47.99 32.08 48.13 32.08 48.16 32.02 48.29 31.89 48.37 31.72 48.42 31.66 48.42 31.48 48.37 31.36 48.29 31.3 48.16 31.3 48.13 31.36 47.99 31.48 47.91 31.72 47.87 32.02 47.87 32.32 47.91 32.51 47.99 32.57 48.13 32.57 48.2 32.51 48.34 32.38 48.37"/><polygon class="a" points="31.29 47.32 31.36 47.44 31.54 47.53 31.83 47.57 32.02 47.57 32.32 47.53 32.51 47.44 32.57 47.32 32.57 47.23 32.51 47.1 32.32 47.02 32.02 46.98 31.83 46.98 31.54 47.02 31.36 47.1 31.29 47.23 31.29 47.32"/><polygon class="a" points="32.45 46.63 32.51 46.68 32.57 46.63 32.51 46.6 32.45 46.63"/><polyline class="a" points="31.29 45.03 32.14 45.45 32.14 44.81"/><line class="a" x1="31.29" y1="45.03" x2="32.57" y2="45.03"/><polyline class="a" points="33.41 49.12 33.35 49.03 33.17 48.91 34.44 48.91"/><polygon class="a" points="33.17 48.19 33.23 48.31 33.35 48.36 33.47 48.36 33.59 48.31 33.66 48.23 33.72 48.05 33.77 47.93 33.89 47.85 34.01 47.81 34.2 47.81 34.32 47.85 34.38 47.88 34.44 48.02 34.44 48.19 34.38 48.31 34.32 48.36 34.2 48.4 34.01 48.4 33.89 48.36 33.77 48.28 33.72 48.14 33.66 47.97 33.59 47.88 33.47 47.85 33.35 47.85 33.23 47.88 33.17 48.02 33.17 48.19"/><polyline class="a" points="33.59 47 33.77 47.04 33.89 47.13 33.95 47.26 33.95 47.3 33.89 47.42 33.77 47.51 33.59 47.55 33.53 47.55 33.35 47.51 33.23 47.42 33.17 47.3 33.17 47.26 33.23 47.13 33.35 47.04 33.59 47 33.89 47 34.2 47.04 34.38 47.13 34.44 47.26 34.44 47.33 34.38 47.47 34.26 47.51"/><polygon class="a" points="34.32 46.62 34.38 46.66 34.44 46.62 34.38 46.57 34.32 46.62"/><polyline class="a" points="33.17 45.85 34.01 46.28 34.01 45.64"/><line class="a" x1="33.17" y1="45.85" x2="34.44" y2="45.85"/><polyline class="a" points="33.17 45.35 33.17 44.87 33.66 45.13 33.66 45.01 33.72 44.92 33.77 44.87 33.95 44.84 34.07 44.84 34.26 44.87 34.38 44.96 34.44 45.09 34.44 45.22 34.38 45.35 34.32 45.39 34.2 45.44"/><polyline class="a" points="93.51 49 93.45 48.91 93.26 48.78 94.54 48.78"/><polygon class="a" points="93.26 47.21 93.33 47.33 93.45 47.38 93.57 47.38 93.69 47.33 93.75 47.26 93.81 47.09 93.88 46.95 94 46.87 94.12 46.83 94.3 46.83 94.41 46.87 94.47 46.92 94.54 47.04 94.54 47.21 94.47 47.33 94.41 47.38 94.3 47.42 94.12 47.42 94 47.38 93.88 47.3 93.81 47.17 93.75 47 93.69 46.92 93.57 46.87 93.45 46.87 93.33 46.92 93.26 47.04 93.26 47.21"/><polygon class="a" points="94.42 46.49 94.48 46.54 94.54 46.49 94.48 46.45 94.42 46.49"/><polyline class="a" points="93.57 46.11 93.51 46.11 93.39 46.07 93.33 46.02 93.26 45.94 93.26 45.77 93.33 45.68 93.39 45.64 93.51 45.59 93.63 45.59 93.75 45.64 93.94 45.73 94.54 46.15 94.54 45.56"/><polyline class="a" points="93.51 45.18 93.45 45.09 93.26 44.96 94.54 44.96"/><polyline class="a" points="111.5 49 111.44 48.91 111.27 48.78 112.54 48.78"/><polygon class="a" points="111.27 47.21 111.33 47.33 111.44 47.38 111.56 47.38 111.68 47.33 111.74 47.26 111.8 47.09 111.86 46.95 111.99 46.87 112.11 46.83 112.29 46.83 112.42 46.87 112.48 46.92 112.54 47.04 112.54 47.21 112.48 47.33 112.42 47.38 112.29 47.42 112.11 47.42 111.99 47.38 111.86 47.3 111.8 47.17 111.74 47 111.68 46.92 111.56 46.87 111.44 46.87 111.33 46.92 111.27 47.04 111.27 47.21"/><polygon class="a" points="112.42 46.49 112.48 46.54 112.54 46.49 112.48 46.45 112.42 46.49"/><polyline class="a" points="111.5 46.02 111.44 45.94 111.27 45.82 112.54 45.82"/><polyline class="a" points="111.5 45.18 111.44 45.09 111.27 44.96 112.54 44.96"/><polyline class="a" points="129.87 49.12 129.81 49.03 129.62 48.91 130.89 48.91"/><polygon class="a" points="129.62 48.19 129.68 48.31 129.81 48.36 129.93 48.36 130.05 48.31 130.11 48.23 130.17 48.05 130.23 47.93 130.35 47.85 130.47 47.81 130.65 47.81 130.77 47.85 130.83 47.88 130.89 48.02 130.89 48.19 130.83 48.31 130.77 48.36 130.65 48.4 130.47 48.4 130.35 48.36 130.23 48.28 130.17 48.14 130.11 47.97 130.05 47.88 129.93 47.85 129.81 47.85 129.68 47.88 129.62 48.02 129.62 48.19"/><polyline class="a" points="130.89 47.38 129.62 46.95 129.62 47.55"/><polygon class="a" points="130.77 46.62 130.83 46.66 130.89 46.62 130.83 46.57 130.77 46.62"/><polyline class="a" points="130.05 45.73 130.23 45.77 130.36 45.85 130.41 45.99 130.41 46.02 130.36 46.15 130.23 46.23 130.05 46.28 129.99 46.28 129.81 46.23 129.68 46.15 129.62 46.02 129.62 45.99 129.68 45.85 129.81 45.77 130.05 45.73 130.36 45.73 130.65 45.77 130.83 45.85 130.89 45.99 130.89 46.07 130.83 46.2 130.71 46.23"/><polyline class="a" points="130.89 45.27 129.62 44.84 129.62 45.44"/><polyline class="a" points="146.17 49.12 146.1 49.03 145.92 48.91 147.19 48.91"/><polygon class="a" points="145.92 48.19 145.98 48.31 146.11 48.36 146.23 48.36 146.35 48.31 146.41 48.23 146.47 48.05 146.53 47.93 146.66 47.85 146.78 47.81 146.96 47.81 147.07 47.85 147.13 47.88 147.19 48.02 147.19 48.19 147.13 48.31 147.07 48.36 146.96 48.4 146.78 48.4 146.66 48.36 146.53 48.28 146.47 48.14 146.41 47.97 146.35 47.88 146.23 47.85 146.11 47.85 145.98 47.88 145.92 48.02 145.92 48.19"/><polyline class="a" points="147.19 47.38 145.92 46.95 145.92 47.55"/><polygon class="a" points="147.07 46.62 147.13 46.66 147.19 46.62 147.13 46.57 147.07 46.62"/><polyline class="a" points="147.19 45.27 145.92 44.84 145.92 45.44"/><polyline class="a" points="33.8 8.49 40.81 8.49 41.3 8.19"/><line class="a" x1="44.2" y1="8.19" x2="75.95" y2="8.19"/><polyline class="a" points="81.81 6.01 78.68 6.01 75.95 8.19"/><line class="a" x1="81.81" y1="6.01" x2="87.84" y2="11.2"/><line class="a" x1="41.3" y1="8.19" x2="44.2" y2="8.19"/><polygon class="a" points="1.56 41.01 1.56 40.08 1.86 40.08 2 40.13 2.1 40.21 2.13 40.31 2.18 40.43 2.18 40.65 2.13 40.79 2.1 40.88 2 40.97 1.86 41.01 1.56 41.01"/><line class="a" x1="2.49" y1="40.08" x2="2.49" y2="41.01"/><polyline class="a" points="3.42 40.21 3.33 40.13 3.2 40.08 3.03 40.08 2.89 40.13 2.79 40.21 2.79 40.31 2.84 40.4 2.89 40.43 2.98 40.48 3.25 40.57 3.33 40.62 3.37 40.65 3.42 40.75 3.42 40.88 3.33 40.97 3.2 41.01 3.03 41.01 2.89 40.97 2.79 40.88"/><line class="a" x1="3.91" y1="40.08" x2="3.91" y2="41.01"/><line class="a" x1="3.6" y1="40.08" x2="4.21" y2="40.08"/><polygon class="a" points="4.48 40.92 4.43 40.97 4.48 41.01 4.53 40.97 4.48 40.92"/><polyline class="a" points="5.82 41.01 5.82 40.08 6.21 40.08 6.34 40.13 6.39 40.17 6.43 40.26 6.43 40.39 6.39 40.48 6.34 40.53 6.21 40.56 5.82 40.56"/><polyline class="a" points="6.75 41.01 6.75 40.08 7.14 40.08 7.27 40.13 7.32 40.17 7.36 40.26 7.36 40.34 7.32 40.43 7.27 40.48 7.14 40.53 6.75 40.53"/><line class="a" x1="7.05" y1="40.53" x2="7.36" y2="41.01"/><polyline class="a" points="9.27 40.31 9.22 40.21 9.13 40.13 9.05 40.08 8.86 40.08 8.78 40.13 8.69 40.21 8.64 40.31 8.61 40.43 8.61 40.65 8.64 40.79 8.69 40.88 8.78 40.97 8.86 41.01 9.05 41.01 9.13 40.97 9.22 40.88 9.27 40.79 9.27 40.65 9.05 40.65"/><polyline class="a" points="9.57 41.01 9.57 40.08 9.98 40.08 10.11 40.13 10.15 40.17 10.2 40.26 10.2 40.34 10.15 40.43 10.11 40.48 9.98 40.53 9.57 40.53"/><line class="a" x1="9.88" y1="40.53" x2="10.2" y2="41.01"/><polyline class="a" points="10.5 41.01 10.5 40.08 11.08 40.08"/><line class="a" x1="10.5" y1="40.53" x2="10.86" y2="40.53"/><line class="a" x1="10.5" y1="41.01" x2="11.08" y2="41.01"/><polyline class="a" points="11.92 40.21 11.84 40.13 11.7 40.08 11.52 40.08 11.4 40.13 11.3 40.21 11.3 40.31 11.35 40.4 11.4 40.43 11.48 40.48 11.74 40.57 11.84 40.62 11.87 40.65 11.92 40.75 11.92 40.88 11.84 40.97 11.7 41.01 11.52 41.01 11.4 40.97 11.3 40.88"/><polyline class="a" points="12.8 40.21 12.72 40.13 12.58 40.08 12.41 40.08 12.28 40.13 12.19 40.21 12.19 40.31 12.23 40.4 12.28 40.43 12.36 40.48 12.63 40.57 12.72 40.62 12.77 40.65 12.8 40.75 12.8 40.88 12.72 40.97 12.58 41.01 12.41 41.01 12.28 40.97 12.19 40.88"/><line class="a" x1="13.12" y1="40.08" x2="13.12" y2="41.01"/><polyline class="a" points="13.34 40.08 13.7 41.01 14.05 40.08"/><polyline class="a" points="14.14 41.01 14.49 40.08 14.85 41.01"/><line class="a" x1="14.27" y1="40.7" x2="14.71" y2="40.7"/><line class="a" x1="2.18" y1="42.12" x2="2.18" y2="42.74"/><polyline class="a" points="2.18 42.29 2.32 42.17 2.4 42.12 2.54 42.12 2.62 42.17 2.67 42.29 2.67 42.74"/><polyline class="a" points="2.67 42.29 2.79 42.17 2.89 42.12 3.03 42.12 3.11 42.17 3.15 42.29 3.15 42.74"/><polygon class="a" points="1.56 36.17 1.56 35.24 1.86 35.24 2 35.28 2.1 35.38 2.13 35.46 2.18 35.6 2.18 35.82 2.13 35.95 2.1 36.04 2 36.12 1.86 36.17 1.56 36.17"/><line class="a" x1="2.49" y1="35.24" x2="2.49" y2="36.17"/><line class="a" x1="3.91" y1="35.24" x2="3.91" y2="36.17"/><line class="a" x1="3.6" y1="35.24" x2="4.21" y2="35.24"/><rect class="a" x="4.45" y="36.09" width="0.07" height="0.07" transform="translate(-24.23 13.75) rotate(-45)"/><polyline class="a" points="5.82 36.17 5.82 35.24 6.21 35.24 6.34 35.28 6.39 35.33 6.43 35.41 6.43 35.55 6.39 35.63 6.34 35.68 6.21 35.72 5.82 35.72"/><polyline class="a" points="6.61 36.17 6.97 35.24 7.32 36.17"/><line class="a" x1="6.75" y1="35.85" x2="7.19" y2="35.85"/><polyline class="a" points="7.54 36.17 7.54 35.24 7.93 35.24 8.07 35.28 8.12 35.33 8.15 35.41 8.15 35.5 8.12 35.6 8.07 35.63 7.93 35.68 7.54 35.68"/><line class="a" x1="7.85" y1="35.68" x2="8.15" y2="36.17"/><polyline class="a" points="8.42 36.17 9.05 35.24 8.42 35.24"/><line class="a" x1="8.42" y1="36.17" x2="9.05" y2="36.17"/><line class="a" x1="9.35" y1="35.24" x2="9.35" y2="36.17"/><polyline class="a" points="9.57 36.17 9.93 35.24 10.28 36.17"/><line class="a" x1="9.71" y1="35.85" x2="10.15" y2="35.85"/><polyline class="a" points="10.5 35.24 10.5 36.17 11.04 36.17"/><polyline class="a" points="11.26 36.17 11.26 35.24 11.84 35.24"/><line class="a" x1="11.26" y1="35.68" x2="11.62" y2="35.68"/><line class="a" x1="11.26" y1="36.17" x2="11.84" y2="36.17"/><line class="a" x1="2.18" y1="37.27" x2="2.18" y2="37.9"/><polyline class="a" points="2.18 37.46 2.32 37.32 2.4 37.27 2.54 37.27 2.62 37.32 2.67 37.46 2.67 37.9"/><polyline class="a" points="2.67 37.46 2.79 37.32 2.89 37.27 3.03 37.27 3.11 37.32 3.15 37.46 3.15 37.9"/><polyline class="a" points="1.56 32.28 1.91 33.21 2.27 32.28"/><polyline class="a" points="2.49 33.21 2.49 32.28 3.06 32.28"/><line class="a" x1="2.49" y1="32.72" x2="2.84" y2="32.72"/><line class="a" x1="2.49" y1="33.21" x2="3.06" y2="33.21"/><polyline class="a" points="3.33 33.21 3.33 32.28 3.72 32.28 3.86 32.33 3.91 32.37 3.96 32.47 3.96 32.55 3.91 32.64 3.86 32.69 3.72 32.72 3.33 32.72"/><line class="a" x1="3.64" y1="32.72" x2="3.96" y2="33.21"/><line class="a" x1="4.43" y1="32.28" x2="4.43" y2="33.21"/><line class="a" x1="4.13" y1="32.28" x2="4.75" y2="32.28"/><line class="a" x1="4.97" y1="32.28" x2="4.97" y2="33.21"/><line class="a" x1="6.26" y1="32.28" x2="6.26" y2="33.21"/><line class="a" x1="1.96" y1="46.42" x2="2.22" y2="46.68"/><polyline class="a" points="2.57 45.66 2.57 46.33 2.62 46.46 2.71 46.55 2.84 46.59 2.93 46.59 3.06 46.55 3.15 46.46 3.2 46.33 3.2 45.66"/><line class="a" x1="4.7" y1="45.66" x2="4.7" y2="46.59"/><line class="a" x1="4.4" y1="45.66" x2="5.01" y2="45.66"/><polyline class="a" points="5.11 46.59 5.46 45.66 5.82 46.59"/><line class="a" x1="5.23" y1="46.28" x2="5.68" y2="46.28"/><line class="a" x1="7.14" y1="45.66" x2="7.14" y2="46.59"/><line class="a" x1="6.83" y1="45.66" x2="7.44" y2="45.66"/><polyline class="a" points="7.68 46.59 7.68 45.66 8.25 45.66"/><line class="a" x1="7.68" y1="46.11" x2="8.02" y2="46.11"/><line class="a" x1="7.68" y1="46.59" x2="8.25" y2="46.59"/><polyline class="a" points="8.51 46.59 8.51 45.66 8.91 45.66 9.05 45.7 9.08 45.75 9.13 45.84 9.13 45.92 9.08 46.01 9.05 46.06 8.91 46.11 8.51 46.11"/><line class="a" x1="8.83" y1="46.11" x2="9.13" y2="46.59"/><polyline class="a" points="9.44 46.59 9.44 45.66 9.84 45.66 9.98 45.7 10.01 45.75 10.06 45.84 10.06 45.92 10.01 46.01 9.98 46.06 9.84 46.11 9.44 46.11"/><line class="a" x1="9.76" y1="46.11" x2="10.06" y2="46.59"/><polyline class="a" points="10.37 46.59 10.37 45.66 10.94 45.66"/><line class="a" x1="10.37" y1="46.11" x2="10.72" y2="46.11"/><line class="a" x1="10.37" y1="46.59" x2="10.94" y2="46.59"/><polyline class="a" points="11.21 46.59 11.21 45.66 11.84 46.59 11.84 45.66"/><line class="a" x1="2.18" y1="47.7" x2="2.18" y2="48.32"/><polyline class="a" points="2.18 47.87 2.32 47.74 2.4 47.7 2.54 47.7 2.62 47.74 2.67 47.87 2.67 48.32"/><polyline class="a" points="2.67 47.87 2.79 47.74 2.89 47.7 3.03 47.7 3.11 47.74 3.15 47.87 3.15 48.32"/><polyline class="a" points="4.89 47.84 4.84 47.74 4.7 47.7 4.57 47.7 4.43 47.74 4.4 47.84 4.43 47.92 4.53 47.97 4.75 48.01 4.84 48.05 4.89 48.14 4.89 48.19 4.84 48.28 4.7 48.33 4.57 48.33 4.43 48.28 4.4 48.19"/><polygon class="a" points="5.23 48.23 5.19 48.27 5.23 48.32 5.28 48.27 5.23 48.23"/><line class="a" x1="5.63" y1="47.39" x2="5.63" y2="48.32"/><polygon class="a" points="6.04 48.23 5.99 48.27 6.04 48.32 6.07 48.27 6.04 48.23"/><line class="a" x1="6.43" y1="47.7" x2="6.43" y2="48.32"/><polyline class="a" points="6.43 47.87 6.56 47.74 6.65 47.7 6.78 47.7 6.87 47.74 6.92 47.87 6.92 48.32"/><polyline class="a" points="6.92 47.87 7.05 47.74 7.14 47.7 7.27 47.7 7.36 47.74 7.41 47.87 7.41 48.32"/><polygon class="a" points="7.8 48.23 7.76 48.27 7.8 48.32 7.85 48.27 7.8 48.23"/><line class="c" x1="43.47" y1="8.43" x2="43.47" y2="8.42"/><line class="b" x1="83.8" y1="11.12" x2="87.84" y2="11.2"/><line class="a" x1="40.81" y1="8.49" x2="40.81" y2="30.3"/><line class="a" x1="41.3" y1="8.19" x2="41.3" y2="30.3"/><line class="a" x1="75.95" y1="8.19" x2="75.95" y2="30.3"/><line class="a" x1="78.68" y1="6.01" x2="78.68" y2="30.3"/><line class="a" x1="81.81" y1="6.01" x2="81.81" y2="30.3"/><line class="a" x1="87.84" y1="11.2" x2="87.84" y2="30.3"/><line class="a" x1="60.08" y1="8.19" x2="60.08" y2="30.3"/><polyline class="a" points="40.8 32.18 40.74 32.07 40.57 32.01 40.46 32.01 40.29 32.07 40.18 32.24 40.12 32.53 40.12 32.81 40.18 33.04 40.29 33.15 40.46 33.21 40.52 33.21 40.69 33.15 40.8 33.04 40.86 32.87 40.86 32.81 40.8 32.64 40.69 32.53 40.52 32.46 40.46 32.46 40.29 32.53 40.18 32.64 40.12 32.81"/><polyline class="a" points="41.62 33.21 42.19 32.01 41.39 32.01"/><polygon class="a" points="59.95 32.01 59.78 32.07 59.73 32.18 59.73 32.29 59.78 32.42 59.91 32.47 60.13 32.53 60.3 32.59 60.42 32.7 60.47 32.81 60.47 32.98 60.42 33.1 60.36 33.15 60.19 33.21 59.95 33.21 59.78 33.15 59.73 33.1 59.67 32.98 59.67 32.81 59.73 32.7 59.84 32.59 60.02 32.53 60.25 32.47 60.36 32.42 60.42 32.29 60.42 32.18 60.36 32.07 60.19 32.01 59.95 32.01"/><polyline class="a" points="76.31 32.41 76.25 32.59 76.14 32.7 75.97 32.76 75.91 32.76 75.74 32.7 75.63 32.59 75.57 32.41 75.57 32.35 75.63 32.18 75.74 32.07 75.91 32.01 75.97 32.01 76.14 32.07 76.25 32.18 76.31 32.41 76.31 32.7 76.25 32.98 76.14 33.15 75.97 33.21 75.86 33.21 75.69 33.15 75.63 33.04"/><polyline class="a" points="77.8 32.24 77.91 32.18 78.08 32.01 78.08 33.21"/><polygon class="a" points="79.11 32.01 78.94 32.07 78.83 32.24 78.76 32.53 78.76 32.7 78.83 32.98 78.94 33.15 79.11 33.21 79.23 33.21 79.4 33.15 79.51 32.98 79.57 32.7 79.57 32.53 79.51 32.24 79.4 32.07 79.23 32.01 79.11 32.01"/><polyline class="a" points="81.09 32.24 81.21 32.18 81.38 32.01 81.38 33.21"/><polyline class="a" points="82.24 32.24 82.35 32.18 82.52 32.01 82.52 33.21"/><polyline class="a" points="86.96 32.24 87.07 32.18 87.24 32.01 87.24 33.21"/><polyline class="a" points="87.98 32.29 87.98 32.24 88.04 32.12 88.1 32.07 88.21 32.01 88.44 32.01 88.55 32.07 88.61 32.12 88.66 32.24 88.66 32.35 88.61 32.46 88.49 32.64 87.93 33.21 88.72 33.21"/><line class="a" x1="40.81" y1="34.92" x2="40.81" y2="38.62"/><line class="a" x1="41.22" y1="34.92" x2="41.22" y2="38.62"/><line class="a" x1="60.08" y1="34.92" x2="60.08" y2="38.62"/><line class="a" x1="75.95" y1="34.92" x2="75.95" y2="38.62"/><line class="a" x1="78.68" y1="34.92" x2="78.68" y2="38.62"/><line class="a" x1="81.81" y1="34.92" x2="81.81" y2="38.62"/><line class="a" x1="87.84" y1="34.92" x2="87.84" y2="38.62"/><polygon class="a" points="30.5 37.45 30.54 37.58 30.67 37.66 30.89 37.71 31.02 37.71 31.25 37.66 31.38 37.58 31.42 37.45 31.42 37.36 31.38 37.23 31.25 37.14 31.02 37.1 30.89 37.1 30.67 37.14 30.54 37.23 30.5 37.36 30.5 37.45"/><polygon class="a" points="31.33 36.75 31.38 36.78 31.42 36.75 31.38 36.7 31.33 36.75"/><polyline class="a" points="30.8 35.82 30.94 35.87 31.02 35.95 31.06 36.09 31.06 36.12 31.02 36.26 30.94 36.34 30.8 36.39 30.76 36.39 30.62 36.34 30.54 36.26 30.5 36.12 30.5 36.09 30.54 35.95 30.62 35.87 30.8 35.82 31.02 35.82 31.25 35.87 31.38 35.95 31.42 36.09 31.42 36.17 31.38 36.31 31.28 36.34"/><polygon class="a" points="32.37 37.48 32.42 37.62 32.54 37.7 32.76 37.74 32.9 37.74 33.12 37.7 33.25 37.62 33.3 37.48 33.3 37.4 33.25 37.26 33.12 37.18 32.9 37.13 32.76 37.13 32.54 37.18 32.42 37.26 32.37 37.4 32.37 37.48"/><polygon class="a" points="33.2 36.77 33.25 36.82 33.3 36.77 33.25 36.73 33.2 36.77"/><polygon class="a" points="32.37 36.2 32.42 36.33 32.51 36.38 32.59 36.38 32.68 36.33 32.73 36.25 32.76 36.08 32.81 35.94 32.9 35.85 32.98 35.8 33.12 35.8 33.2 35.85 33.25 35.89 33.3 36.03 33.3 36.2 33.25 36.33 33.2 36.38 33.12 36.42 32.98 36.42 32.9 36.38 32.81 36.3 32.76 36.16 32.73 35.98 32.68 35.89 32.59 35.85 32.51 35.85 32.42 35.89 32.37 36.03 32.37 36.2"/><polyline class="a" points="36.94 36.21 37.43 36.21 37.16 36.56 37.29 36.56 37.38 36.6 37.43 36.65 37.46 36.78 37.46 36.87 37.43 37 37.33 37.09 37.2 37.13 37.07 37.13 36.94 37.09 36.89 37.04 36.85 36.95"/><polygon class="a" points="41.03 36.63 41 36.67 41.03 36.71 41.08 36.67 41.03 36.63"/><polygon class="a" points="49.63 36.21 49.5 36.25 49.45 36.34 49.45 36.43 49.5 36.52 49.59 36.56 49.76 36.6 49.9 36.65 49.98 36.73 50.03 36.82 50.03 36.95 49.98 37.04 49.94 37.09 49.81 37.13 49.63 37.13 49.5 37.09 49.45 37.04 49.41 36.95 49.41 36.82 49.45 36.73 49.54 36.65 49.67 36.6 49.85 36.56 49.94 36.52 49.98 36.43 49.98 36.34 49.94 36.25 49.81 36.21 49.63 36.21"/><polygon class="a" points="50.38 37.04 50.34 37.09 50.38 37.13 50.42 37.09 50.38 37.04"/><polyline class="a" points="50.78 36.43 50.78 36.38 50.83 36.29 50.86 36.24 50.95 36.21 51.13 36.21 51.22 36.24 51.27 36.29 51.3 36.38 51.3 36.47 51.27 36.56 51.17 36.69 50.73 37.13 51.35 37.13"/><polyline class="a" points="67.88 36.34 67.85 36.25 67.71 36.21 67.63 36.21 67.49 36.25 67.41 36.38 67.36 36.6 67.36 36.82 67.41 37.01 67.49 37.09 67.63 37.13 67.66 37.13 67.8 37.09 67.88 37.01 67.93 36.87 67.93 36.82 67.88 36.69 67.8 36.6 67.66 36.56 67.63 36.56 67.49 36.6 67.41 36.69 67.36 36.82"/><polygon class="a" points="68.29 37.04 68.24 37.09 68.29 37.13 68.33 37.09 68.29 37.04"/><polyline class="a" points="69.21 36.52 69.17 36.65 69.07 36.73 68.95 36.78 68.9 36.78 68.77 36.73 68.68 36.65 68.63 36.52 68.63 36.47 68.68 36.34 68.77 36.25 68.9 36.21 68.95 36.21 69.07 36.25 69.17 36.34 69.21 36.52 69.21 36.73 69.17 36.96 69.07 37.09 68.95 37.13 68.85 37.13 68.73 37.09 68.68 37.01"/><polyline class="a" points="76.45 36.38 76.54 36.34 76.67 36.21 76.67 37.13"/><polygon class="a" points="77.28 37.04 77.25 37.09 77.28 37.13 77.33 37.09 77.28 37.04"/><polyline class="a" points="77.69 36.43 77.69 36.38 77.72 36.29 77.77 36.24 77.86 36.21 78.04 36.21 78.13 36.24 78.16 36.29 78.21 36.38 78.21 36.47 78.16 36.56 78.08 36.69 77.64 37.13 78.26 37.13"/><polyline class="a" points="79.23 36.38 79.31 36.34 79.45 36.21 79.45 37.13"/><polygon class="a" points="80.07 37.04 80.02 37.09 80.07 37.13 80.11 37.09 80.07 37.04"/><polyline class="a" points="80.86 36.21 80.42 36.82 81.08 36.82"/><line class="a" x1="80.86" y1="36.21" x2="80.86" y2="37.13"/><polyline class="a" points="83.85 36.43 83.85 36.38 83.9 36.29 83.94 36.24 84.04 36.21 84.21 36.21 84.3 36.24 84.34 36.29 84.38 36.38 84.38 36.47 84.34 36.56 84.26 36.69 83.82 37.13 84.43 37.13"/><polygon class="a" points="84.78 37.04 84.73 37.09 84.78 37.13 84.82 37.09 84.78 37.04"/><polyline class="a" points="85.7 36.34 85.67 36.25 85.53 36.21 85.44 36.21 85.31 36.25 85.22 36.38 85.18 36.6 85.18 36.82 85.22 37.01 85.31 37.09 85.44 37.13 85.48 37.13 85.62 37.09 85.7 37.01 85.75 36.87 85.75 36.82 85.7 36.69 85.62 36.6 85.48 36.56 85.44 36.56 85.31 36.6 85.22 36.69 85.18 36.82"/><polyline class="a" points="89.83 36.43 89.83 36.38 89.88 36.29 89.92 36.24 90.01 36.21 90.18 36.21 90.27 36.24 90.32 36.29 90.36 36.38 90.36 36.47 90.32 36.56 90.23 36.69 89.79 37.13 90.4 37.13"/><polygon class="a" points="90.76 37.04 90.71 37.09 90.76 37.13 90.81 37.09 90.76 37.04"/><polyline class="a" points="91.69 36.34 91.64 36.25 91.5 36.21 91.42 36.21 91.28 36.25 91.2 36.38 91.15 36.6 91.15 36.82 91.2 37.01 91.28 37.09 91.42 37.13 91.47 37.13 91.59 37.09 91.69 37.01 91.72 36.87 91.72 36.82 91.69 36.69 91.59 36.6 91.47 36.56 91.42 36.56 91.28 36.6 91.2 36.69 91.15 36.82"/><polyline class="a" points="39.74 49.12 39.68 49.03 39.49 48.91 40.77 48.91"/><polygon class="a" points="39.49 48.19 39.55 48.31 39.68 48.36 39.8 48.36 39.92 48.31 39.98 48.23 40.04 48.05 40.1 47.93 40.23 47.85 40.35 47.81 40.53 47.81 40.64 47.85 40.7 47.88 40.77 48.02 40.77 48.19 40.7 48.31 40.64 48.36 40.53 48.4 40.35 48.4 40.23 48.36 40.1 48.28 40.04 48.14 39.98 47.97 39.92 47.88 39.8 47.85 39.68 47.85 39.55 47.88 39.49 48.02 39.49 48.19"/><polyline class="a" points="39.92 47 40.11 47.04 40.23 47.12 40.29 47.26 40.29 47.3 40.23 47.42 40.11 47.5 39.92 47.55 39.86 47.55 39.68 47.5 39.55 47.42 39.49 47.3 39.49 47.26 39.55 47.12 39.68 47.04 39.92 47 40.23 47 40.53 47.04 40.7 47.12 40.77 47.26 40.77 47.33 40.7 47.47 40.59 47.5"/><polygon class="a" points="40.64 46.62 40.7 46.66 40.77 46.62 40.7 46.57 40.64 46.62"/><polyline class="a" points="39.49 45.85 40.35 46.28 40.35 45.64"/><line class="a" x1="39.49" y1="45.85" x2="40.77" y2="45.85"/><polyline class="a" points="39.49 45.35 39.49 44.87 39.98 45.13 39.98 45.01 40.04 44.92 40.1 44.87 40.29 44.84 40.41 44.84 40.59 44.87 40.7 44.96 40.77 45.09 40.77 45.22 40.7 45.35 40.64 45.39 40.53 45.44"/><polyline class="a" points="41.57 49.12 41.51 49.03 41.33 48.91 42.6 48.91"/><polygon class="a" points="41.33 48.19 41.39 48.31 41.51 48.36 41.63 48.36 41.76 48.31 41.82 48.23 41.88 48.05 41.94 47.93 42.06 47.85 42.17 47.81 42.36 47.81 42.48 47.85 42.54 47.88 42.6 48.02 42.6 48.19 42.54 48.31 42.48 48.36 42.36 48.4 42.17 48.4 42.06 48.36 41.94 48.27 41.88 48.14 41.82 47.97 41.76 47.88 41.63 47.85 41.51 47.85 41.39 47.88 41.33 48.02 41.33 48.19"/><polyline class="a" points="41.76 47 41.94 47.04 42.06 47.12 42.11 47.26 42.11 47.3 42.06 47.42 41.94 47.5 41.76 47.55 41.7 47.55 41.51 47.5 41.39 47.42 41.33 47.3 41.33 47.26 41.39 47.12 41.51 47.04 41.76 47 42.06 47 42.36 47.04 42.54 47.12 42.6 47.26 42.6 47.33 42.54 47.47 42.42 47.5"/><polygon class="a" points="42.48 46.62 42.54 46.66 42.6 46.62 42.54 46.57 42.48 46.62"/><polyline class="a" points="41.33 45.77 41.33 46.2 41.88 46.23 41.82 46.2 41.76 46.07 41.76 45.94 41.82 45.82 41.94 45.73 42.11 45.68 42.23 45.68 42.42 45.73 42.54 45.82 42.6 45.94 42.6 46.07 42.54 46.2 42.48 46.23 42.36 46.28"/><polyline class="a" points="41.51 44.87 41.39 44.92 41.33 45.04 41.33 45.13 41.39 45.27 41.57 45.35 41.88 45.39 42.17 45.39 42.42 45.35 42.54 45.27 42.6 45.13 42.6 45.09 42.54 44.96 42.42 44.87 42.23 44.84 42.17 44.84 42 44.87 41.88 44.96 41.82 45.09 41.82 45.13 41.88 45.27 42 45.35 42.17 45.39"/><polyline class="a" points="59.67 49.03 59.61 48.95 59.44 48.83 60.71 48.83"/><polygon class="a" points="59.44 48.1 59.5 48.23 59.61 48.27 59.73 48.27 59.86 48.23 59.92 48.14 59.98 47.97 60.04 47.85 60.16 47.76 60.28 47.73 60.47 47.73 60.59 47.76 60.65 47.8 60.71 47.93 60.71 48.1 60.65 48.23 60.59 48.27 60.47 48.31 60.28 48.31 60.16 48.27 60.04 48.19 59.98 48.05 59.92 47.88 59.86 47.8 59.73 47.76 59.61 47.76 59.5 47.8 59.44 47.93 59.44 48.1"/><polyline class="a" points="59.86 46.92 60.04 46.95 60.16 47.04 60.22 47.17 60.22 47.21 60.16 47.33 60.04 47.42 59.86 47.47 59.8 47.47 59.61 47.42 59.5 47.33 59.44 47.21 59.44 47.17 59.5 47.04 59.61 46.95 59.86 46.92 60.16 46.92 60.47 46.95 60.65 47.04 60.71 47.17 60.71 47.25 60.65 47.38 60.53 47.42"/><polygon class="a" points="60.59 46.54 60.65 46.57 60.71 46.54 60.65 46.49 60.59 46.54"/><polyline class="a" points="59.44 45.68 59.44 46.11 59.98 46.15 59.92 46.11 59.86 45.99 59.86 45.85 59.92 45.73 60.04 45.64 60.22 45.59 60.35 45.59 60.53 45.64 60.65 45.73 60.71 45.85 60.71 45.99 60.65 46.11 60.59 46.15 60.47 46.2"/><polyline class="a" points="59.61 44.8 59.5 44.84 59.44 44.96 59.44 45.05 59.5 45.18 59.67 45.27 59.98 45.3 60.28 45.3 60.53 45.27 60.65 45.18 60.71 45.05 60.71 45.01 60.65 44.87 60.53 44.8 60.35 44.75 60.28 44.75 60.1 44.8 59.98 44.87 59.92 45.01 59.92 45.05 59.98 45.18 60.1 45.27 60.28 45.3"/><polyline class="a" points="75.55 49.12 75.48 49.03 75.31 48.9 76.58 48.9"/><polyline class="a" points="75.73 46.99 75.91 47.04 76.03 47.13 76.09 47.25 76.09 47.3 76.03 47.42 75.91 47.5 75.73 47.54 75.67 47.54 75.48 47.5 75.37 47.42 75.31 47.3 75.31 47.25 75.37 47.13 75.48 47.04 75.73 46.99 76.03 46.99 76.34 47.04 76.52 47.13 76.58 47.25 76.58 47.33 76.52 47.47 76.4 47.5"/><polygon class="a" points="76.46 46.61 76.52 46.66 76.58 46.61 76.52 46.57 76.46 46.61"/><polyline class="a" points="75.31 45.77 75.31 46.2 75.85 46.23 75.79 46.2 75.73 46.06 75.73 45.94 75.79 45.8 75.91 45.72 76.09 45.68 76.22 45.68 76.4 45.72 76.52 45.8 76.58 45.94 76.58 46.06 76.52 46.2 76.46 46.23 76.34 46.28"/><polyline class="a" points="75.48 44.87 75.37 44.92 75.31 45.04 75.31 45.13 75.37 45.25 75.54 45.34 75.85 45.39 76.16 45.39 76.4 45.34 76.52 45.25 76.58 45.13 76.58 45.09 76.52 44.96 76.4 44.87 76.22 44.84 76.16 44.84 75.97 44.87 75.85 44.96 75.79 45.09 75.79 45.13 75.85 45.25 75.97 45.34 76.16 45.39"/><polyline class="a" points="78.29 48.69 78.22 48.6 78.04 48.48 79.31 48.48"/><polyline class="a" points="78.47 47.42 78.65 47.47 78.78 47.55 78.84 47.68 78.84 47.73 78.78 47.85 78.65 47.93 78.47 47.97 78.41 47.97 78.22 47.93 78.1 47.85 78.04 47.73 78.04 47.68 78.1 47.55 78.22 47.47 78.47 47.42 78.78 47.42 79.07 47.47 79.25 47.55 79.31 47.68 79.31 47.76 79.25 47.88 79.13 47.93"/><polygon class="a" points="78.04 46.87 78.1 47 78.29 47.09 78.59 47.13 78.78 47.13 79.07 47.09 79.25 47 79.31 46.87 79.31 46.78 79.25 46.66 79.07 46.57 78.78 46.54 78.59 46.54 78.29 46.57 78.1 46.66 78.04 46.78 78.04 46.87"/><polygon class="a" points="79.19 46.2 79.25 46.23 79.31 46.2 79.25 46.15 79.19 46.2"/><polyline class="a" points="81.41 48.69 81.34 48.6 81.17 48.48 82.43 48.48"/><polyline class="a" points="81.59 47.42 81.77 47.47 81.9 47.55 81.96 47.68 81.96 47.73 81.9 47.85 81.77 47.93 81.59 47.97 81.53 47.97 81.34 47.93 81.23 47.85 81.17 47.73 81.17 47.68 81.23 47.55 81.34 47.47 81.59 47.42 81.9 47.42 82.2 47.47 82.39 47.55 82.43 47.68 82.43 47.76 82.39 47.88 82.26 47.93"/><polygon class="a" points="81.17 46.87 81.23 47 81.41 47.09 81.71 47.13 81.9 47.13 82.2 47.09 82.39 47 82.43 46.87 82.43 46.78 82.39 46.66 82.2 46.57 81.9 46.54 81.71 46.54 81.41 46.57 81.23 46.66 81.17 46.78 81.17 46.87"/><polygon class="a" points="82.32 46.2 82.39 46.23 82.43 46.2 82.39 46.15 82.32 46.2"/><polyline class="a" points="87.45 49.02 87.39 48.95 87.21 48.81 88.48 48.81"/><polygon class="a" points="87.21 47.25 87.27 47.37 87.39 47.42 87.51 47.42 87.62 47.37 87.68 47.28 87.75 47.13 87.81 46.99 87.93 46.9 88.05 46.87 88.23 46.87 88.36 46.9 88.42 46.95 88.48 47.08 88.48 47.25 88.42 47.37 88.36 47.42 88.23 47.45 88.05 47.45 87.93 47.42 87.81 47.33 87.75 47.2 87.68 47.04 87.62 46.95 87.51 46.9 87.39 46.9 87.27 46.95 87.21 47.08 87.21 47.25"/><polygon class="a" points="88.36 46.52 88.42 46.57 88.48 46.52 88.42 46.49 88.36 46.52"/><polyline class="a" points="87.51 46.15 87.45 46.15 87.33 46.1 87.27 46.06 87.21 45.98 87.21 45.8 87.27 45.72 87.33 45.68 87.45 45.63 87.57 45.63 87.68 45.68 87.87 45.77 88.48 46.18 88.48 45.59"/><polyline class="a" points="87.39 44.79 87.27 44.82 87.21 44.96 87.21 45.04 87.27 45.17 87.45 45.25 87.75 45.3 88.05 45.3 88.3 45.25 88.42 45.17 88.48 45.04 88.48 44.99 88.42 44.87 88.3 44.79 88.11 44.75 88.05 44.75 87.87 44.79 87.75 44.87 87.68 44.99 87.68 45.04 87.75 45.17 87.87 45.25 88.05 45.3"/><polyline class="a" points="39.77 42.73 39.71 42.65 39.53 42.52 40.8 42.52"/><polygon class="a" points="39.53 41.77 39.59 41.89 39.77 41.97 40.08 42.02 40.26 42.02 40.56 41.97 40.74 41.89 40.8 41.77 40.8 41.68 40.74 41.55 40.56 41.46 40.26 41.42 40.08 41.42 39.77 41.46 39.59 41.55 39.53 41.68 39.53 41.77"/><polygon class="a" points="40.68 41.08 40.74 41.13 40.8 41.08 40.74 41.04 40.68 41.08"/><polyline class="a" points="39.53 40.23 39.53 40.66 40.08 40.7 40.02 40.66 39.96 40.53 39.96 40.41 40.02 40.27 40.14 40.2 40.31 40.15 40.44 40.15 40.62 40.2 40.74 40.27 40.8 40.41 40.8 40.53 40.74 40.66 40.68 40.7 40.56 40.75"/><polyline class="a" points="41.5 42.73 41.44 42.65 41.26 42.52 42.53 42.52"/><polygon class="a" points="41.26 41.77 41.32 41.89 41.5 41.97 41.79 42.02 41.98 42.02 42.28 41.97 42.47 41.89 42.53 41.77 42.53 41.68 42.47 41.55 42.28 41.46 41.98 41.42 41.79 41.42 41.5 41.46 41.32 41.55 41.26 41.68 41.26 41.77"/><polygon class="a" points="42.41 41.08 42.47 41.13 42.53 41.08 42.47 41.04 42.41 41.08"/><polyline class="a" points="42.53 40.58 41.26 40.15 41.26 40.75"/><polyline class="a" points="59.69 42.73 59.62 42.65 59.44 42.52 60.71 42.52"/><polygon class="a" points="60.59 41.08 60.65 41.13 60.71 41.08 60.65 41.04 60.59 41.08"/><polyline class="a" points="75.61 42.76 75.55 42.76 75.44 42.72 75.37 42.67 75.31 42.59 75.31 42.41 75.37 42.33 75.44 42.29 75.55 42.25 75.67 42.25 75.79 42.29 75.97 42.38 76.58 42.8 76.58 42.2"/><polygon class="a" points="76.46 41.02 76.52 41.07 76.58 41.02 76.52 40.98 76.46 41.02"/><polyline class="a" points="76.58 40.52 75.31 40.09 75.31 40.68"/><polyline class="a" points="78.35 42.73 78.29 42.73 78.16 42.7 78.1 42.65 78.04 42.57 78.04 42.4 78.1 42.32 78.16 42.27 78.29 42.23 78.41 42.23 78.53 42.27 78.71 42.35 79.31 42.78 79.31 42.18"/><polyline class="a" points="78.22 41.38 78.1 41.42 78.04 41.55 78.04 41.63 78.1 41.77 78.29 41.85 78.59 41.89 78.9 41.89 79.13 41.85 79.25 41.77 79.31 41.63 79.31 41.59 79.25 41.46 79.13 41.38 78.96 41.34 78.9 41.34 78.71 41.38 78.59 41.46 78.53 41.59 78.53 41.63 78.59 41.77 78.71 41.85 78.9 41.89"/><polygon class="a" points="79.19 40.99 79.25 41.04 79.31 40.99 79.25 40.96 79.19 40.99"/><polyline class="a" points="78.47 40.11 78.65 40.15 78.78 40.23 78.84 40.36 78.84 40.41 78.78 40.53 78.65 40.62 78.47 40.66 78.41 40.66 78.22 40.62 78.1 40.53 78.04 40.41 78.04 40.36 78.1 40.23 78.22 40.15 78.47 40.11 78.78 40.11 79.08 40.15 79.25 40.23 79.31 40.36 79.31 40.44 79.25 40.58 79.13 40.62"/><polyline class="a" points="81.47 42.76 81.41 42.76 81.3 42.72 81.24 42.67 81.17 42.59 81.17 42.41 81.24 42.33 81.3 42.29 81.41 42.25 81.53 42.25 81.65 42.29 81.83 42.38 82.45 42.8 82.45 42.2"/><polygon class="a" points="81.17 41.74 81.23 41.86 81.34 41.91 81.47 41.91 81.59 41.86 81.65 41.78 81.71 41.62 81.77 41.48 81.9 41.4 82.02 41.36 82.2 41.36 82.32 41.4 82.39 41.45 82.45 41.57 82.45 41.74 82.39 41.86 82.32 41.91 82.2 41.95 82.02 41.95 81.9 41.91 81.77 41.83 81.71 41.7 81.65 41.53 81.59 41.45 81.47 41.4 81.34 41.4 81.23 41.45 81.17 41.57 81.17 41.74"/><polygon class="a" points="82.32 41.02 82.39 41.07 82.45 41.02 82.39 40.98 82.32 41.02"/><polyline class="a" points="81.47 40.64 81.41 40.64 81.3 40.59 81.24 40.55 81.17 40.47 81.17 40.3 81.24 40.21 81.3 40.17 81.41 40.13 81.53 40.13 81.65 40.17 81.83 40.26 82.45 40.68 82.45 40.09"/><polyline class="a" points="87.21 42.72 87.21 42.25 87.68 42.5 87.68 42.38 87.75 42.29 87.81 42.25 87.99 42.2 88.11 42.2 88.3 42.25 88.42 42.33 88.48 42.46 88.48 42.58 88.42 42.72 88.36 42.76 88.23 42.8"/><polygon class="a" points="87.21 41.7 87.27 41.83 87.45 41.91 87.75 41.95 87.93 41.95 88.23 41.91 88.42 41.83 88.48 41.7 88.48 41.62 88.42 41.48 88.23 41.4 87.93 41.36 87.75 41.36 87.45 41.4 87.27 41.48 87.21 41.62 87.21 41.7"/><polygon class="a" points="88.36 41.02 88.42 41.07 88.48 41.02 88.42 40.98 88.36 41.02"/><polygon class="a" points="87.21 40.47 87.27 40.59 87.39 40.64 87.51 40.64 87.64 40.59 87.68 40.52 87.75 40.35 87.81 40.21 87.93 40.13 88.05 40.09 88.23 40.09 88.36 40.13 88.42 40.17 88.48 40.3 88.48 40.47 88.42 40.59 88.36 40.64 88.23 40.68 88.05 40.68 87.93 40.64 87.81 40.55 87.75 40.43 87.68 40.26 87.64 40.17 87.51 40.13 87.39 40.13 87.27 40.17 87.21 40.3 87.21 40.47"/><polyline class="a" points="38.97 1.98 39.24 1.3 39.49 1.98"/><line class="a" x1="39.06" y1="1.76" x2="39.39" y2="1.76"/><polyline class="a" points="39.55 1.3 39.81 1.98 40.08 1.3"/><line class="a" x1="40.95" y1="1.59" x2="41.54" y2="1.59"/><line class="a" x1="40.95" y1="1.79" x2="41.54" y2="1.79"/><polyline class="a" points="41.87 1.43 41.93 1.39 42.03 1.3 42.03 1.98"/><polygon class="a" points="42.48 1.92 42.45 1.96 42.48 1.98 42.52 1.96 42.48 1.92"/><polyline class="a" points="42.81 1.3 43.16 1.3 42.97 1.56 43.07 1.56 43.13 1.59 43.16 1.63 43.2 1.72 43.2 1.79 43.16 1.88 43.1 1.96 43.01 1.98 42.91 1.98 42.81 1.96 42.77 1.92 42.74 1.86"/><polyline class="a" points="43.52 1.98 43.85 1.3 43.4 1.3"/><line class="a" x1="44.76" y1="1.53" x2="44.76" y2="1.98"/><polyline class="a" points="44.76 1.66 44.85 1.56 44.91 1.53 45.01 1.53 45.09 1.56 45.11 1.66 45.11 1.98"/><polyline class="a" points="45.11 1.66 45.21 1.56 45.28 1.53 45.38 1.53 45.44 1.56 45.48 1.66 45.48 1.98"/><line class="a" x1="46.09" y1="1.53" x2="46.09" y2="2.21"/><polyline class="a" points="59.98 5.04 59.98 4.36 60.27 4.36 60.37 4.38 60.4 4.42 60.43 4.48 60.43 4.55 60.4 4.61 60.37 4.65 60.27 4.67 59.98 4.67"/><line class="a" x1="60.2" y1="4.67" x2="60.43" y2="5.04"/><line class="a" x1="60.65" y1="4.36" x2="60.65" y2="5.04"/><polyline class="a" points="60.92 5.04 60.92 4.36 61.22 4.36 61.31 4.38 61.34 4.42 61.37 4.48 61.37 4.58 61.34 4.65 61.31 4.67 61.22 4.71 60.92 4.71"/><polygon class="a" points="61.77 4.36 61.69 4.38 61.63 4.45 61.59 4.51 61.57 4.61 61.57 4.77 61.59 4.87 61.63 4.94 61.69 5 61.77 5.04 61.89 5.04 61.96 5 62.02 4.94 62.06 4.87 62.08 4.77 62.08 4.61 62.06 4.51 62.02 4.45 61.96 4.38 61.89 4.36 61.77 4.36"/><polyline class="a" points="62.32 5.04 62.32 4.36 62.61 4.36 62.71 4.38 62.73 4.42 62.77 4.48 62.77 4.55 62.73 4.61 62.71 4.65 62.61 4.67 62.32 4.67"/><line class="a" x1="62.54" y1="4.67" x2="62.77" y2="5.04"/><line class="a" x1="63.12" y1="4.36" x2="63.12" y2="5.04"/><line class="a" x1="62.9" y1="4.36" x2="63.36" y2="4.36"/><line class="a" x1="64.24" y1="4.65" x2="64.81" y2="4.65"/><line class="a" x1="64.24" y1="4.84" x2="64.81" y2="4.84"/><polyline class="a" points="65.08 4.51 65.08 4.48 65.11 4.42 65.14 4.38 65.2 4.36 65.34 4.36 65.4 4.38 65.44 4.42 65.46 4.48 65.46 4.55 65.44 4.61 65.36 4.71 65.05 5.04 65.5 5.04"/><polyline class="a" points="65.79 4.48 65.85 4.45 65.95 4.36 65.95 5.04"/><polygon class="a" points="66.4 4.97 66.38 5 66.4 5.04 66.44 5 66.4 4.97"/><polyline class="a" points="66.77 4.48 66.83 4.45 66.93 4.36 66.93 5.04"/><polyline class="a" points="67.42 4.48 67.48 4.45 67.58 4.36 67.58 5.04"/><line class="a" x1="68.68" y1="4.58" x2="68.68" y2="5.04"/><polyline class="a" points="68.68 4.71 68.78 4.61 68.85 4.58 68.95 4.58 69.01 4.61 69.05 4.71 69.05 5.04"/><polyline class="a" points="69.05 4.71 69.14 4.61 69.21 4.58 69.3 4.58 69.36 4.61 69.4 4.71 69.4 5.04"/><line class="a" x1="70.01" y1="4.58" x2="70.01" y2="5.26"/><polyline class="c" points="46.68 2.2 37.08 2.2 39.9 6.02"/><polyline class="b" points="59 5.29 70.82 5.29 71.13 8.19"/><line class="a" x1="31.93" y1="7.07" x2="33.8" y2="8.49"/><polyline class="b" points="44.2 8.68 43.47 8.43 43.01 8.19"/><line class="c" x1="38.87" y1="6" x2="38" y2="8.49"/><line class="b" x1="74.32" y1="10.99" x2="75.95" y2="10.99"/><polyline class="a" points="20.98 3.42 20.98 2.74 21.27 2.74 21.37 2.78 21.39 2.8 21.43 2.86 21.43 2.94 21.39 3 21.37 3.03 21.27 3.06 20.98 3.06"/><line class="a" x1="21.2" y1="3.06" x2="21.43" y2="3.43"/><line class="a" x1="21.66" y1="2.74" x2="21.66" y2="3.43"/><polyline class="a" points="21.92 3.42 21.92 2.74 22.21 2.74 22.31 2.78 22.34 2.8 22.37 2.86 22.37 2.96 22.34 3.03 22.31 3.06 22.21 3.1 21.92 3.1"/><polyline class="a" points="23.32 3.42 23.32 2.74 23.61 2.74 23.71 2.78 23.74 2.8 23.77 2.86 23.77 2.94 23.74 3 23.71 3.03 23.61 3.06 23.32 3.06"/><line class="a" x1="23.55" y1="3.06" x2="23.77" y2="3.43"/><line class="a" x1="24.12" y1="2.74" x2="24.12" y2="3.43"/><line class="a" x1="23.9" y1="2.74" x2="24.36" y2="2.74"/><line class="a" x1="25.24" y1="3.03" x2="25.81" y2="3.03"/><line class="a" x1="25.24" y1="3.23" x2="25.81" y2="3.23"/><polygon class="a" points="26.24 2.74 26.14 2.78 26.08 2.86 26.04 3.03 26.04 3.13 26.08 3.29 26.14 3.39 26.24 3.42 26.3 3.42 26.4 3.39 26.47 3.29 26.5 3.13 26.5 3.03 26.47 2.86 26.4 2.78 26.3 2.74 26.24 2.74"/><polygon class="a" points="26.75 3.35 26.73 3.39 26.75 3.42 26.79 3.39 26.75 3.35"/><polyline class="a" points="27.34 2.74 27.02 3.19 27.51 3.19"/><line class="a" x1="27.34" y1="2.74" x2="27.34" y2="3.43"/><polyline class="a" points="28.09 2.96 28.06 3.06 27.99 3.13 27.89 3.16 27.87 3.16 27.77 3.13 27.7 3.06 27.67 2.96 27.67 2.94 27.7 2.84 27.77 2.78 27.87 2.74 27.89 2.74 27.99 2.78 28.06 2.84 28.09 2.96 28.09 3.13 28.06 3.29 27.99 3.39 27.89 3.42 27.83 3.42 27.73 3.39 27.7 3.33"/><line class="a" x1="29.03" y1="2.96" x2="29.03" y2="3.43"/><polyline class="a" points="29.03 3.1 29.13 3 29.2 2.96 29.3 2.96 29.36 3 29.4 3.1 29.4 3.42"/><polyline class="a" points="29.4 3.1 29.5 3 29.56 2.96 29.66 2.96 29.72 3 29.75 3.1 29.75 3.42"/><line class="a" x1="30.36" y1="2.96" x2="30.36" y2="3.65"/><polyline class="b" points="20.17 3.85 31.83 3.85 34.84 8.49"/><line class="a" x1="3.69" y1="28.9" x2="5.93" y2="28.9"/><polygon class="a" points="8.17 28.9 5.93 30.3 5.93 28.9 8.17 28.9"/><line class="a" x1="7.8" y1="29.12" x2="8.03" y2="28.9"/><line class="a" x1="6.06" y1="30.23" x2="7.38" y2="28.9"/><line class="a" x1="5.93" y1="29.7" x2="6.72" y2="28.9"/><line class="a" x1="5.93" y1="29.04" x2="6.07" y2="28.9"/><line class="a" x1="6.98" y1="29.64" x2="6.24" y2="28.9"/><line class="a" x1="6.59" y1="29.89" x2="5.93" y2="29.23"/><line class="a" x1="6.18" y1="30.14" x2="5.93" y2="29.89"/><line class="a" x1="7.38" y1="29.39" x2="6.89" y2="28.9"/><line class="a" x1="7.79" y1="29.14" x2="7.55" y2="28.9"/><line class="a" x1="3.69" y1="28.9" x2="5.93" y2="30.3"/><line class="a" x1="1.69" y1="27.77" x2="1.99" y2="28.07"/><line class="a" x1="2.39" y1="27.26" x2="2.39" y2="27.96"/><polyline class="a" points="2.39 27.57 2.44 27.41 2.54 27.31 2.65 27.26 2.79 27.26"/><polygon class="a" points="2.99 26.96 3.05 27.01 3.1 26.96 3.05 26.91 2.99 26.96"/><line class="a" x1="3.05" y1="27.31" x2="3.05" y2="27.96"/><polyline class="a" points="3.75 26.91 3.65 26.91 3.55 26.96 3.5 27.12 3.5 27.96"/><line class="a" x1="3.34" y1="27.26" x2="3.7" y2="27.26"/><rect class="a" x="4.07" y="27.28" width="0.07" height="0.07" transform="translate(-18.11 10.9) rotate(-45)"/><rect class="a" x="4.07" y="27.88" width="0.07" height="0.07" transform="translate(-18.54 11.08) rotate(-45)"/><polyline class="a" points="5.72 27.12 5.82 27.06 5.96 26.91 5.96 27.96"/><polygon class="a" points="6.82 26.91 6.67 26.96 6.62 27.06 6.62 27.17 6.67 27.26 6.77 27.31 6.97 27.36 7.13 27.41 7.22 27.51 7.27 27.62 7.27 27.77 7.22 27.86 7.17 27.91 7.03 27.96 6.82 27.96 6.67 27.91 6.62 27.86 6.58 27.77 6.58 27.62 6.62 27.51 6.72 27.41 6.87 27.36 7.08 27.31 7.17 27.26 7.22 27.17 7.22 27.06 7.17 26.96 7.03 26.91 6.82 26.91"/><polygon class="a" points="7.87 26.91 7.72 26.96 7.63 27.12 7.58 27.36 7.58 27.51 7.63 27.77 7.72 27.91 7.87 27.96 7.98 27.96 8.13 27.91 8.23 27.77 8.28 27.51 8.28 27.36 8.23 27.12 8.13 26.96 7.98 26.91 7.87 26.91"/><line class="a" x1="9.7" y1="27.26" x2="9.7" y2="27.96"/><polyline class="a" points="9.7 27.46 9.84 27.31 9.94 27.26 10.09 27.26 10.2 27.31 10.25 27.46 10.25 27.96"/><polyline class="a" points="10.25 27.46 10.39 27.31 10.49 27.26 10.65 27.26 10.75 27.31 10.8 27.46 10.8 27.96"/><polyline class="a" points="12.76 27.41 12.71 27.31 12.56 27.26 12.41 27.26 12.25 27.31 12.2 27.41 12.25 27.51 12.35 27.57 12.61 27.62 12.71 27.67 12.76 27.77 12.76 27.82 12.71 27.91 12.56 27.96 12.41 27.96 12.25 27.91 12.2 27.82"/><rect class="a" x="13.12" y="27.88" width="0.07" height="0.07" transform="translate(-15.88 17.48) rotate(-45)"/><line class="a" x1="13.61" y1="26.91" x2="13.61" y2="27.96"/><rect class="a" x="14.03" y="27.88" width="0.07" height="0.07" transform="translate(-15.62 18.12) rotate(-45)"/><line class="a" x1="14.52" y1="27.26" x2="14.52" y2="27.96"/><polyline class="a" points="14.52 27.46 14.68 27.31 14.77 27.26 14.92 27.26 15.02 27.31 15.08 27.46 15.08 27.96"/><polyline class="a" points="15.08 27.46 15.23 27.31 15.32 27.26 15.48 27.26 15.58 27.31 15.63 27.46 15.63 27.96"/><rect class="a" x="16.05" y="27.88" width="0.07" height="0.07" transform="translate(-15.03 19.55) rotate(-45)"/><line class="d" x1="29.39" y1="7.07" x2="30.36" y2="6.08"/><line class="d" x1="30.36" y1="7.07" x2="29.39" y2="6.08"/><line class="d" x1="78.19" y1="6.5" x2="79.17" y2="5.52"/><line class="d" x1="79.17" y1="6.5" x2="78.19" y2="5.52"/><line class="e" x1="37.3" y1="7.79" x2="37.3" y2="9.19"/><line class="f" x1="33.31" y1="8.98" x2="34.29" y2="8"/><line class="f" x1="34.29" y1="8.98" x2="33.31" y2="8"/><line class="f" x1="40.31" y1="8.98" x2="41.3" y2="8"/><line class="f" x1="41.3" y1="8.98" x2="40.31" y2="8"/><line class="a" x1="59.59" y1="8.68" x2="60.57" y2="7.7"/><line class="a" x1="60.57" y1="8.68" x2="59.59" y2="7.7"/><line class="a" x1="87.45" y1="10.87" x2="87.01" y2="10.49"/><line class="a" x1="87.84" y1="11.2" x2="146.56" y2="12.1"/></svg>