<svg xmlns="http://www.w3.org/2000/svg" viewBox="0 0 128.94 50.12"><defs><style>.a,.b,.c,.d,.e,.f{fill:none;stroke-linecap:round;stroke-linejoin:round;stroke-width:0.21px;}.a{stroke:#000;}.b{stroke:#ffbf00;}.c{stroke:red;}.d{stroke:#00b800;}.e{stroke:blue;}.f{stroke:#00bfff;}</style></defs><title>cad1.6</title><line class="a" x1="23.94" y1="29.06" x2="23.94" y2="5.81"/><line class="b" x1="29.92" y1="5.51" x2="29.96" y2="5.49"/><line class="b" x1="29.73" y1="6.11" x2="30.38" y2="5.47"/><polyline class="b" points="29.54 6.71 29.92 6.32 30.8 5.45"/><line class="b" x1="29.36" y1="7.3" x2="31.23" y2="5.43"/><polyline class="b" points="29.36 7.71 29.92 7.14 31.66 5.42"/><line class="b" x1="29.78" y1="7.7" x2="32.09" y2="5.39"/><line class="b" x1="30.18" y1="7.7" x2="32.52" y2="5.38"/><polyline class="b" points="30.59 7.71 32.71 5.59 32.92 5.37"/><polyline class="b" points="31 7.71 32.71 5.99 33.32 5.39"/><polyline class="b" points="31.4 7.71 32.71 6.4 33.72 5.4"/><line class="b" x1="32.21" y1="7.31" x2="34.11" y2="5.42"/><polyline class="b" points="32.69 7.25 32.71 7.21 34.5 5.43"/><line class="b" x1="33.09" y1="7.25" x2="34.89" y2="5.45"/><line class="b" x1="33.5" y1="7.26" x2="35.26" y2="5.49"/><line class="b" x1="33.89" y1="7.26" x2="35.61" y2="5.55"/><line class="b" x1="34.29" y1="7.28" x2="35.95" y2="5.61"/><line class="b" x1="34.69" y1="7.29" x2="36.3" y2="5.67"/><line class="b" x1="35.1" y1="7.29" x2="36.65" y2="5.73"/><line class="b" x1="35.49" y1="7.3" x2="36.99" y2="5.8"/><line class="b" x1="35.89" y1="7.31" x2="37.35" y2="5.86"/><line class="b" x1="36.3" y1="7.31" x2="37.69" y2="5.92"/><line class="b" x1="36.7" y1="7.33" x2="38.04" y2="5.98"/><line class="b" x1="37.11" y1="7.33" x2="38.39" y2="6.04"/><polyline class="b" points="37.5 7.34 38.39 6.46 38.76 6.08"/><polyline class="b" points="37.9 7.35 38.39 6.86 39.13 6.11"/><polyline class="b" points="38.3 7.35 38.39 7.26 39.5 6.16"/><line class="b" x1="38.71" y1="7.36" x2="39.87" y2="6.2"/><line class="b" x1="39.12" y1="7.36" x2="40.24" y2="6.24"/><line class="b" x1="39.53" y1="7.36" x2="40.62" y2="6.27"/><line class="b" x1="39.93" y1="7.36" x2="40.98" y2="6.31"/><line class="b" x1="40.35" y1="7.36" x2="41.35" y2="6.35"/><line class="b" x1="40.75" y1="7.36" x2="41.73" y2="6.38"/><line class="b" x1="41.17" y1="7.36" x2="42.1" y2="6.42"/><line class="b" x1="41.57" y1="7.36" x2="42.46" y2="6.46"/><line class="b" x1="41.98" y1="7.36" x2="42.84" y2="6.49"/><line class="b" x1="42.39" y1="7.36" x2="43.21" y2="6.53"/><line class="b" x1="42.8" y1="7.36" x2="43.59" y2="6.57"/><line class="b" x1="43.21" y1="7.36" x2="43.96" y2="6.6"/><line class="b" x1="43.62" y1="7.36" x2="44.33" y2="6.64"/><line class="b" x1="44.02" y1="7.36" x2="44.7" y2="6.68"/><line class="b" x1="44.44" y1="7.36" x2="45.07" y2="6.71"/><line class="b" x1="44.84" y1="7.36" x2="45.44" y2="6.75"/><line class="b" x1="45.26" y1="7.36" x2="45.82" y2="6.8"/><line class="b" x1="45.66" y1="7.36" x2="46.19" y2="6.84"/><line class="b" x1="46.06" y1="7.36" x2="46.55" y2="6.87"/><line class="b" x1="46.48" y1="7.36" x2="46.93" y2="6.91"/><line class="b" x1="46.88" y1="7.36" x2="47.3" y2="6.95"/><line class="b" x1="47.3" y1="7.36" x2="47.67" y2="6.98"/><line class="b" x1="47.7" y1="7.36" x2="48.05" y2="7.02"/><line class="b" x1="48.11" y1="7.36" x2="48.41" y2="7.06"/><line class="b" x1="48.52" y1="7.36" x2="48.78" y2="7.09"/><line class="b" x1="48.93" y1="7.36" x2="49.16" y2="7.13"/><line class="b" x1="49.34" y1="7.36" x2="49.53" y2="7.17"/><line class="b" x1="49.75" y1="7.36" x2="49.89" y2="7.2"/><line class="b" x1="50.16" y1="7.36" x2="50.27" y2="7.24"/><line class="b" x1="50.57" y1="7.36" x2="50.64" y2="7.28"/><line class="b" x1="50.97" y1="7.36" x2="51.01" y2="7.31"/><line class="b" x1="51.39" y1="7.36" x2="51.39" y2="7.35"/><polyline class="a" points="22.37 5.67 23.94 5.81 24.35 7.71"/><line class="c" x1="24.44" y1="7.73" x2="24.45" y2="7.71"/><line class="c" x1="24.77" y1="7.8" x2="24.87" y2="7.7"/><line class="c" x1="25.11" y1="7.88" x2="25.27" y2="7.71"/><line class="c" x1="25.44" y1="7.95" x2="25.69" y2="7.7"/><line class="c" x1="25.79" y1="8.02" x2="26.09" y2="7.71"/><line class="c" x1="26.13" y1="8.08" x2="26.5" y2="7.71"/><line class="c" x1="26.5" y1="8.12" x2="26.91" y2="7.71"/><line class="c" x1="26.86" y1="8.17" x2="27.32" y2="7.7"/><line class="c" x1="27.23" y1="8.21" x2="27.73" y2="7.7"/><line class="c" x1="27.61" y1="8.24" x2="28.14" y2="7.71"/><line class="c" x1="28.05" y1="8.21" x2="28.54" y2="7.7"/><line class="c" x1="28.49" y1="8.18" x2="28.96" y2="7.71"/><line class="c" x1="28.93" y1="8.15" x2="29.16" y2="7.9"/><polyline class="c" points="24.35 7.71 26.04 8.07 27.55 8.24 29.1 8.13"/><polyline class="b" points="29.24 7.71 29.92 5.49 32.71 5.37 35.04 5.45"/><polyline class="a" points="16.51 30.99 16.63 30.94 16.8 30.77 16.8 31.97"/><line class="a" x1="16.66" y1="33.68" x2="16.66" y2="37.38"/><line class="a" x1="0.66" y1="29.08" x2="127.86" y2="29.06"/><line class="a" x1="16.66" y1="33.68" x2="127.86" y2="33.68"/><line class="a" x1="16.66" y1="37.38" x2="127.86" y2="37.38"/><line class="a" x1="16.66" y1="42.92" x2="127.86" y2="42.92"/><polyline class="a" points="16.66 48.48 127.86 48.48 127.86 29.06"/><polyline class="a" points="17.38 35.14 17.46 35.09 17.6 34.96 17.6 35.89"/><polygon class="a" points="18.21 35.8 18.16 35.84 18.21 35.89 18.26 35.84 18.21 35.8"/><polyline class="a" points="19.01 34.96 18.57 35.58 19.23 35.58"/><line class="a" x1="19.01" y1="34.96" x2="19.01" y2="35.89"/><polyline class="a" points="16.33 47.75 16.27 47.66 16.08 47.54 17.35 47.54"/><polyline class="a" points="16.5 46.47 16.68 46.52 16.8 46.61 16.86 46.73 16.86 46.77 16.8 46.9 16.68 46.99 16.5 47.02 16.44 47.02 16.27 46.99 16.14 46.9 16.08 46.77 16.08 46.73 16.14 46.61 16.27 46.52 16.5 46.47 16.8 46.47 17.11 46.52 17.29 46.61 17.36 46.73 17.36 46.82 17.29 46.94 17.17 46.99"/><polygon class="a" points="16.08 45.92 16.14 46.06 16.33 46.13 16.62 46.18 16.8 46.18 17.11 46.13 17.29 46.06 17.36 45.92 17.36 45.84 17.29 45.71 17.11 45.63 16.8 45.58 16.62 45.58 16.33 45.63 16.14 45.71 16.08 45.84 16.08 45.92"/><polygon class="a" points="17.23 45.25 17.29 45.29 17.35 45.25 17.29 45.2 17.23 45.25"/><polyline class="a" points="16.39 44.87 16.33 44.87 16.2 44.82 16.14 44.78 16.08 44.7 16.08 44.53 16.14 44.44 16.2 44.39 16.33 44.36 16.44 44.36 16.56 44.39 16.74 44.48 17.36 44.91 17.36 44.31"/><polyline class="a" points="16.33 43.93 16.27 43.84 16.08 43.72 17.35 43.72"/><line class="a" x1="16.66" y1="5.44" x2="16.66" y2="29.06"/><polyline class="a" points="19.9 29.06 19.9 5.56 16.66 5.44"/><line class="a" x1="19.9" y1="5.56" x2="22.37" y2="5.67"/><line class="b" x1="38.39" y1="6.04" x2="35.04" y2="5.45"/><line class="c" x1="51.75" y1="7.39" x2="51.79" y2="7.36"/><line class="c" x1="52.13" y1="7.44" x2="52.21" y2="7.36"/><line class="c" x1="52.5" y1="7.47" x2="52.61" y2="7.36"/><line class="c" x1="52.87" y1="7.51" x2="53.01" y2="7.36"/><line class="c" x1="53.26" y1="7.52" x2="53.43" y2="7.36"/><line class="c" x1="53.65" y1="7.55" x2="53.83" y2="7.36"/><line class="c" x1="54.03" y1="7.57" x2="54.25" y2="7.36"/><line class="c" x1="54.42" y1="7.59" x2="54.65" y2="7.36"/><line class="c" x1="54.8" y1="7.62" x2="55.06" y2="7.36"/><line class="c" x1="55.19" y1="7.63" x2="55.47" y2="7.36"/><line class="c" x1="55.58" y1="7.66" x2="55.88" y2="7.36"/><line class="c" x1="55.96" y1="7.68" x2="56.29" y2="7.36"/><line class="c" x1="56.35" y1="7.7" x2="56.7" y2="7.36"/><line class="c" x1="56.73" y1="7.73" x2="57.1" y2="7.36"/><line class="c" x1="57.13" y1="7.74" x2="57.52" y2="7.36"/><line class="c" x1="57.52" y1="7.77" x2="57.92" y2="7.36"/><line class="c" x1="57.9" y1="7.79" x2="58.34" y2="7.36"/><line class="c" x1="58.29" y1="7.82" x2="58.74" y2="7.36"/><line class="c" x1="58.67" y1="7.84" x2="59.14" y2="7.36"/><line class="c" x1="59.06" y1="7.85" x2="59.56" y2="7.36"/><line class="c" x1="59.45" y1="7.88" x2="59.96" y2="7.36"/><line class="c" x1="59.83" y1="7.9" x2="60.38" y2="7.36"/><line class="c" x1="60.22" y1="7.93" x2="60.78" y2="7.36"/><line class="c" x1="60.61" y1="7.94" x2="61.19" y2="7.36"/><line class="c" x1="60.99" y1="7.96" x2="61.6" y2="7.36"/><line class="c" x1="61.38" y1="7.99" x2="62.01" y2="7.36"/><line class="c" x1="61.76" y1="8.01" x2="62.42" y2="7.36"/><line class="c" x1="62.16" y1="8.04" x2="62.83" y2="7.36"/><line class="c" x1="62.55" y1="8.05" x2="63.24" y2="7.36"/><line class="c" x1="62.93" y1="8.07" x2="63.65" y2="7.36"/><line class="c" x1="63.32" y1="8.1" x2="64.05" y2="7.36"/><line class="c" x1="63.7" y1="8.12" x2="64.47" y2="7.36"/><line class="c" x1="64.09" y1="8.15" x2="64.87" y2="7.36"/><line class="c" x1="64.47" y1="8.17" x2="65.29" y2="7.36"/><line class="c" x1="64.86" y1="8.18" x2="65.69" y2="7.36"/><line class="c" x1="65.25" y1="8.21" x2="66.1" y2="7.36"/><line class="c" x1="65.63" y1="8.23" x2="66.51" y2="7.36"/><line class="c" x1="66.02" y1="8.26" x2="66.92" y2="7.36"/><line class="c" x1="66.4" y1="8.28" x2="67.33" y2="7.36"/><line class="c" x1="66.79" y1="8.3" x2="67.74" y2="7.36"/><line class="c" x1="67.17" y1="8.32" x2="68.14" y2="7.36"/><line class="c" x1="67.56" y1="8.34" x2="68.86" y2="7.06"/><line class="c" x1="67.96" y1="8.37" x2="71.33" y2="4.99"/><line class="c" x1="68.34" y1="8.39" x2="71.9" y2="4.83"/><line class="c" x1="68.73" y1="8.41" x2="72.31" y2="4.83"/><line class="c" x1="69.11" y1="8.44" x2="72.72" y2="4.83"/><line class="c" x1="69.5" y1="8.45" x2="73.12" y2="4.83"/><line class="c" x1="69.89" y1="8.48" x2="73.38" y2="4.98"/><line class="c" x1="70.27" y1="8.5" x2="73.56" y2="5.22"/><line class="c" x1="70.66" y1="8.52" x2="73.73" y2="5.45"/><line class="c" x1="71.04" y1="8.55" x2="73.9" y2="5.69"/><line class="c" x1="71.43" y1="8.57" x2="74.07" y2="5.92"/><line class="c" x1="71.81" y1="8.59" x2="74.26" y2="6.15"/><line class="c" x1="72.2" y1="8.61" x2="74.43" y2="6.38"/><line class="c" x1="72.59" y1="8.64" x2="74.6" y2="6.62"/><line class="c" x1="72.97" y1="8.66" x2="74.77" y2="6.86"/><line class="c" x1="73.36" y1="8.68" x2="74.96" y2="7.09"/><line class="c" x1="73.74" y1="8.7" x2="75.13" y2="7.33"/><line class="c" x1="74.15" y1="8.72" x2="75.3" y2="7.56"/><line class="c" x1="74.54" y1="8.73" x2="75.47" y2="7.79"/><line class="c" x1="74.93" y1="8.75" x2="75.65" y2="8.02"/><line class="c" x1="75.32" y1="8.76" x2="75.82" y2="8.27"/><line class="c" x1="75.73" y1="8.77" x2="76" y2="8.5"/><line class="c" x1="76.12" y1="8.78" x2="76.17" y2="8.73"/><line class="b" x1="51.4" y1="7.36" x2="38.39" y2="6.04"/><polyline class="c" points="52.84 7.5 62.2 8.04 73.79 8.71"/><line class="a" x1="85.75" y1="29.06" x2="85.75" y2="9.12"/><line class="c" x1="76.22" y1="8.79" x2="73.79" y2="8.71"/><line class="a" x1="90.26" y1="9.28" x2="85.75" y2="9.12"/><polyline class="a" points="102.05 29.06 102.05 9.7 90.26 9.28"/><polyline class="a" points="113.71 29.06 113.71 9.88 102.05 9.7"/><polyline class="a" points="124.39 29.06 124.39 10.04 113.71 9.88"/><polyline class="a" points="19.56 31.05 19.56 30.99 19.61 30.88 19.67 30.82 19.78 30.77 20.01 30.77 20.12 30.82 20.18 30.88 20.24 30.99 20.24 31.11 20.18 31.23 20.07 31.4 19.5 31.97 20.29 31.97"/><polyline class="a" points="23.14 30.77 23.77 30.77 23.42 31.23 23.59 31.23 23.72 31.29 23.77 31.34 23.83 31.51 23.83 31.63 23.77 31.8 23.66 31.91 23.48 31.97 23.31 31.97 23.14 31.91 23.08 31.85 23.03 31.74"/><polyline class="a" points="25 30.77 24.44 31.57 25.3 31.57"/><line class="a" x1="25" y1="30.77" x2="25" y2="31.97"/><polyline class="a" points="84.87 30.99 84.98 30.94 85.15 30.77 85.15 31.97"/><polyline class="a" points="85.9 31.05 85.9 30.99 85.94 30.88 86.01 30.82 86.12 30.77 86.35 30.77 86.46 30.82 86.52 30.88 86.58 30.99 86.58 31.11 86.52 31.23 86.41 31.4 85.83 31.97 86.63 31.97"/><polyline class="a" points="101.17 30.99 101.28 30.94 101.45 30.77 101.45 31.97"/><polyline class="a" points="102.26 30.77 102.88 30.77 102.54 31.23 102.71 31.23 102.82 31.29 102.88 31.34 102.94 31.51 102.94 31.63 102.88 31.8 102.77 31.91 102.6 31.97 102.43 31.97 102.26 31.91 102.2 31.85 102.14 31.74"/><polyline class="a" points="112.79 30.99 112.9 30.94 113.07 30.77 113.07 31.97"/><polyline class="a" points="114.33 30.77 113.76 31.57 114.62 31.57"/><line class="a" x1="114.34" y1="30.77" x2="114.34" y2="31.97"/><polyline class="a" points="123.51 30.99 123.62 30.94 123.79 30.77 123.79 31.97"/><polyline class="a" points="125.17 30.77 124.59 30.77 124.53 31.29 124.59 31.23 124.76 31.16 124.93 31.16 125.1 31.23 125.21 31.34 125.28 31.51 125.28 31.63 125.21 31.8 125.1 31.91 124.93 31.97 124.76 31.97 124.59 31.91 124.53 31.85 124.48 31.74"/><line class="a" x1="19.9" y1="33.68" x2="19.9" y2="37.38"/><line class="a" x1="23.94" y1="33.68" x2="23.94" y2="37.38"/><line class="a" x1="24.35" y1="33.68" x2="24.35" y2="37.38"/><line class="a" x1="85.75" y1="33.68" x2="85.75" y2="37.38"/><line class="a" x1="102.05" y1="33.68" x2="102.05" y2="37.38"/><line class="a" x1="113.71" y1="33.68" x2="113.71" y2="37.38"/><line class="a" x1="124.39" y1="33.68" x2="124.39" y2="37.38"/><polyline class="a" points="20.87 35.14 20.95 35.09 21.09 34.96 21.09 35.89"/><polygon class="a" points="21.71 35.8 21.66 35.84 21.71 35.89 21.75 35.84 21.71 35.8"/><polyline class="a" points="22.24 35.89 22.68 34.96 22.05 34.96"/><polygon class="a" points="24.12 35.36 24.07 35.41 24.12 35.45 24.17 35.41 24.12 35.36"/><polyline class="a" points="93.03 35.89 93.47 34.96 92.85 34.96"/><polygon class="a" points="93.81 35.8 93.78 35.84 93.81 35.89 93.86 35.84 93.81 35.8"/><polyline class="a" points="94.3 35.14 94.39 35.09 94.52 34.96 94.52 35.89"/><polyline class="a" points="118.52 34.96 118.08 35.58 118.74 35.58"/><line class="a" x1="118.52" y1="34.96" x2="118.52" y2="35.89"/><polygon class="a" points="119.05 35.8 119.01 35.84 119.05 35.89 119.1 35.84 119.05 35.8"/><polyline class="a" points="119.98 35.09 119.93 35.01 119.81 34.96 119.71 34.96 119.58 35.01 119.49 35.14 119.45 35.36 119.45 35.58 119.49 35.75 119.58 35.84 119.71 35.89 119.76 35.89 119.89 35.84 119.98 35.75 120.03 35.62 120.03 35.58 119.98 35.45 119.89 35.36 119.76 35.31 119.71 35.31 119.58 35.36 119.49 35.45 119.45 35.58"/><polyline class="a" points="19.48 41.09 19.42 41 19.24 40.88 20.51 40.88"/><polygon class="a" points="20.39 40.28 20.45 40.33 20.51 40.28 20.45 40.24 20.39 40.28"/><polyline class="a" points="19.24 39.52 20.1 39.95 20.1 39.31"/><line class="a" x1="19.24" y1="39.52" x2="20.51" y2="39.52"/><polygon class="a" points="23.7 40.07 23.77 40.11 23.83 40.07 23.77 40.02 23.7 40.07"/><polyline class="a" points="22.8 39.61 22.74 39.52 22.55 39.39 23.83 39.39"/><polygon class="a" points="25.55 40.2 25.61 40.24 25.68 40.2 25.61 40.16 25.55 40.2"/><polyline class="a" points="85.39 41.49 85.34 41.49 85.22 41.45 85.16 41.41 85.1 41.32 85.1 41.15 85.16 41.06 85.22 41.03 85.34 40.98 85.45 40.98 85.58 41.03 85.76 41.11 86.37 41.53 86.37 40.94"/><polyline class="a" points="85.52 40.13 85.7 40.18 85.82 40.27 85.88 40.39 85.88 40.43 85.82 40.56 85.7 40.65 85.52 40.69 85.45 40.69 85.28 40.65 85.16 40.56 85.1 40.43 85.1 40.39 85.16 40.27 85.28 40.18 85.52 40.13 85.82 40.13 86.13 40.18 86.31 40.27 86.37 40.39 86.37 40.48 86.31 40.6 86.19 40.65"/><polygon class="a" points="86.25 39.76 86.31 39.79 86.37 39.76 86.31 39.71 86.25 39.76"/><polyline class="a" points="85.52 38.86 85.7 38.91 85.82 39 85.88 39.12 85.88 39.16 85.82 39.29 85.7 39.38 85.52 39.41 85.45 39.41 85.28 39.38 85.16 39.29 85.1 39.16 85.1 39.12 85.16 39 85.28 38.91 85.52 38.86 85.82 38.86 86.13 38.91 86.31 39 86.37 39.12 86.37 39.2 86.31 39.33 86.19 39.38"/><polyline class="a" points="101.4 41.46 101.4 40.98 101.89 41.24 101.89 41.11 101.95 41.03 102 40.98 102.18 40.94 102.31 40.94 102.49 40.98 102.61 41.06 102.67 41.2 102.67 41.32 102.61 41.46 102.55 41.49 102.43 41.53"/><polyline class="a" points="101.58 40.13 101.46 40.18 101.4 40.3 101.4 40.39 101.46 40.51 101.64 40.6 101.95 40.65 102.25 40.65 102.49 40.6 102.61 40.51 102.67 40.39 102.67 40.34 102.61 40.22 102.49 40.13 102.31 40.1 102.25 40.1 102.06 40.13 101.95 40.22 101.89 40.34 101.89 40.39 101.95 40.51 102.06 40.6 102.25 40.65"/><polygon class="a" points="102.55 39.76 102.61 39.79 102.67 39.76 102.61 39.71 102.55 39.76"/><polyline class="a" points="101.83 38.86 102 38.91 102.12 39 102.18 39.12 102.18 39.16 102.12 39.29 102 39.38 101.83 39.41 101.77 39.41 101.58 39.38 101.46 39.29 101.4 39.16 101.4 39.12 101.46 39 101.58 38.91 101.83 38.86 102.12 38.86 102.43 38.91 102.61 39 102.67 39.12 102.67 39.2 102.61 39.33 102.49 39.38"/><polyline class="a" points="113.05 40.5 113.91 40.92 113.91 40.28"/><line class="a" x1="113.05" y1="40.5" x2="114.32" y2="40.5"/><polyline class="a" points="113.36 40.02 113.3 40.02 113.17 39.99 113.11 39.95 113.05 39.87 113.05 39.69 113.11 39.61 113.17 39.56 113.3 39.52 113.42 39.52 113.54 39.56 113.72 39.65 114.32 40.07 114.32 39.47"/><polyline class="a" points="123.75 41.14 124.59 41.55 124.59 40.92"/><line class="a" x1="123.75" y1="41.14" x2="125.01" y2="41.14"/><polyline class="a" points="123.92 40.16 123.8 40.2 123.75 40.33 123.75 40.41 123.8 40.54 123.98 40.62 124.28 40.66 124.59 40.66 124.83 40.62 124.94 40.54 125.01 40.41 125.01 40.37 124.94 40.24 124.83 40.16 124.65 40.11 124.59 40.11 124.41 40.16 124.28 40.24 124.22 40.37 124.22 40.41 124.28 40.54 124.41 40.62 124.59 40.66"/><polygon class="a" points="124.9 39.78 124.94 39.82 125.01 39.78 124.94 39.73 124.9 39.78"/><polyline class="a" points="123.92 38.89 123.8 38.92 123.75 39.06 123.75 39.14 123.8 39.27 123.98 39.35 124.28 39.39 124.59 39.39 124.83 39.35 124.94 39.27 125.01 39.14 125.01 39.09 124.94 38.97 124.83 38.89 124.65 38.84 124.59 38.84 124.41 38.89 124.28 38.97 124.22 39.09 124.22 39.14 124.28 39.27 124.41 39.35 124.59 39.39"/><polyline class="a" points="19.48 47.88 19.42 47.79 19.24 47.66 20.51 47.66"/><polyline class="a" points="19.67 46.61 19.84 46.65 19.96 46.73 20.02 46.85 20.02 46.9 19.96 47.02 19.84 47.11 19.67 47.16 19.61 47.16 19.42 47.11 19.3 47.02 19.24 46.9 19.24 46.85 19.3 46.73 19.42 46.65 19.67 46.61 19.96 46.61 20.27 46.65 20.45 46.73 20.51 46.85 20.51 46.94 20.45 47.07 20.33 47.11"/><polygon class="a" points="19.24 46.06 19.3 46.18 19.48 46.27 19.79 46.3 19.96 46.3 20.27 46.27 20.45 46.18 20.51 46.06 20.51 45.97 20.45 45.84 20.27 45.75 19.96 45.71 19.79 45.71 19.48 45.75 19.3 45.84 19.24 45.97 19.24 46.06"/><polygon class="a" points="20.39 45.37 20.45 45.42 20.51 45.37 20.45 45.34 20.39 45.37"/><polyline class="a" points="19.48 44.91 19.42 44.82 19.24 44.7 20.51 44.7"/><polyline class="a" points="19.42 43.63 19.3 43.68 19.24 43.8 19.24 43.89 19.3 44.01 19.48 44.1 19.79 44.15 20.08 44.15 20.33 44.1 20.45 44.01 20.51 43.89 20.51 43.84 20.45 43.72 20.33 43.63 20.14 43.6 20.08 43.6 19.9 43.63 19.79 43.72 19.73 43.84 19.73 43.89 19.79 44.01 19.9 44.1 20.08 44.15"/><polyline class="a" points="22.85 47.88 22.79 47.79 22.6 47.66 23.88 47.66"/><polyline class="a" points="23.03 46.61 23.22 46.65 23.33 46.73 23.39 46.85 23.39 46.9 23.33 47.02 23.22 47.11 23.03 47.16 22.97 47.16 22.79 47.11 22.66 47.02 22.6 46.9 22.6 46.85 22.66 46.73 22.79 46.65 23.03 46.61 23.33 46.61 23.63 46.65 23.82 46.73 23.88 46.85 23.88 46.94 23.82 47.07 23.69 47.11"/><polygon class="a" points="22.6 46.06 22.66 46.18 22.85 46.27 23.16 46.3 23.33 46.3 23.63 46.27 23.82 46.18 23.88 46.06 23.88 45.97 23.82 45.84 23.63 45.75 23.33 45.71 23.16 45.71 22.85 45.75 22.66 45.84 22.6 45.97 22.6 46.06"/><polygon class="a" points="23.75 45.37 23.82 45.42 23.88 45.37 23.82 45.34 23.75 45.37"/><polygon class="a" points="22.6 44.78 22.66 44.91 22.85 44.99 23.16 45.03 23.33 45.03 23.63 44.99 23.82 44.91 23.88 44.78 23.88 44.7 23.82 44.56 23.63 44.48 23.33 44.44 23.16 44.44 22.85 44.48 22.66 44.56 22.6 44.7 22.6 44.78"/><polyline class="a" points="24.55 47.88 24.49 47.79 24.3 47.66 25.58 47.66"/><polyline class="a" points="24.73 45.75 24.9 45.8 25.03 45.89 25.09 46.01 25.09 46.06 25.03 46.18 24.9 46.27 24.73 46.3 24.67 46.3 24.49 46.27 24.37 46.18 24.3 46.06 24.3 46.01 24.37 45.89 24.49 45.8 24.73 45.75 25.03 45.75 25.33 45.8 25.52 45.89 25.58 46.01 25.58 46.09 25.52 46.22 25.39 46.27"/><polygon class="a" points="25.45 45.37 25.52 45.42 25.58 45.37 25.52 45.34 25.45 45.37"/><polyline class="a" points="24.61 44.99 24.55 44.99 24.43 44.94 24.37 44.91 24.3 44.82 24.3 44.65 24.37 44.56 24.43 44.53 24.55 44.48 24.67 44.48 24.8 44.53 24.97 44.61 25.58 45.03 25.58 44.44"/><polyline class="a" points="85.33 47.88 85.27 47.79 85.09 47.66 86.36 47.66"/><polygon class="a" points="85.09 46.09 85.15 46.22 85.27 46.27 85.39 46.27 85.52 46.22 85.58 46.13 85.64 45.97 85.7 45.84 85.82 45.75 85.94 45.72 86.13 45.72 86.24 45.75 86.3 45.8 86.36 45.92 86.36 46.09 86.3 46.22 86.24 46.27 86.13 46.3 85.94 46.3 85.82 46.27 85.7 46.18 85.64 46.06 85.58 45.89 85.52 45.8 85.39 45.75 85.27 45.75 85.15 45.8 85.09 45.92 85.09 46.09"/><polygon class="a" points="86.24 45.37 86.3 45.42 86.36 45.37 86.3 45.34 86.24 45.37"/><polyline class="a" points="85.27 44.48 85.15 44.53 85.09 44.65 85.09 44.73 85.15 44.87 85.33 44.94 85.64 44.99 85.94 44.99 86.19 44.94 86.3 44.87 86.36 44.73 86.36 44.7 86.3 44.56 86.19 44.48 86.01 44.44 85.94 44.44 85.76 44.48 85.64 44.56 85.58 44.7 85.58 44.73 85.64 44.87 85.76 44.94 85.94 44.99"/><polyline class="a" points="85.39 44.15 85.33 44.15 85.21 44.1 85.15 44.06 85.09 43.98 85.09 43.8 85.15 43.72 85.21 43.68 85.33 43.63 85.45 43.63 85.58 43.68 85.76 43.76 86.36 44.19 86.36 43.6"/><polyline class="a" points="101.64 47.88 101.58 47.79 101.4 47.66 102.67 47.66"/><polygon class="a" points="101.4 46.09 101.46 46.22 101.58 46.27 101.69 46.27 101.82 46.22 101.88 46.13 101.94 45.97 102 45.84 102.12 45.75 102.24 45.72 102.43 45.72 102.55 45.75 102.61 45.8 102.67 45.92 102.67 46.09 102.61 46.22 102.55 46.27 102.43 46.3 102.24 46.3 102.12 46.27 102 46.18 101.94 46.06 101.88 45.89 101.82 45.8 101.69 45.75 101.58 45.75 101.46 45.8 101.4 45.92 101.4 46.09"/><polygon class="a" points="102.55 45.37 102.61 45.42 102.67 45.37 102.61 45.34 102.55 45.37"/><polyline class="a" points="102.67 44.01 101.4 43.6 101.4 44.18"/><polyline class="a" points="113.3 47.86 113.23 47.77 113.05 47.64 114.32 47.64"/><polygon class="a" points="114.2 45.35 114.26 45.4 114.32 45.35 114.26 45.31 114.2 45.35"/><polyline class="a" points="113.36 44.97 113.3 44.97 113.17 44.93 113.11 44.88 113.05 44.8 113.05 44.63 113.11 44.55 113.17 44.5 113.3 44.47 113.42 44.47 113.54 44.5 113.72 44.59 114.32 45.02 114.32 44.42"/><polyline class="a" points="113.48 43.61 113.66 43.66 113.78 43.74 113.83 43.87 113.83 43.91 113.78 44.04 113.66 44.12 113.48 44.16 113.42 44.16 113.23 44.12 113.11 44.04 113.05 43.91 113.05 43.87 113.11 43.74 113.23 43.66 113.48 43.61 113.78 43.61 114.08 43.66 114.26 43.74 114.32 43.87 114.32 43.95 114.26 44.07 114.14 44.12"/><polyline class="a" points="123.98 47.88 123.92 47.79 123.73 47.66 125.01 47.66"/><polygon class="a" points="123.73 46.09 123.8 46.22 123.92 46.27 124.04 46.27 124.16 46.22 124.22 46.13 124.28 45.97 124.35 45.84 124.47 45.75 124.59 45.72 124.76 45.72 124.88 45.75 124.95 45.8 125.01 45.92 125.01 46.09 124.95 46.22 124.88 46.27 124.76 46.3 124.59 46.3 124.47 46.27 124.35 46.18 124.28 46.06 124.22 45.89 124.16 45.8 124.04 45.75 123.92 45.75 123.8 45.8 123.73 45.92 123.73 46.09"/><polygon class="a" points="124.88 45.37 124.94 45.42 125.01 45.37 124.94 45.34 124.88 45.37"/><polyline class="a" points="124.04 44.99 123.98 44.99 123.86 44.94 123.8 44.91 123.73 44.82 123.73 44.65 123.8 44.56 123.86 44.53 123.98 44.48 124.1 44.48 124.22 44.53 124.41 44.61 125.01 45.03 125.01 44.44"/><polyline class="a" points="124.04 44.15 123.98 44.15 123.86 44.1 123.8 44.06 123.73 43.98 123.73 43.8 123.8 43.72 123.86 43.68 123.98 43.63 124.1 43.63 124.41 43.76 125.01 44.19 125.01 43.6"/><polyline class="a" points="31.44 7.71 31.93 7.36 68.5 7.36"/><polyline class="a" points="73.27 4.83 71.52 4.83 68.49 7.36"/><line class="a" x1="73.27" y1="4.83" x2="76.22" y2="8.79"/><line class="a" x1="76.22" y1="8.79" x2="85.75" y2="9.12"/><line class="c" x1="51.4" y1="7.36" x2="52.84" y2="7.5"/><line class="c" x1="29.24" y1="7.7" x2="29.1" y2="8.13"/><polygon class="a" points="1.64 39.73 1.64 38.8 1.95 38.8 2.08 38.85 2.18 38.94 2.22 39.02 2.27 39.16 2.27 39.38 2.22 39.51 2.18 39.59 2.08 39.68 1.95 39.73 1.64 39.73"/><line class="a" x1="2.57" y1="38.8" x2="2.57" y2="39.73"/><line class="a" x1="3.99" y1="38.8" x2="3.99" y2="39.73"/><line class="a" x1="3.69" y1="38.8" x2="4.3" y2="38.8"/><polygon class="a" points="4.57 39.64 4.52 39.68 4.57 39.73 4.62 39.68 4.57 39.64"/><polyline class="a" points="5.9 39.73 5.9 38.8 6.29 38.8 6.43 38.85 6.47 38.89 6.51 38.97 6.51 39.11 6.47 39.19 6.43 39.24 6.29 39.29 5.9 39.29"/><polyline class="a" points="6.83 39.73 6.83 38.8 7.22 38.8 7.36 38.85 7.41 38.89 7.44 38.97 7.44 39.07 7.41 39.16 7.36 39.19 7.22 39.24 6.83 39.24"/><line class="a" x1="7.14" y1="39.24" x2="7.44" y2="39.73"/><polyline class="a" points="9.66 39.73 9.66 38.8 10.06 38.8 10.2 38.85 10.23 38.89 10.28 38.97 10.28 39.07 10.23 39.16 10.2 39.19 10.06 39.24 9.66 39.24"/><line class="a" x1="9.96" y1="39.24" x2="10.28" y2="39.73"/><polyline class="a" points="10.59 39.73 10.59 38.8 11.16 38.8"/><line class="a" x1="10.59" y1="39.24" x2="10.94" y2="39.24"/><line class="a" x1="10.59" y1="39.73" x2="11.16" y2="39.73"/><polyline class="a" points="12.01 38.94 11.92 38.85 11.79 38.8 11.6 38.8 11.48 38.85 11.38 38.94 11.38 39.02 11.43 39.11 11.48 39.16 11.57 39.19 11.82 39.29 11.92 39.33 11.96 39.38 12.01 39.46 12.01 39.6 11.92 39.68 11.79 39.73 11.6 39.73 11.48 39.68 11.38 39.6"/><polyline class="a" points="12.89 38.94 12.8 38.85 12.67 38.8 12.5 38.8 12.36 38.85 12.28 38.94 12.28 39.02 12.31 39.11 12.36 39.16 12.45 39.19 12.72 39.29 12.8 39.33 12.85 39.38 12.89 39.46 12.89 39.6 12.8 39.68 12.67 39.73 12.5 39.73 12.36 39.68 12.28 39.6"/><line class="a" x1="13.21" y1="38.8" x2="13.21" y2="39.73"/><polyline class="a" points="13.43 38.8 13.78 39.73 14.14 38.8"/><polyline class="a" points="14.22 39.73 14.58 38.8 14.93 39.73"/><line class="a" x1="14.36" y1="39.42" x2="14.8" y2="39.42"/><line class="a" x1="2.27" y1="40.83" x2="2.27" y2="41.46"/><polyline class="a" points="2.27 41.02 2.4 40.88 2.49 40.83 2.62 40.83 2.71 40.88 2.76 41.02 2.76 41.46"/><polyline class="a" points="2.75 41.02 2.88 40.88 2.98 40.83 3.11 40.83 3.2 40.88 3.23 41.02 3.23 41.46"/><polygon class="a" points="1.64 34.88 1.64 33.95 1.95 33.95 2.08 34 2.18 34.09 2.22 34.17 2.27 34.31 2.27 34.53 2.22 34.66 2.18 34.75 2.08 34.85 1.95 34.88 1.64 34.88"/><line class="a" x1="2.57" y1="33.95" x2="2.57" y2="34.88"/><line class="a" x1="3.99" y1="33.95" x2="3.99" y2="34.88"/><line class="a" x1="3.69" y1="33.95" x2="4.3" y2="33.95"/><polygon class="a" points="4.57 34.8 4.52 34.85 4.57 34.88 4.62 34.85 4.57 34.8"/><polyline class="a" points="5.9 34.88 5.9 33.95 6.29 33.95 6.43 34 6.47 34.04 6.51 34.14 6.51 34.26 6.47 34.36 6.43 34.39 6.29 34.44 5.9 34.44"/><polyline class="a" points="6.7 34.88 7.05 33.95 7.41 34.88"/><line class="a" x1="6.83" y1="34.58" x2="7.27" y2="34.58"/><polyline class="a" points="7.63 34.88 7.63 33.95 8.02 33.95 8.15 34 8.2 34.04 8.24 34.14 8.24 34.22 8.2 34.31 8.15 34.36 8.02 34.39 7.63 34.39"/><line class="a" x1="7.93" y1="34.39" x2="8.24" y2="34.88"/><polyline class="a" points="8.51 34.88 9.13 33.95 8.51 33.95"/><line class="a" x1="8.51" y1="34.88" x2="9.13" y2="34.88"/><line class="a" x1="9.44" y1="33.95" x2="9.44" y2="34.88"/><polyline class="a" points="9.66 34.88 10.01 33.95 10.37 34.88"/><line class="a" x1="9.79" y1="34.58" x2="10.23" y2="34.58"/><polyline class="a" points="10.59 33.95 10.59 34.88 11.13 34.88"/><polyline class="a" points="11.35 34.88 11.35 33.95 11.92 33.95"/><line class="a" x1="11.35" y1="34.39" x2="11.7" y2="34.39"/><line class="a" x1="11.35" y1="34.88" x2="11.92" y2="34.88"/><line class="a" x1="2.27" y1="36" x2="2.27" y2="36.61"/><polyline class="a" points="2.27 36.17 2.4 36.03 2.49 36 2.62 36 2.71 36.03 2.75 36.17 2.75 36.61"/><polyline class="a" points="2.75 36.17 2.88 36.03 2.98 36 3.11 36 3.2 36.03 3.23 36.17 3.23 36.61"/><polyline class="a" points="1.64 31 2 31.93 2.35 31"/><polyline class="a" points="2.57 31.93 2.57 31 3.15 31"/><line class="a" x1="2.57" y1="31.45" x2="2.93" y2="31.45"/><line class="a" x1="2.57" y1="31.93" x2="3.15" y2="31.93"/><polyline class="a" points="3.42 31.93 3.42 31 3.81 31 3.94 31.04 3.99 31.09 4.04 31.18 4.04 31.26 3.99 31.36 3.94 31.4 3.81 31.45 3.42 31.45"/><line class="a" x1="3.72" y1="31.45" x2="4.04" y2="31.94"/><line class="a" x1="4.52" y1="31" x2="4.52" y2="31.93"/><line class="a" x1="4.21" y1="31" x2="4.84" y2="31"/><line class="a" x1="5.06" y1="31" x2="5.06" y2="31.93"/><line class="a" x1="6.34" y1="31" x2="6.34" y2="31.93"/><line class="a" x1="2.05" y1="45.13" x2="2.3" y2="45.4"/><polyline class="a" points="2.66 44.38 2.66 45.04 2.71 45.17 2.79 45.26 2.93 45.31 3.01 45.31 3.15 45.26 3.23 45.17 3.28 45.04 3.28 44.38"/><line class="a" x1="4.79" y1="44.38" x2="4.79" y2="45.31"/><line class="a" x1="4.48" y1="44.38" x2="5.09" y2="44.38"/><polyline class="a" points="5.19 45.31 5.55 44.38 5.9 45.31"/><line class="a" x1="5.31" y1="45" x2="5.77" y2="45"/><line class="a" x1="7.22" y1="44.38" x2="7.22" y2="45.31"/><line class="a" x1="6.92" y1="44.38" x2="7.53" y2="44.38"/><polyline class="a" points="7.76 45.31 7.76 44.38 8.34 44.38"/><line class="a" x1="7.76" y1="44.82" x2="8.1" y2="44.82"/><line class="a" x1="7.76" y1="45.31" x2="8.34" y2="45.31"/><polyline class="a" points="8.59 45.31 8.59 44.38 9 44.38 9.13 44.42 9.17 44.47 9.22 44.55 9.22 44.65 9.17 44.73 9.13 44.77 9 44.82 8.59 44.82"/><line class="a" x1="8.91" y1="44.82" x2="9.22" y2="45.31"/><polyline class="a" points="9.52 45.31 9.52 44.38 9.93 44.38 10.06 44.42 10.1 44.47 10.15 44.55 10.15 44.65 10.1 44.73 10.06 44.77 9.93 44.82 9.52 44.82"/><line class="a" x1="9.84" y1="44.82" x2="10.15" y2="45.31"/><polyline class="a" points="10.45 45.31 10.45 44.38 11.03 44.38"/><line class="a" x1="10.45" y1="44.82" x2="10.81" y2="44.82"/><line class="a" x1="10.45" y1="45.31" x2="11.03" y2="45.31"/><polyline class="a" points="11.3 45.31 11.3 44.38 11.92 45.31 11.92 44.38"/><line class="a" x1="2.27" y1="46.41" x2="2.27" y2="47.04"/><polyline class="a" points="2.27 46.59 2.4 46.46 2.49 46.41 2.62 46.41 2.71 46.46 2.76 46.59 2.76 47.04"/><polyline class="a" points="2.75 46.59 2.88 46.46 2.98 46.41 3.11 46.41 3.2 46.46 3.23 46.59 3.23 47.04"/><polyline class="a" points="4.97 46.55 4.92 46.46 4.79 46.41 4.65 46.41 4.52 46.46 4.48 46.55 4.52 46.63 4.62 46.68 4.83 46.73 4.92 46.77 4.97 46.86 4.97 46.9 4.92 46.99 4.79 47.04 4.65 47.04 4.52 46.99 4.48 46.9"/><polygon class="a" points="5.31 46.95 5.28 46.99 5.31 47.04 5.36 46.99 5.31 46.95"/><line class="a" x1="5.72" y1="46.11" x2="5.72" y2="47.04"/><polygon class="a" points="6.12 46.95 6.07 46.99 6.12 47.04 6.16 46.99 6.12 46.95"/><line class="a" x1="6.51" y1="46.41" x2="6.51" y2="47.04"/><polyline class="a" points="6.51 46.59 6.65 46.46 6.73 46.41 6.87 46.41 6.95 46.46 7 46.59 7 47.04"/><polyline class="a" points="7 46.59 7.14 46.46 7.22 46.41 7.36 46.41 7.44 46.46 7.49 46.59 7.49 47.04"/><polygon class="a" points="7.88 46.95 7.85 46.99 7.88 47.04 7.93 46.99 7.88 46.95"/><line class="a" x1="31.44" y1="7.7" x2="31.44" y2="29.06"/><line class="a" x1="31.93" y1="7.36" x2="31.93" y2="29.06"/><line class="a" x1="51.58" y1="7.36" x2="51.58" y2="29.07"/><line class="a" x1="68.49" y1="7.36" x2="68.49" y2="29.07"/><line class="a" x1="71.52" y1="4.83" x2="71.53" y2="29.07"/><line class="a" x1="73.27" y1="4.83" x2="73.27" y2="29.06"/><line class="a" x1="76.22" y1="8.79" x2="76.22" y2="29.06"/><polyline class="a" points="31.26 30.77 30.69 30.77 30.63 31.29 30.69 31.23 30.86 31.16 31.04 31.16 31.21 31.23 31.32 31.34 31.38 31.51 31.38 31.63 31.32 31.8 31.21 31.91 31.04 31.97 30.86 31.97 30.69 31.91 30.63 31.85 30.57 31.74"/><polyline class="a" points="32.74 30.94 32.69 30.82 32.52 30.77 32.39 30.77 32.22 30.82 32.11 30.99 32.05 31.29 32.05 31.57 32.11 31.8 32.22 31.91 32.39 31.97 32.46 31.97 32.63 31.91 32.74 31.8 32.8 31.63 32.8 31.57 32.74 31.4 32.63 31.29 32.46 31.23 32.39 31.23 32.22 31.29 32.11 31.4 32.05 31.57"/><polyline class="a" points="51.41 31.97 51.99 30.77 51.19 30.77"/><polygon class="a" points="68.38 30.77 68.21 30.82 68.15 30.94 68.15 31.05 68.21 31.16 68.32 31.23 68.56 31.29 68.73 31.34 68.84 31.46 68.9 31.57 68.9 31.74 68.84 31.85 68.79 31.91 68.62 31.97 68.38 31.97 68.21 31.91 68.15 31.85 68.1 31.74 68.1 31.57 68.15 31.46 68.27 31.34 68.44 31.29 68.67 31.23 68.79 31.16 68.84 31.05 68.84 30.94 68.79 30.82 68.62 30.77 68.38 30.77"/><polyline class="a" points="71.9 31.16 71.85 31.34 71.72 31.46 71.55 31.51 71.5 31.51 71.33 31.46 71.21 31.34 71.16 31.16 71.16 31.11 71.21 30.94 71.33 30.82 71.5 30.77 71.55 30.77 71.72 30.82 71.85 30.94 71.9 31.16 71.9 31.46 71.85 31.74 71.72 31.91 71.55 31.97 71.44 31.97 71.27 31.91 71.21 31.8"/><polyline class="a" points="72.51 30.99 72.62 30.94 72.79 30.77 72.79 31.97"/><polygon class="a" points="73.82 30.77 73.65 30.82 73.54 30.99 73.47 31.29 73.47 31.46 73.54 31.74 73.65 31.91 73.82 31.97 73.93 31.97 74.1 31.91 74.21 31.74 74.27 31.46 74.27 31.29 74.21 30.99 74.1 30.82 73.93 30.77 73.82 30.77"/><polyline class="a" points="75.51 30.99 75.62 30.94 75.79 30.77 75.79 31.97"/><polyline class="a" points="76.64 30.99 76.77 30.94 76.94 30.77 76.94 31.97"/><line class="a" x1="31.44" y1="33.68" x2="31.44" y2="37.38"/><line class="a" x1="31.93" y1="33.68" x2="31.93" y2="37.38"/><line class="a" x1="51.58" y1="33.68" x2="51.58" y2="37.38"/><line class="a" x1="68.49" y1="33.68" x2="68.49" y2="37.38"/><line class="a" x1="71.53" y1="33.68" x2="71.53" y2="37.38"/><line class="a" x1="73.27" y1="33.68" x2="73.27" y2="37.38"/><line class="a" x1="76.22" y1="33.68" x2="76.22" y2="37.38"/><polyline class="a" points="27.02 34.96 27.5 34.96 27.24 35.31 27.36 35.31 27.46 35.36 27.5 35.4 27.55 35.53 27.55 35.62 27.5 35.75 27.41 35.84 27.28 35.89 27.14 35.89 27.02 35.84 26.97 35.8 26.92 35.72"/><polygon class="a" points="27.9 35.8 27.85 35.84 27.9 35.89 27.94 35.84 27.9 35.8"/><polyline class="a" points="28.38 35.14 28.47 35.09 28.6 34.96 28.6 35.89"/><polygon class="a" points="31.67 35.39 31.62 35.42 31.67 35.47 31.72 35.42 31.67 35.39"/><polygon class="a" points="41.02 34.96 40.89 35.01 40.85 35.09 40.85 35.18 40.89 35.27 40.98 35.31 41.16 35.36 41.29 35.4 41.38 35.49 41.42 35.58 41.42 35.72 41.38 35.8 41.33 35.84 41.2 35.89 41.02 35.89 40.89 35.84 40.85 35.8 40.8 35.72 40.8 35.58 40.85 35.49 40.94 35.4 41.07 35.36 41.24 35.31 41.33 35.27 41.38 35.18 41.38 35.09 41.33 35.01 41.2 34.96 41.02 34.96"/><polygon class="a" points="41.77 35.8 41.73 35.84 41.77 35.89 41.82 35.84 41.77 35.8"/><polyline class="a" points="42.65 34.96 42.21 34.96 42.17 35.36 42.21 35.31 42.34 35.27 42.48 35.27 42.61 35.31 42.7 35.4 42.75 35.53 42.75 35.62 42.7 35.75 42.61 35.84 42.48 35.89 42.34 35.89 42.21 35.84 42.17 35.8 42.12 35.72"/><polyline class="a" points="59.21 35.89 59.65 34.96 59.03 34.96"/><polygon class="a" points="60 35.8 59.96 35.84 60 35.89 60.05 35.84 60 35.8"/><polyline class="a" points="60.44 34.96 60.93 34.96 60.66 35.31 60.8 35.31 60.88 35.36 60.93 35.4 60.97 35.53 60.97 35.62 60.93 35.75 60.85 35.84 60.71 35.89 60.58 35.89 60.44 35.84 60.41 35.8 60.36 35.72"/><polyline class="a" points="69.14 35.14 69.24 35.09 69.36 34.96 69.36 35.89"/><polygon class="a" points="69.99 35.8 69.94 35.84 69.99 35.89 70.02 35.84 69.99 35.8"/><polyline class="a" points="70.43 34.96 70.91 34.96 70.65 35.31 70.77 35.31 70.87 35.36 70.91 35.4 70.95 35.53 70.95 35.62 70.91 35.75 70.82 35.84 70.69 35.89 70.55 35.89 70.43 35.84 70.38 35.8 70.33 35.72"/><polygon class="a" points="71.97 36.24 72.01 36.36 72.14 36.46 72.36 36.5 72.5 36.5 72.72 36.46 72.85 36.36 72.89 36.24 72.89 36.14 72.85 36.02 72.72 35.92 72.5 35.89 72.36 35.89 72.14 35.92 72.01 36.02 71.97 36.14 71.97 36.24"/><polygon class="a" points="72.8 35.53 72.85 35.58 72.89 35.53 72.85 35.48 72.8 35.53"/><polygon class="a" points="71.97 34.96 72.01 35.09 72.09 35.14 72.19 35.14 72.28 35.09 72.31 35.01 72.36 34.82 72.41 34.7 72.5 34.6 72.58 34.56 72.72 34.56 72.8 34.6 72.85 34.65 72.89 34.79 72.89 34.96 72.85 35.09 72.8 35.14 72.72 35.18 72.58 35.18 72.5 35.14 72.41 35.04 72.36 34.92 72.31 34.74 72.28 34.65 72.19 34.6 72.09 34.6 72.01 34.65 71.97 34.79 71.97 34.96"/><polyline class="a" points="73.71 35.14 73.81 35.09 73.93 34.96 73.93 35.89"/><polygon class="a" points="74.55 35.8 74.5 35.84 74.55 35.89 74.59 35.84 74.55 35.8"/><polyline class="a" points="74.99 34.96 75.47 34.96 75.21 35.31 75.35 35.31 75.43 35.36 75.47 35.4 75.52 35.53 75.52 35.62 75.47 35.75 75.38 35.84 75.25 35.89 75.13 35.89 74.99 35.84 74.94 35.8 74.91 35.72"/><polyline class="a" points="80.56 34.96 80.12 35.58 80.78 35.58"/><line class="a" x1="80.56" y1="34.96" x2="80.56" y2="35.89"/><polygon class="a" points="81.09 35.8 81.04 35.84 81.09 35.89 81.12 35.84 81.09 35.8"/><polyline class="a" points="81.56 35.14 81.66 35.09 81.78 34.96 81.78 35.89"/><polyline class="a" points="30.33 40.62 30.2 40.66 30.14 40.79 30.14 40.88 30.2 41 30.39 41.09 30.69 41.14 30.99 41.14 31.23 41.09 31.35 41 31.41 40.88 31.41 40.83 31.35 40.71 31.23 40.62 31.05 40.57 30.99 40.57 30.82 40.62 30.69 40.71 30.63 40.83 30.63 40.88 30.69 41 30.82 41.09 30.99 41.14"/><polygon class="a" points="31.29 40.24 31.35 40.28 31.41 40.24 31.35 40.2 31.29 40.24"/><polyline class="a" points="30.14 39.47 30.99 39.9 30.99 39.27"/><line class="a" x1="30.14" y1="39.47" x2="31.42" y2="39.47"/><polyline class="a" points="32.13 40.6 32 40.65 31.94 40.77 31.94 40.86 32 40.98 32.19 41.06 32.48 41.11 32.79 41.11 33.03 41.06 33.15 40.98 33.21 40.86 33.21 40.82 33.15 40.69 33.03 40.6 32.85 40.56 32.79 40.56 32.6 40.6 32.48 40.69 32.42 40.82 32.42 40.86 32.48 40.98 32.6 41.06 32.79 41.11"/><polygon class="a" points="33.09 40.22 33.15 40.27 33.21 40.22 33.15 40.18 33.09 40.22"/><polyline class="a" points="32.13 39.33 32 39.38 31.94 39.5 31.94 39.58 32 39.7 32.19 39.79 32.48 39.84 32.79 39.84 33.03 39.79 33.15 39.7 33.21 39.58 33.21 39.55 33.15 39.41 33.03 39.33 32.85 39.29 32.79 39.29 32.6 39.33 32.48 39.41 32.42 39.55 32.42 39.58 32.48 39.7 32.6 39.79 32.79 39.84"/><polyline class="a" points="51.2 41.37 51.14 41.28 50.96 41.15 52.23 41.15"/><polyline class="a" points="50.96 40.13 50.96 40.56 51.51 40.6 51.45 40.56 51.39 40.43 51.39 40.3 51.45 40.18 51.57 40.1 51.74 40.05 51.86 40.05 52.05 40.1 52.17 40.18 52.23 40.3 52.23 40.43 52.17 40.56 52.11 40.6 51.99 40.65"/><polygon class="a" points="52.11 39.71 52.17 39.76 52.23 39.71 52.17 39.67 52.11 39.71"/><polyline class="a" points="51.2 39.24 51.14 39.16 50.96 39.03 52.23 39.03"/><polyline class="a" points="68.18 41.53 68.11 41.53 67.99 41.49 67.93 41.46 67.87 41.37 67.87 41.2 67.93 41.11 67.99 41.06 68.11 41.03 68.24 41.03 68.36 41.06 68.54 41.15 69.14 41.58 69.14 40.98"/><polyline class="a" points="68.18 40.69 68.11 40.69 67.99 40.65 67.93 40.6 67.87 40.51 67.87 40.34 67.93 40.27 67.99 40.22 68.11 40.18 68.24 40.18 68.36 40.22 68.54 40.31 69.14 40.73 69.14 40.13"/><polygon class="a" points="69.02 39.79 69.08 39.84 69.14 39.79 69.08 39.75 69.02 39.79"/><polyline class="a" points="67.87 39.03 68.71 39.46 68.71 38.82"/><line class="a" x1="67.87" y1="39.03" x2="69.14" y2="39.03"/><polyline class="a" points="71.2 41.52 71.14 41.52 71.03 41.47 70.97 41.43 70.91 41.35 70.91 41.17 70.97 41.09 71.03 41.05 71.14 41 71.26 41 71.38 41.05 71.57 41.14 72.18 41.55 72.18 40.97"/><polyline class="a" points="70.91 40.62 70.91 40.16 71.38 40.41 71.38 40.28 71.44 40.2 71.5 40.16 71.69 40.11 71.81 40.11 71.99 40.16 72.12 40.24 72.18 40.37 72.18 40.5 72.12 40.62 72.06 40.66 71.93 40.71"/><polygon class="a" points="72.06 39.78 72.12 39.82 72.18 39.78 72.12 39.73 72.06 39.78"/><polyline class="a" points="72.18 39.27 70.91 38.84 70.91 39.44"/><polyline class="a" points="72.95 41.52 72.89 41.52 72.77 41.47 72.7 41.43 72.64 41.35 72.64 41.17 72.7 41.09 72.77 41.05 72.89 41 73.01 41 73.13 41.05 73.32 41.14 73.92 41.55 73.92 40.97"/><polyline class="a" points="72.64 40.28 73.5 40.71 73.5 40.07"/><line class="a" x1="72.64" y1="40.28" x2="73.92" y2="40.28"/><polygon class="a" points="73.79 39.78 73.85 39.82 73.92 39.78 73.85 39.73 73.79 39.78"/><polyline class="a" points="72.64 38.92 72.64 39.35 73.19 39.39 73.13 39.35 73.07 39.23 73.07 39.09 73.13 38.97 73.25 38.88 73.44 38.84 73.56 38.84 73.73 38.88 73.86 38.97 73.92 39.09 73.92 39.23 73.86 39.35 73.79 39.39 73.67 39.44"/><polyline class="a" points="75.9 41.52 75.84 41.52 75.71 41.47 75.65 41.43 75.59 41.35 75.59 41.17 75.65 41.09 75.71 41.05 75.84 41 75.96 41 76.08 41.05 76.27 41.14 76.86 41.55 76.86 40.97"/><polyline class="a" points="75.59 40.2 75.59 40.62 76.14 40.66 76.08 40.62 76.02 40.5 76.02 40.37 76.08 40.24 76.2 40.16 76.38 40.11 76.5 40.11 76.68 40.16 76.8 40.24 76.86 40.37 76.86 40.5 76.8 40.62 76.74 40.66 76.62 40.71"/><polygon class="a" points="76.74 39.78 76.8 39.82 76.86 39.78 76.8 39.73 76.74 39.78"/><polyline class="a" points="30.45 47.88 30.39 47.79 30.2 47.66 31.48 47.66"/><polyline class="a" points="30.63 45.75 30.8 45.8 30.93 45.89 30.99 46.01 30.99 46.06 30.93 46.18 30.8 46.27 30.63 46.3 30.57 46.3 30.39 46.27 30.27 46.18 30.2 46.06 30.2 46.01 30.27 45.89 30.39 45.8 30.63 45.75 30.93 45.75 31.23 45.8 31.41 45.89 31.48 46.01 31.48 46.09 31.41 46.22 31.29 46.27"/><polygon class="a" points="31.35 45.37 31.41 45.42 31.48 45.37 31.41 45.33 31.35 45.37"/><polyline class="a" points="30.51 44.99 30.45 44.99 30.32 44.94 30.26 44.91 30.2 44.82 30.2 44.65 30.26 44.56 30.32 44.53 30.45 44.48 30.57 44.48 30.68 44.53 30.86 44.61 31.48 45.03 31.48 44.44"/><polyline class="a" points="32.2 47.88 32.14 47.79 31.97 47.66 33.23 47.66"/><polyline class="a" points="32.38 45.75 32.57 45.8 32.69 45.89 32.75 46.01 32.75 46.06 32.69 46.18 32.57 46.27 32.38 46.3 32.32 46.3 32.14 46.27 32.03 46.18 31.97 46.06 31.97 46.01 32.03 45.89 32.14 45.8 32.38 45.75 32.69 45.75 32.99 45.8 33.18 45.89 33.23 46.01 33.23 46.09 33.18 46.22 33.05 46.27"/><polygon class="a" points="33.12 45.37 33.18 45.42 33.23 45.37 33.18 45.33 33.12 45.37"/><polyline class="a" points="31.97 44.94 31.97 44.48 32.44 44.73 32.44 44.61 32.5 44.53 32.57 44.48 32.75 44.44 32.87 44.44 33.05 44.48 33.18 44.56 33.23 44.7 33.23 44.82 33.18 44.94 33.12 44.99 32.99 45.03"/><polygon class="a" points="31.97 43.98 32.03 44.1 32.14 44.15 32.26 44.15 32.38 44.1 32.44 44.01 32.5 43.84 32.57 43.72 32.69 43.63 32.81 43.6 32.99 43.6 33.12 43.63 33.18 43.68 33.23 43.8 33.23 43.98 33.18 44.1 33.12 44.15 32.99 44.18 32.81 44.18 32.69 44.15 32.57 44.06 32.5 43.93 32.44 43.76 32.38 43.68 32.26 43.63 32.14 43.63 32.03 43.68 31.97 43.8 31.97 43.98"/><polyline class="a" points="51.19 47.88 51.13 47.79 50.95 47.66 52.22 47.66"/><polyline class="a" points="51.37 45.75 51.56 45.8 51.68 45.89 51.74 46.01 51.74 46.06 51.68 46.18 51.56 46.27 51.37 46.3 51.31 46.3 51.13 46.27 51.01 46.18 50.95 46.06 50.95 46.01 51.01 45.89 51.13 45.8 51.37 45.75 51.68 45.75 51.97 45.8 52.16 45.89 52.22 46.01 52.22 46.09 52.16 46.22 52.03 46.27"/><polygon class="a" points="52.1 45.37 52.16 45.42 52.22 45.37 52.16 45.33 52.1 45.37"/><polyline class="a" points="50.95 44.94 50.95 44.48 51.44 44.73 51.44 44.61 51.5 44.53 51.56 44.48 51.74 44.44 51.85 44.44 52.03 44.48 52.16 44.56 52.22 44.7 52.22 44.82 52.16 44.94 52.1 44.99 51.97 45.03"/><polygon class="a" points="50.95 43.98 51.01 44.1 51.13 44.15 51.25 44.15 51.37 44.1 51.44 44.01 51.5 43.84 51.56 43.72 51.68 43.63 51.79 43.6 51.97 43.6 52.1 43.63 52.16 43.68 52.22 43.8 52.22 43.98 52.16 44.1 52.1 44.15 51.97 44.18 51.79 44.18 51.68 44.15 51.56 44.06 51.5 43.93 51.44 43.76 51.37 43.68 51.25 43.63 51.13 43.63 51.01 43.68 50.95 43.8 50.95 43.98"/><polyline class="a" points="68.1 47.88 68.04 47.79 67.86 47.66 69.13 47.66"/><polyline class="a" points="68.29 45.75 68.47 45.8 68.59 45.89 68.65 46.01 68.65 46.06 68.59 46.18 68.47 46.27 68.29 46.3 68.22 46.3 68.04 46.27 67.92 46.18 67.86 46.06 67.86 46.01 67.92 45.89 68.04 45.8 68.29 45.75 68.59 45.75 68.89 45.8 69.07 45.89 69.13 46.01 69.13 46.09 69.07 46.22 68.95 46.27"/><polygon class="a" points="69.01 45.37 69.07 45.42 69.13 45.37 69.07 45.33 69.01 45.37"/><polyline class="a" points="67.86 44.94 67.86 44.48 68.35 44.73 68.35 44.61 68.41 44.53 68.47 44.48 68.65 44.44 68.78 44.44 68.95 44.48 69.07 44.56 69.13 44.7 69.13 44.82 69.07 44.94 69.01 44.99 68.89 45.03"/><polygon class="a" points="67.86 43.98 67.92 44.1 68.04 44.15 68.16 44.15 68.29 44.1 68.35 44.01 68.41 43.84 68.47 43.72 68.59 43.63 68.72 43.6 68.89 43.6 69.01 43.63 69.07 43.68 69.13 43.8 69.13 43.98 69.07 44.1 69.01 44.15 68.89 44.18 68.72 44.18 68.59 44.15 68.47 44.06 68.41 43.93 68.35 43.76 68.29 43.68 68.16 43.63 68.04 43.63 67.92 43.68 67.86 43.8 67.86 43.98"/><polyline class="a" points="71.14 47.88 71.08 47.79 70.89 47.66 72.17 47.66"/><polyline class="a" points="71.31 46.61 71.49 46.64 71.61 46.73 71.68 46.85 71.68 46.9 71.61 47.02 71.49 47.11 71.31 47.16 71.26 47.16 71.08 47.11 70.95 47.02 70.89 46.9 70.89 46.85 70.95 46.73 71.08 46.64 71.31 46.61 71.61 46.61 71.92 46.64 72.1 46.73 72.17 46.85 72.17 46.94 72.1 47.07 71.98 47.11"/><polygon class="a" points="70.89 46.06 70.95 46.18 71.14 46.27 71.43 46.3 71.61 46.3 71.92 46.27 72.11 46.18 72.17 46.06 72.17 45.97 72.11 45.84 71.92 45.75 71.61 45.71 71.43 45.71 71.14 45.75 70.95 45.84 70.89 45.97 70.89 46.06"/><polygon class="a" points="72.04 45.37 72.1 45.42 72.17 45.37 72.1 45.33 72.04 45.37"/><polyline class="a" points="70.89 44.61 71.74 45.03 71.74 44.39"/><line class="a" x1="70.89" y1="44.61" x2="72.17" y2="44.61"/><polyline class="a" points="72.88 47.88 72.81 47.79 72.63 47.66 73.9 47.66"/><polyline class="a" points="73.06 46.61 73.24 46.64 73.36 46.73 73.43 46.85 73.43 46.9 73.36 47.02 73.24 47.11 73.06 47.16 73 47.16 72.81 47.11 72.69 47.02 72.63 46.9 72.63 46.85 72.69 46.73 72.81 46.64 73.06 46.61 73.36 46.61 73.67 46.64 73.84 46.73 73.9 46.85 73.9 46.94 73.84 47.07 73.73 47.11"/><polygon class="a" points="72.63 46.06 72.69 46.18 72.88 46.27 73.18 46.3 73.36 46.3 73.67 46.27 73.84 46.18 73.9 46.06 73.9 45.97 73.84 45.84 73.67 45.75 73.36 45.71 73.18 45.71 72.88 45.75 72.69 45.84 72.63 45.97 72.63 46.06"/><polygon class="a" points="73.79 45.37 73.84 45.42 73.9 45.37 73.84 45.33 73.79 45.37"/><polyline class="a" points="72.63 44.61 73.49 45.03 73.49 44.39"/><line class="a" x1="72.63" y1="44.61" x2="73.9" y2="44.61"/><polyline class="a" points="72.63 44.1 72.63 43.63 73.12 43.89 73.12 43.76 73.18 43.68 73.24 43.63 73.42 43.6 73.55 43.6 73.73 43.63 73.84 43.72 73.9 43.84 73.9 43.98 73.84 44.1 73.79 44.15 73.67 44.19"/><polyline class="a" points="75.82 47.88 75.76 47.79 75.58 47.66 76.85 47.66"/><polygon class="a" points="75.58 46.09 75.64 46.22 75.76 46.26 75.89 46.26 76.01 46.22 76.07 46.13 76.13 45.97 76.19 45.84 76.31 45.75 76.44 45.71 76.61 45.71 76.73 45.75 76.79 45.8 76.85 45.92 76.85 46.09 76.79 46.22 76.73 46.26 76.61 46.3 76.44 46.3 76.31 46.26 76.19 46.18 76.13 46.06 76.07 45.88 76.01 45.8 75.89 45.75 75.76 45.75 75.64 45.8 75.58 45.92 75.58 46.09"/><polygon class="a" points="76.73 45.37 76.79 45.42 76.85 45.37 76.79 45.33 76.73 45.37"/><polyline class="a" points="76.85 44.87 75.58 44.44 75.58 45.03"/><polyline class="a" points="76.85 44.01 75.58 43.6 75.58 44.18"/><polyline class="a" points="40.19 1.15 40.15 1.07 40.09 1.01 40.03 0.97 39.9 0.97 39.83 1.01 39.76 1.07 39.74 1.15 39.7 1.24 39.7 1.4 39.74 1.5 39.76 1.56 39.83 1.62 39.9 1.66 40.03 1.66 40.09 1.62 40.15 1.56 40.19 1.5"/><polyline class="a" points="40.31 1.66 40.58 0.97 40.84 1.66"/><line class="a" x1="40.41" y1="1.43" x2="40.74" y2="1.43"/><polyline class="a" points="40.9 0.97 41.17 1.66 41.42 0.97"/><line class="a" x1="42.29" y1="1.27" x2="42.88" y2="1.27"/><line class="a" x1="42.29" y1="1.46" x2="42.88" y2="1.46"/><polyline class="a" points="43.43 0.97 43.11 1.43 43.6 1.43"/><line class="a" x1="43.43" y1="0.97" x2="43.43" y2="1.66"/><polygon class="a" points="43.82 1.6 43.8 1.62 43.82 1.66 43.86 1.62 43.82 1.6"/><polyline class="a" points="44.51 1.07 44.47 1.01 44.37 0.97 44.31 0.97 44.22 1.01 44.15 1.11 44.12 1.27 44.12 1.43 44.15 1.56 44.22 1.62 44.31 1.66 44.35 1.66 44.45 1.62 44.51 1.56 44.55 1.46 44.55 1.43 44.51 1.34 44.45 1.27 44.35 1.24 44.31 1.24 44.22 1.27 44.15 1.34 44.12 1.43"/><line class="a" x1="46.1" y1="1.21" x2="46.1" y2="1.66"/><polyline class="a" points="46.1 1.34 46.2 1.24 46.26 1.21 46.36 1.21 46.43 1.24 46.45 1.34 46.45 1.66"/><polyline class="a" points="46.45 1.34 46.55 1.24 46.63 1.21 46.72 1.21 46.78 1.24 46.82 1.34 46.82 1.66"/><line class="a" x1="47.43" y1="1.21" x2="47.43" y2="1.89"/><polyline class="a" points="60.11 2.65 60.11 1.97 60.41 1.97 60.5 2 60.53 2.04 60.56 2.1 60.56 2.16 60.53 2.22 60.5 2.26 60.41 2.3 60.11 2.3"/><line class="a" x1="60.33" y1="2.3" x2="60.56" y2="2.65"/><line class="a" x1="60.8" y1="1.97" x2="60.8" y2="2.65"/><polyline class="a" points="61.05 2.65 61.05 1.97 61.35 1.97 61.45 2 61.47 2.04 61.51 2.1 61.51 2.2 61.47 2.26 61.45 2.3 61.35 2.32 61.05 2.32"/><polyline class="a" points="62.45 2.65 62.45 1.97 62.74 1.97 62.84 2 62.88 2.04 62.9 2.1 62.9 2.16 62.88 2.22 62.84 2.26 62.74 2.3 62.45 2.3"/><line class="a" x1="62.68" y1="2.3" x2="62.9" y2="2.65"/><line class="a" x1="63.26" y1="1.97" x2="63.26" y2="2.65"/><line class="a" x1="63.04" y1="1.97" x2="63.49" y2="1.97"/><polygon class="a" points="63.82 1.97 63.75 2 63.68 2.06 63.65 2.13 63.62 2.22 63.62 2.39 63.65 2.49 63.68 2.55 63.75 2.62 63.82 2.65 63.94 2.65 64.02 2.62 64.08 2.55 64.11 2.49 64.14 2.39 64.14 2.22 64.11 2.13 64.08 2.06 64.02 2 63.94 1.97 63.82 1.97"/><line class="a" x1="64.37" y1="2.26" x2="64.96" y2="2.26"/><line class="a" x1="64.37" y1="2.46" x2="64.96" y2="2.46"/><polyline class="a" points="65.57 1.97 65.24 1.97 65.21 2.26 65.24 2.22 65.34 2.2 65.43 2.2 65.53 2.22 65.61 2.3 65.63 2.39 65.63 2.46 65.61 2.55 65.53 2.62 65.43 2.65 65.34 2.65 65.24 2.62 65.21 2.59 65.18 2.52"/><polygon class="a" points="65.9 2.59 65.86 2.62 65.9 2.65 65.92 2.62 65.9 2.59"/><polyline class="a" points="66.47 1.97 66.16 2.42 66.65 2.42"/><line class="a" x1="66.47" y1="1.97" x2="66.47" y2="2.65"/><line class="a" x1="67.52" y1="2.2" x2="67.52" y2="2.65"/><polyline class="a" points="67.52 2.32 67.61 2.22 67.69 2.2 67.78 2.2 67.84 2.22 67.88 2.32 67.88 2.65"/><polyline class="a" points="67.88 2.32 67.98 2.22 68.04 2.2 68.14 2.2 68.2 2.22 68.24 2.32 68.24 2.65"/><line class="a" x1="68.85" y1="2.2" x2="68.85" y2="2.88"/><polyline class="b" points="48.13 1.89 38.33 1.89 36.71 5.75"/><polyline class="c" points="59.12 2.88 69.11 2.88 70.04 6.07"/><polyline class="a" points="24.35 29.06 24.35 7.71 31.44 7.71"/><polyline class="a" points="16.38 2.65 16.38 1.97 16.67 1.97 16.77 2 16.79 2.04 16.83 2.1 16.83 2.16 16.79 2.22 16.77 2.26 16.67 2.3 16.38 2.3"/><line class="a" x1="16.6" y1="2.3" x2="16.83" y2="2.65"/><line class="a" x1="17.06" y1="1.97" x2="17.06" y2="2.65"/><polyline class="a" points="17.32 2.65 17.32 1.97 17.61 1.97 17.71 2 17.73 2.04 17.77 2.1 17.77 2.2 17.73 2.26 17.71 2.3 17.61 2.32 17.32 2.32"/><polyline class="a" points="18.71 2.65 18.71 1.97 19.01 1.97 19.11 2 19.13 2.04 19.17 2.1 19.17 2.16 19.13 2.22 19.11 2.26 19.01 2.3 18.71 2.3"/><line class="a" x1="18.95" y1="2.3" x2="19.17" y2="2.65"/><line class="a" x1="19.52" y1="1.97" x2="19.52" y2="2.65"/><line class="a" x1="19.3" y1="1.97" x2="19.75" y2="1.97"/><line class="a" x1="20.63" y1="2.26" x2="21.21" y2="2.26"/><line class="a" x1="20.63" y1="2.46" x2="21.21" y2="2.46"/><polygon class="a" points="21.64 1.97 21.54 2 21.48 2.1 21.44 2.26 21.44 2.36 21.48 2.52 21.54 2.62 21.64 2.65 21.7 2.65 21.8 2.62 21.87 2.52 21.89 2.36 21.89 2.26 21.87 2.1 21.8 2 21.7 1.97 21.64 1.97"/><polygon class="a" points="22.15 2.59 22.13 2.62 22.15 2.65 22.19 2.62 22.15 2.59"/><polyline class="a" points="22.48 1.97 22.84 1.97 22.64 2.22 22.74 2.22 22.81 2.26 22.84 2.3 22.87 2.39 22.87 2.46 22.84 2.55 22.78 2.62 22.68 2.65 22.58 2.65 22.48 2.62 22.45 2.59 22.42 2.52"/><polyline class="a" points="23.13 1.97 23.48 1.97 23.29 2.22 23.39 2.22 23.46 2.26 23.48 2.3 23.52 2.39 23.52 2.46 23.48 2.55 23.42 2.62 23.33 2.65 23.23 2.65 23.13 2.62 23.09 2.59 23.07 2.52"/><line class="a" x1="24.43" y1="2.2" x2="24.43" y2="2.65"/><polyline class="a" points="24.43 2.32 24.52 2.22 24.6 2.2 24.7 2.2 24.76 2.22 24.79 2.32 24.79 2.65"/><polyline class="a" points="24.8 2.32 24.89 2.22 24.95 2.2 25.05 2.2 25.11 2.22 25.15 2.32 25.15 2.65"/><line class="a" x1="25.76" y1="2.2" x2="25.76" y2="2.88"/><polyline class="c" points="16.02 2.91 25.87 2.91 27.07 7.71"/><line class="a" x1="3.77" y1="27.68" x2="6.01" y2="27.68"/><polygon class="a" points="8.25 27.68 6.01 29.08 6.01 27.68 8.25 27.68"/><line class="a" x1="7.88" y1="27.91" x2="8.12" y2="27.68"/><line class="a" x1="6.14" y1="29" x2="7.47" y2="27.68"/><line class="a" x1="6.01" y1="28.47" x2="6.81" y2="27.68"/><line class="a" x1="6.01" y1="27.82" x2="6.16" y2="27.68"/><line class="a" x1="7.06" y1="28.42" x2="6.33" y2="27.68"/><line class="a" x1="6.67" y1="28.67" x2="6.01" y2="28.02"/><line class="a" x1="6.27" y1="28.92" x2="6.01" y2="28.67"/><line class="a" x1="7.47" y1="28.17" x2="6.98" y2="27.68"/><line class="a" x1="7.87" y1="27.92" x2="7.64" y2="27.68"/><line class="a" x1="3.77" y1="27.68" x2="6.01" y2="29.08"/><line class="a" x1="1.78" y1="26.55" x2="2.07" y2="26.84"/><line class="a" x1="2.47" y1="26.04" x2="2.47" y2="26.75"/><polyline class="a" points="2.47 26.34 2.52 26.2 2.62 26.1 2.73 26.04 2.88 26.04"/><rect class="a" x="3.1" y="25.71" width="0.07" height="0.07" transform="translate(-17.28 9.75) rotate(-44.99)"/><line class="a" x1="3.13" y1="26.1" x2="3.13" y2="26.75"/><polyline class="a" points="3.83 25.69 3.73 25.69 3.64 25.74 3.59 25.89 3.59 26.75"/><line class="a" x1="3.43" y1="26.04" x2="3.78" y2="26.04"/><polygon class="a" points="4.19 26.04 4.14 26.1 4.19 26.15 4.24 26.1 4.19 26.04"/><rect class="a" x="4.15" y="26.66" width="0.07" height="0.07" transform="translate(-17.65 10.78) rotate(-45)"/><polyline class="a" points="5.8 25.89 5.9 25.84 6.05 25.69 6.05 26.75"/><polygon class="a" points="6.9 25.69 6.76 25.74 6.71 25.84 6.71 25.94 6.76 26.04 6.86 26.1 7.05 26.15 7.21 26.2 7.31 26.29 7.36 26.39 7.36 26.55 7.31 26.65 7.26 26.7 7.11 26.75 6.9 26.75 6.76 26.7 6.71 26.65 6.66 26.55 6.66 26.39 6.71 26.29 6.81 26.2 6.95 26.15 7.16 26.1 7.26 26.04 7.31 25.94 7.31 25.84 7.26 25.74 7.11 25.69 6.9 25.69"/><polygon class="a" points="7.96 25.69 7.81 25.74 7.71 25.89 7.66 26.15 7.66 26.29 7.71 26.55 7.81 26.7 7.96 26.75 8.07 26.75 8.21 26.7 8.31 26.55 8.36 26.29 8.36 26.15 8.31 25.89 8.21 25.74 8.07 25.69 7.96 25.69"/><line class="a" x1="9.78" y1="26.04" x2="9.78" y2="26.75"/><polyline class="a" points="9.78 26.25 9.93 26.1 10.02 26.04 10.17 26.04 10.28 26.1 10.33 26.25 10.33 26.75"/><polyline class="a" points="10.33 26.25 10.48 26.1 10.57 26.04 10.73 26.04 10.83 26.1 10.88 26.25 10.88 26.75"/><rect class="a" x="13.21" y="26.66" width="0.07" height="0.07" transform="translate(-15 17.19) rotate(-45)"/><line class="a" x1="13.7" y1="25.69" x2="13.7" y2="26.75"/><rect class="a" x="14.11" y="26.66" width="0.07" height="0.07" transform="translate(-14.73 17.83) rotate(-45)"/><line class="a" x1="14.6" y1="26.04" x2="14.6" y2="26.75"/><polyline class="a" points="14.6 26.25 14.76 26.1 14.86 26.04 15.01 26.04 15.1 26.1 15.16 26.25 15.16 26.75"/><polyline class="a" points="15.16 26.25 15.31 26.1 15.41 26.04 15.57 26.04 15.67 26.1 15.71 26.25 15.71 26.75"/><rect class="a" x="16.13" y="26.66" width="0.07" height="0.07" transform="translate(-14.14 19.25) rotate(-45)"/><line class="d" x1="23.45" y1="6.3" x2="24.43" y2="5.32"/><line class="d" x1="24.43" y1="6.3" x2="23.45" y2="5.32"/><line class="d" x1="71.03" y1="5.32" x2="72.01" y2="4.34"/><line class="d" x1="72.01" y1="5.32" x2="71.03" y2="4.34"/><line class="e" x1="27.89" y1="7.02" x2="27.89" y2="8.4"/><line class="f" x1="23.86" y1="8.21" x2="24.84" y2="7.22"/><line class="f" x1="24.84" y1="8.21" x2="23.86" y2="7.22"/><line class="f" x1="30.94" y1="8.21" x2="31.93" y2="7.22"/><line class="f" x1="31.93" y1="8.21" x2="30.94" y2="7.22"/><line class="a" x1="51.09" y1="7.85" x2="52.07" y2="6.86"/><line class="a" x1="52.07" y1="7.85" x2="51.09" y2="6.86"/></svg>