<svg xmlns="http://www.w3.org/2000/svg" viewBox="0 0 158.05 51.39"><defs><style>.a,.b,.c,.d,.e,.f{fill:none;stroke-linecap:round;stroke-linejoin:round;stroke-width:0.21px;}.a{stroke:#000;}.b{stroke:red;}.c{stroke:#ffbf00;}.d{stroke:#00b800;}.e{stroke:blue;}.f{stroke:#00bfff;}</style></defs><title>cad2.4</title><polyline class="a" points="16.94 32.48 17.06 32.41 17.23 32.24 17.23 33.44"/><line class="a" x1="17.09" y1="35.16" x2="17.09" y2="38.85"/><line class="a" x1="1.09" y1="30.53" x2="156.81" y2="30.53"/><line class="a" x1="17.09" y1="35.16" x2="156.81" y2="35.16"/><line class="a" x1="17.09" y1="38.85" x2="156.81" y2="38.85"/><line class="a" x1="17.09" y1="44.41" x2="156.81" y2="44.41"/><polyline class="a" points="17.09 49.95 156.81 49.95 156.81 30.53"/><line class="a" x1="21.97" y1="35.16" x2="21.97" y2="38.85"/><line class="a" x1="27.66" y1="35.16" x2="27.66" y2="38.85"/><line class="a" x1="33.04" y1="35.16" x2="33.04" y2="38.85"/><line class="a" x1="38.13" y1="35.16" x2="38.13" y2="38.85"/><line class="a" x1="91.97" y1="35.16" x2="91.97" y2="38.85"/><line class="a" x1="112.73" y1="35.16" x2="112.73" y2="38.85"/><line class="a" x1="134.41" y1="35.16" x2="134.41" y2="38.85"/><polyline class="a" points="18.46 36.66 18.46 36.61 18.5 36.52 18.54 36.48 18.64 36.44 18.81 36.44 18.9 36.48 18.95 36.52 18.98 36.61 18.98 36.7 18.95 36.8 18.86 36.92 18.42 37.36 19.03 37.36"/><polygon class="a" points="19.39 37.27 19.34 37.32 19.39 37.36 19.42 37.32 19.39 37.27"/><polyline class="a" points="19.86 36.61 19.96 36.57 20.08 36.44 20.08 37.36"/><polygon class="a" points="16.41 41.71 16.47 41.85 16.66 41.93 16.96 41.97 17.15 41.97 17.44 41.93 17.63 41.85 17.69 41.71 17.69 41.63 17.63 41.51 17.44 41.42 17.15 41.37 16.96 41.37 16.66 41.42 16.47 41.51 16.41 41.63 16.41 41.71"/><line class="a" x1="17.09" y1="30.53" x2="17.09" y2="9.02"/><line class="a" x1="153.35" y1="30.53" x2="153.35" y2="12.22"/><line class="a" x1="145.76" y1="30.53" x2="145.76" y2="11.94"/><line class="a" x1="134.41" y1="30.53" x2="134.41" y2="11.73"/><line class="a" x1="112.73" y1="30.53" x2="112.73" y2="11.35"/><line class="a" x1="91.97" y1="30.53" x2="91.97" y2="10.83"/><line class="b" x1="33.26" y1="6.46" x2="33.28" y2="6.45"/><line class="b" x1="33.53" y1="6.59" x2="33.56" y2="6.57"/><line class="b" x1="33.8" y1="6.74" x2="33.84" y2="6.69"/><line class="b" x1="34.07" y1="6.87" x2="34.13" y2="6.81"/><line class="b" x1="34.34" y1="7.02" x2="34.41" y2="6.95"/><line class="b" x1="34.6" y1="7.16" x2="34.7" y2="7.07"/><line class="b" x1="34.87" y1="7.3" x2="34.98" y2="7.19"/><line class="b" x1="35.14" y1="7.45" x2="35.26" y2="7.31"/><line class="b" x1="35.41" y1="7.58" x2="35.55" y2="7.45"/><line class="b" x1="35.67" y1="7.73" x2="35.83" y2="7.57"/><line class="b" x1="35.94" y1="7.87" x2="36.11" y2="7.69"/><line class="b" x1="36.21" y1="8.01" x2="36.4" y2="7.82"/><line class="b" x1="36.48" y1="8.15" x2="36.68" y2="7.94"/><line class="b" x1="36.75" y1="8.29" x2="36.96" y2="8.07"/><line class="b" x1="37.01" y1="8.43" x2="37.25" y2="8.2"/><line class="b" x1="37.28" y1="8.58" x2="37.53" y2="8.32"/><line class="b" x1="37.57" y1="8.7" x2="37.82" y2="8.44"/><line class="b" x1="37.88" y1="8.8" x2="38.1" y2="8.58"/><line class="b" x1="38.22" y1="8.87" x2="38.49" y2="8.59"/><line class="b" x1="38.67" y1="8.82" x2="38.91" y2="8.59"/><line class="b" x1="39.13" y1="8.77" x2="39.31" y2="8.59"/><line class="b" x1="39.58" y1="8.72" x2="39.72" y2="8.59"/><line class="b" x1="40.03" y1="8.69" x2="40.13" y2="8.59"/><line class="b" x1="40.48" y1="8.64" x2="40.53" y2="8.59"/><line class="b" x1="40.94" y1="8.59" x2="40.95" y2="8.59"/><line class="b" x1="49.91" y1="8.21" x2="49.94" y2="8.17"/><line class="b" x1="50.22" y1="8.31" x2="50.35" y2="8.17"/><line class="b" x1="50.54" y1="8.39" x2="50.76" y2="8.17"/><line class="b" x1="50.86" y1="8.49" x2="51.17" y2="8.17"/><line class="b" x1="51.17" y1="8.58" x2="51.58" y2="8.17"/><line class="b" x1="51.48" y1="8.67" x2="51.99" y2="8.17"/><line class="b" x1="51.8" y1="8.77" x2="52.4" y2="8.17"/><line class="b" x1="52.12" y1="8.86" x2="52.81" y2="8.17"/><line class="b" x1="52.44" y1="8.95" x2="53.21" y2="8.17"/><line class="b" x1="52.76" y1="9.04" x2="53.63" y2="8.17"/><line class="b" x1="53.06" y1="9.14" x2="54.03" y2="8.17"/><line class="b" x1="53.38" y1="9.22" x2="54.45" y2="8.17"/><line class="b" x1="53.7" y1="9.32" x2="54.85" y2="8.17"/><line class="b" x1="54.02" y1="9.42" x2="55.25" y2="8.17"/><line class="b" x1="54.34" y1="9.51" x2="55.67" y2="8.17"/><line class="b" x1="54.65" y1="9.6" x2="56.07" y2="8.17"/><line class="b" x1="55.01" y1="9.64" x2="56.49" y2="8.17"/><line class="b" x1="55.43" y1="9.64" x2="56.89" y2="8.17"/><line class="b" x1="55.84" y1="9.64" x2="57.3" y2="8.17"/><line class="b" x1="56.25" y1="9.64" x2="57.71" y2="8.17"/><line class="b" x1="56.66" y1="9.63" x2="58.12" y2="8.17"/><line class="b" x1="57.07" y1="9.63" x2="58.53" y2="8.17"/><line class="b" x1="57.48" y1="9.63" x2="58.94" y2="8.17"/><line class="b" x1="57.9" y1="9.63" x2="59.34" y2="8.17"/><line class="b" x1="58.3" y1="9.63" x2="59.76" y2="8.17"/><line class="b" x1="58.72" y1="9.62" x2="60.16" y2="8.17"/><line class="b" x1="59.13" y1="9.62" x2="60.58" y2="8.17"/><line class="b" x1="59.54" y1="9.62" x2="60.98" y2="8.17"/><line class="b" x1="59.95" y1="9.62" x2="61.38" y2="8.17"/><line class="b" x1="60.36" y1="9.6" x2="61.8" y2="8.17"/><line class="b" x1="60.77" y1="9.6" x2="62.2" y2="8.17"/><line class="b" x1="61.19" y1="9.6" x2="62.62" y2="8.17"/><line class="b" x1="61.59" y1="9.6" x2="63.02" y2="8.17"/><line class="b" x1="62.01" y1="9.6" x2="63.43" y2="8.17"/><line class="b" x1="62.42" y1="9.59" x2="63.84" y2="8.17"/><line class="b" x1="62.83" y1="9.59" x2="64.25" y2="8.17"/><polyline class="b" points="63.24 9.59 63.7 9.13 64.67 8.17"/><line class="b" x1="63.62" y1="9.62" x2="65.07" y2="8.17"/><line class="b" x1="64.02" y1="9.64" x2="65.48" y2="8.17"/><line class="b" x1="64.41" y1="9.65" x2="65.89" y2="8.17"/><line class="b" x1="64.79" y1="9.68" x2="66.29" y2="8.17"/><line class="b" x1="65.18" y1="9.7" x2="66.71" y2="8.17"/><line class="b" x1="65.57" y1="9.71" x2="67.11" y2="8.17"/><line class="b" x1="65.95" y1="9.74" x2="67.53" y2="8.17"/><line class="b" x1="66.34" y1="9.76" x2="67.93" y2="8.17"/><line class="b" x1="66.73" y1="9.79" x2="68.34" y2="8.17"/><line class="b" x1="67.12" y1="9.8" x2="68.75" y2="8.17"/><line class="b" x1="67.5" y1="9.82" x2="69.16" y2="8.17"/><line class="b" x1="67.89" y1="9.85" x2="69.57" y2="8.17"/><line class="b" x1="68.29" y1="9.87" x2="69.98" y2="8.17"/><line class="b" x1="68.67" y1="9.88" x2="70.38" y2="8.17"/><line class="b" x1="69.06" y1="9.91" x2="70.8" y2="8.17"/><line class="b" x1="69.45" y1="9.93" x2="71.2" y2="8.17"/><line class="b" x1="69.83" y1="9.95" x2="71.62" y2="8.17"/><line class="b" x1="70.22" y1="9.97" x2="72.02" y2="8.17"/><line class="b" x1="70.61" y1="9.99" x2="72.42" y2="8.17"/><line class="b" x1="70.99" y1="10.02" x2="72.84" y2="8.17"/><line class="b" x1="71.38" y1="10.03" x2="73.24" y2="8.17"/><line class="b" x1="71.77" y1="10.06" x2="73.66" y2="8.17"/><line class="b" x1="72.15" y1="10.08" x2="74.06" y2="8.17"/><line class="b" x1="72.55" y1="10.09" x2="74.47" y2="8.17"/><line class="b" x1="72.94" y1="10.12" x2="74.88" y2="8.17"/><line class="b" x1="73.33" y1="10.14" x2="75.29" y2="8.17"/><line class="b" x1="73.71" y1="10.15" x2="75.7" y2="8.17"/><line class="b" x1="74.1" y1="10.18" x2="76.11" y2="8.17"/><line class="b" x1="74.49" y1="10.2" x2="76.51" y2="8.17"/><line class="b" x1="74.88" y1="10.22" x2="76.93" y2="8.17"/><line class="b" x1="75.27" y1="10.24" x2="77.33" y2="8.17"/><line class="b" x1="75.65" y1="10.26" x2="77.75" y2="8.17"/><line class="b" x1="76.04" y1="10.28" x2="78.15" y2="8.17"/><line class="b" x1="76.44" y1="10.3" x2="78.57" y2="8.17"/><line class="b" x1="76.83" y1="10.31" x2="78.97" y2="8.17"/><line class="b" x1="77.21" y1="10.34" x2="79.37" y2="8.17"/><line class="b" x1="77.6" y1="10.36" x2="79.79" y2="8.17"/><line class="b" x1="77.99" y1="10.37" x2="80.19" y2="8.17"/><line class="b" x1="78.38" y1="10.4" x2="80.61" y2="8.17"/><line class="b" x1="78.76" y1="10.42" x2="81.01" y2="8.17"/><line class="b" x1="79.15" y1="10.44" x2="81.42" y2="8.17"/><line class="b" x1="79.54" y1="10.46" x2="81.83" y2="8.17"/><line class="b" x1="83.94" y1="6.07" x2="81.91" y2="8.1"/><line class="b" x1="79.94" y1="10.48" x2="81.85" y2="8.56"/><line class="b" x1="84.34" y1="6.07" x2="81.85" y2="8.56"/><line class="b" x1="80.33" y1="10.5" x2="81.84" y2="8.98"/><line class="b" x1="84.76" y1="6.07" x2="81.85" y2="8.98"/><line class="b" x1="80.71" y1="10.52" x2="81.85" y2="9.38"/><line class="b" x1="85.16" y1="6.07" x2="81.85" y2="9.38"/><line class="b" x1="81.1" y1="10.53" x2="81.84" y2="9.79"/><line class="b" x1="85.57" y1="6.07" x2="81.85" y2="9.79"/><line class="b" x1="81.49" y1="10.56" x2="81.85" y2="10.2"/><line class="b" x1="85.7" y1="6.35" x2="85.82" y2="6.23"/><line class="b" x1="81.85" y1="10.2" x2="85.7" y2="6.35"/><line class="b" x1="81.88" y1="10.58" x2="83.53" y2="8.92"/><polyline class="b" points="85.99 6.47 85.7 6.75 83.53 8.92"/><line class="b" x1="82.26" y1="10.59" x2="83.53" y2="9.33"/><line class="b" x1="86.17" y1="6.7" x2="83.53" y2="9.33"/><line class="b" x1="82.65" y1="10.62" x2="83.53" y2="9.74"/><line class="b" x1="86.34" y1="6.94" x2="83.53" y2="9.74"/><line class="b" x1="83.04" y1="10.63" x2="83.53" y2="10.14"/><polyline class="b" points="86.51 7.17 85.7 7.99 83.53 10.14"/><line class="b" x1="83.45" y1="10.64" x2="83.53" y2="10.56"/><line class="b" x1="86.68" y1="7.41" x2="83.53" y2="10.56"/><polyline class="b" points="83.85 10.66 85.7 8.81 86.85 7.65"/><polyline class="b" points="84.24 10.66 85.7 9.21 87.03 7.88"/><line class="b" x1="84.65" y1="10.67" x2="87.21" y2="8.11"/><line class="b" x1="85.05" y1="10.68" x2="87.38" y2="8.36"/><polyline class="b" points="85.44 10.68 85.7 10.44 87.55 8.59"/><line class="b" x1="85.85" y1="10.69" x2="87.72" y2="8.82"/><line class="b" x1="86.25" y1="10.7" x2="87.89" y2="9.05"/><line class="b" x1="86.65" y1="10.72" x2="88.07" y2="9.3"/><line class="b" x1="87.05" y1="10.72" x2="88.25" y2="9.53"/><line class="b" x1="87.45" y1="10.73" x2="88.42" y2="9.76"/><line class="b" x1="87.85" y1="10.74" x2="88.59" y2="10"/><line class="b" x1="88.25" y1="10.75" x2="88.76" y2="10.24"/><line class="b" x1="88.65" y1="10.75" x2="88.93" y2="10.47"/><line class="b" x1="89.05" y1="10.77" x2="89.1" y2="10.7"/><line class="a" x1="38.13" y1="30.53" x2="38.13" y2="8.59"/><line class="a" x1="33.04" y1="30.53" x2="33.04" y2="6.34"/><line class="a" x1="27.66" y1="30.53" x2="27.66" y2="7.47"/><polyline class="a" points="21.97 30.53 21.97 8.12 17.09 9.02"/><polyline class="a" points="21.97 8.12 25.64 7.72 27.66 7.47 33.04 6.34"/><polyline class="b" points="33.04 6.34 37.44 8.65 38.13 8.87"/><line class="c" x1="41.35" y1="8.59" x2="41.4" y2="8.55"/><line class="c" x1="41.77" y1="8.59" x2="41.85" y2="8.5"/><line class="c" x1="42.17" y1="8.59" x2="42.31" y2="8.45"/><line class="c" x1="42.59" y1="8.59" x2="42.76" y2="8.4"/><line class="c" x1="42.99" y1="8.59" x2="44.12" y2="7.45"/><line class="c" x1="43.4" y1="8.59" x2="45.17" y2="6.81"/><line class="c" x1="43.81" y1="8.59" x2="45.48" y2="6.91"/><line class="c" x1="44.22" y1="8.59" x2="45.79" y2="7.01"/><line class="c" x1="44.63" y1="8.59" x2="46.11" y2="7.09"/><line class="c" x1="45.04" y1="8.59" x2="46.43" y2="7.19"/><line class="c" x1="45.86" y1="8.17" x2="46.75" y2="7.28"/><line class="c" x1="46.26" y1="8.17" x2="47.07" y2="7.38"/><line class="c" x1="46.68" y1="8.17" x2="47.37" y2="7.46"/><line class="c" x1="47.08" y1="8.17" x2="47.69" y2="7.56"/><line class="c" x1="47.5" y1="8.17" x2="48.01" y2="7.66"/><line class="c" x1="47.9" y1="8.17" x2="48.33" y2="7.74"/><line class="c" x1="48.3" y1="8.17" x2="48.65" y2="7.84"/><line class="c" x1="48.72" y1="8.17" x2="48.96" y2="7.93"/><line class="c" x1="49.12" y1="8.17" x2="49.27" y2="8.02"/><line class="c" x1="49.54" y1="8.17" x2="49.59" y2="8.12"/><polyline class="c" points="41 8.59 42.76 8.4 45.07 6.79 49.78 8.17"/><polyline class="b" points="54.8 9.64 63.2 9.59 72.61 10.11 82.81 10.63 89.15 10.77"/><polyline class="a" points="91.97 10.83 103.06 11.08 112.73 11.35 123.23 11.54 134.41 11.73 145.76 11.94 153.35 12.22"/><polyline class="a" points="21.65 32.52 21.65 32.48 21.7 32.35 21.76 32.3 21.87 32.24 22.1 32.24 22.21 32.3 22.27 32.35 22.34 32.48 22.34 32.59 22.27 32.7 22.16 32.87 21.59 33.44 22.38 33.44"/><polyline class="a" points="27.39 32.24 28.02 32.24 27.68 32.7 27.86 32.7 27.96 32.76 28.02 32.82 28.07 32.99 28.07 33.1 28.02 33.27 27.9 33.38 27.73 33.44 27.56 33.44 27.39 33.38 27.34 33.33 27.28 33.21"/><polyline class="a" points="33.21 32.24 32.64 33.04 33.49 33.04"/><line class="a" x1="33.21" y1="32.24" x2="33.21" y2="33.44"/><polyline class="a" points="91.11 32.48 91.22 32.41 91.39 32.24 91.39 33.44"/><polyline class="a" points="92.19 32.24 92.82 32.24 92.48 32.7 92.65 32.7 92.76 32.76 92.82 32.82 92.87 32.99 92.87 33.1 92.82 33.27 92.7 33.38 92.53 33.44 92.36 33.44 92.19 33.38 92.14 33.33 92.08 33.21"/><polyline class="a" points="111.84 32.48 111.96 32.41 112.13 32.24 112.13 33.44"/><polyline class="a" points="113.38 32.24 112.82 33.04 113.67 33.04"/><line class="a" x1="113.38" y1="32.24" x2="113.38" y2="33.44"/><polyline class="a" points="133.54 32.48 133.66 32.41 133.83 32.24 133.83 33.44"/><polyline class="a" points="144.89 32.48 145.01 32.41 145.19 32.24 145.19 33.44"/><polyline class="a" points="146.61 32.41 146.56 32.3 146.39 32.24 146.26 32.24 146.09 32.3 145.98 32.48 145.92 32.76 145.92 33.04 145.98 33.27 146.09 33.38 146.26 33.44 146.32 33.44 146.5 33.38 146.61 33.27 146.67 33.1 146.67 33.04 146.61 32.87 146.5 32.76 146.32 32.7 146.26 32.7 146.09 32.76 145.98 32.87 145.92 33.04"/><polyline class="a" points="152.48 32.48 152.59 32.41 152.76 32.24 152.76 33.44"/><polyline class="a" points="153.68 33.44 154.25 32.24 153.45 32.24"/><line class="a" x1="145.76" y1="35.16" x2="145.76" y2="38.85"/><line class="a" x1="153.35" y1="35.16" x2="153.35" y2="38.85"/><polyline class="a" points="23.74 36.66 23.74 36.61 23.78 36.52 23.83 36.48 23.91 36.44 24.1 36.44 24.18 36.48 24.22 36.52 24.27 36.61 24.27 36.7 24.22 36.8 24.14 36.92 23.69 37.36 24.32 37.36"/><polygon class="a" points="24.66 37.27 24.62 37.32 24.66 37.36 24.71 37.32 24.66 37.27"/><polyline class="a" points="25.54 36.44 25.1 36.44 25.07 36.83 25.1 36.8 25.24 36.75 25.37 36.75 25.5 36.8 25.59 36.88 25.64 37.02 25.64 37.1 25.59 37.23 25.5 37.32 25.37 37.36 25.24 37.36 25.1 37.32 25.07 37.27 25.02 37.19"/><polyline class="a" points="29.27 36.66 29.27 36.61 29.31 36.52 29.36 36.48 29.45 36.44 29.62 36.44 29.7 36.48 29.75 36.52 29.8 36.61 29.8 36.7 29.75 36.8 29.67 36.92 29.23 37.36 29.84 37.36"/><polygon class="a" points="30.19 37.27 30.14 37.32 30.19 37.36 30.24 37.32 30.19 37.27"/><polyline class="a" points="30.63 36.44 31.12 36.44 30.85 36.8 30.99 36.8 31.07 36.83 31.12 36.88 31.16 37.02 31.16 37.1 31.12 37.23 31.02 37.32 30.9 37.36 30.77 37.36 30.63 37.32 30.58 37.27 30.55 37.19"/><polyline class="a" points="101.83 36.75 101.78 36.88 101.69 36.97 101.56 37.02 101.52 37.02 101.39 36.97 101.3 36.88 101.25 36.75 101.25 36.7 101.3 36.58 101.39 36.48 101.52 36.44 101.56 36.44 101.69 36.48 101.78 36.58 101.83 36.75 101.83 36.97 101.78 37.19 101.69 37.32 101.56 37.36 101.47 37.36 101.34 37.32 101.3 37.24"/><polyline class="a" points="123.78 36.75 123.73 36.88 123.65 36.97 123.51 37.02 123.48 37.02 123.34 36.97 123.26 36.88 123.21 36.75 123.21 36.7 123.26 36.58 123.34 36.48 123.48 36.44 123.51 36.44 123.65 36.48 123.73 36.58 123.78 36.75 123.78 36.97 123.73 37.19 123.65 37.32 123.51 37.36 123.43 37.36 123.29 37.32 123.26 37.24"/><polygon class="a" points="124.17 37.27 124.14 37.32 124.17 37.36 124.22 37.32 124.17 37.27"/><polyline class="a" points="124.97 36.44 124.53 37.05 125.19 37.05"/><line class="a" x1="124.97" y1="36.44" x2="124.97" y2="37.36"/><polyline class="a" points="139.66 36.44 139.21 37.05 139.88 37.05"/><line class="a" x1="139.65" y1="36.44" x2="139.65" y2="37.36"/><polygon class="a" points="140.18 37.27 140.13 37.32 140.18 37.36 140.23 37.32 140.18 37.27"/><polyline class="a" points="141.11 36.75 141.06 36.88 140.98 36.97 140.84 37.02 140.79 37.02 140.67 36.97 140.57 36.88 140.54 36.75 140.54 36.7 140.57 36.58 140.67 36.48 140.79 36.44 140.84 36.44 140.98 36.48 141.06 36.58 141.11 36.75 141.11 36.97 141.06 37.19 140.98 37.32 140.84 37.36 140.76 37.36 140.62 37.32 140.57 37.24"/><polyline class="a" points="148.72 36.44 149.21 36.44 148.94 36.8 149.08 36.8 149.16 36.83 149.21 36.88 149.26 37.02 149.26 37.1 149.21 37.23 149.13 37.32 148.99 37.36 148.86 37.36 148.72 37.32 148.69 37.27 148.64 37.19"/><polygon class="a" points="149.6 37.27 149.57 37.32 149.6 37.36 149.65 37.32 149.6 37.27"/><polyline class="a" points="150.04 36.44 150.53 36.44 150.26 36.8 150.4 36.8 150.49 36.83 150.53 36.88 150.58 37.02 150.58 37.1 150.53 37.23 150.45 37.32 150.31 37.36 150.18 37.36 150.04 37.32 150.01 37.27 149.96 37.19"/><polyline class="a" points="21.6 42.44 21.54 42.44 21.42 42.4 21.36 42.35 21.3 42.27 21.3 42.09 21.36 42.01 21.42 41.97 21.54 41.93 21.66 41.93 21.79 41.97 21.96 42.06 22.57 42.48 22.57 41.88"/><polygon class="a" points="22.45 41.54 22.51 41.59 22.57 41.54 22.51 41.51 22.45 41.54"/><polyline class="a" points="21.54 41.08 21.48 40.99 21.3 40.87 22.57 40.87"/><polyline class="a" points="26.99 42.18 27.83 42.61 27.83 41.97"/><line class="a" x1="26.99" y1="42.18" x2="28.26" y2="42.18"/><polygon class="a" points="28.14 41.68 28.2 41.72 28.26 41.68 28.2 41.63 28.14 41.68"/><polyline class="a" points="27.17 40.78 27.05 40.82 26.98 40.95 26.98 41.04 27.05 41.16 27.23 41.25 27.52 41.3 27.83 41.3 28.07 41.25 28.2 41.16 28.26 41.04 28.26 40.99 28.2 40.87 28.07 40.78 27.89 40.75 27.83 40.75 27.65 40.78 27.52 40.87 27.46 40.99 27.46 41.04 27.52 41.16 27.65 41.25 27.83 41.3"/><polyline class="a" points="32.55 42.06 32.43 42.09 32.37 42.23 32.37 42.31 32.43 42.44 32.62 42.52 32.92 42.56 33.22 42.56 33.46 42.52 33.58 42.44 33.64 42.31 33.64 42.27 33.58 42.14 33.46 42.06 33.28 42.01 33.22 42.01 33.04 42.06 32.92 42.14 32.86 42.27 32.86 42.31 32.92 42.44 33.04 42.52 33.22 42.56"/><polygon class="a" points="33.52 41.68 33.58 41.72 33.64 41.68 33.58 41.63 33.52 41.68"/><polyline class="a" points="32.8 40.78 32.98 40.82 33.1 40.91 33.16 41.04 33.16 41.08 33.1 41.21 32.98 41.3 32.8 41.34 32.74 41.34 32.55 41.3 32.43 41.21 32.37 41.08 32.37 41.04 32.43 40.91 32.55 40.82 32.8 40.78 33.1 40.78 33.4 40.82 33.58 40.91 33.64 41.04 33.64 41.13 33.58 41.25 33.46 41.3"/><polyline class="a" points="37.99 41.94 38.17 41.97 38.29 42.06 38.35 42.18 38.35 42.23 38.29 42.35 38.17 42.44 37.99 42.49 37.93 42.49 37.74 42.44 37.62 42.35 37.56 42.23 37.56 42.18 37.62 42.06 37.74 41.97 37.99 41.94 38.29 41.94 38.6 41.97 38.77 42.06 38.83 42.18 38.83 42.27 38.77 42.4 38.66 42.44"/><polygon class="a" points="38.72 41.54 38.77 41.59 38.83 41.54 38.77 41.51 38.72 41.54"/><polyline class="a" points="37.8 41.08 37.74 40.99 37.56 40.87 38.83 40.87"/><polyline class="a" points="91.29 42.96 91.29 42.5 91.78 42.75 91.78 42.63 91.84 42.55 91.91 42.5 92.09 42.46 92.21 42.46 92.38 42.5 92.5 42.58 92.57 42.72 92.57 42.84 92.5 42.96 92.44 43.01 92.32 43.05"/><polyline class="a" points="91.6 42.17 91.54 42.17 91.42 42.12 91.35 42.08 91.29 42 91.29 41.82 91.35 41.74 91.42 41.69 91.54 41.65 91.66 41.65 91.78 41.69 91.97 41.77 92.57 42.2 92.57 41.62"/><polygon class="a" points="92.44 41.27 92.5 41.31 92.56 41.27 92.5 41.23 92.44 41.27"/><polyline class="a" points="91.29 40.5 92.15 40.93 92.15 40.3"/><line class="a" x1="91.29" y1="40.5" x2="92.57" y2="40.5"/><polyline class="a" points="112.06 42.63 112.92 43.05 112.92 42.41"/><line class="a" x1="112.06" y1="42.63" x2="113.33" y2="42.63"/><polyline class="a" points="112.3 42.08 112.24 41.99 112.06 41.86 113.33 41.86"/><polygon class="a" points="113.21 41.27 113.27 41.31 113.33 41.27 113.27 41.23 113.21 41.27"/><polyline class="a" points="112.06 40.5 112.92 40.93 112.92 40.3"/><line class="a" x1="112.06" y1="40.5" x2="113.33" y2="40.5"/><polyline class="a" points="133.73 42.52 133.73 42.95 134.28 42.99 134.22 42.95 134.16 42.82 134.16 42.69 134.22 42.56 134.33 42.48 134.51 42.44 134.64 42.44 134.82 42.48 134.94 42.56 135 42.69 135 42.82 134.94 42.95 134.88 42.99 134.76 43.04"/><polygon class="a" points="133.73 41.94 133.79 42.06 133.98 42.14 134.28 42.18 134.45 42.18 134.76 42.14 134.94 42.06 135 41.94 135 41.85 134.94 41.72 134.76 41.63 134.45 41.59 134.28 41.59 133.98 41.63 133.79 41.72 133.73 41.85 133.73 41.94"/><polygon class="a" points="134.88 41.25 134.94 41.3 135 41.25 134.94 41.21 134.88 41.25"/><polyline class="a" points="135 40.75 133.73 40.32 133.73 40.91"/><polyline class="a" points="145.09 42.52 145.09 42.95 145.63 42.99 145.56 42.95 145.5 42.82 145.5 42.69 145.56 42.56 145.69 42.48 145.87 42.44 145.99 42.44 146.18 42.48 146.3 42.56 146.36 42.69 146.36 42.82 146.3 42.95 146.24 42.99 146.12 43.04"/><polygon class="a" points="146.24 41.25 146.3 41.3 146.36 41.25 146.3 41.21 146.24 41.25"/><polyline class="a" points="145.27 40.36 145.15 40.41 145.09 40.53 145.09 40.61 145.15 40.75 145.33 40.82 145.63 40.87 145.93 40.87 146.18 40.82 146.3 40.75 146.36 40.61 146.36 40.58 146.3 40.44 146.18 40.36 145.99 40.32 145.93 40.32 145.75 40.36 145.63 40.44 145.57 40.58 145.57 40.61 145.63 40.75 145.75 40.82 145.93 40.87"/><polyline class="a" points="152.68 42.5 152.68 42.92 153.21 42.96 153.15 42.92 153.09 42.8 153.09 42.67 153.15 42.55 153.28 42.46 153.46 42.41 153.58 42.41 153.76 42.46 153.89 42.55 153.95 42.67 153.95 42.8 153.89 42.92 153.82 42.96 153.7 43.01"/><polygon class="a" points="153.83 41.23 153.89 41.27 153.95 41.23 153.89 41.19 153.83 41.23"/><polyline class="a" points="153.09 40.34 153.28 40.38 153.4 40.47 153.46 40.59 153.46 40.64 153.4 40.76 153.28 40.85 153.09 40.9 153.03 40.9 152.86 40.85 152.74 40.76 152.68 40.64 152.68 40.59 152.74 40.47 152.86 40.38 153.09 40.34 153.4 40.34 153.7 40.38 153.89 40.47 153.95 40.59 153.95 40.67 153.89 40.81 153.76 40.85"/><polyline class="a" points="16.66 49.25 16.6 49.17 16.41 49.03 17.68 49.03"/><polyline class="a" points="16.84 47.12 17.02 47.17 17.15 47.26 17.21 47.38 17.21 47.43 17.15 47.55 17.02 47.64 16.84 47.67 16.78 47.67 16.6 47.64 16.47 47.55 16.41 47.43 16.41 47.38 16.47 47.26 16.6 47.17 16.84 47.12 17.15 47.12 17.44 47.17 17.62 47.26 17.68 47.38 17.68 47.47 17.62 47.6 17.5 47.64"/><polygon class="a" points="17.56 46.74 17.62 46.79 17.68 46.74 17.62 46.71 17.56 46.74"/><polyline class="a" points="16.41 46.33 16.41 45.85 16.9 46.11 16.9 45.98 16.96 45.9 17.02 45.85 17.21 45.81 17.33 45.81 17.5 45.85 17.63 45.94 17.69 46.07 17.69 46.19 17.63 46.33 17.56 46.37 17.44 46.41"/><polyline class="a" points="16.66 45.43 16.6 45.35 16.41 45.23 17.68 45.23"/><polyline class="a" points="21.6 49.35 21.54 49.26 21.37 49.14 22.63 49.14"/><polygon class="a" points="21.37 48.42 21.43 48.54 21.54 48.59 21.66 48.59 21.79 48.54 21.85 48.47 21.91 48.3 21.97 48.16 22.09 48.08 22.21 48.04 22.4 48.04 22.52 48.08 22.58 48.13 22.63 48.25 22.63 48.42 22.58 48.54 22.52 48.59 22.4 48.63 22.21 48.63 22.09 48.59 21.97 48.51 21.91 48.38 21.85 48.21 21.79 48.13 21.66 48.08 21.54 48.08 21.43 48.13 21.37 48.25 21.37 48.42"/><polyline class="a" points="21.79 47.23 21.97 47.28 22.09 47.35 22.15 47.49 22.15 47.53 22.09 47.66 21.97 47.75 21.79 47.78 21.72 47.78 21.54 47.75 21.43 47.66 21.37 47.53 21.37 47.49 21.43 47.35 21.54 47.28 21.79 47.23 22.09 47.23 22.4 47.28 22.58 47.35 22.63 47.49 22.63 47.58 22.58 47.7 22.46 47.75"/><polygon class="a" points="22.52 46.85 22.58 46.89 22.63 46.85 22.58 46.8 22.52 46.85"/><polyline class="a" points="21.54 45.96 21.43 46.01 21.37 46.13 21.37 46.22 21.43 46.34 21.6 46.43 21.91 46.48 22.21 46.48 22.46 46.43 22.58 46.34 22.63 46.22 22.63 46.17 22.58 46.05 22.46 45.96 22.27 45.92 22.21 45.92 22.03 45.96 21.91 46.05 21.85 46.17 21.85 46.22 21.91 46.34 22.03 46.43 22.21 46.48"/><polyline class="a" points="21.79 45.12 21.97 45.15 22.09 45.24 22.15 45.37 22.15 45.41 22.09 45.54 21.97 45.62 21.79 45.67 21.72 45.67 21.54 45.62 21.43 45.54 21.37 45.41 21.37 45.37 21.43 45.24 21.54 45.15 21.79 45.12 22.09 45.12 22.4 45.15 22.58 45.24 22.63 45.37 22.63 45.46 22.58 45.58 22.46 45.62"/><polyline class="a" points="27.29 49.38 27.23 49.29 27.05 49.17 28.32 49.17"/><polygon class="a" points="27.05 48.45 27.11 48.57 27.23 48.62 27.35 48.62 27.48 48.57 27.54 48.48 27.6 48.31 27.66 48.19 27.78 48.1 27.9 48.07 28.09 48.07 28.2 48.1 28.26 48.15 28.32 48.27 28.32 48.45 28.26 48.57 28.2 48.62 28.09 48.65 27.9 48.65 27.78 48.62 27.66 48.53 27.6 48.4 27.54 48.24 27.48 48.15 27.35 48.1 27.23 48.1 27.11 48.15 27.05 48.27 27.05 48.45"/><polyline class="a" points="27.48 47.26 27.66 47.3 27.78 47.38 27.84 47.52 27.84 47.55 27.78 47.67 27.66 47.76 27.48 47.81 27.41 47.81 27.23 47.76 27.11 47.67 27.05 47.55 27.05 47.52 27.11 47.38 27.23 47.3 27.48 47.26 27.78 47.26 28.09 47.3 28.26 47.38 28.32 47.52 28.32 47.6 28.26 47.72 28.15 47.76"/><polygon class="a" points="28.2 46.88 28.26 46.91 28.32 46.88 28.26 46.83 28.2 46.88"/><polyline class="a" points="27.48 45.98 27.66 46.02 27.78 46.11 27.84 46.24 27.84 46.28 27.78 46.41 27.66 46.49 27.48 46.54 27.41 46.54 27.23 46.49 27.11 46.41 27.05 46.28 27.05 46.24 27.11 46.11 27.23 46.02 27.48 45.98 27.78 45.98 28.09 46.02 28.26 46.11 28.32 46.24 28.32 46.33 28.26 46.45 28.15 46.49"/><polyline class="a" points="28.32 45.52 27.05 45.09 27.05 45.69"/><polyline class="a" points="32.69 49.38 32.63 49.29 32.44 49.17 33.72 49.17"/><polyline class="a" points="32.86 48.1 33.04 48.15 33.17 48.24 33.23 48.36 33.23 48.4 33.17 48.53 33.04 48.62 32.86 48.65 32.8 48.65 32.63 48.62 32.51 48.53 32.44 48.4 32.44 48.36 32.51 48.24 32.63 48.15 32.86 48.1 33.17 48.1 33.47 48.15 33.66 48.24 33.72 48.36 33.72 48.45 33.66 48.57 33.53 48.62"/><polygon class="a" points="32.44 47.55 32.51 47.67 32.69 47.76 32.98 47.81 33.17 47.81 33.47 47.76 33.66 47.67 33.72 47.55 33.72 47.47 33.66 47.34 33.47 47.26 33.17 47.21 32.98 47.21 32.69 47.26 32.51 47.34 32.44 47.47 32.44 47.55"/><polygon class="a" points="33.59 46.88 33.66 46.91 33.72 46.88 33.66 46.83 33.59 46.88"/><polyline class="a" points="32.44 46.11 33.29 46.53 33.29 45.9"/><line class="a" x1="32.44" y1="46.11" x2="33.72" y2="46.11"/><polyline class="a" points="32.63 45.14 32.51 45.18 32.44 45.3 32.44 45.39 32.51 45.52 32.69 45.61 32.98 45.64 33.29 45.64 33.53 45.61 33.66 45.52 33.72 45.39 33.72 45.35 33.66 45.23 33.53 45.14 33.35 45.09 33.29 45.09 33.1 45.14 32.98 45.23 32.92 45.35 32.92 45.39 32.98 45.52 33.1 45.61 33.29 45.64"/><polyline class="a" points="37.91 49.33 37.85 49.24 37.67 49.12 38.94 49.12"/><polyline class="a" points="38.1 47.21 38.28 47.26 38.39 47.34 38.45 47.47 38.45 47.5 38.39 47.64 38.28 47.72 38.1 47.76 38.04 47.76 37.85 47.72 37.73 47.64 37.67 47.5 37.67 47.47 37.73 47.34 37.85 47.26 38.1 47.21 38.39 47.21 38.7 47.26 38.88 47.34 38.94 47.47 38.94 47.55 38.88 47.67 38.76 47.72"/><polygon class="a" points="38.82 46.83 38.88 46.87 38.94 46.83 38.88 46.79 38.82 46.83"/><polyline class="a" points="37.67 46.07 38.51 46.49 38.51 45.85"/><line class="a" x1="37.67" y1="46.07" x2="38.94" y2="46.07"/><polyline class="a" points="38.1 45.09 38.28 45.13 38.39 45.21 38.45 45.35 38.45 45.39 38.39 45.52 38.28 45.61 38.1 45.64 38.04 45.64 37.85 45.61 37.73 45.52 37.67 45.39 37.67 45.35 37.73 45.21 37.85 45.13 38.1 45.09 38.39 45.09 38.7 45.13 38.88 45.21 38.94 45.35 38.94 45.44 38.88 45.56 38.76 45.61"/><polyline class="a" points="91.61 49.38 91.55 49.29 91.37 49.17 92.64 49.17"/><polygon class="a" points="91.37 48.45 91.43 48.57 91.55 48.62 91.67 48.62 91.78 48.57 91.84 48.48 91.9 48.31 91.97 48.19 92.09 48.1 92.21 48.07 92.39 48.07 92.52 48.1 92.58 48.15 92.64 48.27 92.64 48.45 92.58 48.57 92.52 48.62 92.39 48.65 92.21 48.65 92.09 48.62 91.97 48.53 91.9 48.4 91.84 48.24 91.78 48.15 91.67 48.1 91.55 48.1 91.43 48.15 91.37 48.27 91.37 48.45"/><polygon class="a" points="92.52 46.88 92.58 46.91 92.64 46.88 92.58 46.83 92.52 46.88"/><polyline class="a" points="91.37 46.02 91.37 46.45 91.9 46.49 91.84 46.45 91.78 46.33 91.78 46.19 91.84 46.07 91.97 45.98 92.15 45.94 92.27 45.94 92.45 45.98 92.58 46.07 92.64 46.19 92.64 46.33 92.58 46.45 92.52 46.49 92.39 46.54"/><polyline class="a" points="91.67 45.64 91.61 45.64 91.49 45.6 91.43 45.56 91.37 45.47 91.37 45.3 91.43 45.23 91.49 45.18 91.61 45.14 91.73 45.14 91.84 45.18 92.03 45.26 92.64 45.69 92.64 45.09"/><polyline class="a" points="112.38 48.95 112.32 48.86 112.13 48.74 113.41 48.74"/><polygon class="a" points="112.13 47.17 112.19 47.29 112.32 47.34 112.44 47.34 112.55 47.29 112.61 47.21 112.67 47.05 112.73 46.91 112.86 46.83 112.98 46.79 113.16 46.79 113.28 46.83 113.34 46.88 113.41 47 113.41 47.17 113.34 47.29 113.28 47.34 113.16 47.38 112.98 47.38 112.86 47.34 112.73 47.26 112.67 47.12 112.61 46.96 112.55 46.88 112.44 46.83 112.32 46.83 112.19 46.88 112.13 47 112.13 47.17"/><polygon class="a" points="113.28 46.45 113.34 46.49 113.41 46.45 113.34 46.41 113.28 46.45"/><polyline class="a" points="134.04 49.38 133.98 49.29 133.81 49.17 135.07 49.17"/><polygon class="a" points="133.81 48.45 133.85 48.57 133.98 48.62 134.1 48.62 134.22 48.57 134.28 48.48 134.34 48.31 134.41 48.19 134.53 48.1 134.65 48.07 134.83 48.07 134.96 48.1 135.02 48.15 135.06 48.27 135.06 48.45 135.02 48.57 134.96 48.62 134.83 48.65 134.65 48.65 134.53 48.62 134.41 48.53 134.34 48.4 134.28 48.24 134.22 48.15 134.1 48.1 133.98 48.1 133.85 48.15 133.81 48.27 133.81 48.45"/><polygon class="a" points="133.81 47.6 133.85 47.72 133.98 47.76 134.1 47.76 134.22 47.72 134.28 47.64 134.34 47.47 134.41 47.34 134.53 47.26 134.65 47.21 134.83 47.21 134.96 47.26 135.02 47.29 135.06 47.43 135.06 47.6 135.02 47.72 134.96 47.76 134.83 47.81 134.65 47.81 134.53 47.76 134.41 47.67 134.34 47.55 134.28 47.38 134.22 47.29 134.1 47.26 133.98 47.26 133.85 47.29 133.81 47.43 133.81 47.6"/><polygon class="a" points="134.96 46.88 135.02 46.91 135.07 46.88 135.02 46.83 134.96 46.88"/><polyline class="a" points="134.04 46.41 133.98 46.33 133.81 46.19 135.07 46.19"/><polyline class="a" points="133.81 45.61 133.81 45.14 134.28 45.39 134.28 45.26 134.34 45.18 134.41 45.14 134.59 45.09 134.71 45.09 134.89 45.14 135.02 45.23 135.06 45.35 135.06 45.47 135.02 45.61 134.96 45.64 134.83 45.69"/><polyline class="a" points="145.39 49.4 145.33 49.31 145.15 49.18 146.42 49.18"/><polygon class="a" points="146.3 46.89 146.36 46.94 146.42 46.89 146.36 46.85 146.3 46.89"/><polygon class="a" points="145.15 46.3 145.21 46.42 145.39 46.51 145.7 46.56 145.88 46.56 146.19 46.51 146.36 46.42 146.42 46.3 146.42 46.22 146.36 46.09 146.19 46.01 145.88 45.96 145.7 45.96 145.39 46.01 145.21 46.09 145.15 46.22 145.15 46.3"/><polyline class="a" points="145.15 45.29 146.01 45.7 146.01 45.07"/><line class="a" x1="145.15" y1="45.29" x2="146.42" y2="45.29"/><polyline class="a" points="152.98 49.38 152.92 49.29 152.74 49.17 154.01 49.17"/><polygon class="a" points="152.74 48.45 152.8 48.57 152.92 48.62 153.04 48.62 153.16 48.57 153.23 48.48 153.29 48.31 153.35 48.19 153.47 48.1 153.59 48.07 153.76 48.07 153.89 48.1 153.95 48.15 154.01 48.27 154.01 48.45 153.95 48.57 153.89 48.62 153.76 48.65 153.59 48.65 153.47 48.62 153.35 48.53 153.29 48.4 153.23 48.24 153.16 48.15 153.04 48.1 152.92 48.1 152.8 48.15 152.74 48.27 152.74 48.45"/><polyline class="a" points="154.01 47.64 152.74 47.21 152.74 47.81"/><polygon class="a" points="153.89 46.88 153.95 46.91 154.01 46.88 153.95 46.83 153.89 46.88"/><polyline class="a" points="153.16 45.98 153.35 46.02 153.47 46.11 153.53 46.24 153.53 46.28 153.47 46.41 153.35 46.49 153.16 46.54 153.1 46.54 152.92 46.49 152.8 46.41 152.74 46.28 152.74 46.24 152.8 46.11 152.92 46.02 153.16 45.98 153.47 45.98 153.76 46.02 153.95 46.11 154.01 46.24 154.01 46.33 153.95 46.45 153.83 46.49"/><polyline class="a" points="153.04 45.64 152.98 45.64 152.86 45.6 152.8 45.56 152.74 45.47 152.74 45.3 152.8 45.23 152.86 45.18 152.98 45.14 153.1 45.14 153.23 45.18 153.41 45.26 154.01 45.69 154.01 45.09"/><polyline class="a" points="38.13 8.59 45.07 8.59 45.56 8.17 81.85 8.17"/><polyline class="a" points="85.7 6.07 83.53 6.07 81.85 8.17"/><line class="a" x1="85.7" y1="6.07" x2="89.15" y2="10.77"/><polygon class="a" points="2.07 41.24 2.07 40.31 2.38 40.31 2.51 40.34 2.61 40.43 2.65 40.53 2.69 40.66 2.69 40.88 2.65 41 2.61 41.1 2.51 41.19 2.38 41.24 2.07 41.24"/><line class="a" x1="3" y1="40.31" x2="3" y2="41.24"/><line class="a" x1="4.42" y1="40.31" x2="4.42" y2="41.24"/><line class="a" x1="4.11" y1="40.31" x2="4.73" y2="40.31"/><rect class="a" x="4.96" y="41.15" width="0.07" height="0.07" transform="translate(-27.66 15.6) rotate(-45)"/><polyline class="a" points="6.33 41.24 6.33 40.31 6.72 40.31 6.86 40.34 6.9 40.39 6.94 40.48 6.94 40.61 6.9 40.7 6.86 40.75 6.72 40.78 6.33 40.78"/><polyline class="a" points="7.26 41.24 7.26 40.31 7.65 40.31 7.79 40.34 7.83 40.39 7.87 40.48 7.87 40.56 7.83 40.66 7.79 40.7 7.65 40.75 7.26 40.75"/><line class="a" x1="7.57" y1="40.75" x2="7.87" y2="41.24"/><polyline class="a" points="10.09 41.24 10.09 40.31 10.49 40.31 10.62 40.34 10.66 40.39 10.71 40.48 10.71 40.56 10.66 40.66 10.62 40.7 10.49 40.75 10.09 40.75"/><line class="a" x1="10.4" y1="40.75" x2="10.71" y2="41.24"/><polyline class="a" points="11.02 41.24 11.02 40.31 11.59 40.31"/><line class="a" x1="11.02" y1="40.75" x2="11.37" y2="40.75"/><line class="a" x1="11.02" y1="41.24" x2="11.59" y2="41.24"/><polyline class="a" points="13.32 40.43 13.23 40.34 13.1 40.31 12.93 40.31 12.79 40.34 12.71 40.43 12.71 40.53 12.74 40.61 12.79 40.66 12.88 40.7 13.15 40.78 13.23 40.83 13.28 40.88 13.32 40.97 13.32 41.1 13.23 41.19 13.1 41.24 12.93 41.24 12.79 41.19 12.71 41.1"/><line class="a" x1="13.63" y1="40.31" x2="13.63" y2="41.24"/><polyline class="a" points="13.86 40.31 14.21 41.24 14.56 40.31"/><polyline class="a" points="14.65 41.24 15.01 40.31 15.36 41.24"/><line class="a" x1="14.79" y1="40.92" x2="15.23" y2="40.92"/><line class="a" x1="2.69" y1="42.34" x2="2.69" y2="42.96"/><polyline class="a" points="2.69 42.52 2.83 42.39 2.92 42.34 3.05 42.34 3.14 42.39 3.19 42.52 3.19 42.96"/><polyline class="a" points="3.18 42.52 3.31 42.39 3.4 42.34 3.54 42.34 3.63 42.39 3.66 42.52 3.66 42.96"/><polygon class="a" points="2.07 36.39 2.07 35.46 2.38 35.46 2.51 35.5 2.61 35.6 2.65 35.68 2.69 35.82 2.69 36.04 2.65 36.17 2.61 36.26 2.51 36.34 2.38 36.39 2.07 36.39"/><line class="a" x1="3" y1="35.46" x2="3" y2="36.39"/><line class="a" x1="4.42" y1="35.46" x2="4.42" y2="36.39"/><line class="a" x1="4.11" y1="35.46" x2="4.73" y2="35.46"/><polygon class="a" points="5 36.3 4.95 36.34 5 36.39 5.04 36.34 5 36.3"/><polyline class="a" points="6.33 36.39 6.33 35.46 6.72 35.46 6.86 35.5 6.9 35.55 6.94 35.63 6.94 35.77 6.9 35.85 6.86 35.9 6.72 35.95 6.33 35.95"/><polyline class="a" points="7.13 36.39 7.48 35.46 7.83 36.39"/><line class="a" x1="7.26" y1="36.07" x2="7.7" y2="36.07"/><polyline class="a" points="8.05 36.39 8.05 35.46 8.45 35.46 8.58 35.5 8.63 35.55 8.67 35.63 8.67 35.73 8.63 35.82 8.58 35.85 8.45 35.9 8.05 35.9"/><line class="a" x1="8.36" y1="35.9" x2="8.67" y2="36.39"/><polyline class="a" points="8.94 36.39 9.56 35.46 8.94 35.46"/><line class="a" x1="8.94" y1="36.39" x2="9.56" y2="36.39"/><line class="a" x1="9.87" y1="35.46" x2="9.87" y2="36.39"/><polyline class="a" points="10.09 36.39 10.44 35.46 10.8 36.39"/><line class="a" x1="10.22" y1="36.07" x2="10.66" y2="36.07"/><polyline class="a" points="11.02 35.46 11.02 36.39 11.55 36.39"/><polyline class="a" points="11.78 36.39 11.78 35.46 12.35 35.46"/><line class="a" x1="11.77" y1="35.9" x2="12.13" y2="35.9"/><line class="a" x1="11.77" y1="36.39" x2="12.35" y2="36.39"/><line class="a" x1="2.69" y1="37.49" x2="2.69" y2="38.12"/><polyline class="a" points="2.69 37.68 2.83 37.54 2.92 37.49 3.05 37.49 3.14 37.54 3.19 37.68 3.19 38.12"/><polyline class="a" points="3.18 37.68 3.31 37.54 3.4 37.49 3.54 37.49 3.63 37.54 3.66 37.68 3.66 38.12"/><polyline class="a" points="2.07 32.5 2.43 33.43 2.78 32.5"/><polyline class="a" points="3 33.43 3 32.5 3.58 32.5"/><line class="a" x1="3" y1="32.95" x2="3.36" y2="32.95"/><line class="a" x1="3" y1="33.43" x2="3.58" y2="33.43"/><line class="a" x1="4.15" y1="32.95" x2="4.47" y2="33.43"/><line class="a" x1="4.95" y1="32.5" x2="4.95" y2="33.43"/><line class="a" x1="4.64" y1="32.5" x2="5.26" y2="32.5"/><line class="a" x1="5.48" y1="32.5" x2="5.48" y2="33.43"/><line class="a" x1="6.77" y1="32.5" x2="6.77" y2="33.43"/><line class="a" x1="2.47" y1="46.63" x2="2.73" y2="46.9"/><polyline class="a" points="3.09 45.89 3.09 46.55 3.13 46.68 3.22 46.77 3.35 46.82 3.44 46.82 3.58 46.77 3.66 46.68 3.71 46.55 3.71 45.89"/><line class="a" x1="5.22" y1="45.89" x2="5.22" y2="46.82"/><line class="a" x1="4.91" y1="45.89" x2="5.52" y2="45.89"/><polyline class="a" points="5.62 46.82 5.97 45.89 6.33 46.82"/><line class="a" x1="5.75" y1="46.5" x2="6.2" y2="46.5"/><line class="a" x1="7.65" y1="45.89" x2="7.65" y2="46.82"/><line class="a" x1="7.35" y1="45.89" x2="7.96" y2="45.89"/><polyline class="a" points="8.19 46.82 8.19 45.89 8.76 45.89"/><line class="a" x1="8.19" y1="46.33" x2="8.54" y2="46.33"/><line class="a" x1="8.19" y1="46.82" x2="8.76" y2="46.82"/><polyline class="a" points="9.02 46.82 9.02 45.89 9.43 45.89 9.56 45.92 9.6 45.97 9.65 46.06 9.65 46.14 9.6 46.24 9.56 46.28 9.43 46.33 9.02 46.33"/><line class="a" x1="9.34" y1="46.33" x2="9.65" y2="46.82"/><polyline class="a" points="9.95 46.82 9.95 45.89 10.36 45.89 10.49 45.92 10.53 45.97 10.58 46.06 10.58 46.14 10.53 46.24 10.49 46.28 10.36 46.33 9.95 46.33"/><line class="a" x1="10.27" y1="46.33" x2="10.58" y2="46.82"/><polyline class="a" points="10.88 46.82 10.88 45.89 11.46 45.89"/><line class="a" x1="10.88" y1="46.33" x2="11.24" y2="46.33"/><line class="a" x1="10.88" y1="46.82" x2="11.46" y2="46.82"/><polyline class="a" points="11.73 46.82 11.73 45.89 12.35 46.82 12.35 45.89"/><line class="a" x1="2.69" y1="47.92" x2="2.69" y2="48.54"/><polyline class="a" points="2.69 48.1 2.83 47.97 2.92 47.92 3.05 47.92 3.14 47.97 3.19 48.1 3.19 48.54"/><polyline class="a" points="3.18 48.1 3.31 47.97 3.4 47.92 3.54 47.92 3.63 47.97 3.66 48.1 3.66 48.54"/><polyline class="a" points="5.4 48.05 5.35 47.97 5.21 47.92 5.08 47.92 4.95 47.97 4.91 48.05 4.95 48.14 5.04 48.19 5.26 48.22 5.35 48.27 5.4 48.36 5.4 48.41 5.35 48.49 5.21 48.54 5.08 48.54 4.95 48.49 4.91 48.41"/><polygon class="a" points="5.75 48.45 5.71 48.49 5.75 48.54 5.79 48.49 5.75 48.45"/><line class="a" x1="6.15" y1="47.61" x2="6.15" y2="48.54"/><polygon class="a" points="6.55 48.45 6.5 48.49 6.55 48.54 6.59 48.49 6.55 48.45"/><line class="a" x1="6.94" y1="47.92" x2="6.94" y2="48.54"/><polyline class="a" points="6.94 48.1 7.08 47.97 7.16 47.92 7.3 47.92 7.38 47.97 7.43 48.1 7.43 48.54"/><polyline class="a" points="7.43 48.1 7.57 47.97 7.65 47.92 7.79 47.92 7.87 47.97 7.92 48.1 7.92 48.54"/><polygon class="a" points="8.31 48.45 8.28 48.49 8.31 48.54 8.36 48.49 8.31 48.45"/><line class="b" x1="49.78" y1="8.17" x2="54.8" y2="9.64"/><line class="a" x1="89.15" y1="10.77" x2="91.97" y2="10.83"/><line class="a" x1="45.07" y1="8.59" x2="45.07" y2="30.53"/><line class="a" x1="45.56" y1="8.17" x2="45.56" y2="30.53"/><line class="a" x1="81.85" y1="8.17" x2="81.85" y2="30.53"/><line class="a" x1="83.53" y1="6.07" x2="83.53" y2="30.53"/><line class="a" x1="85.7" y1="6.07" x2="85.7" y2="30.53"/><line class="a" x1="89.15" y1="10.77" x2="89.15" y2="30.53"/><line class="a" x1="63.7" y1="8.17" x2="63.7" y2="30.53"/><polyline class="a" points="44.83 32.41 44.78 32.3 44.61 32.24 44.48 32.24 44.31 32.3 44.2 32.48 44.14 32.76 44.14 33.04 44.2 33.27 44.31 33.38 44.48 33.44 44.55 33.44 44.72 33.38 44.83 33.27 44.89 33.1 44.89 33.04 44.83 32.87 44.72 32.76 44.55 32.7 44.48 32.7 44.31 32.76 44.2 32.87 44.14 33.04"/><polyline class="a" points="46.04 33.44 46.6 32.24 45.81 32.24"/><polygon class="a" points="63.59 32.24 63.42 32.3 63.37 32.41 63.37 32.52 63.42 32.65 63.54 32.7 63.76 32.76 63.93 32.82 64.05 32.93 64.1 33.04 64.1 33.21 64.05 33.33 63.99 33.38 63.82 33.44 63.59 33.44 63.42 33.38 63.37 33.33 63.31 33.21 63.31 33.04 63.37 32.93 63.48 32.82 63.65 32.76 63.88 32.7 63.99 32.65 64.05 32.52 64.05 32.41 63.99 32.3 63.82 32.24 63.59 32.24"/><polyline class="a" points="82.21 32.65 82.16 32.82 82.04 32.93 81.87 32.99 81.82 32.99 81.65 32.93 81.53 32.82 81.48 32.65 81.48 32.59 81.53 32.41 81.65 32.3 81.82 32.24 81.87 32.24 82.04 32.3 82.16 32.41 82.21 32.65 82.21 32.93 82.16 33.21 82.04 33.38 81.87 33.44 81.76 33.44 81.59 33.38 81.53 33.27"/><polyline class="a" points="82.78 32.48 82.9 32.41 83.07 32.24 83.07 33.44"/><polygon class="a" points="84.08 32.24 83.91 32.3 83.8 32.48 83.74 32.76 83.74 32.93 83.8 33.21 83.91 33.38 84.08 33.44 84.21 33.44 84.38 33.38 84.49 33.21 84.55 32.93 84.55 32.76 84.49 32.48 84.38 32.3 84.21 32.24 84.08 32.24"/><polyline class="a" points="85.21 32.48 85.33 32.41 85.5 32.24 85.5 33.44"/><polyline class="a" points="86.36 32.48 86.47 32.41 86.64 32.24 86.64 33.44"/><polyline class="a" points="88.27 32.48 88.38 32.41 88.55 32.24 88.55 33.44"/><polyline class="a" points="89.3 32.52 89.3 32.48 89.36 32.35 89.41 32.3 89.53 32.24 89.75 32.24 89.87 32.3 89.92 32.35 89.98 32.48 89.98 32.59 89.92 32.7 89.81 32.87 89.24 33.44 90.05 33.44"/><line class="a" x1="45.07" y1="35.16" x2="45.07" y2="38.85"/><line class="a" x1="45.56" y1="35.16" x2="45.56" y2="38.85"/><line class="a" x1="63.7" y1="35.16" x2="63.7" y2="38.85"/><line class="a" x1="81.85" y1="35.16" x2="81.85" y2="38.85"/><line class="a" x1="83.53" y1="35.16" x2="83.53" y2="38.85"/><line class="a" x1="85.7" y1="35.16" x2="85.7" y2="38.85"/><line class="a" x1="89.15" y1="35.16" x2="89.15" y2="38.85"/><polyline class="a" points="41.29 36.44 41.78 36.44 41.51 36.8 41.65 36.8 41.73 36.83 41.78 36.88 41.83 37.02 41.83 37.1 41.78 37.23 41.7 37.32 41.56 37.36 41.43 37.36 41.29 37.32 41.25 37.27 41.2 37.19"/><polygon class="a" points="45.32 36.86 45.28 36.91 45.32 36.94 45.37 36.91 45.32 36.86"/><polyline class="a" points="53.67 37.36 54.12 36.44 53.5 36.44"/><polygon class="a" points="54.47 37.27 54.42 37.32 54.47 37.36 54.51 37.32 54.47 37.27"/><polygon class="a" points="55.05 36.44 54.91 36.48 54.86 36.58 54.86 36.66 54.91 36.75 55 36.8 55.17 36.83 55.3 36.88 55.39 36.97 55.44 37.05 55.44 37.19 55.39 37.27 55.35 37.32 55.22 37.36 55.05 37.36 54.91 37.32 54.86 37.27 54.83 37.19 54.83 37.05 54.86 36.97 54.95 36.88 55.08 36.83 55.27 36.8 55.35 36.75 55.39 36.66 55.39 36.58 55.35 36.48 55.22 36.44 55.05 36.44"/><polyline class="a" points="72.29 37.36 72.73 36.44 72.1 36.44"/><polygon class="a" points="73.07 37.27 73.03 37.32 73.07 37.36 73.12 37.32 73.07 37.27"/><polygon class="a" points="82.2 37.68 82.25 37.81 82.39 37.9 82.61 37.95 82.73 37.95 82.95 37.9 83.08 37.81 83.13 37.68 83.13 37.59 83.08 37.46 82.95 37.37 82.73 37.32 82.61 37.32 82.39 37.37 82.25 37.46 82.2 37.59 82.2 37.68"/><polygon class="a" points="83.05 36.98 83.08 37.02 83.13 36.98 83.08 36.93 83.05 36.98"/><polyline class="a" points="83.13 36.44 82.2 36 82.2 36.62"/><polygon class="a" points="84.19 37.66 84.23 37.8 84.37 37.88 84.59 37.92 84.72 37.92 84.94 37.88 85.08 37.8 85.11 37.66 85.11 37.58 85.08 37.44 84.94 37.36 84.72 37.31 84.59 37.31 84.37 37.36 84.23 37.44 84.19 37.58 84.19 37.66"/><polygon class="a" points="85.03 36.95 85.08 37 85.11 36.95 85.08 36.92 85.03 36.95"/><polyline class="a" points="84.5 36.04 84.64 36.07 84.72 36.16 84.77 36.29 84.77 36.34 84.72 36.48 84.64 36.56 84.5 36.6 84.45 36.6 84.33 36.56 84.23 36.48 84.19 36.34 84.19 36.29 84.23 36.16 84.33 36.07 84.5 36.04 84.72 36.04 84.94 36.07 85.08 36.16 85.11 36.29 85.11 36.38 85.08 36.51 84.99 36.56"/><polyline class="a" points="86.37 36.61 86.46 36.57 86.59 36.44 86.59 37.36"/><polygon class="a" points="87.21 37.27 87.17 37.32 87.21 37.36 87.25 37.32 87.21 37.27"/><polyline class="a" points="88.09 36.44 87.65 36.44 87.61 36.83 87.65 36.8 87.78 36.75 87.92 36.75 88.05 36.8 88.14 36.88 88.19 37.02 88.19 37.1 88.14 37.23 88.05 37.32 87.92 37.36 87.78 37.36 87.65 37.32 87.61 37.27 87.56 37.19"/><polyline class="a" points="89.59 36.61 89.68 36.57 89.81 36.44 89.81 37.36"/><polygon class="a" points="90.44 37.27 90.39 37.32 90.44 37.36 90.47 37.32 90.44 37.27"/><polyline class="a" points="90.83 36.66 90.83 36.61 90.88 36.52 90.91 36.48 91 36.44 91.18 36.44 91.27 36.48 91.32 36.52 91.35 36.61 91.35 36.7 91.32 36.8 91.22 36.92 90.78 37.36 91.4 37.36"/><polyline class="a" points="44 42.84 43.94 42.75 43.75 42.63 45.02 42.63"/><polyline class="a" points="44.06 42.08 44 42.08 43.87 42.03 43.81 41.99 43.75 41.91 43.75 41.74 43.81 41.65 43.87 41.62 44 41.57 44.12 41.57 44.42 41.69 45.02 42.12 45.02 41.53"/><polygon class="a" points="44.9 41.19 44.96 41.23 45.02 41.19 44.96 41.14 44.9 41.19"/><polyline class="a" points="44 40.72 43.94 40.64 43.75 40.5 45.02 40.5"/><polyline class="a" points="45.84 42.96 45.78 42.88 45.61 42.75 46.88 42.75"/><polyline class="a" points="45.91 42.2 45.84 42.2 45.73 42.17 45.67 42.12 45.61 42.03 45.61 41.86 45.67 41.78 45.73 41.74 45.84 41.69 45.97 41.69 46.09 41.74 46.27 41.83 46.88 42.25 46.88 41.65"/><polygon class="a" points="46.76 41.31 46.82 41.36 46.88 41.31 46.82 41.27 46.76 41.31"/><polyline class="a" points="45.61 40.89 45.61 40.43 46.09 40.67 46.09 40.55 46.15 40.47 46.21 40.43 46.39 40.38 46.52 40.38 46.7 40.43 46.82 40.5 46.88 40.64 46.88 40.76 46.82 40.89 46.76 40.93 46.64 40.98"/><polyline class="a" points="63.37 42.99 63.31 42.99 63.18 42.95 63.13 42.9 63.07 42.82 63.07 42.64 63.13 42.56 63.18 42.52 63.31 42.48 63.43 42.48 63.55 42.52 63.73 42.61 64.35 43.04 64.35 42.44"/><polygon class="a" points="63.07 41.94 63.13 42.06 63.31 42.14 63.61 42.18 63.8 42.18 64.1 42.14 64.28 42.06 64.35 41.94 64.35 41.85 64.28 41.72 64.1 41.63 63.8 41.59 63.61 41.59 63.31 41.63 63.13 41.72 63.07 41.85 63.07 41.94"/><polygon class="a" points="64.22 41.25 64.28 41.3 64.35 41.25 64.28 41.21 64.22 41.25"/><polyline class="a" points="63.37 40.87 63.31 40.87 63.18 40.82 63.13 40.78 63.07 40.7 63.07 40.53 63.13 40.44 63.18 40.41 63.31 40.36 63.43 40.36 63.55 40.41 63.73 40.49 64.35 40.91 64.35 40.32"/><polyline class="a" points="81.52 42.35 81.45 42.35 81.33 42.31 81.27 42.27 81.21 42.18 81.21 42.01 81.27 41.94 81.33 41.89 81.45 41.85 81.58 41.85 81.7 41.89 81.88 41.97 82.48 42.4 82.48 41.8"/><polygon class="a" points="81.21 41.34 81.27 41.46 81.39 41.51 81.52 41.51 81.64 41.46 81.7 41.37 81.76 41.21 81.82 41.08 81.94 40.99 82.05 40.96 82.24 40.96 82.36 40.99 82.42 41.04 82.48 41.16 82.48 41.34 82.42 41.46 82.36 41.51 82.24 41.54 82.05 41.54 81.94 41.51 81.82 41.42 81.76 41.3 81.7 41.13 81.64 41.04 81.52 40.99 81.39 40.99 81.27 41.04 81.21 41.16 81.21 41.34"/><polyline class="a" points="83.2 42.99 83.14 42.99 83.02 42.95 82.96 42.9 82.9 42.82 82.9 42.64 82.96 42.56 83.02 42.52 83.14 42.48 83.27 42.48 83.39 42.52 83.57 42.61 84.17 43.04 84.17 42.44"/><polygon class="a" points="82.9 41.97 82.96 42.09 83.08 42.14 83.2 42.14 83.33 42.09 83.39 42.01 83.45 41.85 83.51 41.71 83.63 41.63 83.74 41.59 83.93 41.59 84.05 41.63 84.11 41.68 84.17 41.8 84.17 41.97 84.11 42.09 84.05 42.14 83.93 42.18 83.74 42.18 83.63 42.14 83.51 42.06 83.45 41.93 83.39 41.76 83.33 41.68 83.2 41.63 83.08 41.63 82.96 41.68 82.9 41.8 82.9 41.97"/><polygon class="a" points="84.05 41.25 84.11 41.3 84.17 41.25 84.11 41.21 84.05 41.25"/><polyline class="a" points="84.17 40.75 82.9 40.32 82.9 40.91"/><polyline class="a" points="85.37 42.99 85.31 42.99 85.19 42.95 85.13 42.9 85.06 42.82 85.06 42.64 85.13 42.56 85.19 42.52 85.31 42.48 85.43 42.48 85.55 42.52 85.72 42.61 86.34 43.04 86.34 42.44"/><polyline class="a" points="85.49 41.63 85.66 41.68 85.79 41.76 85.85 41.89 85.85 41.94 85.79 42.06 85.66 42.14 85.49 42.18 85.43 42.18 85.25 42.14 85.13 42.06 85.06 41.94 85.06 41.89 85.13 41.76 85.25 41.68 85.49 41.63 85.79 41.63 86.09 41.68 86.28 41.76 86.34 41.89 86.34 41.97 86.28 42.09 86.15 42.14"/><polygon class="a" points="86.21 41.25 86.28 41.3 86.34 41.25 86.28 41.21 86.21 41.25"/><polyline class="a" points="86.34 40.75 85.06 40.32 85.06 40.91"/><polyline class="a" points="88.52 42.95 88.52 42.48 89 42.73 89 42.61 89.07 42.52 89.13 42.48 89.31 42.44 89.43 42.44 89.6 42.48 89.73 42.56 89.79 42.69 89.79 42.81 89.73 42.95 89.67 42.99 89.54 43.04"/><polyline class="a" points="88.76 42.06 88.7 41.97 88.52 41.85 89.79 41.85"/><polygon class="a" points="89.67 41.25 89.73 41.3 89.79 41.25 89.73 41.21 89.67 41.25"/><polyline class="a" points="88.82 40.87 88.76 40.87 88.64 40.82 88.58 40.78 88.52 40.7 88.52 40.53 88.58 40.44 88.64 40.41 88.76 40.36 88.88 40.36 89 40.41 89.19 40.49 89.79 40.91 89.79 40.32"/><polyline class="a" points="43.97 49.35 43.92 49.26 43.74 49.14 45.01 49.14"/><polygon class="a" points="43.74 48.42 43.8 48.54 43.92 48.59 44.03 48.59 44.16 48.54 44.22 48.47 44.28 48.3 44.34 48.16 44.46 48.08 44.58 48.04 44.77 48.04 44.89 48.08 44.95 48.13 45.01 48.25 45.01 48.42 44.95 48.54 44.89 48.59 44.77 48.63 44.58 48.63 44.46 48.59 44.34 48.51 44.28 48.38 44.22 48.21 44.16 48.13 44.03 48.08 43.92 48.08 43.8 48.13 43.74 48.25 43.74 48.42"/><polyline class="a" points="44.16 47.23 44.34 47.28 44.46 47.35 44.52 47.49 44.52 47.53 44.46 47.66 44.34 47.75 44.16 47.78 44.09 47.78 43.92 47.75 43.8 47.66 43.74 47.53 43.74 47.49 43.8 47.35 43.92 47.28 44.16 47.23 44.46 47.23 44.77 47.28 44.95 47.35 45.01 47.49 45.01 47.58 44.95 47.7 44.83 47.75"/><polygon class="a" points="44.89 46.85 44.95 46.89 45.01 46.85 44.95 46.8 44.89 46.85"/><polyline class="a" points="43.74 46.09 44.58 46.51 44.58 45.88"/><line class="a" x1="43.74" y1="46.1" x2="45.01" y2="46.1"/><polyline class="a" points="44.16 45.12 44.34 45.15 44.46 45.24 44.52 45.37 44.52 45.41 44.46 45.54 44.34 45.62 44.16 45.67 44.09 45.67 43.92 45.62 43.8 45.54 43.74 45.41 43.74 45.37 43.8 45.24 43.92 45.15 44.16 45.12 44.46 45.12 44.77 45.15 44.95 45.24 45.01 45.37 45.01 45.46 44.95 45.58 44.83 45.62"/><polyline class="a" points="45.84 49.38 45.78 49.29 45.6 49.17 46.87 49.17"/><polygon class="a" points="45.6 48.45 45.66 48.57 45.78 48.62 45.91 48.62 46.02 48.57 46.08 48.48 46.14 48.31 46.2 48.19 46.32 48.1 46.44 48.07 46.63 48.07 46.75 48.1 46.81 48.15 46.87 48.27 46.87 48.45 46.81 48.57 46.75 48.62 46.63 48.65 46.44 48.65 46.32 48.62 46.2 48.53 46.14 48.4 46.08 48.24 46.02 48.15 45.91 48.1 45.78 48.1 45.66 48.15 45.6 48.27 45.6 48.45"/><polyline class="a" points="46.02 47.26 46.2 47.3 46.32 47.38 46.38 47.52 46.38 47.55 46.32 47.67 46.2 47.76 46.02 47.81 45.95 47.81 45.78 47.76 45.66 47.67 45.6 47.55 45.6 47.52 45.66 47.38 45.78 47.3 46.02 47.26 46.32 47.26 46.63 47.3 46.81 47.38 46.87 47.52 46.87 47.6 46.81 47.72 46.69 47.76"/><polygon class="a" points="46.75 46.88 46.81 46.91 46.87 46.88 46.81 46.83 46.75 46.88"/><polyline class="a" points="45.78 45.98 45.66 46.02 45.6 46.16 45.6 46.24 45.66 46.36 45.84 46.45 46.14 46.49 46.44 46.49 46.69 46.45 46.81 46.36 46.87 46.24 46.87 46.19 46.81 46.07 46.69 45.98 46.5 45.94 46.44 45.94 46.26 45.98 46.14 46.07 46.08 46.19 46.08 46.24 46.14 46.36 46.26 46.45 46.44 46.49"/><polyline class="a" points="46.87 45.52 45.6 45.09 45.6 45.69"/><polyline class="a" points="63.31 49.38 63.24 49.29 63.06 49.17 64.33 49.17"/><polygon class="a" points="63.06 48.45 63.12 48.57 63.24 48.62 63.37 48.62 63.49 48.57 63.55 48.48 63.61 48.31 63.67 48.19 63.8 48.1 63.92 48.07 64.1 48.07 64.21 48.1 64.27 48.15 64.33 48.27 64.33 48.45 64.27 48.57 64.21 48.62 64.1 48.65 63.92 48.65 63.8 48.62 63.67 48.53 63.61 48.4 63.55 48.24 63.49 48.15 63.37 48.1 63.24 48.1 63.12 48.15 63.06 48.27 63.06 48.45"/><polyline class="a" points="63.49 47.26 63.67 47.3 63.8 47.38 63.86 47.52 63.86 47.55 63.8 47.67 63.67 47.76 63.49 47.81 63.43 47.81 63.24 47.76 63.12 47.67 63.06 47.55 63.06 47.52 63.12 47.38 63.24 47.3 63.49 47.26 63.8 47.26 64.1 47.3 64.27 47.38 64.33 47.52 64.33 47.6 64.27 47.72 64.16 47.76"/><polygon class="a" points="64.21 46.88 64.27 46.91 64.33 46.88 64.27 46.83 64.21 46.88"/><polyline class="a" points="63.24 45.98 63.12 46.02 63.06 46.16 63.06 46.24 63.12 46.36 63.31 46.45 63.61 46.49 63.92 46.49 64.16 46.45 64.27 46.36 64.33 46.24 64.33 46.19 64.27 46.07 64.16 45.98 63.98 45.94 63.92 45.94 63.73 45.98 63.61 46.07 63.55 46.19 63.55 46.24 63.61 46.36 63.73 46.45 63.92 46.49"/><polyline class="a" points="64.33 45.52 63.06 45.09 63.06 45.69"/><polyline class="a" points="81.45 49.38 81.39 49.29 81.21 49.17 82.48 49.17"/><polygon class="a" points="81.21 48.45 81.27 48.57 81.39 48.62 81.52 48.62 81.64 48.57 81.7 48.48 81.76 48.31 81.82 48.19 81.93 48.1 82.05 48.07 82.24 48.07 82.36 48.1 82.42 48.15 82.48 48.27 82.48 48.45 82.42 48.57 82.36 48.62 82.24 48.65 82.05 48.65 81.93 48.62 81.82 48.53 81.76 48.4 81.7 48.24 81.64 48.15 81.52 48.1 81.39 48.1 81.27 48.15 81.21 48.27 81.21 48.45"/><polyline class="a" points="81.64 47.26 81.82 47.3 81.93 47.38 81.99 47.52 81.99 47.55 81.93 47.67 81.82 47.76 81.64 47.81 81.58 47.81 81.39 47.76 81.27 47.67 81.21 47.55 81.21 47.52 81.27 47.38 81.39 47.3 81.64 47.26 81.93 47.26 82.24 47.3 82.42 47.38 82.48 47.52 82.48 47.6 82.42 47.72 82.3 47.76"/><polygon class="a" points="82.36 46.88 82.42 46.91 82.48 46.88 82.42 46.83 82.36 46.88"/><polyline class="a" points="81.39 45.98 81.27 46.02 81.21 46.16 81.21 46.24 81.27 46.36 81.45 46.45 81.76 46.49 82.05 46.49 82.3 46.45 82.42 46.36 82.48 46.24 82.48 46.19 82.42 46.07 82.3 45.98 82.11 45.94 82.05 45.94 81.87 45.98 81.76 46.07 81.7 46.19 81.7 46.24 81.76 46.36 81.87 46.45 82.05 46.49"/><polyline class="a" points="82.48 45.52 81.21 45.09 81.21 45.69"/><polyline class="a" points="83.14 49.38 83.08 49.29 82.9 49.17 84.17 49.17"/><polyline class="a" points="83.33 48.1 83.51 48.15 83.62 48.24 83.68 48.36 83.68 48.4 83.62 48.53 83.51 48.62 83.33 48.65 83.27 48.65 83.08 48.62 82.96 48.53 82.9 48.4 82.9 48.36 82.96 48.24 83.08 48.15 83.33 48.1 83.62 48.1 83.93 48.15 84.11 48.24 84.17 48.36 84.17 48.45 84.11 48.57 83.99 48.62"/><polygon class="a" points="82.9 47.55 82.96 47.67 83.14 47.76 83.45 47.81 83.62 47.81 83.93 47.76 84.11 47.67 84.17 47.55 84.17 47.47 84.11 47.34 83.93 47.26 83.62 47.21 83.45 47.21 83.14 47.26 82.96 47.34 82.9 47.47 82.9 47.55"/><polygon class="a" points="84.05 46.88 84.11 46.91 84.17 46.88 84.11 46.83 84.05 46.88"/><polyline class="a" points="82.9 46.02 82.9 46.45 83.45 46.49 83.39 46.45 83.33 46.33 83.33 46.19 83.39 46.07 83.51 45.98 83.68 45.94 83.8 45.94 83.99 45.98 84.11 46.07 84.17 46.19 84.17 46.33 84.11 46.45 84.05 46.49 83.93 46.54"/><polyline class="a" points="85.31 49.38 85.25 49.29 85.06 49.17 86.34 49.17"/><polyline class="a" points="85.49 48.1 85.66 48.15 85.79 48.24 85.85 48.36 85.85 48.4 85.79 48.53 85.66 48.62 85.49 48.65 85.43 48.65 85.25 48.62 85.13 48.53 85.06 48.4 85.06 48.36 85.13 48.24 85.25 48.15 85.49 48.1 85.79 48.1 86.09 48.15 86.28 48.24 86.34 48.36 86.34 48.45 86.28 48.57 86.15 48.62"/><polygon class="a" points="85.06 47.55 85.13 47.67 85.31 47.76 85.6 47.81 85.79 47.81 86.09 47.76 86.28 47.67 86.34 47.55 86.34 47.47 86.28 47.34 86.09 47.26 85.79 47.21 85.6 47.21 85.31 47.26 85.13 47.34 85.06 47.47 85.06 47.55"/><polygon class="a" points="86.21 46.88 86.28 46.91 86.34 46.88 86.28 46.83 86.21 46.88"/><polyline class="a" points="85.06 46.02 85.06 46.45 85.6 46.49 85.54 46.45 85.49 46.33 85.49 46.19 85.54 46.07 85.66 45.98 85.85 45.94 85.97 45.94 86.15 45.98 86.28 46.07 86.34 46.19 86.34 46.33 86.28 46.45 86.21 46.49 86.09 46.54"/><polyline class="a" points="88.76 49.38 88.7 49.29 88.52 49.17 89.79 49.17"/><polygon class="a" points="88.52 48.45 88.58 48.57 88.7 48.62 88.82 48.62 88.94 48.57 89 48.48 89.07 48.31 89.13 48.19 89.25 48.1 89.36 48.07 89.54 48.07 89.67 48.1 89.73 48.15 89.79 48.27 89.79 48.45 89.73 48.57 89.67 48.62 89.54 48.65 89.36 48.65 89.25 48.62 89.13 48.53 89.07 48.4 89 48.24 88.94 48.15 88.82 48.1 88.7 48.1 88.58 48.15 88.52 48.27 88.52 48.45"/><polygon class="a" points="89.67 46.88 89.73 46.91 89.79 46.88 89.73 46.83 89.67 46.88"/><polyline class="a" points="88.52 46.02 88.52 46.45 89.07 46.49 89 46.45 88.94 46.33 88.94 46.19 89 46.07 89.13 45.98 89.31 45.94 89.42 45.94 89.6 45.98 89.73 46.07 89.79 46.19 89.79 46.33 89.73 46.45 89.67 46.49 89.54 46.54"/><polyline class="a" points="88.52 45.18 88.52 45.6 89.07 45.64 89 45.6 88.94 45.47 88.94 45.35 89 45.23 89.13 45.14 89.31 45.09 89.42 45.09 89.6 45.14 89.73 45.23 89.79 45.35 89.79 45.47 89.73 45.6 89.67 45.64 89.54 45.69"/><polyline class="a" points="45.6 2.15 45.86 1.47 46.13 2.15"/><line class="a" x1="45.7" y1="1.92" x2="46.03" y2="1.92"/><polyline class="a" points="46.19 1.47 46.44 2.15 46.7 1.47"/><line class="a" x1="47.58" y1="1.76" x2="48.17" y2="1.76"/><line class="a" x1="47.58" y1="1.96" x2="48.17" y2="1.96"/><polyline class="a" points="48.49 1.6 48.56 1.56 48.66 1.47 48.66 2.15"/><polygon class="a" points="49.11 2.08 49.07 2.11 49.11 2.15 49.13 2.11 49.11 2.08"/><polygon class="a" points="49.56 1.47 49.47 1.5 49.4 1.6 49.37 1.76 49.37 1.86 49.4 2.02 49.47 2.12 49.56 2.15 49.62 2.15 49.72 2.12 49.8 2.02 49.82 1.86 49.82 1.76 49.8 1.6 49.72 1.5 49.62 1.47 49.56 1.47"/><line class="a" x1="51.39" y1="1.69" x2="51.39" y2="2.15"/><polyline class="a" points="51.39 1.82 51.48 1.72 51.55 1.69 51.64 1.69 51.7 1.72 51.74 1.82 51.74 2.15"/><polyline class="a" points="51.74 1.82 51.84 1.72 51.9 1.69 52 1.69 52.06 1.72 52.1 1.82 52.1 2.15"/><line class="a" x1="52.72" y1="1.69" x2="52.72" y2="2.37"/><polyline class="a" points="67.32 5.32 67.32 4.65 67.61 4.65 67.71 4.67 67.75 4.71 67.78 4.77 67.78 4.84 67.75 4.9 67.71 4.93 67.61 4.96 67.32 4.96"/><line class="a" x1="67.55" y1="4.97" x2="67.79" y2="5.32"/><line class="a" x1="68.01" y1="4.65" x2="68.01" y2="5.32"/><polyline class="a" points="68.26 5.32 68.26 4.65 68.56 4.65 68.65 4.67 68.69 4.71 68.73 4.77 68.73 4.87 68.69 4.93 68.65 4.96 68.56 5 68.26 5"/><polyline class="a" points="69.67 5.32 69.67 4.65 69.95 4.65 70.05 4.67 70.08 4.71 70.12 4.77 70.12 4.84 70.08 4.9 70.05 4.93 69.95 4.96 69.67 4.96"/><line class="a" x1="69.89" y1="4.97" x2="70.12" y2="5.32"/><line class="a" x1="70.48" y1="4.65" x2="70.48" y2="5.32"/><line class="a" x1="70.24" y1="4.65" x2="70.71" y2="4.65"/><line class="a" x1="71.58" y1="4.93" x2="72.17" y2="4.93"/><line class="a" x1="71.58" y1="5.12" x2="72.17" y2="5.12"/><polyline class="a" points="72.5 4.77 72.56 4.75 72.66 4.65 72.66 5.32"/><polyline class="a" points="73.36 4.65 73.05 5.1 73.54 5.1"/><line class="a" x1="73.37" y1="4.65" x2="73.37" y2="5.32"/><polygon class="a" points="73.76 5.26 73.72 5.3 73.76 5.32 73.79 5.3 73.76 5.26"/><polyline class="a" points="74.09 4.65 74.44 4.65 74.25 4.9 74.34 4.9 74.41 4.93 74.44 4.96 74.48 5.06 74.48 5.12 74.44 5.22 74.38 5.3 74.28 5.32 74.19 5.32 74.09 5.3 74.05 5.26 74.01 5.2"/><polygon class="a" points="74.83 4.65 74.74 4.67 74.7 4.75 74.7 4.81 74.74 4.87 74.8 4.9 74.93 4.93 75.03 4.96 75.09 5.03 75.13 5.1 75.13 5.2 75.09 5.26 75.05 5.3 74.96 5.32 74.83 5.32 74.74 5.3 74.7 5.26 74.67 5.2 74.67 5.1 74.7 5.03 74.76 4.96 74.86 4.93 74.99 4.9 75.05 4.87 75.09 4.81 75.09 4.75 75.05 4.67 74.96 4.65 74.83 4.65"/><line class="a" x1="76.03" y1="4.87" x2="76.03" y2="5.32"/><polyline class="a" points="76.03 5 76.13 4.9 76.19 4.87 76.29 4.87 76.36 4.9 76.39 5 76.39 5.32"/><polyline class="a" points="76.39 5 76.49 4.9 76.56 4.87 76.66 4.87 76.72 4.9 76.74 5 76.74 5.32"/><line class="a" x1="77.37" y1="4.87" x2="77.37" y2="5.55"/><polyline class="c" points="53.34 2.31 43.47 2.31 45.07 6.79"/><polyline class="b" points="66.57 5.55 77.89 5.55 77.89 8.17"/><line class="a" x1="33.04" y1="6.34" x2="38.13" y2="8.59"/><line class="b" x1="41" y1="8.59" x2="38.13" y2="8.87"/><polyline class="a" points="38.38 32.24 37.8 32.24 37.76 32.76 37.8 32.7 37.98 32.65 38.15 32.65 38.32 32.7 38.44 32.82 38.49 32.99 38.49 33.1 38.44 33.27 38.32 33.38 38.15 33.44 37.98 33.44 37.8 33.38 37.76 33.33 37.69 33.21"/><polyline class="a" points="34.6 36.66 34.6 36.61 34.65 36.52 34.7 36.48 34.78 36.44 34.95 36.44 35.04 36.48 35.09 36.52 35.13 36.61 35.13 36.7 35.09 36.8 35 36.92 34.56 37.36 35.17 37.36"/><polygon class="a" points="35.53 37.27 35.48 37.32 35.53 37.36 35.58 37.32 35.53 37.27"/><polyline class="a" points="35.92 36.66 35.92 36.61 35.97 36.52 36.02 36.48 36.1 36.44 36.27 36.44 36.36 36.48 36.41 36.52 36.46 36.61 36.46 36.7 36.41 36.8 36.32 36.92 35.88 37.36 36.49 37.36"/><line class="a" x1="17.09" y1="31.78" x2="17.09" y2="31.77"/><line class="a" x1="4.2" y1="29.13" x2="6.44" y2="29.13"/><polygon class="a" points="8.68 29.13 6.44 30.53 6.44 29.13 8.68 29.13"/><line class="a" x1="8.31" y1="29.35" x2="8.54" y2="29.13"/><line class="a" x1="6.57" y1="30.46" x2="7.9" y2="29.13"/><line class="a" x1="6.44" y1="29.93" x2="7.23" y2="29.13"/><line class="a" x1="6.44" y1="29.27" x2="6.59" y2="29.13"/><line class="a" x1="7.49" y1="29.87" x2="6.76" y2="29.13"/><line class="a" x1="7.1" y1="30.13" x2="6.44" y2="29.46"/><line class="a" x1="6.7" y1="30.37" x2="6.44" y2="30.13"/><line class="a" x1="7.9" y1="29.62" x2="7.41" y2="29.13"/><line class="a" x1="8.3" y1="29.37" x2="8.07" y2="29.13"/><line class="a" x1="4.2" y1="29.13" x2="6.44" y2="30.53"/><line class="a" x1="2.2" y1="28" x2="2.5" y2="28.3"/><line class="a" x1="2.9" y1="27.49" x2="2.9" y2="28.19"/><polyline class="a" points="2.9 27.8 2.95 27.64 3.06 27.54 3.16 27.5 3.31 27.5"/><rect class="a" x="3.53" y="27.15" width="0.07" height="0.07" transform="translate(-18.18 10.48) rotate(-44.98)"/><line class="a" x1="3.56" y1="27.54" x2="3.56" y2="28.19"/><polyline class="a" points="4.26 27.14 4.16 27.14 4.07 27.19 4.02 27.35 4.02 28.19"/><line class="a" x1="3.86" y1="27.49" x2="4.21" y2="27.49"/><rect class="a" x="4.58" y="27.51" width="0.07" height="0.07" transform="translate(-18.12 11.33) rotate(-45)"/><rect class="a" x="4.58" y="28.11" width="0.07" height="0.07" transform="translate(-18.55 11.51) rotate(-45)"/><polyline class="a" points="6.23 27.35 6.33 27.29 6.48 27.14 6.48 28.19"/><polygon class="a" points="7.33 27.14 7.18 27.19 7.14 27.29 7.14 27.4 7.18 27.5 7.28 27.54 7.48 27.59 7.64 27.64 7.74 27.74 7.79 27.85 7.79 28 7.74 28.09 7.69 28.14 7.54 28.19 7.33 28.19 7.18 28.14 7.14 28.09 7.09 28 7.09 27.85 7.14 27.74 7.23 27.64 7.38 27.59 7.59 27.54 7.69 27.5 7.74 27.4 7.74 27.29 7.69 27.19 7.54 27.14 7.33 27.14"/><polygon class="a" points="8.38 27.14 8.24 27.19 8.14 27.35 8.09 27.59 8.09 27.74 8.14 28 8.24 28.14 8.38 28.19 8.49 28.19 8.64 28.14 8.74 28 8.79 27.74 8.79 27.59 8.74 27.35 8.64 27.19 8.49 27.14 8.38 27.14"/><line class="a" x1="10.21" y1="27.49" x2="10.21" y2="28.19"/><polyline class="a" points="10.21 27.69 10.36 27.54 10.45 27.49 10.6 27.49 10.71 27.54 10.76 27.69 10.76 28.19"/><polyline class="a" points="10.76 27.69 10.91 27.54 11 27.49 11.16 27.49 11.26 27.54 11.31 27.69 11.31 28.19"/><polyline class="a" points="13.27 27.64 13.22 27.54 13.07 27.49 12.92 27.49 12.77 27.54 12.72 27.64 12.77 27.74 12.88 27.8 13.12 27.85 13.22 27.9 13.27 28 13.27 28.05 13.22 28.14 13.07 28.19 12.92 28.19 12.77 28.14 12.72 28.05"/><rect class="a" x="13.64" y="28.11" width="0.07" height="0.07" transform="translate(-15.9 17.91) rotate(-45)"/><line class="a" x1="14.12" y1="27.14" x2="14.12" y2="28.19"/><rect class="a" x="14.54" y="28.11" width="0.07" height="0.07" transform="translate(-15.63 18.55) rotate(-45)"/><line class="a" x1="15.03" y1="27.49" x2="15.03" y2="28.19"/><polyline class="a" points="15.03 27.69 15.19 27.54 15.29 27.49 15.43 27.49 15.54 27.54 15.59 27.69 15.59 28.19"/><polyline class="a" points="15.59 27.69 15.74 27.54 15.84 27.49 16 27.49 16.09 27.54 16.14 27.69 16.14 28.19"/><rect class="a" x="16.56" y="28.11" width="0.07" height="0.07" transform="translate(-15.04 19.98) rotate(-45)"/><line class="d" x1="32.55" y1="6.84" x2="33.53" y2="5.85"/><line class="d" x1="33.53" y1="6.84" x2="32.55" y2="5.85"/><line class="d" x1="83.04" y1="6.56" x2="84.02" y2="5.58"/><line class="d" x1="84.02" y1="6.56" x2="83.04" y2="5.58"/><line class="e" x1="41.6" y1="7.89" x2="41.6" y2="9.27"/><line class="f" x1="44.58" y1="9.08" x2="45.56" y2="8.1"/><line class="f" x1="45.56" y1="9.08" x2="44.58" y2="8.1"/><line class="f" x1="37.64" y1="9.08" x2="38.62" y2="8.1"/><line class="f" x1="38.62" y1="9.08" x2="37.64" y2="8.1"/><line class="a" x1="63.21" y1="8.66" x2="64.19" y2="7.68"/><line class="a" x1="64.19" y1="8.66" x2="63.21" y2="7.68"/></svg>