<svg xmlns="http://www.w3.org/2000/svg" viewBox="0 0 141.72 51.21"><defs><style>.a,.b,.c,.d,.e,.f{fill:none;stroke-linecap:round;stroke-linejoin:round;stroke-width:0.21px;}.a{stroke:#000;}.b{stroke:#ffbf00;}.c{stroke:red;}.d{stroke:#00b800;}.e{stroke:blue;}.f{stroke:#00bfff;}</style></defs><title>cad2.2</title><polygon class="a" points="25.14 41.35 25.2 41.39 25.26 41.35 25.2 41.31 25.14 41.35"/><polyline class="a" points="23.99 40.59 24.83 41.01 24.83 40.37"/><line class="a" x1="23.99" y1="40.59" x2="25.26" y2="40.59"/><polyline class="a" points="16.56 32.12 16.68 32.07 16.86 31.9 16.86 33.1"/><line class="a" x1="16.71" y1="34.81" x2="16.71" y2="38.51"/><line class="a" x1="2.81" y1="30.19" x2="140.28" y2="30.19"/><line class="a" x1="16.71" y1="34.81" x2="140.28" y2="34.81"/><line class="a" x1="16.71" y1="38.51" x2="140.28" y2="38.51"/><line class="a" x1="16.71" y1="44.05" x2="140.28" y2="44.05"/><polyline class="a" points="16.71 49.61 140.28 49.61 140.28 30.19"/><line class="a" x1="136.81" y1="11.03" x2="136.81" y2="11.81"/><line class="a" x1="136.81" y1="12.64" x2="136.81" y2="13.2"/><line class="a" x1="136.81" y1="14.04" x2="136.81" y2="14.59"/><line class="a" x1="136.81" y1="15.42" x2="136.81" y2="15.97"/><line class="a" x1="136.81" y1="16.8" x2="136.81" y2="17.36"/><line class="a" x1="136.81" y1="18.2" x2="136.81" y2="18.75"/><line class="a" x1="136.81" y1="19.58" x2="136.81" y2="20.14"/><line class="a" x1="136.81" y1="20.97" x2="136.81" y2="21.53"/><line class="a" x1="136.81" y1="22.36" x2="136.81" y2="22.91"/><line class="a" x1="136.81" y1="23.74" x2="136.81" y2="24.3"/><line class="a" x1="136.81" y1="25.14" x2="136.81" y2="25.69"/><line class="a" x1="136.81" y1="26.52" x2="136.81" y2="27.07"/><line class="a" x1="136.81" y1="27.9" x2="136.81" y2="28.46"/><line class="a" x1="136.81" y1="29.3" x2="136.81" y2="30.08"/><line class="a" x1="136.81" y1="11.03" x2="136.81" y2="30.19"/><line class="a" x1="121.08" y1="10.79" x2="121.08" y2="30.19"/><line class="a" x1="105.71" y1="10.61" x2="105.71" y2="30.19"/><line class="a" x1="89.4" y1="10.35" x2="89.4" y2="30.19"/><polyline class="a" points="48.27 9.61 53.55 9.8 58.76 9.94 65.33 9.98 73.67 10.08 81.15 10.29"/><polyline class="a" points="81.81 10.29 89.4 10.35 97.82 10.56 105.71 10.61 113.67 10.71 121.08 10.79 128.69 10.93 136.81 11.03"/><polyline class="a" points="16.77 8.33 24.63 6.89 28.75 6.2 30.91 8.42"/><line class="b" x1="28.85" y1="6.31" x2="28.85" y2="6.3"/><line class="b" x1="29.04" y1="6.52" x2="29.06" y2="6.52"/><line class="b" x1="29.24" y1="6.74" x2="29.25" y2="6.72"/><line class="b" x1="29.44" y1="6.95" x2="29.46" y2="6.93"/><line class="b" x1="29.63" y1="7.17" x2="29.66" y2="7.13"/><line class="b" x1="29.83" y1="7.38" x2="29.86" y2="7.34"/><line class="b" x1="30.02" y1="7.6" x2="30.07" y2="7.55"/><line class="b" x1="30.22" y1="7.81" x2="30.27" y2="7.76"/><line class="b" x1="30.41" y1="8.03" x2="30.48" y2="7.97"/><line class="b" x1="30.6" y1="8.24" x2="30.67" y2="8.17"/><line class="b" x1="30.79" y1="8.46" x2="30.88" y2="8.37"/><line class="b" x1="31.07" y1="8.58" x2="31.21" y2="8.46"/><line class="b" x1="31.49" y1="8.58" x2="31.58" y2="8.49"/><line class="b" x1="31.89" y1="8.58" x2="31.94" y2="8.53"/><line class="b" x1="32.3" y1="8.58" x2="32.32" y2="8.57"/><line class="b" x1="36.53" y1="6.39" x2="37.27" y2="5.67"/><line class="b" x1="35.88" y1="7.45" x2="37.6" y2="5.74"/><line class="b" x1="35.24" y1="8.5" x2="37.93" y2="5.82"/><line class="b" x1="35.58" y1="8.58" x2="38.26" y2="5.9"/><line class="b" x1="35.98" y1="8.58" x2="38.58" y2="5.98"/><line class="b" x1="36.39" y1="8.58" x2="38.91" y2="6.07"/><line class="b" x1="36.8" y1="8.58" x2="39.24" y2="6.14"/><line class="b" x1="37.21" y1="8.58" x2="39.56" y2="6.24"/><line class="b" x1="37.62" y1="8.58" x2="39.84" y2="6.36"/><line class="b" x1="38.41" y1="8.21" x2="40.12" y2="6.49"/><line class="b" x1="38.81" y1="8.21" x2="40.4" y2="6.62"/><line class="b" x1="39.21" y1="8.21" x2="40.68" y2="6.74"/><line class="b" x1="39.63" y1="8.21" x2="40.97" y2="6.86"/><line class="b" x1="40.03" y1="8.21" x2="41.26" y2="6.99"/><line class="b" x1="40.45" y1="8.21" x2="41.54" y2="7.11"/><line class="b" x1="40.85" y1="8.21" x2="41.82" y2="7.23"/><line class="b" x1="41.27" y1="8.21" x2="42.11" y2="7.37"/><line class="b" x1="41.67" y1="8.21" x2="42.39" y2="7.49"/><line class="b" x1="42.08" y1="8.21" x2="42.68" y2="7.61"/><line class="b" x1="42.49" y1="8.21" x2="42.97" y2="7.73"/><line class="b" x1="42.9" y1="8.21" x2="43.26" y2="7.84"/><line class="b" x1="43.31" y1="8.21" x2="43.54" y2="7.97"/><line class="b" x1="43.72" y1="8.21" x2="43.84" y2="8.09"/><line class="b" x1="44.12" y1="8.21" x2="44.12" y2="8.2"/><line class="b" x1="30.92" y1="8.42" x2="32.46" y2="8.58"/><line class="a" x1="33.12" y1="8.65" x2="35.15" y2="8.65"/><line class="a" x1="16.77" y1="30.19" x2="16.77" y2="8.33"/><line class="a" x1="30.92" y1="30.19" x2="30.92" y2="8.58"/><line class="a" x1="28.75" y1="30.19" x2="28.75" y2="6.2"/><line class="a" x1="24.63" y1="30.19" x2="24.63" y2="6.89"/><polyline class="a" points="24.23 32.18 24.23 32.12 24.3 32.01 24.34 31.95 24.47 31.9 24.69 31.9 24.81 31.95 24.86 32.01 24.92 32.12 24.92 32.24 24.86 32.35 24.75 32.53 24.17 33.1 24.98 33.1"/><polyline class="a" points="28.37 31.9 28.99 31.9 28.65 32.35 28.82 32.35 28.95 32.42 28.99 32.47 29.05 32.64 29.05 32.76 28.99 32.93 28.88 33.04 28.71 33.1 28.54 33.1 28.37 33.04 28.31 32.98 28.26 32.87"/><polyline class="a" points="31.01 31.9 30.44 32.7 31.3 32.7"/><line class="a" x1="31.01" y1="31.9" x2="31.01" y2="33.1"/><polyline class="a" points="88.5 32.2 88.63 32.15 88.8 31.98 88.8 33.16"/><polyline class="a" points="89.53 32.26 89.53 32.2 89.59 32.09 89.64 32.02 89.77 31.98 89.99 31.98 90.11 32.02 90.16 32.09 90.22 32.2 90.22 32.32 90.16 32.43 90.05 32.6 89.47 33.16 90.28 33.16"/><polyline class="a" points="104.74 32.12 104.85 32.07 105.03 31.9 105.03 33.1"/><polyline class="a" points="105.83 31.9 106.46 31.9 106.11 32.35 106.29 32.35 106.4 32.42 106.46 32.47 106.52 32.64 106.52 32.76 106.46 32.93 106.35 33.04 106.18 33.1 106 33.1 105.83 33.04 105.77 32.98 105.71 32.87"/><polyline class="a" points="120.1 32.12 120.21 32.07 120.38 31.9 120.38 33.1"/><polyline class="a" points="121.64 31.9 121.07 32.7 121.92 32.7"/><line class="a" x1="121.64" y1="31.9" x2="121.64" y2="33.1"/><polyline class="a" points="135.8 32.12 135.91 32.07 136.08 31.9 136.08 33.1"/><polyline class="a" points="137.45 31.9 136.89 31.9 136.83 32.42 136.89 32.35 137.06 32.29 137.23 32.29 137.41 32.35 137.51 32.47 137.58 32.64 137.58 32.76 137.51 32.93 137.41 33.04 137.23 33.1 137.06 33.1 136.89 33.04 136.83 32.98 136.77 32.87"/><line class="a" x1="24.63" y1="34.81" x2="24.63" y2="38.51"/><line class="a" x1="28.75" y1="34.81" x2="28.75" y2="38.51"/><line class="a" x1="30.92" y1="34.81" x2="30.92" y2="38.51"/><line class="a" x1="89.4" y1="34.81" x2="89.4" y2="38.51"/><line class="a" x1="105.71" y1="34.81" x2="105.71" y2="38.51"/><line class="a" x1="121.08" y1="34.81" x2="121.08" y2="38.51"/><line class="a" x1="136.81" y1="34.81" x2="136.81" y2="38.51"/><polyline class="a" points="19.78 36.09 20.27 36.09 20 36.44 20.14 36.44 20.22 36.49 20.27 36.53 20.31 36.66 20.31 36.75 20.27 36.88 20.17 36.97 20.05 37.02 19.91 37.02 19.78 36.97 19.73 36.93 19.69 36.83"/><polygon class="a" points="20.66 36.93 20.61 36.97 20.66 37.02 20.71 36.97 20.66 36.93"/><polyline class="a" points="21.46 36.09 21.02 36.71 21.68 36.71"/><line class="a" x1="21.46" y1="36.09" x2="21.46" y2="37.02"/><polyline class="a" points="25.67 36.27 25.76 36.22 25.89 36.09 25.89 37.02"/><polygon class="a" points="26.51 36.93 26.46 36.97 26.51 37.02 26.55 36.97 26.51 36.93"/><polygon class="a" points="27.09 36.09 26.95 36.14 26.9 36.22 26.9 36.31 26.95 36.39 27.04 36.44 27.21 36.49 27.34 36.53 27.43 36.61 27.48 36.71 27.48 36.83 27.43 36.93 27.39 36.97 27.26 37.02 27.09 37.02 26.95 36.97 26.9 36.93 26.87 36.83 26.87 36.71 26.9 36.61 26.99 36.53 27.12 36.49 27.3 36.44 27.39 36.39 27.43 36.31 27.43 36.22 27.39 36.14 27.26 36.09 27.09 36.09"/><polyline class="a" points="129.1 36.22 129.05 36.14 128.93 36.09 128.83 36.09 128.7 36.14 128.61 36.27 128.57 36.49 128.57 36.71 128.61 36.88 128.7 36.97 128.83 37.02 128.88 37.02 129.01 36.97 129.1 36.88 129.15 36.75 129.15 36.71 129.1 36.58 129.01 36.49 128.88 36.44 128.83 36.44 128.7 36.49 128.61 36.58 128.57 36.71"/><polygon class="a" points="129.49 36.93 129.45 36.97 129.49 37.02 129.54 36.97 129.49 36.93"/><polygon class="a" points="130.06 36.09 129.93 36.14 129.89 36.22 129.89 36.31 129.93 36.39 130.03 36.44 130.2 36.49 130.33 36.53 130.42 36.61 130.47 36.71 130.47 36.83 130.42 36.93 130.37 36.97 130.25 37.02 130.06 37.02 129.93 36.97 129.89 36.93 129.84 36.83 129.84 36.71 129.89 36.61 129.98 36.53 130.11 36.49 130.28 36.44 130.37 36.39 130.42 36.31 130.42 36.22 130.37 36.14 130.25 36.09 130.06 36.09"/><polyline class="a" points="28.15 41.75 28.15 42.18 28.69 42.22 28.63 42.18 28.58 42.05 28.58 41.92 28.63 41.79 28.75 41.7 28.93 41.67 29.06 41.67 29.24 41.7 29.36 41.79 29.42 41.92 29.42 42.05 29.36 42.18 29.3 42.22 29.18 42.26"/><polygon class="a" points="29.3 41.33 29.36 41.37 29.42 41.33 29.36 41.29 29.3 41.33"/><polyline class="a" points="28.46 40.95 28.39 40.95 28.27 40.91 28.21 40.86 28.15 40.77 28.15 40.6 28.21 40.52 28.27 40.48 28.39 40.43 28.52 40.43 28.63 40.48 28.81 40.57 29.42 40.99 29.42 40.4"/><polygon class="a" points="16.04 41.37 16.1 41.5 16.28 41.58 16.59 41.62 16.77 41.62 17.06 41.58 17.25 41.5 17.31 41.37 17.31 41.29 17.25 41.15 17.06 41.07 16.77 41.03 16.59 41.03 16.28 41.07 16.1 41.15 16.04 41.29 16.04 41.37"/><polyline class="a" points="16.38 49 16.32 48.92 16.13 48.79 17.41 48.79"/><polyline class="a" points="16.55 46.88 16.73 46.93 16.86 47.02 16.92 47.14 16.92 47.17 16.86 47.31 16.73 47.4 16.55 47.43 16.49 47.43 16.32 47.4 16.19 47.31 16.13 47.17 16.13 47.14 16.19 47.02 16.32 46.93 16.55 46.88 16.86 46.88 17.16 46.93 17.34 47.02 17.41 47.14 17.41 47.22 17.34 47.35 17.22 47.4"/><polygon class="a" points="17.28 46.5 17.34 46.54 17.41 46.5 17.34 46.46 17.28 46.5"/><polyline class="a" points="16.13 45.74 16.98 46.16 16.98 45.52"/><line class="a" x1="16.13" y1="45.74" x2="17.41" y2="45.74"/><polyline class="a" points="28.35 48.77 28.29 48.68 28.11 48.56 29.39 48.56"/><polyline class="a" points="28.53 47.49 28.71 47.54 28.84 47.63 28.9 47.75 28.9 47.79 28.84 47.92 28.71 48.01 28.53 48.04 28.47 48.04 28.28 48.01 28.18 47.92 28.11 47.79 28.11 47.75 28.18 47.63 28.28 47.54 28.53 47.49 28.84 47.49 29.14 47.54 29.32 47.63 29.39 47.75 29.39 47.84 29.32 47.96 29.2 48.01"/><polygon class="a" points="28.11 46.94 28.17 47.08 28.34 47.15 28.65 47.2 28.84 47.2 29.14 47.15 29.32 47.08 29.39 46.94 29.39 46.86 29.32 46.73 29.14 46.65 28.84 46.6 28.65 46.6 28.34 46.65 28.17 46.73 28.11 46.86 28.11 46.94"/><polygon class="a" points="29.26 46.27 29.32 46.31 29.39 46.27 29.32 46.22 29.26 46.27"/><polyline class="a" points="28.11 45.84 28.11 45.38 28.59 45.63 28.59 45.5 28.65 45.41 28.71 45.38 28.9 45.33 29.02 45.33 29.2 45.38 29.32 45.46 29.39 45.58 29.39 45.72 29.32 45.84 29.26 45.89 29.14 45.93"/><polyline class="a" points="29.39 44.91 28.11 44.48 28.11 45.08"/><polyline class="a" points="120.69 48.79 120.63 48.7 120.44 48.58 121.72 48.58"/><polygon class="a" points="121.59 46.28 121.66 46.33 121.72 46.28 121.66 46.24 121.59 46.28"/><polyline class="a" points="120.44 45.87 120.44 45.4 120.93 45.65 120.93 45.52 121 45.44 121.06 45.4 121.24 45.35 121.36 45.35 121.53 45.4 121.66 45.49 121.72 45.61 121.72 45.73 121.66 45.87 121.59 45.9 121.48 45.95"/><polyline class="a" points="120.44 44.68 121.3 45.09 121.3 44.46"/><line class="a" x1="120.44" y1="44.68" x2="121.72" y2="44.68"/><polyline class="a" points="24.47 49 24.41 48.92 24.22 48.79 25.5 48.79"/><polyline class="a" points="24.65 47.73 24.83 47.77 24.96 47.86 25.02 47.98 25.02 48.03 24.96 48.15 24.83 48.24 24.65 48.29 24.59 48.29 24.41 48.24 24.28 48.15 24.22 48.03 24.22 47.98 24.28 47.86 24.41 47.77 24.65 47.73 24.96 47.73 25.25 47.77 25.43 47.86 25.49 47.98 25.49 48.07 25.43 48.2 25.31 48.24"/><polygon class="a" points="24.22 47.17 24.28 47.31 24.47 47.4 24.77 47.43 24.96 47.43 25.25 47.4 25.43 47.31 25.5 47.17 25.5 47.1 25.43 46.97 25.25 46.88 24.96 46.84 24.77 46.84 24.47 46.88 24.28 46.97 24.22 47.1 24.22 47.17"/><polygon class="a" points="25.37 46.5 25.43 46.54 25.49 46.5 25.43 46.46 25.37 46.5"/><polygon class="a" points="24.22 45.91 24.28 46.04 24.47 46.12 24.77 46.16 24.96 46.16 25.25 46.12 25.43 46.04 25.5 45.91 25.5 45.83 25.43 45.69 25.25 45.61 24.96 45.57 24.77 45.57 24.47 45.61 24.28 45.69 24.22 45.83 24.22 45.91"/><polyline class="a" points="25.5 45.14 24.22 44.73 24.22 45.31"/><polyline class="a" points="89.01 49 88.95 48.92 88.76 48.79 90.03 48.79"/><polygon class="a" points="88.76 47.22 88.82 47.34 88.95 47.39 89.07 47.39 89.19 47.34 89.25 47.26 89.31 47.1 89.37 46.97 89.5 46.88 89.61 46.84 89.79 46.84 89.91 46.88 89.97 46.93 90.03 47.05 90.03 47.22 89.97 47.34 89.91 47.39 89.79 47.43 89.61 47.43 89.5 47.39 89.37 47.31 89.31 47.17 89.25 47.02 89.19 46.93 89.07 46.88 88.95 46.88 88.82 46.93 88.76 47.05 88.76 47.22"/><polygon class="a" points="89.91 46.5 89.97 46.54 90.03 46.5 89.97 46.46 89.91 46.5"/><polyline class="a" points="90.03 45.14 88.76 44.73 88.76 45.31"/><polyline class="a" points="105.31 49 105.25 48.92 105.06 48.79 106.33 48.79"/><polygon class="a" points="105.06 47.22 105.12 47.34 105.25 47.39 105.37 47.39 105.49 47.34 105.55 47.26 105.61 47.1 105.67 46.97 105.8 46.88 105.92 46.84 106.1 46.84 106.21 46.88 106.27 46.93 106.33 47.05 106.33 47.22 106.27 47.34 106.21 47.39 106.1 47.43 105.92 47.43 105.8 47.39 105.67 47.31 105.61 47.17 105.55 47.02 105.49 46.93 105.37 46.88 105.25 46.88 105.12 46.93 105.06 47.05 105.06 47.22"/><polygon class="a" points="106.21 46.5 106.27 46.54 106.33 46.5 106.27 46.46 106.21 46.5"/><polyline class="a" points="105.06 45.74 105.92 46.16 105.92 45.52"/><line class="a" x1="105.06" y1="45.74" x2="106.33" y2="45.74"/><polyline class="a" points="105.25 44.76 105.12 44.8 105.06 44.94 105.06 45.02 105.12 45.14 105.31 45.23 105.61 45.28 105.92 45.28 106.16 45.23 106.27 45.14 106.33 45.02 106.33 44.97 106.27 44.85 106.16 44.76 105.98 44.73 105.92 44.73 105.73 44.76 105.61 44.85 105.55 44.97 105.55 45.02 105.61 45.14 105.73 45.23 105.92 45.28"/><polyline class="a" points="136.41 49.02 136.35 48.94 136.17 48.81 137.44 48.81"/><polygon class="a" points="136.17 48.09 136.23 48.21 136.35 48.26 136.47 48.26 136.6 48.21 136.66 48.13 136.72 47.97 136.78 47.84 136.9 47.75 137.01 47.71 137.2 47.71 137.32 47.75 137.38 47.8 137.44 47.92 137.44 48.09 137.38 48.21 137.32 48.26 137.2 48.3 137.01 48.3 136.9 48.26 136.78 48.18 136.72 48.04 136.66 47.88 136.6 47.8 136.47 47.75 136.35 47.75 136.23 47.8 136.17 47.92 136.17 48.09"/><polygon class="a" points="136.17 47.25 136.23 47.37 136.35 47.42 136.47 47.42 136.6 47.37 136.66 47.28 136.72 47.11 136.78 46.99 136.9 46.91 137.01 46.86 137.2 46.86 137.32 46.91 137.38 46.94 137.44 47.08 137.44 47.25 137.38 47.37 137.32 47.42 137.2 47.46 137.01 47.46 136.9 47.42 136.78 47.33 136.72 47.2 136.66 47.03 136.6 46.94 136.47 46.91 136.35 46.91 136.23 46.94 136.17 47.08 136.17 47.25"/><polygon class="a" points="137.32 46.53 137.38 46.56 137.44 46.53 137.38 46.48 137.32 46.53"/><polyline class="a" points="136.47 46.15 136.41 46.15 136.29 46.1 136.23 46.06 136.17 45.98 136.17 45.8 136.23 45.72 136.29 45.67 136.41 45.63 136.54 45.63 136.66 45.67 136.84 45.76 137.44 46.18 137.44 45.6"/><polyline class="a" points="136.17 44.91 137.01 45.34 137.01 44.7"/><line class="a" x1="136.17" y1="44.91" x2="137.44" y2="44.91"/><polygon class="a" points="25.14 41.35 25.2 41.39 25.26 41.35 25.2 41.31 25.14 41.35"/><polyline class="a" points="23.99 40.59 24.83 41.01 24.83 40.37"/><line class="a" x1="23.99" y1="40.59" x2="25.26" y2="40.59"/><polyline class="a" points="16.56 32.12 16.68 32.07 16.86 31.9 16.86 33.1"/><line class="a" x1="16.71" y1="34.81" x2="16.71" y2="38.51"/><line class="a" x1="0.73" y1="30.19" x2="140.28" y2="30.19"/><line class="a" x1="16.71" y1="34.81" x2="140.28" y2="34.81"/><line class="a" x1="16.71" y1="38.51" x2="140.28" y2="38.51"/><line class="a" x1="16.71" y1="44.05" x2="140.28" y2="44.05"/><polyline class="a" points="16.71 49.61 140.28 49.61 140.28 30.19"/><line class="a" x1="136.81" y1="11.03" x2="136.81" y2="11.81"/><line class="a" x1="136.81" y1="12.64" x2="136.81" y2="13.2"/><line class="a" x1="136.81" y1="14.04" x2="136.81" y2="14.59"/><line class="a" x1="136.81" y1="15.42" x2="136.81" y2="15.97"/><line class="a" x1="136.81" y1="16.8" x2="136.81" y2="17.36"/><line class="a" x1="136.81" y1="18.2" x2="136.81" y2="18.75"/><line class="a" x1="136.81" y1="19.58" x2="136.81" y2="20.14"/><line class="a" x1="136.81" y1="20.97" x2="136.81" y2="21.53"/><line class="a" x1="136.81" y1="22.36" x2="136.81" y2="22.91"/><line class="a" x1="136.81" y1="23.74" x2="136.81" y2="24.3"/><line class="a" x1="136.81" y1="25.14" x2="136.81" y2="25.69"/><line class="a" x1="136.81" y1="26.52" x2="136.81" y2="27.07"/><line class="a" x1="136.81" y1="27.9" x2="136.81" y2="28.46"/><line class="a" x1="136.81" y1="29.3" x2="136.81" y2="30.08"/><line class="a" x1="136.81" y1="11.03" x2="136.81" y2="30.19"/><line class="a" x1="121.08" y1="10.79" x2="121.08" y2="30.19"/><line class="a" x1="105.71" y1="10.61" x2="105.71" y2="30.19"/><line class="a" x1="89.4" y1="10.35" x2="89.4" y2="30.19"/><line class="c" x1="32.69" y1="8.6" x2="32.71" y2="8.58"/><line class="c" x1="33.06" y1="8.65" x2="33.12" y2="8.58"/><line class="c" x1="33.46" y1="8.65" x2="33.53" y2="8.58"/><line class="c" x1="33.86" y1="8.65" x2="33.94" y2="8.58"/><line class="c" x1="34.28" y1="8.65" x2="34.34" y2="8.58"/><line class="c" x1="34.68" y1="8.65" x2="34.76" y2="8.58"/><line class="c" x1="35.1" y1="8.65" x2="35.16" y2="8.58"/><line class="c" x1="44.41" y1="8.32" x2="44.54" y2="8.21"/><line class="c" x1="44.71" y1="8.44" x2="44.94" y2="8.21"/><line class="c" x1="44.99" y1="8.57" x2="45.36" y2="8.21"/><line class="c" x1="45.28" y1="8.69" x2="45.76" y2="8.21"/><line class="c" x1="45.58" y1="8.8" x2="46.16" y2="8.21"/><line class="c" x1="45.86" y1="8.92" x2="46.58" y2="8.21"/><line class="c" x1="46.15" y1="9.04" x2="46.98" y2="8.21"/><line class="c" x1="46.44" y1="9.17" x2="47.4" y2="8.21"/><line class="c" x1="46.73" y1="9.28" x2="47.8" y2="8.21"/><line class="c" x1="47.02" y1="9.4" x2="48.21" y2="8.21"/><line class="c" x1="47.31" y1="9.52" x2="48.62" y2="8.21"/><line class="c" x1="47.63" y1="9.61" x2="49.03" y2="8.21"/><line class="c" x1="48.04" y1="9.61" x2="49.44" y2="8.21"/><line class="c" x1="48.44" y1="9.62" x2="49.85" y2="8.21"/><line class="c" x1="48.84" y1="9.63" x2="50.25" y2="8.21"/><line class="c" x1="49.24" y1="9.64" x2="50.67" y2="8.21"/><line class="c" x1="49.63" y1="9.65" x2="51.07" y2="8.21"/><line class="c" x1="50.02" y1="9.67" x2="51.49" y2="8.21"/><line class="c" x1="50.41" y1="9.68" x2="51.89" y2="8.21"/><line class="c" x1="50.81" y1="9.7" x2="52.29" y2="8.21"/><line class="c" x1="51.21" y1="9.72" x2="52.71" y2="8.21"/><line class="c" x1="51.6" y1="9.73" x2="53.11" y2="8.21"/><line class="c" x1="51.99" y1="9.74" x2="53.53" y2="8.21"/><line class="c" x1="52.39" y1="9.75" x2="53.93" y2="8.21"/><line class="c" x1="52.78" y1="9.78" x2="54.35" y2="8.21"/><line class="c" x1="53.18" y1="9.79" x2="54.75" y2="8.21"/><line class="c" x1="53.57" y1="9.8" x2="55.16" y2="8.21"/><line class="c" x1="53.97" y1="9.81" x2="55.57" y2="8.21"/><line class="c" x1="54.36" y1="9.83" x2="55.98" y2="8.21"/><polyline class="c" points="54.77 9.83 55.89 8.7 56.39 8.21"/><polyline class="c" points="55.16 9.84 55.89 9.12 56.8 8.21"/><line class="c" x1="55.56" y1="9.85" x2="57.2" y2="8.21"/><line class="c" x1="55.95" y1="9.86" x2="57.62" y2="8.21"/><line class="c" x1="56.36" y1="9.88" x2="58.02" y2="8.21"/><line class="c" x1="56.76" y1="9.89" x2="58.44" y2="8.21"/><line class="c" x1="57.15" y1="9.9" x2="58.84" y2="8.21"/><line class="c" x1="57.56" y1="9.91" x2="59.25" y2="8.21"/><line class="c" x1="57.95" y1="9.91" x2="59.66" y2="8.21"/><line class="c" x1="58.35" y1="9.92" x2="60.06" y2="8.21"/><line class="c" x1="58.74" y1="9.94" x2="60.48" y2="8.21"/><line class="c" x1="59.15" y1="9.94" x2="60.89" y2="8.21"/><line class="c" x1="59.56" y1="9.95" x2="61.29" y2="8.21"/><line class="c" x1="59.97" y1="9.95" x2="61.71" y2="8.21"/><line class="c" x1="60.37" y1="9.95" x2="62.11" y2="8.21"/><line class="c" x1="60.77" y1="9.95" x2="62.52" y2="8.21"/><line class="c" x1="61.18" y1="9.96" x2="62.93" y2="8.21"/><line class="c" x1="61.58" y1="9.96" x2="63.33" y2="8.21"/><line class="c" x1="62" y1="9.96" x2="63.75" y2="8.21"/><line class="c" x1="62.4" y1="9.96" x2="64.15" y2="8.21"/><line class="c" x1="62.81" y1="9.97" x2="64.57" y2="8.21"/><line class="c" x1="63.21" y1="9.97" x2="64.97" y2="8.21"/><line class="c" x1="63.61" y1="9.97" x2="65.38" y2="8.21"/><line class="c" x1="64.02" y1="9.97" x2="65.79" y2="8.21"/><line class="c" x1="64.43" y1="9.97" x2="66.2" y2="8.21"/><line class="c" x1="64.84" y1="9.99" x2="66.61" y2="8.21"/><line class="c" x1="65.24" y1="9.99" x2="67.02" y2="8.21"/><line class="c" x1="65.65" y1="9.99" x2="67.43" y2="8.21"/><line class="c" x1="66.05" y1="10" x2="67.84" y2="8.21"/><line class="c" x1="66.45" y1="10" x2="68.24" y2="8.21"/><line class="c" x1="66.86" y1="10" x2="68.66" y2="8.21"/><line class="c" x1="67.26" y1="10.01" x2="69.06" y2="8.21"/><line class="c" x1="67.66" y1="10.01" x2="69.48" y2="8.21"/><line class="c" x1="68.07" y1="10.01" x2="69.88" y2="8.21"/><line class="c" x1="68.47" y1="10.02" x2="70.28" y2="8.21"/><line class="c" x1="68.88" y1="10.02" x2="70.7" y2="8.21"/><line class="c" x1="69.28" y1="10.03" x2="71.1" y2="8.21"/><line class="c" x1="69.68" y1="10.03" x2="71.52" y2="8.21"/><line class="c" x1="70.09" y1="10.03" x2="71.92" y2="8.21"/><line class="c" x1="70.49" y1="10.05" x2="72.33" y2="8.21"/><line class="c" x1="70.91" y1="10.05" x2="72.74" y2="8.21"/><line class="c" x1="71.31" y1="10.05" x2="73.15" y2="8.21"/><polyline class="c" points="71.72 10.06 73.43 8.33 75.11 6.66"/><line class="c" x1="72.12" y1="10.06" x2="73.43" y2="8.74"/><polyline class="c" points="76.69 5.48 76.38 5.79 73.43 8.74"/><line class="c" x1="72.52" y1="10.06" x2="73.43" y2="9.15"/><line class="c" x1="77.1" y1="5.48" x2="73.43" y2="9.15"/><line class="c" x1="72.93" y1="10.07" x2="73.43" y2="9.56"/><polyline class="c" points="77.5 5.5 76.38 6.61 73.43 9.56"/><line class="c" x1="73.33" y1="10.07" x2="73.43" y2="9.97"/><line class="c" x1="77.91" y1="5.49" x2="73.43" y2="9.97"/><polyline class="c" points="73.73 10.08 76.38 7.43 78.31 5.5"/><line class="c" x1="74.13" y1="10.1" x2="78.71" y2="5.51"/><line class="c" x1="74.53" y1="10.1" x2="76.38" y2="8.25"/><line class="c" x1="78.96" y1="5.67" x2="76.38" y2="8.25"/><line class="c" x1="74.92" y1="10.11" x2="76.38" y2="8.65"/><polyline class="c" points="79.12 5.92 78.86 6.18 76.38 8.65"/><line class="c" x1="75.32" y1="10.12" x2="76.38" y2="9.07"/><line class="c" x1="79.28" y1="6.17" x2="76.38" y2="9.07"/><line class="c" x1="75.72" y1="10.13" x2="76.38" y2="9.47"/><polyline class="c" points="79.42 6.42 78.86 7 76.38 9.47"/><line class="c" x1="76.12" y1="10.14" x2="76.38" y2="9.89"/><line class="c" x1="79.58" y1="6.68" x2="76.38" y2="9.89"/><line class="c" x1="76.51" y1="10.16" x2="79.74" y2="6.93"/><line class="c" x1="76.92" y1="10.17" x2="79.9" y2="7.18"/><line class="c" x1="77.31" y1="10.18" x2="80.05" y2="7.44"/><polyline class="c" points="77.71 10.19 78.86 9.04 80.21 7.68"/><line class="c" x1="78.1" y1="10.21" x2="80.37" y2="7.94"/><polyline class="c" points="78.51 10.22 78.86 9.85 80.53 8.2"/><line class="c" x1="78.9" y1="10.22" x2="80.67" y2="8.44"/><line class="c" x1="79.3" y1="10.23" x2="80.83" y2="8.7"/><line class="c" x1="79.69" y1="10.24" x2="80.99" y2="8.96"/><line class="c" x1="80.1" y1="10.25" x2="81.15" y2="9.2"/><line class="c" x1="80.49" y1="10.27" x2="81.3" y2="9.46"/><line class="c" x1="80.89" y1="10.28" x2="81.46" y2="9.7"/><line class="c" x1="81.3" y1="10.29" x2="81.61" y2="9.96"/><line class="c" x1="81.7" y1="10.29" x2="81.77" y2="10.22"/><polyline class="c" points="48.27 9.61 53.55 9.8 58.76 9.94 65.33 9.98 73.67 10.08 81.15 10.29 81.81 10.29"/><polyline class="a" points="89.4 10.35 97.82 10.56 105.71 10.61 113.67 10.71 121.08 10.79 128.69 10.93 136.81 11.03"/><polyline class="a" points="16.77 8.33 24.63 6.89 28.75 6.2"/><line class="b" x1="28.75" y1="6.2" x2="30.92" y2="8.42"/><polyline class="c" points="32.46 8.58 33.12 8.65 35.15 8.65"/><line class="b" x1="35.2" y1="8.58" x2="37.02" y2="5.6"/><line class="a" x1="16.77" y1="30.19" x2="16.77" y2="8.33"/><line class="a" x1="30.92" y1="30.19" x2="30.92" y2="8.58"/><line class="a" x1="28.75" y1="30.19" x2="28.75" y2="6.2"/><line class="a" x1="24.63" y1="30.19" x2="24.63" y2="6.89"/><polyline class="b" points="37.02 5.6 39.46 6.2 42.64 7.6"/><polyline class="c" points="44.13 8.21 47.52 9.61 48.27 9.61"/><polyline class="a" points="24.23 32.18 24.23 32.12 24.3 32.01 24.34 31.95 24.47 31.9 24.69 31.9 24.81 31.95 24.86 32.01 24.92 32.12 24.92 32.24 24.86 32.35 24.75 32.53 24.17 33.1 24.98 33.1"/><polyline class="a" points="28.37 31.9 28.99 31.9 28.65 32.35 28.82 32.35 28.95 32.42 28.99 32.47 29.05 32.64 29.05 32.76 28.99 32.93 28.88 33.04 28.71 33.1 28.54 33.1 28.37 33.04 28.31 32.98 28.26 32.87"/><polyline class="a" points="31.01 31.9 30.44 32.7 31.3 32.7"/><line class="a" x1="31.01" y1="31.9" x2="31.01" y2="33.1"/><polyline class="a" points="81.08 32.2 81.19 32.13 81.36 31.96 81.36 33.16"/><polyline class="a" points="82.22 32.2 82.33 32.13 82.5 31.96 82.5 33.16"/><line class="a" x1="24.63" y1="34.81" x2="24.63" y2="38.51"/><line class="a" x1="28.75" y1="34.81" x2="28.75" y2="38.51"/><line class="a" x1="30.92" y1="34.81" x2="30.92" y2="38.51"/><line class="a" x1="89.4" y1="34.81" x2="89.4" y2="38.51"/><line class="a" x1="105.71" y1="34.81" x2="105.71" y2="38.51"/><line class="a" x1="121.08" y1="34.81" x2="121.08" y2="38.51"/><line class="a" x1="136.81" y1="34.81" x2="136.81" y2="38.51"/><polyline class="a" points="19.78 36.09 20.27 36.09 20 36.44 20.14 36.44 20.22 36.49 20.27 36.53 20.31 36.66 20.31 36.75 20.27 36.88 20.17 36.97 20.05 37.02 19.91 37.02 19.78 36.97 19.73 36.93 19.69 36.83"/><polygon class="a" points="20.66 36.93 20.61 36.97 20.66 37.02 20.71 36.97 20.66 36.93"/><polyline class="a" points="21.46 36.09 21.02 36.71 21.68 36.71"/><line class="a" x1="21.46" y1="36.09" x2="21.46" y2="37.02"/><polyline class="a" points="25.67 36.27 25.76 36.22 25.89 36.09 25.89 37.02"/><polygon class="a" points="26.51 36.93 26.46 36.97 26.51 37.02 26.55 36.97 26.51 36.93"/><polygon class="a" points="27.09 36.09 26.95 36.14 26.9 36.22 26.9 36.31 26.95 36.39 27.04 36.44 27.21 36.49 27.34 36.53 27.43 36.61 27.48 36.71 27.48 36.83 27.43 36.93 27.39 36.97 27.26 37.02 27.09 37.02 26.95 36.97 26.9 36.93 26.87 36.83 26.87 36.71 26.9 36.61 26.99 36.53 27.12 36.49 27.3 36.44 27.39 36.39 27.43 36.31 27.43 36.22 27.39 36.14 27.26 36.09 27.09 36.09"/><polygon class="a" points="29.41 37.37 29.46 37.51 29.58 37.59 29.8 37.64 29.94 37.64 30.16 37.59 30.29 37.51 30.34 37.37 30.34 37.29 30.29 37.15 30.16 37.07 29.94 37.02 29.8 37.02 29.58 37.07 29.46 37.15 29.41 37.29 29.41 37.37"/><polygon class="a" points="30.24 36.67 30.29 36.71 30.34 36.67 30.29 36.63 30.24 36.67"/><polyline class="a" points="29.72 35.74 29.85 35.79 29.94 35.88 29.99 36.01 29.99 36.05 29.94 36.19 29.85 36.27 29.72 36.32 29.68 36.32 29.55 36.27 29.46 36.19 29.41 36.05 29.41 36.01 29.46 35.88 29.55 35.79 29.72 35.74 29.94 35.74 30.16 35.79 30.29 35.88 30.34 36.01 30.34 36.1 30.29 36.23 30.21 36.27"/><polyline class="a" points="96.78 37.02 97.22 36.09 96.61 36.09"/><polygon class="a" points="97.57 36.93 97.54 36.97 97.57 37.02 97.62 36.97 97.57 36.93"/><polyline class="a" points="98.06 36.27 98.15 36.22 98.28 36.09 98.28 37.02"/><polyline class="a" points="113.36 36.22 113.32 36.14 113.19 36.09 113.1 36.09 112.97 36.14 112.88 36.27 112.83 36.49 112.83 36.71 112.88 36.88 112.97 36.97 113.1 37.02 113.14 37.02 113.27 36.97 113.36 36.88 113.41 36.75 113.41 36.71 113.36 36.58 113.27 36.49 113.14 36.44 113.1 36.44 112.97 36.49 112.88 36.58 112.83 36.71"/><polygon class="a" points="113.76 36.93 113.71 36.97 113.76 37.02 113.8 36.97 113.76 36.93"/><polyline class="a" points="114.29 37.02 114.73 36.09 114.12 36.09"/><polyline class="a" points="129.1 36.22 129.05 36.14 128.93 36.09 128.83 36.09 128.7 36.14 128.61 36.27 128.57 36.49 128.57 36.71 128.61 36.88 128.7 36.97 128.83 37.02 128.88 37.02 129.01 36.97 129.1 36.88 129.15 36.75 129.15 36.71 129.1 36.58 129.01 36.49 128.88 36.44 128.83 36.44 128.7 36.49 128.61 36.58 128.57 36.71"/><polygon class="a" points="129.49 36.93 129.45 36.97 129.49 37.02 129.54 36.97 129.49 36.93"/><polygon class="a" points="130.06 36.09 129.93 36.14 129.89 36.22 129.89 36.31 129.93 36.39 130.03 36.44 130.2 36.49 130.33 36.53 130.42 36.61 130.47 36.71 130.47 36.83 130.42 36.93 130.37 36.97 130.25 37.02 130.06 37.02 129.93 36.97 129.89 36.93 129.84 36.83 129.84 36.71 129.89 36.61 129.98 36.53 130.11 36.49 130.28 36.44 130.37 36.39 130.42 36.31 130.42 36.22 130.37 36.14 130.25 36.09 130.06 36.09"/><polyline class="a" points="28.15 41.75 28.15 42.18 28.69 42.22 28.63 42.18 28.58 42.05 28.58 41.92 28.63 41.79 28.75 41.7 28.93 41.67 29.06 41.67 29.24 41.7 29.36 41.79 29.42 41.92 29.42 42.05 29.36 42.18 29.3 42.22 29.18 42.26"/><polygon class="a" points="29.3 41.33 29.36 41.37 29.42 41.33 29.36 41.29 29.3 41.33"/><polyline class="a" points="28.46 40.95 28.39 40.95 28.27 40.91 28.21 40.86 28.15 40.77 28.15 40.6 28.21 40.52 28.27 40.48 28.39 40.43 28.52 40.43 28.63 40.48 28.81 40.57 29.42 40.99 29.42 40.4"/><polyline class="a" points="30.46 41.61 30.34 41.64 30.28 41.78 30.28 41.86 30.34 41.99 30.52 42.07 30.83 42.11 31.14 42.11 31.37 42.07 31.49 41.99 31.55 41.86 31.55 41.81 31.49 41.69 31.37 41.61 31.18 41.56 31.14 41.56 30.95 41.61 30.83 41.69 30.77 41.81 30.77 41.86 30.83 41.99 30.95 42.07 31.14 42.11"/><polygon class="a" points="31.43 41.23 31.49 41.26 31.55 41.23 31.49 41.18 31.43 41.23"/><polyline class="a" points="30.52 40.75 30.46 40.68 30.28 40.54 31.55 40.54"/><polyline class="a" points="88.91 42.62 88.91 42.16 89.39 42.41 89.39 42.28 89.45 42.19 89.51 42.16 89.69 42.11 89.81 42.11 90 42.16 90.12 42.24 90.18 42.37 90.18 42.5 90.12 42.62 90.06 42.66 89.94 42.71"/><polyline class="a" points="89.14 41.73 89.08 41.64 88.91 41.52 90.18 41.52"/><polygon class="a" points="90.06 40.92 90.12 40.97 90.18 40.92 90.12 40.88 90.06 40.92"/><polyline class="a" points="88.91 40.16 89.75 40.59 89.75 39.95"/><line class="a" x1="88.91" y1="40.16" x2="90.18" y2="40.16"/><polygon class="a" points="106.27 40.91 106.33 40.95 106.39 40.91 106.33 40.86 106.27 40.91"/><polyline class="a" points="105.12 40.05 105.12 40.48 105.67 40.52 105.61 40.48 105.55 40.36 105.55 40.22 105.61 40.1 105.73 40.02 105.92 39.97 106.03 39.97 106.21 40.02 106.33 40.1 106.4 40.22 106.4 40.36 106.33 40.48 106.27 40.52 106.15 40.57"/><polyline class="a" points="120.31 42.13 121.17 42.56 121.17 41.92"/><line class="a" x1="120.31" y1="42.13" x2="121.58" y2="42.13"/><polygon class="a" points="121.46 40.77 121.52 40.82 121.58 40.77 121.52 40.74 121.46 40.77"/><polyline class="a" points="120.55 40.31 120.49 40.22 120.31 40.1 121.58 40.1"/><polyline class="a" points="136.27 41.69 136.21 41.61 136.02 41.47 137.29 41.47"/><polygon class="a" points="137.17 40.88 137.23 40.92 137.29 40.88 137.23 40.84 137.17 40.88"/><polyline class="a" points="136.45 39.99 136.63 40.04 136.76 40.11 136.82 40.25 136.82 40.28 136.76 40.42 136.63 40.51 136.45 40.54 136.39 40.54 136.21 40.51 136.08 40.42 136.02 40.28 136.02 40.25 136.08 40.11 136.21 40.04 136.45 39.99 136.76 39.99 137.05 40.04 137.23 40.11 137.29 40.25 137.29 40.33 137.23 40.46 137.11 40.51"/><polygon class="a" points="16.04 41.37 16.1 41.5 16.28 41.58 16.59 41.62 16.77 41.62 17.06 41.58 17.25 41.5 17.31 41.37 17.31 41.29 17.25 41.15 17.06 41.07 16.77 41.03 16.59 41.03 16.28 41.07 16.1 41.15 16.04 41.29 16.04 41.37"/><polyline class="a" points="16.38 49 16.32 48.92 16.13 48.79 17.41 48.79"/><polyline class="a" points="16.55 46.88 16.73 46.93 16.86 47.02 16.92 47.14 16.92 47.17 16.86 47.31 16.73 47.4 16.55 47.43 16.49 47.43 16.32 47.4 16.19 47.31 16.13 47.17 16.13 47.14 16.19 47.02 16.32 46.93 16.55 46.88 16.86 46.88 17.16 46.93 17.34 47.02 17.41 47.14 17.41 47.22 17.34 47.35 17.22 47.4"/><polygon class="a" points="17.28 46.5 17.34 46.54 17.41 46.5 17.34 46.46 17.28 46.5"/><polyline class="a" points="16.13 45.74 16.98 46.16 16.98 45.52"/><line class="a" x1="16.13" y1="45.74" x2="17.41" y2="45.74"/><polyline class="a" points="28.35 48.77 28.29 48.68 28.11 48.56 29.39 48.56"/><polyline class="a" points="28.53 47.49 28.71 47.54 28.84 47.63 28.9 47.75 28.9 47.79 28.84 47.92 28.71 48.01 28.53 48.04 28.47 48.04 28.28 48.01 28.18 47.92 28.11 47.79 28.11 47.75 28.18 47.63 28.28 47.54 28.53 47.49 28.84 47.49 29.14 47.54 29.32 47.63 29.39 47.75 29.39 47.84 29.32 47.96 29.2 48.01"/><polygon class="a" points="28.11 46.94 28.17 47.08 28.35 47.15 28.65 47.2 28.84 47.2 29.14 47.15 29.32 47.08 29.39 46.94 29.39 46.86 29.32 46.73 29.14 46.65 28.84 46.6 28.65 46.6 28.35 46.65 28.17 46.73 28.11 46.86 28.11 46.94"/><polygon class="a" points="29.26 46.27 29.32 46.31 29.39 46.27 29.32 46.22 29.26 46.27"/><polyline class="a" points="28.11 45.84 28.11 45.38 28.59 45.63 28.59 45.5 28.65 45.41 28.71 45.38 28.9 45.33 29.02 45.33 29.2 45.38 29.32 45.46 29.39 45.58 29.39 45.72 29.32 45.84 29.26 45.89 29.14 45.93"/><polyline class="a" points="29.39 44.91 28.11 44.48 28.11 45.08"/><polyline class="a" points="30.52 48.79 30.46 48.7 30.28 48.58 31.55 48.58"/><polyline class="a" points="30.71 46.67 30.89 46.71 31.01 46.8 31.07 46.92 31.07 46.97 31.01 47.09 30.89 47.17 30.71 47.22 30.65 47.22 30.46 47.17 30.34 47.09 30.28 46.97 30.28 46.92 30.34 46.8 30.46 46.71 30.71 46.67 31.01 46.67 31.31 46.71 31.49 46.8 31.55 46.92 31.55 47 31.49 47.14 31.37 47.17"/><polygon class="a" points="31.43 46.28 31.49 46.33 31.55 46.28 31.49 46.24 31.43 46.28"/><polyline class="a" points="30.28 45.87 30.28 45.4 30.77 45.65 30.77 45.52 30.83 45.44 30.89 45.4 31.07 45.35 31.18 45.35 31.37 45.4 31.49 45.49 31.55 45.61 31.55 45.73 31.49 45.87 31.43 45.9 31.31 45.95"/><polyline class="a" points="30.28 44.68 31.14 45.09 31.14 44.46"/><line class="a" x1="30.28" y1="44.68" x2="31.55" y2="44.68"/><polyline class="a" points="120.69 48.79 120.63 48.7 120.44 48.58 121.72 48.58"/><polygon class="a" points="121.59 46.28 121.66 46.33 121.72 46.28 121.66 46.24 121.59 46.28"/><polyline class="a" points="120.44 45.87 120.44 45.4 120.93 45.65 120.93 45.52 121 45.44 121.06 45.4 121.24 45.35 121.36 45.35 121.53 45.4 121.66 45.49 121.72 45.61 121.72 45.73 121.66 45.87 121.59 45.9 121.48 45.95"/><polyline class="a" points="120.44 44.68 121.3 45.09 121.3 44.46"/><line class="a" x1="120.44" y1="44.68" x2="121.72" y2="44.68"/><polyline class="a" points="24.47 49 24.41 48.92 24.22 48.79 25.5 48.79"/><polyline class="a" points="24.65 47.73 24.83 47.77 24.96 47.86 25.02 47.98 25.02 48.03 24.96 48.15 24.83 48.24 24.65 48.29 24.59 48.29 24.41 48.24 24.28 48.15 24.22 48.03 24.22 47.98 24.28 47.86 24.41 47.77 24.65 47.73 24.96 47.73 25.25 47.77 25.43 47.86 25.49 47.98 25.49 48.07 25.43 48.2 25.31 48.24"/><polygon class="a" points="24.22 47.17 24.28 47.31 24.47 47.4 24.77 47.43 24.96 47.43 25.25 47.4 25.43 47.31 25.5 47.17 25.5 47.1 25.43 46.97 25.25 46.88 24.96 46.84 24.77 46.84 24.47 46.88 24.28 46.97 24.22 47.1 24.22 47.17"/><polygon class="a" points="25.37 46.5 25.43 46.54 25.49 46.5 25.43 46.46 25.37 46.5"/><polygon class="a" points="24.22 45.91 24.28 46.04 24.47 46.12 24.77 46.16 24.96 46.16 25.25 46.12 25.43 46.04 25.5 45.91 25.5 45.83 25.43 45.69 25.25 45.61 24.96 45.57 24.77 45.57 24.47 45.61 24.28 45.69 24.22 45.83 24.22 45.91"/><polyline class="a" points="25.5 45.14 24.22 44.73 24.22 45.31"/><polyline class="a" points="89.01 49 88.95 48.92 88.76 48.79 90.03 48.79"/><polygon class="a" points="88.76 47.22 88.82 47.35 88.95 47.4 89.07 47.4 89.19 47.35 89.25 47.26 89.31 47.1 89.37 46.97 89.5 46.88 89.61 46.84 89.79 46.84 89.91 46.88 89.97 46.93 90.03 47.05 90.03 47.22 89.97 47.35 89.91 47.4 89.79 47.43 89.61 47.43 89.5 47.4 89.37 47.31 89.31 47.17 89.25 47.02 89.19 46.93 89.07 46.88 88.95 46.88 88.82 46.93 88.76 47.05 88.76 47.22"/><polygon class="a" points="89.91 46.5 89.97 46.54 90.03 46.5 89.97 46.46 89.91 46.5"/><polyline class="a" points="90.03 45.14 88.76 44.73 88.76 45.31"/><polyline class="a" points="105.31 49 105.25 48.92 105.06 48.79 106.33 48.79"/><polygon class="a" points="105.06 47.22 105.12 47.35 105.25 47.4 105.37 47.4 105.49 47.35 105.55 47.26 105.61 47.1 105.67 46.97 105.8 46.88 105.92 46.84 106.1 46.84 106.21 46.88 106.27 46.93 106.33 47.05 106.33 47.22 106.27 47.35 106.21 47.4 106.1 47.43 105.92 47.43 105.8 47.4 105.67 47.31 105.61 47.17 105.55 47.02 105.49 46.93 105.37 46.88 105.25 46.88 105.12 46.93 105.06 47.05 105.06 47.22"/><polygon class="a" points="106.21 46.5 106.27 46.54 106.33 46.5 106.27 46.46 106.21 46.5"/><polyline class="a" points="105.06 45.74 105.92 46.16 105.92 45.52"/><line class="a" x1="105.06" y1="45.74" x2="106.33" y2="45.74"/><polyline class="a" points="105.25 44.76 105.12 44.8 105.06 44.94 105.06 45.02 105.12 45.14 105.31 45.23 105.61 45.28 105.92 45.28 106.16 45.23 106.27 45.14 106.33 45.02 106.33 44.97 106.27 44.85 106.16 44.76 105.98 44.73 105.92 44.73 105.73 44.76 105.61 44.85 105.55 44.97 105.55 45.02 105.61 45.14 105.73 45.23 105.92 45.28"/><polyline class="a" points="136.41 49.02 136.35 48.94 136.17 48.81 137.44 48.81"/><polygon class="a" points="136.17 48.09 136.23 48.21 136.35 48.26 136.47 48.26 136.6 48.21 136.66 48.13 136.72 47.97 136.78 47.84 136.9 47.75 137.01 47.71 137.2 47.71 137.32 47.75 137.38 47.8 137.44 47.92 137.44 48.09 137.38 48.21 137.32 48.26 137.2 48.3 137.01 48.3 136.9 48.26 136.78 48.18 136.72 48.04 136.66 47.88 136.6 47.8 136.47 47.75 136.35 47.75 136.23 47.8 136.17 47.92 136.17 48.09"/><polygon class="a" points="136.17 47.25 136.23 47.37 136.35 47.42 136.47 47.42 136.6 47.37 136.66 47.28 136.72 47.11 136.78 46.99 136.9 46.91 137.01 46.86 137.2 46.86 137.32 46.91 137.38 46.94 137.44 47.08 137.44 47.25 137.38 47.37 137.32 47.42 137.2 47.46 137.01 47.46 136.9 47.42 136.78 47.33 136.72 47.2 136.66 47.03 136.6 46.94 136.47 46.91 136.35 46.91 136.23 46.94 136.17 47.08 136.17 47.25"/><polygon class="a" points="137.32 46.53 137.38 46.56 137.44 46.53 137.38 46.48 137.32 46.53"/><polyline class="a" points="136.47 46.15 136.41 46.15 136.29 46.1 136.23 46.06 136.17 45.98 136.17 45.8 136.23 45.72 136.29 45.67 136.41 45.63 136.54 45.63 136.66 45.67 136.84 45.76 137.44 46.18 137.44 45.6"/><polyline class="a" points="136.17 44.91 137.01 45.34 137.01 44.7"/><line class="a" x1="136.17" y1="44.91" x2="137.44" y2="44.91"/><line class="a" x1="30.92" y1="8.58" x2="37.85" y2="8.58"/><line class="a" x1="38.34" y1="8.21" x2="73.43" y2="8.21"/><polyline class="a" points="78.86 5.51 76.38 5.48 73.43 8.21"/><line class="a" x1="78.86" y1="5.51" x2="81.81" y2="10.29"/><polygon class="a" points="1.69 40.82 1.69 39.89 2 39.89 2.13 39.94 2.22 40.03 2.27 40.11 2.32 40.25 2.32 40.47 2.27 40.6 2.22 40.69 2.13 40.79 2 40.82 1.69 40.82"/><line class="a" x1="2.62" y1="39.89" x2="2.62" y2="40.82"/><line class="a" x1="4.04" y1="39.89" x2="4.04" y2="40.82"/><line class="a" x1="3.74" y1="39.89" x2="4.35" y2="39.89"/><polygon class="a" points="4.62 40.74 4.57 40.79 4.62 40.82 4.67 40.79 4.62 40.74"/><polyline class="a" points="5.94 40.82 5.94 39.89 6.34 39.89 6.48 39.94 6.53 39.98 6.56 40.08 6.56 40.21 6.53 40.3 6.48 40.33 6.34 40.38 5.94 40.38"/><polyline class="a" points="6.87 40.82 6.87 39.89 7.27 39.89 7.41 39.94 7.46 39.98 7.49 40.08 7.49 40.16 7.46 40.25 7.41 40.3 7.27 40.33 6.87 40.33"/><line class="a" x1="7.19" y1="40.33" x2="7.49" y2="40.82"/><polyline class="a" points="9.4 40.11 9.35 40.03 9.27 39.94 9.18 39.89 9 39.89 8.91 39.94 8.83 40.03 8.78 40.11 8.73 40.25 8.73 40.47 8.78 40.6 8.83 40.69 8.91 40.79 9 40.82 9.18 40.82 9.27 40.79 9.35 40.69 9.4 40.6 9.4 40.47 9.18 40.47"/><polyline class="a" points="9.71 40.82 9.71 39.89 10.11 39.89 10.25 39.94 10.28 39.98 10.33 40.08 10.33 40.16 10.28 40.25 10.25 40.3 10.11 40.33 9.71 40.33"/><line class="a" x1="10.01" y1="40.33" x2="10.33" y2="40.82"/><polyline class="a" points="10.64 40.82 10.64 39.89 11.21 39.89"/><line class="a" x1="10.64" y1="40.33" x2="10.99" y2="40.33"/><line class="a" x1="10.64" y1="40.82" x2="11.21" y2="40.82"/><polyline class="a" points="12.94 40.03 12.85 39.94 12.72 39.89 12.55 39.89 12.41 39.94 12.33 40.03 12.33 40.11 12.36 40.21 12.41 40.25 12.5 40.3 12.77 40.38 12.85 40.43 12.9 40.47 12.94 40.57 12.94 40.69 12.85 40.79 12.72 40.82 12.55 40.82 12.41 40.79 12.33 40.69"/><line class="a" x1="13.26" y1="39.89" x2="13.26" y2="40.82"/><polyline class="a" points="13.48 39.89 13.83 40.82 14.19 39.89"/><polyline class="a" points="14.27 40.82 14.63 39.89 14.98 40.82"/><line class="a" x1="14.41" y1="40.52" x2="14.85" y2="40.52"/><line class="a" x1="2.32" y1="41.94" x2="2.32" y2="42.55"/><polyline class="a" points="2.32 42.11 2.45 41.97 2.54 41.94 2.67 41.94 2.76 41.97 2.81 42.11 2.81 42.55"/><polyline class="a" points="2.81 42.11 2.93 41.97 3.03 41.94 3.15 41.94 3.25 41.97 3.28 42.11 3.28 42.55"/><polygon class="a" points="1.69 35.98 1.69 35.05 2 35.05 2.13 35.1 2.22 35.18 2.27 35.28 2.32 35.4 2.32 35.63 2.27 35.76 2.22 35.85 2.13 35.94 2 35.98 1.69 35.98"/><line class="a" x1="2.62" y1="35.05" x2="2.62" y2="35.98"/><polyline class="a" points="3.55 35.18 3.47 35.1 3.33 35.05 3.15 35.05 3.03 35.1 2.93 35.18 2.93 35.28 2.98 35.37 3.03 35.4 3.11 35.45 3.38 35.54 3.47 35.59 3.5 35.63 3.55 35.72 3.55 35.85 3.47 35.94 3.33 35.98 3.15 35.98 3.03 35.94 2.93 35.85"/><line class="a" x1="4.04" y1="35.05" x2="4.04" y2="35.98"/><line class="a" x1="3.74" y1="35.05" x2="4.35" y2="35.05"/><polygon class="a" points="4.62 35.89 4.57 35.94 4.62 35.98 4.67 35.94 4.62 35.89"/><polyline class="a" points="5.94 35.98 5.94 35.05 6.34 35.05 6.48 35.1 6.53 35.15 6.56 35.23 6.56 35.37 6.53 35.45 6.48 35.5 6.34 35.54 5.94 35.54"/><polyline class="a" points="6.75 35.98 7.1 35.05 7.46 35.98"/><line class="a" x1="6.87" y1="35.67" x2="7.32" y2="35.67"/><polyline class="a" points="7.68 35.98 7.68 35.05 8.07 35.05 8.2 35.1 8.25 35.15 8.29 35.23 8.29 35.32 8.25 35.4 8.2 35.45 8.07 35.5 7.68 35.5"/><line class="a" x1="7.98" y1="35.5" x2="8.29" y2="35.98"/><polyline class="a" points="8.56 35.98 9.18 35.05 8.56 35.05"/><line class="a" x1="8.56" y1="35.98" x2="9.18" y2="35.98"/><line class="a" x1="9.49" y1="35.05" x2="9.49" y2="35.98"/><polyline class="a" points="9.71 35.98 10.06 35.05 10.42 35.98"/><line class="a" x1="9.84" y1="35.67" x2="10.28" y2="35.67"/><polyline class="a" points="10.64 35.05 10.64 35.98 11.18 35.98"/><polyline class="a" points="11.4 35.98 11.4 35.05 11.97 35.05"/><line class="a" x1="11.4" y1="35.5" x2="11.75" y2="35.5"/><line class="a" x1="11.4" y1="35.98" x2="11.97" y2="35.98"/><line class="a" x1="2.32" y1="37.09" x2="2.32" y2="37.72"/><polyline class="a" points="2.32 37.26 2.45 37.14 2.54 37.09 2.67 37.09 2.76 37.14 2.81 37.26 2.81 37.72"/><polyline class="a" points="2.81 37.26 2.93 37.14 3.03 37.09 3.15 37.09 3.25 37.14 3.28 37.26 3.28 37.72"/><polyline class="a" points="1.69 32.1 2.05 33.03 2.4 32.1"/><polyline class="a" points="2.62 33.03 2.62 32.1 3.2 32.1"/><line class="a" x1="2.62" y1="32.54" x2="2.98" y2="32.54"/><line class="a" x1="2.62" y1="33.03" x2="3.2" y2="33.03"/><polyline class="a" points="3.47 33.03 3.47 32.1 3.86 32.1 3.99 32.15 4.04 32.18 4.08 32.27 4.08 32.37 4.04 32.45 3.99 32.5 3.86 32.54 3.47 32.54"/><line class="a" x1="3.77" y1="32.54" x2="4.08" y2="33.03"/><line class="a" x1="4.57" y1="32.1" x2="4.57" y2="33.03"/><line class="a" x1="4.26" y1="32.1" x2="4.89" y2="32.1"/><line class="a" x1="5.11" y1="32.1" x2="5.11" y2="33.03"/><polyline class="a" points="6.07 32.32 6.04 32.23 5.94 32.15 5.85 32.1 5.68 32.1 5.6 32.15 5.5 32.23 5.46 32.32 5.41 32.45 5.41 32.67 5.46 32.81 5.5 32.89 5.6 32.98 5.68 33.03 5.85 33.03 5.94 32.98 6.04 32.89 6.07 32.81"/><line class="a" x1="6.39" y1="32.1" x2="6.39" y2="33.03"/><line class="a" x1="2.1" y1="46.23" x2="2.35" y2="46.49"/><polyline class="a" points="2.71 45.47 2.71 46.15 2.76 46.27 2.84 46.37 2.98 46.4 3.06 46.4 3.2 46.37 3.28 46.27 3.33 46.15 3.33 45.47"/><line class="a" x1="4.84" y1="45.47" x2="4.84" y2="46.4"/><line class="a" x1="4.53" y1="45.47" x2="5.14" y2="45.47"/><polyline class="a" points="5.24 46.4 5.6 45.47 5.94 46.4"/><line class="a" x1="5.36" y1="46.1" x2="5.82" y2="46.1"/><line class="a" x1="7.27" y1="45.47" x2="7.27" y2="46.4"/><line class="a" x1="6.97" y1="45.47" x2="7.58" y2="45.47"/><polyline class="a" points="7.8 46.4 7.8 45.47 8.39 45.47"/><line class="a" x1="7.8" y1="45.91" x2="8.15" y2="45.91"/><line class="a" x1="7.8" y1="46.4" x2="8.39" y2="46.4"/><polyline class="a" points="8.64 46.4 8.64 45.47 9.05 45.47 9.18 45.52 9.22 45.56 9.27 45.66 9.27 45.74 9.22 45.83 9.18 45.88 9.05 45.91 8.64 45.91"/><line class="a" x1="8.96" y1="45.91" x2="9.27" y2="46.4"/><polyline class="a" points="9.57 46.4 9.57 45.47 9.98 45.47 10.11 45.52 10.15 45.56 10.2 45.66 10.2 45.74 10.15 45.83 10.11 45.88 9.98 45.91 9.57 45.91"/><line class="a" x1="9.89" y1="45.91" x2="10.2" y2="46.4"/><polyline class="a" points="10.5 46.4 10.5 45.47 11.08 45.47"/><line class="a" x1="10.5" y1="45.91" x2="10.86" y2="45.91"/><line class="a" x1="10.5" y1="46.4" x2="11.08" y2="46.4"/><polyline class="a" points="11.35 46.4 11.35 45.47 11.97 46.4 11.97 45.47"/><line class="a" x1="2.32" y1="47.52" x2="2.32" y2="48.13"/><polyline class="a" points="2.32 47.69 2.45 47.55 2.54 47.52 2.67 47.52 2.76 47.55 2.81 47.69 2.81 48.13"/><polyline class="a" points="2.81 47.69 2.93 47.55 3.03 47.52 3.15 47.52 3.25 47.55 3.28 47.69 3.28 48.13"/><polyline class="a" points="5.01 47.65 4.97 47.55 4.84 47.52 4.7 47.52 4.57 47.55 4.53 47.65 4.57 47.74 4.67 47.77 4.89 47.82 4.97 47.87 5.01 47.96 5.01 47.99 4.97 48.09 4.84 48.13 4.7 48.13 4.57 48.09 4.53 47.99"/><polygon class="a" points="5.37 48.04 5.33 48.09 5.37 48.13 5.41 48.09 5.37 48.04"/><line class="a" x1="5.77" y1="47.2" x2="5.77" y2="48.13"/><polygon class="a" points="6.17 48.04 6.12 48.09 6.17 48.13 6.21 48.09 6.17 48.04"/><line class="a" x1="6.56" y1="47.52" x2="6.56" y2="48.13"/><polyline class="a" points="6.56 47.69 6.7 47.55 6.78 47.52 6.92 47.52 7 47.55 7.05 47.69 7.05 48.13"/><polyline class="a" points="7.05 47.69 7.19 47.55 7.27 47.52 7.41 47.52 7.49 47.55 7.54 47.69 7.54 48.13"/><polygon class="a" points="7.93 48.04 7.9 48.09 7.93 48.13 7.98 48.09 7.93 48.04"/><line class="c" x1="35.2" y1="8.58" x2="35.15" y2="8.65"/><line class="b" x1="42.64" y1="7.6" x2="44.13" y2="8.21"/><line class="a" x1="37.85" y1="8.58" x2="37.85" y2="30.19"/><line class="a" x1="38.34" y1="8.21" x2="38.34" y2="30.19"/><line class="a" x1="73.43" y1="8.21" x2="73.43" y2="30.19"/><line class="a" x1="76.38" y1="5.48" x2="76.38" y2="30.19"/><line class="a" x1="78.86" y1="5.51" x2="78.86" y2="30.19"/><line class="a" x1="81.81" y1="10.29" x2="81.81" y2="30.19"/><line class="a" x1="55.89" y1="8.21" x2="55.89" y2="30.19"/><polyline class="a" points="37.65 31.9 37.08 31.9 37.02 32.42 37.08 32.35 37.25 32.29 37.43 32.29 37.6 32.35 37.71 32.47 37.77 32.64 37.77 32.76 37.71 32.93 37.6 33.04 37.43 33.1 37.25 33.1 37.08 33.04 37.02 32.98 36.96 32.87"/><polyline class="a" points="39.19 32.07 39.13 31.95 38.96 31.9 38.84 31.9 38.67 31.95 38.55 32.12 38.5 32.42 38.5 32.7 38.55 32.93 38.67 33.04 38.84 33.1 38.89 33.1 39.07 33.04 39.19 32.93 39.24 32.76 39.24 32.7 39.19 32.53 39.07 32.42 38.89 32.35 38.84 32.35 38.67 32.42 38.55 32.53 38.5 32.7"/><polyline class="a" points="55.72 33.1 56.3 31.9 55.49 31.9"/><polygon class="a" points="73.32 31.9 73.15 31.95 73.09 32.07 73.09 32.18 73.15 32.29 73.26 32.35 73.49 32.42 73.66 32.47 73.77 32.59 73.83 32.7 73.83 32.87 73.77 32.98 73.72 33.04 73.55 33.1 73.32 33.1 73.15 33.04 73.09 32.98 73.04 32.87 73.04 32.7 73.09 32.59 73.21 32.47 73.38 32.42 73.6 32.35 73.72 32.29 73.77 32.18 73.77 32.07 73.72 31.95 73.55 31.9 73.32 31.9"/><polyline class="a" points="76.76 32.29 76.7 32.47 76.59 32.59 76.41 32.64 76.35 32.64 76.18 32.59 76.07 32.47 76.01 32.29 76.01 32.24 76.07 32.07 76.18 31.95 76.35 31.9 76.41 31.9 76.59 31.95 76.7 32.07 76.76 32.29 76.76 32.59 76.7 32.87 76.59 33.04 76.41 33.1 76.29 33.1 76.12 33.04 76.07 32.93"/><polyline class="a" points="77.96 32.16 78.07 32.11 78.24 31.94 78.24 33.14"/><polygon class="a" points="79.27 31.94 79.09 31.99 78.98 32.16 78.92 32.45 78.92 32.62 78.98 32.91 79.09 33.08 79.27 33.14 79.39 33.14 79.56 33.08 79.67 32.91 79.73 32.62 79.73 32.45 79.67 32.16 79.56 31.99 79.39 31.94 79.27 31.94"/><line class="a" x1="37.85" y1="34.81" x2="37.85" y2="38.51"/><line class="a" x1="38.34" y1="34.81" x2="38.34" y2="38.51"/><line class="a" x1="55.89" y1="34.81" x2="55.89" y2="38.51"/><line class="a" x1="73.43" y1="34.81" x2="73.43" y2="38.51"/><line class="a" x1="76.38" y1="34.81" x2="76.38" y2="38.51"/><line class="a" x1="78.86" y1="34.81" x2="78.86" y2="38.51"/><line class="a" x1="81.81" y1="34.81" x2="81.81" y2="38.51"/><polygon class="a" points="38.11 36.52 38.06 36.55 38.11 36.6 38.16 36.55 38.11 36.52"/><polyline class="a" points="46.46 37.02 46.9 36.1 46.29 36.1"/><polygon class="a" points="47.25 36.93 47.22 36.98 47.25 37.02 47.3 36.98 47.25 36.93"/><polyline class="a" points="48.18 36.22 48.13 36.14 48 36.1 47.91 36.1 47.78 36.14 47.69 36.27 47.66 36.49 47.66 36.71 47.69 36.88 47.78 36.98 47.91 37.02 47.96 37.02 48.1 36.98 48.18 36.88 48.22 36.76 48.22 36.71 48.18 36.58 48.1 36.49 47.96 36.44 47.91 36.44 47.78 36.49 47.69 36.58 47.66 36.71"/><polyline class="a" points="63.98 37.02 64.42 36.1 63.81 36.1"/><polygon class="a" points="64.78 36.93 64.73 36.98 64.78 37.02 64.81 36.98 64.78 36.93"/><polyline class="a" points="65.69 36.22 65.66 36.14 65.52 36.1 65.44 36.1 65.3 36.14 65.22 36.27 65.17 36.49 65.17 36.71 65.22 36.88 65.3 36.98 65.44 37.02 65.47 37.02 65.61 36.98 65.69 36.88 65.74 36.76 65.74 36.71 65.69 36.58 65.61 36.49 65.47 36.44 65.44 36.44 65.3 36.49 65.22 36.58 65.17 36.71"/><polyline class="a" points="74.03 36.27 74.11 36.22 74.25 36.1 74.25 37.02"/><polygon class="a" points="74.86 36.93 74.82 36.98 74.86 37.02 74.91 36.98 74.86 36.93"/><polyline class="a" points="75.3 36.1 75.79 36.1 75.52 36.44 75.66 36.44 75.74 36.49 75.79 36.54 75.83 36.66 75.83 36.76 75.79 36.88 75.7 36.98 75.57 37.02 75.44 37.02 75.3 36.98 75.26 36.93 75.22 36.85"/><polyline class="a" points="76.87 36.27 76.95 36.22 77.09 36.1 77.09 37.02"/><polygon class="a" points="77.7 36.93 77.66 36.98 77.7 37.02 77.75 36.98 77.7 36.93"/><polyline class="a" points="78.19 36.27 78.28 36.22 78.41 36.1 78.41 37.02"/><polyline class="a" points="79.35 36.27 79.45 36.22 79.57 36.1 79.57 37.02"/><polygon class="a" points="80.2 36.93 80.15 36.98 80.2 37.02 80.23 36.98 80.2 36.93"/><polyline class="a" points="80.64 36.1 81.11 36.1 80.86 36.44 80.99 36.44 81.08 36.49 81.11 36.54 81.16 36.66 81.16 36.76 81.11 36.88 81.03 36.98 80.89 37.02 80.77 37.02 80.64 36.98 80.59 36.93 80.55 36.85"/><polyline class="a" points="84.76 36.1 85.24 36.1 84.98 36.44 85.11 36.44 85.2 36.49 85.24 36.54 85.29 36.66 85.29 36.76 85.24 36.88 85.15 36.98 85.02 37.02 84.89 37.02 84.76 36.98 84.71 36.93 84.67 36.85"/><polygon class="a" points="85.64 36.93 85.59 36.98 85.64 37.02 85.68 36.98 85.64 36.93"/><polyline class="a" points="86.08 36.1 86.56 36.1 86.3 36.44 86.42 36.44 86.52 36.49 86.56 36.54 86.61 36.66 86.61 36.76 86.56 36.88 86.47 36.98 86.34 37.02 86.2 37.02 86.08 36.98 86.03 36.93 85.98 36.85"/><polyline class="a" points="36.8 48.79 36.74 48.7 36.56 48.58 37.83 48.58"/><polyline class="a" points="36.97 46.67 37.16 46.71 37.28 46.8 37.34 46.92 37.34 46.97 37.28 47.09 37.16 47.17 36.97 47.22 36.91 47.22 36.74 47.17 36.62 47.09 36.56 46.97 36.56 46.92 36.62 46.8 36.74 46.71 36.97 46.67 37.28 46.67 37.59 46.71 37.77 46.8 37.83 46.92 37.83 47 37.77 47.14 37.65 47.17"/><polygon class="a" points="37.71 46.28 37.77 46.33 37.83 46.28 37.77 46.24 37.71 46.28"/><polyline class="a" points="36.56 45.87 36.56 45.4 37.03 45.65 37.03 45.52 37.09 45.44 37.16 45.4 37.34 45.35 37.46 45.35 37.65 45.4 37.77 45.49 37.83 45.61 37.83 45.73 37.77 45.87 37.71 45.9 37.59 45.95"/><polyline class="a" points="36.56 44.68 37.4 45.09 37.4 44.46"/><line class="a" x1="36.56" y1="44.68" x2="37.83" y2="44.68"/><polyline class="a" points="38.61 48.34 38.56 48.26 38.38 48.13 39.65 48.13"/><polyline class="a" points="38.8 46.22 38.98 46.27 39.1 46.35 39.16 46.48 39.16 46.51 39.1 46.65 38.98 46.73 38.8 46.77 38.74 46.77 38.56 46.73 38.44 46.65 38.38 46.51 38.38 46.48 38.44 46.35 38.56 46.27 38.8 46.22 39.1 46.22 39.41 46.27 39.59 46.35 39.65 46.48 39.65 46.56 39.59 46.69 39.47 46.73"/><polygon class="a" points="39.53 45.84 39.59 45.89 39.65 45.84 39.59 45.8 39.53 45.84"/><polyline class="a" points="55.5 48.5 55.44 48.41 55.26 48.29 56.53 48.29"/><polyline class="a" points="55.68 46.38 55.85 46.43 55.98 46.51 56.04 46.64 56.04 46.67 55.98 46.81 55.85 46.89 55.68 46.93 55.62 46.93 55.44 46.89 55.32 46.81 55.26 46.67 55.26 46.64 55.32 46.51 55.44 46.43 55.68 46.38 55.98 46.38 56.28 46.43 56.47 46.51 56.53 46.64 56.53 46.72 56.47 46.84 56.34 46.89"/><polygon class="a" points="56.41 46 56.47 46.04 56.53 46 56.47 45.95 56.41 46"/><polyline class="a" points="73.04 48.5 72.98 48.41 72.79 48.29 74.06 48.29"/><polyline class="a" points="73.22 46.38 73.4 46.43 73.53 46.51 73.59 46.64 73.59 46.67 73.53 46.81 73.4 46.89 73.22 46.93 73.16 46.93 72.97 46.89 72.85 46.81 72.79 46.67 72.79 46.64 72.85 46.51 72.97 46.43 73.22 46.38 73.53 46.38 73.83 46.43 74 46.51 74.06 46.64 74.06 46.72 74 46.84 73.89 46.89"/><polygon class="a" points="73.94 46 74 46.04 74.06 46 74 45.95 73.94 46"/><polyline class="a" points="75.99 48.92 75.92 48.84 75.74 48.72 77.01 48.72"/><polyline class="a" points="76.17 47.65 76.35 47.7 76.48 47.77 76.54 47.91 76.54 47.95 76.48 48.08 76.35 48.17 76.17 48.2 76.11 48.2 75.92 48.17 75.8 48.08 75.74 47.95 75.74 47.91 75.8 47.77 75.92 47.7 76.17 47.65 76.48 47.65 76.77 47.7 76.95 47.77 77.01 47.91 77.01 47.99 76.95 48.12 76.83 48.17"/><polygon class="a" points="75.74 47.1 75.8 47.22 75.99 47.31 76.29 47.36 76.47 47.36 76.77 47.31 76.95 47.22 77.01 47.1 77.01 47.02 76.95 46.89 76.77 46.81 76.47 46.76 76.29 46.76 75.99 46.81 75.8 46.89 75.74 47.02 75.74 47.1"/><polygon class="a" points="76.89 46.43 76.95 46.47 77.01 46.43 76.95 46.38 76.89 46.43"/><polyline class="a" points="75.92 45.53 75.8 45.57 75.74 45.71 75.74 45.79 75.8 45.91 75.99 46 76.29 46.04 76.6 46.04 76.83 46 76.95 45.91 77.01 45.79 77.01 45.74 76.95 45.62 76.83 45.53 76.66 45.49 76.6 45.49 76.42 45.53 76.29 45.62 76.23 45.74 76.23 45.79 76.29 45.91 76.42 46 76.6 46.04"/><polyline class="a" points="76.05 45.19 75.99 45.19 75.86 45.16 75.8 45.11 75.74 45.02 75.74 44.85 75.8 44.76 75.86 44.73 75.99 44.69 76.11 44.69 76.23 44.73 76.41 44.81 77.01 45.24 77.01 44.64"/><polyline class="a" points="78.47 48.92 78.41 48.84 78.22 48.72 79.5 48.72"/><polyline class="a" points="78.65 47.65 78.83 47.7 78.95 47.77 79.01 47.91 79.01 47.95 78.95 48.08 78.83 48.17 78.65 48.2 78.59 48.2 78.41 48.17 78.29 48.08 78.23 47.95 78.23 47.91 78.29 47.77 78.41 47.7 78.65 47.65 78.95 47.65 79.25 47.7 79.44 47.77 79.5 47.91 79.5 47.99 79.44 48.12 79.31 48.17"/><polygon class="a" points="78.22 47.1 78.29 47.22 78.47 47.31 78.76 47.36 78.95 47.36 79.25 47.31 79.44 47.22 79.5 47.1 79.5 47.02 79.44 46.89 79.25 46.81 78.95 46.76 78.76 46.76 78.47 46.81 78.29 46.89 78.22 47.02 78.22 47.1"/><polygon class="a" points="79.38 46.43 79.44 46.47 79.5 46.43 79.44 46.38 79.38 46.43"/><polyline class="a" points="78.41 45.53 78.29 45.57 78.22 45.71 78.22 45.79 78.29 45.91 78.47 46 78.76 46.04 79.07 46.04 79.31 46 79.44 45.91 79.5 45.79 79.5 45.74 79.44 45.62 79.31 45.53 79.13 45.49 79.07 45.49 78.89 45.53 78.76 45.62 78.7 45.74 78.7 45.79 78.76 45.91 78.89 46 79.07 46.04"/><polyline class="a" points="78.53 45.19 78.47 45.19 78.35 45.16 78.29 45.11 78.22 45.02 78.22 44.85 78.29 44.76 78.35 44.73 78.47 44.69 78.59 44.69 78.7 44.73 78.89 44.81 79.5 45.24 79.5 44.64"/><polyline class="a" points="81.42 48.5 81.36 48.41 81.17 48.29 82.45 48.29"/><polygon class="a" points="81.17 46.72 81.24 46.84 81.36 46.89 81.48 46.89 81.6 46.84 81.67 46.76 81.73 46.59 81.79 46.47 81.91 46.38 82.03 46.34 82.2 46.34 82.33 46.38 82.39 46.43 82.45 46.55 82.45 46.72 82.39 46.84 82.33 46.89 82.2 46.93 82.03 46.93 81.91 46.89 81.79 46.81 81.73 46.67 81.67 46.51 81.6 46.43 81.48 46.38 81.36 46.38 81.24 46.43 81.17 46.55 81.17 46.72"/><polygon class="a" points="82.33 46 82.39 46.04 82.45 46 82.39 45.95 82.33 46"/><polyline class="a" points="81.36 45.11 81.24 45.16 81.17 45.28 81.17 45.36 81.24 45.48 81.42 45.57 81.72 45.62 82.03 45.62 82.26 45.57 82.39 45.48 82.45 45.36 82.45 45.33 82.39 45.19 82.26 45.11 82.09 45.07 82.03 45.07 81.85 45.11 81.72 45.19 81.66 45.33 81.66 45.36 81.72 45.48 81.85 45.57 82.03 45.62"/><polyline class="a" points="36.94 41.58 37.12 41.62 37.24 41.7 37.3 41.84 37.3 41.88 37.24 42.01 37.12 42.1 36.94 42.13 36.88 42.13 36.7 42.1 36.58 42.01 36.52 41.88 36.52 41.84 36.58 41.7 36.7 41.62 36.94 41.58 37.24 41.58 37.55 41.62 37.73 41.7 37.79 41.84 37.79 41.92 37.73 42.05 37.61 42.1"/><polygon class="a" points="37.67 41.2 37.73 41.24 37.79 41.2 37.73 41.15 37.67 41.2"/><polyline class="a" points="36.77 40.74 36.7 40.65 36.52 40.52 37.79 40.52"/><polyline class="a" points="38.85 41.73 39.03 41.78 39.15 41.86 39.21 41.99 39.21 42.02 39.15 42.16 39.03 42.24 38.85 42.28 38.78 42.28 38.61 42.24 38.49 42.16 38.43 42.02 38.43 41.99 38.49 41.86 38.61 41.78 38.85 41.73 39.15 41.73 39.46 41.78 39.64 41.86 39.7 41.99 39.7 42.07 39.64 42.19 39.52 42.24"/><polygon class="a" points="39.58 41.35 39.64 41.39 39.7 41.35 39.64 41.31 39.58 41.35"/><polyline class="a" points="38.43 40.59 39.27 41.01 39.27 40.37"/><line class="a" x1="38.43" y1="40.59" x2="39.7" y2="40.59"/><polyline class="a" points="55.5 42.6 55.44 42.51 55.26 42.39 56.53 42.39"/><polyline class="a" points="55.44 41.33 55.32 41.37 55.26 41.5 55.26 41.58 55.32 41.7 55.5 41.79 55.79 41.84 56.1 41.84 56.34 41.79 56.47 41.7 56.53 41.58 56.53 41.55 56.47 41.41 56.34 41.33 56.16 41.29 56.1 41.29 55.92 41.33 55.79 41.41 55.73 41.55 55.73 41.58 55.79 41.7 55.92 41.79 56.1 41.84"/><polygon class="a" points="56.41 40.95 56.47 40.99 56.53 40.95 56.47 40.91 56.41 40.95"/><polyline class="a" points="55.68 40.05 55.85 40.1 55.98 40.19 56.04 40.31 56.04 40.36 55.98 40.48 55.85 40.57 55.68 40.6 55.62 40.6 55.44 40.57 55.32 40.48 55.26 40.36 55.26 40.31 55.32 40.19 55.44 40.1 55.68 40.05 55.98 40.05 56.28 40.1 56.47 40.19 56.53 40.31 56.53 40.4 56.47 40.52 56.34 40.57"/><polyline class="a" points="73.1 42.65 73.04 42.65 72.91 42.6 72.85 42.56 72.79 42.48 72.79 42.3 72.85 42.22 72.91 42.18 73.04 42.13 73.16 42.13 73.47 42.26 74.06 42.68 74.06 42.1"/><polyline class="a" points="72.79 41.41 73.65 41.84 73.65 41.2"/><line class="a" x1="72.79" y1="41.41" x2="74.07" y2="41.41"/><polygon class="a" points="73.94 40.91 74 40.95 74.06 40.91 74 40.86 73.94 40.91"/><polyline class="a" points="72.79 40.05 72.79 40.48 73.34 40.52 73.28 40.48 73.22 40.36 73.22 40.22 73.28 40.1 73.4 40.02 73.59 39.97 73.71 39.97 73.89 40.02 74 40.1 74.06 40.22 74.06 40.36 74 40.48 73.94 40.52 73.83 40.57"/><polyline class="a" points="76.05 42.65 75.99 42.65 75.86 42.6 75.8 42.56 75.74 42.48 75.74 42.3 75.8 42.22 75.86 42.18 75.99 42.13 76.11 42.13 76.41 42.26 77.01 42.68 77.01 42.1"/><polyline class="a" points="75.74 41.33 75.74 41.75 76.29 41.79 76.23 41.75 76.17 41.62 76.17 41.5 76.23 41.37 76.35 41.29 76.54 41.24 76.66 41.24 76.83 41.29 76.95 41.37 77.01 41.5 77.01 41.62 76.95 41.75 76.89 41.79 76.77 41.84"/><polygon class="a" points="76.89 40.91 76.95 40.95 77.01 40.91 76.95 40.86 76.89 40.91"/><polyline class="a" points="78.53 42.62 78.47 42.62 78.35 42.57 78.29 42.54 78.22 42.45 78.22 42.28 78.29 42.19 78.35 42.16 78.47 42.11 78.59 42.11 78.72 42.16 78.89 42.24 79.5 42.66 79.5 42.07"/><polyline class="a" points="78.41 41.26 78.29 41.31 78.22 41.44 78.22 41.52 78.29 41.64 78.47 41.73 78.76 41.78 79.07 41.78 79.31 41.73 79.44 41.64 79.5 41.52 79.5 41.47 79.44 41.35 79.31 41.26 79.13 41.23 79.07 41.23 78.89 41.26 78.76 41.35 78.72 41.47 78.72 41.52 78.76 41.64 78.89 41.73 79.07 41.78"/><polygon class="a" points="79.38 40.88 79.44 40.92 79.5 40.88 79.44 40.84 79.38 40.88"/><polyline class="a" points="78.65 39.99 78.83 40.04 78.95 40.11 79.01 40.25 79.01 40.28 78.95 40.42 78.83 40.51 78.65 40.54 78.59 40.54 78.41 40.51 78.29 40.42 78.23 40.28 78.23 40.25 78.29 40.11 78.41 40.04 78.65 39.99 78.95 39.99 79.25 40.04 79.44 40.11 79.5 40.25 79.5 40.33 79.44 40.46 79.31 40.51"/><polyline class="a" points="81.36 41.61 81.24 41.64 81.17 41.78 81.17 41.86 81.24 41.99 81.42 42.07 81.72 42.11 82.03 42.11 82.26 42.07 82.39 41.99 82.45 41.86 82.45 41.81 82.39 41.69 82.26 41.61 82.09 41.56 82.03 41.56 81.85 41.61 81.72 41.69 81.66 41.81 81.66 41.86 81.72 41.99 81.85 42.07 82.03 42.11"/><polygon class="a" points="82.33 41.23 82.39 41.26 82.45 41.23 82.39 41.18 82.33 41.23"/><polyline class="a" points="81.42 40.75 81.36 40.68 81.17 40.54 82.45 40.54"/><polyline class="a" points="36.73 1.52 36.67 1.46 36.57 1.42 36.44 1.42 36.35 1.46 36.28 1.52 36.28 1.58 36.31 1.65 36.35 1.68 36.41 1.71 36.61 1.77 36.67 1.81 36.7 1.83 36.73 1.91 36.73 2.01 36.67 2.07 36.57 2.1 36.44 2.1 36.35 2.07 36.28 2.01"/><polyline class="a" points="37.41 1.58 37.38 1.52 37.32 1.46 37.26 1.42 37.12 1.42 37.06 1.46 37 1.52 36.96 1.58 36.92 1.68 36.92 1.83 36.96 1.93 37 2.01 37.06 2.07 37.12 2.1 37.26 2.1 37.32 2.07 37.38 2.01 37.41 1.93"/><polyline class="a" points="37.55 2.1 37.8 1.42 38.06 2.1"/><line class="a" x1="37.65" y1="1.87" x2="37.96" y2="1.87"/><polyline class="a" points="38.14 1.42 38.39 2.1 38.65 1.42"/><polygon class="a" points="38.98 1.42 38.91 1.46 38.84 1.52 38.81 1.58 38.78 1.68 38.78 1.83 38.81 1.93 38.84 2.01 38.91 2.07 38.98 2.1 39.1 2.1 39.18 2.07 39.24 2.01 39.27 1.93 39.3 1.83 39.3 1.68 39.27 1.58 39.24 1.52 39.18 1.46 39.1 1.42 38.98 1.42"/><line class="a" x1="39.53" y1="1.71" x2="40.12" y2="1.71"/><line class="a" x1="39.53" y1="1.91" x2="40.12" y2="1.91"/><polyline class="a" points="40.38 1.58 40.38 1.55 40.4 1.48 40.44 1.46 40.5 1.42 40.63 1.42 40.69 1.46 40.73 1.48 40.77 1.55 40.77 1.61 40.73 1.68 40.67 1.77 40.34 2.1 40.79 2.1"/><polygon class="a" points="41.06 2.03 41.02 2.07 41.06 2.1 41.09 2.07 41.06 2.03"/><polyline class="a" points="42.38 1.52 42.36 1.46 42.26 1.42 42.2 1.42 42.1 1.46 42.03 1.55 42 1.71 42 1.87 42.03 2.01 42.1 2.07 42.2 2.1 42.22 2.1 42.32 2.07 42.38 2.01 42.42 1.91 42.42 1.87 42.38 1.77 42.32 1.71 42.22 1.68 42.2 1.68 42.1 1.71 42.03 1.77 42 1.87"/><line class="a" x1="43.32" y1="1.65" x2="43.32" y2="2.1"/><polyline class="a" points="43.32 1.77 43.42 1.68 43.49 1.65 43.59 1.65 43.65 1.68 43.69 1.77 43.69 2.1"/><polyline class="a" points="43.69 1.77 43.79 1.68 43.85 1.65 43.95 1.65 44.01 1.68 44.05 1.77 44.05 2.1"/><line class="a" x1="44.66" y1="1.65" x2="44.66" y2="2.32"/><polyline class="a" points="56.58 4.69 56.58 4 56.87 4 56.97 4.04 56.99 4.06 57.03 4.13 57.03 4.2 56.99 4.26 56.97 4.29 56.87 4.33 56.58 4.33"/><line class="a" x1="56.8" y1="4.33" x2="57.03" y2="4.69"/><line class="a" x1="57.25" y1="4" x2="57.25" y2="4.69"/><polyline class="a" points="57.52 4.69 57.52 4 57.81 4 57.91 4.04 57.94 4.06 57.97 4.13 57.97 4.23 57.94 4.29 57.91 4.33 57.81 4.36 57.52 4.36"/><polygon class="a" points="58.36 4 58.29 4.04 58.23 4.1 58.19 4.16 58.17 4.26 58.17 4.43 58.19 4.53 58.23 4.59 58.29 4.65 58.36 4.69 58.49 4.69 58.56 4.65 58.62 4.59 58.66 4.53 58.68 4.43 58.68 4.26 58.66 4.16 58.62 4.1 58.56 4.04 58.49 4 58.36 4"/><polyline class="a" points="58.91 4.69 58.91 4 59.21 4 59.31 4.04 59.33 4.06 59.37 4.13 59.37 4.2 59.33 4.26 59.31 4.29 59.21 4.33 58.91 4.33"/><line class="a" x1="59.14" y1="4.33" x2="59.37" y2="4.69"/><line class="a" x1="59.72" y1="4" x2="59.72" y2="4.69"/><line class="a" x1="59.5" y1="4" x2="59.96" y2="4"/><line class="a" x1="60.84" y1="4.29" x2="61.41" y2="4.29"/><line class="a" x1="60.84" y1="4.49" x2="61.41" y2="4.49"/><polyline class="a" points="61.74 4.14 61.8 4.1 61.9 4 61.9 4.69"/><polygon class="a" points="63 4.63 62.98 4.65 63 4.69 63.04 4.65 63 4.63"/><polyline class="a" points="63.69 4.23 63.66 4.33 63.59 4.39 63.49 4.43 63.47 4.43 63.37 4.39 63.3 4.33 63.27 4.23 63.27 4.2 63.3 4.1 63.37 4.04 63.47 4 63.49 4 63.59 4.04 63.66 4.1 63.69 4.23 63.69 4.39 63.66 4.55 63.59 4.65 63.49 4.69 63.43 4.69 63.33 4.65 63.3 4.59"/><polyline class="a" points="64.34 4.1 64.31 4.04 64.21 4 64.14 4 64.04 4.04 63.98 4.14 63.94 4.29 63.94 4.45 63.98 4.59 64.04 4.65 64.14 4.69 64.18 4.69 64.28 4.65 64.34 4.59 64.37 4.49 64.37 4.45 64.34 4.36 64.28 4.29 64.18 4.26 64.14 4.26 64.04 4.29 63.98 4.36 63.94 4.45"/><line class="a" x1="65.28" y1="4.23" x2="65.28" y2="4.69"/><polyline class="a" points="65.28 4.36 65.38 4.26 65.45 4.23 65.55 4.23 65.61 4.26 65.64 4.36 65.64 4.69"/><polyline class="a" points="65.64 4.36 65.74 4.26 65.8 4.23 65.9 4.23 65.96 4.26 66 4.36 66 4.69"/><line class="a" x1="66.61" y1="4.23" x2="66.61" y2="4.91"/><polyline class="b" points="38.23 5.9 36.28 2.33 45.52 2.33"/><polyline class="c" points="56.16 4.91 67.09 4.91 67.09 8.21"/><line class="a" x1="28.75" y1="6.2" x2="30.92" y2="8.58"/><line class="a" x1="37.85" y1="8.58" x2="38.34" y2="8.21"/><line class="a" x1="3.82" y1="28.78" x2="6.06" y2="28.78"/><polygon class="a" points="8.3 28.78 6.06 30.19 6.06 28.78 8.3 28.78"/><line class="a" x1="7.93" y1="29.01" x2="8.17" y2="28.78"/><line class="a" x1="6.2" y1="30.1" x2="7.52" y2="28.78"/><line class="a" x1="6.06" y1="29.58" x2="6.86" y2="28.78"/><line class="a" x1="6.06" y1="28.93" x2="6.21" y2="28.78"/><line class="a" x1="7.11" y1="29.53" x2="6.38" y2="28.78"/><line class="a" x1="6.71" y1="29.77" x2="6.06" y2="29.12"/><line class="a" x1="6.32" y1="30.03" x2="6.06" y2="29.77"/><line class="a" x1="7.52" y1="29.27" x2="7.03" y2="28.78"/><line class="a" x1="7.92" y1="29.03" x2="7.69" y2="28.78"/><line class="a" x1="3.82" y1="28.78" x2="6.06" y2="30.19"/><line class="a" x1="1.82" y1="27.64" x2="2.12" y2="27.95"/><line class="a" x1="2.53" y1="27.14" x2="2.53" y2="27.85"/><polyline class="a" points="2.52 27.45 2.57 27.3 2.67 27.19 2.78 27.14 2.93 27.14"/><polygon class="a" points="3.13 26.85 3.19 26.9 3.23 26.85 3.19 26.8 3.13 26.85"/><line class="a" x1="3.19" y1="27.19" x2="3.19" y2="27.85"/><polyline class="a" points="3.88 26.8 3.79 26.8 3.69 26.85 3.64 27 3.64 27.85"/><line class="a" x1="3.48" y1="27.14" x2="3.83" y2="27.14"/><polygon class="a" points="4.24 27.14 4.19 27.19 4.24 27.25 4.29 27.19 4.24 27.14"/><rect class="a" x="4.2" y="27.77" width="0.07" height="0.07" transform="translate(-18.42 11.14) rotate(-45)"/><polyline class="a" points="5.85 27 5.95 26.95 6.1 26.8 6.1 27.85"/><polygon class="a" points="8.01 26.8 7.86 26.85 7.76 27 7.71 27.25 7.71 27.4 7.76 27.64 7.86 27.8 8.01 27.85 8.12 27.85 8.26 27.8 8.36 27.64 8.41 27.4 8.41 27.25 8.36 27 8.26 26.85 8.12 26.8 8.01 26.8"/><line class="a" x1="9.82" y1="27.14" x2="9.82" y2="27.85"/><polyline class="a" points="9.82 27.35 9.98 27.19 10.08 27.14 10.22 27.14 10.33 27.19 10.38 27.35 10.38 27.85"/><polyline class="a" points="10.38 27.35 10.53 27.19 10.63 27.14 10.79 27.14 10.88 27.19 10.93 27.35 10.93 27.85"/><polyline class="a" points="12.89 27.3 12.84 27.19 12.69 27.14 12.55 27.14 12.39 27.19 12.34 27.3 12.39 27.4 12.49 27.45 12.74 27.5 12.84 27.55 12.89 27.64 12.89 27.7 12.84 27.8 12.69 27.85 12.55 27.85 12.39 27.8 12.34 27.7"/><rect class="a" x="13.26" y="27.77" width="0.07" height="0.07" transform="translate(-15.77 17.54) rotate(-45)"/><line class="a" x1="13.75" y1="26.8" x2="13.75" y2="27.85"/><rect class="a" x="14.16" y="27.77" width="0.07" height="0.07" transform="translate(-15.5 18.18) rotate(-45)"/><line class="a" x1="14.65" y1="27.14" x2="14.65" y2="27.85"/><polyline class="a" points="14.65 27.35 14.81 27.19 14.91 27.14 15.06 27.14 15.15 27.19 15.21 27.35 15.21 27.85"/><polyline class="a" points="15.21 27.35 15.36 27.19 15.46 27.14 15.61 27.14 15.72 27.19 15.77 27.35 15.77 27.85"/><rect class="a" x="16.18" y="27.77" width="0.07" height="0.07" transform="translate(-14.91 19.61) rotate(-45)"/><line class="d" x1="75.89" y1="5.97" x2="76.87" y2="4.99"/><line class="d" x1="76.87" y1="5.97" x2="75.89" y2="4.99"/><line class="d" x1="28.25" y1="6.69" x2="29.24" y2="5.71"/><line class="d" x1="29.24" y1="6.69" x2="28.25" y2="5.71"/><line class="e" x1="34.39" y1="7.89" x2="34.39" y2="9.28"/><line class="f" x1="30.43" y1="9.07" x2="31.41" y2="8.09"/><line class="f" x1="31.41" y1="9.07" x2="30.43" y2="8.09"/><line class="f" x1="37.36" y1="9.07" x2="38.34" y2="8.09"/><line class="f" x1="38.34" y1="9.07" x2="37.36" y2="8.09"/><line class="a" x1="55.4" y1="8.7" x2="56.38" y2="7.72"/><line class="a" x1="56.38" y1="8.7" x2="55.4" y2="7.72"/></svg>