<svg xmlns="http://www.w3.org/2000/svg" viewBox="0 0 536.12 198.61"><defs><style>.a,.b,.c,.d,.e{fill:none;stroke-linecap:round;stroke-linejoin:round;stroke-width:0.84px;}.a{stroke:#000;}.b{stroke:#ffbf00;}.c{stroke:red;}.d{stroke:#00b800;}.e{stroke:#00bfff;}</style></defs><title>Tavola disegno 1</title><line class="a" x1="102.82" y1="116.12" x2="102.82" y2="24.62"/><polyline class="b" points="127.47 23.46 127.47 23.41 127.57 23.32"/><line class="b" x1="126.66" y1="25.82" x2="129.33" y2="23.27"/><line class="b" x1="125.9" y1="28.14" x2="131.09" y2="23.17"/><line class="b" x1="125.15" y1="30.5" x2="132.86" y2="23.13"/><line class="b" x1="125.35" y1="31.9" x2="134.62" y2="23.03"/><line class="b" x1="127.06" y1="31.9" x2="136.39" y2="22.98"/><line class="b" x1="128.78" y1="31.85" x2="138.15" y2="22.89"/><polyline class="b" points="130.44 31.85 139.01 23.7 139.81 22.89"/><line class="b" x1="132.15" y1="31.85" x2="141.48" y2="22.93"/><polyline class="b" points="133.87 31.8 139.06 26.88 143.09 23.03"/><polyline class="b" points="135.63 31.75 139.06 28.43 144.71 23.08"/><line class="b" x1="137.29" y1="31.75" x2="146.32" y2="23.13"/><polyline class="b" points="138.96 31.75 139.11 31.61 147.93 23.17"/><line class="b" x1="140.67" y1="31.75" x2="149.44" y2="23.37"/><line class="b" x1="142.39" y1="31.75" x2="150.85" y2="23.61"/><line class="b" x1="144.05" y1="31.7" x2="152.32" y2="23.85"/><line class="b" x1="145.76" y1="31.7" x2="153.73" y2="24.09"/><line class="b" x1="147.48" y1="31.7" x2="155.19" y2="24.33"/><line class="b" x1="149.19" y1="31.65" x2="156.6" y2="24.57"/><line class="b" x1="150.85" y1="31.65" x2="158.01" y2="24.81"/><line class="b" x1="152.57" y1="31.65" x2="159.47" y2="25.05"/><line class="b" x1="154.28" y1="31.65" x2="160.89" y2="25.29"/><line class="b" x1="155.95" y1="31.61" x2="162.35" y2="25.54"/><line class="b" x1="157.66" y1="31.61" x2="163.86" y2="25.68"/><polyline class="b" points="159.37 31.61 162.35 28.76 165.37 25.82"/><line class="b" x1="161.09" y1="31.56" x2="166.94" y2="25.97"/><line class="b" x1="162.75" y1="31.56" x2="168.45" y2="26.11"/><line class="b" x1="164.47" y1="31.56" x2="169.96" y2="26.26"/><line class="b" x1="166.18" y1="31.51" x2="171.52" y2="26.4"/><line class="b" x1="167.89" y1="31.51" x2="173.03" y2="26.55"/><line class="b" x1="169.56" y1="31.51" x2="174.55" y2="26.74"/><line class="b" x1="171.27" y1="31.46" x2="176.11" y2="26.88"/><line class="b" x1="172.98" y1="31.46" x2="177.62" y2="27.03"/><line class="b" x1="174.7" y1="31.46" x2="179.13" y2="27.17"/><line class="b" x1="176.36" y1="31.41" x2="180.7" y2="27.32"/><line class="b" x1="178.08" y1="31.41" x2="182.21" y2="27.46"/><line class="b" x1="179.79" y1="31.41" x2="183.72" y2="27.61"/><line class="b" x1="181.45" y1="31.37" x2="185.28" y2="27.75"/><line class="b" x1="183.17" y1="31.37" x2="186.8" y2="27.9"/><line class="b" x1="184.88" y1="31.37" x2="188.31" y2="28.04"/><line class="b" x1="186.59" y1="31.32" x2="189.87" y2="28.18"/><line class="b" x1="188.26" y1="31.32" x2="191.38" y2="28.33"/><line class="b" x1="189.97" y1="31.32" x2="192.95" y2="28.47"/><line class="b" x1="191.69" y1="31.27" x2="194.46" y2="28.62"/><line class="b" x1="193.4" y1="31.27" x2="195.97" y2="28.76"/><line class="b" x1="195.06" y1="31.27" x2="197.53" y2="28.91"/><line class="b" x1="196.78" y1="31.22" x2="199.05" y2="29.05"/><line class="b" x1="198.49" y1="31.22" x2="200.56" y2="29.24"/><line class="b" x1="200.2" y1="31.22" x2="202.12" y2="29.39"/><line class="b" x1="201.87" y1="31.17" x2="203.63" y2="29.53"/><line class="b" x1="203.58" y1="31.17" x2="205.14" y2="29.68"/><line class="b" x1="205.3" y1="31.17" x2="206.71" y2="29.82"/><line class="b" x1="206.96" y1="31.12" x2="208.22" y2="29.97"/><line class="b" x1="208.67" y1="31.12" x2="209.73" y2="30.11"/><line class="b" x1="210.39" y1="31.12" x2="211.29" y2="30.26"/><line class="b" x1="212.1" y1="31.08" x2="212.81" y2="30.4"/><line class="b" x1="213.76" y1="31.08" x2="214.32" y2="30.55"/><line class="b" x1="215.48" y1="31.08" x2="215.88" y2="30.69"/><line class="b" x1="217.19" y1="31.03" x2="217.39" y2="30.83"/><line class="b" x1="218.91" y1="31.03" x2="218.91" y2="30.98"/><polyline class="a" points="96.36 24.09 102.82 24.62 104.53 32.09"/><line class="c" x1="104.88" y1="32.18" x2="104.93" y2="32.09"/><line class="c" x1="106.24" y1="32.43" x2="106.65" y2="32.09"/><line class="c" x1="107.65" y1="32.71" x2="108.36" y2="32.04"/><line class="c" x1="109.02" y1="33" x2="110.07" y2="32.04"/><line class="c" x1="110.43" y1="33.29" x2="111.74" y2="32.04"/><line class="c" x1="111.84" y1="33.58" x2="113.45" y2="31.99"/><line class="c" x1="113.35" y1="33.73" x2="115.17" y2="31.99"/><line class="c" x1="114.86" y1="33.87" x2="116.88" y2="31.99"/><line class="c" x1="116.38" y1="34.06" x2="118.54" y2="31.94"/><line class="c" x1="117.89" y1="34.21" x2="120.26" y2="31.94"/><line class="c" x1="119.75" y1="34.06" x2="121.97" y2="31.94"/><line class="c" x1="121.57" y1="33.92" x2="123.68" y2="31.9"/><line class="c" x1="123.38" y1="33.82" x2="124.39" y2="32.81"/><polyline class="c" points="104.53 32.09 111.49 33.53 117.69 34.21 124.09 33.77"/><polyline class="b" points="124.69 31.9 127.47 23.32 138.96 22.89 148.54 23.22"/><polyline class="a" points="72.22 123.78 72.72 123.54 73.43 122.86 73.43 127.59"/><line class="a" x1="72.82" y1="134.33" x2="72.82" y2="148.93"/><line class="a" x1="6.89" y1="116.22" x2="530.88" y2="116.12"/><line class="a" x1="72.82" y1="134.33" x2="530.88" y2="134.33"/><line class="a" x1="72.82" y1="148.93" x2="530.88" y2="148.93"/><line class="a" x1="72.82" y1="170.76" x2="530.88" y2="170.76"/><polyline class="a" points="72.82 192.63 530.88 192.63 530.88 116.12"/><polyline class="a" points="75.5 140.07 75.9 139.92 76.4 139.39 76.4 143.01"/><polygon class="a" points="78.97 142.67 78.77 142.86 78.97 143.01 79.12 142.86 78.97 142.67"/><polyline class="a" points="82.25 139.39 80.44 141.8 83.16 141.8"/><line class="a" x1="82.25" y1="139.39" x2="82.25" y2="143.01"/><polygon class="a" points="70.05 160.16 70.3 160.69 71.06 161.03 72.32 161.17 73.08 161.17 74.28 161.03 75.04 160.69 75.29 160.16 75.29 159.82 75.04 159.34 74.28 159 73.08 158.86 72.32 158.86 71.06 159 70.3 159.34 70.05 159.82 70.05 160.16"/><polyline class="a" points="71.46 189.74 71.21 189.41 70.45 188.88 75.7 188.88"/><polyline class="a" points="72.17 184.73 72.92 184.88 73.43 185.21 73.68 185.74 73.68 185.89 73.43 186.37 72.92 186.71 72.17 186.9 71.92 186.9 71.21 186.71 70.71 186.37 70.45 185.89 70.45 185.74 70.71 185.21 71.21 184.88 72.17 184.73 73.43 184.73 74.69 184.88 75.44 185.21 75.7 185.74 75.7 186.03 75.44 186.56 74.94 186.71"/><polygon class="a" points="70.45 182.56 70.71 183.05 71.46 183.38 72.67 183.53 73.43 183.53 74.69 183.38 75.44 183.05 75.7 182.56 75.7 182.23 75.44 181.7 74.69 181.36 73.43 181.22 72.67 181.22 71.46 181.36 70.71 181.7 70.45 182.23 70.45 182.56"/><polygon class="a" points="75.19 179.87 75.44 180.06 75.7 179.87 75.44 179.72 75.19 179.87"/><polyline class="a" points="71.71 178.37 71.46 178.37 70.96 178.23 70.71 178.03 70.45 177.7 70.45 177.02 70.71 176.69 70.96 176.54 71.46 176.4 71.92 176.4 72.42 176.54 73.18 176.88 75.7 178.56 75.7 176.2"/><polyline class="a" points="71.46 174.71 71.21 174.37 70.45 173.89 75.7 173.89"/><line class="a" x1="72.82" y1="23.17" x2="72.82" y2="116.12"/><polyline class="a" points="86.18 116.12 86.18 23.61 72.82 23.17"/><line class="a" x1="86.18" y1="23.61" x2="96.36" y2="24.09"/><line class="b" x1="162.35" y1="25.54" x2="148.54" y2="23.22"/><line class="c" x1="220.47" y1="31.12" x2="220.57" y2="31.03"/><line class="c" x1="221.98" y1="31.27" x2="222.28" y2="30.98"/><line class="c" x1="223.59" y1="31.37" x2="224" y2="30.98"/><line class="c" x1="225.16" y1="31.46" x2="225.71" y2="30.98"/><line class="c" x1="226.77" y1="31.56" x2="227.37" y2="30.93"/><line class="c" x1="228.38" y1="31.61" x2="229.09" y2="30.93"/><line class="c" x1="229.94" y1="31.7" x2="230.8" y2="30.93"/><line class="c" x1="231.56" y1="31.8" x2="232.47" y2="30.88"/><line class="c" x1="233.12" y1="31.9" x2="234.18" y2="30.88"/><line class="c" x1="234.73" y1="31.99" x2="235.89" y2="30.88"/><line class="c" x1="236.35" y1="32.04" x2="237.61" y2="30.84"/><line class="c" x1="237.91" y1="32.14" x2="239.27" y2="30.84"/><line class="c" x1="239.52" y1="32.23" x2="240.98" y2="30.84"/><line class="c" x1="241.14" y1="32.33" x2="242.7" y2="30.79"/><line class="c" x1="242.7" y1="32.43" x2="244.41" y2="30.79"/><line class="c" x1="244.31" y1="32.47" x2="246.08" y2="30.79"/><line class="c" x1="245.87" y1="32.57" x2="247.79" y2="30.74"/><line class="c" x1="247.49" y1="32.67" x2="249.5" y2="30.74"/><line class="c" x1="249.1" y1="32.76" x2="251.22" y2="30.74"/><line class="c" x1="250.66" y1="32.86" x2="252.88" y2="30.74"/><line class="c" x1="252.28" y1="32.91" x2="254.59" y2="30.69"/><line class="c" x1="253.84" y1="33" x2="256.31" y2="30.69"/><line class="c" x1="255.45" y1="33.1" x2="257.97" y2="30.69"/><line class="c" x1="257.06" y1="33.2" x2="259.69" y2="30.64"/><line class="c" x1="258.63" y1="33.29" x2="261.4" y2="30.64"/><line class="c" x1="260.24" y1="33.34" x2="263.11" y2="30.64"/><line class="c" x1="261.8" y1="33.44" x2="264.78" y2="30.59"/><line class="c" x1="263.42" y1="33.53" x2="266.49" y2="30.59"/><line class="c" x1="265.03" y1="33.63" x2="268.2" y2="30.59"/><line class="c" x1="266.59" y1="33.73" x2="269.92" y2="30.55"/><line class="c" x1="268.2" y1="33.77" x2="271.58" y2="30.55"/><line class="c" x1="269.77" y1="33.87" x2="273.3" y2="30.55"/><line class="c" x1="271.38" y1="33.97" x2="275.01" y2="30.5"/><line class="c" x1="272.94" y1="34.06" x2="276.67" y2="30.5"/><line class="c" x1="274.56" y1="34.16" x2="278.39" y2="30.5"/><line class="c" x1="276.17" y1="34.26" x2="280.1" y2="30.45"/><line class="c" x1="277.73" y1="34.31" x2="281.82" y2="30.45"/><line class="c" x1="279.35" y1="34.4" x2="283.48" y2="30.45"/><line class="c" x1="280.91" y1="34.5" x2="285.19" y2="30.4"/><line class="c" x1="282.52" y1="34.59" x2="289.22" y2="28.19"/><line class="c" x1="284.13" y1="34.69" x2="298.15" y2="21.25"/><line class="c" x1="285.7" y1="34.79" x2="300.37" y2="20.77"/><line class="c" x1="287.31" y1="34.84" x2="302.08" y2="20.77"/><line class="c" x1="288.87" y1="34.93" x2="303.74" y2="20.77"/><line class="c" x1="290.49" y1="35.03" x2="305.41" y2="20.77"/><line class="c" x1="292.05" y1="35.12" x2="306.46" y2="21.34"/><line class="c" x1="293.66" y1="35.22" x2="307.17" y2="22.26"/><line class="c" x1="295.27" y1="35.32" x2="307.93" y2="23.17"/><line class="c" x1="296.84" y1="35.37" x2="308.63" y2="24.14"/><line class="c" x1="298.45" y1="35.46" x2="309.34" y2="25.05"/><line class="c" x1="300.01" y1="35.56" x2="310.04" y2="25.97"/><line class="c" x1="301.63" y1="35.65" x2="310.8" y2="26.88"/><line class="c" x1="303.19" y1="35.75" x2="311.51" y2="27.8"/><line class="c" x1="304.8" y1="35.8" x2="312.21" y2="28.72"/><line class="c" x1="306.41" y1="35.9" x2="312.92" y2="29.63"/><line class="c" x1="307.98" y1="35.99" x2="313.67" y2="30.6"/><line class="c" x1="309.59" y1="36.04" x2="314.38" y2="31.51"/><line class="c" x1="311.25" y1="36.09" x2="315.08" y2="32.43"/><line class="c" x1="312.87" y1="36.18" x2="315.79" y2="33.34"/><line class="c" x1="314.48" y1="36.23" x2="316.55" y2="34.26"/><line class="c" x1="316.14" y1="36.28" x2="317.25" y2="35.17"/><line class="c" x1="317.76" y1="36.33" x2="317.96" y2="36.14"/><line class="b" x1="219.31" y1="31.03" x2="162.35" y2="25.54"/><polyline class="c" points="221.88 31.27 260.44 33.39 308.18 35.99"/><line class="a" x1="357.43" y1="116.12" x2="357.43" y2="37.63"/><line class="c" x1="318.16" y1="36.33" x2="308.18" y2="35.99"/><line class="a" x1="375.98" y1="38.3" x2="357.43" y2="37.63"/><polyline class="a" points="424.57 116.12 424.57 39.94 375.98 38.3"/><polyline class="a" points="472.61 116.12 472.61 40.66 424.57 39.94"/><polyline class="a" points="516.62 116.12 516.62 41.29 472.61 40.66"/><polyline class="a" points="84.77 124.02 84.77 123.78 84.97 123.35 85.22 123.11 85.68 122.86 86.64 122.86 87.09 123.11 87.34 123.35 87.59 123.78 87.59 124.22 87.34 124.7 86.89 125.37 84.52 127.59 87.79 127.59"/><polyline class="a" points="99.59 122.86 102.16 122.86 100.75 124.7 101.45 124.7 101.96 124.89 102.16 125.13 102.41 125.81 102.41 126.24 102.16 126.91 101.71 127.39 101 127.59 100.3 127.59 99.59 127.39 99.34 127.15 99.14 126.72"/><polyline class="a" points="107.7 122.86 105.34 126.05 108.86 126.05"/><line class="a" x1="107.71" y1="122.87" x2="107.71" y2="127.59"/><polyline class="a" points="353.8 123.78 354.25 123.54 354.96 122.86 354.96 127.59"/><polyline class="a" points="358.03 124.02 358.03 123.78 358.23 123.35 358.49 123.11 358.94 122.86 359.9 122.86 360.35 123.11 360.6 123.35 360.85 123.78 360.85 124.22 360.6 124.7 360.15 125.37 357.78 127.59 361.06 127.59"/><polyline class="a" points="420.94 123.78 421.39 123.54 422.1 122.86 422.1 127.59"/><polyline class="a" points="425.38 122.86 428 122.86 426.59 124.7 427.29 124.7 427.75 124.89 428 125.13 428.2 125.81 428.2 126.24 428 126.91 427.49 127.39 426.79 127.59 426.08 127.59 425.38 127.39 425.18 127.15 424.92 126.72"/><polyline class="a" points="468.83 123.78 469.28 123.54 469.99 122.86 469.99 127.59"/><polyline class="a" points="475.18 122.86 472.81 126.05 476.34 126.05"/><line class="a" x1="475.18" y1="122.87" x2="475.18" y2="127.59"/><polyline class="a" points="512.93 123.78 513.44 123.54 514.14 122.86 514.14 127.59"/><polyline class="a" points="519.79 122.86 517.42 122.86 517.17 124.89 517.42 124.7 518.13 124.45 518.83 124.45 519.54 124.7 519.99 125.13 520.24 125.81 520.24 126.24 519.99 126.91 519.54 127.39 518.83 127.59 518.13 127.59 517.42 127.39 517.17 127.15 516.97 126.72"/><line class="a" x1="86.18" y1="134.33" x2="86.18" y2="148.93"/><line class="a" x1="102.82" y1="134.33" x2="102.82" y2="148.93"/><line class="a" x1="104.53" y1="134.33" x2="104.53" y2="148.93"/><line class="a" x1="357.43" y1="134.33" x2="357.43" y2="148.93"/><line class="a" x1="424.57" y1="134.33" x2="424.57" y2="148.93"/><line class="a" x1="472.61" y1="134.33" x2="472.61" y2="148.93"/><line class="a" x1="516.62" y1="134.33" x2="516.62" y2="148.93"/><polyline class="a" points="90.16 140.07 90.52 139.92 91.07 139.39 91.07 143.01"/><polygon class="a" points="93.64 142.67 93.44 142.86 93.64 143.01 93.79 142.86 93.64 142.67"/><polyline class="a" points="95.81 143.01 97.62 139.39 95.05 139.39"/><polygon class="a" points="103.77 141.13 103.57 141.32 103.77 141.46 103.92 141.32 103.77 141.13"/><polyline class="a" points="387.37 143.01 389.18 139.39 386.66 139.39"/><polygon class="a" points="390.65 142.67 390.49 142.86 390.65 143.01 390.85 142.86 390.65 142.67"/><polyline class="a" points="392.66 140.07 393.01 139.92 393.57 139.39 393.57 143.01"/><polyline class="a" points="449.47 139.39 447.66 139.39 447.51 140.93 447.66 140.79 448.21 140.6 448.77 140.6 449.32 140.79 449.67 141.13 449.88 141.66 449.88 141.99 449.67 142.52 449.32 142.86 448.77 143.01 448.21 143.01 447.66 142.86 447.51 142.67 447.3 142.33"/><polyline class="a" points="492.42 139.39 490.61 141.8 493.33 141.8"/><line class="a" x1="492.42" y1="139.39" x2="492.42" y2="143.01"/><polygon class="a" points="494.59 142.67 494.44 142.86 494.59 143.01 494.79 142.86 494.59 142.67"/><polyline class="a" points="498.42 139.92 498.22 139.59 497.66 139.39 497.31 139.39 496.75 139.59 496.4 140.07 496.25 140.93 496.25 141.8 496.4 142.52 496.75 142.86 497.31 143.01 497.51 143.01 498.06 142.86 498.42 142.52 498.57 141.99 498.57 141.8 498.42 141.32 498.06 140.93 497.51 140.79 497.31 140.79 496.75 140.93 496.4 141.32 496.25 141.8"/><polyline class="a" points="84.47 163.53 84.22 163.19 83.46 162.66 88.7 162.66"/><polygon class="a" points="88.2 160.35 88.45 160.5 88.7 160.35 88.45 160.16 88.2 160.35"/><polyline class="a" points="83.46 157.32 86.99 159 86.99 156.5"/><line class="a" x1="83.46" y1="157.32" x2="88.7" y2="157.32"/><polyline class="a" points="97.12 162.86 97.12 161.03 99.14 161.99 99.14 161.51 99.39 161.17 99.64 161.03 100.4 160.83 100.9 160.83 101.61 161.03 102.11 161.36 102.36 161.84 102.36 162.33 102.11 162.86 101.86 163 101.35 163.19"/><polygon class="a" points="101.86 159.49 102.11 159.68 102.36 159.49 102.11 159.34 101.86 159.49"/><polyline class="a" points="98.13 157.65 97.88 157.32 97.12 156.84 102.36 156.84"/><path class="a" d="M104.73,163.34v-1.83l2,1V162c.94-1.53,4.71-.18,2.72,1.54l-.5.14"/><polygon class="a" points="109.47 160.01 109.72 160.16 109.97 160.01 109.72 159.82 109.47 160.01"/><polyline class="a" points="104.73 158.33 104.73 156.5 106.75 157.51 106.75 157.03 107 156.69 107.2 156.5 107.96 156.35 108.46 156.35 109.22 156.5 109.72 156.83 109.97 157.32 109.97 157.85 109.72 158.33 109.47 158.52 108.97 158.66"/><polyline class="a" points="355.96 165.12 355.71 165.12 355.21 164.93 355.01 164.78 354.75 164.45 354.75 163.77 355.01 163.44 355.21 163.24 355.71 163.1 356.22 163.1 356.72 163.24 357.48 163.58 360 165.27 360 162.95"/><polyline class="a" points="356.47 159.77 357.23 159.92 357.73 160.26 357.98 160.74 357.98 160.93 357.73 161.41 357.23 161.75 356.47 161.94 356.22 161.94 355.46 161.75 355.01 161.41 354.75 160.93 354.75 160.74 355.01 160.26 355.46 159.92 356.47 159.77 357.73 159.77 358.99 159.92 359.75 160.26 360 160.74 360 161.07 359.75 161.6 359.24 161.75"/><polygon class="a" points="359.49 158.28 359.75 158.43 360 158.28 359.75 158.09 359.49 158.28"/><polyline class="a" points="356.47 154.76 357.23 154.91 357.73 155.25 357.98 155.78 357.98 155.92 357.73 156.4 357.23 156.74 356.47 156.93 356.22 156.93 355.46 156.74 355.01 156.4 354.75 155.92 354.75 155.78 355.01 155.25 355.46 154.91 356.47 154.76 357.73 154.76 358.99 154.91 359.75 155.25 360 155.78 360 156.06 359.75 156.59 359.24 156.74"/><polyline class="a" points="421.9 164.93 421.9 163.1 423.87 164.11 423.87 163.58 424.12 163.24 424.37 163.1 425.13 162.95 425.63 162.95 426.38 163.1 426.89 163.44 427.14 163.92 427.14 164.45 426.89 164.93 426.64 165.12 426.13 165.27"/><polyline class="a" points="422.65 159.77 422.15 159.92 421.9 160.45 421.9 160.74 422.15 161.27 422.91 161.6 424.12 161.75 425.38 161.75 426.38 161.6 426.89 161.27 427.14 160.74 427.14 160.59 426.89 160.11 426.38 159.77 425.63 159.58 425.38 159.58 424.62 159.77 424.12 160.11 423.87 160.59 423.87 160.74 424.12 161.27 424.62 161.6 425.38 161.75"/><polygon class="a" points="426.64 158.28 426.89 158.43 427.14 158.28 426.89 158.09 426.64 158.28"/><polyline class="a" points="423.61 154.76 424.37 154.91 424.87 155.25 425.13 155.78 425.13 155.92 424.87 156.4 424.37 156.74 423.61 156.93 423.41 156.93 422.65 156.74 422.15 156.4 421.9 155.92 421.9 155.78 422.15 155.25 422.65 154.91 423.61 154.76 424.87 154.76 426.13 154.91 426.89 155.25 427.14 155.78 427.14 156.06 426.89 156.59 426.38 156.74"/><polyline class="a" points="469.89 161.17 473.42 162.86 473.42 160.35"/><line class="a" x1="469.89" y1="161.17" x2="475.13" y2="161.17"/><polyline class="a" points="471.15 159.34 470.89 159.34 470.39 159.19 470.14 159 469.89 158.67 469.89 157.99 470.14 157.65 470.39 157.51 470.89 157.32 471.4 157.32 471.9 157.51 472.66 157.85 475.13 159.49 475.13 157.17"/><polyline class="a" points="513.89 163.68 517.42 165.36 517.42 162.86"/><line class="a" x1="513.89" y1="163.68" x2="519.14" y2="163.68"/><polyline class="a" points="514.65 159.82 514.14 160.01 513.89 160.5 513.89 160.83 514.14 161.36 514.9 161.7 516.16 161.84 517.42 161.84 518.38 161.7 518.88 161.36 519.14 160.83 519.14 160.69 518.88 160.16 518.38 159.82 517.67 159.68 517.42 159.68 516.67 159.82 516.16 160.16 515.91 160.69 515.91 160.83 516.16 161.36 516.67 161.7 517.42 161.84"/><polygon class="a" points="518.63 158.33 518.88 158.52 519.14 158.33 518.88 158.18 518.63 158.33"/><polyline class="a" points="514.65 154.81 514.14 155 513.89 155.49 513.89 155.82 514.14 156.35 514.9 156.69 516.16 156.84 517.42 156.84 518.38 156.69 518.88 156.35 519.14 155.82 519.14 155.68 518.88 155.15 518.38 154.81 517.67 154.67 517.42 154.67 516.67 154.81 516.16 155.15 515.91 155.68 515.91 155.82 516.16 156.35 516.67 156.69 517.42 156.84"/><polyline class="a" points="84.47 190.22 84.22 189.89 83.46 189.41 88.7 189.41"/><polyline class="a" points="85.22 185.21 85.93 185.41 86.43 185.74 86.69 186.23 86.69 186.37 86.43 186.9 85.93 187.24 85.22 187.38 84.97 187.38 84.22 187.24 83.71 186.9 83.46 186.37 83.46 186.23 83.71 185.74 84.22 185.41 85.22 185.21 86.43 185.21 87.69 185.41 88.45 185.74 88.7 186.23 88.7 186.56 88.45 187.04 87.95 187.24"/><polygon class="a" points="83.46 183.05 83.71 183.53 84.47 183.87 85.68 184.06 86.43 184.06 87.69 183.87 88.45 183.53 88.7 183.05 88.7 182.71 88.45 182.23 87.69 181.89 86.43 181.7 85.68 181.7 84.47 181.89 83.71 182.23 83.46 182.71 83.46 183.05"/><polygon class="a" points="88.2 180.4 88.45 180.54 88.7 180.4 88.45 180.2 88.2 180.4"/><polyline class="a" points="84.47 178.56 84.22 178.23 83.46 177.7 88.7 177.7"/><polyline class="a" points="84.22 173.55 83.71 173.7 83.46 174.18 83.46 174.52 83.71 175.05 84.47 175.38 85.68 175.53 86.94 175.53 87.95 175.38 88.45 175.05 88.7 174.52 88.7 174.37 88.45 173.89 87.95 173.55 87.19 173.36 86.94 173.36 86.18 173.55 85.68 173.89 85.48 174.37 85.48 174.52 85.68 175.05 86.18 175.38 86.94 175.53"/><polyline class="a" points="98.33 190.22 98.08 189.89 97.32 189.41 102.56 189.41"/><polyline class="a" points="99.09 185.21 99.84 185.41 100.3 185.74 100.55 186.23 100.55 186.37 100.3 186.9 99.84 187.24 99.09 187.38 98.83 187.38 98.08 187.24 97.57 186.9 97.32 186.37 97.32 186.23 97.57 185.74 98.08 185.41 99.09 185.21 100.3 185.21 101.56 185.41 102.31 185.74 102.56 186.23 102.56 186.56 102.31 187.04 101.81 187.24"/><polygon class="a" points="97.32 183.05 97.57 183.53 98.33 183.87 99.59 184.06 100.3 184.06 101.56 183.87 102.31 183.53 102.56 183.05 102.56 182.71 102.31 182.23 101.56 181.89 100.3 181.7 99.59 181.7 98.33 181.89 97.57 182.23 97.32 182.71 97.32 183.05"/><polygon class="a" points="102.06 180.4 102.31 180.54 102.56 180.4 102.31 180.2 102.06 180.4"/><polygon class="a" points="97.32 178.03 97.57 178.56 98.33 178.85 99.59 179.05 100.3 179.05 101.56 178.85 102.31 178.56 102.56 178.03 102.56 177.7 102.31 177.22 101.56 176.88 100.3 176.69 99.59 176.69 98.33 176.88 97.57 177.22 97.32 177.7 97.32 178.03"/><polyline class="a" points="97.32 173.7 97.32 175.38 99.59 175.53 99.34 175.38 99.09 174.85 99.09 174.37 99.34 173.89 99.84 173.55 100.55 173.36 101.05 173.36 101.81 173.55 102.31 173.89 102.56 174.37 102.56 174.85 102.31 175.38 102.06 175.53 101.56 175.72"/><polyline class="a" points="105.34 190.22 105.08 189.89 104.33 189.41 109.57 189.41"/><polygon class="a" points="104.33 186.56 104.58 187.04 105.08 187.24 105.59 187.24 106.09 187.04 106.34 186.71 106.55 186.03 106.8 185.55 107.3 185.21 107.81 185.07 108.56 185.07 109.07 185.21 109.32 185.41 109.57 185.89 109.57 186.56 109.32 187.04 109.07 187.24 108.56 187.38 107.81 187.38 107.3 187.24 106.8 186.9 106.55 186.37 106.34 185.74 106.09 185.41 105.59 185.21 105.08 185.21 104.58 185.41 104.33 185.89 104.33 186.56"/><polyline class="a" points="106.09 181.89 106.8 182.03 107.3 182.37 107.56 182.9 107.56 183.05 107.3 183.53 106.8 183.87 106.09 184.06 105.84 184.06 105.08 183.87 104.58 183.53 104.33 183.05 104.33 182.9 104.58 182.37 105.08 182.03 106.09 181.89 107.3 181.89 108.56 182.03 109.32 182.37 109.57 182.9 109.57 183.24 109.32 183.72 108.81 183.87"/><polygon class="a" points="109.07 180.4 109.32 180.54 109.57 180.4 109.32 180.2 109.07 180.4"/><polyline class="a" points="105.59 178.85 105.34 178.85 104.83 178.71 104.58 178.56 104.33 178.23 104.33 177.55 104.58 177.22 104.83 177.02 105.34 176.88 105.84 176.88 106.34 177.02 107.05 177.36 109.57 179.05 109.57 176.69"/><polyline class="a" points="104.33 175.38 104.33 173.55 106.34 174.52 106.34 174.04 106.55 173.7 106.8 173.55 107.56 173.36 108.06 173.36 108.81 173.55 109.32 173.89 109.57 174.37 109.57 174.85 109.32 175.38 109.07 175.53 108.56 175.72"/><polyline class="a" points="355.71 190.22 355.46 189.89 354.7 189.41 359.95 189.41"/><polygon class="a" points="354.7 186.56 354.96 187.04 355.46 187.24 355.96 187.24 356.47 187.04 356.72 186.71 356.97 186.03 357.23 185.55 357.73 185.21 358.23 185.07 358.94 185.07 359.44 185.21 359.7 185.41 359.95 185.89 359.95 186.56 359.7 187.04 359.44 187.24 358.94 187.38 358.23 187.38 357.73 187.24 357.23 186.9 356.97 186.37 356.72 185.74 356.47 185.41 355.96 185.21 355.46 185.21 354.96 185.41 354.7 185.89 354.7 186.56"/><path class="a" d="M354.71,183.24l.25.48.5.14h.5l.5-.14.25-.34.25-.67.25-.48.5-.34.5-.19h.71l.5.19.25.14.25.53v.67l-.25.48c-3.62,1.65-1.86-2.82-4.74-1.69l-.25.53Z"/><polygon class="a" points="359.44 180.4 359.7 180.54 359.95 180.4 359.7 180.2 359.44 180.4"/><polyline class="a" points="355.46 176.88 354.96 177.02 354.7 177.55 354.7 177.89 354.96 178.37 355.71 178.71 356.97 178.85 358.23 178.85 359.19 178.71 359.7 178.37 359.95 177.89 359.95 177.7 359.7 177.22 359.19 176.88 358.49 176.69 358.23 176.69 357.48 176.88 356.97 177.22 356.72 177.7 356.72 177.89 356.97 178.37 357.48 178.71 358.23 178.85"/><polyline class="a" points="355.96 175.53 355.71 175.53 355.21 175.38 354.96 175.19 354.7 174.85 354.7 174.18 354.96 173.89 355.21 173.7 355.71 173.55 356.22 173.55 356.72 173.7 357.48 174.04 359.95 175.72 359.95 173.36"/><polyline class="a" points="422.86 190.22 422.61 189.89 421.9 189.41 427.09 189.41"/><polygon class="a" points="421.9 186.56 422.1 187.04 422.61 187.24 423.11 187.24 423.61 187.04 423.87 186.71 424.12 186.03 424.37 185.55 424.87 185.21 425.38 185.07 426.13 185.07 426.64 185.21 426.89 185.41 427.09 185.89 427.09 186.56 426.89 187.04 426.64 187.24 426.13 187.38 425.38 187.38 424.87 187.24 424.37 186.9 424.12 186.37 423.87 185.74 423.61 185.41 423.11 185.21 422.61 185.21 422.1 185.41 421.9 185.89 421.9 186.56"/><polygon class="a" points="421.9 183.24 422.1 183.72 422.61 183.87 423.11 183.87 423.61 183.72 423.87 183.38 424.12 182.71 424.37 182.23 424.87 181.89 425.38 181.7 426.13 181.7 426.64 181.89 426.89 182.03 427.09 182.56 427.09 183.24 426.89 183.72 426.64 183.87 426.13 184.06 425.38 184.06 424.87 183.87 424.37 183.53 424.12 183.05 423.87 182.37 423.61 182.03 423.11 181.89 422.61 181.89 422.1 182.03 421.9 182.56 421.9 183.24"/><polygon class="a" points="426.64 180.4 426.89 180.54 427.09 180.4 426.89 180.2 426.64 180.4"/><polyline class="a" points="421.9 178.71 421.9 176.88 423.87 177.89 423.87 177.36 424.12 177.02 424.37 176.88 425.13 176.69 425.63 176.69 426.38 176.88 426.89 177.22 427.09 177.7 427.09 178.23 426.89 178.71 426.64 178.85 426.13 179.05"/><polyline class="a" points="427.09 175.05 421.9 173.36 421.9 175.72"/><polyline class="a" points="470.9 190.13 470.64 189.79 469.89 189.31 475.13 189.31"/><path class="a" d="M469.89,186.47l.25.53.5.14h.5l.5-.14.25-.34.2-.67.25-.53.5-.34.5-.14h.76l.5.14.25.19.25.48v.67l-.25.53c-4,1.53-1.78-2.93-4.74-1.69l-.25.48Z"/><polygon class="a" points="469.89 183.14 470.14 183.62 470.64 183.82 471.15 183.82 471.65 183.62 471.9 183.29 472.11 182.61 472.36 182.13 472.86 181.79 473.37 181.65 474.12 181.65 474.63 181.79 474.88 181.99 475.13 182.47 475.13 183.14 474.88 183.62 474.63 183.82 474.12 183.96 473.37 183.96 472.86 183.82 472.36 183.48 472.11 182.95 471.9 182.32 471.65 181.99 471.15 181.79 470.64 181.79 470.14 181.99 469.89 182.47 469.89 183.14"/><polygon class="a" points="474.63 180.3 474.88 180.44 475.13 180.3 474.88 180.11 474.63 180.3"/><polyline class="a" points="471.15 178.81 470.9 178.81 470.39 178.61 470.14 178.47 469.89 178.13 469.89 177.46 470.14 177.12 470.39 176.97 470.9 176.78 471.4 176.78 471.9 176.97 472.61 177.31 475.13 178.95 475.13 176.64"/><polyline class="a" points="471.65 173.46 472.36 173.6 472.86 173.94 473.11 174.47 473.11 174.61 472.86 175.14 472.36 175.43 471.65 175.63 471.4 175.63 470.64 175.43 470.14 175.14 469.89 174.61 469.89 174.47 470.14 173.94 470.64 173.6 471.65 173.46 472.86 173.46 474.12 173.6 474.88 173.94 475.13 174.47 475.13 174.81 474.88 175.29 474.37 175.43"/><polyline class="a" points="514.9 190.23 514.65 189.89 513.89 189.41 519.14 189.41"/><polygon class="a" points="513.89 186.56 514.15 187.04 514.65 187.24 515.15 187.24 515.66 187.04 515.91 186.71 516.16 186.03 516.36 185.55 516.87 185.21 517.37 185.07 518.13 185.07 518.63 185.21 518.88 185.41 519.14 185.89 519.14 186.56 518.88 187.04 518.63 187.24 518.13 187.38 517.37 187.38 516.87 187.24 516.36 186.9 516.16 186.37 515.91 185.74 515.66 185.41 515.15 185.21 514.65 185.21 514.15 185.41 513.89 185.89 513.89 186.56"/><path class="a" d="M513.89,183.24l.25.48.5.14h.5l.5-.14.25-.34.25-.67.2-.48.5-.34.5-.19h.76l.5.19.25.14.25.53v.67l-.25.48c-3.83,1.63-1.74-2.82-4.74-1.69l-.25.53Z"/><polygon class="a" points="518.63 180.4 518.88 180.54 519.14 180.4 518.88 180.2 518.63 180.4"/><polyline class="a" points="515.15 178.85 514.9 178.85 514.4 178.71 514.15 178.56 513.89 178.23 513.89 177.55 514.15 177.22 514.4 177.02 514.9 176.88 515.41 176.88 515.91 177.02 516.62 177.36 519.14 179.05 519.14 176.69"/><polyline class="a" points="515.15 175.53 514.9 175.53 514.4 175.38 514.15 175.19 513.89 174.85 513.89 174.18 514.15 173.89 514.4 173.7 514.9 173.55 515.41 173.55 515.91 173.7 516.62 174.04 519.14 175.72 519.14 173.36"/><polyline class="a" points="306.01 20.77 298.8 20.77 286.35 30.4"/><line class="a" x1="306.01" y1="20.77" x2="318.16" y2="36.33"/><line class="a" x1="318.16" y1="36.33" x2="357.43" y2="37.63"/><line class="c" x1="219.31" y1="31.03" x2="221.88" y2="31.27"/><line class="c" x1="124.69" y1="31.9" x2="124.09" y2="33.77"/><polygon class="a" points="10.97 158.13 10.97 154.47 12.23 154.47 12.79 154.67 13.19 155 13.34 155.39 13.54 155.87 13.54 156.79 13.34 157.27 13.19 157.65 12.79 157.99 12.23 158.13 10.97 158.13"/><line class="a" x1="14.8" y1="154.47" x2="14.8" y2="158.14"/><polyline class="a" points="18.64 155 18.28 154.67 17.73 154.47 17.02 154.47 16.47 154.67 16.06 155 16.06 155.39 16.27 155.73 16.47 155.87 16.82 156.06 17.93 156.4 18.28 156.59 18.43 156.79 18.64 157.12 18.64 157.65 18.28 157.99 17.73 158.13 17.02 158.13 16.47 157.99 16.06 157.65"/><line class="a" x1="20.65" y1="154.47" x2="20.65" y2="158.14"/><line class="a" x1="19.39" y1="154.47" x2="21.91" y2="154.47"/><polygon class="a" points="23.02 157.8 22.82 157.99 23.02 158.13 23.22 157.99 23.02 157.8"/><polyline class="a" points="28.52 158.13 28.52 154.47 30.13 154.47 30.68 154.67 30.88 154.86 31.04 155.2 31.04 155.73 30.88 156.06 30.68 156.26 30.13 156.4 28.52 156.4"/><polyline class="a" points="32.35 158.13 32.35 154.47 33.96 154.47 34.51 154.67 34.72 154.86 34.87 155.2 34.87 155.53 34.72 155.87 34.51 156.06 33.96 156.26 32.35 156.26"/><line class="a" x1="33.61" y1="156.26" x2="34.87" y2="158.14"/><path class="a" d="M37.08,154.47l-.4.19-.35.34-.15.39-.2.48v.92l.2.48.15.39.35.34.4.14h.71l.35-.14a2.14,2.14,0,0,0,0-3.32l-.35-.19Z"/><polyline class="a" points="42.73 155.39 42.53 155 42.17 154.67 41.82 154.47 41.07 154.47 40.71 154.67 40.36 155 40.16 155.39 40.01 155.87 40.01 156.79 40.16 157.27 40.36 157.65 40.71 157.99 41.07 158.13 41.82 158.13 42.17 157.99 42.53 157.65 42.73 157.27 42.73 156.79 41.82 156.79"/><polyline class="a" points="43.99 158.13 43.99 154.47 45.65 154.47 46.21 154.67 46.36 154.86 46.56 155.2 46.56 155.53 46.36 155.87 46.21 156.06 45.65 156.26 43.99 156.26"/><line class="a" x1="45.25" y1="156.26" x2="46.56" y2="158.14"/><polyline class="a" points="47.82 158.13 47.82 154.47 50.19 154.47"/><line class="a" x1="47.82" y1="156.26" x2="49.28" y2="156.26"/><line class="a" x1="47.82" y1="158.14" x2="50.19" y2="158.14"/><polyline class="a" points="53.67 155 53.31 154.67 52.76 154.47 52.01 154.47 51.5 154.67 51.1 155 51.1 155.39 51.3 155.73 51.5 155.87 51.85 156.06 52.91 156.4 53.31 156.59 53.47 156.79 53.67 157.12 53.67 157.65 53.31 157.99 52.76 158.13 52.01 158.13 51.5 157.99 51.1 157.65"/><polyline class="a" points="57.3 155 56.95 154.67 56.39 154.47 55.68 154.47 55.13 154.67 54.78 155 54.78 155.39 54.93 155.73 55.13 155.87 55.48 156.06 56.59 156.4 56.95 156.59 57.15 156.79 57.3 157.12 57.3 157.65 56.95 157.99 56.39 158.13 55.68 158.13 55.13 157.99 54.78 157.65"/><line class="a" x1="58.61" y1="154.47" x2="58.61" y2="158.14"/><polyline class="a" points="59.52 154.47 60.98 158.13 62.44 154.47"/><polyline class="a" points="62.79 158.13 64.25 154.47 65.72 158.13"/><line class="a" x1="63.35" y1="156.93" x2="65.16" y2="156.93"/><path class="a" d="M12.23,160.59l-.35.34a3.72,3.72,0,0,0,0,4.91l.35.34"/><line class="a" x1="13.54" y1="162.52" x2="13.54" y2="164.98"/><polyline class="a" points="13.54 163.19 14.1 162.71 14.45 162.52 15.01 162.52 15.36 162.71 15.56 163.19 15.56 164.98"/><polyline class="a" points="15.56 163.19 16.06 162.71 16.47 162.52 17.02 162.52 17.38 162.71 17.53 163.19 17.53 164.98"/><path class="a" d="M18.84,160.59l.35.34a3.72,3.72,0,0,1,0,4.91l-.35.34"/><polygon class="a" points="10.97 139.1 10.97 135.44 12.23 135.44 12.79 135.59 13.19 135.97 13.34 136.31 13.54 136.84 13.54 137.71 13.34 138.24 13.19 138.57 12.79 138.91 12.23 139.1 10.97 139.1"/><line class="a" x1="14.8" y1="135.44" x2="14.8" y2="139.1"/><path class="a" d="M18.63,136l-.35-.39-.55-.14c-1-.16-2.42.38-1.26,1.4l.35.14,1.11.39.35.14.15.19.2.34v.53l-.35.34-.55.19H17l-.55-.19-.4-.34"/><line class="a" x1="20.65" y1="135.44" x2="20.65" y2="139.1"/><line class="a" x1="19.39" y1="135.44" x2="21.91" y2="135.44"/><polygon class="a" points="23.02 138.72 22.82 138.91 23.02 139.1 23.22 138.91 23.02 138.72"/><polyline class="a" points="28.52 139.1 28.52 135.44 30.13 135.44 30.68 135.59 30.88 135.78 31.04 136.12 31.04 136.65 30.88 136.98 30.68 137.18 30.13 137.37 28.52 137.37"/><polyline class="a" points="31.79 139.1 33.25 135.44 34.72 139.1"/><line class="a" x1="32.35" y1="137.85" x2="34.16" y2="137.85"/><polyline class="a" points="35.62 139.1 35.62 135.44 37.23 135.44 37.79 135.59 37.99 135.78 38.14 136.12 38.14 136.45 37.99 136.84 37.79 136.98 37.23 137.18 35.62 137.18"/><line class="a" x1="36.88" y1="137.18" x2="38.14" y2="139.1"/><polyline class="a" points="39.25 139.1 41.82 135.44 39.25 135.44"/><line class="a" x1="39.25" y1="139.1" x2="41.82" y2="139.1"/><line class="a" x1="43.08" y1="135.44" x2="43.08" y2="139.1"/><polyline class="a" points="43.99 139.1 45.45 135.44 46.91 139.1"/><line class="a" x1="44.54" y1="137.85" x2="46.36" y2="137.85"/><polyline class="a" points="47.82 135.44 47.82 139.1 50.04 139.1"/><polyline class="a" points="50.95 139.1 50.95 135.44 53.32 135.44"/><line class="a" x1="50.95" y1="137.18" x2="52.41" y2="137.18"/><line class="a" x1="50.95" y1="139.1" x2="53.32" y2="139.1"/><path class="a" d="M12.23,141.51l-.35.39a3.65,3.65,0,0,0,0,4.87l.35.34"/><line class="a" x1="13.54" y1="143.44" x2="13.54" y2="145.9"/><polyline class="a" points="13.54 144.16 14.1 143.63 14.45 143.44 15.01 143.44 15.36 143.63 15.56 144.16 15.56 145.9"/><polyline class="a" points="15.56 144.16 16.06 143.63 16.47 143.44 17.02 143.44 17.38 143.63 17.53 144.16 17.53 145.9"/><path class="a" d="M18.84,141.51l.35.39a3.65,3.65,0,0,1,0,4.87l-.35.34"/><polyline class="a" points="10.97 123.78 12.44 127.44 13.9 123.78"/><polyline class="a" points="14.8 127.44 14.8 123.78 17.17 123.78"/><line class="a" x1="14.8" y1="125.52" x2="16.27" y2="125.52"/><line class="a" x1="14.8" y1="127.44" x2="17.17" y2="127.44"/><polyline class="a" points="18.28 127.44 18.28 123.78 19.89 123.78 20.45 123.97 20.65 124.12 20.85 124.5 20.85 124.84 20.65 125.18 20.45 125.37 19.89 125.52 18.28 125.52"/><line class="a" x1="19.54" y1="125.52" x2="20.85" y2="127.44"/><line class="a" x1="22.82" y1="123.78" x2="22.82" y2="127.44"/><line class="a" x1="21.56" y1="123.78" x2="24.13" y2="123.78"/><line class="a" x1="25.04" y1="123.78" x2="25.04" y2="127.44"/><path class="a" d="M29,124.65l-.15-.34-.35-.34-.4-.19h-.71l-.35.19-.4.34-.15.34-.2.53V126c.29,1.11,1,1.79,2.22,1.25l.35-.39.15-.34"/><line class="a" x1="30.33" y1="123.78" x2="30.33" y2="127.44"/><path class="a" d="M12.08,176.45l-.35.19-.4.34c-.6,1-.55,2.72.76,3.13h.71l.4-.14a2.25,2.25,0,0,0,0-3.32l-.4-.19Z"/><line class="a" x1="12.64" y1="179.43" x2="13.7" y2="180.49"/><polyline class="a" points="15.16 176.44 15.16 179.09 15.36 179.63 15.71 179.96 16.27 180.11 16.62 180.11 17.17 179.96 17.53 179.63 17.73 179.09 17.73 176.44"/><path class="a" d="M20.1,176.45l-.35.19-.35.34-.2.39-.2.48v.87l.2.53.2.39.35.34.35.14h.76l.35-.14a2.24,2.24,0,0,0,0-3.32l-.35-.19Z"/><line class="a" x1="23.93" y1="176.45" x2="23.93" y2="180.11"/><line class="a" x1="22.67" y1="176.45" x2="25.19" y2="176.45"/><polyline class="a" points="25.59 180.11 27.05 176.44 28.52 180.11"/><line class="a" x1="26.1" y1="178.9" x2="27.96" y2="178.9"/><line class="a" x1="33.96" y1="176.45" x2="33.96" y2="180.11"/><line class="a" x1="32.7" y1="176.45" x2="35.22" y2="176.45"/><polyline class="a" points="36.18 180.11 36.18 176.44 38.55 176.44"/><line class="a" x1="36.18" y1="178.23" x2="37.59" y2="178.23"/><line class="a" x1="36.18" y1="180.11" x2="38.55" y2="180.11"/><polyline class="a" points="39.6 180.11 39.6 176.44 41.27 176.44 41.82 176.64 41.97 176.83 42.18 177.17 42.18 177.5 41.97 177.84 41.82 178.03 41.27 178.23 39.6 178.23"/><line class="a" x1="40.92" y1="178.23" x2="42.18" y2="180.11"/><polyline class="a" points="43.44 180.11 43.44 176.44 45.1 176.44 45.65 176.64 45.8 176.83 46.01 177.17 46.01 177.5 45.8 177.84 45.65 178.03 45.1 178.23 43.44 178.23"/><line class="a" x1="44.75" y1="178.23" x2="46.01" y2="180.11"/><polyline class="a" points="47.27 180.11 47.27 176.44 49.64 176.44"/><line class="a" x1="47.27" y1="178.23" x2="48.73" y2="178.23"/><line class="a" x1="47.27" y1="180.11" x2="49.64" y2="180.11"/><polyline class="a" points="50.74 180.11 50.74 176.44 53.32 180.11 53.32 176.44"/><path class="a" d="M55.69,176.45l-.35.19-.4.34c-.6,1-.55,2.72.76,3.13h.71l.35-.14a2.15,2.15,0,0,0,0-3.32l-.35-.19Z"/><path class="a" d="M12.23,182.56l-.35.34a3.72,3.72,0,0,0,0,4.91l.35.34"/><line class="a" x1="13.54" y1="184.49" x2="13.54" y2="186.95"/><polyline class="a" points="13.54 185.17 14.1 184.68 14.45 184.49 15.01 184.49 15.36 184.68 15.56 185.17 15.56 186.95"/><polyline class="a" points="15.56 185.17 16.07 184.68 16.47 184.49 17.02 184.49 17.38 184.68 17.53 185.17 17.53 186.95"/><polyline class="a" points="24.68 185.02 24.48 184.68 23.93 184.49 23.37 184.49 22.82 184.68 22.67 185.02 22.82 185.36 23.22 185.55 24.13 185.7 24.48 185.89 24.68 186.23 24.68 186.42 24.48 186.76 23.93 186.95 23.37 186.95 22.82 186.76 22.67 186.42"/><polygon class="a" points="26.1 186.56 25.95 186.76 26.1 186.95 26.3 186.76 26.1 186.56"/><line class="a" x1="27.76" y1="183.29" x2="27.76" y2="186.95"/><polygon class="a" points="29.42 186.56 29.22 186.76 29.42 186.95 29.57 186.76 29.42 186.56"/><line class="a" x1="31.04" y1="184.49" x2="31.04" y2="186.95"/><polyline class="a" points="31.04 185.17 31.59 184.68 31.94 184.49 32.5 184.49 32.85 184.68 33.05 185.17 33.05 186.95"/><polyline class="a" points="33.05 185.17 33.61 184.68 33.96 184.49 34.51 184.49 34.87 184.68 35.07 185.17 35.07 186.95"/><polygon class="a" points="36.68 186.56 36.53 186.76 36.68 186.95 36.88 186.76 36.68 186.56"/><path class="a" d="M38.14,182.56l.4.34a3.72,3.72,0,0,1,0,4.91l-.4.34"/><line class="a" x1="298.8" y1="20.77" x2="298.85" y2="116.17"/><line class="a" x1="306.01" y1="20.77" x2="306.01" y2="116.17"/><line class="a" x1="318.16" y1="36.33" x2="318.16" y2="116.17"/><polyline class="a" points="134.27 122.86 131.95 122.86 131.7 124.89 131.95 124.7 132.66 124.45 133.36 124.45 134.07 124.7 134.52 125.13 134.77 125.81 134.77 126.24 134.52 126.91 134.07 127.39 133.36 127.59 132.66 127.59 131.95 127.39 131.7 127.15 131.5 126.72"/><polyline class="a" points="184.22 123.54 183.97 123.11 183.27 122.86 182.81 122.86 182.11 123.11 181.65 123.78 181.4 124.89 181.4 126.05 181.65 126.91 182.11 127.39 182.81 127.59 183.06 127.59 183.77 127.39 184.22 126.91 184.48 126.24 184.48 126.05 184.22 125.37 183.77 124.89 183.06 124.7 182.81 124.7 182.11 124.89 181.65 125.37 181.4 126.05"/><polyline class="a" points="236.65 127.59 239.02 122.86 235.69 122.86"/><polygon class="a" points="285.9 122.86 285.19 123.11 284.94 123.54 284.94 124.02 285.19 124.45 285.64 124.7 286.6 124.89 287.31 125.13 287.76 125.56 288.01 126.05 288.01 126.72 287.76 127.15 287.56 127.39 286.86 127.59 285.9 127.59 285.19 127.39 284.94 127.15 284.74 126.72 284.74 126.05 284.94 125.56 285.44 125.13 286.15 124.89 287.06 124.7 287.56 124.45 287.76 124.02 287.76 123.54 287.56 123.11 286.86 122.86 285.9 122.86"/><polyline class="a" points="300.36 124.45 300.16 125.13 299.66 125.56 298.95 125.81 298.75 125.81 298.05 125.56 297.54 125.13 297.34 124.45 297.34 124.22 297.54 123.54 298.05 123.11 298.75 122.86 298.95 122.86 299.66 123.11 300.16 123.54 300.36 124.45 300.36 125.56 300.16 126.72 299.66 127.39 298.95 127.59 298.5 127.59 297.79 127.39 297.54 126.91"/><polyline class="a" points="303.14 123.78 303.59 123.54 304.3 122.86 304.3 127.59"/><polygon class="a" points="308.53 122.86 307.82 123.11 307.37 123.78 307.12 124.89 307.12 125.56 307.37 126.72 307.82 127.39 308.53 127.59 309.04 127.59 309.74 127.39 310.19 126.72 310.45 125.56 310.45 124.89 310.19 123.78 309.74 123.11 309.04 122.86 308.53 122.86"/><polyline class="a" points="315.24 123.78 315.69 123.54 316.39 122.86 316.39 127.59"/><polyline class="a" points="319.92 123.78 320.43 123.54 321.13 122.86 321.13 127.59"/><line class="a" x1="286.35" y1="134.33" x2="286.35" y2="148.93"/><line class="a" x1="298.85" y1="134.33" x2="298.85" y2="148.93"/><line class="a" x1="306.01" y1="134.33" x2="306.01" y2="148.93"/><line class="a" x1="318.16" y1="134.33" x2="318.16" y2="148.93"/><polyline class="a" points="289.02 140.07 289.38 139.92 289.93 139.39 289.93 143.01"/><polygon class="a" points="292.5 142.67 292.3 142.86 292.5 143.01 292.65 142.86 292.5 142.67"/><polyline class="a" points="294.32 139.39 296.28 139.39 295.22 140.79 295.73 140.79 296.13 140.93 296.28 141.13 296.48 141.66 296.48 141.99 296.28 142.52 295.93 142.86 295.37 143.01 294.82 143.01 294.32 142.86 294.11 142.67 293.91 142.33"/><polygon class="a" points="300.26 143.97 300.46 144.5 301.02 144.84 301.93 145.03 302.48 145.03 303.39 144.84 303.89 144.5 304.1 143.97 304.1 143.63 303.89 143.1 303.39 142.76 302.48 142.62 301.93 142.62 301.02 142.76 300.46 143.1 300.26 143.63 300.26 143.97"/><polygon class="a" points="303.74 141.22 303.89 141.37 304.1 141.22 303.89 141.03 303.74 141.22"/><polygon class="a" points="300.26 138.96 300.46 139.49 300.82 139.63 301.17 139.63 301.57 139.49 301.73 139.15 301.93 138.43 302.08 137.9 302.48 137.56 302.83 137.42 303.39 137.42 303.74 137.56 303.89 137.75 304.1 138.28 304.1 138.96 303.89 139.49 303.74 139.63 303.39 139.83 302.83 139.83 302.48 139.63 302.08 139.3 301.93 138.77 301.73 138.09 301.57 137.75 301.17 137.56 300.82 137.56 300.46 137.75 300.26 138.28 300.26 138.96"/><polyline class="a" points="307.82 140.07 308.23 139.92 308.73 139.39 308.73 143.01"/><polygon class="a" points="311.3 142.67 311.1 142.86 311.3 143.01 311.45 142.86 311.3 142.67"/><polyline class="a" points="313.12 139.39 315.08 139.39 314.02 140.79 314.58 140.79 314.93 140.93 315.08 141.13 315.29 141.66 315.29 141.99 315.08 142.52 314.73 142.86 314.18 143.01 313.67 143.01 313.12 142.86 312.92 142.67 312.76 142.33"/><polyline class="a" points="336 139.39 334.19 141.8 336.91 141.8"/><line class="a" x1="336" y1="139.39" x2="336" y2="143.01"/><polygon class="a" points="338.22 142.67 338.02 142.86 338.22 143.01 338.37 142.86 338.22 142.67"/><polyline class="a" points="340.19 140.07 340.54 139.92 341.09 139.39 341.09 143.01"/><polyline class="a" points="131.25 161.6 130.74 161.75 130.49 162.28 130.49 162.62 130.74 163.1 131.5 163.44 132.76 163.58 134.02 163.58 134.98 163.44 135.48 163.1 135.73 162.62 135.73 162.42 135.48 161.94 134.98 161.6 134.22 161.41 134.02 161.41 133.26 161.6 132.76 161.94 132.51 162.42 132.51 162.62 132.76 163.1 133.26 163.44 134.02 163.58"/><polygon class="a" points="135.23 160.11 135.48 160.26 135.73 160.11 135.48 159.92 135.23 160.11"/><polyline class="a" points="130.49 158.43 130.49 156.59 132.51 157.6 132.51 157.07 132.76 156.74 133.01 156.59 133.77 156.4 134.22 156.4 134.98 156.59 135.48 156.93 135.73 157.41 135.73 157.94 135.48 158.43 135.23 158.57 134.72 158.76"/><polyline class="a" points="181.4 165.12 181.15 164.78 180.44 164.25 185.69 164.25"/><polyline class="a" points="181.4 161.75 181.15 161.41 180.44 160.93 185.69 160.93"/><polygon class="a" points="185.18 158.57 185.43 158.76 185.69 158.57 185.43 158.42 185.18 158.57"/><polyline class="a" points="181.15 155.1 180.7 155.24 180.44 155.77 180.44 156.06 180.7 156.59 181.4 156.93 182.66 157.07 183.92 157.07 184.93 156.93 185.43 156.59 185.69 156.06 185.69 155.92 185.43 155.44 184.93 155.1 184.17 154.91 183.92 154.91 183.17 155.1 182.66 155.44 182.41 155.92 182.41 156.06 182.66 156.59 183.17 156.93 183.92 157.07"/><polyline class="a" points="235.74 165.12 235.49 164.78 234.73 164.25 239.98 164.25"/><polyline class="a" points="239.98 161.6 234.73 159.92 234.73 162.28"/><polygon class="a" points="239.47 158.57 239.72 158.76 239.98 158.57 239.72 158.42 239.47 158.57"/><polyline class="a" points="235.99 157.07 235.74 157.07 235.24 156.93 234.99 156.74 234.73 156.4 234.73 155.77 234.99 155.44 235.24 155.24 235.74 155.1 236.25 155.1 236.75 155.24 237.46 155.58 239.98 157.27 239.98 154.91"/><polyline class="a" points="285.04 165.27 284.79 165.27 284.28 165.12 284.03 164.93 283.78 164.59 283.78 163.92 284.03 163.58 284.28 163.44 284.79 163.24 285.29 163.24 285.8 163.44 286.5 163.77 289.02 165.41 289.02 163.1"/><polyline class="a" points="285.04 161.94 284.79 161.94 284.28 161.75 284.03 161.6 283.78 161.27 283.78 160.59 284.03 160.25 284.28 160.11 284.79 159.92 285.29 159.92 285.8 160.11 286.5 160.45 289.02 162.09 289.02 159.77"/><polygon class="a" points="288.52 158.42 288.77 158.57 289.02 158.42 288.77 158.28 288.52 158.42"/><polyline class="a" points="283.78 155.44 287.26 157.07 287.26 154.57"/><line class="a" x1="283.78" y1="155.44" x2="289.02" y2="155.44"/><polyline class="a" points="297.49 165.17 297.24 165.17 296.74 165.03 296.48 164.83 296.28 164.5 296.28 163.87 296.48 163.53 296.74 163.34 297.24 163.19 297.74 163.19 298.25 163.34 299 163.68 301.47 165.36 301.47 163"/><polyline class="a" points="296.28 161.7 296.28 159.82 298.25 160.83 298.25 160.35 298.5 160.01 298.75 159.82 299.51 159.68 300.01 159.68 300.77 159.82 301.27 160.16 301.47 160.69 301.47 161.17 301.27 161.7 301.02 161.85 300.52 161.99"/><polygon class="a" points="301.02 158.33 301.27 158.52 301.47 158.33 301.27 158.18 301.02 158.33"/><polyline class="a" points="301.47 156.35 296.28 154.67 296.28 157.03"/><polyline class="a" points="304.7 165.17 304.45 165.17 303.94 165.03 303.69 164.83 303.44 164.5 303.44 163.87 303.69 163.53 303.94 163.34 304.45 163.19 304.95 163.19 305.46 163.34 306.21 163.68 308.68 165.36 308.68 163"/><polyline class="a" points="303.44 160.35 306.92 161.99 306.92 159.48"/><line class="a" x1="303.44" y1="160.35" x2="308.68" y2="160.35"/><polygon class="a" points="308.18 158.33 308.43 158.52 308.68 158.33 308.43 158.18 308.18 158.33"/><polyline class="a" points="303.44 155 303.44 156.69 305.71 156.83 305.46 156.69 305.2 156.16 305.2 155.68 305.46 155.15 305.96 154.81 306.72 154.67 307.17 154.67 307.93 154.81 308.43 155.15 308.68 155.68 308.68 156.16 308.43 156.69 308.18 156.83 307.67 157.03"/><polyline class="a" points="316.85 165.17 316.6 165.17 316.09 165.03 315.84 164.83 315.59 164.5 315.59 163.87 315.84 163.53 316.09 163.34 316.6 163.19 317.1 163.19 317.6 163.34 318.31 163.68 320.83 165.36 320.83 163"/><polyline class="a" points="315.59 160.01 315.59 161.7 317.86 161.84 317.6 161.7 317.35 161.17 317.35 160.69 317.6 160.16 318.06 159.82 318.81 159.68 319.32 159.68 320.07 159.82 320.58 160.16 320.83 160.69 320.83 161.17 320.58 161.7 320.33 161.84 319.82 161.99"/><polygon class="a" points="320.33 158.33 320.58 158.52 320.83 158.33 320.58 158.18 320.33 158.33"/><path class="a" d="M315.59,156.16l.25.53.5.14h.5l.5-.14.25-.34.25-.67.2-.53.5-.34.5-.14h.76l.5.14.25.19.25.48v.67l-.25.53c-3.81,1.66-1.84-3-4.74-1.69l-.25.48Z"/><polyline class="a" points="131.5 190.32 131.25 189.98 130.49 189.45 135.73 189.45"/><path class="a" d="M130.49,186.66l.25.48.5.14h.5l.5-.14.25-.34.25-.67.25-.48.5-.34.5-.19h.71l.5.19.25.14.25.53v.67l-.25.48c-3.71,1.64-1.81-2.82-4.74-1.69l-.25.53Z"/><polyline class="a" points="132.25 181.99 133.01 182.13 133.51 182.47 133.77 182.95 133.77 183.14 133.51 183.62 133.01 183.96 132.25 184.15 132 184.15 131.25 183.96 130.74 183.62 130.49 183.14 130.49 182.95 130.74 182.47 131.25 182.13 132.25 181.99 133.51 181.99 134.72 182.13 135.48 182.47 135.73 182.95 135.73 183.29 135.48 183.82 134.98 183.96"/><polygon class="a" points="135.23 180.44 135.48 180.64 135.73 180.44 135.48 180.3 135.23 180.44"/><polyline class="a" points="131.75 178.95 131.5 178.95 130.99 178.81 130.74 178.61 130.49 178.28 130.49 177.6 130.74 177.31 130.99 177.12 131.5 176.97 132 176.97 132.51 177.12 133.26 177.46 135.73 179.14 135.73 176.78"/><polyline class="a" points="130.49 174.13 134.02 175.77 134.02 173.26"/><line class="a" x1="130.49" y1="174.13" x2="135.73" y2="174.13"/><polyline class="a" points="181.4 190.22 181.15 189.89 180.44 189.41 185.69 189.41"/><polygon class="a" points="180.44 186.56 180.7 187.04 181.15 187.24 181.65 187.24 182.16 187.04 182.41 186.71 182.66 186.03 182.91 185.55 183.42 185.21 183.92 185.07 184.68 185.07 185.18 185.21 185.43 185.41 185.69 185.89 185.69 186.56 185.43 187.04 185.18 187.24 184.68 187.38 183.92 187.38 183.42 187.24 182.91 186.9 182.66 186.37 182.41 185.74 182.16 185.41 181.65 185.21 181.15 185.21 180.7 185.41 180.44 185.89 180.44 186.56"/><polyline class="a" points="182.16 181.89 182.91 182.03 183.42 182.37 183.67 182.9 183.67 183.05 183.42 183.53 182.91 183.87 182.16 184.06 181.91 184.06 181.15 183.87 180.7 183.53 180.44 183.05 180.44 182.9 180.7 182.37 181.15 182.03 182.16 181.89 183.42 181.89 184.68 182.03 185.43 182.37 185.69 182.9 185.69 183.24 185.43 183.72 184.93 183.87"/><polygon class="a" points="185.18 180.4 185.43 180.54 185.69 180.4 185.43 180.2 185.18 180.4"/><polyline class="a" points="181.65 178.85 181.4 178.85 180.95 178.71 180.7 178.56 180.44 178.23 180.44 177.55 180.7 177.22 180.95 177.02 181.4 176.88 181.91 176.88 182.41 177.02 183.17 177.36 185.69 179.05 185.69 176.69"/><polyline class="a" points="185.69 175.05 180.44 173.36 180.44 175.72"/><polyline class="a" points="235.74 190.22 235.49 189.89 234.73 189.41 239.98 189.41"/><polygon class="a" points="234.73 186.56 234.99 187.04 235.49 187.24 235.99 187.24 236.5 187.04 236.75 186.71 237 186.03 237.2 185.55 237.71 185.21 238.21 185.07 238.97 185.07 239.47 185.21 239.72 185.41 239.98 185.89 239.98 186.56 239.72 187.04 239.47 187.24 238.97 187.38 238.21 187.38 237.71 187.24 237.2 186.9 237 186.37 236.75 185.74 236.5 185.41 235.99 185.21 235.49 185.21 234.99 185.41 234.73 185.89 234.73 186.56"/><polyline class="a" points="236.5 181.89 237.2 182.03 237.71 182.37 237.96 182.9 237.96 183.05 237.71 183.53 237.2 183.87 236.5 184.06 236.25 184.06 235.49 183.87 234.99 183.53 234.73 183.05 234.73 182.9 234.99 182.37 235.49 182.03 236.5 181.89 237.71 181.89 238.97 182.03 239.72 182.37 239.98 182.9 239.98 183.24 239.72 183.72 239.22 183.87"/><polygon class="a" points="239.47 180.4 239.72 180.54 239.98 180.4 239.72 180.2 239.47 180.4"/><polyline class="a" points="234.73 178.71 234.73 176.88 236.75 177.89 236.75 177.36 237 177.02 237.2 176.88 237.96 176.69 238.46 176.69 239.22 176.88 239.72 177.22 239.98 177.7 239.98 178.23 239.72 178.71 239.47 178.85 238.97 179.05"/><polyline class="a" points="239.98 175.05 234.73 173.36 234.73 175.72"/><polyline class="a" points="284.74 190.22 284.49 189.89 283.73 189.41 288.97 189.41"/><polygon class="a" points="283.73 186.56 283.98 187.04 284.49 187.24 284.99 187.24 285.49 187.04 285.75 186.71 286 186.03 286.25 185.55 286.75 185.21 287.21 185.07 287.96 185.07 288.47 185.21 288.72 185.41 288.97 185.89 288.97 186.56 288.72 187.04 288.47 187.24 287.96 187.38 287.21 187.38 286.75 187.24 286.25 186.9 286 186.37 285.75 185.74 285.49 185.41 284.99 185.21 284.49 185.21 283.98 185.41 283.73 185.89 283.73 186.56"/><polyline class="a" points="285.49 181.89 286.25 182.03 286.75 182.37 286.96 182.9 286.96 183.05 286.75 183.53 286.25 183.87 285.49 184.06 285.24 184.06 284.49 183.87 283.98 183.53 283.73 183.05 283.73 182.9 283.98 182.37 284.49 182.03 285.49 181.89 286.75 181.89 287.96 182.03 288.72 182.37 288.97 182.9 288.97 183.24 288.72 183.72 288.22 183.87"/><polygon class="a" points="288.47 180.4 288.72 180.54 288.97 180.4 288.72 180.2 288.47 180.4"/><polyline class="a" points="283.73 177.36 287.21 179.05 287.21 176.54"/><line class="a" x1="283.73" y1="177.36" x2="288.97" y2="177.36"/><polyline class="a" points="284.99 175.53 284.74 175.53 284.23 175.38 283.98 175.19 283.73 174.85 283.73 174.18 283.98 173.89 284.23 173.7 284.74 173.55 285.24 173.55 285.75 173.7 286.5 174.04 288.97 175.72 288.97 173.36"/><polyline class="a" points="297.19 190.22 296.99 189.89 296.23 189.41 301.47 189.41"/><polyline class="a" points="297.94 185.21 298.7 185.41 299.2 185.74 299.46 186.23 299.46 186.37 299.2 186.9 298.7 187.24 297.94 187.38 297.69 187.38 296.99 187.24 296.48 186.9 296.23 186.37 296.23 186.23 296.48 185.74 296.99 185.41 297.94 185.21 299.2 185.21 300.47 185.41 301.22 185.74 301.47 186.23 301.47 186.56 301.22 187.04 300.72 187.24"/><polygon class="a" points="296.23 183.05 296.48 183.53 297.19 183.87 298.45 184.06 299.2 184.06 300.47 183.87 301.22 183.53 301.47 183.05 301.47 182.71 301.22 182.23 300.47 181.89 299.2 181.7 298.45 181.7 297.19 181.89 296.48 182.23 296.23 182.71 296.23 183.05"/><polygon class="a" points="300.97 180.4 301.22 180.54 301.47 180.4 301.22 180.2 300.97 180.4"/><polyline class="a" points="296.23 177.36 299.71 179.05 299.71 176.54"/><line class="a" x1="296.23" y1="177.36" x2="301.47" y2="177.36"/><polyline class="a" points="296.23 175.38 296.23 173.55 298.2 174.52 298.2 174.04 298.45 173.7 298.7 173.55 299.46 173.36 299.96 173.36 300.72 173.55 301.22 173.89 301.47 174.37 301.47 174.85 301.22 175.38 300.97 175.53 300.47 175.72"/><polyline class="a" points="304.4 190.22 304.14 189.89 303.39 189.41 308.63 189.41"/><polyline class="a" points="305.15 185.21 305.91 185.41 306.41 185.74 306.67 186.23 306.67 186.37 306.41 186.9 305.91 187.24 305.15 187.38 304.9 187.38 304.14 187.24 303.64 186.9 303.39 186.37 303.39 186.23 303.64 185.74 304.14 185.41 305.15 185.21 306.41 185.21 307.62 185.41 308.38 185.74 308.63 186.23 308.63 186.56 308.38 187.04 307.88 187.24"/><polygon class="a" points="303.39 183.05 303.64 183.53 304.4 183.87 305.66 184.06 306.41 184.06 307.62 183.87 308.38 183.53 308.63 183.05 308.63 182.71 308.38 182.23 307.62 181.89 306.41 181.7 305.66 181.7 304.4 181.89 303.64 182.23 303.39 182.71 303.39 183.05"/><polygon class="a" points="308.13 180.4 308.38 180.54 308.63 180.4 308.38 180.2 308.13 180.4"/><polyline class="a" points="303.39 177.36 306.92 179.05 306.92 176.54"/><line class="a" x1="303.39" y1="177.36" x2="308.63" y2="177.36"/><polyline class="a" points="303.39 175.38 303.39 173.55 305.4 174.52 305.4 174.04 305.66 173.7 305.91 173.55 306.67 173.36 307.17 173.36 307.88 173.55 308.38 173.89 308.63 174.37 308.63 174.85 308.38 175.38 308.13 175.53 307.62 175.72"/><polyline class="a" points="316.55 190.22 316.29 189.89 315.54 189.41 320.78 189.41"/><polygon class="a" points="315.54 186.56 315.79 187.04 316.29 187.24 316.8 187.24 317.3 187.04 317.55 186.71 317.81 186.03 318.06 185.55 318.56 185.21 319.02 185.07 319.77 185.07 320.28 185.21 320.53 185.41 320.78 185.89 320.78 186.56 320.53 187.04 320.28 187.24 319.77 187.38 319.02 187.38 318.56 187.24 318.06 186.9 317.81 186.37 317.55 185.74 317.3 185.41 316.8 185.21 316.29 185.21 315.79 185.41 315.54 185.89 315.54 186.56"/><path class="a" d="M315.54,183.24l.25.48.5.14h.5l.5-.14.25-.34.25-.67.25-.48.5-.34.45-.19h.76l.5.19.25.14.25.53v.67l-.25.48c-3.62,1.66-1.86-2.83-4.74-1.69l-.25.53Z"/><polygon class="a" points="320.28 180.4 320.53 180.54 320.78 180.4 320.53 180.2 320.28 180.4"/><polyline class="a" points="320.78 178.37 315.54 176.69 315.54 179.05"/><polyline class="a" points="320.78 175.05 315.54 173.36 315.54 175.72"/><polyline class="a" points="166.94 5.97 166.68 5.73 166.28 5.59 165.72 5.59 165.32 5.73 165.07 5.97 165.07 6.21 165.17 6.5 165.32 6.6 165.57 6.74 166.38 6.99 166.68 7.13 166.78 7.23 166.94 7.51 166.94 7.9 166.68 8.14 166.28 8.29 165.72 8.29 165.32 8.14 165.07 7.9"/><path class="a" d="M169.76,6.21,169.61,6l-.25-.24-.3-.14h-.5l-.25.14L168,6l-.1.24-.15.39v.63c.16.78.81,1.42,1.61.92l.25-.24.15-.29"/><polyline class="a" points="170.26 8.29 171.37 5.59 172.43 8.29"/><line class="a" x1="170.66" y1="7.37" x2="172.03" y2="7.37"/><polyline class="a" points="172.68 5.59 173.74 8.29 174.85 5.59"/><path class="a" d="M176.16,5.59l-.25.14-.25.24a1.54,1.54,0,0,0,.5,2.31h.55l.25-.14a1.54,1.54,0,0,0,0-2.41l-.25-.14Z"/><line class="a" x1="178.43" y1="6.74" x2="180.85" y2="6.74"/><line class="a" x1="178.43" y1="7.51" x2="180.85" y2="7.51"/><path class="a" d="M183.42,5.59h-1.36l-.15,1.16.15-.14c2.43-.84,1.86,2.77-.15,1.4l-.1-.24"/><polygon class="a" points="184.73 8 184.63 8.14 184.73 8.29 184.88 8.14 184.73 8"/><path class="a" d="M186.09,5.59h1.46l-.81,1h.4c1.44.71-.12,2.43-1.21,1.4l-.15-.24"/><polygon class="a" points="189.16 5.59 188.76 5.73 188.61 5.97 188.61 6.21 188.76 6.5 189.01 6.6 189.57 6.74 189.97 6.89 190.22 7.13 190.37 7.37 190.37 7.76 190.22 8 190.07 8.14 189.67 8.29 189.16 8.29 188.76 8.14 188.61 8 188.51 7.76 188.51 7.37 188.61 7.13 188.91 6.89 189.26 6.74 189.82 6.6 190.07 6.5 190.22 6.21 190.22 5.97 190.07 5.73 189.67 5.59 189.16 5.59"/><line class="a" x1="194.1" y1="6.5" x2="194.1" y2="8.29"/><polyline class="a" points="194.1 6.99 194.51 6.6 194.76 6.5 195.16 6.5 195.47 6.6 195.57 6.99 195.57 8.29"/><polyline class="a" points="195.57 6.99 195.97 6.6 196.27 6.5 196.68 6.5 196.93 6.6 197.03 6.99 197.03 8.29"/><line class="a" x1="199.6" y1="6.5" x2="199.6" y2="9.15"/><path class="a" d="M199.6,6.89l-.25-.29c-1.86-.75-1.73,2.39,0,1.54l.25-.24"/><polyline class="a" points="247.08 12.19 247.08 9.49 248.29 9.49 248.7 9.63 248.85 9.73 249 10.02 249 10.26 248.85 10.5 248.7 10.65 248.29 10.74 247.08 10.74"/><line class="a" x1="248.04" y1="10.74" x2="249" y2="12.19"/><line class="a" x1="249.91" y1="9.49" x2="249.91" y2="12.19"/><polyline class="a" points="250.97 12.19 250.97 9.49 252.18 9.49 252.58 9.63 252.73 9.73 252.88 10.02 252.88 10.36 252.73 10.65 252.58 10.74 252.18 10.89 250.97 10.89"/><path class="a" d="M254.44,9.49l-.25.14-.25.24-.15.24-.1.39v.63l.1.39.15.29.25.24.25.14H255l.25-.14a1.55,1.55,0,0,0,0-2.41L255,9.49Z"/><polyline class="a" points="256.76 12.19 256.76 9.49 257.97 9.49 258.32 9.63 258.48 9.73 258.63 10.02 258.63 10.26 258.48 10.5 258.32 10.65 257.97 10.74 256.76 10.74"/><line class="a" x1="257.67" y1="10.74" x2="258.63" y2="12.19"/><line class="a" x1="260.09" y1="9.49" x2="260.09" y2="12.19"/><line class="a" x1="259.13" y1="9.49" x2="261.05" y2="9.49"/><path class="a" d="M262.36,9.49l-.25.14-.25.24a1.54,1.54,0,0,0,.5,2.31h.55l.25-.14a1.54,1.54,0,0,0,0-2.41l-.25-.14Z"/><line class="a" x1="264.63" y1="10.65" x2="267.04" y2="10.65"/><line class="a" x1="264.63" y1="11.42" x2="267.04" y2="11.42"/><path class="a" d="M269.62,9.49h-1.36l-.15,1.16.15-.14c2.38-1,1.91,2.81-.15,1.4l-.1-.24"/><polygon class="a" points="270.93 11.9 270.77 12.04 270.93 12.19 271.08 12.04 270.93 11.9"/><polyline class="a" points="273.35 9.49 271.99 11.27 274 11.27"/><line class="a" x1="273.35" y1="9.49" x2="273.35" y2="12.19"/><polyline class="a" points="275.06 10.02 275.36 9.88 275.77 9.49 275.77 12.19"/><line class="a" x1="280.3" y1="10.36" x2="280.3" y2="12.19"/><polyline class="a" points="280.3 10.89 280.71 10.5 280.96 10.36 281.36 10.36 281.66 10.5 281.76 10.89 281.76 12.19"/><polyline class="a" points="281.76 10.89 282.17 10.5 282.42 10.36 282.82 10.36 283.13 10.5 283.23 10.89 283.23 12.19"/><line class="a" x1="285.8" y1="10.36" x2="285.8" y2="13.06"/><path class="a" d="M285.8,10.74l-.25-.24c-1.8-.86-1.8,2.4,0,1.54l.25-.24"/><polyline class="b" points="202.47 9.15 162.1 9.15 155.44 24.38"/><polyline class="c" points="244.61 13.06 288.87 13.06 292.65 25.54"/><polyline class="a" points="104.53 116.12 104.53 32.09 286.35 30.4"/><polyline class="a" points="71.66 12.19 71.66 9.49 72.87 9.49 73.28 9.63 73.38 9.73 73.53 10.02 73.53 10.26 73.38 10.5 73.28 10.65 72.87 10.74 71.66 10.74"/><line class="a" x1="72.57" y1="10.74" x2="73.53" y2="12.19"/><line class="a" x1="74.44" y1="9.49" x2="74.44" y2="12.19"/><polyline class="a" points="75.55 12.19 75.55 9.49 76.75 9.49 77.16 9.63 77.26 9.73 77.41 10.02 77.41 10.36 77.26 10.65 77.16 10.74 76.75 10.89 75.55 10.89"/><path class="a" d="M79,9.49l-.3.14-.25.24A1.59,1.59,0,0,0,79,12.19h.5l.3-.14.25-.24.15-.29.1-.39V10.5l-.1-.39-.15-.24-.25-.24-.3-.14Z"/><polyline class="a" points="81.29 12.19 81.29 9.49 82.5 9.49 82.9 9.63 83 9.73 83.16 10.02 83.16 10.26 83 10.5 82.9 10.65 82.5 10.74 81.29 10.74"/><line class="a" x1="82.25" y1="10.74" x2="83.16" y2="12.19"/><line class="a" x1="84.62" y1="9.49" x2="84.62" y2="12.19"/><line class="a" x1="83.71" y1="9.49" x2="85.58" y2="9.49"/><path class="a" d="M86.89,9.49l-.25.14-.25.24-.15.24-.1.39v.63l.1.39.15.29.25.24.25.14h.55l.25-.14a1.55,1.55,0,0,0,0-2.41l-.25-.14Z"/><line class="a" x1="89.21" y1="10.65" x2="91.57" y2="10.65"/><line class="a" x1="89.21" y1="11.42" x2="91.57" y2="11.42"/><polygon class="a" points="93.34 9.49 92.94 9.63 92.68 10.02 92.53 10.65 92.53 11.03 92.68 11.66 92.94 12.04 93.34 12.19 93.59 12.19 93.99 12.04 94.3 11.66 94.4 11.03 94.4 10.65 94.3 10.02 93.99 9.63 93.59 9.49 93.34 9.49"/><polygon class="a" points="95.46 11.9 95.36 12.04 95.46 12.19 95.61 12.04 95.46 11.9"/><polyline class="a" points="96.82 9.49 98.28 9.49 97.47 10.5 97.88 10.5 98.18 10.65 98.28 10.74 98.43 11.13 98.43 11.42 98.28 11.8 98.03 12.04 97.62 12.19 97.22 12.19 96.82 12.04 96.67 11.9 96.56 11.66"/><path class="a" d="M100.85,9.49H99.49l-.15,1.16.15-.14c2.38-1,1.91,2.81-.15,1.4l-.1-.24"/><line class="a" x1="104.83" y1="10.36" x2="104.83" y2="12.19"/><polyline class="a" points="104.83 10.89 105.23 10.5 105.54 10.36 105.94 10.36 106.19 10.5 106.34 10.89 106.34 12.19"/><polyline class="a" points="106.34 10.89 106.7 10.5 107 10.36 107.4 10.36 107.66 10.5 107.81 10.89 107.81 12.19"/><line class="a" x1="110.33" y1="10.36" x2="110.33" y2="13.06"/><path class="a" d="M110.33,10.74l-.25-.24c-1.79-.88-1.79,2.43,0,1.54l.25-.24"/><polyline class="c" points="70.2 13.2 110.78 13.2 115.82 31.99"/><line class="a" x1="286.35" y1="116.17" x2="286.35" y2="116.12"/><polyline class="a" points="133.11 116.12 133.11 116.22 133.11 31.85"/><line class="a" x1="183.07" y1="116.22" x2="183.07" y2="31.37"/><line class="a" x1="237.35" y1="116.17" x2="237.4" y2="30.84"/><line class="a" x1="133.11" y1="134.33" x2="133.11" y2="148.93"/><line class="a" x1="183.07" y1="134.33" x2="183.07" y2="148.93"/><line class="a" x1="237.35" y1="134.33" x2="237.35" y2="148.93"/><polyline class="a" points="117.94 139.39 119.95 139.39 118.84 140.79 119.4 140.79 119.75 140.93 119.95 141.13 120.11 141.66 120.11 141.99 119.95 142.52 119.55 142.86 119.05 143.01 118.49 143.01 117.94 142.86 117.79 142.67 117.58 142.33"/><polyline class="a" points="156.3 139.39 154.48 139.39 154.28 140.93 154.48 140.79 155.04 140.6 155.59 140.6 156.1 140.79 156.5 141.13 156.65 141.66 156.65 141.99 156.5 142.52 156.1 142.86 155.59 143.01 155.04 143.01 154.48 142.86 154.28 142.67 154.13 142.33"/><polygon class="a" points="158.11 142.67 157.91 142.86 158.11 143.01 158.31 142.86 158.11 142.67"/><polyline class="a" points="159.73 140.26 159.73 140.07 159.93 139.73 160.13 139.59 160.48 139.39 161.19 139.39 161.54 139.59 161.74 139.73 161.94 140.07 161.94 140.45 161.74 140.79 161.39 141.32 159.57 143.01 162.09 143.01"/><polyline class="a" points="208.17 139.39 206.35 139.39 206.2 140.93 206.35 140.79 206.91 140.6 207.46 140.6 208.02 140.79 208.37 141.13 208.52 141.66 208.52 141.99 208.37 142.52 208.02 142.86 207.46 143.01 206.91 143.01 206.35 142.86 206.2 142.67 206 142.33"/><polygon class="a" points="209.98 142.67 209.83 142.86 209.98 143.01 210.19 142.86 209.98 142.67"/><polyline class="a" points="212.15 143.01 213.97 139.39 211.44 139.39"/><polyline class="a" points="260.49 139.39 258.68 139.39 258.53 140.93 258.68 140.79 259.23 140.6 259.79 140.6 260.34 140.79 260.69 141.13 260.85 141.66 260.85 141.99 260.69 142.52 260.34 142.86 259.79 143.01 259.23 143.01 258.68 142.86 258.53 142.67 258.32 142.33"/><polygon class="a" points="262.31 142.67 262.15 142.86 262.31 143.01 262.51 142.86 262.31 142.67"/><polyline class="a" points="264.32 140.07 264.68 139.92 265.23 139.39 265.23 143.01"/><polyline class="a" points="207.01 24.72 207.01 22.02 208.22 22.02 208.62 22.16 208.72 22.26 208.87 22.55 208.87 22.93 208.72 23.17 208.62 23.27 208.22 23.41 207.01 23.41"/><polyline class="a" points="209.83 24.72 209.83 22.02 211.55 22.02"/><line class="a" x1="209.83" y1="23.27" x2="210.89" y2="23.27"/><line class="a" x1="209.83" y1="24.72" x2="211.55" y2="24.72"/><polyline class="a" points="212.35 24.72 212.35 22.02 214.22 24.72 214.22 22.02"/><polygon class="a" points="215.33 24.72 215.33 22.02 216.23 22.02 216.64 22.16 216.89 22.4 217.04 22.64 217.19 23.03 217.19 23.66 217.04 24.04 216.89 24.33 216.64 24.57 216.23 24.72 215.33 24.72"/><polyline class="a" points="218.1 24.72 218.1 22.02 219.86 22.02"/><line class="a" x1="218.1" y1="23.27" x2="219.21" y2="23.27"/><line class="a" x1="218.1" y1="24.72" x2="219.86" y2="24.72"/><polyline class="a" points="220.67 24.72 220.67 22.02 222.53 24.72 222.53 22.02"/><polyline class="a" points="223.49 24.72 225.36 22.02 223.49 22.02"/><line class="a" x1="223.49" y1="24.72" x2="225.36" y2="24.72"/><polyline class="a" points="225.86 24.72 226.97 22.02 228.03 24.72"/><line class="a" x1="226.26" y1="23.8" x2="227.63" y2="23.8"/><line class="a" x1="228.68" y1="23.17" x2="231.1" y2="23.17"/><line class="a" x1="228.68" y1="23.95" x2="231.1" y2="23.95"/><polyline class="a" points="232.41 22.55 232.72 22.4 233.12 22.02 233.12 24.72"/><line class="a" x1="237.1" y1="22.02" x2="234.73" y2="24.72"/><path class="a" d="M235.39,22l.25.24v.29l-.1.24-.3.14H235l-.25-.29V22.4l.1-.24c.79-.46.43.2,1.61.1l.4-.1.25-.14"/><polygon class="a" points="236.6 23.8 236.3 23.95 236.19 24.19 236.19 24.43 236.45 24.72 236.7 24.72 237 24.57 237.1 24.33 237.1 24.04 236.85 23.8 236.6 23.8"/><line class="a" x1="286.35" y1="116.17" x2="286.35" y2="116.12"/><line class="a" x1="286.35" y1="116.17" x2="286.35" y2="30.4"/><line class="a" x1="20.55" y1="110.72" x2="29.77" y2="110.72"/><polygon class="a" points="39 110.72 29.77 116.22 29.77 110.72 39 110.72"/><line class="a" x1="37.49" y1="111.59" x2="38.44" y2="110.72"/><line class="a" x1="30.28" y1="115.93" x2="35.72" y2="110.72"/><line class="a" x1="29.77" y1="113.85" x2="33.05" y2="110.72"/><line class="a" x1="29.77" y1="111.25" x2="30.33" y2="110.72"/><line class="a" x1="34.11" y1="113.61" x2="31.09" y2="110.72"/><line class="a" x1="32.45" y1="114.63" x2="29.77" y2="112.07"/><line class="a" x1="30.78" y1="115.59" x2="29.77" y2="114.63"/><line class="a" x1="35.77" y1="112.65" x2="33.76" y2="110.72"/><line class="a" x1="37.44" y1="111.64" x2="36.43" y2="110.72"/><line class="a" x1="20.55" y1="110.72" x2="29.77" y2="116.22"/><path class="a" d="M11.68,102.87l-.4.19-.45.39c-.72,1.14-.63,3.06.86,3.57h.81l.45-.19a2.51,2.51,0,0,0,0-3.76l-.45-.19Z"/><line class="a" x1="12.28" y1="106.24" x2="13.54" y2="107.45"/><line class="a" x1="15.21" y1="104.27" x2="15.21" y2="107.01"/><polyline class="a" points="15.21 105.47 15.41 104.84 15.81 104.46 16.21 104.27 16.87 104.27"/><polygon class="a" points="17.68 103.06 17.88 103.25 18.08 103.06 17.88 102.87 17.68 103.06"/><line class="a" x1="17.88" y1="104.46" x2="17.88" y2="107.01"/><polyline class="a" points="20.8 102.87 20.4 102.87 19.95 103.06 19.74 103.69 19.74 107.01"/><line class="a" x1="19.14" y1="104.27" x2="20.6" y2="104.27"/><polygon class="a" points="22.26 104.27 22.06 104.46 22.26 104.65 22.46 104.46 22.26 104.27"/><polygon class="a" points="22.26 106.63 22.06 106.82 22.26 107.01 22.46 106.82 22.26 106.63"/><polyline class="a" points="28.87 103.69 29.32 103.45 29.93 102.87 29.93 107.01"/><polygon class="a" points="33.45 102.87 32.8 103.06 32.6 103.45 32.6 103.88 32.8 104.27 33.25 104.46 34.06 104.65 34.66 104.84 35.12 105.23 35.32 105.66 35.32 106.24 35.12 106.63 34.92 106.82 34.26 107.01 33.45 107.01 32.8 106.82 32.6 106.63 32.4 106.24 32.4 105.66 32.6 105.23 33.05 104.84 33.66 104.65 34.46 104.46 34.92 104.27 35.12 103.88 35.12 103.45 34.92 103.06 34.26 102.87 33.45 102.87"/><polygon class="a" points="37.79 102.87 37.18 103.06 36.78 103.69 36.53 104.65 36.53 105.23 36.78 106.24 37.18 106.82 37.79 107.01 38.19 107.01 38.85 106.82 39.25 106.24 39.45 105.23 39.45 104.65 39.25 103.69 38.85 103.06 38.19 102.87 37.79 102.87"/><line class="a" x1="45.25" y1="104.27" x2="45.25" y2="107.01"/><polyline class="a" points="45.25 105.04 45.91 104.46 46.31 104.27 46.91 104.27 47.32 104.46 47.52 105.04 47.52 107.01"/><polyline class="a" points="47.52 105.04 48.17 104.46 48.58 104.27 49.18 104.27 49.63 104.46 49.84 105.04 49.84 107.01"/><polyline class="a" points="57.9 104.84 57.7 104.46 57.09 104.27 56.44 104.27 55.84 104.46 55.63 104.84 55.84 105.23 56.24 105.47 57.3 105.66 57.7 105.86 57.9 106.24 57.9 106.43 57.7 106.82 57.09 107.01 56.44 107.01 55.84 106.82 55.63 106.43"/><polygon class="a" points="59.56 106.63 59.36 106.82 59.56 107.01 59.77 106.82 59.56 106.63"/><line class="a" x1="61.43" y1="102.87" x2="61.43" y2="107.01"/><polygon class="a" points="63.3 106.63 63.09 106.82 63.3 107.01 63.5 106.82 63.3 106.63"/><line class="a" x1="65.16" y1="104.27" x2="65.16" y2="107.01"/><polyline class="a" points="65.16 105.04 65.77 104.46 66.22 104.27 66.82 104.27 67.23 104.46 67.43 105.04 67.43 107.01"/><polyline class="a" points="67.43 105.04 68.08 104.46 68.49 104.27 69.09 104.27 69.5 104.46 69.75 105.04 69.75 107.01"/><polygon class="a" points="71.61 106.63 71.36 106.82 71.61 107.01 71.81 106.82 71.61 106.63"/><line class="d" x1="100.8" y1="26.55" x2="104.83" y2="22.69"/><line class="d" x1="104.83" y1="26.55" x2="100.8" y2="22.69"/><line class="d" x1="296.79" y1="22.69" x2="300.82" y2="18.79"/><line class="d" x1="300.82" y1="22.69" x2="296.79" y2="18.79"/><line class="e" x1="102.51" y1="34.02" x2="106.55" y2="30.16"/><line class="e" x1="106.55" y1="34.02" x2="102.51" y2="30.16"/><line class="e" x1="284.33" y1="32.33" x2="288.37" y2="28.47"/><line class="e" x1="288.37" y1="32.33" x2="284.33" y2="28.47"/></svg>