<svg xmlns="http://www.w3.org/2000/svg" viewBox="0 0 555.37 207.83"><defs><style>.a,.b,.c,.d,.e{fill:none;stroke-linecap:round;stroke-linejoin:round;stroke-width:0.82px;}.a{stroke:#000;}.b{stroke:#ffbf00;}.c{stroke:red;}.d{stroke:#00b800;}.e{stroke:#00bfff;}</style></defs><title>Tavola disegno 6</title><polyline class="a" points="70.45 132.77 70.88 132.53 71.56 131.85 71.56 136.56"/><line class="a" x1="71.03" y1="143.29" x2="71.03" y2="157.84"/><line class="a" x1="8.2" y1="125.13" x2="549.61" y2="125.13"/><line class="a" x1="71.03" y1="143.29" x2="549.61" y2="143.29"/><line class="a" x1="71.03" y1="157.84" x2="549.61" y2="157.84"/><line class="a" x1="71.03" y1="179.6" x2="549.61" y2="179.6"/><polyline class="a" points="71.03 201.4 549.61 201.4 549.61 125.13"/><polyline class="a" points="83.61 148.33 85.53 148.33 84.48 149.72 85 149.72 85.34 149.91 85.53 150.06 85.67 150.59 85.67 150.93 85.53 151.45 85.15 151.79 84.67 151.98 84.14 151.98 83.61 151.79 83.42 151.65 83.28 151.26"/><polygon class="a" points="87.07 151.64 86.88 151.79 87.07 151.98 87.26 151.79 87.07 151.64"/><path class="a" d="M90.53,148.33H88.8l-.19,1.58.19-.19c3-1.2,2.57,3.6-.19,1.92l-.14-.39"/><polygon class="a" points="68.39 169.08 68.63 169.56 69.35 169.89 70.5 170.04 71.22 170.04 72.42 169.89 73.14 169.56 73.38 169.08 73.38 168.74 73.14 168.21 72.42 167.88 71.22 167.74 70.5 167.74 69.35 167.88 68.63 168.21 68.39 168.74 68.39 169.08"/><polyline class="a" points="69.34 198.62 69.11 198.28 68.38 197.8 73.38 197.8"/><polygon class="a" points="68.39 194.97 68.63 195.45 69.11 195.64 69.59 195.64 70.07 195.45 70.31 195.11 70.5 194.44 70.74 193.96 71.22 193.62 71.7 193.48 72.42 193.48 72.9 193.62 73.14 193.81 73.38 194.29 73.38 194.97 73.14 195.45 72.9 195.64 72.42 195.78 71.7 195.78 71.22 195.64 70.74 195.3 70.5 194.77 70.31 194.15 70.07 193.81 69.59 193.62 69.11 193.62 68.63 193.81 68.39 194.29 68.39 194.97"/><polyline class="a" points="70.07 190.31 70.74 190.45 71.22 190.79 71.46 191.32 71.46 191.46 71.22 191.94 70.74 192.28 70.07 192.47 69.83 192.47 69.11 192.28 68.62 191.94 68.38 191.46 68.38 191.32 68.62 190.79 69.11 190.45 70.07 190.31 71.22 190.31 72.42 190.45 73.14 190.79 73.38 191.32 73.38 191.65 73.14 192.13 72.66 192.28"/><polygon class="a" points="72.9 188.82 73.14 188.97 73.38 188.82 73.14 188.63 72.9 188.82"/><polyline class="a" points="69.11 185.31 68.62 185.46 68.38 185.99 68.38 186.32 68.62 186.8 69.34 187.14 70.5 187.28 71.7 187.28 72.66 187.14 73.14 186.8 73.38 186.32 73.38 186.13 73.14 185.65 72.66 185.31 71.94 185.12 71.7 185.12 70.98 185.31 70.5 185.65 70.31 186.13 70.31 186.32 70.5 186.8 70.98 187.14 71.7 187.28"/><polyline class="a" points="69.34 183.63 69.11 183.3 68.38 182.82 73.38 182.82"/><line class="a" x1="71.03" y1="125.13" x2="71.03" y2="37.91"/><line class="a" x1="536.02" y1="125.13" x2="536.02" y2="50.06"/><line class="a" x1="404.03" y1="125.13" x2="404.03" y2="46.74"/><line class="a" x1="360.13" y1="125.13" x2="360.13" y2="46.12"/><line class="a" x1="138.65" y1="125.13" x2="138.65" y2="37.28"/><line class="a" x1="123.19" y1="125.13" x2="123.19" y2="26.71"/><line class="a" x1="102.87" y1="125.13" x2="102.87" y2="32.62"/><polyline class="a" points="71.03 37.91 84.62 36.08 102.87 32.62 123.19 26.71 131.31 28.64"/><line class="b" x1="131.64" y1="29.02" x2="131.64" y2="28.97"/><line class="b" x1="132.36" y1="29.88" x2="132.41" y2="29.88"/><line class="b" x1="133.08" y1="30.75" x2="133.13" y2="30.7"/><line class="b" x1="133.85" y1="31.61" x2="133.9" y2="31.57"/><line class="b" x1="134.57" y1="32.53" x2="134.67" y2="32.43"/><line class="b" x1="135.29" y1="33.39" x2="135.44" y2="33.25"/><line class="b" x1="136.06" y1="34.26" x2="136.15" y2="34.11"/><line class="b" x1="136.78" y1="35.12" x2="136.93" y2="34.93"/><line class="b" x1="137.5" y1="35.98" x2="137.69" y2="35.79"/><line class="b" x1="138.27" y1="36.85" x2="138.46" y2="36.66"/><line class="b" x1="139.42" y1="37.28" x2="139.9" y2="36.8"/><line class="b" x1="141.06" y1="37.28" x2="141.54" y2="36.8"/><line class="b" x1="142.64" y1="37.23" x2="143.17" y2="36.75"/><line class="b" x1="144.27" y1="37.23" x2="144.8" y2="36.71"/><line class="b" x1="145.91" y1="37.23" x2="146.43" y2="36.71"/><line class="b" x1="147.49" y1="37.19" x2="148.02" y2="36.7"/><line class="b" x1="149.12" y1="37.19" x2="149.65" y2="36.66"/><line class="b" x1="150.76" y1="37.19" x2="151.33" y2="36.61"/><line class="b" x1="152.39" y1="37.14" x2="153.02" y2="36.51"/><line class="b" x1="153.98" y1="37.14" x2="154.65" y2="36.51"/><line class="b" x1="155.61" y1="37.14" x2="156.04" y2="36.7"/><line class="b" x1="157.24" y1="37.09" x2="157.48" y2="36.9"/><line class="b" x1="158.87" y1="37.09" x2="158.87" y2="37.04"/><polyline class="b" points="131.31 28.64 138.65 36.85 145.19 36.7 149.37 36.7 154.36 36.47 156.09 36.7"/><line class="b" x1="147.49" y1="37.18" x2="147.49" y2="37.14"/><line class="b" x1="162.28" y1="30.46" x2="164.93" y2="27.82"/><line class="b" x1="160.7" y1="33.68" x2="167.47" y2="26.86"/><line class="b" x1="159.07" y1="36.9" x2="169.54" y2="26.42"/><line class="b" x1="160.46" y1="37.09" x2="170.83" y2="26.71"/><line class="b" x1="162.09" y1="37.09" x2="172.13" y2="27.05"/><line class="b" x1="163.73" y1="37.04" x2="173.38" y2="27.39"/><line class="b" x1="165.36" y1="37.04" x2="174.68" y2="27.68"/><line class="b" x1="166.94" y1="37.04" x2="175.97" y2="28.01"/><line class="b" x1="168.58" y1="36.99" x2="177.27" y2="28.3"/><line class="b" x1="170.21" y1="36.99" x2="178.57" y2="28.64"/><line class="b" x1="171.79" y1="36.99" x2="179.67" y2="29.12"/><line class="b" x1="173.43" y1="36.94" x2="180.78" y2="29.6"/><line class="b" x1="175.06" y1="36.94" x2="181.88" y2="30.08"/><line class="b" x1="176.69" y1="36.94" x2="183.04" y2="30.6"/><line class="b" x1="178.28" y1="36.9" x2="184.14" y2="31.08"/><line class="b" x1="179.91" y1="36.9" x2="185.24" y2="31.56"/><line class="b" x1="181.55" y1="36.9" x2="186.35" y2="32.04"/><line class="b" x1="183.18" y1="36.85" x2="187.5" y2="32.52"/><line class="b" x1="184.76" y1="36.85" x2="188.61" y2="33"/><line class="b" x1="186.4" y1="36.85" x2="189.71" y2="33.54"/><line class="b" x1="188.03" y1="36.8" x2="190.81" y2="34.02"/><line class="b" x1="189.66" y1="36.8" x2="191.97" y2="34.5"/><line class="b" x1="191.25" y1="36.8" x2="193.12" y2="34.93"/><line class="b" x1="192.88" y1="36.75" x2="194.22" y2="35.41"/><line class="b" x1="194.51" y1="36.75" x2="195.38" y2="35.89"/><line class="b" x1="196.1" y1="36.75" x2="196.53" y2="36.37"/><polyline class="b" points="159.21 36.61 163.34 28.4 169.06 26.28 178.57 28.64 191.1 34.11"/><line class="c" x1="197.64" y1="36.8" x2="197.73" y2="36.71"/><line class="c" x1="198.79" y1="37.28" x2="199.36" y2="36.71"/><line class="c" x1="199.89" y1="37.76" x2="201" y2="36.71"/><line class="c" x1="201.05" y1="38.24" x2="202.58" y2="36.66"/><line class="c" x1="202.2" y1="38.67" x2="204.22" y2="36.66"/><line class="c" x1="203.3" y1="39.15" x2="205.85" y2="36.66"/><line class="c" x1="204.46" y1="39.63" x2="207.48" y2="36.61"/><line class="c" x1="205.61" y1="40.12" x2="209.07" y2="36.61"/><line class="c" x1="206.71" y1="40.55" x2="210.7" y2="36.61"/><line class="c" x1="207.87" y1="41.03" x2="212.33" y2="36.56"/><line class="c" x1="209.02" y1="41.51" x2="213.92" y2="36.56"/><line class="c" x1="210.12" y1="41.99" x2="215.55" y2="36.56"/><line class="c" x1="211.71" y1="42.04" x2="217.18" y2="36.51"/><line class="c" x1="213.29" y1="42.04" x2="218.82" y2="36.51"/><line class="c" x1="214.93" y1="42.04" x2="220.4" y2="36.51"/><line class="c" x1="216.51" y1="42.04" x2="222.03" y2="36.51"/><line class="c" x1="218.1" y1="42.04" x2="223.67" y2="36.46"/><line class="c" x1="219.73" y1="42.04" x2="225.3" y2="36.46"/><line class="c" x1="221.32" y1="42.04" x2="226.89" y2="36.46"/><line class="c" x1="222.95" y1="42.04" x2="228.52" y2="36.42"/><line class="c" x1="224.53" y1="42.04" x2="230.15" y2="36.42"/><line class="c" x1="226.12" y1="42.04" x2="231.79" y2="36.42"/><line class="c" x1="227.75" y1="42.04" x2="233.37" y2="36.37"/><line class="c" x1="229.34" y1="42.04" x2="235" y2="36.37"/><line class="c" x1="230.97" y1="42.04" x2="236.64" y2="36.37"/><polyline class="c" points="232.55 42.04 238.03 36.52 238.22 36.32"/><polyline class="c" points="234.14 42.04 238.08 38.15 239.85 36.32"/><line class="c" x1="235.77" y1="42.04" x2="241.49" y2="36.32"/><line class="c" x1="237.36" y1="42.04" x2="243.12" y2="36.27"/><line class="c" x1="238.94" y1="42.04" x2="244.71" y2="36.27"/><line class="c" x1="240.58" y1="42.04" x2="246.34" y2="36.27"/><line class="c" x1="242.16" y1="42.04" x2="247.97" y2="36.22"/><line class="c" x1="243.75" y1="42.08" x2="249.61" y2="36.22"/><line class="c" x1="245.28" y1="42.13" x2="251.19" y2="36.22"/><line class="c" x1="246.87" y1="42.13" x2="252.82" y2="36.18"/><line class="c" x1="248.45" y1="42.18" x2="254.45" y2="36.18"/><line class="c" x1="249.99" y1="42.23" x2="256.04" y2="36.18"/><line class="c" x1="251.57" y1="42.28" x2="257.68" y2="36.13"/><line class="c" x1="253.16" y1="42.28" x2="259.31" y2="36.13"/><line class="c" x1="254.7" y1="42.33" x2="260.94" y2="36.13"/><line class="c" x1="256.28" y1="42.37" x2="262.52" y2="36.08"/><line class="c" x1="257.87" y1="42.37" x2="264.16" y2="36.08"/><line class="c" x1="259.4" y1="42.42" x2="265.79" y2="36.08"/><line class="c" x1="260.99" y1="42.47" x2="267.42" y2="36.03"/><line class="c" x1="262.57" y1="42.52" x2="269.01" y2="36.03"/><line class="c" x1="264.16" y1="42.52" x2="270.64" y2="36.03"/><line class="c" x1="265.7" y1="42.57" x2="272.28" y2="35.98"/><line class="c" x1="267.28" y1="42.61" x2="273.91" y2="35.99"/><line class="c" x1="268.87" y1="42.61" x2="275.49" y2="35.99"/><line class="c" x1="270.4" y1="42.66" x2="277.13" y2="35.94"/><line class="c" x1="271.99" y1="42.71" x2="278.76" y2="35.94"/><line class="c" x1="273.52" y1="42.81" x2="280.35" y2="35.94"/><line class="c" x1="275.01" y1="42.85" x2="281.98" y2="35.89"/><line class="c" x1="276.55" y1="42.95" x2="283.61" y2="35.89"/><line class="c" x1="278.04" y1="43.05" x2="285.24" y2="35.89"/><line class="c" x1="279.58" y1="43.14" x2="286.83" y2="35.89"/><line class="c" x1="281.07" y1="43.24" x2="288.46" y2="35.84"/><line class="c" x1="282.6" y1="43.33" x2="290.1" y2="35.84"/><line class="c" x1="284.09" y1="43.43" x2="291.73" y2="35.84"/><line class="c" x1="285.63" y1="43.53" x2="293.31" y2="35.8"/><line class="c" x1="287.12" y1="43.62" x2="294.95" y2="35.79"/><line class="c" x1="288.65" y1="43.67" x2="296.58" y2="35.79"/><line class="c" x1="290.14" y1="43.77" x2="298.17" y2="35.74"/><line class="c" x1="291.68" y1="43.86" x2="299.8" y2="35.75"/><line class="c" x1="293.17" y1="43.96" x2="301.43" y2="35.75"/><line class="c" x1="294.71" y1="44.05" x2="303.06" y2="35.7"/><line class="c" x1="296.2" y1="44.15" x2="304.65" y2="35.7"/><line class="c" x1="297.73" y1="44.25" x2="306.28" y2="35.7"/><line class="c" x1="299.27" y1="44.34" x2="307.91" y2="35.65"/><line class="c" x1="317.71" y1="25.85" x2="310.75" y2="32.81"/><line class="c" x1="300.76" y1="44.44" x2="308.39" y2="36.76"/><polyline class="c" points="319.35 25.85 316.46 28.69 308.39 36.75"/><line class="c" x1="302.29" y1="44.49" x2="308.4" y2="38.39"/><line class="c" x1="320.93" y1="25.85" x2="308.4" y2="38.39"/><line class="c" x1="303.78" y1="44.58" x2="308.4" y2="39.97"/><line class="c" x1="322.52" y1="25.85" x2="308.39" y2="39.97"/><line class="c" x1="305.32" y1="44.68" x2="308.4" y2="41.6"/><line class="c" x1="324.15" y1="25.85" x2="324.15" y2="25.8"/><polyline class="c" points="308.39 41.6 316.46 33.49 324.15 25.85"/><line class="c" x1="306.81" y1="44.78" x2="308.39" y2="43.19"/><line class="c" x1="324.15" y1="27.44" x2="324.78" y2="26.81"/><line class="c" x1="308.4" y1="43.19" x2="324.15" y2="27.44"/><line class="c" x1="308.35" y1="44.87" x2="308.39" y2="44.82"/><line class="c" x1="324.15" y1="29.07" x2="325.4" y2="27.82"/><polyline class="c" points="308.39 44.82 316.46 36.71 324.15 29.07"/><line class="c" x1="309.84" y1="44.97" x2="316.46" y2="38.34"/><line class="c" x1="326.02" y1="28.78" x2="316.46" y2="38.34"/><line class="c" x1="311.37" y1="45.06" x2="316.47" y2="39.92"/><polyline class="c" points="326.65 29.79 324.15 32.29 316.47 39.92"/><line class="c" x1="312.86" y1="45.16" x2="316.47" y2="41.51"/><polyline class="c" points="327.27 30.75 324.15 33.87 316.46 41.51"/><line class="c" x1="314.45" y1="45.21" x2="316.46" y2="43.14"/><line class="c" x1="327.9" y1="31.71" x2="316.46" y2="43.14"/><line class="c" x1="315.98" y1="45.21" x2="316.46" y2="44.73"/><polyline class="c" points="328.52 32.72 324.15 37.09 316.46 44.73"/><line class="c" x1="317.57" y1="45.26" x2="329.14" y2="33.68"/><line class="c" x1="319.15" y1="45.3" x2="329.77" y2="34.69"/><polyline class="c" points="320.69 45.3 324.15 41.89 330.39 35.65"/><polyline class="c" points="322.28 45.35 324.15 43.48 331.02 36.66"/><line class="c" x1="323.86" y1="45.4" x2="331.64" y2="37.62"/><line class="c" x1="325.45" y1="45.4" x2="332.27" y2="38.58"/><line class="c" x1="326.98" y1="45.45" x2="332.89" y2="39.59"/><line class="c" x1="328.57" y1="45.5" x2="333.51" y2="40.55"/><line class="c" x1="330.15" y1="45.54" x2="334.14" y2="41.56"/><line class="c" x1="331.74" y1="45.54" x2="334.76" y2="42.52"/><line class="c" x1="333.28" y1="45.59" x2="335.39" y2="43.53"/><line class="c" x1="334.86" y1="45.64" x2="336.01" y2="44.49"/><line class="c" x1="336.45" y1="45.64" x2="336.64" y2="45.45"/><polyline class="c" points="197.4 36.71 210.26 41.99 241.1 42.04 272.18 42.71 313.34 45.16"/><polyline class="a" points="336.73 45.64 360.12 46.12 404.02 46.75 452.87 48.76 536.02 50.06"/><polyline class="a" points="101.53 133.01 101.53 132.77 101.77 132.33 102.01 132.09 102.44 131.85 103.35 131.85 103.78 132.09 104.02 132.33 104.22 132.77 104.22 133.2 104.02 133.68 103.54 134.35 101.33 136.56 104.46 136.56"/><polyline class="a" points="122.08 131.85 124.58 131.85 123.24 133.68 123.91 133.68 124.34 133.87 124.58 134.11 124.77 134.78 124.77 135.22 124.58 135.89 124.1 136.37 123.43 136.56 122.76 136.56 122.08 136.37 121.89 136.13 121.65 135.7"/><polyline class="a" points="139.23 131.85 136.97 135.03 140.34 135.03"/><line class="a" x1="139.23" y1="131.85" x2="139.23" y2="136.56"/><polyline class="a" points="356.67 132.77 357.1 132.53 357.77 131.85 357.77 136.56"/><polyline class="a" points="360.7 133.01 360.7 132.77 360.89 132.33 361.13 132.09 361.57 131.85 362.48 131.85 362.91 132.09 363.15 132.33 363.39 132.77 363.39 133.2 363.15 133.68 362.72 134.35 360.46 136.56 363.58 136.56"/><polyline class="a" points="400.57 132.77 401.05 132.53 401.72 131.85 401.72 136.56"/><polyline class="a" points="404.84 131.85 407.29 131.85 405.95 133.68 406.62 133.68 407.1 133.87 407.29 134.11 407.53 134.78 407.53 135.22 407.29 135.89 406.86 136.37 406.19 136.56 405.52 136.56 404.84 136.37 404.6 136.13 404.41 135.7"/><polyline class="a" points="532.46 132.77 532.89 132.53 533.56 131.85 533.56 136.56"/><polyline class="a" points="538.51 131.85 536.26 135.03 539.62 135.03"/><line class="a" x1="538.51" y1="131.85" x2="538.51" y2="136.56"/><line class="a" x1="102.87" y1="143.29" x2="102.87" y2="157.84"/><line class="a" x1="123.19" y1="143.29" x2="123.19" y2="157.84"/><line class="a" x1="138.65" y1="143.29" x2="138.65" y2="157.84"/><line class="a" x1="360.13" y1="143.29" x2="360.13" y2="157.84"/><line class="a" x1="404.03" y1="143.29" x2="404.03" y2="157.84"/><line class="a" x1="536.02" y1="143.29" x2="536.02" y2="157.84"/><polyline class="a" points="108.78 149.19 108.78 149.05 108.92 148.67 109.11 148.52 109.45 148.33 110.17 148.33 110.51 148.52 110.65 148.67 110.84 149.05 110.84 149.39 110.65 149.72 110.31 150.25 108.58 151.98 111.03 151.98"/><polygon class="a" points="112.38 151.64 112.23 151.79 112.38 151.98 112.57 151.79 112.38 151.64"/><polyline class="a" points="113.97 149.19 113.97 149.05 114.11 148.67 114.3 148.52 114.64 148.33 115.36 148.33 115.69 148.52 115.84 148.67 116.03 149.05 116.03 149.39 115.84 149.72 115.5 150.25 113.77 151.98 116.22 151.98"/><polyline class="a" points="127.08 149.05 127.46 148.86 127.94 148.33 127.94 151.98"/><polygon class="a" points="130.39 151.64 130.2 151.79 130.39 151.98 130.54 151.79 130.39 151.64"/><polyline class="a" points="132.46 151.98 134.19 148.33 131.78 148.33"/><polyline class="a" points="379.77 148.33 378.04 150.78 380.64 150.78"/><line class="a" x1="379.77" y1="148.33" x2="379.77" y2="151.98"/><polygon class="a" points="381.84 151.64 381.69 151.79 381.84 151.98 382.03 151.79 381.84 151.64"/><polygon class="a" points="384.09 148.33 383.56 148.52 383.42 148.86 383.42 149.2 383.56 149.53 383.95 149.72 384.62 149.91 385.15 150.06 385.49 150.39 385.68 150.78 385.68 151.26 385.49 151.65 385.29 151.79 384.81 151.98 384.09 151.98 383.56 151.79 383.42 151.65 383.23 151.26 383.23 150.78 383.42 150.39 383.76 150.06 384.29 149.91 384.96 149.72 385.29 149.53 385.49 149.2 385.49 148.86 385.29 148.52 384.81 148.33 384.09 148.33"/><polyline class="a" points="463.49 149.05 463.82 148.86 464.36 148.33 464.36 151.98"/><polyline class="a" points="468.15 148.33 466.42 150.78 469.01 150.78"/><line class="a" x1="468.15" y1="148.33" x2="468.15" y2="151.98"/><polygon class="a" points="470.21 151.64 470.07 151.79 470.21 151.98 470.41 151.79 470.21 151.64"/><polyline class="a" points="473.67 148.33 471.94 148.33 471.8 149.91 471.94 149.72 472.47 149.53 473 149.53 473.52 149.72 473.86 150.06 474.06 150.59 474.06 150.93 473.86 151.45 473.52 151.79 473 151.98 472.47 151.98 471.94 151.79 471.8 151.65 471.61 151.26"/><polyline class="a" points="100.52 172.2 100.52 170.38 102.44 171.39 102.44 170.91 102.63 170.57 102.87 170.38 103.59 170.23 104.07 170.23 104.79 170.38 105.27 170.71 105.51 171.24 105.51 171.72 105.27 172.2 105.03 172.39 104.55 172.54"/><polygon class="a" points="105.03 168.89 105.27 169.08 105.51 168.89 105.27 168.74 105.03 168.89"/><path class="a" d="M100.52,165.57v1.63l2.11.19-.19-.19c-1.65-2.95,5-2.36,2.59.19l-.48.15"/><path class="a" d="M120.83,170.57v1.63l2.16.19-.24-.19c-1.64-2.93,5-2.37,2.59.19l-.48.15"/><polygon class="a" points="125.35 168.89 125.59 169.08 125.83 168.89 125.59 168.74 125.35 168.89"/><polygon class="a" points="120.83 166.72 121.08 167.21 121.56 167.4 122.04 167.4 122.52 167.21 122.76 166.92 123 166.25 123.24 165.72 123.72 165.38 124.2 165.24 124.87 165.24 125.35 165.38 125.59 165.57 125.83 166.05 125.83 166.72 125.59 167.21 125.35 167.4 124.87 167.54 124.2 167.54 123.72 167.4 123.24 167.06 123 166.58 122.76 165.91 122.52 165.57 122.04 165.38 121.56 165.38 121.08 165.57 120.83 166.05 120.83 166.72"/><polyline class="a" points="141.25 171.87 136.25 170.23 136.25 172.54"/><polygon class="a" points="140.81 168.89 141.01 169.08 141.25 168.89 141.01 168.74 140.81 168.89"/><path class="a" d="M136.25,165.57v1.63l2.16.19-.24-.19c-1.6-2.85,4.87-2.5,2.64.19l-.48.15"/><polyline class="a" points="357.72 173.79 357.72 171.96 359.65 172.97 359.65 172.49 359.89 172.15 360.13 171.96 360.85 171.82 361.33 171.82 362.05 171.96 362.48 172.3 362.72 172.82 362.72 173.31 362.48 173.79 362.29 173.98 361.81 174.12"/><polyline class="a" points="358.69 170.33 358.44 169.99 357.72 169.46 362.72 169.46"/><polygon class="a" points="362.29 167.16 362.48 167.3 362.72 167.16 362.48 166.96 362.29 167.16"/><polyline class="a" points="359.4 163.65 360.13 163.8 360.61 164.13 360.85 164.66 360.85 164.81 360.61 165.33 360.13 165.67 359.4 165.81 359.17 165.81 358.44 165.67 357.96 165.33 357.72 164.81 357.72 164.66 357.96 164.13 358.44 163.8 359.4 163.65 360.61 163.65 361.81 163.8 362.48 164.13 362.72 164.66 362.72 164.99 362.48 165.47 362.05 165.67"/><path class="a" d="M401.67,173.88v-1.82l1.92,1v-.53c.89-1.62,4.48-.13,2.59,1.54l-.48.14"/><polyline class="a" points="402.39 168.74 401.91 168.89 401.67 169.42 401.67 169.7 401.91 170.23 402.63 170.57 403.83 170.71 404.99 170.71 405.94 170.57 406.43 170.23 406.67 169.7 406.67 169.56 406.43 169.08 405.94 168.74 405.23 168.55 404.99 168.55 404.31 168.74 403.83 169.08 403.59 169.56 403.59 169.7 403.83 170.23 404.31 170.57 404.99 170.71"/><polygon class="a" points="406.19 167.21 406.43 167.4 406.67 167.21 406.43 167.06 406.19 167.21"/><polyline class="a" points="406.67 165.24 401.67 163.56 401.67 165.91"/><path class="a" d="M533.66,172.2v1.68l2.11.19-.24-.19c-1.64-3,5.05-2.4,2.64.19l-.48.14"/><polyline class="a" points="534.62 170.38 534.38 170.04 533.66 169.56 538.65 169.56"/><polygon class="a" points="538.18 167.21 538.42 167.4 538.66 167.21 538.42 167.06 538.18 167.21"/><polyline class="a" points="534.86 165.72 534.62 165.72 534.14 165.57 533.9 165.38 533.66 165.04 533.66 164.42 533.9 164.08 534.14 163.89 534.62 163.75 535.1 163.75 535.54 163.89 536.26 164.23 538.65 165.91 538.65 163.56"/><polyline class="a" points="101.33 197.47 101.09 197.13 100.37 196.6 105.37 196.6"/><polyline class="a" points="102.05 192.47 102.78 192.62 103.25 192.95 103.5 193.48 103.5 193.62 103.25 194.15 102.78 194.44 102.05 194.63 101.81 194.63 101.09 194.44 100.61 194.15 100.37 193.62 100.37 193.48 100.61 192.95 101.09 192.62 102.05 192.47 103.25 192.47 104.41 192.62 105.13 192.95 105.37 193.48 105.37 193.81 105.13 194.29 104.65 194.44"/><polygon class="a" points="100.37 190.31 100.61 190.79 101.33 191.12 102.53 191.32 103.26 191.32 104.41 191.12 105.13 190.79 105.37 190.31 105.37 189.97 105.13 189.49 104.41 189.16 103.26 188.97 102.53 188.97 101.33 189.16 100.61 189.49 100.37 189.97 100.37 190.31"/><polygon class="a" points="104.89 187.62 105.13 187.81 105.37 187.62 105.13 187.47 104.89 187.62"/><polyline class="a" points="101.57 186.13 101.33 186.13 100.85 185.98 100.61 185.79 100.37 185.46 100.37 184.79 100.61 184.5 100.85 184.31 101.33 184.16 101.81 184.16 102.29 184.31 103.02 184.64 105.37 186.32 105.37 183.97"/><polyline class="a" points="121.65 199.1 121.41 198.81 120.74 198.28 125.68 198.28"/><polyline class="a" points="122.37 194.15 123.09 194.3 123.57 194.63 123.81 195.11 123.81 195.31 123.57 195.78 123.09 196.12 122.37 196.31 122.13 196.31 121.41 196.12 120.93 195.78 120.74 195.31 120.74 195.11 120.93 194.63 121.41 194.3 122.37 194.15 123.57 194.15 124.77 194.3 125.45 194.63 125.68 195.11 125.68 195.45 125.45 195.97 125.01 196.12"/><polygon class="a" points="120.74 191.94 120.93 192.47 121.65 192.81 122.85 192.95 123.57 192.95 124.77 192.81 125.44 192.47 125.69 191.94 125.69 191.65 125.44 191.13 124.77 190.79 123.57 190.65 122.85 190.65 121.65 190.79 120.93 191.13 120.74 191.65 120.74 191.94"/><polygon class="a" points="125.25 189.3 125.45 189.49 125.69 189.3 125.45 189.15 125.25 189.3"/><polygon class="a" points="120.74 187.14 120.93 187.62 121.41 187.81 121.89 187.81 122.37 187.62 122.61 187.28 122.85 186.66 123.09 186.13 123.57 185.8 124.05 185.65 124.77 185.65 125.25 185.8 125.44 185.99 125.69 186.47 125.69 187.14 125.44 187.62 125.25 187.81 124.77 187.95 124.05 187.95 123.57 187.81 123.09 187.47 122.85 186.99 122.61 186.32 122.37 185.99 121.89 185.8 121.41 185.8 120.93 185.99 120.74 186.47 120.74 187.14"/><path class="a" d="M120.74,182.62v1.68l2.11.19-.24-.19c-1.61-2.85,4.89-2.5,2.64.19l-.48.14"/><polyline class="a" points="137.12 199.1 136.88 198.81 136.16 198.28 141.15 198.28"/><path class="a" d="M136.16,195.45l.24.53.48.15h.48l.43-.15.24-.33.24-.67.24-.53.48-.29.48-.19h.72l.48.19.24.14.24.48v.67l-.24.53c-3.52,1.65-1.83-2.81-4.51-1.68l-.24.48Z"/><polyline class="a" points="137.79 190.79 138.51 190.98 138.99 191.32 139.23 191.8 139.23 191.94 138.99 192.47 138.51 192.81 137.79 192.95 137.55 192.95 136.88 192.81 136.4 192.47 136.16 191.94 136.16 191.8 136.4 191.32 136.88 190.98 137.79 190.79 138.99 190.79 140.19 190.98 140.91 191.32 141.15 191.8 141.15 192.13 140.91 192.61 140.43 192.81"/><polygon class="a" points="140.67 189.3 140.91 189.49 141.15 189.3 140.91 189.15 140.67 189.3"/><polyline class="a" points="136.88 185.79 136.4 185.99 136.16 186.47 136.16 186.8 136.4 187.28 137.12 187.62 138.27 187.81 139.47 187.81 140.43 187.62 140.91 187.28 141.15 186.8 141.15 186.66 140.91 186.13 140.43 185.79 139.71 185.65 139.47 185.65 138.75 185.79 138.27 186.13 138.03 186.66 138.03 186.8 138.27 187.28 138.75 187.62 139.47 187.81"/><polygon class="a" points="136.16 183.82 136.4 184.31 136.88 184.5 137.36 184.5 137.79 184.31 138.03 183.97 138.27 183.3 138.51 182.82 138.99 182.48 139.47 182.34 140.19 182.34 140.67 182.48 140.91 182.62 141.15 183.15 141.15 183.82 140.91 184.31 140.67 184.5 140.19 184.64 139.47 184.64 138.99 184.5 138.51 184.16 138.27 183.63 138.03 182.96 137.79 182.62 137.36 182.48 136.88 182.48 136.4 182.62 136.16 183.15 136.16 183.82"/><polyline class="a" points="358.59 198.62 358.35 198.28 357.63 197.8 362.62 197.8"/><polygon class="a" points="357.63 194.97 357.87 195.45 358.35 195.64 358.83 195.64 359.26 195.45 359.5 195.11 359.74 194.44 359.98 193.96 360.46 193.62 360.94 193.48 361.66 193.48 362.14 193.62 362.38 193.81 362.62 194.29 362.62 194.97 362.38 195.45 362.14 195.64 361.66 195.78 360.94 195.78 360.46 195.64 359.98 195.3 359.74 194.77 359.5 194.15 359.26 193.81 358.83 193.62 358.35 193.62 357.87 193.81 357.63 194.29 357.63 194.97"/><path class="a" d="M357.63,191.65l.24.48.48.15h.48l.43-.15.24-.33.24-.67.24-.48.48-.33.48-.19h.72l.48.19.24.14.24.53v.67l-.24.48c-3.52,1.65-1.83-2.81-4.51-1.68l-.24.53Z"/><polygon class="a" points="362.14 188.82 362.38 188.97 362.62 188.82 362.38 188.63 362.14 188.82"/><polyline class="a" points="362.62 186.8 357.63 185.12 357.63 187.48"/><polyline class="a" points="358.59 183.63 358.35 183.3 357.63 182.82 362.62 182.82"/><polyline class="a" points="402.49 199.19 402.25 198.86 401.53 198.38 406.52 198.38"/><polygon class="a" points="401.53 195.54 401.77 196.03 402.25 196.22 402.73 196.22 403.21 196.03 403.45 195.69 403.69 195.06 403.93 194.54 404.41 194.2 404.89 194.06 405.61 194.06 406.04 194.2 406.28 194.39 406.52 194.87 406.52 195.54 406.28 196.03 406.04 196.22 405.61 196.36 404.89 196.36 404.41 196.22 403.93 195.88 403.69 195.35 403.45 194.73 403.21 194.39 402.73 194.2 402.25 194.2 401.77 194.39 401.53 194.87 401.53 195.54"/><polygon class="a" points="401.53 192.23 401.77 192.71 402.25 192.9 402.73 192.9 403.21 192.71 403.45 192.38 403.69 191.7 403.93 191.22 404.41 190.89 404.89 190.69 405.61 190.69 406.04 190.89 406.28 191.03 406.52 191.56 406.52 192.23 406.28 192.71 406.04 192.9 405.61 193.04 404.89 193.04 404.41 192.9 403.93 192.56 403.69 192.04 403.45 191.36 403.21 191.03 402.73 190.89 402.25 190.89 401.77 191.03 401.53 191.56 401.53 192.23"/><polygon class="a" points="406.04 189.4 406.28 189.54 406.52 189.4 406.28 189.2 406.04 189.4"/><polyline class="a" points="406.52 187.38 401.53 185.74 401.53 188.05"/><polyline class="a" points="401.53 183.06 404.89 184.74 404.89 182.24"/><line class="a" x1="401.53" y1="183.06" x2="406.52" y2="183.06"/><polyline class="a" points="534.48 199.1 534.24 198.81 533.52 198.28 538.51 198.28"/><path class="a" d="M533.52,195.45l.24.53.48.15h.48l.48-.15.24-.33.24-.67.24-.53.48-.29.43-.19h.72l.48.19.24.14.24.48v.67l-.24.53c-3.45,1.65-1.77-2.82-4.51-1.68l-.24.48Z"/><polygon class="a" points="533.52 192.13 533.76 192.61 534.24 192.81 534.72 192.81 535.2 192.61 535.44 192.28 535.68 191.65 535.92 191.13 536.4 190.79 536.83 190.65 537.55 190.65 538.03 190.79 538.27 190.98 538.51 191.46 538.51 192.13 538.27 192.61 538.03 192.81 537.55 192.95 536.83 192.95 536.4 192.81 535.92 192.47 535.68 191.94 535.44 191.32 535.2 190.98 534.72 190.79 534.24 190.79 533.76 190.98 533.52 191.46 533.52 192.13"/><polygon class="a" points="538.03 189.3 538.27 189.49 538.51 189.3 538.27 189.15 538.03 189.3"/><polyline class="a" points="534.72 187.81 534.48 187.81 534 187.62 533.76 187.48 533.52 187.14 533.52 186.47 533.76 186.13 534 185.99 534.48 185.79 534.96 185.79 535.44 185.99 536.16 186.32 538.51 187.96 538.51 185.65"/><polyline class="a" points="538.51 183.97 533.52 182.33 533.52 184.64"/><line class="a" x1="138.65" y1="37.28" x2="308.4" y2="35.65"/><polyline class="a" points="324.15 25.85 316.47 25.85 308.4 35.65"/><line class="a" x1="324.15" y1="25.85" x2="336.73" y2="45.64"/><polygon class="a" points="12.09 166.87 12.09 163.22 13.29 163.22 13.82 163.41 14.16 163.75 14.35 164.09 14.49 164.61 14.49 165.47 14.35 166 14.16 166.34 13.82 166.72 13.29 166.87 12.09 166.87"/><line class="a" x1="15.74" y1="163.22" x2="15.74" y2="166.87"/><path class="a" d="M19.39,163.75l-.33-.33-.53-.19h-.72l-.53.19-.33.33v.33l.19.39.14.15.39.19,1,.34c1.19.43,1.06,2-.86,1.73l-.53-.15-.33-.38"/><line class="a" x1="21.31" y1="163.22" x2="21.31" y2="166.87"/><line class="a" x1="20.07" y1="163.22" x2="22.52" y2="163.22"/><polygon class="a" points="23.57 166.53 23.38 166.73 23.57 166.87 23.72 166.73 23.57 166.53"/><polyline class="a" points="28.76 166.87 28.76 163.22 30.34 163.22 30.87 163.41 31.02 163.56 31.21 163.94 31.21 164.47 31.02 164.81 30.87 164.95 30.34 165.14 28.76 165.14"/><polyline class="a" points="32.41 166.87 32.41 163.22 33.99 163.22 34.52 163.41 34.67 163.56 34.86 163.94 34.86 164.27 34.67 164.61 34.52 164.81 33.99 164.95 32.41 164.95"/><line class="a" x1="33.66" y1="164.95" x2="34.86" y2="166.87"/><path class="a" d="M36.92,163.22l-.33.19-.34.33c-.64.81-.46,2.8.67,3.12h.72l.33-.15a2.18,2.18,0,0,0,0-3.31l-.33-.19Z"/><polyline class="a" points="42.35 164.08 42.16 163.75 41.82 163.41 41.44 163.22 40.77 163.22 40.43 163.41 40.05 163.75 39.9 164.08 39.71 164.61 39.71 165.48 39.9 166.01 40.05 166.34 40.43 166.73 40.77 166.87 41.44 166.87 41.82 166.73 42.16 166.34 42.35 166.01 42.35 165.48 41.44 165.48"/><polyline class="a" points="43.55 166.87 43.55 163.22 45.09 163.22 45.62 163.41 45.81 163.56 46 163.94 46 164.27 45.81 164.61 45.62 164.81 45.09 164.95 43.55 164.95"/><line class="a" x1="44.75" y1="164.95" x2="46" y2="166.87"/><polyline class="a" points="47.2 166.87 47.2 163.22 49.46 163.22"/><line class="a" x1="47.2" y1="164.95" x2="48.6" y2="164.95"/><line class="a" x1="47.2" y1="166.87" x2="49.46" y2="166.87"/><polyline class="a" points="52.77 163.75 52.39 163.41 51.91 163.22 51.19 163.22 50.66 163.41 50.33 163.75 50.33 164.08 50.52 164.47 50.66 164.61 51 164.8 52.05 165.14 52.39 165.33 52.58 165.48 52.77 165.86 52.77 166.34 52.39 166.72 51.91 166.87 51.19 166.87 50.66 166.72 50.33 166.34"/><path class="a" d="M56.23,163.75l-.33-.33-.53-.19h-.72l-.48.19-.39.33v.33l.19.39.19.15.33.19,1.06.34c1.19.56.92,2-.91,1.73l-.48-.15-.39-.38"/><line class="a" x1="57.43" y1="163.22" x2="57.43" y2="166.87"/><polyline class="a" points="58.3 163.22 59.69 166.87 61.08 163.22"/><polyline class="a" points="61.47 166.87 62.86 163.22 64.25 166.87"/><line class="a" x1="61.95" y1="165.67" x2="63.73" y2="165.67"/><path class="a" d="M13.29,169.32l-.33.33a3.75,3.75,0,0,0,0,4.85l.33.39"/><line class="a" x1="14.49" y1="171.24" x2="14.49" y2="173.64"/><polyline class="a" points="14.49 171.91 15.02 171.38 15.41 171.24 15.89 171.24 16.27 171.38 16.42 171.91 16.42 173.64"/><polyline class="a" points="16.41 171.91 16.94 171.38 17.28 171.24 17.81 171.24 18.14 171.38 18.34 171.91 18.34 173.64"/><path class="a" d="M19.54,169.32l.39.33a3.78,3.78,0,0,1,0,4.85l-.39.39"/><polygon class="a" points="12.09 147.85 12.09 144.2 13.29 144.2 13.82 144.39 14.16 144.73 14.35 145.11 14.49 145.59 14.49 146.51 14.35 146.98 14.16 147.37 13.82 147.7 13.29 147.85 12.09 147.85"/><line class="a" x1="15.74" y1="144.2" x2="15.74" y2="147.85"/><polyline class="a" points="19.39 144.73 19.06 144.39 18.53 144.2 17.81 144.2 17.28 144.39 16.94 144.73 16.94 145.11 17.14 145.45 17.28 145.59 17.66 145.78 18.67 146.12 19.06 146.31 19.2 146.5 19.39 146.84 19.39 147.37 19.06 147.71 18.53 147.85 17.81 147.85 17.28 147.71 16.94 147.37"/><line class="a" x1="21.31" y1="144.2" x2="21.31" y2="147.85"/><line class="a" x1="20.07" y1="144.2" x2="22.52" y2="144.2"/><polygon class="a" points="23.57 147.51 23.38 147.71 23.57 147.85 23.72 147.71 23.57 147.51"/><polyline class="a" points="28.76 147.85 28.76 144.2 30.34 144.2 30.87 144.39 31.02 144.58 31.21 144.92 31.21 145.45 31.02 145.78 30.87 145.97 30.34 146.12 28.76 146.12"/><polyline class="a" points="31.88 147.85 33.27 144.2 34.67 147.85"/><line class="a" x1="32.41" y1="146.65" x2="34.14" y2="146.65"/><polyline class="a" points="35.53 147.85 35.53 144.2 37.12 144.2 37.65 144.39 37.79 144.58 37.98 144.92 37.98 145.25 37.79 145.59 37.65 145.78 37.12 145.97 35.53 145.97"/><line class="a" x1="36.78" y1="145.98" x2="37.98" y2="147.85"/><polyline class="a" points="39.04 147.85 41.44 144.2 39.04 144.2"/><line class="a" x1="39.04" y1="147.85" x2="41.44" y2="147.85"/><line class="a" x1="42.69" y1="144.2" x2="42.69" y2="147.85"/><polyline class="a" points="43.55 147.85 44.95 144.2 46.34 147.85"/><line class="a" x1="44.08" y1="146.65" x2="45.81" y2="146.65"/><polyline class="a" points="47.2 144.2 47.2 147.85 49.27 147.85"/><polyline class="a" points="50.13 147.85 50.13 144.2 52.39 144.2"/><line class="a" x1="50.13" y1="145.98" x2="51.53" y2="145.98"/><line class="a" x1="50.13" y1="147.85" x2="52.39" y2="147.85"/><path class="a" d="M13.29,150.3l-.33.33a3.81,3.81,0,0,0,0,4.9l.33.34"/><line class="a" x1="14.49" y1="152.22" x2="14.49" y2="154.67"/><polyline class="a" points="14.49 152.89 15.02 152.41 15.41 152.22 15.89 152.22 16.27 152.41 16.42 152.89 16.42 154.67"/><polyline class="a" points="16.41 152.89 16.94 152.41 17.28 152.22 17.81 152.22 18.14 152.41 18.34 152.89 18.34 154.67"/><path class="a" d="M19.54,150.3l.39.33a3.85,3.85,0,0,1,0,4.9l-.39.34"/><polyline class="a" points="12.09 132.62 13.49 136.27 14.88 132.62"/><polyline class="a" points="15.74 136.27 15.74 132.62 18 132.62"/><line class="a" x1="15.74" y1="134.35" x2="17.14" y2="134.35"/><line class="a" x1="15.74" y1="136.27" x2="18" y2="136.27"/><polyline class="a" points="19.06 136.27 19.06 132.62 20.59 132.62 21.12 132.82 21.31 132.96 21.46 133.3 21.46 133.68 21.31 134.02 21.12 134.21 20.59 134.35 19.06 134.35"/><line class="a" x1="20.26" y1="134.35" x2="21.46" y2="136.27"/><line class="a" x1="23.38" y1="132.62" x2="23.38" y2="136.27"/><line class="a" x1="22.18" y1="132.62" x2="24.58" y2="132.62"/><line class="a" x1="25.45" y1="132.62" x2="25.45" y2="136.27"/><path class="a" d="M29.29,133.49l-.19-.33-.33-.34a1.27,1.27,0,0,0-1.92.67l-.15.53v.87l.15.53.19.33.33.34.39.19h.67l.34-.19.33-.34.19-.33"/><line class="a" x1="30.49" y1="132.62" x2="30.49" y2="136.27"/><path class="a" d="M13.15,185.12l-.39.19-.33.33c-.65.8-.46,2.89.72,3.12h.67l.33-.15a2.18,2.18,0,0,0,0-3.31l-.33-.19Z"/><line class="a" x1="13.63" y1="188.1" x2="14.69" y2="189.11"/><polyline class="a" points="16.08 185.12 16.08 187.72 16.27 188.25 16.61 188.63 17.14 188.77 17.47 188.77 18 188.63 18.34 188.25 18.53 187.72 18.53 185.12"/><path class="a" d="M20.79,185.12l-.33.19-.39.33c-.61,1-.49,2.69.72,3.12h.67l.33-.15a2.2,2.2,0,0,0,0-3.31l-.33-.19Z"/><line class="a" x1="24.44" y1="185.12" x2="24.44" y2="188.77"/><line class="a" x1="23.19" y1="185.12" x2="25.64" y2="185.12"/><polyline class="a" points="25.97 188.77 27.37 185.12 28.76 188.77"/><line class="a" x1="26.5" y1="187.57" x2="28.23" y2="187.57"/><line class="a" x1="34" y1="185.12" x2="34" y2="188.77"/><line class="a" x1="32.75" y1="185.12" x2="35.2" y2="185.12"/><polyline class="a" points="36.06 188.77 36.06 185.12 38.32 185.12"/><line class="a" x1="36.06" y1="186.85" x2="37.45" y2="186.85"/><line class="a" x1="36.06" y1="188.77" x2="38.32" y2="188.77"/><polyline class="a" points="39.38 188.77 39.38 185.12 40.96 185.12 41.44 185.31 41.63 185.46 41.82 185.84 41.82 186.18 41.63 186.51 41.44 186.71 40.96 186.85 39.38 186.85"/><line class="a" x1="40.58" y1="186.85" x2="41.82" y2="188.77"/><polyline class="a" points="43.02 188.77 43.02 185.12 44.61 185.12 45.09 185.31 45.28 185.46 45.48 185.84 45.48 186.18 45.28 186.51 45.09 186.71 44.61 186.85 43.02 186.85"/><line class="a" x1="44.23" y1="186.85" x2="45.47" y2="188.77"/><polyline class="a" points="46.67 188.77 46.67 185.12 48.93 185.12"/><line class="a" x1="46.68" y1="186.85" x2="48.07" y2="186.85"/><line class="a" x1="46.68" y1="188.77" x2="48.93" y2="188.77"/><polyline class="a" points="49.99 188.77 49.99 185.12 52.39 188.77 52.39 185.12"/><path class="a" d="M54.65,185.12l-.33.19-.34.33c-.64.81-.46,2.8.67,3.12h.72l.33-.15a2.18,2.18,0,0,0,0-3.31l-.33-.19Z"/><path class="a" d="M13.29,191.22l-.33.33a3.75,3.75,0,0,0,0,4.85l.33.39"/><line class="a" x1="14.49" y1="193.14" x2="14.49" y2="195.55"/><polyline class="a" points="14.49 193.81 15.02 193.29 15.41 193.14 15.89 193.14 16.27 193.29 16.42 193.81 16.42 195.54"/><polyline class="a" points="16.42 193.81 16.94 193.29 17.28 193.14 17.81 193.14 18.14 193.29 18.34 193.81 18.34 195.54"/><polyline class="a" points="25.11 193.67 24.96 193.28 24.44 193.14 23.91 193.14 23.38 193.28 23.19 193.67 23.38 194.01 23.71 194.15 24.58 194.34 24.96 194.54 25.11 194.87 25.11 195.01 24.96 195.4 24.44 195.55 23.91 195.55 23.38 195.4 23.19 195.01"/><polygon class="a" points="26.5 195.21 26.36 195.4 26.5 195.54 26.7 195.4 26.5 195.21"/><line class="a" x1="28.09" y1="191.89" x2="28.09" y2="195.54"/><polygon class="a" points="29.62 195.21 29.48 195.4 29.62 195.54 29.82 195.4 29.62 195.21"/><line class="a" x1="31.21" y1="193.14" x2="31.21" y2="195.55"/><polyline class="a" points="31.21 193.81 31.74 193.29 32.08 193.14 32.6 193.14 32.94 193.29 33.13 193.81 33.13 195.54"/><polyline class="a" points="33.13 193.81 33.66 193.29 34 193.14 34.52 193.14 34.86 193.29 35.05 193.81 35.05 195.54"/><polygon class="a" points="36.59 195.21 36.4 195.4 36.59 195.54 36.78 195.4 36.59 195.21"/><path class="a" d="M38,191.22l.33.33a3.76,3.76,0,0,1,0,4.85l-.33.39"/><polyline class="b" points="156.09 36.7 158.97 37.09 159.21 36.61"/><line class="b" x1="191.1" y1="34.11" x2="197.4" y2="36.71"/><line class="c" x1="313.34" y1="45.16" x2="336.73" y2="45.64"/><line class="a" x1="324.15" y1="25.85" x2="324.15" y2="125.13"/><line class="a" x1="336.73" y1="45.64" x2="336.73" y2="125.13"/><line class="a" x1="316.46" y1="25.85" x2="316.46" y2="125.13"/><polyline class="a" points="166.99 131.85 164.74 131.85 164.54 133.87 164.74 133.68 165.41 133.44 166.08 133.44 166.75 133.68 167.23 134.11 167.43 134.78 167.43 135.22 167.23 135.89 166.75 136.37 166.08 136.56 165.41 136.56 164.74 136.37 164.54 136.13 164.3 135.7"/><polyline class="a" points="211.85 132.53 211.61 132.09 210.94 131.85 210.51 131.85 209.84 132.09 209.4 132.77 209.16 133.87 209.16 135.02 209.4 135.89 209.84 136.37 210.51 136.56 210.75 136.56 211.42 136.37 211.85 135.89 212.09 135.22 212.09 135.02 211.85 134.35 211.42 133.87 210.75 133.68 210.51 133.68 209.84 133.87 209.4 134.35 209.16 135.02"/><polyline class="a" points="262.91 136.56 265.17 131.85 262 131.85"/><polygon class="a" points="307.92 131.85 307.24 132.09 307 132.53 307 133.01 307.24 133.44 307.68 133.68 308.59 133.87 309.26 134.11 309.69 134.54 309.88 135.03 309.88 135.7 309.69 136.13 309.45 136.37 308.78 136.56 307.92 136.56 307.24 136.37 307 136.13 306.76 135.7 306.76 135.03 307 134.54 307.44 134.11 308.11 133.87 309.02 133.68 309.45 133.44 309.69 133.01 309.69 132.53 309.45 132.09 308.78 131.85 307.92 131.85"/><polyline class="a" points="317.91 133.44 317.67 134.11 317.23 134.55 316.56 134.78 316.32 134.78 315.65 134.55 315.22 134.11 314.98 133.44 314.98 133.2 315.22 132.53 315.65 132.1 316.32 131.86 316.56 131.86 317.23 132.1 317.67 132.53 317.91 133.44 317.91 134.55 317.67 135.7 317.23 136.37 316.56 136.56 316.13 136.56 315.46 136.37 315.22 135.89"/><polyline class="a" points="320.64 132.77 321.08 132.53 321.75 131.85 321.75 136.56"/><polygon class="a" points="325.78 131.85 325.11 132.09 324.68 132.77 324.44 133.87 324.44 134.54 324.68 135.7 325.11 136.37 325.78 136.56 326.22 136.56 326.89 136.37 327.37 135.7 327.56 134.54 327.56 133.87 327.37 132.77 326.89 132.09 326.22 131.85 325.78 131.85"/><polyline class="a" points="333.9 132.77 334.33 132.53 335.01 131.85 335.01 136.56"/><polyline class="a" points="338.37 132.77 338.85 132.53 339.52 131.85 339.52 136.56"/><line class="a" x1="165.89" y1="143.29" x2="165.89" y2="157.84"/><line class="a" x1="210.6" y1="143.29" x2="210.6" y2="157.84"/><line class="a" x1="263.58" y1="143.29" x2="263.58" y2="157.84"/><line class="a" x1="308.4" y1="143.29" x2="308.4" y2="157.84"/><line class="a" x1="316.46" y1="143.29" x2="316.46" y2="157.84"/><line class="a" x1="324.15" y1="143.29" x2="324.15" y2="157.84"/><line class="a" x1="336.73" y1="143.29" x2="336.73" y2="157.84"/><polyline class="a" points="151.29 148.33 153.16 148.33 152.15 149.72 152.68 149.72 153.01 149.91 153.16 150.06 153.35 150.59 153.35 150.93 153.16 151.45 152.82 151.79 152.29 151.98 151.81 151.98 151.29 151.79 151.09 151.65 150.95 151.26"/><path class="a" d="M236,148.33h-1.73l-.19,1.58.19-.19c3-1.2,2.54,3.61-.19,1.92l-.14-.39"/><polygon class="a" points="237.74 151.64 237.55 151.79 237.74 151.98 237.89 151.79 237.74 151.64"/><polygon class="a" points="240 148.33 239.47 148.52 239.28 148.86 239.28 149.2 239.47 149.53 239.81 149.72 240.48 149.91 241.01 150.06 241.34 150.39 241.53 150.78 241.53 151.26 241.34 151.65 241.2 151.79 240.67 151.98 240 151.98 239.47 151.79 239.28 151.65 239.14 151.26 239.14 150.78 239.28 150.39 239.61 150.06 240.15 149.91 240.87 149.72 241.2 149.53 241.34 149.2 241.34 148.86 241.2 148.52 240.67 148.33 240 148.33"/><polyline class="a" points="186.64 148.33 184.91 150.78 187.5 150.78"/><line class="a" x1="186.64" y1="148.33" x2="186.64" y2="151.98"/><polygon class="a" points="188.7 151.64 188.51 151.79 188.7 151.98 188.9 151.79 188.7 151.64"/><polyline class="a" points="192.35 149.53 192.16 150.06 191.82 150.4 191.3 150.59 191.1 150.59 190.62 150.4 190.24 150.06 190.1 149.53 190.1 149.38 190.24 148.86 190.62 148.52 191.1 148.33 191.3 148.33 191.82 148.52 192.16 148.86 192.35 149.53 192.35 150.4 192.16 151.26 191.82 151.79 191.3 151.98 190.96 151.98 190.43 151.79 190.24 151.45"/><polyline class="a" points="284.48 148.33 282.75 150.78 285.34 150.78"/><line class="a" x1="284.48" y1="148.33" x2="284.48" y2="151.98"/><polygon class="a" points="286.59 151.64 286.4 151.79 286.59 151.98 286.74 151.79 286.59 151.64"/><polyline class="a" points="290.19 149.53 290.05 150.06 289.66 150.4 289.18 150.59 288.99 150.59 288.46 150.4 288.13 150.06 287.94 149.53 287.94 149.38 288.13 148.86 288.46 148.52 288.99 148.33 289.18 148.33 289.66 148.52 290.05 148.86 290.19 149.53 290.19 150.4 290.05 151.26 289.66 151.79 289.18 151.98 288.8 151.98 288.32 151.79 288.13 151.45"/><polygon class="a" points="310.75 153.42 310.89 153.95 311.42 154.29 312.29 154.48 312.81 154.48 313.68 154.29 314.21 153.95 314.35 153.42 314.35 153.09 314.21 152.55 313.68 152.22 312.81 152.03 312.29 152.03 311.42 152.22 310.89 152.55 310.75 153.09 310.75 153.42"/><polygon class="a" points="314.01 150.68 314.21 150.83 314.35 150.68 314.21 150.49 314.01 150.68"/><polyline class="a" points="311.95 147.03 312.48 147.22 312.82 147.56 312.96 148.09 312.96 148.23 312.82 148.76 312.48 149.1 311.95 149.29 311.76 149.29 311.23 149.1 310.89 148.76 310.75 148.23 310.75 148.09 310.89 147.56 311.23 147.22 311.95 147.03 312.82 147.03 313.68 147.22 314.21 147.56 314.35 148.09 314.35 148.43 314.21 148.95 313.82 149.1"/><polygon class="a" points="318.24 153.52 318.39 154.04 318.92 154.38 319.78 154.53 320.31 154.53 321.17 154.38 321.7 154.04 321.85 153.52 321.85 153.18 321.7 152.65 321.17 152.31 320.31 152.12 319.78 152.12 318.92 152.31 318.39 152.65 318.24 153.18 318.24 153.52"/><polygon class="a" points="321.51 150.73 321.7 150.92 321.84 150.73 321.7 150.59 321.51 150.73"/><polygon class="a" points="318.24 148.47 318.39 149 318.72 149.19 319.11 149.19 319.44 149 319.58 148.67 319.78 147.99 319.97 147.47 320.31 147.13 320.64 146.94 321.17 146.94 321.51 147.13 321.7 147.27 321.85 147.8 321.85 148.47 321.7 149 321.51 149.19 321.17 149.34 320.64 149.34 320.31 149.19 319.97 148.86 319.78 148.33 319.58 147.61 319.44 147.27 319.11 147.13 318.72 147.13 318.39 147.27 318.24 147.8 318.24 148.47"/><polyline class="a" points="326.55 149.05 326.94 148.86 327.42 148.33 327.42 151.98"/><polygon class="a" points="329.87 151.64 329.67 151.79 329.87 151.98 330.01 151.79 329.87 151.64"/><polyline class="a" points="332.99 148.33 331.26 150.78 333.85 150.78"/><line class="a" x1="332.99" y1="148.33" x2="332.99" y2="151.98"/><polyline class="a" points="344.42 149.19 344.42 149.05 344.56 148.67 344.75 148.52 345.09 148.33 345.76 148.33 346.15 148.52 346.29 148.67 346.48 149.05 346.48 149.39 346.29 149.72 345.95 150.25 344.23 151.98 346.63 151.98"/><polygon class="a" points="348.02 151.64 347.88 151.79 348.02 151.98 348.21 151.79 348.02 151.64"/><polyline class="a" points="351.67 148.86 351.48 148.52 350.95 148.33 350.62 148.33 350.09 148.52 349.75 149.05 349.61 149.91 349.61 150.78 349.75 151.45 350.09 151.79 350.62 151.98 350.81 151.98 351.34 151.79 351.67 151.45 351.82 150.92 351.82 150.78 351.67 150.25 351.34 149.91 350.81 149.72 350.62 149.72 350.09 149.91 349.75 150.25 349.61 150.78"/><polyline class="a" points="164.3 173.98 164.06 173.64 163.39 173.11 168.39 173.11"/><polygon class="a" points="163.39 170.13 163.63 170.66 164.3 170.95 165.5 171.14 166.22 171.14 167.42 170.95 168.14 170.66 168.38 170.13 168.38 169.8 168.14 169.32 167.42 168.98 166.22 168.79 165.5 168.79 164.3 168.98 163.63 169.32 163.39 169.8 163.39 170.13"/><polygon class="a" points="167.91 167.49 168.15 167.64 168.38 167.49 168.15 167.3 167.91 167.49"/><path class="a" d="M163.39,164.13v1.68l2.11.19-.24-.19c-1.64-3,5.05-2.4,2.64.19l-.48.14"/><polyline class="a" points="209.07 174.07 208.83 173.74 208.11 173.21 213.1 173.21"/><polyline class="a" points="208.11 169.22 208.11 170.9 210.27 171.05 210.03 170.9 209.79 170.38 209.79 169.9 210.03 169.42 210.51 169.08 211.23 168.89 211.71 168.89 212.43 169.08 212.86 169.42 213.1 169.9 213.1 170.38 212.86 170.9 212.67 171.05 212.19 171.24"/><polygon class="a" points="212.67 167.54 212.86 167.74 213.1 167.54 212.86 167.4 212.67 167.54"/><polyline class="a" points="208.11 164.56 211.47 166.25 211.47 163.75"/><line class="a" x1="208.11" y1="164.56" x2="213.1" y2="164.56"/><polyline class="a" points="262.29 174.07 262.05 174.07 261.56 173.88 261.32 173.74 261.08 173.4 261.08 172.73 261.32 172.39 261.56 172.2 262.05 172.06 262.53 172.06 263.01 172.2 263.73 172.54 266.08 174.22 266.08 171.87"/><polyline class="a" points="262.05 170.38 261.81 170.04 261.08 169.56 266.08 169.56"/><polygon class="a" points="265.6 167.21 265.84 167.4 266.08 167.21 265.84 167.06 265.6 167.21"/><polyline class="a" points="262.29 165.72 262.05 165.72 261.56 165.57 261.32 165.38 261.08 165.04 261.08 164.42 261.32 164.08 261.56 163.89 262.05 163.75 262.53 163.75 263.01 163.89 263.73 164.23 266.08 165.91 266.08 163.55"/><polyline class="a" points="307.1 174.07 306.86 174.07 306.38 173.88 306.14 173.74 305.9 173.4 305.9 172.73 306.14 172.39 306.38 172.2 306.86 172.06 307.34 172.06 307.82 172.2 308.49 172.54 310.89 174.22 310.89 171.87"/><polyline class="a" points="306.62 168.74 306.14 168.89 305.9 169.42 305.9 169.7 306.14 170.23 306.86 170.57 308.01 170.71 309.21 170.71 310.17 170.57 310.65 170.23 310.89 169.7 310.89 169.56 310.65 169.08 310.17 168.74 309.45 168.55 309.21 168.55 308.49 168.74 308.01 169.08 307.82 169.56 307.82 169.7 308.01 170.23 308.49 170.57 309.21 170.71"/><polygon class="a" points="310.41 167.21 310.65 167.4 310.89 167.21 310.65 167.06 310.41 167.21"/><polyline class="a" points="307.1 165.72 306.86 165.72 306.38 165.57 306.14 165.38 305.9 165.04 305.9 164.42 306.14 164.08 306.38 163.89 306.86 163.75 307.34 163.75 307.82 163.89 308.49 164.23 310.89 165.91 310.89 163.56"/><polyline class="a" points="315.22 171.58 314.98 171.58 314.5 171.38 314.25 171.24 314.01 170.9 314.01 170.23 314.25 169.9 314.5 169.7 314.98 169.56 315.41 169.56 315.89 169.7 316.61 170.04 319.01 171.72 319.01 169.41"/><polyline class="a" points="319.01 167.73 314.02 166.05 314.02 168.41"/><polyline class="a" points="322.85 173.98 322.61 173.98 322.13 173.78 321.89 173.64 321.65 173.3 321.65 172.63 321.89 172.3 322.13 172.15 322.61 171.96 323.09 171.96 323.57 172.15 324.29 172.49 326.65 174.12 326.65 171.82"/><polyline class="a" points="326.65 170.14 321.65 168.45 321.65 170.81"/><polygon class="a" points="326.17 167.16 326.41 167.3 326.65 167.16 326.41 166.96 326.17 167.16"/><polyline class="a" points="323.33 163.65 324.05 163.8 324.54 164.13 324.77 164.66 324.77 164.81 324.54 165.33 324.05 165.67 323.33 165.81 323.09 165.81 322.37 165.67 321.89 165.33 321.65 164.81 321.65 164.66 321.89 164.13 322.37 163.8 323.33 163.65 324.54 163.65 325.69 163.8 326.41 164.13 326.65 164.66 326.65 164.99 326.41 165.47 325.93 165.67"/><polyline class="a" points="335.44 174.07 335.2 174.07 334.72 173.88 334.48 173.74 334.24 173.4 334.24 172.73 334.48 172.39 334.72 172.2 335.2 172.06 335.68 172.06 336.16 172.2 336.88 172.54 339.23 174.22 339.23 171.87"/><polyline class="a" points="335.92 168.74 336.64 168.89 337.12 169.22 337.36 169.7 337.36 169.9 337.12 170.38 336.64 170.71 335.92 170.91 335.68 170.91 334.96 170.71 334.48 170.38 334.24 169.9 334.24 169.7 334.48 169.22 334.96 168.89 335.92 168.74 337.12 168.74 338.32 168.89 338.99 169.22 339.23 169.7 339.23 170.04 338.99 170.57 338.51 170.71"/><polygon class="a" points="338.75 167.21 338.99 167.4 339.23 167.21 338.99 167.06 338.75 167.21"/><polyline class="a" points="334.24 165.57 334.24 163.75 336.16 164.76 336.16 164.23 336.4 163.89 336.64 163.75 337.36 163.56 337.84 163.56 338.51 163.75 338.99 164.08 339.23 164.56 339.23 165.04 338.99 165.57 338.75 165.72 338.32 165.91"/><polyline class="a" points="164.3 198.62 164.06 198.28 163.39 197.8 168.39 197.8"/><polygon class="a" points="163.39 194.97 163.63 195.45 164.06 195.64 164.54 195.64 165.02 195.45 165.26 195.11 165.5 194.44 165.75 193.96 166.22 193.62 166.7 193.48 167.42 193.48 167.9 193.62 168.14 193.81 168.38 194.29 168.38 194.97 168.14 195.45 167.9 195.64 167.42 195.78 166.7 195.78 166.22 195.64 165.75 195.3 165.5 194.77 165.26 194.15 165.02 193.81 164.54 193.62 164.06 193.62 163.63 193.81 163.39 194.29 163.39 194.97"/><polyline class="a" points="165.02 190.31 165.74 190.45 166.22 190.79 166.46 191.32 166.46 191.46 166.22 191.94 165.74 192.28 165.02 192.47 164.78 192.47 164.06 192.28 163.63 191.94 163.39 191.46 163.39 191.32 163.63 190.79 164.06 190.45 165.02 190.31 166.22 190.31 167.43 190.45 168.15 190.79 168.39 191.32 168.39 191.65 168.15 192.13 167.66 192.28"/><polygon class="a" points="167.9 188.82 168.14 188.97 168.38 188.82 168.14 188.63 167.9 188.82"/><polyline class="a" points="168.38 186.8 163.39 185.12 163.39 187.48"/><polyline class="a" points="164.3 183.63 164.06 183.3 163.39 182.82 168.39 182.82"/><polyline class="a" points="209.07 199.1 208.83 198.81 208.11 198.28 213.1 198.28"/><polygon class="a" points="208.11 195.45 208.35 195.98 208.83 196.12 209.31 196.12 209.79 195.98 210.03 195.64 210.27 194.97 210.51 194.44 210.99 194.15 211.47 193.96 212.19 193.96 212.67 194.15 212.86 194.29 213.1 194.77 213.1 195.45 212.86 195.98 212.67 196.12 212.19 196.31 211.47 196.31 210.99 196.12 210.51 195.78 210.27 195.3 210.03 194.63 209.79 194.29 209.31 194.15 208.83 194.15 208.35 194.29 208.11 194.77 208.11 195.45"/><polyline class="a" points="209.79 190.79 210.51 190.98 210.99 191.32 211.23 191.8 211.23 191.94 210.99 192.47 210.51 192.81 209.79 192.95 209.55 192.95 208.83 192.81 208.35 192.47 208.11 191.94 208.11 191.8 208.35 191.32 208.83 190.98 209.79 190.79 210.99 190.79 212.19 190.98 212.86 191.32 213.1 191.8 213.1 192.13 212.86 192.61 212.43 192.81"/><polygon class="a" points="212.67 189.3 212.86 189.49 213.1 189.3 212.86 189.15 212.67 189.3"/><polyline class="a" points="213.1 187.28 208.11 185.65 208.11 187.96"/><polyline class="a" points="208.83 182.48 208.35 182.63 208.11 183.15 208.11 183.49 208.35 183.97 209.07 184.3 210.27 184.5 211.47 184.5 212.43 184.3 212.86 183.97 213.1 183.49 213.1 183.29 212.86 182.81 212.43 182.48 211.71 182.33 211.47 182.33 210.75 182.48 210.27 182.81 210.03 183.29 210.03 183.49 210.27 183.97 210.75 184.3 211.47 184.5"/><polyline class="a" points="262.05 198.62 261.81 198.28 261.08 197.8 266.08 197.8"/><polygon class="a" points="261.08 194.97 261.32 195.45 261.81 195.64 262.29 195.64 262.77 195.45 263.01 195.11 263.25 194.44 263.49 193.96 263.92 193.62 264.4 193.48 265.12 193.48 265.6 193.62 265.84 193.81 266.08 194.29 266.08 194.97 265.84 195.45 265.6 195.64 265.12 195.78 264.4 195.78 263.92 195.64 263.49 195.3 263.25 194.77 263.01 194.15 262.77 193.81 262.29 193.62 261.81 193.62 261.32 193.81 261.08 194.29 261.08 194.97"/><polyline class="a" points="262.77 190.31 263.49 190.45 263.92 190.79 264.16 191.32 264.16 191.46 263.92 191.94 263.49 192.28 262.77 192.47 262.53 192.47 261.81 192.28 261.32 191.94 261.08 191.46 261.08 191.32 261.32 190.79 261.81 190.45 262.77 190.31 263.92 190.31 265.12 190.45 265.84 190.79 266.08 191.32 266.08 191.65 265.84 192.13 265.36 192.28"/><polygon class="a" points="265.6 188.82 265.84 188.97 266.08 188.82 265.84 188.63 265.6 188.82"/><path class="a" d="M261.08,186.66l.24.48.48.15h.48l.48-.15.24-.33.24-.67.24-.48.43-.33.48-.19h.72l.48.19.24.14.24.53v.67l-.24.48c-3.59,1.64-1.68-2.81-4.51-1.68l-.24.53Z"/><polyline class="a" points="262.05 183.63 261.81 183.3 261.08 182.82 266.08 182.82"/><polyline class="a" points="306.86 199.1 306.62 198.81 305.9 198.28 310.89 198.28"/><path class="a" d="M305.9,195.45l.24.53.48.15h.43l.48-.15.24-.33L308,195l.24-.53.48-.29.48-.19h.72l.48.19.24.14.24.48v.67l-.24.53c-3.52,1.65-1.82-2.8-4.51-1.68l-.24.48Z"/><polyline class="a" points="307.53 190.79 308.25 190.98 308.73 191.32 308.97 191.8 308.97 191.94 308.73 192.47 308.25 192.81 307.53 192.95 307.29 192.95 306.62 192.81 306.14 192.47 305.9 191.94 305.9 191.8 306.14 191.32 306.62 190.98 307.53 190.79 308.73 190.79 309.93 190.98 310.65 191.32 310.89 191.8 310.89 192.13 310.65 192.61 310.17 192.81"/><polygon class="a" points="310.41 189.3 310.65 189.49 310.89 189.3 310.65 189.15 310.41 189.3"/><polygon class="a" points="305.9 187.14 306.14 187.62 306.62 187.81 307.05 187.81 307.53 187.62 307.77 187.28 308.01 186.66 308.25 186.13 308.73 185.79 309.21 185.65 309.93 185.65 310.41 185.79 310.65 185.98 310.89 186.47 310.89 187.14 310.65 187.62 310.41 187.81 309.93 187.95 309.21 187.95 308.73 187.81 308.25 187.47 308.01 186.99 307.77 186.32 307.53 185.98 307.05 185.79 306.62 185.79 306.14 185.98 305.9 186.47 305.9 187.14"/><polyline class="a" points="306.62 182.48 306.14 182.63 305.9 183.15 305.9 183.49 306.14 183.97 306.86 184.3 308.01 184.5 309.21 184.5 310.17 184.3 310.65 183.97 310.89 183.49 310.89 183.29 310.65 182.81 310.17 182.48 309.45 182.33 309.21 182.33 308.49 182.48 308.01 182.81 307.77 183.29 307.77 183.49 308.01 183.97 308.49 184.3 309.21 184.5"/><polyline class="a" points="314.93 199.19 314.69 198.86 314.01 198.38 319.01 198.38"/><polyline class="a" points="315.65 194.2 316.37 194.39 316.85 194.73 317.09 195.21 317.09 195.35 316.85 195.88 316.37 196.22 315.65 196.36 315.41 196.36 314.69 196.22 314.25 195.88 314.01 195.35 314.01 195.21 314.25 194.73 314.69 194.39 315.65 194.2 316.85 194.2 318.05 194.39 318.77 194.73 319.01 195.21 319.01 195.54 318.77 196.02 318.29 196.22"/><polygon class="a" points="314.01 192.04 314.25 192.56 314.93 192.9 316.13 193.05 316.85 193.05 318.05 192.9 318.77 192.56 319.01 192.04 319.01 191.7 318.77 191.22 318.05 190.88 316.85 190.69 316.13 190.69 314.93 190.88 314.25 191.22 314.01 191.7 314.01 192.04"/><polygon class="a" points="318.53 189.4 318.77 189.54 319.01 189.4 318.77 189.2 318.53 189.4"/><polyline class="a" points="315.65 185.89 316.37 186.03 316.85 186.37 317.09 186.9 317.09 187.04 316.85 187.57 316.37 187.91 315.65 188.05 315.41 188.05 314.69 187.91 314.25 187.57 314.01 187.04 314.01 186.9 314.25 186.37 314.69 186.03 315.65 185.89 316.85 185.89 318.05 186.03 318.77 186.37 319.01 186.9 319.01 187.23 318.77 187.71 318.29 187.91"/><polyline class="a" points="314.01 183.06 317.33 184.74 317.33 182.24"/><line class="a" x1="314.02" y1="183.06" x2="319.01" y2="183.06"/><polyline class="a" points="322.61 199.05 322.37 198.72 321.65 198.18 326.65 198.18"/><polyline class="a" points="323.33 194.06 324.01 194.2 324.49 194.53 324.73 195.02 324.73 195.21 324.49 195.69 324.01 196.02 323.33 196.22 323.09 196.22 322.37 196.02 321.89 195.69 321.65 195.21 321.65 195.02 321.89 194.53 322.37 194.2 323.33 194.06 324.49 194.06 325.69 194.2 326.41 194.53 326.65 195.02 326.65 195.35 326.41 195.88 325.93 196.02"/><polygon class="a" points="321.65 191.89 321.89 192.37 322.61 192.71 323.81 192.85 324.49 192.85 325.69 192.71 326.41 192.37 326.65 191.89 326.65 191.56 326.41 191.03 325.69 190.69 324.49 190.55 323.81 190.55 322.61 190.69 321.89 191.03 321.65 191.56 321.65 191.89"/><polygon class="a" points="326.17 189.2 326.41 189.4 326.65 189.2 326.41 189.06 326.17 189.2"/><polyline class="a" points="323.33 185.7 324.01 185.89 324.49 186.22 324.73 186.71 324.73 186.9 324.49 187.38 324.01 187.71 323.33 187.91 323.09 187.91 322.37 187.71 321.89 187.38 321.65 186.9 321.65 186.71 321.89 186.22 322.37 185.89 323.33 185.7 324.49 185.7 325.69 185.89 326.41 186.22 326.65 186.71 326.65 187.04 326.41 187.57 325.93 187.71"/><polyline class="a" points="321.65 182.91 324.96 184.55 324.96 182.04"/><line class="a" x1="321.65" y1="182.91" x2="326.65" y2="182.91"/><polyline class="a" points="335.2 199.1 334.96 198.81 334.24 198.28 339.23 198.28"/><path class="a" d="M334.24,195.45l.24.53.48.15h.48l.48-.15.24-.33.24-.67.24-.53.48-.29.43-.19h.72l.48.19.24.14.24.48v.67L339,196c-3.45,1.65-1.77-2.82-4.51-1.68l-.24.48Z"/><polygon class="a" points="334.24 192.13 334.48 192.61 334.96 192.81 335.44 192.81 335.92 192.61 336.16 192.28 336.4 191.65 336.64 191.13 337.12 190.79 337.55 190.65 338.27 190.65 338.75 190.79 338.99 190.98 339.23 191.46 339.23 192.13 338.99 192.61 338.75 192.81 338.27 192.95 337.55 192.95 337.12 192.81 336.64 192.47 336.4 191.94 336.16 191.32 335.92 190.98 335.44 190.79 334.96 190.79 334.48 190.98 334.24 191.46 334.24 192.13"/><polygon class="a" points="338.75 189.3 338.99 189.49 339.23 189.3 338.99 189.15 338.75 189.3"/><polyline class="a" points="339.23 187.28 334.24 185.65 334.24 187.96"/><polyline class="a" points="334.96 182.48 334.48 182.63 334.24 183.15 334.24 183.49 334.48 183.97 335.2 184.3 336.4 184.5 337.55 184.5 338.51 184.3 338.99 183.97 339.23 183.49 339.23 183.29 338.99 182.81 338.51 182.48 337.79 182.33 337.55 182.33 336.88 182.48 336.4 182.81 336.16 183.29 336.16 183.49 336.4 183.97 336.88 184.3 337.55 184.5"/><path class="a" d="M179,8.85l-.24-.24-.39-.15c-.63-.1-1.7.32-.86,1l.24.14.77.24.24.15.15.09.09.29v.39l-.24.24-.39.14h-.48l-.39-.14-.29-.24"/><polyline class="a" points="181.64 9.09 181.55 8.85 181.25 8.61 181.01 8.46 180.49 8.46 180.25 8.61 180.01 8.85 179.87 9.09 179.72 9.47 179.72 10.1 179.87 10.48 180.01 10.77 180.25 11.01 180.49 11.15 181.01 11.15 181.25 11.01 181.55 10.77 181.64 10.48"/><polyline class="a" points="182.17 11.15 183.18 8.46 184.19 11.15"/><line class="a" x1="182.55" y1="10.24" x2="183.8" y2="10.24"/><polyline class="a" points="184.47 8.46 185.48 11.15 186.49 8.46"/><polygon class="a" points="187.79 8.46 187.5 8.61 187.26 8.85 187.12 9.09 187.02 9.47 187.02 10.1 187.12 10.48 187.26 10.77 187.5 11.01 187.79 11.15 188.27 11.15 188.56 11.01 188.8 10.77 188.94 10.48 189.04 10.1 189.04 9.47 188.94 9.09 188.8 8.85 188.56 8.61 188.27 8.46 187.79 8.46"/><line class="a" x1="189.95" y1="9.62" x2="192.25" y2="9.62"/><line class="a" x1="189.95" y1="10.38" x2="192.25" y2="10.38"/><polyline class="a" points="193.26 9.09 193.26 8.94 193.41 8.7 193.5 8.61 193.79 8.46 194.27 8.46 194.51 8.61 194.66 8.7 194.8 8.94 194.8 9.23 194.66 9.47 194.42 9.86 193.12 11.15 194.9 11.15"/><polygon class="a" points="195.95 10.86 195.81 11.01 195.95 11.15 196.05 11.01 195.95 10.86"/><polyline class="a" points="198.6 9.33 198.5 9.71 198.21 10 197.83 10.1 197.73 10.1 197.35 10 197.11 9.71 196.96 9.33 196.96 9.23 197.11 8.85 197.35 8.61 197.73 8.46 197.83 8.46 198.21 8.61 198.5 8.85 198.6 9.33 198.6 10 198.5 10.62 198.21 11.01 197.83 11.15 197.59 11.15 197.2 11.01 197.11 10.77"/><polyline class="a" points="200.81 8.46 199.51 10.24 201.43 10.24"/><line class="a" x1="200.81" y1="8.46" x2="200.81" y2="11.15"/><line class="a" x1="204.89" y1="9.33" x2="204.89" y2="11.15"/><polyline class="a" points="204.89 9.86 205.27 9.47 205.51 9.33 205.9 9.33 206.14 9.47 206.28 9.86 206.28 11.15"/><polyline class="a" points="206.28 9.86 206.67 9.47 206.91 9.33 207.29 9.33 207.53 9.47 207.68 9.86 207.68 11.15"/><line class="a" x1="210.08" y1="9.33" x2="210.08" y2="12.02"/><path class="a" d="M210.08,9.71l-.24-.24c-1.67-.85-1.67,2.39,0,1.54l.24-.24"/><polyline class="a" points="247.92 26.91 247.92 24.22 249.08 24.22 249.46 24.31 249.61 24.46 249.75 24.7 249.75 24.98 249.61 25.23 249.46 25.37 249.08 25.46 247.92 25.46"/><line class="a" x1="248.84" y1="25.47" x2="249.75" y2="26.91"/><line class="a" x1="250.61" y1="24.22" x2="250.61" y2="26.91"/><polyline class="a" points="251.62 26.91 251.62 24.22 252.78 24.22 253.16 24.31 253.3 24.46 253.45 24.7 253.45 25.08 253.3 25.37 253.16 25.46 252.78 25.61 251.62 25.61"/><path class="a" d="M254.94,24.22l-.24.09-.24.29a1.57,1.57,0,0,0,.48,2.3h.53l.24-.15a1.65,1.65,0,0,0,0-2.45l-.24-.09Z"/><polyline class="a" points="257.15 26.91 257.15 24.22 258.25 24.22 258.63 24.31 258.78 24.46 258.92 24.7 258.92 24.98 258.78 25.23 258.63 25.37 258.25 25.46 257.15 25.46"/><line class="a" x1="258.01" y1="25.47" x2="258.92" y2="26.91"/><line class="a" x1="260.32" y1="24.22" x2="260.32" y2="26.91"/><line class="a" x1="259.4" y1="24.22" x2="261.23" y2="24.22"/><path class="a" d="M262.48,24.22l-.24.09-.29.29a1.62,1.62,0,0,0,.53,2.3H263l.24-.15a1.65,1.65,0,0,0,0-2.45l-.24-.09Z"/><line class="a" x1="264.64" y1="25.37" x2="266.94" y2="25.37"/><line class="a" x1="264.64" y1="26.14" x2="266.94" y2="26.14"/><polyline class="a" points="268.24 24.7 268.48 24.6 268.87 24.22 268.87 26.91"/><polyline class="a" points="270.64 24.22 272.04 24.22 271.27 25.23 271.65 25.23 271.94 25.37 272.04 25.46 272.18 25.85 272.18 26.14 272.04 26.52 271.8 26.76 271.41 26.91 271.03 26.91 270.64 26.76 270.5 26.62 270.4 26.38"/><rect class="a" x="273.09" y="26.66" width="0.2" height="0.2" transform="translate(61.05 200.97) rotate(-44.99)"/><polygon class="a" points="274.97 24.22 274.58 24.31 274.34 24.7 274.2 25.37 274.2 25.75 274.34 26.38 274.58 26.76 274.97 26.91 275.25 26.91 275.64 26.76 275.88 26.38 276.02 25.75 276.02 25.37 275.88 24.7 275.64 24.31 275.25 24.22 274.97 24.22"/><polyline class="a" points="278.42 24.6 278.28 24.31 277.9 24.21 277.66 24.21 277.27 24.31 277.03 24.7 276.89 25.37 276.89 26 277.03 26.52 277.27 26.76 277.66 26.91 277.8 26.91 278.18 26.76 278.42 26.52 278.57 26.14 278.57 26 278.42 25.61 278.18 25.37 277.8 25.23 277.66 25.23 277.27 25.37 277.03 25.61 276.89 26"/><line class="a" x1="282.12" y1="25.08" x2="282.12" y2="26.9"/><polyline class="a" points="282.12 25.61 282.51 25.22 282.75 25.08 283.13 25.08 283.42 25.22 283.52 25.61 283.52 26.91"/><polyline class="a" points="283.51 25.61 283.9 25.22 284.19 25.08 284.52 25.08 284.81 25.22 284.91 25.61 284.91 26.91"/><line class="a" x1="287.36" y1="25.08" x2="287.36" y2="27.77"/><path class="a" d="M287.36,25.47l-.24-.24c-1.71-.85-1.71,2.39,0,1.54l.24-.24"/><polyline class="b" points="212.04 11.92 174.87 11.92 173.81 27.48"/><polyline class="c" points="246.29 27.58 288.9 27.77 289.09 35.84"/><line class="a" x1="131.3" y1="28.64" x2="138.65" y2="37.28"/><line class="a" x1="308.4" y1="125.13" x2="308.4" y2="125.08"/><polyline class="a" points="138.65 125.13 165.89 125.13 165.89 37.04"/><polyline class="a" points="210.6 36.61 210.6 125.13 263.58 125.13 263.63 36.08"/><line class="a" x1="308.4" y1="125.13" x2="308.4" y2="35.65"/><polyline class="a" points="202.39 32.77 202.39 30.08 203.54 30.08 203.93 30.22 204.07 30.36 204.17 30.6 204.17 30.99 204.07 31.23 203.93 31.37 203.54 31.52 202.39 31.52"/><polyline class="a" points="205.08 32.77 205.08 30.08 206.72 30.08"/><line class="a" x1="205.08" y1="31.37" x2="206.09" y2="31.37"/><line class="a" x1="205.08" y1="32.77" x2="206.71" y2="32.77"/><polyline class="a" points="207.48 32.77 207.48 30.08 209.31 32.77 209.31 30.08"/><polygon class="a" points="210.32 32.77 210.32 30.08 211.18 30.08 211.56 30.22 211.85 30.46 211.95 30.75 212.09 31.13 212.09 31.76 211.95 32.14 211.85 32.38 211.56 32.67 211.18 32.77 210.32 32.77"/><polyline class="a" points="213.01 32.77 213.01 30.08 214.64 30.08"/><line class="a" x1="213.01" y1="31.37" x2="214.01" y2="31.37"/><line class="a" x1="213.01" y1="32.77" x2="214.64" y2="32.77"/><polyline class="a" points="215.41 32.77 215.41 30.08 217.18 32.77 217.18 30.08"/><polyline class="a" points="218.1 32.77 219.87 30.08 218.1 30.08"/><line class="a" x1="218.1" y1="32.77" x2="219.87" y2="32.77"/><polyline class="a" points="220.4 32.77 221.41 30.08 222.42 32.77"/><line class="a" x1="220.79" y1="31.9" x2="222.04" y2="31.9"/><line class="a" x1="223.04" y1="31.23" x2="225.35" y2="31.23"/><line class="a" x1="223.04" y1="32" x2="225.35" y2="32"/><polyline class="a" points="226.65 30.61 226.89 30.46 227.27 30.08 227.27 32.77"/><line class="a" x1="231.11" y1="30.08" x2="228.81" y2="32.77"/><path class="a" d="M229.43,30.08l.24.29v.24l-.09.24-.29.15H229l-.24-.24v-.29l.15-.24c.62-.49.56.28,1.49.14l.39-.14.29-.15"/><polygon class="a" points="230.59 31.9 230.34 32 230.2 32.29 230.2 32.53 230.44 32.77 230.73 32.77 230.97 32.67 231.11 32.38 231.11 32.14 230.82 31.9 230.59 31.9"/><line class="a" x1="21.22" y1="119.56" x2="30.01" y2="119.56"/><polygon class="a" points="38.8 119.56 30.01 125.08 30.01 119.56 38.8 119.56"/><line class="a" x1="37.36" y1="120.47" x2="38.27" y2="119.56"/><line class="a" x1="30.49" y1="124.79" x2="35.67" y2="119.56"/><line class="a" x1="30.01" y1="122.68" x2="33.13" y2="119.56"/><line class="a" x1="30.01" y1="120.14" x2="30.53" y2="119.56"/><line class="a" x1="34.14" y1="122.49" x2="31.21" y2="119.56"/><line class="a" x1="32.55" y1="123.5" x2="30.01" y2="120.9"/><line class="a" x1="30.97" y1="124.46" x2="30.01" y2="123.5"/><line class="a" x1="35.72" y1="121.53" x2="33.8" y2="119.56"/><line class="a" x1="37.31" y1="120.52" x2="36.35" y2="119.56"/><line class="a" x1="21.22" y1="119.56" x2="30.01" y2="125.08"/><path class="a" d="M12.76,111.78l-.43.19-.38.38c-.68,1.08-.6,3.12.82,3.56h.77l.39-.19.43-.39.19-.38.19-.63v-1l-.19-.57-.19-.43-.43-.38-.39-.19Z"/><line class="a" x1="13.34" y1="115.14" x2="14.54" y2="116.34"/><line class="a" x1="16.13" y1="113.17" x2="16.13" y2="115.91"/><polyline class="a" points="16.13 114.32 16.32 113.75 16.7 113.36 17.09 113.17 17.66 113.17"/><rect class="a" x="18.54" y="111.83" width="0.27" height="0.27" transform="translate(-73.69 45.98) rotate(-44.99)"/><line class="a" x1="18.67" y1="113.36" x2="18.67" y2="115.91"/><polyline class="a" points="21.46 111.78 21.02 111.78 20.64 111.97 20.45 112.55 20.45 115.91"/><line class="a" x1="19.87" y1="113.17" x2="21.22" y2="113.17"/><rect class="a" x="22.67" y="113.23" width="0.27" height="0.27" transform="translate(-73.48 49.32) rotate(-45)"/><rect class="a" x="22.67" y="115.58" width="0.27" height="0.27" transform="translate(-75.14 50.01) rotate(-45)"/><polyline class="a" points="29.14 112.55 29.53 112.35 30.15 111.78 30.15 115.91"/><polygon class="a" points="33.47 111.78 32.89 111.97 32.7 112.35 32.7 112.79 32.89 113.17 33.27 113.36 34.09 113.55 34.67 113.75 35.05 114.13 35.24 114.56 35.24 115.14 35.05 115.52 34.86 115.72 34.28 115.91 33.47 115.91 32.89 115.72 32.7 115.52 32.5 115.14 32.5 114.56 32.7 114.13 33.08 113.75 33.7 113.55 34.47 113.36 34.86 113.17 35.05 112.79 35.05 112.35 34.86 111.97 34.28 111.78 33.47 111.78"/><polygon class="a" points="37.64 111.78 37.07 111.97 36.63 112.55 36.44 113.55 36.44 114.13 36.63 115.14 37.07 115.72 37.64 115.91 38.03 115.91 38.6 115.72 39.04 115.14 39.23 114.13 39.23 113.55 39.04 112.55 38.6 111.97 38.03 111.78 37.64 111.78"/><line class="a" x1="44.75" y1="113.17" x2="44.75" y2="115.91"/><polyline class="a" points="44.75 113.94 45.33 113.36 45.71 113.17 46.34 113.17 46.72 113.36 46.91 113.94 46.91 115.91"/><polyline class="a" points="46.91 113.94 47.54 113.36 47.92 113.17 48.5 113.17 48.88 113.36 49.08 113.94 49.08 115.91"/><polyline class="a" points="56.81 113.75 56.62 113.36 55.99 113.17 55.41 113.17 54.84 113.36 54.65 113.75 54.84 114.13 55.23 114.32 56.18 114.56 56.62 114.76 56.81 115.14 56.81 115.33 56.62 115.72 55.99 115.91 55.41 115.91 54.84 115.72 54.65 115.33"/><rect class="a" x="58.26" y="115.58" width="0.27" height="0.27" transform="translate(-64.72 75.17) rotate(-45)"/><line class="a" x1="60.17" y1="111.78" x2="60.17" y2="115.91"/><rect class="a" x="61.81" y="115.58" width="0.27" height="0.27" transform="translate(-63.68 77.69) rotate(-45)"/><line class="a" x1="63.72" y1="113.17" x2="63.72" y2="115.91"/><polyline class="a" points="63.72 113.94 64.3 113.36 64.69 113.17 65.31 113.17 65.69 113.36 65.89 113.94 65.89 115.91"/><polyline class="a" points="65.89 113.94 66.46 113.36 66.89 113.17 67.47 113.17 67.86 113.36 68.05 113.94 68.05 115.91"/><rect class="a" x="69.69" y="115.58" width="0.27" height="0.27" transform="translate(-61.37 83.26) rotate(-45)"/><line class="d" x1="121.27" y1="28.64" x2="125.16" y2="24.74"/><line class="d" x1="125.16" y1="28.64" x2="121.27" y2="24.74"/><line class="d" x1="314.54" y1="27.77" x2="318.43" y2="23.93"/><line class="d" x1="318.43" y1="27.77" x2="314.54" y2="23.93"/><line class="e" x1="136.73" y1="39.2" x2="140.58" y2="35.36"/><line class="e" x1="140.58" y1="39.2" x2="136.73" y2="35.36"/><line class="e" x1="306.47" y1="37.57" x2="310.32" y2="33.73"/><line class="e" x1="310.32" y1="37.57" x2="306.47" y2="33.73"/></svg>