<svg xmlns="http://www.w3.org/2000/svg" viewBox="0 0 661.75 204.7"><defs><style>.a,.b,.c,.d,.e{fill:none;stroke-linecap:round;stroke-linejoin:round;stroke-width:0.82px;}.a{stroke:#000;}.b{stroke:red;}.c{stroke:#ffbf00;}.d{stroke:#00b800;}.e{stroke:#00bfff;}</style></defs><title>Tavola disegno 5</title><polyline class="a" points="68.79 128.94 69.22 128.69 69.89 128.02 69.89 132.73"/><line class="a" x1="69.32" y1="139.45" x2="69.32" y2="154.01"/><line class="a" x1="6.5" y1="121.3" x2="656.31" y2="121.3"/><line class="a" x1="69.32" y1="139.45" x2="656.31" y2="139.45"/><line class="a" x1="69.32" y1="154.01" x2="656.31" y2="154.01"/><line class="a" x1="69.32" y1="175.76" x2="656.31" y2="175.76"/><polyline class="a" points="69.32 197.57 656.31 197.57 656.31 121.3"/><line class="a" x1="82.96" y1="139.45" x2="82.96" y2="154.01"/><polyline class="a" points="72.06 145.22 72.39 145.02 72.92 144.5 72.92 148.15"/><polygon class="a" points="75.37 147.81 75.18 147.96 75.37 148.15 75.52 147.96 75.37 147.81"/><path class="a" d="M78.83,144.5H77.1l-.19,1.58.19-.19c3-1.22,2.52,3.63-.19,1.92l-.19-.39"/><polygon class="a" points="66.73 165.25 66.92 165.73 67.64 166.06 68.84 166.21 69.56 166.21 70.76 166.06 71.43 165.73 71.67 165.25 71.67 164.91 71.43 164.38 70.76 164.04 69.56 163.9 68.84 163.9 67.64 164.04 66.92 164.38 66.73 164.91 66.73 165.25"/><polyline class="a" points="67.64 195.27 67.4 194.98 66.72 194.45 71.67 194.45"/><polygon class="a" points="66.73 191.62 66.92 192.14 67.4 192.29 67.88 192.29 68.36 192.14 68.6 191.81 68.84 191.13 69.08 190.61 69.56 190.32 70.04 190.13 70.76 190.13 71.24 190.32 71.43 190.46 71.67 190.94 71.67 191.62 71.43 192.14 71.24 192.29 70.76 192.48 70.04 192.48 69.56 192.29 69.08 191.95 68.84 191.47 68.6 190.8 68.36 190.46 67.88 190.32 67.4 190.32 66.92 190.46 66.73 190.94 66.73 191.62"/><polyline class="a" points="68.36 186.96 69.08 187.15 69.56 187.48 69.8 187.96 69.8 188.11 69.56 188.64 69.08 188.97 68.36 189.12 68.12 189.12 67.4 188.97 66.92 188.64 66.72 188.11 66.72 187.96 66.92 187.48 67.4 187.15 68.36 186.96 69.56 186.96 70.76 187.15 71.44 187.48 71.67 187.96 71.67 188.3 71.44 188.78 71 188.97"/><polygon class="a" points="71.24 185.47 71.43 185.66 71.67 185.47 71.43 185.32 71.24 185.47"/><polyline class="a" points="66.73 182.49 70.04 184.12 70.04 181.62"/><line class="a" x1="66.73" y1="182.49" x2="71.67" y2="182.49"/><polygon class="a" points="66.73 179.99 66.92 180.47 67.4 180.66 67.88 180.66 68.36 180.47 68.6 180.14 68.84 179.46 69.08 178.98 69.56 178.65 70.04 178.5 70.76 178.5 71.24 178.65 71.43 178.79 71.67 179.32 71.67 179.99 71.43 180.47 71.24 180.66 70.76 180.81 70.04 180.81 69.56 180.66 69.08 180.33 68.84 179.8 68.6 179.13 68.36 178.79 67.88 178.65 67.4 178.65 66.92 178.79 66.73 179.32 66.73 179.99"/><line class="a" x1="642.72" y1="121.3" x2="642.72" y2="48.48"/><line class="a" x1="602.03" y1="121.3" x2="602.03" y2="47.81"/><line class="a" x1="555.4" y1="121.3" x2="555.4" y2="46.56"/><line class="a" x1="470.91" y1="121.3" x2="470.91" y2="44.93"/><line class="a" x1="395.84" y1="121.3" x2="395.84" y2="43.15"/><line class="b" x1="137.57" y1="34.27" x2="137.57" y2="34.22"/><line class="b" x1="139.16" y1="34.27" x2="139.16" y2="34.22"/><line class="b" x1="155.25" y1="34.22" x2="155.39" y2="34.07"/><line class="b" x1="156.64" y1="34.41" x2="157.03" y2="34.07"/><line class="b" x1="158.13" y1="34.55" x2="158.61" y2="34.03"/><line class="b" x1="159.81" y1="34.46" x2="160.24" y2="34.02"/><line class="b" x1="161.49" y1="34.36" x2="161.88" y2="34.03"/><line class="b" x1="163.36" y1="34.12" x2="163.51" y2="33.98"/><line class="b" x1="205.1" y1="34.07" x2="205.63" y2="33.59"/><line class="b" x1="206.16" y1="34.65" x2="207.26" y2="33.55"/><line class="b" x1="207.22" y1="35.23" x2="208.85" y2="33.54"/><line class="b" x1="208.23" y1="35.75" x2="210.48" y2="33.5"/><line class="b" x1="209.28" y1="36.33" x2="212.12" y2="33.49"/><line class="b" x1="210.63" y1="36.57" x2="213.75" y2="33.49"/><line class="b" x1="212.26" y1="36.57" x2="215.34" y2="33.45"/><line class="b" x1="213.85" y1="36.62" x2="216.97" y2="33.45"/><line class="b" x1="215.43" y1="36.62" x2="218.6" y2="33.45"/><line class="b" x1="217.02" y1="36.62" x2="220.23" y2="33.4"/><line class="b" x1="218.6" y1="36.67" x2="221.82" y2="33.4"/><line class="b" x1="220.19" y1="36.67" x2="223.45" y2="33.4"/><line class="b" x1="221.77" y1="36.67" x2="225.08" y2="33.35"/><line class="b" x1="223.36" y1="36.71" x2="226.67" y2="33.35"/><line class="b" x1="224.94" y1="36.71" x2="228.3" y2="33.35"/><line class="b" x1="226.53" y1="36.71" x2="229.94" y2="33.3"/><line class="b" x1="228.11" y1="36.76" x2="231.57" y2="33.31"/><line class="b" x1="229.7" y1="36.76" x2="233.15" y2="33.31"/><line class="b" x1="231.28" y1="36.76" x2="234.79" y2="33.26"/><line class="b" x1="232.87" y1="36.81" x2="236.42" y2="33.26"/><line class="b" x1="234.45" y1="36.81" x2="238.05" y2="33.26"/><line class="b" x1="236.04" y1="36.81" x2="239.64" y2="33.21"/><line class="b" x1="237.67" y1="36.86" x2="241.27" y2="33.21"/><line class="b" x1="239.25" y1="36.86" x2="242.9" y2="33.21"/><line class="b" x1="240.84" y1="36.86" x2="244.54" y2="33.16"/><line class="b" x1="242.38" y1="36.91" x2="246.12" y2="33.16"/><line class="b" x1="243.91" y1="37" x2="247.76" y2="33.16"/><line class="b" x1="245.4" y1="37.1" x2="249.39" y2="33.11"/><line class="b" x1="246.89" y1="37.2" x2="251.02" y2="33.11"/><line class="b" x1="248.43" y1="37.29" x2="252.61" y2="33.11"/><line class="b" x1="249.92" y1="37.39" x2="254.24" y2="33.06"/><line class="b" x1="251.41" y1="37.53" x2="255.87" y2="33.07"/><line class="b" x1="252.94" y1="37.63" x2="257.51" y2="33.06"/><line class="b" x1="254.43" y1="37.72" x2="259.09" y2="33.02"/><line class="b" x1="255.92" y1="37.82" x2="260.73" y2="33.01"/><line class="b" x1="257.46" y1="37.92" x2="262.36" y2="33.02"/><line class="b" x1="258.95" y1="38.01" x2="263.94" y2="32.97"/><line class="b" x1="260.44" y1="38.11" x2="265.58" y2="32.97"/><line class="b" x1="261.97" y1="38.2" x2="267.21" y2="32.97"/><line class="b" x1="263.46" y1="38.3" x2="268.84" y2="32.92"/><line class="b" x1="264.95" y1="38.4" x2="270.42" y2="32.92"/><line class="b" x1="266.49" y1="38.49" x2="272.06" y2="32.92"/><line class="b" x1="267.98" y1="38.59" x2="273.69" y2="32.87"/><line class="b" x1="269.51" y1="38.68" x2="275.33" y2="32.87"/><line class="b" x1="271" y1="38.78" x2="276.91" y2="32.87"/><line class="b" x1="272.49" y1="38.88" x2="278.54" y2="32.82"/><line class="b" x1="274.03" y1="39.02" x2="280.18" y2="32.83"/><line class="b" x1="275.52" y1="39.12" x2="281.81" y2="32.82"/><line class="b" x1="277.01" y1="39.21" x2="283.39" y2="32.78"/><line class="b" x1="278.54" y1="39.31" x2="285.03" y2="32.77"/><line class="b" x1="280.03" y1="39.36" x2="286.66" y2="32.78"/><line class="b" x1="281.57" y1="39.45" x2="288.29" y2="32.73"/><line class="b" x1="283.11" y1="39.5" x2="289.88" y2="32.73"/><line class="b" x1="284.64" y1="39.6" x2="291.51" y2="32.73"/><line class="b" x1="286.18" y1="39.64" x2="293.14" y2="32.68"/><line class="b" x1="287.72" y1="39.74" x2="294.78" y2="32.68"/><line class="b" x1="289.25" y1="39.79" x2="296.36" y2="32.68"/><line class="b" x1="290.79" y1="39.89" x2="297.99" y2="32.63"/><line class="b" x1="292.33" y1="39.93" x2="299.63" y2="32.63"/><line class="b" x1="293.87" y1="40.03" x2="301.26" y2="32.63"/><line class="b" x1="295.35" y1="40.08" x2="302.85" y2="32.58"/><line class="b" x1="296.89" y1="40.17" x2="304.48" y2="32.58"/><line class="b" x1="298.43" y1="40.22" x2="306.11" y2="32.59"/><polyline class="b" points="315.43 23.27 314.23 24.42 312.12 26.53"/><line class="b" x1="299.97" y1="40.32" x2="307.7" y2="32.54"/><line class="b" x1="317.02" y1="23.27" x2="309.23" y2="31.05"/><line class="b" x1="301.5" y1="40.37" x2="308.28" y2="33.59"/><polyline class="b" points="318.65 23.27 314.23 27.64 308.28 33.59"/><line class="b" x1="303.04" y1="40.46" x2="308.27" y2="35.23"/><polyline class="b" points="320.24 23.27 314.23 29.22 308.27 35.23"/><line class="b" x1="304.58" y1="40.51" x2="308.27" y2="36.81"/><polyline class="b" points="321.87 23.27 314.23 30.86 308.28 36.81"/><line class="b" x1="306.11" y1="40.61" x2="308.28" y2="38.44"/><line class="b" x1="321.92" y1="24.8" x2="322.64" y2="24.08"/><polyline class="b" points="308.27 38.45 314.23 32.44 321.92 24.8"/><line class="b" x1="307.65" y1="40.65" x2="308.28" y2="40.03"/><line class="b" x1="321.92" y1="26.39" x2="323.36" y2="24.95"/><line class="b" x1="308.28" y1="40.03" x2="321.92" y2="26.39"/><line class="b" x1="309.19" y1="40.75" x2="314.23" y2="35.66"/><polyline class="b" points="324.08 25.81 321.92 28.02 314.23 35.66"/><line class="b" x1="310.72" y1="40.8" x2="314.23" y2="37.25"/><polyline class="b" points="324.85 26.68 321.92 29.61 314.23 37.24"/><line class="b" x1="312.21" y1="40.89" x2="314.23" y2="38.88"/><line class="b" x1="325.57" y1="27.54" x2="314.23" y2="38.88"/><line class="b" x1="313.75" y1="40.94" x2="314.23" y2="40.46"/><polyline class="b" points="326.29 28.41 321.92 32.83 314.23 40.46"/><line class="b" x1="315.29" y1="41.04" x2="327.06" y2="29.27"/><polyline class="b" points="316.82 41.09 321.92 36.04 327.78 30.13"/><line class="b" x1="318.41" y1="41.13" x2="328.54" y2="31"/><line class="b" x1="319.95" y1="41.18" x2="329.26" y2="31.86"/><polyline class="b" points="321.53 41.23 321.92 40.84 329.98 32.73"/><line class="b" x1="323.07" y1="41.28" x2="330.75" y2="33.59"/><line class="b" x1="324.65" y1="41.33" x2="331.47" y2="34.46"/><line class="b" x1="326.19" y1="41.37" x2="332.24" y2="35.32"/><line class="b" x1="327.78" y1="41.42" x2="332.96" y2="36.19"/><line class="b" x1="329.31" y1="41.47" x2="333.68" y2="37.05"/><line class="b" x1="330.85" y1="41.52" x2="334.45" y2="37.92"/><line class="b" x1="332.43" y1="41.57" x2="335.17" y2="38.78"/><line class="b" x1="333.97" y1="41.61" x2="335.89" y2="39.65"/><line class="b" x1="335.56" y1="41.61" x2="336.66" y2="40.51"/><line class="b" x1="337.09" y1="41.66" x2="337.38" y2="41.38"/><line class="b" x1="162.4" y1="34.27" x2="164.23" y2="33.98"/><line class="c" x1="140.79" y1="34.22" x2="140.79" y2="34.17"/><line class="c" x1="142.42" y1="34.22" x2="142.47" y2="34.12"/><line class="c" x1="144.06" y1="34.17" x2="144.1" y2="34.07"/><line class="c" x1="145.64" y1="34.17" x2="145.74" y2="34.07"/><line class="c" x1="147.27" y1="34.17" x2="147.32" y2="34.07"/><line class="c" x1="148.91" y1="34.12" x2="148.96" y2="34.07"/><line class="c" x1="150.54" y1="34.12" x2="150.54" y2="34.07"/><line class="c" x1="152.13" y1="34.12" x2="152.17" y2="34.07"/><line class="c" x1="153.76" y1="34.07" x2="153.76" y2="34.03"/><line class="c" x1="165.09" y1="33.98" x2="165.24" y2="33.83"/><line class="c" x1="166.73" y1="33.98" x2="169.37" y2="31.33"/><line class="c" x1="168.36" y1="33.93" x2="178.69" y2="23.6"/><line class="c" x1="169.99" y1="33.93" x2="180.13" y2="23.75"/><line class="c" x1="171.58" y1="33.93" x2="181.57" y2="23.89"/><line class="c" x1="173.21" y1="33.88" x2="183.06" y2="24.03"/><line class="c" x1="174.84" y1="33.88" x2="184.5" y2="24.23"/><line class="c" x1="176.48" y1="33.88" x2="185.94" y2="24.37"/><line class="c" x1="178.06" y1="33.83" x2="187.43" y2="24.51"/><line class="c" x1="179.7" y1="33.83" x2="188.53" y2="24.99"/><line class="c" x1="181.33" y1="33.83" x2="189.54" y2="25.57"/><line class="c" x1="182.91" y1="33.78" x2="190.6" y2="26.15"/><line class="c" x1="184.55" y1="33.78" x2="191.61" y2="26.72"/><line class="c" x1="186.18" y1="33.78" x2="192.66" y2="27.25"/><line class="c" x1="187.81" y1="33.74" x2="193.72" y2="27.83"/><line class="c" x1="189.4" y1="33.74" x2="194.73" y2="28.4"/><line class="c" x1="191.03" y1="33.74" x2="195.78" y2="28.98"/><line class="c" x1="192.66" y1="33.69" x2="196.8" y2="29.56"/><line class="c" x1="194.3" y1="33.69" x2="197.85" y2="30.08"/><line class="c" x1="195.88" y1="33.69" x2="198.91" y2="30.66"/><line class="c" x1="197.52" y1="33.64" x2="199.92" y2="31.24"/><line class="c" x1="199.15" y1="33.64" x2="200.97" y2="31.82"/><line class="c" x1="200.78" y1="33.64" x2="202.03" y2="32.39"/><line class="c" x1="202.37" y1="33.59" x2="203.04" y2="32.92"/><line class="c" x1="204" y1="33.59" x2="204.09" y2="33.5"/><line class="c" x1="166.92" y1="33.59" x2="177.82" y2="23.51"/><polyline class="b" points="209.67 36.57 242.09 36.91 278.83 39.31 316.59 41.08 337.67 41.71"/><polyline class="a" points="358.71 42.29 395.83 43.15 433.06 44.26 470.91 44.93 519.56 46.27 555.39 46.56 602.03 47.81 642.72 48.48"/><line class="a" x1="69.32" y1="121.3" x2="69.32" y2="35.28"/><line class="a" x1="136.95" y1="121.3" x2="136.95" y2="34.26"/><line class="a" x1="121.53" y1="121.3" x2="121.53" y2="24.08"/><line class="a" x1="101.21" y1="121.3" x2="101.21" y2="30.04"/><polyline class="a" points="82.96 121.3 82.96 33.45 69.32 35.27"/><polyline class="a" points="82.96 33.45 101.21 30.04 121.53 24.08 129.6 26.05 136.95 34.26"/><line class="c" x1="143.48" y1="34.07" x2="154.29" y2="34.07"/><line class="c" x1="140.55" y1="34.22" x2="143.48" y2="34.07"/><polyline class="b" points="155.54 34.27 157.65 34.55 161.44 34.41"/><polyline class="c" points="177.82 23.51 187.67 24.51 204.24 33.59"/><polyline class="a" points="81.66 129.17 81.66 128.93 81.9 128.5 82.1 128.26 82.58 128.02 83.44 128.02 83.92 128.26 84.11 128.5 84.35 128.93 84.35 129.37 84.11 129.85 83.68 130.52 81.42 132.73 84.59 132.73"/><polyline class="a" points="100.11 128.02 102.61 128.02 101.26 129.84 101.93 129.84 102.36 130.04 102.61 130.28 102.8 130.95 102.8 131.38 102.61 132.06 102.12 132.53 101.45 132.73 100.78 132.73 100.11 132.53 99.92 132.29 99.67 131.87"/><polyline class="a" points="122.16 128.02 119.9 131.19 123.26 131.19"/><line class="a" x1="122.15" y1="128.02" x2="122.15" y2="132.73"/><polyline class="a" points="137.52 128.02 135.27 128.02 135.07 130.04 135.27 129.84 135.94 129.6 136.61 129.6 137.28 129.84 137.76 130.28 137.96 130.95 137.96 131.38 137.76 132.06 137.28 132.53 136.61 132.73 135.94 132.73 135.27 132.53 135.07 132.29 134.83 131.87"/><polyline class="a" points="392.43 128.93 392.86 128.69 393.53 128.02 393.53 132.73"/><polyline class="a" points="396.65 128.02 399.15 128.02 397.81 129.84 398.48 129.84 398.91 130.04 399.15 130.28 399.34 130.95 399.34 131.38 399.15 132.06 398.67 132.53 398 132.73 397.33 132.73 396.65 132.53 396.46 132.29 396.22 131.87"/><polyline class="a" points="467.35 128.93 467.79 128.69 468.46 128.02 468.46 132.73"/><polyline class="a" points="473.41 128.02 471.15 131.19 474.51 131.19"/><line class="a" x1="473.41" y1="128.02" x2="473.41" y2="132.73"/><polyline class="a" points="551.99 128.93 552.42 128.69 553.09 128.02 553.09 132.73"/><polyline class="a" points="558.47 128.02 556.21 128.02 556.02 130.04 556.21 129.84 556.89 129.6 557.55 129.6 558.23 129.84 558.71 130.28 558.9 130.95 558.9 131.38 558.71 132.06 558.23 132.53 557.55 132.73 556.89 132.73 556.21 132.53 556.02 132.29 555.78 131.87"/><polyline class="a" points="598.62 128.93 599.06 128.69 599.73 128.02 599.73 132.73"/><polyline class="a" points="605.35 128.69 605.11 128.26 604.43 128.02 604 128.02 603.33 128.26 602.9 128.94 602.66 130.04 602.66 131.19 602.9 132.06 603.33 132.54 604 132.73 604.25 132.73 604.91 132.54 605.35 132.06 605.59 131.38 605.59 131.19 605.35 130.52 604.91 130.04 604.25 129.85 604 129.85 603.33 130.04 602.9 130.52 602.66 131.19"/><polyline class="a" points="639.31 128.93 639.74 128.69 640.41 128.02 640.41 132.73"/><polyline class="a" points="644.01 132.73 646.22 128.02 643.1 128.02"/><line class="b" x1="136.95" y1="34.27" x2="139.69" y2="34.27"/><line class="a" x1="101.21" y1="139.45" x2="101.21" y2="154.01"/><line class="a" x1="121.53" y1="139.45" x2="121.53" y2="154.01"/><line class="a" x1="136.95" y1="139.45" x2="136.95" y2="154.01"/><line class="a" x1="395.84" y1="139.45" x2="395.84" y2="154.01"/><line class="a" x1="470.91" y1="139.45" x2="470.91" y2="154.01"/><line class="a" x1="555.4" y1="139.45" x2="555.4" y2="154.01"/><line class="a" x1="602.03" y1="139.45" x2="602.03" y2="154.01"/><line class="a" x1="642.72" y1="139.45" x2="642.72" y2="154.01"/><polyline class="a" points="89.97 145.36 89.97 145.22 90.17 144.83 90.31 144.69 90.69 144.5 91.37 144.5 91.7 144.69 91.89 144.83 92.04 145.22 92.04 145.55 91.89 145.89 91.56 146.42 89.83 148.15 92.23 148.15"/><polyline class="a" points="106.88 145.36 106.88 145.22 107.07 144.83 107.22 144.69 107.55 144.5 108.28 144.5 108.61 144.69 108.8 144.83 108.94 145.22 108.94 145.55 108.8 145.89 108.42 146.42 106.69 148.15 109.14 148.15"/><polygon class="a" points="110.53 147.81 110.34 147.96 110.53 148.15 110.68 147.96 110.53 147.81"/><polyline class="a" points="112.07 145.36 112.07 145.22 112.26 144.83 112.4 144.69 112.74 144.5 113.46 144.5 113.8 144.69 113.99 144.83 114.13 145.22 114.13 145.55 113.99 145.89 113.6 146.42 111.88 148.15 114.33 148.15"/><polyline class="a" points="125.04 145.22 125.42 145.02 125.9 144.5 125.9 148.15"/><polygon class="a" points="128.35 147.81 128.16 147.96 128.35 148.15 128.5 147.96 128.35 147.81"/><polyline class="a" points="130.42 148.15 132.15 144.5 129.74 144.5"/><polygon class="a" points="431.09 144.5 430.56 144.69 430.37 145.02 430.37 145.36 430.56 145.7 430.9 145.89 431.62 146.08 432.1 146.22 432.49 146.56 432.63 146.95 432.63 147.43 432.49 147.81 432.29 147.95 431.76 148.15 431.09 148.15 430.56 147.95 430.37 147.81 430.22 147.43 430.22 146.95 430.37 146.56 430.76 146.22 431.24 146.08 431.96 145.89 432.29 145.7 432.49 145.36 432.49 145.02 432.29 144.69 431.76 144.5 431.09 144.5"/><polygon class="a" points="434.02 147.81 433.83 147.96 434.02 148.15 434.21 147.96 434.02 147.81"/><polyline class="a" points="435.75 144.5 437.67 144.5 436.62 145.89 437.14 145.89 437.48 146.08 437.67 146.22 437.81 146.75 437.81 147.09 437.67 147.62 437.29 147.95 436.81 148.15 436.28 148.15 435.75 147.95 435.56 147.81 435.42 147.43"/><polyline class="a" points="514.28 145.7 514.09 146.22 513.75 146.56 513.23 146.75 513.03 146.75 512.55 146.56 512.17 146.22 512.02 145.7 512.02 145.55 512.17 145.02 512.55 144.69 513.03 144.5 513.23 144.5 513.75 144.69 514.09 145.02 514.28 145.7 514.28 146.56 514.09 147.43 513.75 147.95 513.23 148.15 512.89 148.15 512.36 147.95 512.17 147.62"/><polygon class="a" points="515.82 147.81 515.63 147.96 515.82 148.15 516.01 147.96 515.82 147.81"/><polyline class="a" points="517.55 144.5 519.42 144.5 518.41 145.89 518.94 145.89 519.28 146.08 519.42 146.22 519.61 146.75 519.61 147.09 519.42 147.62 519.08 147.95 518.6 148.15 518.07 148.15 517.55 147.95 517.35 147.81 517.21 147.43"/><path class="a" d="M577,144.5h-1.73l-.19,1.58.19-.19c3-1.2,2.57,3.6-.19,1.92l-.14-.39"/><polygon class="a" points="578.74 147.81 578.55 147.96 578.74 148.15 578.88 147.96 578.74 147.81"/><polyline class="a" points="580.61 145.22 581 145.02 581.48 144.5 581.48 148.15"/><polyline class="a" points="619.42 144.5 617.69 146.95 620.29 146.95"/><line class="a" x1="619.42" y1="144.5" x2="619.42" y2="148.15"/><polygon class="a" points="621.49 147.81 621.34 147.96 621.49 148.15 621.68 147.96 621.49 147.81"/><polyline class="a" points="624.95 144.5 623.22 144.5 623.07 146.08 623.22 145.89 623.74 145.7 624.27 145.7 624.8 145.89 625.14 146.22 625.33 146.75 625.33 147.09 625.14 147.62 624.8 147.95 624.27 148.15 623.74 148.15 623.22 147.95 623.07 147.81 622.88 147.43"/><polyline class="a" points="81.28 168.46 81.04 168.13 80.32 167.65 85.31 167.65"/><polygon class="a" points="84.83 165.29 85.07 165.49 85.31 165.29 85.07 165.15 84.83 165.29"/><polyline class="a" points="80.32 161.98 80.32 163.66 82.48 163.8 82.24 163.66 82 163.13 82 162.65 82.24 162.17 82.67 161.83 83.39 161.65 83.87 161.65 84.59 161.83 85.07 162.17 85.31 162.65 85.31 163.13 85.07 163.66 84.83 163.8 84.35 164"/><path class="a" d="M98.57,168.37v-1.82l1.87,1v-.48c.83-1.58,4.55-.28,2.64,1.49l-.48.14"/><polygon class="a" points="103.09 165.05 103.33 165.25 103.57 165.05 103.33 164.91 103.09 165.05"/><polyline class="a" points="98.57 161.74 98.57 163.42 100.69 163.56 100.45 163.42 100.21 162.89 100.21 162.41 100.45 161.88 100.93 161.55 101.65 161.41 102.12 161.41 102.84 161.55 103.33 161.88 103.56 162.41 103.56 162.89 103.33 163.42 103.08 163.56 102.6 163.71"/><path class="a" d="M118.89,166.73v1.63l2.16.19-.24-.19c-1.64-2.93,5-2.37,2.59.19l-.48.15"/><polygon class="a" points="123.4 165.05 123.64 165.25 123.88 165.05 123.64 164.91 123.4 165.05"/><path class="a" d="M118.89,162.89l.24.53.48.15h.48l.48-.15.24-.33.24-.67.24-.53.48-.33.43-.15h.72l.48.15.24.19.24.48v.67l-.24.53c-3.63,1.52-1.76-2.93-4.51-1.68l-.24.48Z"/><polyline class="a" points="139.45 168.08 134.45 166.4 134.45 168.71"/><polygon class="a" points="138.97 165.05 139.21 165.25 139.45 165.05 139.21 164.91 138.97 165.05"/><polyline class="a" points="134.45 161.74 134.45 163.42 136.61 163.56 136.37 163.42 136.13 162.89 136.13 162.41 136.37 161.88 136.85 161.55 137.57 161.41 138.05 161.41 138.72 161.55 139.2 161.88 139.44 162.41 139.44 162.89 139.2 163.42 138.96 163.56 138.48 163.71"/><polyline class="a" points="393.19 167.55 393.19 165.73 395.12 166.74 395.12 166.21 395.36 165.87 395.55 165.73 396.27 165.58 396.75 165.58 397.47 165.73 397.95 166.06 398.19 166.54 398.19 167.07 397.95 167.55 397.71 167.74 397.23 167.89"/><polyline class="a" points="393.92 162.41 393.43 162.56 393.19 163.09 393.19 163.42 393.43 163.9 394.15 164.24 395.36 164.38 396.51 164.38 397.47 164.24 397.95 163.9 398.19 163.42 398.19 163.23 397.95 162.75 397.47 162.41 396.75 162.22 396.51 162.22 395.79 162.41 395.36 162.75 395.12 163.23 395.12 163.42 395.36 163.9 395.79 164.24 396.51 164.38"/><polyline class="a" points="468.27 168.7 471.58 170.39 471.58 167.89"/><line class="a" x1="468.27" y1="168.7" x2="473.26" y2="168.7"/><polyline class="a" points="468.27 165.39 471.58 167.07 471.58 164.57"/><line class="a" x1="468.27" y1="165.39" x2="473.26" y2="165.39"/><polygon class="a" points="472.78 163.42 473.02 163.57 473.26 163.42 473.02 163.23 472.78 163.42"/><polyline class="a" points="469.47 161.88 469.23 161.88 468.75 161.74 468.51 161.55 468.27 161.21 468.27 160.59 468.51 160.25 468.75 160.06 469.23 159.91 469.66 159.91 470.14 160.06 470.86 160.4 473.26 162.08 473.26 159.72"/><path class="a" d="M552.75,168.37V170l2.16.19-.24-.19c-1.65-2.93,5-2.37,2.59.19l-.48.14"/><path class="a" d="M552.75,166.73v-1.82l1.92,1v-.48c.85-1.63,4.48-.11,2.59,1.49l-.48.19"/><polygon class="a" points="557.27 163.42 557.51 163.57 557.75 163.42 557.51 163.23 557.27 163.42"/><polyline class="a" points="553.47 159.91 552.99 160.06 552.75 160.59 552.75 160.92 552.99 161.4 553.71 161.74 554.91 161.88 556.07 161.88 557.03 161.74 557.51 161.4 557.75 160.92 557.75 160.73 557.51 160.25 557.03 159.91 556.31 159.72 556.07 159.72 555.4 159.91 554.91 160.25 554.67 160.73 554.67 160.92 554.91 161.4 555.4 161.74 556.07 161.88"/><path class="a" d="M599.39,168.37V170l2.16.19-.24-.19c-1.61-2.85,4.89-2.5,2.64.19l-.48.14"/><polygon class="a" points="599.39 166.21 599.63 166.73 600.11 166.88 600.59 166.88 601.07 166.73 601.31 166.4 601.55 165.73 601.79 165.25 602.27 164.91 602.75 164.72 603.48 164.72 603.96 164.91 604.15 165.05 604.39 165.58 604.39 166.21 604.15 166.73 603.96 166.88 603.48 167.07 602.75 167.07 602.27 166.88 601.79 166.54 601.55 166.06 601.31 165.39 601.07 165.05 600.59 164.91 600.11 164.91 599.63 165.05 599.39 165.58 599.39 166.21"/><polygon class="a" points="603.96 163.42 604.15 163.57 604.39 163.42 604.15 163.23 603.96 163.42"/><polyline class="a" points="604.39 161.4 599.39 159.72 599.39 162.08"/><polyline class="a" points="640.79 168.32 640.31 168.47 640.07 168.99 640.07 169.28 640.31 169.81 641.03 170.14 642.24 170.29 643.39 170.29 644.35 170.14 644.83 169.81 645.07 169.28 645.07 169.13 644.83 168.66 644.35 168.32 643.63 168.13 643.39 168.13 642.72 168.32 642.24 168.66 642 169.13 642 169.28 642.24 169.81 642.72 170.14 643.39 170.29"/><path class="a" d="M640.07,166.83V165l1.92,1v-.48c.84-1.65,4.5-.15,2.59,1.49l-.48.14"/><polygon class="a" points="644.59 163.47 644.83 163.66 645.07 163.47 644.83 163.32 644.59 163.47"/><polyline class="a" points="641.27 161.98 641.03 161.98 640.55 161.83 640.31 161.65 640.07 161.31 640.07 160.64 640.31 160.3 640.55 160.16 641.03 159.96 641.51 159.96 642 160.16 642.72 160.49 645.07 162.17 645.07 159.82"/><polyline class="a" points="81.42 195.27 81.18 194.98 80.46 194.45 85.46 194.45"/><path class="a" d="M80.46,191.62l.24.53.48.15h.48l.48-.15.24-.33.24-.67.24-.53.48-.29.48-.19h.72l.43.19.24.14.24.48v.67l-.24.53c-3.44,1.65-1.77-2.82-4.51-1.68l-.24.48Z"/><polyline class="a" points="82.14 186.96 82.86 187.15 83.35 187.48 83.59 187.96 83.59 188.11 83.35 188.64 82.86 188.97 82.14 189.12 81.9 189.12 81.18 188.97 80.7 188.64 80.46 188.11 80.46 187.96 80.7 187.48 81.18 187.15 82.14 186.96 83.35 186.96 84.55 187.15 85.22 187.48 85.46 187.96 85.46 188.3 85.22 188.78 84.74 188.97"/><polygon class="a" points="84.98 185.47 85.22 185.66 85.46 185.47 85.22 185.32 84.98 185.47"/><polyline class="a" points="81.18 181.96 80.7 182.15 80.46 182.63 80.46 182.97 80.7 183.45 81.42 183.78 82.63 183.98 83.83 183.98 84.74 183.78 85.22 183.45 85.46 182.97 85.46 182.83 85.22 182.29 84.74 181.96 84.07 181.81 83.83 181.81 83.11 181.96 82.63 182.29 82.39 182.83 82.39 182.97 82.63 183.45 83.11 183.78 83.83 183.98"/><polygon class="a" points="80.46 179.99 80.7 180.47 81.18 180.66 81.67 180.66 82.14 180.47 82.39 180.14 82.63 179.46 82.87 178.98 83.35 178.65 83.83 178.5 84.55 178.5 84.98 178.65 85.22 178.79 85.46 179.32 85.46 179.99 85.22 180.47 84.98 180.66 84.55 180.81 83.83 180.81 83.35 180.66 82.87 180.33 82.63 179.8 82.39 179.13 82.14 178.79 81.67 178.65 81.18 178.65 80.7 178.79 80.46 179.32 80.46 179.99"/><polyline class="a" points="99.68 195.27 99.44 194.98 98.72 194.45 103.71 194.45"/><polyline class="a" points="100.4 190.32 101.12 190.46 101.6 190.8 101.84 191.28 101.84 191.47 101.6 191.95 101.12 192.29 100.4 192.48 100.16 192.48 99.44 192.29 98.95 191.95 98.72 191.47 98.72 191.28 98.95 190.8 99.44 190.46 100.4 190.32 101.6 190.32 102.75 190.46 103.47 190.8 103.71 191.28 103.71 191.61 103.47 192.14 102.99 192.29"/><polygon class="a" points="98.72 188.11 98.96 188.64 99.68 188.97 100.88 189.12 101.6 189.12 102.75 188.97 103.47 188.64 103.71 188.11 103.71 187.82 103.47 187.29 102.75 186.96 101.6 186.81 100.88 186.81 99.68 186.96 98.96 187.29 98.72 187.82 98.72 188.11"/><polygon class="a" points="103.23 185.47 103.47 185.66 103.71 185.47 103.47 185.32 103.23 185.47"/><polygon class="a" points="98.72 183.16 98.96 183.64 99.68 183.98 100.88 184.12 101.6 184.12 102.75 183.98 103.47 183.64 103.71 183.16 103.71 182.83 103.47 182.29 102.75 181.96 101.6 181.82 100.88 181.82 99.68 181.96 98.96 182.29 98.72 182.83 98.72 183.16"/><polyline class="a" points="99.44 178.65 98.95 178.79 98.72 179.32 98.72 179.66 98.95 180.13 99.68 180.47 100.88 180.66 102.08 180.66 102.99 180.47 103.47 180.13 103.71 179.66 103.71 179.46 103.47 178.98 102.99 178.65 102.27 178.5 102.08 178.5 101.36 178.65 100.88 178.98 100.64 179.46 100.64 179.66 100.88 180.13 101.36 180.47 102.08 180.66"/><polyline class="a" points="119.99 194.78 119.75 194.45 119.08 193.97 124.03 193.97"/><polyline class="a" points="120.71 189.79 121.43 189.98 121.92 190.32 122.16 190.8 122.16 190.94 121.92 191.47 121.43 191.81 120.71 191.95 120.47 191.95 119.75 191.81 119.27 191.47 119.08 190.94 119.08 190.8 119.27 190.32 119.75 189.98 120.71 189.79 121.92 189.79 123.12 189.98 123.84 190.32 124.03 190.8 124.03 191.13 123.84 191.61 123.36 191.81"/><polygon class="a" points="119.08 187.63 119.27 188.11 119.99 188.44 121.19 188.64 121.92 188.64 123.11 188.44 123.83 188.11 124.03 187.63 124.03 187.29 123.83 186.81 123.11 186.47 121.92 186.28 121.19 186.28 119.99 186.47 119.27 186.81 119.08 187.29 119.08 187.63"/><polygon class="a" points="123.6 184.99 123.84 185.13 124.03 184.99 123.84 184.79 123.6 184.99"/><polyline class="a" points="124.03 182.97 119.08 181.29 119.08 183.64"/><polyline class="a" points="119.99 179.8 119.75 179.46 119.08 178.98 124.03 178.98"/><polyline class="a" points="135.41 195.22 135.17 194.88 134.45 194.35 139.44 194.35"/><path class="a" d="M134.45,191.57l.24.48.48.15h.48l.48-.15.24-.33.24-.67.24-.48.48-.33.48-.19h.67l.48.19.24.14.24.53v.67l-.24.48c-3.45,1.65-1.77-2.82-4.51-1.68l-.24.53Z"/><polyline class="a" points="136.13 186.91 136.85 187.05 137.33 187.39 137.57 187.87 137.57 188.06 137.33 188.54 136.85 188.88 136.13 189.07 135.89 189.07 135.17 188.88 134.69 188.54 134.45 188.06 134.45 187.87 134.69 187.39 135.17 187.05 136.13 186.91 137.33 186.91 138.49 187.05 139.21 187.39 139.44 187.87 139.44 188.2 139.21 188.73 138.73 188.88"/><polygon class="a" points="138.97 185.37 139.21 185.56 139.45 185.37 139.21 185.22 138.97 185.37"/><polyline class="a" points="134.45 182.06 134.45 183.74 136.61 183.88 136.37 183.74 136.13 183.21 136.13 182.73 136.37 182.25 136.85 181.91 137.57 181.72 138.05 181.72 138.72 181.91 139.2 182.25 139.44 182.73 139.44 183.21 139.2 183.74 138.96 183.88 138.48 184.07"/><polyline class="a" points="136.13 178.55 136.85 178.74 137.33 179.08 137.57 179.56 137.57 179.75 137.33 180.23 136.85 180.57 136.13 180.71 135.89 180.71 135.17 180.57 134.69 180.23 134.45 179.75 134.45 179.56 134.69 179.08 135.17 178.74 136.13 178.55 137.33 178.55 138.49 178.74 139.21 179.08 139.44 179.56 139.44 179.89 139.21 180.37 138.73 180.57"/><polyline class="a" points="394.3 194.78 394.06 194.45 393.34 193.97 398.33 193.97"/><polygon class="a" points="393.34 191.13 393.58 191.62 394.06 191.81 394.54 191.81 395.02 191.62 395.26 191.28 395.5 190.61 395.74 190.13 396.22 189.79 396.7 189.65 397.37 189.65 397.85 189.79 398.09 189.98 398.33 190.46 398.33 191.13 398.09 191.62 397.85 191.81 397.37 191.95 396.7 191.95 396.22 191.81 395.74 191.47 395.5 190.94 395.26 190.32 395.02 189.98 394.54 189.79 394.06 189.79 393.58 189.98 393.34 190.46 393.34 191.13"/><path class="a" d="M393.34,187.82l.24.48.48.15h.48l.48-.15.24-.33.24-.67.24-.48.48-.33.48-.19h.67l.48.19.24.14.24.53v.67l-.24.48c-3.45,1.65-1.77-2.82-4.51-1.68l-.24.53Z"/><polygon class="a" points="397.85 184.99 398.09 185.13 398.33 184.99 398.09 184.79 397.85 184.99"/><polyline class="a" points="394.06 181.48 393.58 181.63 393.34 182.15 393.34 182.49 393.58 182.97 394.3 183.3 395.5 183.45 396.7 183.45 397.61 183.3 398.09 182.97 398.33 182.49 398.33 182.3 398.09 181.81 397.61 181.48 396.94 181.29 396.7 181.29 395.98 181.48 395.5 181.81 395.26 182.3 395.26 182.49 395.5 182.97 395.98 183.3 396.7 183.45"/><polyline class="a" points="394.3 179.8 394.06 179.46 393.34 178.98 398.33 178.98"/><polyline class="a" points="469.37 195.27 469.13 194.98 468.41 194.45 473.4 194.45"/><path class="a" d="M468.41,191.62l.24.53.48.15h.48l.48-.15.24-.33.24-.67.24-.53.48-.29.43-.19h.72l.48.19.24.14.24.48v.67l-.24.53c-3.45,1.65-1.77-2.82-4.51-1.68l-.24.48Z"/><polygon class="a" points="468.41 188.3 468.65 188.78 469.13 188.97 469.61 188.97 470.09 188.78 470.33 188.45 470.57 187.82 470.81 187.29 471.29 186.96 471.72 186.81 472.44 186.81 472.93 186.96 473.17 187.15 473.4 187.63 473.4 188.3 473.17 188.78 472.93 188.97 472.44 189.12 471.72 189.12 471.29 188.97 470.81 188.64 470.57 188.11 470.33 187.49 470.09 187.15 469.61 186.96 469.13 186.96 468.65 187.15 468.41 187.63 468.41 188.3"/><polygon class="a" points="472.93 185.47 473.17 185.66 473.41 185.47 473.17 185.32 472.93 185.47"/><polyline class="a" points="468.41 182.49 471.72 184.12 471.72 181.62"/><line class="a" x1="468.41" y1="182.49" x2="473.41" y2="182.49"/><polyline class="a" points="469.61 180.66 469.37 180.66 468.89 180.47 468.65 180.33 468.41 179.99 468.41 179.32 468.65 178.98 468.89 178.79 469.37 178.65 469.85 178.65 470.33 178.79 471.05 179.13 473.41 180.81 473.41 178.5"/><polyline class="a" points="553.86 195.36 553.62 195.03 552.95 194.55 557.89 194.55"/><polygon class="a" points="552.95 191.71 553.14 192.19 553.62 192.38 554.1 192.38 554.58 192.19 554.82 191.86 555.06 191.23 555.3 190.7 555.78 190.37 556.26 190.22 556.98 190.22 557.46 190.37 557.7 190.56 557.89 191.04 557.89 191.71 557.7 192.19 557.46 192.38 556.98 192.53 556.26 192.53 555.78 192.38 555.3 192.05 555.06 191.56 554.82 190.9 554.58 190.56 554.1 190.37 553.62 190.37 553.14 190.56 552.95 191.04 552.95 191.71"/><path class="a" d="M552.95,188.4l.19.48.48.19c2.15.36.59-3.27,4.08-1.87l.19.53v.67l-.19.48-.24.19-.48.14h-.72l-.48-.14-.48-.34-.24-.53-.24-.67-.24-.33-.48-.14h-.48l-.48.14-.19.53Z"/><polygon class="a" points="557.46 185.56 557.7 185.71 557.89 185.56 557.7 185.37 557.46 185.56"/><polyline class="a" points="554.1 184.07 553.86 184.07 553.38 183.88 553.14 183.74 552.95 183.4 552.95 182.73 553.14 182.39 553.38 182.25 553.86 182.06 554.34 182.06 555.54 182.54 557.89 184.22 557.89 181.91"/><polyline class="a" points="552.95 179.22 556.26 180.91 556.26 178.41"/><line class="a" x1="552.95" y1="179.22" x2="557.89" y2="179.22"/><polyline class="a" points="600.54 193.1 600.3 192.77 599.58 192.29 604.58 192.29"/><path class="a" d="M599.58,189.45l.24.53.48.15h.48l.48-.15.19-.33.24-.67.24-.53.48-.33.48-.15h.72l.48.15.24.19.24.48v.67l-.24.53c-3.54,1.69-1.87-3-4.51-1.68l-.24.48Z"/><polygon class="a" points="599.59 186.14 599.83 186.62 600.3 186.81 600.79 186.81 601.27 186.62 601.46 186.28 601.7 185.66 601.94 185.13 602.42 184.8 602.9 184.65 603.62 184.65 604.1 184.8 604.34 184.99 604.58 185.47 604.58 186.14 604.34 186.62 604.1 186.81 603.62 186.96 602.9 186.96 602.42 186.81 601.94 186.47 601.7 185.95 601.46 185.32 601.27 184.99 600.79 184.8 600.3 184.8 599.83 184.99 599.59 185.47 599.59 186.14"/><polygon class="a" points="604.1 183.31 604.34 183.45 604.58 183.31 604.34 183.16 604.1 183.31"/><polyline class="a" points="600.54 181.48 600.3 181.15 599.58 180.66 604.58 180.66"/><polyline class="a" points="641.18 195.27 640.94 194.98 640.22 194.45 645.21 194.45"/><polygon class="a" points="640.22 191.62 640.46 192.14 640.94 192.29 641.42 192.29 641.9 192.14 642.14 191.81 642.38 191.13 642.62 190.61 643.1 190.32 643.58 190.13 644.3 190.13 644.78 190.32 644.97 190.46 645.21 190.94 645.21 191.62 644.97 192.14 644.78 192.29 644.3 192.48 643.58 192.48 643.1 192.29 642.62 191.95 642.38 191.47 642.14 190.8 641.9 190.46 641.42 190.32 640.94 190.32 640.46 190.46 640.22 190.94 640.22 191.62"/><polygon class="a" points="640.22 188.3 640.46 188.78 640.94 188.97 641.42 188.97 641.9 188.78 642.14 188.45 642.38 187.82 642.62 187.29 643.1 186.96 643.58 186.81 644.3 186.81 644.78 186.96 644.97 187.15 645.21 187.63 645.21 188.3 644.97 188.78 644.78 188.97 644.3 189.12 643.58 189.12 643.1 188.97 642.62 188.64 642.38 188.11 642.14 187.49 641.9 187.15 641.42 186.96 640.94 186.96 640.46 187.15 640.22 187.63 640.22 188.3"/><polygon class="a" points="644.78 185.47 644.98 185.66 645.22 185.47 644.98 185.32 644.78 185.47"/><polygon class="a" points="640.22 183.16 640.46 183.64 641.18 183.98 642.38 184.12 643.1 184.12 644.3 183.98 644.97 183.64 645.21 183.16 645.21 182.83 644.97 182.29 644.3 181.96 643.1 181.82 642.38 181.82 641.18 181.96 640.46 182.29 640.22 182.83 640.22 183.16"/><polyline class="a" points="641.42 180.66 641.18 180.66 640.7 180.47 640.46 180.33 640.22 179.99 640.22 179.32 640.46 178.98 640.7 178.79 641.18 178.65 641.66 178.65 642.14 178.79 642.86 179.13 645.21 180.81 645.21 178.5"/><line class="a" x1="136.95" y1="34.27" x2="308.28" y2="32.54"/><polyline class="a" points="321.92 23.27 314.23 23.27 308.27 32.54"/><line class="a" x1="321.92" y1="23.27" x2="337.67" y2="41.71"/><polygon class="a" points="10.39 163.23 10.39 159.58 11.63 159.58 12.16 159.72 12.5 160.11 12.64 160.44 12.84 160.97 12.84 161.84 12.64 162.36 12.5 162.7 12.16 163.04 11.63 163.23 10.39 163.23"/><line class="a" x1="14.04" y1="159.58" x2="14.04" y2="163.23"/><polyline class="a" points="17.69 160.11 17.35 159.72 16.82 159.58 16.15 159.58 15.62 159.72 15.28 160.11 15.28 160.44 15.43 160.78 15.62 160.97 15.96 161.12 17.01 161.5 17.35 161.64 17.54 161.84 17.69 162.17 17.69 162.7 17.35 163.04 16.82 163.23 16.15 163.23 15.62 163.04 15.28 162.7"/><line class="a" x1="19.61" y1="159.58" x2="19.61" y2="163.23"/><line class="a" x1="18.41" y1="159.58" x2="20.86" y2="159.58"/><polygon class="a" points="21.86 162.84 21.72 163.04 21.86 163.23 22.06 163.04 21.86 162.84"/><polyline class="a" points="27.1 163.23 27.1 159.58 28.64 159.58 29.16 159.72 29.36 159.92 29.5 160.25 29.5 160.78 29.36 161.11 29.16 161.31 28.64 161.5 27.1 161.5"/><polyline class="a" points="30.75 163.23 30.75 159.58 32.29 159.58 32.81 159.72 33.01 159.92 33.15 160.25 33.15 160.59 33.01 160.97 32.81 161.11 32.29 161.31 30.75 161.31"/><line class="a" x1="31.95" y1="161.31" x2="33.15" y2="163.23"/><path class="a" d="M35.27,159.58l-.33.15-.39.38c-.61,1-.49,2.63.72,3.12h.67l.38-.19a2.3,2.3,0,0,0,0-3.31l-.38-.15Z"/><path class="a" d="M40.65,160.44l-.19-.33-.33-.39c-1.1-.56-1.89.17-2.07,1.25v.87l.15.53a1.25,1.25,0,0,0,2.26.33l.19-.33v-.53h-.87"/><polyline class="a" points="41.85 163.23 41.85 159.58 43.43 159.58 43.96 159.72 44.1 159.92 44.3 160.25 44.3 160.59 44.1 160.97 43.96 161.11 43.43 161.31 41.85 161.31"/><line class="a" x1="43.1" y1="161.31" x2="44.3" y2="163.23"/><polyline class="a" points="45.5 163.23 45.5 159.58 47.75 159.58"/><line class="a" x1="45.5" y1="161.31" x2="46.89" y2="161.31"/><line class="a" x1="45.5" y1="163.23" x2="47.75" y2="163.23"/><polyline class="a" points="51.07 160.11 50.73 159.72 50.2 159.58 49.53 159.58 49.01 159.72 48.67 160.11 48.67 160.44 48.81 160.78 49.01 160.97 49.34 161.12 50.4 161.5 50.73 161.64 50.92 161.84 51.07 162.17 51.07 162.7 50.73 163.04 50.2 163.23 49.53 163.23 49.01 163.04 48.67 162.7"/><path class="a" d="M54.57,160.11l-.39-.39-.48-.14c-1-.15-2.23.28-1.25,1.39l.34.14,1.06.39.33.14.19.19.19.33v.53l-.39.33-.48.19H53l-.53-.19-.33-.33"/><line class="a" x1="55.78" y1="159.58" x2="55.78" y2="163.23"/><polyline class="a" points="56.64 159.58 58.03 163.23 59.42 159.58"/><polyline class="a" points="59.76 163.23 61.16 159.58 62.55 163.23"/><line class="a" x1="60.29" y1="161.98" x2="62.02" y2="161.98"/><path class="a" d="M11.63,165.63l-.39.39a3.77,3.77,0,0,0,0,4.85l.39.34"/><line class="a" x1="12.84" y1="167.55" x2="12.84" y2="170"/><polyline class="a" points="12.84 168.27 13.36 167.74 13.7 167.55 14.23 167.55 14.56 167.74 14.76 168.27 14.76 170"/><polyline class="a" points="14.76 168.27 15.28 167.74 15.62 167.55 16.15 167.55 16.49 167.74 16.68 168.27 16.68 170"/><path class="a" d="M17.88,165.63l.33.39a3.73,3.73,0,0,1,0,4.85l-.33.34"/><polygon class="a" points="10.39 144.21 10.39 140.56 11.63 140.56 12.16 140.75 12.5 141.09 12.64 141.42 12.84 141.95 12.84 142.81 12.64 143.34 12.5 143.68 12.16 144.01 11.63 144.21 10.39 144.21"/><line class="a" x1="14.04" y1="140.56" x2="14.04" y2="144.21"/><polyline class="a" points="17.69 141.09 17.35 140.75 16.82 140.56 16.15 140.56 15.62 140.75 15.28 141.09 15.28 141.42 15.43 141.76 15.62 141.95 15.96 142.14 17.01 142.48 17.35 142.62 17.54 142.81 17.69 143.15 17.69 143.68 17.35 144.02 16.82 144.21 16.15 144.21 15.62 144.02 15.28 143.68"/><line class="a" x1="19.61" y1="140.56" x2="19.61" y2="144.21"/><line class="a" x1="18.41" y1="140.56" x2="20.86" y2="140.56"/><polygon class="a" points="21.86 143.87 21.72 144.02 21.86 144.21 22.06 144.02 21.86 143.87"/><polyline class="a" points="27.1 144.21 27.1 140.56 28.64 140.56 29.16 140.75 29.36 140.9 29.5 141.23 29.5 141.76 29.36 142.15 29.16 142.29 28.64 142.48 27.1 142.48"/><polyline class="a" points="30.22 144.21 31.62 140.56 33.01 144.21"/><line class="a" x1="30.75" y1="143.01" x2="32.48" y2="143.01"/><polyline class="a" points="33.87 144.21 33.87 140.56 35.46 140.56 35.94 140.75 36.13 140.9 36.32 141.23 36.32 141.61 36.13 141.95 35.94 142.15 35.46 142.29 33.87 142.29"/><line class="a" x1="35.07" y1="142.29" x2="36.32" y2="144.21"/><polyline class="a" points="37.33 144.21 39.78 140.56 37.33 140.56"/><line class="a" x1="37.33" y1="144.21" x2="39.78" y2="144.21"/><line class="a" x1="40.98" y1="140.56" x2="40.98" y2="144.21"/><polyline class="a" points="41.85 144.21 43.24 140.56 44.63 144.21"/><line class="a" x1="42.37" y1="143.01" x2="44.1" y2="143.01"/><polyline class="a" points="45.5 140.56 45.5 144.21 47.61 144.21"/><polyline class="a" points="48.48 144.21 48.48 140.56 50.73 140.56"/><line class="a" x1="48.48" y1="142.29" x2="49.87" y2="142.29"/><line class="a" x1="48.48" y1="144.21" x2="50.73" y2="144.21"/><path class="a" d="M11.64,146.66l-.39.33a3.76,3.76,0,0,0,0,4.85l.39.34"/><line class="a" x1="12.84" y1="148.53" x2="12.84" y2="150.98"/><polyline class="a" points="12.84 149.25 13.36 148.72 13.7 148.53 14.23 148.53 14.56 148.72 14.76 149.25 14.76 150.98"/><polyline class="a" points="14.76 149.25 15.29 148.72 15.62 148.53 16.15 148.53 16.49 148.72 16.68 149.25 16.68 150.98"/><path class="a" d="M17.88,146.66l.33.33a3.74,3.74,0,0,1,0,4.85l-.33.33"/><polyline class="a" points="10.39 128.94 11.78 132.59 13.17 128.94"/><polyline class="a" points="14.04 132.59 14.04 128.93 16.29 128.93"/><line class="a" x1="14.04" y1="130.71" x2="15.43" y2="130.71"/><line class="a" x1="14.04" y1="132.58" x2="16.29" y2="132.58"/><polyline class="a" points="17.35 132.59 17.35 128.93 18.93 128.93 19.47 129.13 19.61 129.32 19.8 129.66 19.8 129.99 19.61 130.33 19.47 130.52 18.93 130.71 17.35 130.71"/><line class="a" x1="18.55" y1="130.71" x2="19.8" y2="132.59"/><line class="a" x1="21.72" y1="128.93" x2="21.72" y2="132.59"/><line class="a" x1="20.47" y1="128.93" x2="22.92" y2="128.93"/><line class="a" x1="23.79" y1="128.93" x2="23.79" y2="132.59"/><path class="a" d="M27.63,129.85l-.19-.39-.33-.33a1.24,1.24,0,0,0-1.92.72l-.19.48v.91c.31,1,1,1.76,2.11,1.2l.33-.34.19-.38"/><line class="a" x1="28.83" y1="128.93" x2="28.83" y2="132.59"/><path class="a" d="M11.44,181.48l-.33.15-.34.38a2.11,2.11,0,0,0,.67,3.12h.72l.33-.19.34-.33.19-.34.15-.53v-.86l-.15-.53-.19-.34-.34-.38-.33-.15Z"/><line class="a" x1="11.97" y1="184.41" x2="13.03" y2="185.47"/><polyline class="a" points="14.42 181.48 14.42 184.08 14.57 184.6 14.9 184.94 15.43 185.13 15.81 185.13 16.3 184.94 16.68 184.6 16.82 184.08 16.82 181.48"/><path class="a" d="M19.08,181.48l-.33.15-.34.38c-.64.91-.49,2.67.67,3.12h.72l.33-.19a2.18,2.18,0,0,0,0-3.31l-.33-.15Z"/><line class="a" x1="22.73" y1="181.48" x2="22.73" y2="185.13"/><line class="a" x1="21.53" y1="181.48" x2="23.98" y2="181.48"/><polyline class="a" points="24.32 185.13 25.71 181.48 27.1 185.13"/><line class="a" x1="24.84" y1="183.88" x2="26.57" y2="183.88"/><line class="a" x1="32.29" y1="181.48" x2="32.29" y2="185.13"/><line class="a" x1="31.09" y1="181.48" x2="33.54" y2="181.48"/><polyline class="a" points="34.4 185.13 34.4 181.48 36.66 181.48"/><line class="a" x1="34.4" y1="183.21" x2="35.8" y2="183.21"/><line class="a" x1="34.4" y1="185.13" x2="36.66" y2="185.13"/><polyline class="a" points="37.72 185.13 37.72 181.48 39.25 181.48 39.78 181.63 39.97 181.82 40.12 182.15 40.12 182.49 39.97 182.87 39.78 183.02 39.25 183.21 37.72 183.21"/><line class="a" x1="38.92" y1="183.21" x2="40.12" y2="185.13"/><polyline class="a" points="41.37 185.13 41.37 181.48 42.9 181.48 43.43 181.63 43.62 181.82 43.77 182.15 43.77 182.49 43.62 182.87 43.43 183.02 42.9 183.21 41.37 183.21"/><line class="a" x1="42.57" y1="183.21" x2="43.77" y2="185.13"/><polyline class="a" points="45.02 185.13 45.02 181.48 47.27 181.48"/><line class="a" x1="45.02" y1="183.21" x2="46.41" y2="183.21"/><line class="a" x1="45.02" y1="185.13" x2="47.27" y2="185.13"/><polyline class="a" points="48.28 185.13 48.28 181.48 50.73 185.13 50.73 181.48"/><path class="a" d="M53,181.48l-.33.15-.34.38a2.11,2.11,0,0,0,.67,3.12h.72l.33-.19.34-.33.19-.34.15-.53v-.86l-.15-.53-.19-.34-.34-.38-.33-.15Z"/><path class="a" d="M11.64,187.53l-.39.39a3.77,3.77,0,0,0,0,4.85l.39.34"/><line class="a" x1="12.84" y1="189.45" x2="12.84" y2="191.9"/><polyline class="a" points="12.84 190.17 13.36 189.65 13.7 189.45 14.23 189.45 14.56 189.65 14.76 190.17 14.76 191.9"/><polyline class="a" points="14.76 190.17 15.29 189.65 15.62 189.45 16.15 189.45 16.49 189.65 16.68 190.17 16.68 191.9"/><polyline class="a" points="23.45 189.98 23.26 189.65 22.73 189.45 22.2 189.45 21.72 189.65 21.53 189.98 21.72 190.32 22.06 190.51 22.92 190.66 23.26 190.85 23.45 191.18 23.45 191.38 23.26 191.71 22.73 191.9 22.2 191.9 21.72 191.71 21.53 191.38"/><polygon class="a" points="24.84 191.57 24.65 191.71 24.84 191.9 24.99 191.71 24.84 191.57"/><line class="a" x1="26.38" y1="188.25" x2="26.38" y2="191.9"/><polygon class="a" points="27.97 191.57 27.77 191.71 27.97 191.9 28.16 191.71 27.97 191.57"/><line class="a" x1="29.5" y1="189.45" x2="29.5" y2="191.9"/><polyline class="a" points="29.5 190.17 30.03 189.65 30.42 189.45 30.9 189.45 31.28 189.65 31.43 190.17 31.43 191.9"/><polyline class="a" points="31.42 190.17 31.95 189.65 32.29 189.45 32.82 189.45 33.15 189.65 33.35 190.17 33.35 191.9"/><polygon class="a" points="34.93 191.57 34.74 191.71 34.93 191.9 35.08 191.71 34.93 191.57"/><path class="a" d="M36.32,187.53l.33.39a3.77,3.77,0,0,1,0,4.85l-.33.34"/><line class="b" x1="162.4" y1="34.27" x2="161.44" y2="34.41"/><line class="c" x1="164.23" y1="33.98" x2="166.92" y2="33.59"/><line class="b" x1="204.24" y1="33.59" x2="209.67" y2="36.57"/><line class="a" x1="337.67" y1="41.71" x2="358.71" y2="42.28"/><line class="a" x1="269.95" y1="32.92" x2="269.95" y2="121.3"/><line class="a" x1="314.23" y1="23.27" x2="314.23" y2="121.3"/><line class="a" x1="321.92" y1="23.27" x2="321.92" y2="121.3"/><line class="a" x1="337.67" y1="41.71" x2="337.67" y2="121.3"/><polyline class="a" points="165.43 128.69 165.19 128.26 164.52 128.02 164.09 128.02 163.41 128.26 162.98 128.94 162.74 130.04 162.74 131.19 162.98 132.06 163.41 132.54 164.09 132.73 164.33 132.73 165 132.54 165.43 132.06 165.67 131.38 165.67 131.19 165.43 130.52 165 130.04 164.33 129.85 164.09 129.85 163.41 130.04 162.98 130.52 162.74 131.19"/><polyline class="a" points="216.15 132.73 218.41 128.02 215.24 128.02"/><path class="a" d="M269.51,128l-.67.24-.19.43v.48l.19.43.48.24.87.19.67.24.48.43.19.48v.67l-.19.43-.24.24-.67.19h-.91l-.67-.19c-2.19-3.39,3.88-1.68,2.26-4.27l-.67-.24Z"/><polyline class="a" points="309.72 129.61 309.48 130.28 309.04 130.71 308.37 130.95 308.13 130.95 307.46 130.71 307.03 130.28 306.79 129.61 306.79 129.37 307.03 128.69 307.46 128.26 308.13 128.02 308.37 128.02 309.04 128.26 309.48 128.69 309.72 129.61 309.72 130.71 309.48 131.86 309.04 132.54 308.37 132.73 307.94 132.73 307.27 132.54 307.03 132.06"/><polyline class="a" points="311.16 128.93 311.59 128.69 312.26 128.02 312.26 132.73"/><polygon class="a" points="316.3 128.02 315.62 128.26 315.19 128.94 314.95 130.04 314.95 130.71 315.19 131.87 315.62 132.53 316.3 132.73 316.78 132.73 317.45 132.53 317.88 131.87 318.12 130.71 318.12 130.04 317.88 128.94 317.45 128.26 316.78 128.02 316.3 128.02"/><polyline class="a" points="319.71 128.93 320.19 128.69 320.86 128.02 320.86 132.73"/><polyline class="a" points="324.22 128.93 324.65 128.69 325.33 128.02 325.33 132.73"/><polyline class="a" points="334.16 128.93 334.6 128.69 335.27 128.02 335.27 132.73"/><polyline class="a" points="338.2 129.17 338.2 128.93 338.44 128.5 338.63 128.26 339.11 128.02 339.98 128.02 340.45 128.26 340.65 128.5 340.89 128.93 340.89 129.37 340.65 129.85 340.21 130.52 337.96 132.73 341.13 132.73"/><line class="a" x1="164.18" y1="139.45" x2="164.18" y2="154.01"/><line class="a" x1="216.82" y1="139.45" x2="216.82" y2="154.01"/><line class="a" x1="308.28" y1="139.45" x2="308.28" y2="154.01"/><line class="a" x1="314.23" y1="139.45" x2="314.23" y2="154.01"/><line class="a" x1="321.92" y1="139.45" x2="321.92" y2="154.01"/><line class="a" x1="337.67" y1="139.45" x2="337.67" y2="154.01"/><polyline class="a" points="149.72 144.5 151.65 144.5 150.59 145.89 151.12 145.89 151.45 146.08 151.65 146.22 151.84 146.75 151.84 147.09 151.65 147.62 151.31 147.95 150.78 148.15 150.25 148.15 149.72 147.95 149.58 147.81 149.39 147.43"/><polyline class="a" points="242.42 144.5 240.69 144.5 240.55 146.08 240.69 145.89 241.22 145.7 241.75 145.7 242.28 145.89 242.62 146.22 242.81 146.75 242.81 147.09 242.62 147.62 242.28 147.95 241.75 148.15 241.22 148.15 240.69 147.95 240.55 147.81 240.36 147.43"/><polygon class="a" points="244.15 147.81 244.01 147.96 244.15 148.15 244.35 147.96 244.15 147.81"/><polyline class="a" points="247.8 145.7 247.61 146.22 247.28 146.56 246.75 146.75 246.6 146.75 246.07 146.56 245.74 146.22 245.55 145.7 245.55 145.55 245.74 145.02 246.07 144.69 246.6 144.5 246.75 144.5 247.28 144.69 247.61 145.02 247.8 145.7 247.8 146.56 247.61 147.43 247.28 147.95 246.75 148.15 246.41 148.15 245.88 147.95 245.74 147.62"/><path class="a" d="M187.52,144.5H185.8l-.19,1.58.19-.19c3-1.2,2.54,3.61-.19,1.92l-.14-.39"/><polygon class="a" points="189.25 147.81 189.06 147.96 189.25 148.15 189.4 147.96 189.25 147.81"/><polygon class="a" points="191.51 144.5 190.98 144.69 190.79 145.02 190.79 145.36 190.98 145.7 191.32 145.89 191.99 146.08 192.52 146.22 192.85 146.56 193.05 146.95 193.05 147.43 192.85 147.81 192.71 147.95 192.19 148.15 191.51 148.15 190.98 147.95 190.79 147.81 190.65 147.43 190.65 146.95 190.79 146.56 191.13 146.22 191.66 146.08 192.38 145.89 192.71 145.7 192.85 145.36 192.85 145.02 192.71 144.69 192.19 144.5 191.51 144.5"/><polyline class="a" points="287.19 144.5 285.46 146.95 288.06 146.95"/><line class="a" x1="287.19" y1="144.5" x2="287.19" y2="148.15"/><polygon class="a" points="289.25 147.81 289.06 147.96 289.25 148.15 289.4 147.96 289.25 147.81"/><polyline class="a" points="290.79 145.36 290.79 145.22 290.99 144.83 291.13 144.69 291.51 144.5 292.19 144.5 292.52 144.69 292.71 144.83 292.86 145.22 292.86 145.55 292.71 145.89 292.38 146.42 290.65 148.15 293.05 148.15"/><polygon class="a" points="309.48 149.59 309.62 150.12 310.15 150.45 311.01 150.64 311.54 150.64 312.41 150.45 312.93 150.12 313.08 149.59 313.08 149.25 312.93 148.72 312.41 148.39 311.54 148.25 311.01 148.25 310.15 148.39 309.62 148.72 309.48 149.25 309.48 149.59"/><polygon class="a" points="312.74 146.85 312.94 147 313.08 146.85 312.94 146.66 312.74 146.85"/><polyline class="a" points="313.08 144.78 309.48 143.06 309.48 145.46"/><polygon class="a" points="315.96 149.83 316.11 150.36 316.63 150.69 317.5 150.88 318.02 150.88 318.89 150.69 319.42 150.36 319.56 149.83 319.56 149.49 319.42 148.96 318.89 148.63 318.02 148.49 317.5 148.49 316.63 148.63 316.11 148.96 315.96 149.49 315.96 149.83"/><polygon class="a" points="319.23 147.09 319.42 147.24 319.56 147.09 319.42 146.9 319.23 147.09"/><path class="a" d="M316,144.83l.15.53.33.15h.39l.33-.15.14-.33.19-.72.19-.53.33-.34.34-.14h.53l.33.14.19.19.15.53v.67l-.15.53c-2.53,1.7-1.39-3-3.31-1.73l-.15.53Z"/><polyline class="a" points="326.05 145.22 326.38 145.02 326.91 144.5 326.91 148.15"/><polygon class="a" points="329.31 147.81 329.17 147.96 329.31 148.15 329.51 147.96 329.31 147.81"/><polyline class="a" points="331.38 148.15 333.11 144.5 330.7 144.5"/><polyline class="a" points="364.71 145.03 364.57 144.69 364.04 144.5 363.7 144.5 363.18 144.69 362.84 145.22 362.65 146.08 362.65 146.95 362.84 147.62 363.18 147.96 363.7 148.15 363.85 148.15 364.38 147.96 364.71 147.62 364.9 147.09 364.9 146.95 364.71 146.42 364.38 146.08 363.85 145.89 363.7 145.89 363.18 146.08 362.84 146.42 362.65 146.95"/><polygon class="a" points="366.3 147.81 366.1 147.96 366.3 148.15 366.44 147.96 366.3 147.81"/><polyline class="a" points="369.37 144.5 367.64 146.95 370.24 146.95"/><line class="a" x1="369.37" y1="144.5" x2="369.37" y2="148.15"/><polyline class="a" points="162.65 170.15 162.4 169.81 161.68 169.28 166.68 169.28"/><polygon class="a" points="161.68 166.3 161.92 166.83 162.65 167.12 163.85 167.31 164.57 167.31 165.72 167.12 166.44 166.83 166.68 166.3 166.68 165.97 166.44 165.49 165.72 165.15 164.57 164.96 163.85 164.96 162.65 165.15 161.92 165.49 161.68 165.97 161.68 166.3"/><polygon class="a" points="166.2 163.66 166.44 163.81 166.68 163.66 166.44 163.47 166.2 163.66"/><path class="a" d="M161.68,160.3V162l2.16.19-.24-.19c-1.63-3,5-2.39,2.59.19l-.48.14"/><polyline class="a" points="215.29 170.15 215.05 169.81 214.33 169.28 219.32 169.28"/><polyline class="a" points="215.05 165.15 214.57 165.3 214.33 165.82 214.33 166.16 214.57 166.64 215.29 166.97 216.44 167.12 217.64 167.12 218.6 166.97 219.08 166.64 219.32 166.16 219.32 165.97 219.08 165.49 218.6 165.15 217.88 164.96 217.64 164.96 216.92 165.15 216.44 165.49 216.2 165.97 216.2 166.16 216.44 166.64 216.92 166.97 217.64 167.12"/><polygon class="a" points="218.84 163.66 219.08 163.81 219.32 163.66 219.08 163.47 218.84 163.66"/><polyline class="a" points="215.53 162.17 215.29 162.17 214.81 161.98 214.57 161.84 214.33 161.5 214.33 160.83 214.57 160.49 214.81 160.3 215.29 160.16 215.77 160.16 216.2 160.3 216.92 160.64 219.32 162.32 219.32 159.96"/><polyline class="a" points="268.65 169.71 268.41 169.71 267.93 169.57 267.69 169.38 267.5 169.04 267.5 168.37 267.69 168.08 267.93 167.89 268.41 167.74 268.89 167.74 269.37 167.89 270.09 168.22 272.44 169.91 272.44 167.55"/><polyline class="a" points="268.65 166.4 268.41 166.4 267.93 166.21 267.69 166.06 267.5 165.72 267.5 165.06 267.69 164.72 267.93 164.57 268.41 164.38 268.89 164.38 269.37 164.57 270.09 164.91 272.44 166.54 272.44 164.24"/><polygon class="a" points="272.01 162.89 272.25 163.09 272.44 162.89 272.25 162.75 272.01 162.89"/><polyline class="a" points="268.41 161.07 268.17 160.73 267.5 160.25 272.44 160.25"/><polyline class="a" points="305.78 170.24 305.54 170.24 305.1 170.05 304.86 169.91 304.62 169.57 304.62 168.9 304.86 168.56 305.1 168.37 305.54 168.22 306.02 168.22 306.5 168.37 307.22 168.71 309.62 170.39 309.62 168.08"/><polyline class="a" points="305.35 164.91 304.86 165.06 304.62 165.58 304.62 165.87 304.86 166.4 305.54 166.73 306.74 166.88 307.94 166.88 308.9 166.73 309.38 166.4 309.62 165.87 309.62 165.72 309.38 165.25 308.9 164.91 308.18 164.72 307.94 164.72 307.22 164.91 306.74 165.25 306.5 165.72 306.5 165.87 306.74 166.4 307.22 166.73 307.94 166.88"/><polygon class="a" points="309.14 163.42 309.38 163.57 309.62 163.42 309.38 163.23 309.14 163.42"/><polyline class="a" points="304.63 161.74 304.63 159.92 306.5 160.93 306.5 160.4 306.74 160.06 306.98 159.92 307.7 159.72 308.18 159.72 308.9 159.92 309.38 160.25 309.62 160.73 309.62 161.21 309.38 161.74 309.14 161.88 308.66 162.07"/><polyline class="a" points="312.93 167.74 312.69 167.74 312.21 167.55 311.97 167.41 311.73 167.07 311.73 166.4 311.97 166.06 312.21 165.87 312.69 165.73 313.17 165.73 313.65 165.87 314.38 166.21 316.73 167.89 316.73 165.58"/><polyline class="a" points="316.73 163.9 311.74 162.22 311.74 164.57"/><polyline class="a" points="320.57 170.24 320.38 170.24 319.9 170.05 319.66 169.91 319.42 169.57 319.42 168.9 319.66 168.56 319.9 168.37 320.38 168.22 320.81 168.22 321.29 168.37 322.01 168.71 324.42 170.39 324.42 168.08"/><polyline class="a" points="324.41 166.4 319.42 164.72 319.42 167.07"/><polygon class="a" points="323.93 163.42 324.17 163.57 324.41 163.42 324.17 163.23 323.93 163.42"/><path class="a" d="M319.42,161.21l.24.53.48.15h.43l.48-.15.24-.33.24-.67.24-.48.48-.33.48-.19h.72l.48.19.24.14.24.53v.63l-.24.53c-3.52,1.65-1.82-2.8-4.51-1.68l-.24.53Z"/><polyline class="a" points="336.32 170.24 336.08 170.24 335.6 170.05 335.36 169.91 335.17 169.57 335.17 168.9 335.36 168.56 335.6 168.37 336.08 168.22 336.56 168.22 337.05 168.37 337.77 168.71 340.12 170.39 340.12 168.08"/><polyline class="a" points="336.81 164.91 337.53 165.06 338.01 165.39 338.25 165.87 338.25 166.06 338.01 166.54 337.53 166.88 336.81 167.07 336.56 167.07 335.84 166.88 335.36 166.54 335.17 166.06 335.17 165.87 335.36 165.39 335.84 165.06 336.81 164.91 338.01 164.91 339.21 165.06 339.93 165.39 340.12 165.87 340.12 166.21 339.93 166.73 339.45 166.88"/><polygon class="a" points="339.69 163.42 339.93 163.57 340.12 163.42 339.93 163.23 339.69 163.42"/><polyline class="a" points="335.85 159.91 335.36 160.06 335.17 160.59 335.17 160.92 335.36 161.4 336.08 161.74 337.29 161.88 338.49 161.88 339.45 161.74 339.93 161.4 340.12 160.92 340.12 160.73 339.93 160.25 339.45 159.91 338.73 159.72 338.49 159.72 337.77 159.91 337.29 160.25 337.05 160.73 337.05 160.92 337.29 161.4 337.77 161.74 338.49 161.88"/><polyline class="a" points="162.65 195.27 162.4 194.98 161.68 194.45 166.68 194.45"/><path class="a" d="M161.68,191.62l.24.53.48.15h.48l.48-.15.24-.33.24-.67.24-.53.48-.29.48-.19h.67l.48.19.24.14.24.48v.67l-.24.53c-3.45,1.65-1.77-2.82-4.51-1.68l-.24.48Z"/><polyline class="a" points="163.37 186.96 164.09 187.15 164.57 187.48 164.81 187.96 164.81 188.11 164.57 188.64 164.09 188.97 163.37 189.12 163.13 189.12 162.4 188.97 161.92 188.64 161.68 188.11 161.68 187.96 161.92 187.48 162.4 187.15 163.37 186.96 164.57 186.96 165.72 187.15 166.44 187.48 166.68 187.96 166.68 188.3 166.44 188.78 165.96 188.97"/><polygon class="a" points="166.2 185.47 166.44 185.66 166.68 185.47 166.44 185.32 166.2 185.47"/><polyline class="a" points="162.4 181.96 161.92 182.15 161.68 182.63 161.68 182.97 161.92 183.45 162.65 183.78 163.85 183.98 165.05 183.98 165.96 183.78 166.44 183.45 166.68 182.97 166.68 182.83 166.44 182.3 165.96 181.96 165.24 181.81 165.05 181.81 164.33 181.96 163.85 182.3 163.61 182.83 163.61 182.97 163.85 183.45 164.33 183.78 165.05 183.98"/><polyline class="a" points="162.88 180.66 162.64 180.66 162.16 180.47 161.92 180.33 161.68 179.99 161.68 179.32 161.92 178.98 162.16 178.79 162.64 178.65 163.13 178.65 163.6 178.79 164.33 179.13 166.68 180.81 166.68 178.5"/><polyline class="a" points="215.29 195.27 215.05 194.98 214.33 194.45 219.32 194.45"/><path class="a" d="M214.33,191.62l.24.53.48.15h.48l.48-.15.19-.33.24-.67.24-.53.48-.29.48-.19h.72l.48.19.24.14.24.48v.67l-.24.53c-3.58,1.64-1.78-2.82-4.51-1.68l-.24.48Z"/><polyline class="a" points="216.01 186.96 216.68 187.15 217.16 187.48 217.4 187.96 217.4 188.11 217.16 188.64 216.68 188.97 216.01 189.12 215.77 189.12 215.05 188.97 214.57 188.64 214.33 188.11 214.33 187.96 214.57 187.48 215.05 187.15 216.01 186.96 217.16 186.96 218.36 187.15 219.08 187.48 219.32 187.96 219.32 188.3 219.08 188.78 218.6 188.97"/><polygon class="a" points="218.84 185.47 219.08 185.66 219.32 185.47 219.08 185.32 218.84 185.47"/><polyline class="a" points="215.05 181.96 214.57 182.15 214.33 182.63 214.33 182.97 214.57 183.45 215.29 183.78 216.44 183.98 217.64 183.98 218.6 183.78 219.08 183.45 219.32 182.97 219.32 182.83 219.08 182.3 218.6 181.96 217.88 181.81 217.64 181.81 216.92 181.96 216.44 182.3 216.2 182.83 216.2 182.97 216.44 183.45 216.92 183.78 217.64 183.98"/><polygon class="a" points="214.33 179.99 214.57 180.47 215.05 180.66 215.53 180.66 216.01 180.47 216.2 180.14 216.44 179.46 216.68 178.98 217.16 178.65 217.64 178.5 218.36 178.5 218.84 178.65 219.08 178.79 219.32 179.32 219.32 179.99 219.08 180.47 218.84 180.66 218.36 180.81 217.64 180.81 217.16 180.66 216.68 180.33 216.44 179.8 216.2 179.13 216.01 178.79 215.53 178.65 215.05 178.65 214.57 178.79 214.33 179.32 214.33 179.99"/><polyline class="a" points="268.41 195.36 268.17 195.03 267.5 194.55 272.44 194.55"/><polygon class="a" points="267.5 191.71 267.69 192.19 268.17 192.38 268.65 192.38 269.13 192.19 269.37 191.86 269.61 191.23 269.85 190.7 270.33 190.37 270.81 190.22 271.53 190.22 272.01 190.37 272.25 190.56 272.44 191.04 272.44 191.71 272.25 192.19 272.01 192.38 271.53 192.53 270.81 192.53 270.33 192.38 269.85 192.05 269.61 191.56 269.37 190.9 269.13 190.56 268.65 190.37 268.17 190.37 267.69 190.56 267.5 191.04 267.5 191.71"/><polyline class="a" points="269.13 187.05 269.85 187.2 270.33 187.53 270.57 188.06 270.57 188.21 270.33 188.73 269.85 189.07 269.13 189.21 268.89 189.21 268.17 189.07 267.69 188.73 267.5 188.21 267.5 188.06 267.69 187.53 268.17 187.2 269.13 187.05 270.33 187.05 271.53 187.2 272.25 187.53 272.44 188.06 272.44 188.4 272.25 188.88 271.77 189.07"/><polygon class="a" points="272.01 185.56 272.25 185.71 272.44 185.56 272.25 185.37 272.01 185.56"/><polyline class="a" points="272.44 183.55 267.5 181.91 267.5 184.22"/><polyline class="a" points="267.5 179.22 270.81 180.91 270.81 178.41"/><line class="a" x1="267.5" y1="179.22" x2="272.44" y2="179.22"/><polyline class="a" points="306.16 195.27 305.92 194.98 305.25 194.45 310.19 194.45"/><path class="a" d="M305.25,191.62l.19.53.48.15h.48l.48-.15.24-.33.24-.67.24-.53.48-.29.48-.19h.72l.48.19.24.14.19.48v.67l-.19.53c-3.53,1.65-1.8-2.81-4.56-1.68l-.19.48Z"/><polyline class="a" points="306.88 186.96 307.6 187.15 308.08 187.48 308.32 187.96 308.32 188.11 308.08 188.64 307.6 188.97 306.88 189.12 306.64 189.12 305.92 188.97 305.44 188.64 305.25 188.11 305.25 187.96 305.44 187.48 305.92 187.15 306.88 186.96 308.08 186.96 309.28 187.15 310 187.48 310.19 187.96 310.19 188.3 310 188.78 309.52 188.97"/><polygon class="a" points="309.76 185.47 310 185.66 310.2 185.47 310 185.32 309.76 185.47"/><polyline class="a" points="310.2 183.45 305.25 181.81 305.25 184.12"/><path class="a" d="M305.25,180l.19.48.48.19c2.15.36.59-3.27,4.08-1.87l.19.53V180l-.19.48-.24.19-.48.14h-.72l-.48-.14-.48-.34-.24-.53-.24-.67-.24-.33-.48-.14h-.48l-.48.14-.19.53Z"/><polyline class="a" points="312.6 194.78 312.36 194.45 311.68 193.97 316.68 193.97"/><polyline class="a" points="313.32 189.79 314.04 189.98 314.52 190.32 314.76 190.8 314.76 190.94 314.52 191.47 314.04 191.81 313.32 191.95 313.08 191.95 312.36 191.81 311.92 191.47 311.68 190.94 311.68 190.8 311.92 190.32 312.36 189.98 313.32 189.79 314.52 189.79 315.72 189.98 316.44 190.32 316.68 190.8 316.68 191.13 316.44 191.61 315.96 191.81"/><polygon class="a" points="311.69 187.63 311.93 188.11 312.6 188.44 313.8 188.64 314.52 188.64 315.72 188.44 316.44 188.11 316.68 187.63 316.68 187.29 316.44 186.81 315.72 186.47 314.52 186.28 313.8 186.28 312.6 186.47 311.93 186.81 311.69 187.29 311.69 187.63"/><polygon class="a" points="316.2 184.99 316.44 185.13 316.68 184.99 316.44 184.79 316.2 184.99"/><path class="a" d="M311.68,182.83l.24.48.43.15h.48l.48-.15.24-.33.24-.67.24-.48.48-.33.48-.19h.72l.48.19.24.14.24.53v.67l-.24.48c-3.6,1.63-1.78-2.8-4.51-1.68l-.24.53Z"/><polyline class="a" points="312.6 179.8 312.36 179.46 311.68 178.98 316.68 178.98"/><polyline class="a" points="319.95 194.78 319.71 194.45 319.03 193.97 324.03 193.97"/><polyline class="a" points="320.67 189.79 321.39 189.98 321.87 190.32 322.11 190.8 322.11 190.94 321.87 191.47 321.39 191.81 320.67 191.95 320.43 191.95 319.71 191.81 319.27 191.47 319.03 190.94 319.03 190.8 319.27 190.32 319.71 189.98 320.67 189.79 321.87 189.79 323.07 189.98 323.79 190.32 324.03 190.8 324.03 191.13 323.79 191.61 323.31 191.81"/><polygon class="a" points="319.03 187.63 319.27 188.11 319.95 188.44 321.15 188.64 321.87 188.64 323.07 188.44 323.79 188.11 324.03 187.63 324.03 187.29 323.79 186.81 323.07 186.47 321.87 186.28 321.15 186.28 319.95 186.47 319.27 186.81 319.03 187.29 319.03 187.63"/><polygon class="a" points="323.55 184.99 323.79 185.13 324.03 184.99 323.79 184.79 323.55 184.99"/><path class="a" d="M319,182.83l.24.48.43.15h.48l.48-.15.24-.33.24-.67.24-.48.48-.33.48-.19h.72l.48.19.24.14.24.53v.67l-.24.48c-3.6,1.63-1.79-2.8-4.51-1.68l-.24.53Z"/><polyline class="a" points="319.95 179.8 319.71 179.46 319.03 178.98 324.03 178.98"/><polyline class="a" points="335.75 195.26 335.51 194.98 334.83 194.45 339.83 194.45"/><path class="a" d="M334.84,191.62l.24.53.43.15H336l.48-.15.24-.33.24-.67.24-.53.48-.29.48-.19h.72l.48.19.24.14.24.48v.67l-.24.53c-3.52,1.65-1.83-2.81-4.51-1.68l-.24.48Z"/><polygon class="a" points="334.84 188.3 335.08 188.78 335.51 188.97 335.99 188.97 336.47 188.78 336.71 188.45 336.95 187.82 337.19 187.29 337.67 186.96 338.15 186.81 338.87 186.81 339.35 186.96 339.59 187.15 339.83 187.63 339.83 188.3 339.59 188.78 339.35 188.97 338.87 189.12 338.15 189.12 337.67 188.97 337.19 188.64 336.95 188.11 336.71 187.49 336.47 187.15 335.99 186.96 335.51 186.96 335.08 187.15 334.84 187.63 334.84 188.3"/><polygon class="a" points="339.35 185.47 339.59 185.66 339.83 185.47 339.59 185.32 339.35 185.47"/><polyline class="a" points="339.83 183.45 334.84 181.81 334.84 184.12"/><polyline class="a" points="339.83 180.13 334.84 178.5 334.84 180.81"/><polyline class="a" points="252.9 21.49 252.9 18.8 254.05 18.8 254.43 18.95 254.58 19.09 254.67 19.33 254.67 19.57 254.58 19.86 254.43 19.95 254.05 20.09 252.9 20.09"/><line class="a" x1="253.81" y1="20.1" x2="254.67" y2="21.49"/><line class="a" x1="255.58" y1="18.8" x2="255.58" y2="21.49"/><polyline class="a" points="256.59 21.49 256.59 18.8 257.75 18.8 258.13 18.95 258.27 19.09 258.37 19.33 258.37 19.71 258.27 19.95 258.13 20.09 257.75 20.24 256.59 20.24"/><path class="a" d="M259.91,18.8l-.24.15-.24.24a1.55,1.55,0,0,0,.48,2.3h.53l.24-.15a1.59,1.59,0,0,0,0-2.4l-.24-.15Z"/><polyline class="a" points="262.07 21.49 262.07 18.8 263.22 18.8 263.6 18.95 263.75 19.09 263.89 19.33 263.89 19.57 263.75 19.86 263.6 19.95 263.22 20.09 262.07 20.09"/><line class="a" x1="262.98" y1="20.1" x2="263.9" y2="21.49"/><line class="a" x1="265.29" y1="18.8" x2="265.29" y2="21.49"/><line class="a" x1="264.37" y1="18.8" x2="266.15" y2="18.8"/><path class="a" d="M267.45,18.8l-.24.15-.29.24a1.6,1.6,0,0,0,.53,2.3H268l.24-.15a1.57,1.57,0,0,0,0-2.4L268,18.8Z"/><line class="a" x1="269.61" y1="19.95" x2="271.91" y2="19.95"/><line class="a" x1="269.61" y1="20.72" x2="271.91" y2="20.72"/><polyline class="a" points="273.16 19.33 273.45 19.18 273.84 18.8 273.84 21.49"/><polygon class="a" points="276.14 18.8 275.76 18.95 275.47 19.33 275.37 19.95 275.37 20.34 275.47 20.96 275.76 21.34 276.14 21.49 276.38 21.49 276.77 21.34 277.01 20.96 277.15 20.34 277.15 19.95 277.01 19.33 276.77 18.95 276.38 18.8 276.14 18.8"/><polygon class="a" points="278.16 21.25 278.01 21.34 278.16 21.49 278.3 21.34 278.16 21.25"/><polyline class="a" points="280.85 19.18 280.7 18.94 280.32 18.8 280.08 18.8 279.69 18.94 279.45 19.33 279.31 19.95 279.31 20.63 279.45 21.11 279.69 21.34 280.08 21.49 280.22 21.49 280.56 21.34 280.85 21.11 280.94 20.72 280.94 20.63 280.85 20.24 280.56 19.95 280.22 19.86 280.08 19.86 279.69 19.95 279.45 20.24 279.31 20.63"/><path class="a" d="M283.25,18.8H282L281.86,20l.15-.1c2.21-.89,1.9,2.62-.15,1.39l-.14-.29"/><line class="a" x1="287.09" y1="19.71" x2="287.09" y2="21.49"/><polyline class="a" points="287.09 20.24 287.48 19.85 287.72 19.71 288.1 19.71 288.34 19.85 288.49 20.24 288.49 21.49"/><polyline class="a" points="288.49 20.24 288.87 19.85 289.11 19.71 289.49 19.71 289.78 19.85 289.88 20.24 289.88 21.49"/><line class="a" x1="292.33" y1="19.71" x2="292.33" y2="22.4"/><path class="a" d="M292.33,20.1l-.29-.24c-1.63-.85-1.63,2.34,0,1.49l.29-.24"/><polyline class="a" points="172.11 7.75 172.01 7.51 171.72 7.27 171.48 7.13 170.95 7.13 170.71 7.27 170.47 7.51 170.33 7.75 170.18 8.14 170.18 8.81 170.33 9.19 170.47 9.43 170.71 9.67 170.95 9.81 171.48 9.81 171.72 9.67 172.01 9.43 172.11 9.19"/><polyline class="a" points="172.63 9.82 173.64 7.13 174.65 9.82"/><line class="a" x1="173.02" y1="8.9" x2="174.27" y2="8.9"/><polyline class="a" points="174.94 7.13 175.95 9.82 176.96 7.13"/><polygon class="a" points="178.25 7.13 177.97 7.27 177.73 7.51 177.58 7.75 177.49 8.14 177.49 8.81 177.58 9.19 177.73 9.43 177.97 9.67 178.25 9.82 178.74 9.82 179.02 9.67 179.26 9.43 179.41 9.19 179.5 8.81 179.5 8.14 179.41 7.75 179.26 7.51 179.02 7.27 178.74 7.13 178.25 7.13"/><line class="a" x1="180.42" y1="8.28" x2="182.72" y2="8.28"/><line class="a" x1="180.42" y1="9.05" x2="182.72" y2="9.05"/><polyline class="a" points="183.73 7.75 183.73 7.66 183.88 7.37 183.97 7.27 184.26 7.13 184.74 7.13 184.98 7.27 185.12 7.37 185.27 7.66 185.27 7.9 185.12 8.14 184.88 8.52 183.59 9.82 185.37 9.82"/><polygon class="a" points="186.42 9.53 186.27 9.68 186.42 9.82 186.51 9.68 186.42 9.53"/><path class="a" d="M188.05,7.13l-.39.15-.09.24v.24l.09.29.29.09.48.15.38.14.24.24.15.24v.39l-.15.24-.09.14-.39.15h-.53l-.39-.15c-1.17-1.9,2.09-.9,1.3-2.4l-.39-.15Z"/><polyline class="a" points="190.36 7.66 190.6 7.51 190.99 7.13 190.99 9.82"/><line class="a" x1="195.35" y1="8.04" x2="195.35" y2="9.82"/><polyline class="a" points="195.35 8.52 195.74 8.13 195.98 8.04 196.36 8.04 196.6 8.13 196.75 8.52 196.75 9.82"/><polyline class="a" points="196.75 8.52 197.13 8.13 197.37 8.04 197.75 8.04 198 8.13 198.14 8.52 198.14 9.82"/><line class="a" x1="200.54" y1="8.04" x2="200.54" y2="10.68"/><path class="a" d="M200.54,8.42l-.24-.29c-1.73-.74-1.6,2.37,0,1.54l.24-.24"/><polyline class="c" points="203.38 10.92 167.64 10.92 182.72 24.03"/><polyline class="b" points="250.11 22.4 294.35 22.4 294.63 32.68"/><line class="a" x1="308.28" y1="121.3" x2="308.28" y2="121.25"/><polyline class="a" points="136.95 121.3 164.18 121.3 164.18 33.98"/><line class="a" x1="216.82" y1="121.3" x2="216.82" y2="33.45"/><line class="a" x1="269.95" y1="139.45" x2="269.95" y2="154.01"/><line class="a" x1="308.28" y1="121.3" x2="308.28" y2="32.53"/><line class="b" x1="139.69" y1="34.27" x2="140.55" y2="34.22"/><line class="b" x1="155.54" y1="34.27" x2="154.29" y2="34.07"/><polyline class="a" points="210.05 29.75 210.05 27.06 211.21 27.06 211.59 27.21 211.73 27.35 211.83 27.59 211.83 27.97 211.73 28.21 211.59 28.36 211.21 28.5 210.05 28.5"/><polyline class="a" points="212.74 29.75 212.74 27.06 214.42 27.06"/><line class="a" x1="212.74" y1="28.36" x2="213.75" y2="28.36"/><line class="a" x1="212.74" y1="29.75" x2="214.42" y2="29.75"/><polyline class="a" points="215.19 29.75 215.19 27.06 216.97 29.75 216.97 27.06"/><polygon class="a" points="217.98 29.75 217.98 27.06 218.89 27.06 219.27 27.21 219.51 27.45 219.61 27.73 219.75 28.12 219.75 28.74 219.61 29.12 219.51 29.36 219.27 29.66 218.89 29.75 217.98 29.75"/><polyline class="a" points="220.67 29.75 220.67 27.06 222.3 27.06"/><line class="a" x1="220.67" y1="28.36" x2="221.67" y2="28.36"/><line class="a" x1="220.67" y1="29.75" x2="222.3" y2="29.75"/><polyline class="a" points="223.07 29.75 223.07 27.06 224.84 29.75 224.84 27.06"/><polyline class="a" points="225.76 29.75 227.53 27.06 225.76 27.06"/><line class="a" x1="225.76" y1="29.75" x2="227.53" y2="29.75"/><polyline class="a" points="228.06 29.75 229.07 27.06 230.08 29.75"/><line class="a" x1="228.45" y1="28.89" x2="229.7" y2="28.89"/><line class="a" x1="230.75" y1="28.21" x2="233.01" y2="28.21"/><line class="a" x1="230.75" y1="28.98" x2="233.01" y2="28.98"/><polyline class="a" points="234.31 27.59 234.55 27.44 234.93 27.06 234.93 29.75"/><line class="a" x1="238.77" y1="27.06" x2="236.47" y2="29.75"/><polyline class="a" points="237.09 27.06 237.38 27.35 237.38 27.59 237.24 27.83 237 27.97 236.71 27.97 236.47 27.73 236.47 27.45 236.61 27.21 236.85 27.06 237.09 27.06 237.38 27.21 237.77 27.35 238.15 27.35 238.53 27.21 238.77 27.06"/><polygon class="a" points="238.25 28.89 238 28.98 237.86 29.27 237.86 29.51 238.15 29.75 238.39 29.75 238.63 29.65 238.77 29.37 238.77 29.13 238.53 28.89 238.25 28.89"/><line class="a" x1="19.51" y1="115.73" x2="28.3" y2="115.73"/><polygon class="a" points="37.09 115.73 28.3 121.25 28.3 115.73 37.09 115.73"/><line class="a" x1="35.65" y1="116.64" x2="36.56" y2="115.72"/><line class="a" x1="28.83" y1="120.96" x2="34.02" y2="115.73"/><line class="a" x1="28.3" y1="118.85" x2="31.42" y2="115.72"/><line class="a" x1="28.3" y1="116.3" x2="28.88" y2="115.73"/><line class="a" x1="32.43" y1="118.66" x2="29.55" y2="115.73"/><line class="a" x1="30.89" y1="119.66" x2="28.3" y2="117.07"/><line class="a" x1="29.31" y1="120.63" x2="28.3" y2="119.66"/><line class="a" x1="34.02" y1="117.7" x2="32.09" y2="115.73"/><line class="a" x1="35.6" y1="116.69" x2="34.69" y2="115.73"/><line class="a" x1="19.51" y1="115.73" x2="28.3" y2="121.25"/><path class="a" d="M11.06,107.95l-.39.19-.38.38c-.67,1.1-.6,3,.77,3.56h.82l.39-.19a2.58,2.58,0,0,0,0-3.75l-.39-.19Z"/><line class="a" x1="11.68" y1="111.31" x2="12.84" y2="112.51"/><line class="a" x1="14.42" y1="109.34" x2="14.42" y2="112.08"/><polyline class="a" points="14.42 110.49 14.61 109.92 14.99 109.53 15.43 109.34 16 109.34"/><polygon class="a" points="16.77 108.14 17.01 108.33 17.21 108.14 17.01 107.94 16.77 108.14"/><line class="a" x1="17.01" y1="109.53" x2="17.01" y2="112.07"/><polyline class="a" points="19.75 107.94 19.36 107.94 18.98 108.14 18.79 108.71 18.79 112.08"/><line class="a" x1="18.17" y1="109.34" x2="19.56" y2="109.34"/><rect class="a" x="21.01" y="109.39" width="0.27" height="0.27" transform="translate(-71.26 47.03) rotate(-45)"/><rect class="a" x="21.01" y="111.75" width="0.27" height="0.27" transform="translate(-72.92 47.72) rotate(-45)"/><polyline class="a" points="27.48 108.71 27.87 108.52 28.45 107.94 28.45 112.08"/><polygon class="a" points="31.81 107.94 31.23 108.14 31.04 108.52 31.04 108.95 31.23 109.34 31.61 109.53 32.38 109.72 33.01 109.91 33.39 110.3 33.58 110.73 33.58 111.31 33.39 111.69 33.2 111.88 32.62 112.08 31.81 112.08 31.23 111.88 31.04 111.69 30.85 111.31 30.85 110.73 31.04 110.3 31.42 109.91 32 109.72 32.82 109.53 33.2 109.34 33.39 108.95 33.39 108.52 33.2 108.14 32.62 107.94 31.81 107.94"/><polygon class="a" points="35.94 107.94 35.36 108.14 34.98 108.71 34.78 109.72 34.78 110.3 34.98 111.31 35.36 111.88 35.94 112.08 36.37 112.08 36.95 111.88 37.33 111.31 37.52 110.3 37.52 109.72 37.33 108.71 36.95 108.14 36.37 107.94 35.94 107.94"/><line class="a" x1="43.09" y1="109.34" x2="43.09" y2="112.08"/><polyline class="a" points="43.09 110.11 43.67 109.53 44.05 109.34 44.63 109.34 45.06 109.53 45.26 110.11 45.26 112.08"/><polyline class="a" points="45.26 110.11 45.83 109.53 46.22 109.34 46.84 109.34 47.23 109.53 47.42 110.11 47.42 112.08"/><polyline class="a" points="55.1 109.91 54.91 109.53 54.34 109.34 53.76 109.34 53.13 109.53 52.94 109.91 53.13 110.3 53.52 110.49 54.53 110.73 54.91 110.92 55.1 111.31 55.1 111.5 54.91 111.88 54.34 112.08 53.76 112.08 53.13 111.88 52.94 111.5"/><rect class="a" x="56.55" y="111.75" width="0.27" height="0.27" transform="translate(-62.51 72.85) rotate(-45)"/><line class="a" x1="58.46" y1="107.95" x2="58.46" y2="112.08"/><rect class="a" x="60.11" y="111.75" width="0.27" height="0.27" transform="translate(-61.47 75.37) rotate(-45)"/><line class="a" x1="62.02" y1="109.34" x2="62.02" y2="112.08"/><polyline class="a" points="62.02 110.11 62.65 109.53 63.03 109.34 63.6 109.34 63.99 109.53 64.23 110.11 64.23 112.08"/><polyline class="a" points="64.23 110.11 64.8 109.53 65.19 109.34 65.76 109.34 66.2 109.53 66.39 110.11 66.39 112.08"/><rect class="a" x="68.03" y="111.75" width="0.27" height="0.27" transform="translate(-59.15 80.97) rotate(-45)"/><line class="d" x1="119.61" y1="26" x2="123.45" y2="22.16"/><line class="d" x1="123.45" y1="26" x2="119.61" y2="22.16"/><line class="d" x1="312.31" y1="25.19" x2="316.15" y2="21.34"/><line class="d" x1="316.15" y1="25.19" x2="312.31" y2="21.34"/><line class="e" x1="135.03" y1="36.19" x2="138.87" y2="32.34"/><line class="e" x1="138.87" y1="36.19" x2="135.03" y2="32.34"/><line class="e" x1="306.35" y1="34.46" x2="310.2" y2="30.61"/><line class="e" x1="310.2" y1="34.46" x2="306.35" y2="30.61"/></svg>