<svg xmlns="http://www.w3.org/2000/svg" viewBox="0 0 843.95 207.83"><defs><style>.a,.b,.c,.d,.e{fill:none;stroke-linecap:round;stroke-linejoin:round;stroke-width:0.82px;}.a{stroke:#000;}.b{stroke:#ffbf00;}.c{stroke:red;}.d{stroke:#00b800;}.e{stroke:#00bfff;}</style></defs><title>Tavola disegno 7</title><polyline class="a" points="70.08 131.34 70.52 131.1 71.19 130.43 71.19 135.13"/><line class="a" x1="70.61" y1="141.86" x2="70.61" y2="156.36"/><line class="a" x1="7.79" y1="123.7" x2="837.62" y2="123.7"/><line class="a" x1="70.61" y1="141.86" x2="837.62" y2="141.86"/><line class="a" x1="70.61" y1="156.36" x2="837.62" y2="156.36"/><line class="a" x1="70.61" y1="178.17" x2="837.62" y2="178.17"/><polyline class="a" points="70.61 199.93 837.62 199.93 837.62 123.7"/><path class="a" d="M97.8,147.43,97.6,147l-.53-.14h-.33l-.53.14-.34.53-.19.86v.87l.19.67.34.39.53.15h.19l.48-.15a1.13,1.13,0,1,0-1.2-1.92l-.34.33-.19.53"/><polygon class="a" points="99.33 150.17 99.14 150.36 99.33 150.5 99.53 150.36 99.33 150.17"/><polyline class="a" points="101.25 147.57 101.59 147.43 102.12 146.9 102.12 150.5"/><polygon class="a" points="68.02 167.6 68.21 168.13 68.93 168.42 70.13 168.61 70.85 168.61 72.05 168.42 72.77 168.13 72.96 167.6 72.96 167.27 72.77 166.79 72.05 166.45 70.85 166.26 70.13 166.26 68.93 166.45 68.21 166.79 68.02 167.27 68.02 167.6"/><polyline class="a" points="68.93 197.67 68.69 197.34 68.02 196.85 72.96 196.85"/><polygon class="a" points="68.02 194.02 68.21 194.5 68.69 194.69 69.17 194.69 69.65 194.5 69.89 194.17 70.13 193.49 70.37 193.01 70.85 192.68 71.33 192.53 72.05 192.53 72.53 192.68 72.77 192.87 72.96 193.35 72.96 194.02 72.77 194.5 72.53 194.69 72.05 194.84 71.33 194.84 70.85 194.69 70.37 194.35 70.13 193.83 69.89 193.15 69.65 192.87 69.17 192.68 68.69 192.68 68.21 192.87 68.02 193.35 68.02 194.02"/><polyline class="a" points="69.65 189.36 70.37 189.51 70.85 189.84 71.09 190.37 71.09 190.51 70.85 191 70.37 191.33 69.65 191.52 69.41 191.52 68.69 191.33 68.21 191 68.02 190.51 68.02 190.37 68.21 189.84 68.69 189.51 69.65 189.36 70.85 189.36 72.05 189.51 72.77 189.84 72.96 190.37 72.96 190.66 72.77 191.18 72.29 191.33"/><polygon class="a" points="72.53 187.87 72.77 188.02 72.96 187.87 72.77 187.68 72.53 187.87"/><polyline class="a" points="68.02 184.51 68.02 186.19 70.13 186.33 69.89 186.19 69.65 185.71 69.65 185.18 69.89 184.7 70.37 184.36 71.09 184.18 71.57 184.18 72.29 184.36 72.77 184.7 72.96 185.18 72.96 185.71 72.77 186.19 72.53 186.33 72.05 186.53"/><polyline class="a" points="68.02 182.88 68.02 181.05 69.89 182.01 69.89 181.53 70.13 181.19 70.37 181.05 71.09 180.86 71.57 180.86 72.29 181.05 72.77 181.34 72.96 181.87 72.96 182.35 72.77 182.88 72.53 183.02 72.05 183.21"/><line class="a" x1="70.61" y1="123.7" x2="70.61" y2="37.15"/><line class="a" x1="823.98" y1="123.7" x2="823.98" y2="52.67"/><line class="a" x1="762.98" y1="123.7" x2="762.98" y2="51.99"/><line class="a" x1="653.08" y1="123.7" x2="653.08" y2="50.94"/><line class="a" x1="547.17" y1="123.7" x2="547.17" y2="48.92"/><line class="a" x1="394.58" y1="123.7" x2="394.58" y2="45.8"/><line class="b" x1="179.59" y1="34.56" x2="180.6" y2="33.55"/><line class="b" x1="181.23" y1="34.56" x2="182.71" y2="33.07"/><line class="b" x1="182.86" y1="34.56" x2="184.83" y2="32.54"/><line class="b" x1="184.44" y1="34.51" x2="188.14" y2="30.86"/><line class="b" x1="186.08" y1="34.51" x2="194.39" y2="26.2"/><line class="b" x1="187.71" y1="34.51" x2="195.83" y2="26.39"/><line class="b" x1="189.34" y1="34.46" x2="197.22" y2="26.58"/><line class="b" x1="190.93" y1="34.46" x2="198.66" y2="26.73"/><polyline class="b" points="192.56 34.46 193.28 33.74 200.06 26.92"/><line class="b" x1="194.19" y1="34.41" x2="201.5" y2="27.11"/><line class="b" x1="195.83" y1="34.41" x2="202.94" y2="27.3"/><line class="b" x1="197.41" y1="34.41" x2="203.9" y2="27.93"/><line class="b" x1="199.05" y1="34.36" x2="204.86" y2="28.6"/><line class="b" x1="200.68" y1="34.36" x2="205.77" y2="29.22"/><line class="b" x1="202.31" y1="34.36" x2="206.73" y2="29.9"/><line class="b" x1="203.9" y1="34.32" x2="207.69" y2="30.52"/><line class="b" x1="205.53" y1="34.32" x2="208.65" y2="31.19"/><line class="b" x1="207.16" y1="34.32" x2="209.61" y2="31.82"/><line class="b" x1="208.75" y1="34.27" x2="210.57" y2="32.49"/><line class="b" x1="210.38" y1="34.27" x2="211.63" y2="33.07"/><line class="b" x1="212.01" y1="34.27" x2="212.64" y2="33.6"/><line class="b" x1="213.65" y1="34.22" x2="213.69" y2="34.17"/><line class="a" x1="155.05" y1="123.7" x2="155.05" y2="34.8"/><line class="a" x1="144.15" y1="123.7" x2="144.15" y2="28.46"/><line class="a" x1="125.99" y1="123.7" x2="125.99" y2="32.11"/><line class="c" x1="155.29" y1="34.84" x2="155.29" y2="34.8"/><line class="c" x1="156.73" y1="34.94" x2="156.92" y2="34.8"/><line class="c" x1="158.22" y1="35.08" x2="158.55" y2="34.8"/><line class="c" x1="159.71" y1="35.18" x2="160.14" y2="34.75"/><line class="c" x1="161.2" y1="35.33" x2="161.77" y2="34.75"/><line class="c" x1="162.69" y1="35.42" x2="163.41" y2="34.75"/><line class="c" x1="164.17" y1="35.56" x2="165.04" y2="34.7"/><line class="c" x1="165.62" y1="35.71" x2="166.62" y2="34.7"/><line class="c" x1="167.2" y1="35.71" x2="168.26" y2="34.7"/><line class="c" x1="168.83" y1="35.71" x2="169.89" y2="34.65"/><line class="c" x1="170.42" y1="35.71" x2="171.47" y2="34.65"/><line class="c" x1="172.05" y1="35.71" x2="173.11" y2="34.65"/><line class="c" x1="173.64" y1="35.71" x2="174.74" y2="34.61"/><line class="c" x1="175.22" y1="35.71" x2="176.38" y2="34.61"/><line class="c" x1="177.91" y1="34.65" x2="177.96" y2="34.61"/><line class="c" x1="214.7" y1="34.75" x2="215.23" y2="34.22"/><line class="c" x1="215.76" y1="35.33" x2="216.87" y2="34.22"/><line class="c" x1="216.77" y1="35.9" x2="218.5" y2="34.17"/><line class="c" x1="217.83" y1="36.48" x2="220.13" y2="34.17"/><line class="c" x1="218.83" y1="37.01" x2="221.72" y2="34.17"/><line class="c" x1="219.89" y1="37.58" x2="223.35" y2="34.12"/><line class="c" x1="220.95" y1="38.16" x2="224.98" y2="34.13"/><line class="c" x1="221.96" y1="38.73" x2="226.61" y2="34.12"/><line class="c" x1="223.01" y1="39.31" x2="228.2" y2="34.08"/><line class="c" x1="224.02" y1="39.89" x2="229.83" y2="34.07"/><line class="c" x1="225.08" y1="40.42" x2="231.47" y2="34.08"/><line class="c" x1="226.47" y1="40.66" x2="233.1" y2="34.03"/><line class="c" x1="227.86" y1="40.85" x2="234.68" y2="34.03"/><line class="c" x1="229.26" y1="41.04" x2="236.32" y2="34.03"/><line class="c" x1="230.7" y1="41.23" x2="237.95" y2="33.98"/><line class="c" x1="232.23" y1="41.28" x2="239.58" y2="33.98"/><line class="c" x1="233.82" y1="41.33" x2="241.17" y2="33.98"/><line class="c" x1="235.36" y1="41.38" x2="242.8" y2="33.93"/><line class="c" x1="236.94" y1="41.42" x2="244.44" y2="33.93"/><line class="c" x1="238.48" y1="41.47" x2="246.02" y2="33.93"/><line class="c" x1="240.06" y1="41.47" x2="247.65" y2="33.88"/><line class="c" x1="241.6" y1="41.52" x2="249.28" y2="33.88"/><line class="c" x1="243.19" y1="41.57" x2="250.92" y2="33.88"/><line class="c" x1="244.77" y1="41.62" x2="252.51" y2="33.83"/><line class="c" x1="246.31" y1="41.66" x2="254.14" y2="33.84"/><line class="c" x1="247.89" y1="41.71" x2="255.77" y2="33.84"/><line class="c" x1="249.43" y1="41.76" x2="257.4" y2="33.79"/><line class="c" x1="251.01" y1="41.76" x2="258.99" y2="33.79"/><line class="c" x1="252.55" y1="41.81" x2="260.62" y2="33.79"/><line class="c" x1="254.14" y1="41.86" x2="262.25" y2="33.74"/><line class="c" x1="255.72" y1="41.9" x2="263.89" y2="33.74"/><line class="c" x1="257.26" y1="41.95" x2="265.47" y2="33.74"/><line class="c" x1="258.84" y1="42" x2="267.11" y2="33.69"/><line class="c" x1="260.38" y1="42" x2="268.74" y2="33.69"/><line class="c" x1="261.97" y1="42.05" x2="270.37" y2="33.69"/><line class="c" x1="263.5" y1="42.1" x2="271.95" y2="33.65"/><line class="c" x1="265.09" y1="42.15" x2="273.59" y2="33.64"/><line class="c" x1="266.67" y1="42.19" x2="275.22" y2="33.64"/><line class="c" x1="268.21" y1="42.24" x2="276.85" y2="33.6"/><line class="c" x1="269.8" y1="42.24" x2="278.44" y2="33.6"/><line class="c" x1="271.33" y1="42.29" x2="280.07" y2="33.6"/><line class="c" x1="272.92" y1="42.34" x2="281.71" y2="33.55"/><line class="c" x1="274.5" y1="42.39" x2="283.29" y2="33.55"/><line class="c" x1="276.04" y1="42.43" x2="284.92" y2="33.55"/><line class="c" x1="277.62" y1="42.43" x2="286.56" y2="33.5"/><line class="c" x1="279.16" y1="42.48" x2="288.19" y2="33.5"/><line class="c" x1="280.75" y1="42.53" x2="289.78" y2="33.5"/><line class="c" x1="282.28" y1="42.58" x2="291.41" y2="33.45"/><line class="c" x1="283.87" y1="42.63" x2="293.04" y2="33.45"/><line class="c" x1="285.45" y1="42.67" x2="294.68" y2="33.45"/><line class="c" x1="286.99" y1="42.67" x2="296.26" y2="33.4"/><line class="c" x1="288.58" y1="42.72" x2="297.89" y2="33.4"/><line class="c" x1="290.11" y1="42.77" x2="299.53" y2="33.4"/><line class="c" x1="291.7" y1="42.82" x2="301.16" y2="33.35"/><line class="c" x1="293.28" y1="42.87" x2="302.75" y2="33.35"/><line class="c" x1="294.82" y1="42.91" x2="304.38" y2="33.36"/><line class="c" x1="296.4" y1="42.91" x2="306.01" y2="33.31"/><line class="c" x1="297.94" y1="42.96" x2="307.65" y2="33.31"/><line class="c" x1="299.53" y1="43.01" x2="309.23" y2="33.31"/><line class="c" x1="301.06" y1="43.06" x2="310.86" y2="33.26"/><line class="c" x1="302.65" y1="43.11" x2="312.49" y2="33.26"/><line class="c" x1="304.19" y1="43.15" x2="314.13" y2="33.26"/><line class="c" x1="305.72" y1="43.2" x2="315.71" y2="33.21"/><line class="c" x1="307.26" y1="43.3" x2="317.35" y2="33.21"/><line class="c" x1="308.8" y1="43.35" x2="318.98" y2="33.21"/><line class="c" x1="310.33" y1="43.44" x2="320.57" y2="33.16"/><line class="c" x1="311.87" y1="43.49" x2="322.2" y2="33.16"/><line class="c" x1="313.41" y1="43.59" x2="323.83" y2="33.16"/><line class="c" x1="314.94" y1="43.63" x2="325.46" y2="33.11"/><line class="c" x1="329.16" y1="29.42" x2="334.78" y2="23.8"/><line class="c" x1="316.48" y1="43.73" x2="336.37" y2="23.8"/><line class="c" x1="317.97" y1="43.78" x2="338" y2="23.8"/><line class="c" x1="319.51" y1="43.87" x2="339.59" y2="23.8"/><line class="c" x1="321.04" y1="43.92" x2="341.17" y2="23.8"/><line class="c" x1="322.58" y1="44.02" x2="341.79" y2="24.81"/><line class="c" x1="324.12" y1="44.07" x2="342.42" y2="25.82"/><line class="c" x1="325.66" y1="44.16" x2="343" y2="26.82"/><line class="c" x1="327.19" y1="44.21" x2="343.62" y2="27.83"/><line class="c" x1="328.73" y1="44.31" x2="344.2" y2="28.84"/><line class="c" x1="330.27" y1="44.35" x2="344.82" y2="29.8"/><line class="c" x1="331.8" y1="44.45" x2="345.4" y2="30.81"/><line class="c" x1="333.34" y1="44.5" x2="345.97" y2="31.82"/><line class="c" x1="334.83" y1="44.59" x2="346.6" y2="32.83"/><line class="c" x1="336.37" y1="44.64" x2="347.17" y2="33.84"/><line class="c" x1="337.9" y1="44.74" x2="347.8" y2="34.85"/><line class="c" x1="339.44" y1="44.79" x2="348.37" y2="35.85"/><line class="c" x1="340.98" y1="44.88" x2="349" y2="36.86"/><line class="c" x1="342.52" y1="44.93" x2="349.58" y2="37.87"/><line class="c" x1="344.05" y1="45.03" x2="350.2" y2="38.88"/><line class="c" x1="345.59" y1="45.07" x2="350.78" y2="39.89"/><line class="c" x1="347.13" y1="45.17" x2="351.4" y2="40.9"/><line class="c" x1="348.66" y1="45.22" x2="351.98" y2="41.91"/><line class="c" x1="350.2" y1="45.27" x2="352.6" y2="42.91"/><line class="c" x1="351.79" y1="45.27" x2="353.18" y2="43.92"/><line class="c" x1="353.37" y1="45.32" x2="353.8" y2="44.93"/><polyline class="a" points="70.61 37.15 91.22 35.33 96.07 35.71 114.17 33.88 125.99 32.1 144.15 28.46 155.05 34.8"/><polyline class="c" points="155.05 34.8 165.95 35.71 175.94 35.71"/><polyline class="b" points="178.06 34.6 179.35 33.88 186.8 32.11 193.23 26.05"/><polyline class="c" points="213.74 34.22 225.13 40.46 230.65 41.23 256.54 41.9 303.27 43.1 349 45.27"/><polyline class="a" points="353.99 45.32 394.58 45.8 446.41 47.19 495.25 47.91 547.17 48.92 597.51 49.49 653.08 50.94 708.56 51.18 762.98 51.99 823.98 52.66"/><polyline class="b" points="193.23 26.05 202.94 27.3 210.67 32.54"/><polyline class="a" points="124.69 131.53 124.69 131.34 124.89 130.86 125.13 130.66 125.56 130.43 126.47 130.43 126.9 130.66 127.14 130.86 127.38 131.34 127.38 131.77 127.14 132.21 126.71 132.87 124.45 135.13 127.58 135.13"/><polyline class="a" points="143.04 130.43 145.49 130.43 144.14 132.2 144.82 132.2 145.3 132.44 145.49 132.68 145.73 133.36 145.73 133.79 145.49 134.46 145.06 134.89 144.38 135.13 143.71 135.13 143.04 134.89 142.8 134.7 142.61 134.22"/><polyline class="a" points="155.63 130.43 153.37 133.55 156.73 133.55"/><line class="a" x1="155.63" y1="130.43" x2="155.63" y2="135.13"/><polyline class="a" points="391.12 131.34 391.56 131.1 392.23 130.43 392.23 135.13"/><polyline class="a" points="395.16 131.53 395.16 131.34 395.4 130.86 395.59 130.66 396.07 130.43 396.93 130.43 397.41 130.66 397.61 130.86 397.85 131.34 397.85 131.77 397.61 132.21 397.17 132.87 394.92 135.13 398.09 135.13"/><polyline class="a" points="543.72 131.34 544.15 131.1 544.82 130.43 544.82 135.13"/><polyline class="a" points="547.94 130.43 550.44 130.43 549.1 132.2 549.77 132.2 550.2 132.44 550.44 132.68 550.63 133.36 550.63 133.79 550.44 134.46 549.96 134.89 549.29 135.13 548.62 135.13 547.94 134.89 547.75 134.7 547.51 134.22"/><polyline class="a" points="649.53 131.34 649.96 131.1 650.63 130.43 650.63 135.13"/><polyline class="a" points="655.58 130.43 653.33 133.55 656.69 133.55"/><line class="a" x1="655.58" y1="130.43" x2="655.58" y2="135.13"/><polyline class="a" points="759.57 131.34 760 131.1 760.67 130.43 760.67 135.13"/><path class="a" d="M766.05,130.43H763.8l-.24,2,.24-.24c4-1.46,3.25,4.68-.24,2.5l-.19-.48"/><polyline class="a" points="820.52 131.34 821 131.1 821.67 130.43 821.67 135.13"/><polyline class="a" points="827.25 131.1 827.05 130.67 826.38 130.43 825.9 130.43 825.23 130.67 824.79 131.34 824.55 132.44 824.55 133.55 824.79 134.46 825.23 134.89 825.9 135.13 826.14 135.13 826.81 134.89 827.25 134.46 827.49 133.79 827.49 133.55 827.25 132.88 826.81 132.44 826.14 132.21 825.9 132.21 825.23 132.44 824.79 132.88 824.55 133.55"/><line class="a" x1="125.99" y1="141.86" x2="125.99" y2="156.36"/><line class="a" x1="144.15" y1="141.86" x2="144.15" y2="156.36"/><line class="a" x1="155.05" y1="141.86" x2="155.05" y2="156.36"/><line class="a" x1="394.58" y1="141.86" x2="394.58" y2="156.36"/><line class="a" x1="547.17" y1="141.86" x2="547.17" y2="156.36"/><line class="a" x1="653.08" y1="141.86" x2="653.08" y2="156.36"/><line class="a" x1="762.98" y1="141.86" x2="762.98" y2="156.36"/><line class="a" x1="823.98" y1="141.86" x2="823.98" y2="156.36"/><polyline class="a" points="133.24 147.77 133.24 147.57 133.39 147.24 133.58 147.04 133.92 146.9 134.64 146.9 134.97 147.04 135.12 147.24 135.31 147.57 135.31 147.91 135.12 148.29 134.78 148.77 133.05 150.5 135.5 150.5"/><polyline class="a" points="467.97 147.57 468.31 147.43 468.84 146.9 468.84 150.5"/><polyline class="a" points="473.16 147.43 473.01 147.04 472.49 146.9 472.15 146.9 471.62 147.04 471.28 147.58 471.1 148.44 471.1 149.3 471.28 149.97 471.62 150.36 472.15 150.51 472.29 150.51 472.82 150.36 473.16 149.97 473.35 149.49 473.35 149.3 473.16 148.77 472.82 148.44 472.29 148.3 472.15 148.3 471.62 148.44 471.28 148.77 471.1 149.3"/><polygon class="a" points="474.74 150.17 474.55 150.36 474.74 150.5 474.89 150.36 474.74 150.17"/><polygon class="a" points="476.95 146.9 476.47 147.05 476.28 147.43 476.28 147.77 476.47 148.1 476.81 148.29 477.48 148.44 478.01 148.63 478.35 148.97 478.54 149.3 478.54 149.83 478.35 150.17 478.2 150.36 477.67 150.5 476.95 150.5 476.47 150.36 476.28 150.17 476.09 149.83 476.09 149.3 476.28 148.97 476.62 148.63 477.15 148.44 477.82 148.29 478.2 148.1 478.35 147.77 478.35 147.43 478.2 147.05 477.67 146.9 476.95 146.9"/><polyline class="a" points="594 147.57 594.34 147.43 594.87 146.9 594.87 150.5"/><polyline class="a" points="597.46 147.57 597.8 147.43 598.33 146.9 598.33 150.5"/><polygon class="a" points="600.73 150.17 600.58 150.36 600.73 150.5 600.92 150.36 600.73 150.17"/><polyline class="a" points="602.79 150.5 604.52 146.9 602.12 146.9"/><polyline class="a" points="703.28 147.57 703.61 147.43 704.14 146.9 704.14 150.5"/><polyline class="a" points="706.4 147.77 706.4 147.57 706.54 147.24 706.73 147.04 707.07 146.9 707.74 146.9 708.13 147.04 708.27 147.24 708.46 147.57 708.46 147.91 708.27 148.29 707.93 148.77 706.21 150.5 708.61 150.5"/><polygon class="a" points="710 150.17 709.86 150.36 710 150.5 710.19 150.36 710 150.17"/><polyline class="a" points="711.92 147.57 712.26 147.43 712.79 146.9 712.79 150.5"/><path class="a" d="M792.57,147.43l-.19-.39-.53-.14h-.33L791,147l-.34.53-.14.86v.87l.14.67.34.39.53.15h.19l.53-.15a1.15,1.15,0,0,0-1.25-1.92l-.34.33-.14.53"/><polygon class="a" points="794.1 150.17 793.96 150.36 794.1 150.5 794.3 150.36 794.1 150.17"/><polyline class="a" points="796.17 150.5 797.9 146.9 795.5 146.9"/><polyline class="a" points="124.21 168.51 123.73 168.71 123.49 169.19 123.49 169.52 123.73 170 124.45 170.34 125.65 170.53 126.86 170.53 127.82 170.34 128.25 170 128.49 169.52 128.49 169.38 128.25 168.85 127.82 168.51 127.09 168.37 126.86 168.37 126.14 168.51 125.65 168.85 125.41 169.38 125.41 169.52 125.65 170 126.14 170.34 126.86 170.53"/><polygon class="a" points="128.01 167.03 128.25 167.17 128.49 167.03 128.25 166.88 128.01 167.03"/><polyline class="a" points="124.45 165.2 124.21 164.87 123.49 164.39 128.49 164.39"/><path class="a" d="M141.65,169.76l.24.53.48.15h.48l.48-.15.24-.33.24-.67.24-.53.48-.33.48-.15h.72l.43.15.24.19.24.48v.67l-.24.53c-3.44,1.68-1.86-3-4.51-1.68l-.24.48Z"/><polygon class="a" points="146.16 166.93 146.4 167.12 146.64 166.93 146.4 166.78 146.16 166.93"/><polyline class="a" points="142.61 165.1 142.37 164.77 141.65 164.29 146.64 164.29"/><polyline class="a" points="154.23 168.95 154.95 169.09 155.43 169.43 155.67 169.96 155.67 170.1 155.43 170.63 154.95 170.92 154.23 171.11 153.99 171.11 153.27 170.92 152.79 170.63 152.55 170.1 152.55 169.96 152.79 169.43 153.27 169.09 154.23 168.95 155.43 168.95 156.59 169.09 157.31 169.43 157.54 169.96 157.54 170.29 157.31 170.77 156.83 170.92"/><polygon class="a" points="157.07 167.46 157.31 167.6 157.55 167.46 157.31 167.27 157.07 167.46"/><polyline class="a" points="152.55 165.78 152.55 163.95 154.47 164.96 154.47 164.44 154.71 164.1 154.95 163.95 155.67 163.76 156.1 163.76 156.82 163.95 157.31 164.29 157.54 164.77 157.54 165.3 157.31 165.78 157.06 165.97 156.58 166.11"/><polyline class="a" points="392.08 172.45 392.08 170.63 394 171.59 394 171.11 394.25 170.77 394.49 170.63 395.21 170.44 395.63 170.44 396.36 170.63 396.84 170.92 397.08 171.45 397.08 171.93 396.84 172.45 396.6 172.6 396.12 172.79"/><path class="a" d="M392.08,167.46v1.63l2.16.19-.24-.19c-1.64-2.93,5-2.37,2.59.19l-.48.15"/><polygon class="a" points="396.6 165.78 396.84 165.97 397.08 165.78 396.84 165.63 396.6 165.78"/><polyline class="a" points="397.08 163.76 392.08 162.13 392.08 164.43"/><polyline class="a" points="544.68 170.77 544.68 172.46 546.79 172.6 546.6 172.46 546.36 171.93 546.36 171.45 546.6 170.92 547.03 170.63 547.75 170.44 548.23 170.44 548.95 170.63 549.43 170.92 549.67 171.45 549.67 171.93 549.43 172.46 549.19 172.6 548.71 172.79"/><polyline class="a" points="545.88 169.28 545.64 169.28 545.16 169.09 544.92 168.95 544.68 168.61 544.68 167.94 544.92 167.6 545.16 167.46 545.64 167.27 546.12 167.27 546.6 167.46 547.27 167.79 549.67 169.43 549.67 167.12"/><polygon class="a" points="549.19 165.78 549.43 165.97 549.67 165.78 549.43 165.63 549.19 165.78"/><path class="a" d="M544.68,162.46v1.63l2.11.19-.19-.19c-1.65-2.95,5-2.36,2.59.19l-.48.15"/><polyline class="a" points="651.31 170.68 650.83 170.87 650.59 171.35 650.59 171.69 650.83 172.17 651.55 172.5 652.75 172.69 653.95 172.69 654.86 172.5 655.34 172.17 655.58 171.69 655.58 171.54 655.34 171.01 654.86 170.68 654.14 170.53 653.95 170.53 653.23 170.68 652.75 171.01 652.51 171.54 652.51 171.69 652.75 172.17 653.23 172.5 653.95 172.69"/><polyline class="a" points="650.59 167.84 653.95 169.53 653.95 167.03"/><line class="a" x1="650.59" y1="167.84" x2="655.58" y2="167.84"/><polygon class="a" points="655.1 165.87 655.34 166.02 655.58 165.87 655.34 165.68 655.1 165.87"/><polyline class="a" points="651.79 164.38 651.55 164.38 651.07 164.19 650.83 164.05 650.59 163.71 650.59 163.04 650.83 162.7 651.07 162.51 651.55 162.37 652.03 162.37 652.51 162.51 653.23 162.85 655.58 164.53 655.58 162.22"/><polyline class="a" points="765.52 172.12 760.53 170.44 760.53 172.79"/><polyline class="a" points="761.25 167.27 760.77 167.46 760.53 167.94 760.53 168.28 760.77 168.75 761.49 169.09 762.64 169.28 763.85 169.28 764.8 169.09 765.28 168.75 765.52 168.28 765.52 168.13 765.28 167.6 764.8 167.27 764.09 167.12 763.85 167.12 763.13 167.27 762.64 167.6 762.4 168.13 762.4 168.28 762.64 168.75 763.13 169.09 763.85 169.28"/><polygon class="a" points="765.04 165.78 765.28 165.97 765.52 165.78 765.28 165.63 765.04 165.78"/><path class="a" d="M760.53,164.1v-1.82l1.87,1v-.48c.83-1.58,4.55-.28,2.64,1.49l-.48.14"/><path class="a" d="M821.53,169.43l.24.53.48.15h.43l.48-.15.24-.33.24-.67.24-.53.48-.29.48-.19h.72l.48.19.24.14.24.48v.67l-.24.53c-3.52,1.65-1.82-2.8-4.51-1.68l-.24.48Z"/><path class="a" d="M821.53,166.59v-1.82l1.87,1v-.48c.83-1.58,4.55-.28,2.64,1.49l-.48.14"/><polyline class="a" points="124.5 197.57 124.26 197.24 123.54 196.76 128.53 196.76"/><polyline class="a" points="125.22 192.58 125.94 192.77 126.42 193.11 126.62 193.59 126.62 193.78 126.42 194.26 125.94 194.59 125.22 194.74 124.98 194.74 124.26 194.59 123.78 194.26 123.54 193.78 123.54 193.59 123.78 193.11 124.26 192.77 125.22 192.58 126.42 192.58 127.58 192.77 128.3 193.11 128.54 193.59 128.54 193.92 128.3 194.4 127.82 194.59"/><polygon class="a" points="123.54 190.42 123.78 190.94 124.5 191.28 125.7 191.43 126.42 191.43 127.57 191.28 128.29 190.94 128.53 190.42 128.53 190.08 128.29 189.6 127.57 189.26 126.42 189.12 125.7 189.12 124.5 189.26 123.78 189.6 123.54 190.08 123.54 190.42"/><polygon class="a" points="128.06 187.78 128.3 187.92 128.54 187.78 128.3 187.58 128.06 187.78"/><polygon class="a" points="123.54 185.42 123.78 185.95 124.5 186.29 125.7 186.43 126.42 186.43 127.57 186.29 128.29 185.95 128.53 185.42 128.53 185.09 128.29 184.61 127.57 184.27 126.42 184.13 125.7 184.13 124.5 184.27 123.78 184.61 123.54 185.09 123.54 185.42"/><polyline class="a" points="125.22 180.96 125.94 181.1 126.42 181.44 126.62 181.96 126.62 182.11 126.42 182.59 125.94 182.93 125.22 183.12 124.98 183.12 124.26 182.93 123.78 182.59 123.54 182.11 123.54 181.96 123.78 181.44 124.26 181.1 125.22 180.96 126.42 180.96 127.58 181.1 128.3 181.44 128.54 181.96 128.54 182.3 128.3 182.78 127.82 182.93"/><polyline class="a" points="142.66 197.57 142.42 197.24 141.7 196.76 146.69 196.76"/><polyline class="a" points="143.38 192.58 144.1 192.77 144.53 193.11 144.77 193.59 144.77 193.78 144.53 194.26 144.1 194.59 143.38 194.74 143.14 194.74 142.42 194.59 141.94 194.26 141.69 193.78 141.69 193.59 141.94 193.11 142.42 192.77 143.38 192.58 144.53 192.58 145.73 192.77 146.45 193.11 146.69 193.59 146.69 193.92 146.45 194.4 145.97 194.59"/><polygon class="a" points="141.7 190.42 141.94 190.94 142.66 191.28 143.86 191.43 144.53 191.43 145.73 191.28 146.45 190.94 146.69 190.42 146.69 190.08 146.45 189.6 145.73 189.26 144.53 189.12 143.86 189.12 142.66 189.26 141.94 189.6 141.7 190.08 141.7 190.42"/><polygon class="a" points="146.21 187.78 146.45 187.92 146.69 187.78 146.45 187.58 146.21 187.78"/><polyline class="a" points="141.7 184.8 145.01 186.43 145.01 183.93"/><line class="a" x1="141.7" y1="184.8" x2="146.69" y2="184.8"/><polyline class="a" points="143.38 180.96 144.1 181.1 144.53 181.44 144.77 181.96 144.77 182.11 144.53 182.59 144.1 182.93 143.38 183.12 143.14 183.12 142.42 182.93 141.94 182.59 141.69 182.11 141.69 181.96 141.94 181.44 142.42 181.1 143.38 180.96 144.53 180.96 145.73 181.1 146.45 181.44 146.69 181.96 146.69 182.3 146.45 182.78 145.97 182.93"/><polyline class="a" points="153.56 197.57 153.32 197.24 152.6 196.76 157.59 196.76"/><polygon class="a" points="152.6 193.92 152.84 194.4 153.32 194.6 153.8 194.6 154.28 194.4 154.47 194.12 154.71 193.44 154.95 192.92 155.44 192.58 155.91 192.44 156.63 192.44 157.11 192.58 157.35 192.77 157.59 193.25 157.59 193.92 157.35 194.4 157.11 194.6 156.63 194.74 155.91 194.74 155.44 194.6 154.95 194.26 154.71 193.78 154.47 193.11 154.28 192.77 153.8 192.58 153.32 192.58 152.84 192.77 152.6 193.25 152.6 193.92"/><polyline class="a" points="154.28 189.26 154.95 189.46 155.43 189.75 155.68 190.27 155.68 190.42 155.43 190.95 154.95 191.28 154.28 191.43 154.04 191.43 153.32 191.28 152.84 190.95 152.6 190.42 152.6 190.27 152.84 189.75 153.32 189.46 154.28 189.26 155.43 189.26 156.64 189.46 157.36 189.75 157.59 190.27 157.59 190.61 157.36 191.09 156.88 191.28"/><polygon class="a" points="157.11 187.78 157.35 187.92 157.59 187.78 157.35 187.58 157.11 187.78"/><polyline class="a" points="157.59 185.76 152.6 184.12 152.6 186.43"/><polyline class="a" points="154.28 180.96 154.95 181.1 155.43 181.44 155.68 181.96 155.68 182.11 155.43 182.59 154.95 182.93 154.28 183.12 154.04 183.12 153.32 182.93 152.84 182.59 152.6 182.11 152.6 181.96 152.84 181.44 153.32 181.1 154.28 180.96 155.43 180.96 156.64 181.1 157.36 181.44 157.59 181.96 157.59 182.3 157.36 182.78 156.88 182.93"/><polyline class="a" points="393.09 197.67 392.85 197.34 392.13 196.85 397.12 196.85"/><polygon class="a" points="392.13 194.02 392.37 194.5 392.85 194.69 393.33 194.69 393.81 194.5 394.05 194.17 394.25 193.49 394.49 193.01 394.97 192.68 395.45 192.53 396.16 192.53 396.64 192.68 396.88 192.87 397.12 193.35 397.12 194.02 396.88 194.5 396.64 194.69 396.16 194.84 395.45 194.84 394.97 194.69 394.49 194.35 394.25 193.83 394.05 193.15 393.81 192.87 393.33 192.68 392.85 192.68 392.37 192.87 392.13 193.35 392.13 194.02"/><polygon class="a" points="392.13 190.66 392.37 191.19 392.85 191.33 393.33 191.33 393.81 191.19 394.05 190.85 394.25 190.18 394.49 189.7 394.97 189.36 395.45 189.17 396.16 189.17 396.64 189.36 396.88 189.5 397.12 190.03 397.12 190.66 396.88 191.19 396.64 191.33 396.16 191.52 395.45 191.52 394.97 191.33 394.49 190.99 394.25 190.51 394.05 189.84 393.81 189.5 393.33 189.36 392.85 189.36 392.37 189.5 392.13 190.03 392.13 190.66"/><polygon class="a" points="396.64 187.87 396.89 188.02 397.13 187.87 396.89 187.68 396.64 187.87"/><polyline class="a" points="392.13 184.51 392.13 186.19 394.25 186.33 394.05 186.19 393.81 185.71 393.81 185.18 394.05 184.7 394.49 184.36 395.21 184.18 395.68 184.18 396.4 184.36 396.88 184.7 397.12 185.18 397.12 185.71 396.88 186.19 396.64 186.33 396.16 186.53"/><polygon class="a" points="392.13 182.35 392.37 182.88 392.85 183.02 393.33 183.02 393.81 182.88 394.05 182.54 394.25 181.87 394.49 181.34 394.97 181.05 395.45 180.86 396.16 180.86 396.64 181.05 396.88 181.19 397.12 181.68 397.12 182.35 396.88 182.88 396.64 183.02 396.16 183.22 395.45 183.22 394.97 183.02 394.49 182.68 394.25 182.2 394.05 181.53 393.81 181.19 393.33 181.05 392.85 181.05 392.37 181.19 392.13 181.68 392.13 182.35"/><polyline class="a" points="545.64 197.77 545.4 197.43 544.72 196.9 549.72 196.9"/><path class="a" d="M544.73,194.12l.24.48.43.15h.48l.48-.15.24-.33.24-.67.24-.48.48-.33.48-.19h.72l.48.19.24.14.24.53v.67l-.24.48c-3.52,1.65-1.83-2.81-4.51-1.68l-.24.53Z"/><path class="a" d="M544.73,190.75l.24.53.43.15h.48l.48-.15.24-.33.24-.67.24-.53.48-.29.48-.19h.72l.48.19.24.14.24.48v.67l-.24.53c-3.52,1.65-1.83-2.81-4.51-1.68l-.24.48Z"/><polygon class="a" points="549.24 187.92 549.48 188.11 549.72 187.92 549.48 187.78 549.24 187.92"/><polyline class="a" points="545.88 186.43 545.64 186.43 545.21 186.28 544.96 186.1 544.72 185.76 544.72 185.09 544.96 184.8 545.21 184.61 545.64 184.46 546.12 184.46 546.6 184.61 547.32 184.94 549.72 186.62 549.72 184.27"/><polyline class="a" points="544.73 181.63 548.04 183.26 548.04 180.76"/><line class="a" x1="544.73" y1="181.63" x2="549.72" y2="181.63"/><polyline class="a" points="651.6 197.67 651.36 197.34 650.63 196.85 655.63 196.85"/><polygon class="a" points="650.63 194.02 650.88 194.5 651.36 194.69 651.84 194.69 652.32 194.5 652.56 194.17 652.75 193.49 652.99 193.01 653.47 192.68 653.95 192.53 654.67 192.53 655.15 192.68 655.39 192.87 655.63 193.35 655.63 194.02 655.39 194.5 655.15 194.69 654.67 194.84 653.95 194.84 653.47 194.69 652.99 194.35 652.75 193.83 652.56 193.15 652.32 192.87 651.84 192.68 651.36 192.68 650.88 192.87 650.63 193.35 650.63 194.02"/><polygon class="a" points="650.63 190.66 650.88 191.19 651.36 191.33 651.84 191.33 652.32 191.19 652.56 190.85 652.75 190.18 652.99 189.7 653.47 189.36 653.95 189.17 654.67 189.17 655.15 189.36 655.39 189.5 655.63 190.03 655.63 190.66 655.39 191.19 655.15 191.33 654.67 191.52 653.95 191.52 653.47 191.33 652.99 190.99 652.75 190.51 652.56 189.84 652.32 189.5 651.84 189.36 651.36 189.36 650.88 189.5 650.63 190.03 650.63 190.66"/><polygon class="a" points="655.15 187.87 655.39 188.02 655.63 187.87 655.39 187.68 655.15 187.87"/><polygon class="a" points="650.63 185.52 650.88 186 651.6 186.33 652.75 186.53 653.47 186.53 654.67 186.33 655.39 186 655.63 185.52 655.63 185.18 655.39 184.7 654.67 184.37 653.47 184.18 652.75 184.18 651.6 184.37 650.88 184.7 650.63 185.18 650.63 185.52"/><polyline class="a" points="651.84 183.02 651.6 183.02 651.11 182.88 650.87 182.69 650.63 182.35 650.63 181.68 650.87 181.34 651.11 181.2 651.6 181.05 652.08 181.05 652.56 181.2 653.23 181.53 655.63 183.21 655.63 180.86"/><polyline class="a" points="761.49 195.94 761.25 195.61 760.53 195.07 765.52 195.07"/><path class="a" d="M760.53,192.24l.24.53.48.15h.48l.48-.15.24-.33.24-.67.24-.48.48-.33.48-.19h.72l.43.19.24.14.24.53v.63l-.24.53c-3.44,1.65-1.77-2.82-4.51-1.68l-.24.53Z"/><polyline class="a" points="765.52 189.12 760.53 187.44 760.53 189.75"/><polygon class="a" points="765.04 186.09 765.28 186.29 765.52 186.09 765.28 185.95 765.04 186.09"/><polyline class="a" points="762.21 182.59 762.93 182.78 763.41 183.12 763.65 183.6 763.65 183.79 763.41 184.27 762.93 184.6 762.21 184.8 761.97 184.8 761.25 184.6 760.77 184.27 760.53 183.79 760.53 183.6 760.77 183.12 761.25 182.78 762.21 182.59 763.41 182.59 764.61 182.78 765.29 183.12 765.52 183.6 765.52 183.93 765.29 184.46 764.85 184.6"/><polyline class="a" points="822.49 197.67 822.25 197.34 821.53 196.85 826.52 196.85"/><polygon class="a" points="821.53 194.02 821.77 194.5 822.25 194.69 822.73 194.69 823.21 194.5 823.45 194.17 823.69 193.49 823.93 193.01 824.41 192.68 824.89 192.53 825.61 192.53 826.04 192.68 826.28 192.87 826.52 193.35 826.52 194.02 826.28 194.5 826.04 194.69 825.61 194.84 824.89 194.84 824.41 194.69 823.93 194.35 823.69 193.83 823.45 193.15 823.21 192.87 822.73 192.68 822.25 192.68 821.77 192.87 821.53 193.35 821.53 194.02"/><polyline class="a" points="826.52 190.85 821.53 189.17 821.53 191.52"/><polygon class="a" points="826.04 187.87 826.28 188.02 826.52 187.87 826.28 187.68 826.04 187.87"/><path class="a" d="M821.53,185.71l.24.48.48.15h.48l.48-.15.24-.33.24-.67.24-.48.48-.33.48-.19h.72l.43.19.24.14.24.53v.67l-.24.48c-3.44,1.65-1.77-2.82-4.51-1.68l-.24.53Z"/><polyline class="a" points="821.53 182.88 821.53 181.05 823.45 182.01 823.45 181.53 823.69 181.19 823.93 181.05 824.65 180.86 825.13 180.86 825.8 181.05 826.28 181.34 826.52 181.87 826.52 182.35 826.28 182.88 826.04 183.02 825.61 183.21"/><polyline class="a" points="341.22 23.8 333.77 23.8 326.23 33.12"/><line class="a" x1="341.22" y1="23.8" x2="353.99" y2="45.32"/><polygon class="a" points="11.68 165.39 11.68 161.74 12.93 161.74 13.45 161.94 13.79 162.27 13.93 162.66 14.13 163.14 14.13 164.05 13.93 164.53 13.79 164.91 13.45 165.25 12.93 165.39 11.68 165.39"/><line class="a" x1="15.33" y1="161.74" x2="15.33" y2="165.39"/><polyline class="a" points="18.98 162.27 18.64 161.94 18.11 161.74 17.44 161.74 16.91 161.94 16.57 162.27 16.57 162.66 16.72 162.99 16.91 163.14 17.25 163.33 18.3 163.67 18.64 163.85 18.83 164.05 18.98 164.39 18.98 164.91 18.64 165.25 18.11 165.4 17.44 165.4 16.91 165.25 16.57 164.91"/><line class="a" x1="20.9" y1="161.74" x2="20.9" y2="165.39"/><line class="a" x1="19.7" y1="161.74" x2="22.15" y2="161.74"/><polygon class="a" points="23.16 165.06 23.01 165.25 23.16 165.39 23.35 165.25 23.16 165.06"/><polyline class="a" points="28.39 165.39 28.39 161.74 29.93 161.74 30.46 161.94 30.65 162.13 30.79 162.46 30.79 162.99 30.65 163.33 30.46 163.52 29.93 163.66 28.39 163.66"/><polyline class="a" points="32.04 165.39 32.04 161.74 33.58 161.74 34.11 161.94 34.3 162.13 34.45 162.46 34.45 162.8 34.3 163.14 34.11 163.33 33.58 163.52 32.04 163.52"/><line class="a" x1="33.24" y1="163.52" x2="34.44" y2="165.4"/><path class="a" d="M36.56,161.74l-.33.19-.39.33c-.58,1-.53,2.71.72,3.12h.67l.38-.15a2.3,2.3,0,0,0,0-3.31l-.38-.19Z"/><path class="a" d="M41.94,162.66l-.19-.39-.33-.33c-.93-.7-1.93.19-2.07,1.2v.91l.15.48.19.38.33.34.39.14h.67l.34-.14.33-.34.19-.38v-.48h-.87"/><polyline class="a" points="43.14 165.39 43.14 161.74 44.72 161.74 45.25 161.94 45.39 162.13 45.59 162.46 45.59 162.8 45.39 163.14 45.25 163.33 44.72 163.52 43.14 163.52"/><line class="a" x1="44.39" y1="163.52" x2="45.59" y2="165.4"/><polyline class="a" points="46.79 165.39 46.79 161.74 49.04 161.74"/><line class="a" x1="46.79" y1="163.52" x2="48.18" y2="163.52"/><line class="a" x1="46.79" y1="165.39" x2="49.04" y2="165.39"/><polyline class="a" points="52.36 162.27 52.02 161.94 51.49 161.74 50.82 161.74 50.3 161.94 49.96 162.27 49.96 162.66 50.1 162.99 50.3 163.14 50.63 163.33 51.69 163.67 52.02 163.85 52.21 164.05 52.36 164.39 52.36 164.91 52.02 165.25 51.49 165.4 50.82 165.4 50.3 165.25 49.96 164.91"/><path class="a" d="M55.87,162.27l-.39-.33-.48-.19h-.72l-.53.19-.33.33v.39l.19.33.14.15.34.19,1.06.34c1.51.82.63,2-.86,1.73l-.53-.15-.33-.33"/><line class="a" x1="57.07" y1="161.74" x2="57.07" y2="165.39"/><polyline class="a" points="57.93 161.74 59.33 165.39 60.72 161.74"/><polyline class="a" points="61.05 165.39 62.45 161.74 63.84 165.39"/><line class="a" x1="61.58" y1="164.19" x2="63.31" y2="164.19"/><path class="a" d="M12.93,167.84l-.39.33a3.85,3.85,0,0,0,0,4.9l.39.34"/><line class="a" x1="14.13" y1="169.76" x2="14.13" y2="172.21"/><polyline class="a" points="14.13 170.44 14.65 169.96 14.99 169.76 15.52 169.76 15.86 169.96 16.05 170.44 16.05 172.21"/><polyline class="a" points="16.05 170.44 16.58 169.96 16.91 169.76 17.44 169.76 17.78 169.96 17.97 170.44 17.97 172.21"/><path class="a" d="M19.17,167.84l.33.33a3.81,3.81,0,0,1,0,4.9l-.33.34"/><polygon class="a" points="11.68 146.42 11.68 142.77 12.93 142.77 13.45 142.92 13.79 143.3 13.93 143.64 14.13 144.16 14.13 145.03 13.93 145.56 13.79 145.89 13.45 146.23 12.93 146.42 11.68 146.42"/><line class="a" x1="15.33" y1="142.77" x2="15.33" y2="146.42"/><polyline class="a" points="18.98 143.3 18.64 142.91 18.11 142.77 17.44 142.77 16.91 142.91 16.58 143.3 16.58 143.63 16.72 143.97 16.91 144.17 17.25 144.31 18.3 144.64 18.64 144.84 18.83 145.03 18.98 145.36 18.98 145.9 18.64 146.23 18.11 146.42 17.44 146.42 16.91 146.23 16.58 145.9"/><line class="a" x1="20.9" y1="142.77" x2="20.9" y2="146.42"/><line class="a" x1="19.7" y1="142.77" x2="22.15" y2="142.77"/><polygon class="a" points="23.16 146.04 23.01 146.23 23.16 146.42 23.35 146.23 23.16 146.04"/><polyline class="a" points="28.39 146.42 28.39 142.77 29.93 142.77 30.46 142.92 30.65 143.11 30.79 143.44 30.79 143.97 30.65 144.31 30.46 144.5 29.93 144.65 28.39 144.65"/><polyline class="a" points="31.51 146.42 32.91 142.77 34.3 146.42"/><line class="a" x1="32.04" y1="145.17" x2="33.77" y2="145.17"/><polyline class="a" points="35.16 146.42 35.16 142.77 36.75 142.77 37.23 142.92 37.42 143.11 37.61 143.44 37.61 143.78 37.42 144.16 37.23 144.31 36.75 144.5 35.16 144.5"/><line class="a" x1="36.36" y1="144.5" x2="37.61" y2="146.42"/><polyline class="a" points="38.62 146.42 41.07 142.77 38.62 142.77"/><line class="a" x1="38.62" y1="146.42" x2="41.07" y2="146.42"/><line class="a" x1="42.27" y1="142.77" x2="42.27" y2="146.42"/><polyline class="a" points="43.14 146.42 44.53 142.77 45.92 146.42"/><line class="a" x1="43.66" y1="145.17" x2="45.39" y2="145.17"/><polyline class="a" points="46.79 142.77 46.79 146.42 48.9 146.42"/><polyline class="a" points="49.76 146.42 49.76 142.77 52.02 142.77"/><line class="a" x1="49.76" y1="144.5" x2="51.16" y2="144.5"/><line class="a" x1="49.76" y1="146.42" x2="52.02" y2="146.42"/><path class="a" d="M12.92,148.82l-.39.39a3.77,3.77,0,0,0,0,4.85l.39.34"/><line class="a" x1="14.13" y1="150.74" x2="14.13" y2="153.19"/><polyline class="a" points="14.13 151.46 14.65 150.94 14.99 150.74 15.52 150.74 15.85 150.94 16.05 151.46 16.05 153.19"/><polyline class="a" points="16.05 151.46 16.57 150.94 16.91 150.74 17.44 150.74 17.78 150.94 17.97 151.46 17.97 153.19"/><path class="a" d="M19.17,148.82l.33.39a3.74,3.74,0,0,1,0,4.85l-.33.34"/><polyline class="a" points="11.68 131.15 13.07 134.8 14.46 131.15"/><polyline class="a" points="15.33 134.8 15.33 131.15 17.58 131.15"/><line class="a" x1="15.33" y1="132.88" x2="16.72" y2="132.88"/><line class="a" x1="15.33" y1="134.8" x2="17.58" y2="134.8"/><polyline class="a" points="18.64 134.8 18.64 131.15 20.22 131.15 20.75 131.34 20.9 131.49 21.09 131.87 21.09 132.2 20.9 132.54 20.75 132.73 20.22 132.88 18.64 132.88"/><line class="a" x1="19.84" y1="132.88" x2="21.09" y2="134.8"/><line class="a" x1="23.01" y1="131.15" x2="23.01" y2="134.8"/><line class="a" x1="21.76" y1="131.15" x2="24.21" y2="131.15"/><line class="a" x1="25.08" y1="131.15" x2="25.08" y2="134.8"/><path class="a" d="M28.92,132l-.19-.33-.33-.34-.34-.19h-.72l-.34.19-.33.34-.19.33-.19.53v.87c.29,1,.94,1.84,2.11,1.25l.33-.39.19-.33"/><line class="a" x1="30.12" y1="131.15" x2="30.12" y2="134.8"/><path class="a" d="M12.73,183.65l-.33.19-.34.33-.19.39-.19.48v.86l.19.53.19.39.34.33.33.15h.72l.33-.15a2.3,2.3,0,0,0,0-3.31l-.33-.19Z"/><line class="a" x1="13.26" y1="186.62" x2="14.32" y2="187.68"/><polyline class="a" points="15.71 183.65 15.71 186.29 15.86 186.82 16.19 187.15 16.72 187.3 17.11 187.3 17.59 187.15 17.97 186.82 18.11 186.29 18.11 183.65"/><path class="a" d="M20.37,183.65l-.33.19-.34.33c-.61.85-.5,2.8.67,3.12h.72l.33-.15a2.19,2.19,0,0,0,0-3.31l-.33-.19Z"/><line class="a" x1="24.02" y1="183.65" x2="24.02" y2="187.3"/><line class="a" x1="22.82" y1="183.65" x2="25.27" y2="183.65"/><polyline class="a" points="25.61 187.3 27 183.65 28.39 187.3"/><line class="a" x1="26.13" y1="186.09" x2="27.86" y2="186.09"/><line class="a" x1="33.58" y1="183.65" x2="33.58" y2="187.3"/><line class="a" x1="32.38" y1="183.65" x2="34.83" y2="183.65"/><polyline class="a" points="35.69 187.3 35.69 183.65 37.95 183.65"/><line class="a" x1="35.69" y1="185.42" x2="37.09" y2="185.42"/><line class="a" x1="35.69" y1="187.3" x2="37.95" y2="187.3"/><polyline class="a" points="39.01 187.3 39.01 183.65 40.54 183.65 41.07 183.84 41.26 184.03 41.41 184.37 41.41 184.7 41.26 185.04 41.07 185.23 40.54 185.42 39.01 185.42"/><line class="a" x1="40.21" y1="185.42" x2="41.41" y2="187.3"/><polyline class="a" points="42.66 187.3 42.66 183.65 44.19 183.65 44.72 183.84 44.91 184.03 45.06 184.37 45.06 184.7 44.91 185.04 44.72 185.23 44.19 185.42 42.66 185.42"/><line class="a" x1="43.86" y1="185.42" x2="45.06" y2="187.3"/><polyline class="a" points="46.31 187.3 46.31 183.65 48.56 183.65"/><line class="a" x1="46.31" y1="185.42" x2="47.7" y2="185.42"/><line class="a" x1="46.31" y1="187.3" x2="48.56" y2="187.3"/><polyline class="a" points="49.57 187.3 49.57 183.65 52.02 187.3 52.02 183.65"/><path class="a" d="M54.28,183.65l-.33.19-.34.33-.19.39-.19.48v.86l.19.53.19.39.34.33.33.15H55l.33-.15a2.3,2.3,0,0,0,0-3.31l-.33-.19Z"/><path class="a" d="M12.92,189.75l-.39.33a3.85,3.85,0,0,0,0,4.9l.39.34"/><line class="a" x1="14.13" y1="191.67" x2="14.13" y2="194.12"/><polyline class="a" points="14.13 192.34 14.65 191.86 14.99 191.67 15.52 191.67 15.86 191.86 16.05 192.34 16.05 194.12"/><polyline class="a" points="16.05 192.34 16.57 191.86 16.91 191.67 17.44 191.67 17.78 191.86 17.97 192.34 17.97 194.12"/><polyline class="a" points="24.74 192.19 24.55 191.86 24.02 191.67 23.49 191.67 23.01 191.86 22.82 192.19 23.01 192.53 23.35 192.72 24.21 192.87 24.55 193.06 24.74 193.4 24.74 193.59 24.55 193.92 24.02 194.12 23.49 194.12 23.01 193.92 22.82 193.59"/><polygon class="a" points="26.13 193.73 25.94 193.93 26.13 194.12 26.28 193.93 26.13 193.73"/><line class="a" x1="27.67" y1="190.47" x2="27.67" y2="194.12"/><rect class="a" x="29.12" y="193.79" width="0.27" height="0.27" transform="translate(-128.55 77.47) rotate(-44.99)"/><line class="a" x1="30.79" y1="191.67" x2="30.79" y2="194.12"/><polyline class="a" points="30.79 192.34 31.32 191.86 31.71 191.67 32.19 191.67 32.57 191.86 32.71 192.34 32.71 194.12"/><polyline class="a" points="32.71 192.34 33.24 191.86 33.58 191.67 34.11 191.67 34.44 191.86 34.63 192.34 34.63 194.12"/><polygon class="a" points="36.22 193.73 36.03 193.93 36.22 194.12 36.37 193.93 36.22 193.73"/><path class="a" d="M37.61,189.75l.33.33a3.84,3.84,0,0,1,0,4.9l-.33.34"/><line class="c" x1="178.06" y1="34.6" x2="175.94" y2="35.71"/><line class="b" x1="210.67" y1="32.54" x2="213.74" y2="34.22"/><line class="c" x1="349" y1="45.27" x2="353.99" y2="45.31"/><line class="a" x1="278.63" y1="33.6" x2="278.59" y2="123.7"/><line class="a" x1="333.77" y1="23.8" x2="333.77" y2="123.7"/><line class="a" x1="341.22" y1="23.8" x2="341.22" y2="123.7"/><line class="a" x1="353.99" y1="45.32" x2="353.99" y2="123.7"/><line class="a" x1="182.28" y1="141.86" x2="182.28" y2="156.36"/><line class="a" x1="226.62" y1="141.86" x2="226.62" y2="156.36"/><line class="a" x1="278.58" y1="141.86" x2="278.58" y2="156.36"/><line class="a" x1="326.23" y1="141.86" x2="326.23" y2="156.36"/><line class="a" x1="333.77" y1="141.86" x2="333.77" y2="156.36"/><line class="a" x1="341.22" y1="141.86" x2="341.22" y2="156.36"/><line class="a" x1="353.99" y1="141.86" x2="353.99" y2="156.36"/><polyline class="a" points="167.68 146.9 169.6 146.9 168.55 148.29 169.07 148.29 169.41 148.44 169.6 148.63 169.75 149.11 169.75 149.5 169.6 149.98 169.22 150.36 168.74 150.5 168.21 150.5 167.68 150.36 167.49 150.17 167.35 149.83"/><polyline class="a" points="249 146.9 247.27 146.9 247.08 148.44 247.27 148.29 247.8 148.1 248.28 148.1 248.81 148.29 249.14 148.63 249.33 149.11 249.33 149.5 249.14 149.98 248.81 150.36 248.28 150.5 247.8 150.5 247.27 150.36 247.08 150.17 246.93 149.83"/><polygon class="a" points="250.73 150.17 250.53 150.36 250.73 150.5 250.87 150.36 250.73 150.17"/><polyline class="a" points="252.79 150.5 254.52 146.9 252.12 146.9"/><polyline class="a" points="201.54 146.9 199.81 149.3 202.41 149.3"/><line class="a" x1="201.54" y1="146.9" x2="201.54" y2="150.5"/><polygon class="a" points="203.61 150.17 203.41 150.36 203.61 150.5 203.75 150.36 203.61 150.17"/><path class="a" d="M207.21,148.1l-.15.53-.33.34a1.15,1.15,0,0,1-1.25-1.92l.53-.15h.19l.53.15.33.38.15.67V149l-.15.86-.33.53-.53.15h-.33l-.53-.15-.19-.38"/><polyline class="a" points="300.34 146.9 298.61 146.9 298.47 148.44 298.61 148.29 299.14 148.1 299.67 148.1 300.2 148.29 300.54 148.63 300.68 149.11 300.68 149.5 300.54 149.98 300.2 150.36 299.67 150.5 299.14 150.5 298.61 150.36 298.47 150.17 298.28 149.83"/><polygon class="a" points="302.07 150.17 301.93 150.36 302.07 150.5 302.26 150.36 302.07 150.17"/><polyline class="a" points="303.66 147.77 303.66 147.57 303.8 147.24 303.99 147.04 304.33 146.9 305 146.9 305.39 147.04 305.53 147.24 305.72 147.57 305.72 147.91 305.53 148.29 305.19 148.77 303.46 150.5 305.87 150.5"/><polygon class="a" points="328.58 151.8 328.78 152.33 329.26 152.67 330.12 152.86 330.65 152.86 331.51 152.67 332.04 152.33 332.24 151.8 332.24 151.47 332.04 150.93 331.51 150.6 330.65 150.46 330.12 150.46 329.26 150.6 328.78 150.93 328.58 151.47 328.58 151.8"/><polygon class="a" points="331.85 149.06 332.04 149.21 332.24 149.06 332.04 148.87 331.85 149.06"/><path class="a" d="M328.59,146.81l.19.53.33.15h.34l.33-.15L330,147l.14-.72.19-.53.33-.34.34-.14h.53l.33.14.19.19.19.53v.67l-.19.53c-2.56,1.69-1.34-3-3.26-1.73l-.19.53Z"/><polygon class="a" points="335.65 151.9 335.79 152.42 336.32 152.76 337.18 152.95 337.71 152.95 338.58 152.76 339.1 152.42 339.25 151.9 339.25 151.56 339.1 151.03 338.58 150.7 337.71 150.5 337.18 150.5 336.32 150.7 335.79 151.03 335.65 151.56 335.65 151.9"/><polygon class="a" points="338.91 149.11 339.11 149.3 339.25 149.11 339.11 148.97 338.91 149.11"/><polygon class="a" points="335.65 146.9 335.79 147.38 336.17 147.57 336.51 147.57 336.85 147.38 337.04 147.05 337.18 146.37 337.38 145.85 337.71 145.51 338.05 145.32 338.58 145.32 338.91 145.51 339.1 145.65 339.25 146.18 339.25 146.9 339.1 147.38 338.91 147.57 338.58 147.77 338.05 147.77 337.71 147.57 337.38 147.24 337.18 146.71 337.04 146.03 336.85 145.65 336.51 145.51 336.17 145.51 335.79 145.65 335.65 146.18 335.65 146.9"/><polyline class="a" points="343.24 147.57 343.62 147.43 344.1 146.9 344.1 150.5"/><polygon class="a" points="346.55 150.17 346.36 150.36 346.55 150.5 346.69 150.36 346.55 150.17"/><polyline class="a" points="349.67 146.9 347.94 149.3 350.54 149.3"/><line class="a" x1="349.67" y1="146.9" x2="349.67" y2="150.5"/><polyline class="a" points="372.05 146.9 370.32 149.3 372.92 149.3"/><line class="a" x1="372.05" y1="146.9" x2="372.05" y2="150.5"/><polygon class="a" points="374.12 150.17 373.97 150.36 374.12 150.5 374.31 150.36 374.12 150.17"/><polyline class="a" points="377.58 146.9 375.85 146.9 375.7 148.44 375.85 148.29 376.38 148.1 376.9 148.1 377.43 148.29 377.77 148.63 377.91 149.11 377.91 149.5 377.77 149.98 377.43 150.36 376.9 150.5 376.38 150.5 375.85 150.36 375.7 150.17 375.51 149.83"/><polyline class="a" points="180.75 172.5 180.5 172.17 179.78 171.69 184.78 171.69"/><polyline class="a" points="180.99 169.52 180.75 169.52 180.26 169.38 180.02 169.19 179.78 168.85 179.78 168.18 180.02 167.84 180.26 167.7 180.75 167.51 181.23 167.51 181.66 167.7 182.38 168.03 184.78 169.67 184.78 167.36"/><polygon class="a" points="184.3 166.02 184.54 166.21 184.78 166.02 184.54 165.87 184.3 166.02"/><polyline class="a" points="179.78 164.38 179.78 162.51 181.66 163.52 181.66 163.04 181.9 162.7 182.14 162.51 182.86 162.37 183.34 162.37 184.06 162.51 184.54 162.85 184.78 163.38 184.78 163.86 184.54 164.38 184.3 164.53 183.82 164.72"/><polyline class="a" points="225.08 172.5 224.84 172.17 224.12 171.69 229.11 171.69"/><polyline class="a" points="229.11 169.04 224.12 167.36 224.12 169.67"/><polygon class="a" points="228.63 166.02 228.87 166.21 229.11 166.02 228.87 165.87 228.63 166.02"/><polyline class="a" points="225.32 164.53 225.08 164.53 224.6 164.38 224.36 164.19 224.12 163.85 224.12 163.19 224.36 162.85 224.6 162.71 225.08 162.51 225.56 162.51 226.04 162.71 226.71 163.04 229.11 164.72 229.11 162.37"/><polyline class="a" points="277.29 172.5 277.05 172.5 276.57 172.36 276.33 172.17 276.09 171.88 276.09 171.21 276.33 170.87 276.57 170.68 277.05 170.53 277.53 170.53 278.01 170.68 278.73 171.01 281.08 172.69 281.08 170.34"/><polyline class="a" points="277.29 169.19 277.05 169.19 276.57 169.04 276.33 168.85 276.09 168.51 276.09 167.84 276.33 167.51 276.57 167.36 277.05 167.17 277.53 167.17 278.01 167.36 278.73 167.7 281.08 169.38 281.08 167.03"/><polygon class="a" points="280.6 165.68 280.84 165.87 281.08 165.68 280.84 165.54 280.6 165.68"/><polyline class="a" points="277.77 162.22 278.49 162.37 278.97 162.7 279.21 163.18 279.21 163.38 278.97 163.86 278.49 164.19 277.77 164.38 277.53 164.38 276.81 164.19 276.33 163.86 276.09 163.38 276.09 163.18 276.33 162.7 276.81 162.37 277.77 162.22 278.97 162.22 280.17 162.37 280.84 162.7 281.08 163.18 281.08 163.52 280.84 164.05 280.41 164.19"/><polyline class="a" points="324.89 172.6 324.69 172.6 324.21 172.45 323.97 172.26 323.73 171.93 323.73 171.25 323.97 170.92 324.21 170.78 324.69 170.63 325.13 170.63 325.61 170.78 326.33 171.11 328.73 172.79 328.73 170.44"/><polygon class="a" points="323.73 168.61 323.97 169.09 324.45 169.28 324.89 169.28 325.37 169.09 325.61 168.76 325.85 168.13 326.09 167.6 326.57 167.27 327.05 167.12 327.77 167.12 328.25 167.27 328.49 167.46 328.73 167.94 328.73 168.61 328.49 169.09 328.25 169.28 327.77 169.43 327.05 169.43 326.57 169.28 326.09 168.95 325.85 168.42 325.61 167.8 325.37 167.46 324.89 167.27 324.45 167.27 323.97 167.46 323.73 167.94 323.73 168.61"/><polygon class="a" points="328.25 165.78 328.49 165.97 328.73 165.78 328.49 165.63 328.25 165.78"/><polyline class="a" points="324.89 164.29 324.69 164.29 324.21 164.1 323.97 163.95 323.73 163.62 323.73 162.95 323.97 162.61 324.21 162.47 324.69 162.27 325.13 162.27 325.61 162.47 326.33 162.8 328.73 164.44 328.73 162.13"/><polyline class="a" points="332.43 170 332.19 170 331.75 169.86 331.51 169.67 331.27 169.38 331.27 168.71 331.51 168.37 331.75 168.18 332.19 168.03 332.67 168.03 333.15 168.18 333.87 168.52 336.27 170.2 336.27 167.84"/><polyline class="a" points="332.91 164.72 333.63 164.87 334.11 165.2 334.35 165.68 334.35 165.88 334.11 166.35 333.63 166.69 332.91 166.88 332.67 166.88 331.95 166.69 331.51 166.35 331.27 165.88 331.27 165.68 331.51 165.2 331.95 164.87 332.91 164.72 334.11 164.72 335.31 164.87 336.03 165.2 336.27 165.68 336.27 166.02 336.03 166.54 335.55 166.69"/><polyline class="a" points="339.87 172.6 339.68 172.6 339.2 172.45 338.96 172.26 338.72 171.93 338.72 171.25 338.96 170.92 339.2 170.78 339.68 170.63 340.11 170.63 340.59 170.78 341.31 171.11 343.72 172.79 343.72 170.44"/><polygon class="a" points="338.72 168.61 338.96 169.09 339.44 169.28 339.87 169.28 340.35 169.09 340.59 168.76 340.83 168.13 341.07 167.6 341.56 167.27 342.04 167.12 342.75 167.12 343.23 167.27 343.47 167.46 343.71 167.94 343.71 168.61 343.47 169.09 343.23 169.28 342.75 169.43 342.04 169.43 341.56 169.28 341.07 168.95 340.83 168.42 340.59 167.8 340.35 167.46 339.87 167.27 339.44 167.27 338.96 167.46 338.72 167.94 338.72 168.61"/><polygon class="a" points="343.24 165.78 343.48 165.97 343.71 165.78 343.48 165.63 343.24 165.78"/><polygon class="a" points="338.72 163.62 338.96 164.1 339.44 164.29 339.87 164.29 340.35 164.1 340.59 163.76 340.83 163.14 341.07 162.61 341.56 162.27 342.04 162.13 342.75 162.13 343.23 162.27 343.47 162.46 343.71 162.94 343.71 163.62 343.47 164.1 343.23 164.29 342.75 164.43 342.04 164.43 341.56 164.29 341.07 163.95 340.83 163.47 340.59 162.8 340.35 162.46 339.87 162.27 339.44 162.27 338.96 162.46 338.72 162.94 338.72 163.62"/><polyline class="a" points="351.5 172.45 351.5 170.63 353.42 171.59 353.42 171.11 353.66 170.77 353.9 170.63 354.62 170.44 355.05 170.44 355.77 170.63 356.25 170.92 356.49 171.45 356.49 171.93 356.25 172.45 356.01 172.6 355.53 172.79"/><polyline class="a" points="352.46 168.95 352.22 168.61 351.5 168.13 356.49 168.13"/><polygon class="a" points="356.01 165.78 356.25 165.97 356.49 165.78 356.25 165.63 356.01 165.78"/><polyline class="a" points="352.7 164.29 352.46 164.29 351.98 164.1 351.74 163.95 351.5 163.62 351.5 162.95 351.74 162.61 351.98 162.47 352.46 162.27 352.94 162.27 353.42 162.47 354.14 162.8 356.49 164.44 356.49 162.13"/><polyline class="a" points="178.25 197.67 178.01 197.34 177.29 196.85 182.28 196.85"/><polygon class="a" points="177.29 194.02 177.53 194.5 178.01 194.69 178.49 194.69 178.97 194.5 179.16 194.17 179.4 193.49 179.64 193.01 180.12 192.68 180.6 192.53 181.32 192.53 181.8 192.68 182.04 192.87 182.28 193.35 182.28 194.02 182.04 194.5 181.8 194.69 181.32 194.84 180.6 194.84 180.12 194.69 179.64 194.35 179.4 193.83 179.16 193.15 178.97 192.87 178.49 192.68 178.01 192.68 177.53 192.87 177.29 193.35 177.29 194.02"/><polyline class="a" points="178.97 189.36 179.64 189.51 180.12 189.84 180.36 190.37 180.36 190.51 180.12 191 179.64 191.33 178.97 191.52 178.73 191.52 178.01 191.33 177.53 191 177.29 190.51 177.29 190.37 177.53 189.84 178.01 189.51 178.97 189.36 180.12 189.36 181.32 189.51 182.04 189.84 182.28 190.37 182.28 190.66 182.04 191.18 181.56 191.33"/><polygon class="a" points="181.8 187.87 182.04 188.02 182.28 187.87 182.04 187.68 181.8 187.87"/><path class="a" d="M177.29,185.71l.24.48.48.15h.48l.48-.15.19-.33.24-.67.24-.48.48-.33.48-.19h.72l.48.19.24.14.24.53v.67l-.24.48c-3.58,1.64-1.77-2.82-4.51-1.68l-.24.53Z"/><polyline class="a" points="178.49 183.02 178.25 183.02 177.77 182.88 177.53 182.69 177.29 182.35 177.29 181.68 177.53 181.34 177.77 181.2 178.25 181.05 178.73 181.05 179.16 181.2 179.88 181.53 182.28 183.21 182.28 180.86"/><polyline class="a" points="225.08 197.67 224.84 197.34 224.12 196.85 229.11 196.85"/><polygon class="a" points="224.12 194.02 224.36 194.5 224.84 194.69 225.32 194.69 225.8 194.5 226.04 194.17 226.28 193.49 226.47 193.01 226.95 192.68 227.43 192.53 228.15 192.53 228.63 192.68 228.87 192.87 229.11 193.35 229.11 194.02 228.87 194.5 228.63 194.69 228.15 194.84 227.43 194.84 226.95 194.69 226.47 194.35 226.28 193.83 226.04 193.15 225.8 192.87 225.32 192.68 224.84 192.68 224.36 192.87 224.12 193.35 224.12 194.02"/><polyline class="a" points="225.8 189.36 226.47 189.51 226.95 189.84 227.19 190.37 227.19 190.51 226.95 191 226.47 191.33 225.8 191.52 225.56 191.52 224.84 191.33 224.36 191 224.12 190.51 224.12 190.37 224.36 189.84 224.84 189.51 225.8 189.36 226.95 189.36 228.15 189.51 228.87 189.84 229.11 190.37 229.11 190.66 228.87 191.18 228.39 191.33"/><polygon class="a" points="228.63 187.87 228.87 188.02 229.11 187.87 228.87 187.68 228.63 187.87"/><path class="a" d="M224.12,185.71l.24.48.48.15h.48l.48-.15.24-.33.24-.67.19-.48.48-.33.48-.19h.72l.48.19.24.14.24.53v.67l-.24.48c-3.65,1.62-1.65-2.81-4.51-1.68l-.24.53Z"/><polyline class="a" points="229.11 182.54 224.12 180.86 224.12 183.21"/><polyline class="a" points="277.05 197.67 276.81 197.34 276.09 196.85 281.08 196.85"/><polygon class="a" points="276.09 194.02 276.33 194.5 276.81 194.69 277.29 194.69 277.77 194.5 278.01 194.17 278.25 193.49 278.49 193.01 278.97 192.68 279.45 192.53 280.17 192.53 280.6 192.68 280.84 192.87 281.08 193.35 281.08 194.02 280.84 194.5 280.6 194.69 280.17 194.84 279.45 194.84 278.97 194.69 278.49 194.35 278.25 193.83 278.01 193.15 277.77 192.87 277.29 192.68 276.81 192.68 276.33 192.87 276.09 193.35 276.09 194.02"/><polyline class="a" points="277.77 189.36 278.49 189.51 278.97 189.84 279.21 190.37 279.21 190.51 278.97 191 278.49 191.33 277.77 191.52 277.53 191.52 276.81 191.33 276.33 191 276.09 190.51 276.09 190.37 276.33 189.84 276.81 189.51 277.77 189.36 278.97 189.36 280.17 189.51 280.84 189.84 281.08 190.37 281.08 190.66 280.84 191.18 280.41 191.33"/><polygon class="a" points="280.6 187.87 280.84 188.02 281.08 187.87 280.84 187.68 280.6 187.87"/><polyline class="a" points="277.77 184.37 278.49 184.51 278.97 184.85 279.21 185.37 279.21 185.52 278.97 186 278.49 186.34 277.77 186.53 277.53 186.53 276.81 186.34 276.33 186 276.09 185.52 276.09 185.37 276.33 184.85 276.81 184.51 277.77 184.37 278.97 184.37 280.17 184.51 280.84 184.85 281.08 185.37 281.08 185.71 280.84 186.19 280.41 186.34"/><polyline class="a" points="276.09 182.88 276.09 181.05 278.01 182.01 278.01 181.53 278.25 181.19 278.49 181.05 279.21 180.86 279.69 180.86 280.41 181.05 280.84 181.34 281.08 181.87 281.08 182.35 280.84 182.88 280.6 183.02 280.17 183.21"/><polyline class="a" points="324.6 197.67 324.36 197.34 323.64 196.85 328.63 196.85"/><polygon class="a" points="323.64 194.02 323.88 194.5 324.36 194.69 324.84 194.69 325.32 194.5 325.56 194.17 325.8 193.49 326.04 193.01 326.52 192.68 327 192.53 327.67 192.53 328.15 192.68 328.39 192.87 328.63 193.35 328.63 194.02 328.39 194.5 328.15 194.69 327.67 194.84 327 194.84 326.52 194.69 326.04 194.35 325.8 193.83 325.56 193.15 325.32 192.87 324.84 192.68 324.36 192.68 323.88 192.87 323.64 193.35 323.64 194.02"/><polyline class="a" points="325.32 189.36 326.04 189.51 326.52 189.84 326.76 190.37 326.76 190.51 326.52 191 326.04 191.33 325.32 191.52 325.08 191.52 324.36 191.33 323.88 191 323.64 190.51 323.64 190.37 323.88 189.84 324.36 189.51 325.32 189.36 326.52 189.36 327.67 189.51 328.39 189.84 328.63 190.37 328.63 190.66 328.39 191.18 327.91 191.33"/><polygon class="a" points="328.15 187.87 328.39 188.02 328.63 187.87 328.39 187.68 328.15 187.87"/><polyline class="a" points="325.32 184.37 326.04 184.51 326.52 184.85 326.76 185.37 326.76 185.52 326.52 186 326.04 186.34 325.32 186.53 325.08 186.53 324.36 186.34 323.88 186 323.64 185.52 323.64 185.37 323.88 184.85 324.36 184.51 325.32 184.37 326.52 184.37 327.67 184.51 328.39 184.85 328.63 185.37 328.63 185.71 328.39 186.19 327.91 186.34"/><path class="a" d="M323.64,182.35l.24.53.48.15h.48l.48-.15.24-.33.24-.67.24-.53.48-.29.48-.19h.67l.48.19.24.14.24.48v.67l-.24.53c-3.45,1.65-1.77-2.82-4.51-1.68l-.24.48Z"/><polyline class="a" points="332.24 197.19 332 196.85 331.27 196.32 336.27 196.32"/><polyline class="a" points="332.96 192.19 333.63 192.34 334.11 192.68 334.35 193.16 334.35 193.35 334.11 193.83 333.63 194.16 332.96 194.36 332.72 194.36 332 194.16 331.51 193.83 331.27 193.35 331.27 193.16 331.51 192.68 332 192.34 332.96 192.19 334.11 192.19 335.31 192.34 336.03 192.68 336.27 193.16 336.27 193.49 336.03 194.02 335.55 194.16"/><polyline class="a" points="332.24 190.51 332 190.18 331.27 189.7 336.27 189.7"/><polygon class="a" points="335.79 187.34 336.03 187.54 336.27 187.34 336.03 187.2 335.79 187.34"/><polygon class="a" points="331.27 185.04 331.51 185.52 332.24 185.85 333.44 186 334.11 186 335.31 185.85 336.03 185.52 336.27 185.04 336.27 184.7 336.03 184.17 335.31 183.84 334.11 183.69 333.44 183.69 332.24 183.84 331.51 184.17 331.27 184.7 331.27 185.04"/><polyline class="a" points="332.24 182.2 332 181.87 331.27 181.34 336.27 181.34"/><polyline class="a" points="339.58 197.19 339.34 196.85 338.62 196.32 343.62 196.32"/><polyline class="a" points="340.31 192.19 341.02 192.34 341.46 192.68 341.7 193.16 341.7 193.35 341.46 193.83 341.02 194.16 340.31 194.36 340.06 194.36 339.34 194.16 338.86 193.83 338.62 193.35 338.62 193.16 338.86 192.68 339.34 192.34 340.31 192.19 341.46 192.19 342.66 192.34 343.38 192.68 343.62 193.16 343.62 193.49 343.38 194.02 342.9 194.16"/><polyline class="a" points="339.58 190.51 339.34 190.18 338.62 189.7 343.62 189.7"/><polygon class="a" points="343.14 187.34 343.38 187.54 343.62 187.34 343.38 187.2 343.14 187.34"/><polygon class="a" points="338.62 185.04 338.86 185.52 339.58 185.85 340.79 186 341.46 186 342.66 185.85 343.38 185.52 343.62 185.04 343.62 184.7 343.38 184.17 342.66 183.84 341.46 183.69 340.79 183.69 339.58 183.84 338.86 184.17 338.62 184.7 338.62 185.04"/><polyline class="a" points="339.58 182.2 339.34 181.87 338.62 181.34 343.62 181.34"/><polyline class="a" points="352.36 197.77 352.12 197.43 351.4 196.9 356.39 196.9"/><path class="a" d="M351.4,194.12l.24.48.48.15h.48l.48-.15.24-.33.24-.67.24-.48.48-.33.48-.19h.72l.43.19.24.14.24.53v.67l-.24.48c-3.44,1.65-1.77-2.82-4.51-1.68l-.24.53Z"/><path class="a" d="M351.4,190.75l.24.53.48.15h.48l.48-.15.24-.33.24-.67.24-.53.48-.29.48-.19h.72l.43.19.24.14.24.48v.67l-.24.53c-3.44,1.65-1.77-2.82-4.51-1.68l-.24.48Z"/><polygon class="a" points="355.92 187.92 356.15 188.11 356.39 187.92 356.15 187.78 355.92 187.92"/><polyline class="a" points="352.12 184.46 351.64 184.61 351.4 185.09 351.4 185.42 351.64 185.95 352.36 186.28 353.56 186.43 354.76 186.43 355.72 186.28 356.15 185.95 356.39 185.42 356.39 185.28 356.15 184.8 355.72 184.46 355 184.27 354.76 184.27 354.04 184.46 353.56 184.8 353.32 185.28 353.32 185.42 353.56 185.95 354.04 186.28 354.76 186.43"/><polyline class="a" points="351.4 181.63 354.76 183.26 354.76 180.76"/><line class="a" x1="351.4" y1="181.63" x2="356.39" y2="181.63"/><polyline class="a" points="194.34 8.28 194.1 8.04 193.71 7.9 193.18 7.9 192.8 8.04 192.56 8.28 192.56 8.52 192.7 8.81 192.8 8.91 193.09 9.05 193.86 9.29 194.1 9.44 194.24 9.58 194.34 9.82 194.34 10.21 194.1 10.45 193.71 10.59 193.18 10.59 192.8 10.45 192.56 10.21"/><polyline class="a" points="197.03 8.52 196.88 8.28 196.64 8.04 196.4 7.9 195.87 7.9 195.63 8.04 195.35 8.28 195.25 8.52 195.11 8.91 195.11 9.58 195.25 9.96 195.35 10.21 195.63 10.45 195.87 10.59 196.4 10.59 196.64 10.45 196.88 10.21 197.03 9.96"/><polyline class="a" points="197.56 10.59 198.56 7.9 199.57 10.59"/><line class="a" x1="197.94" y1="9.68" x2="199.19" y2="9.68"/><polyline class="a" points="199.81 7.9 200.87 10.59 201.88 7.9"/><path class="a" d="M203.13,7.9l-.24.15-.24.24a1.55,1.55,0,0,0,.48,2.3h.53l.24-.15a1.58,1.58,0,0,0,0-2.4l-.24-.15Z"/><line class="a" x1="205.34" y1="9.05" x2="207.59" y2="9.05"/><line class="a" x1="205.34" y1="9.82" x2="207.59" y2="9.82"/><polyline class="a" points="208.89 8.43 209.13 8.28 209.52 7.9 209.52 10.59"/><polygon class="a" points="211.29 10.3 211.2 10.45 211.29 10.59 211.44 10.45 211.29 10.3"/><polyline class="a" points="213.98 8.81 213.84 9.2 213.6 9.44 213.21 9.58 213.12 9.58 212.73 9.44 212.45 9.2 212.35 8.81 212.35 8.67 212.45 8.28 212.73 8.04 213.12 7.9 213.21 7.9 213.6 8.04 213.84 8.28 213.98 8.81 213.98 9.44 213.84 10.06 213.6 10.45 213.21 10.59 212.97 10.59 212.59 10.45 212.45 10.21"/><polyline class="a" points="214.99 8.52 214.99 8.43 215.14 8.14 215.28 8.04 215.52 7.9 216.05 7.9 216.29 8.04 216.43 8.14 216.53 8.43 216.53 8.67 216.43 8.91 216.15 9.29 214.9 10.59 216.67 10.59"/><line class="a" x1="220.23" y1="8.81" x2="220.23" y2="10.59"/><polyline class="a" points="220.23 9.29 220.61 8.91 220.9 8.81 221.24 8.81 221.52 8.91 221.62 9.29 221.62 10.59"/><polyline class="a" points="221.62 9.29 222.01 8.91 222.29 8.81 222.68 8.81 222.91 8.91 223.06 9.29 223.06 10.59"/><line class="a" x1="225.46" y1="8.81" x2="225.46" y2="11.45"/><path class="a" d="M225.46,9.2l-.24-.29c-1.76-.76-1.65,2.39,0,1.54l.24-.24"/><polyline class="a" points="271.72 22.45 271.72 19.76 272.87 19.76 273.25 19.91 273.35 20 273.49 20.24 273.49 20.53 273.35 20.77 273.25 20.92 272.87 21.01 271.72 21.01"/><line class="a" x1="272.58" y1="21.01" x2="273.49" y2="22.45"/><line class="a" x1="274.41" y1="19.76" x2="274.41" y2="22.45"/><polyline class="a" points="275.41 22.45 275.41 19.76 276.57 19.76 276.95 19.91 277.05 20 277.19 20.24 277.19 20.63 277.05 20.92 276.95 21.01 276.57 21.16 275.41 21.16"/><path class="a" d="M278.73,19.76l-.24.15-.29.24a1.63,1.63,0,0,0,.53,2.3h.53l.24-.15a1.57,1.57,0,0,0,0-2.4l-.24-.15Z"/><polyline class="a" points="280.89 22.45 280.89 19.76 282.04 19.76 282.43 19.91 282.57 20 282.67 20.24 282.67 20.53 282.57 20.77 282.43 20.92 282.04 21.01 280.89 21.01"/><line class="a" x1="281.8" y1="21.01" x2="282.67" y2="22.45"/><line class="a" x1="284.11" y1="19.76" x2="284.11" y2="22.45"/><line class="a" x1="283.2" y1="19.76" x2="284.97" y2="19.76"/><polygon class="a" points="286.27 19.76 285.98 19.91 285.74 20.15 285.6 20.39 285.5 20.77 285.5 21.4 285.6 21.78 285.74 22.07 285.98 22.31 286.27 22.45 286.75 22.45 287.04 22.31 287.28 22.07 287.42 21.78 287.52 21.4 287.52 20.77 287.42 20.39 287.28 20.15 287.04 19.91 286.75 19.76 286.27 19.76"/><line class="a" x1="288.43" y1="20.92" x2="290.73" y2="20.92"/><line class="a" x1="288.43" y1="21.68" x2="290.73" y2="21.68"/><polyline class="a" points="291.99 20.24 292.23 20.15 292.61 19.76 292.61 22.45"/><polyline class="a" points="295.83 20.15 295.68 19.91 295.3 19.76 295.06 19.76 294.67 19.91 294.43 20.24 294.29 20.91 294.29 21.54 294.43 22.07 294.67 22.31 295.06 22.45 295.2 22.45 295.59 22.31 295.83 22.07 295.92 21.68 295.92 21.54 295.83 21.16 295.59 20.91 295.2 20.77 295.06 20.77 294.67 20.91 294.43 21.16 294.29 21.54"/><polygon class="a" points="296.98 22.16 296.83 22.31 296.98 22.45 297.07 22.31 296.98 22.16"/><polyline class="a" points="299.29 19.76 297.99 21.54 299.91 21.54"/><line class="a" x1="299.29" y1="19.76" x2="299.29" y2="22.45"/><polyline class="a" points="301.06 22.45 302.31 19.76 300.54 19.76"/><line class="a" x1="305.91" y1="20.63" x2="305.91" y2="22.45"/><polyline class="a" points="305.91 21.16 306.3 20.77 306.54 20.63 306.92 20.63 307.16 20.77 307.31 21.16 307.31 22.45"/><polyline class="a" points="307.31 21.16 307.69 20.77 307.93 20.63 308.31 20.63 308.56 20.77 308.7 21.16 308.7 22.45"/><line class="a" x1="311.1" y1="20.63" x2="311.1" y2="23.32"/><polyline class="b" points="225.51 11.36 190.49 11.36 198.08 26.68"/><polyline class="c" points="270.04 23.41 313.6 23.41 313.6 33.26"/><line class="a" x1="326.23" y1="123.7" x2="326.23" y2="123.66"/><line class="a" x1="155.05" y1="34.8" x2="326.23" y2="33.11"/><polyline class="a" points="155.05 123.7 182.28 123.7 182.28 34.56"/><line class="a" x1="226.62" y1="123.7" x2="226.62" y2="34.12"/><path class="a" d="M183.29,130.43h-2.21l-.24,2,.24-.24c4-1.46,3.25,4.68-.24,2.5l-.24-.48"/><polyline class="a" points="227.77 131.1 227.53 130.67 226.85 130.43 226.43 130.43 225.75 130.67 225.32 131.34 225.08 132.44 225.08 133.55 225.32 134.46 225.75 134.89 226.43 135.13 226.66 135.13 227.34 134.89 227.77 134.46 228.01 133.79 228.01 133.55 227.77 132.88 227.34 132.44 226.66 132.2 226.43 132.2 225.75 132.44 225.32 132.88 225.08 133.55"/><polyline class="a" points="277.86 135.13 280.07 130.43 276.95 130.43"/><polygon class="a" points="325.7 130.43 325.03 130.67 324.79 131.1 324.79 131.53 325.03 132.01 325.46 132.2 326.38 132.44 327.05 132.68 327.48 133.12 327.72 133.55 327.72 134.22 327.48 134.7 327.24 134.89 326.57 135.13 325.7 135.13 325.03 134.89 324.79 134.7 324.55 134.22 324.55 133.55 324.79 133.12 325.22 132.68 325.9 132.44 326.81 132.2 327.24 132.01 327.48 131.53 327.48 131.1 327.24 130.67 326.57 130.43 325.7 130.43"/><polyline class="a" points="335.12 132.01 334.92 132.69 334.44 133.12 333.77 133.35 333.58 133.35 332.91 133.12 332.43 132.69 332.23 132.01 332.23 131.77 332.43 131.1 332.91 130.67 333.58 130.43 333.77 130.43 334.44 130.67 334.92 131.1 335.12 132.01 335.12 133.12 334.92 134.22 334.44 134.89 333.77 135.13 333.34 135.13 332.67 134.89 332.43 134.46"/><polyline class="a" points="337.66 131.34 338.1 131.1 338.77 130.43 338.77 135.13"/><polygon class="a" points="342.8 130.43 342.13 130.67 341.7 131.34 341.46 132.44 341.46 133.12 341.7 134.22 342.13 134.89 342.8 135.13 343.24 135.13 343.91 134.89 344.39 134.22 344.58 133.12 344.58 132.44 344.39 131.34 343.91 130.67 343.24 130.43 342.8 130.43"/><polyline class="a" points="351.11 131.34 351.59 131.1 352.27 130.43 352.27 135.13"/><polyline class="a" points="355.63 131.34 356.06 131.1 356.73 130.43 356.73 135.13"/><line class="a" x1="326.23" y1="123.7" x2="326.23" y2="33.12"/><polyline class="a" points="220.66 29.85 220.66 27.16 221.81 27.16 222.19 27.25 222.34 27.4 222.48 27.64 222.48 28.03 222.34 28.31 222.19 28.41 221.81 28.55 220.66 28.55"/><polyline class="a" points="223.35 29.85 223.35 27.16 225.03 27.16"/><line class="a" x1="223.35" y1="28.41" x2="224.36" y2="28.41"/><line class="a" x1="223.35" y1="29.85" x2="225.03" y2="29.85"/><polyline class="a" points="225.8 29.85 225.8 27.16 227.57 29.85 227.57 27.16"/><polygon class="a" points="228.58 29.85 228.58 27.16 229.5 27.16 229.88 27.25 230.12 27.55 230.27 27.79 230.36 28.17 230.36 28.79 230.27 29.18 230.12 29.46 229.88 29.7 229.5 29.85 228.58 29.85"/><polyline class="a" points="231.27 29.85 231.27 27.16 232.91 27.16"/><line class="a" x1="231.27" y1="28.41" x2="232.28" y2="28.41"/><line class="a" x1="231.27" y1="29.85" x2="232.91" y2="29.85"/><polyline class="a" points="233.68 29.85 233.68 27.16 235.5 29.85 235.5 27.16"/><polyline class="a" points="236.37 29.85 238.14 27.16 236.37 27.16"/><line class="a" x1="236.37" y1="29.85" x2="238.14" y2="29.85"/><polyline class="a" points="238.67 29.85 239.68 27.16 240.69 29.85"/><line class="a" x1="239.05" y1="28.94" x2="240.3" y2="28.94"/><line class="a" x1="241.36" y1="28.31" x2="243.62" y2="28.31"/><line class="a" x1="241.36" y1="29.08" x2="243.62" y2="29.08"/><polyline class="a" points="244.91 27.64 245.16 27.55 245.54 27.16 245.54 29.85"/><line class="a" x1="249.38" y1="27.16" x2="247.08" y2="29.85"/><polyline class="a" points="247.7 27.16 247.99 27.4 247.99 27.64 247.85 27.93 247.61 28.03 247.31 28.03 247.07 27.79 247.07 27.55 247.22 27.25 247.46 27.16 247.7 27.16 247.99 27.25 248.37 27.4 248.76 27.4 249.14 27.25 249.38 27.16"/><polygon class="a" points="248.85 28.94 248.61 29.08 248.47 29.32 248.47 29.56 248.76 29.85 249 29.85 249.24 29.7 249.38 29.46 249.38 29.18 249.14 28.94 248.85 28.94"/><line class="a" x1="20.8" y1="118.13" x2="29.59" y2="118.13"/><polygon class="a" points="38.38 118.13 29.59 123.66 29.59 118.13 38.38 118.13"/><line class="a" x1="36.94" y1="119.04" x2="37.85" y2="118.13"/><line class="a" x1="30.12" y1="123.32" x2="35.31" y2="118.13"/><line class="a" x1="29.59" y1="121.25" x2="32.71" y2="118.13"/><line class="a" x1="29.59" y1="118.66" x2="30.17" y2="118.13"/><line class="a" x1="33.72" y1="121.06" x2="30.84" y2="118.13"/><line class="a" x1="32.18" y1="122.02" x2="29.59" y2="119.48"/><line class="a" x1="30.6" y1="123.03" x2="29.59" y2="122.02"/><line class="a" x1="35.31" y1="120.05" x2="33.38" y2="118.13"/><line class="a" x1="36.89" y1="119.04" x2="35.98" y2="118.13"/><line class="a" x1="20.8" y1="118.13" x2="29.59" y2="123.66"/><path class="a" d="M12.35,110.35l-.39.19-.38.38c-.71,1.09-.56,3,.77,3.56h.82l.39-.19a2.58,2.58,0,0,0,0-3.75l-.39-.19Z"/><line class="a" x1="12.97" y1="113.66" x2="14.13" y2="114.87"/><line class="a" x1="15.71" y1="111.69" x2="15.71" y2="114.48"/><polyline class="a" points="15.71 112.9 15.9 112.32 16.29 111.89 16.72 111.69 17.29 111.69"/><polygon class="a" points="18.06 110.54 18.3 110.73 18.5 110.54 18.3 110.35 18.06 110.54"/><line class="a" x1="18.3" y1="111.89" x2="18.3" y2="114.48"/><polyline class="a" points="21.04 110.35 20.66 110.35 20.27 110.54 20.08 111.12 20.08 114.48"/><line class="a" x1="19.46" y1="111.69" x2="20.85" y2="111.69"/><polygon class="a" points="22.43 111.69 22.24 111.89 22.43 112.13 22.63 111.89 22.43 111.69"/><rect class="a" x="22.3" y="114.15" width="0.27" height="0.27" transform="translate(-74.24 49.33) rotate(-45)"/><polyline class="a" points="28.77 111.12 29.16 110.92 29.73 110.35 29.73 114.48"/><polygon class="a" points="33.1 110.35 32.52 110.54 32.33 110.92 32.33 111.31 32.52 111.69 32.9 111.89 33.67 112.13 34.3 112.32 34.68 112.7 34.87 113.09 34.87 113.67 34.68 114.09 34.49 114.29 33.91 114.48 33.1 114.48 32.52 114.29 32.33 114.09 32.14 113.67 32.14 113.09 32.33 112.7 32.71 112.32 33.29 112.13 34.1 111.89 34.49 111.69 34.68 111.31 34.68 110.92 34.49 110.54 33.91 110.35 33.1 110.35"/><polygon class="a" points="37.23 110.35 36.65 110.54 36.27 111.12 36.07 112.13 36.07 112.7 36.27 113.67 36.65 114.29 37.23 114.48 37.66 114.48 38.24 114.29 38.62 113.67 38.81 112.7 38.81 112.13 38.62 111.12 38.24 110.54 37.66 110.35 37.23 110.35"/><line class="a" x1="44.38" y1="111.69" x2="44.38" y2="114.48"/><polyline class="a" points="44.38 112.51 44.96 111.89 45.34 111.7 45.92 111.7 46.35 111.89 46.55 112.51 46.55 114.48"/><polyline class="a" points="46.55 112.51 47.12 111.89 47.51 111.7 48.13 111.7 48.52 111.89 48.71 112.51 48.71 114.48"/><polyline class="a" points="56.39 112.32 56.2 111.89 55.62 111.69 55.05 111.69 54.42 111.89 54.23 112.32 54.42 112.7 54.86 112.89 55.82 113.09 56.2 113.28 56.39 113.66 56.39 113.9 56.2 114.29 55.62 114.48 55.05 114.48 54.42 114.29 54.23 113.9"/><rect class="a" x="57.84" y="114.15" width="0.27" height="0.27" transform="translate(-63.83 74.46) rotate(-45)"/><line class="a" x1="59.75" y1="110.35" x2="59.75" y2="114.48"/><rect class="a" x="61.39" y="114.15" width="0.27" height="0.27" transform="translate(-62.79 76.97) rotate(-45)"/><line class="a" x1="63.31" y1="111.69" x2="63.31" y2="114.48"/><polyline class="a" points="63.31 112.51 63.94 111.89 64.32 111.7 64.89 111.7 65.28 111.89 65.52 112.51 65.52 114.48"/><polyline class="a" points="65.52 112.51 66.09 111.89 66.48 111.7 67.1 111.7 67.49 111.89 67.68 112.51 67.68 114.48"/><rect class="a" x="69.32" y="114.15" width="0.27" height="0.27" transform="translate(-60.47 82.58) rotate(-45)"/><line class="d" x1="142.22" y1="30.38" x2="146.07" y2="26.53"/><line class="d" x1="146.07" y1="30.38" x2="142.22" y2="26.53"/><line class="d" x1="331.85" y1="25.72" x2="335.7" y2="21.87"/><line class="d" x1="335.69" y1="25.72" x2="331.85" y2="21.87"/><line class="e" x1="153.13" y1="36.72" x2="156.97" y2="32.87"/><line class="e" x1="156.97" y1="36.72" x2="153.13" y2="32.87"/><line class="e" x1="324.31" y1="35.04" x2="328.15" y2="31.19"/><line class="e" x1="328.15" y1="35.04" x2="324.31" y2="31.19"/></svg>