<svg xmlns="http://www.w3.org/2000/svg" viewBox="0 0 325.77 101.93"><defs><style>.a,.b,.c,.d{fill:none;stroke-linecap:round;stroke-linejoin:round;stroke-width:0.25px;}.a{stroke:#000;}.b{stroke:red;}.c{stroke:#00bfff;}.d{stroke:#00b800;}</style></defs><title>cad3.0</title><line class="a" x1="294.2" y1="89" x2="294.2" y2="88.98"/><line class="a" x1="295.76" y1="82.49" x2="295.76" y2="82.48"/><line class="a" x1="297.44" y1="75.52" x2="297.44" y2="75.51"/><line class="a" x1="298.7" y1="68.06" x2="298.7" y2="68.05"/><line class="a" x1="299.33" y1="60.67" x2="299.33" y2="60.66"/><line class="a" x1="299.72" y1="57.81" x2="299.72" y2="57.8"/><line class="a" x1="299.41" y1="50.57" x2="299.41" y2="50.55"/><line class="a" x1="298.81" y1="43.63" x2="298.81" y2="43.61"/><line class="a" x1="298.06" y1="38.08" x2="298.06" y2="38.07"/><line class="a" x1="296.44" y1="25.97" x2="296.44" y2="25.96"/><line class="a" x1="295.18" y1="20.75" x2="295.18" y2="20.73"/><line class="a" x1="294.12" y1="17.31" x2="294.12" y2="17.29"/><line class="a" x1="292.05" y1="11.45" x2="292.05" y2="11.44"/><line class="a" x1="289.89" y1="6.07" x2="289.89" y2="6.05"/><line class="a" x1="294.74" y1="21.49" x2="294.74" y2="21.47"/><line class="a" x1="295.1" y1="22.43" x2="295.1" y2="22.42"/><line class="a" x1="295.16" y1="23.55" x2="295.16" y2="23.53"/><line class="a" x1="295.57" y1="25.61" x2="295.57" y2="25.59"/><line class="a" x1="295.47" y1="24.71" x2="295.47" y2="24.69"/><line class="a" x1="295.44" y1="26.42" x2="295.44" y2="26.41"/><line class="a" x1="295.5" y1="27.83" x2="295.5" y2="27.82"/><line class="a" x1="296.05" y1="29.75" x2="296.05" y2="29.73"/><line class="a" x1="293.81" y1="21.27" x2="293.81" y2="21.25"/><line class="a" x1="294.35" y1="20.37" x2="294.35" y2="20.35"/><line class="a" x1="293.84" y1="18.99" x2="293.84" y2="18.97"/><line class="a" x1="293.01" y1="17.23" x2="293.01" y2="17.22"/><line class="a" x1="238.19" y1="33.41" x2="238.19" y2="33.39"/><line class="a" x1="238.42" y1="36.54" x2="238.42" y2="36.53"/><line class="a" x1="238.66" y1="39.62" x2="238.66" y2="39.6"/><line class="a" x1="238.79" y1="43.51" x2="238.79" y2="43.5"/><line class="a" x1="239.06" y1="48.46" x2="239.06" y2="48.45"/><line class="a" x1="239.6" y1="52.86" x2="239.6" y2="52.85"/><line class="a" x1="239.77" y1="57.77" x2="239.77" y2="57.75"/><line class="a" x1="239.82" y1="62.76" x2="239.82" y2="62.75"/><line class="a" x1="239.73" y1="67.45" x2="239.73" y2="67.44"/><line class="a" x1="239.57" y1="72.18" x2="239.57" y2="72.17"/><line class="a" x1="239.4" y1="76.58" x2="239.4" y2="76.57"/><line class="a" x1="239.06" y1="81.11" x2="239.06" y2="81.1"/><line class="a" x1="238.83" y1="85.93" x2="238.83" y2="85.92"/><line class="a" x1="192.82" y1="36.02" x2="192.82" y2="36"/><line class="a" x1="192.78" y1="40.4" x2="192.78" y2="40.39"/><line class="a" x1="192.79" y1="44.98" x2="192.79" y2="44.96"/><line class="a" x1="192.75" y1="49.9" x2="192.75" y2="49.88"/><line class="a" x1="192.6" y1="55.52" x2="192.6" y2="55.5"/><line class="a" x1="191.94" y1="61.48" x2="191.94" y2="61.47"/><line class="a" x1="191.49" y1="66.81" x2="191.49" y2="66.8"/><line class="a" x1="191.24" y1="72.14" x2="191.24" y2="72.13"/><line class="a" x1="190.38" y1="77.56" x2="190.38" y2="77.54"/><line class="a" x1="190.01" y1="82.97" x2="190.01" y2="82.96"/><line class="a" x1="189.64" y1="87.2" x2="189.64" y2="87.18"/><line class="a" x1="189.09" y1="92.61" x2="189.09" y2="92.6"/><line class="a" x1="192.55" y1="32.91" x2="192.55" y2="32.9"/><line class="a" x1="192.23" y1="34.1" x2="192.23" y2="34.09"/><line class="a" x1="193.18" y1="28.85" x2="193.18" y2="28.83"/><line class="a" x1="193.23" y1="26.67" x2="193.23" y2="26.65"/><line class="a" x1="144.52" y1="32.3" x2="144.52" y2="32.29"/><line class="a" x1="144.61" y1="37.31" x2="144.61" y2="37.3"/><line class="a" x1="144.71" y1="42.92" x2="144.71" y2="42.9"/><line class="a" x1="144.72" y1="48.97" x2="144.72" y2="48.95"/><line class="a" x1="144.72" y1="54.43" x2="144.72" y2="54.41"/><line class="a" x1="144.48" y1="61.01" x2="144.48" y2="60.99"/><line class="a" x1="144.16" y1="66.74" x2="144.16" y2="66.73"/><line class="a" x1="143.88" y1="72.95" x2="143.88" y2="72.94"/><line class="a" x1="143.58" y1="79.56" x2="143.58" y2="79.54"/><line class="a" x1="143.43" y1="86.3" x2="143.43" y2="86.28"/><line class="a" x1="143.34" y1="90.81" x2="143.34" y2="90.8"/><line class="a" x1="141.96" y1="26.68" x2="141.96" y2="26.67"/><line class="a" x1="140.19" y1="24.32" x2="140.19" y2="24.3"/><line class="a" x1="140.11" y1="23.82" x2="140.11" y2="23.81"/><line class="a" x1="140.28" y1="24.71" x2="140.28" y2="24.69"/><line class="a" x1="140.29" y1="31.93" x2="140.29" y2="31.91"/><line class="a" x1="101.66" y1="31.01" x2="101.66" y2="31"/><line class="a" x1="101.14" y1="36.06" x2="101.14" y2="36.05"/><line class="a" x1="100.99" y1="41.64" x2="100.99" y2="41.62"/><line class="a" x1="101.04" y1="47.34" x2="101.04" y2="47.33"/><line class="a" x1="101.3" y1="53.7" x2="101.3" y2="53.69"/><line class="a" x1="101.08" y1="59.34" x2="101.08" y2="59.32"/><line class="a" x1="100.8" y1="64.97" x2="100.8" y2="64.95"/><line class="a" x1="100.82" y1="70.69" x2="100.82" y2="70.67"/><line class="a" x1="100.5" y1="78.05" x2="100.5" y2="78.03"/><line class="a" x1="100.51" y1="83.47" x2="100.51" y2="83.45"/><line class="a" x1="100.76" y1="90.51" x2="100.76" y2="90.49"/><line class="a" x1="100.72" y1="96.66" x2="100.72" y2="96.65"/><line class="a" x1="99.44" y1="26.35" x2="99.44" y2="26.34"/><line class="a" x1="99.98" y1="23.93" x2="99.98" y2="23.91"/><line class="a" x1="100.01" y1="24.33" x2="100.01" y2="24.32"/><line class="a" x1="62.69" y1="24.13" x2="62.69" y2="24.11"/><line class="a" x1="62.67" y1="24.16" x2="62.67" y2="24.14"/><line class="a" x1="63.67" y1="21.94" x2="63.67" y2="21.92"/><line class="a" x1="63.64" y1="20.48" x2="63.64" y2="20.47"/><line class="a" x1="63.54" y1="19.11" x2="63.54" y2="19.09"/><line class="a" x1="63.71" y1="17.74" x2="63.71" y2="17.73"/><line class="a" x1="63.64" y1="16.77" x2="63.64" y2="16.75"/><line class="a" x1="63.36" y1="15.65" x2="63.36" y2="15.64"/><line class="a" x1="62.14" y1="27.15" x2="62.14" y2="27.13"/><line class="a" x1="62.03" y1="32.61" x2="62.03" y2="32.59"/><line class="a" x1="61.82" y1="39.43" x2="61.82" y2="39.42"/><line class="a" x1="61.66" y1="47.21" x2="61.66" y2="47.2"/><line class="a" x1="61.88" y1="54.65" x2="61.88" y2="54.63"/><line class="a" x1="62.2" y1="61.93" x2="62.2" y2="61.92"/><line class="a" x1="62.61" y1="69.16" x2="62.61" y2="69.15"/><line class="a" x1="63.19" y1="76.84" x2="63.19" y2="76.83"/><line class="a" x1="63.38" y1="84.63" x2="63.38" y2="84.61"/><line class="a" x1="16.54" y1="24.97" x2="16.54" y2="24.96"/><line class="a" x1="16.85" y1="32.06" x2="16.85" y2="32.04"/><line class="a" x1="16.09" y1="38.94" x2="16.09" y2="38.92"/><line class="a" x1="15.76" y1="45.8" x2="15.76" y2="45.79"/><line class="a" x1="14.84" y1="53.6" x2="14.84" y2="53.59"/><line class="a" x1="14.31" y1="60.98" x2="14.31" y2="60.96"/><line class="a" x1="13.88" y1="68.8" x2="13.88" y2="68.79"/><line class="a" x1="13.46" y1="76.41" x2="13.46" y2="76.39"/><line class="a" x1="13.1" y1="84.8" x2="13.1" y2="84.79"/><line class="a" x1="16.18" y1="20.18" x2="16.18" y2="20.16"/><line class="a" x1="16.42" y1="18" x2="16.42" y2="17.99"/><line class="a" x1="19.33" y1="13.34" x2="19.33" y2="13.33"/><line class="a" x1="17.54" y1="15.45" x2="17.54" y2="15.43"/><line class="a" x1="15.61" y1="20.95" x2="15.61" y2="20.93"/><line class="a" x1="256.19" y1="11.28" x2="256.19" y2="11.27"/><line class="a" x1="203.22" y1="11.57" x2="203.22" y2="11.56"/><line class="a" x1="202.84" y1="14.55" x2="202.84" y2="14.53"/><line class="a" x1="202.98" y1="17.61" x2="202.98" y2="17.6"/><line class="a" x1="202.81" y1="22.42" x2="202.81" y2="22.4"/><line class="a" x1="146.94" y1="10.06" x2="146.94" y2="10.05"/><line class="a" x1="146.71" y1="12.95" x2="146.71" y2="12.94"/><line class="a" x1="146.39" y1="16.3" x2="146.39" y2="16.29"/><line class="a" x1="70.91" y1="3.38" x2="70.91" y2="3.37"/><line class="a" x1="70.42" y1="5.39" x2="70.42" y2="5.37"/><line class="a" x1="70.04" y1="8.12" x2="70.04" y2="8.1"/><line class="a" x1="69.68" y1="11.18" x2="69.68" y2="11.16"/><line class="a" x1="69.59" y1="12.4" x2="69.59" y2="12.38"/><line class="a" x1="69.42" y1="13.5" x2="69.42" y2="13.49"/><line class="a" x1="69.14" y1="14.45" x2="69.14" y2="14.43"/><line class="a" x1="69.16" y1="15.08" x2="69.16" y2="15.07"/><line class="a" x1="69.16" y1="15.85" x2="69.16" y2="15.84"/><line class="a" x1="69.11" y1="17.6" x2="69.11" y2="17.58"/><line class="a" x1="68.86" y1="17.17" x2="68.86" y2="17.16"/><line class="a" x1="68.75" y1="18.05" x2="68.75" y2="18.03"/><line class="a" x1="68.63" y1="19.47" x2="68.63" y2="19.45"/><line class="a" x1="68.53" y1="21.37" x2="68.53" y2="21.36"/><line class="a" x1="68.05" y1="24.23" x2="68.05" y2="24.22"/><line class="a" x1="67.38" y1="28.85" x2="67.38" y2="28.83"/><line class="a" x1="67.24" y1="33.57" x2="67.24" y2="33.55"/><line class="a" x1="66.76" y1="39.78" x2="66.76" y2="39.76"/><line class="a" x1="66.45" y1="46.84" x2="66.45" y2="46.82"/><line class="a" x1="66.66" y1="53.54" x2="66.66" y2="53.53"/><line class="a" x1="67.21" y1="60.98" x2="67.21" y2="60.96"/><line class="a" x1="66.96" y1="73.55" x2="66.96" y2="73.53"/><line class="a" x1="18.01" y1="0.01" x2="18.01"/><line class="a" x1="20.46" y1="2.13" x2="20.46" y2="2.12"/><line class="b" x1="238.83" y1="85.93" x2="238.12" y2="23.05"/><line class="c" x1="17.82" y1="9.68" x2="69.42" y2="13.5"/><line class="d" x1="16.5" y1="37.09" x2="68.2" y2="41.03"/><line class="c" x1="16.61" y1="35.73" x2="68.3" y2="39.66"/><polyline class="c" points="146.8 22.13 192.78 25.78 238.07 23.05"/><polyline class="d" points="146.25 49.59 191.25 53.18 238.4 50.51"/><polyline class="c" points="146.31 48.22 191.4 51.8 238.41 49.14"/><line class="b" x1="189.06" y1="93.05" x2="192.87" y2="25.77"/><line class="c" x1="69.42" y1="13.5" x2="100.24" y2="20.24"/><line class="d" x1="68.2" y1="41.03" x2="99.83" y2="47.68"/><line class="c" x1="68.3" y1="39.66" x2="99.89" y2="46.31"/><line class="c" x1="100.24" y1="20.24" x2="146.8" y2="22.12"/><line class="d" x1="99.83" y1="47.68" x2="146.25" y2="49.59"/><line class="c" x1="99.89" y1="46.31" x2="146.31" y2="48.21"/><line class="b" x1="66.96" y1="73.55" x2="69.34" y2="13.5"/><line class="b" x1="99.09" y1="99.09" x2="100.17" y2="20.25"/><line class="b" x1="145.41" y1="90.88" x2="146.75" y2="22.18"/><line class="b" x1="14.8" y1="72.58" x2="17.77" y2="9.64"/><line class="b" x1="294.62" y1="21.5" x2="310.91" y2="84.54"/><polyline class="a" points="1.5 10.44 14.89 11.25 13.62 9.83"/><line class="a" x1="14.89" y1="11.25" x2="13.46" y2="12.51"/><line class="a" x1="192.68" y1="28.15" x2="192.68" y2="28.14"/><line class="a" x1="146.74" y1="25.29" x2="146.74" y2="25.28"/><line class="a" x1="69.11" y1="17.6" x2="69.11" y2="17.58"/><polyline class="d" points="17.5 8.04 69.68 11.18 100.54 17.93 146.71 19.56 193.05 23.49"/><line class="a" x1="237.8" y1="21.85" x2="237.8" y2="21.83"/><polyline class="d" points="193.05 23.49 238 21.85 294.65 21.25"/><line class="c" x1="238.08" y1="23.05" x2="294.74" y2="21.49"/><line class="d" x1="238.39" y1="50.51" x2="301.71" y2="48.78"/><line class="c" x1="238.41" y1="49.13" x2="301.32" y2="47.43"/><polyline class="b" points="6.45 67.02 9.2 67.02 7.15 71.13"/><polyline class="b" points="54.67 70.95 56.71 70.95 57.41 71.63 57.41 72.33 56.71 73.01 55.35 73.01 54.67 72.33 54.67 70.27 56.03 68.89 56.71 68.89"/><polyline class="b" points="89.68 95.66 90.37 96.34 91.75 96.34 92.43 95.66 92.43 94.28 91.75 93.6 89.68 93.6 89.68 92.23 92.43 92.23"/><polyline class="b" points="137.99 86.69 135.26 86.69 137.3 83.94 137.3 88.07"/><polyline class="b" points="180.81 86.89 181.5 86.21 182.88 86.21 183.56 86.89 183.56 87.57 182.88 88.26 182.19 88.26"/><polyline class="b" points="182.88 88.26 183.56 88.95 183.56 89.64 182.88 90.32 181.5 90.32 180.81 89.64"/><polyline class="b" points="231.28 80.87 231.96 80.18 233.34 80.18 234.03 80.87 234.03 81.55 233.34 82.25 231.96 82.25 231.28 82.93 231.28 84.29 234.03 84.29"/><polyline class="b" points="302.07 78.62 302.77 77.92 302.77 82.04"/><line class="b" x1="302.07" y1="82.04" x2="303.45" y2="82.04"/><polyline class="a" points="23.45 2.02 23.57 1.96 23.73 1.8 23.73 2.96"/><polyline class="a" points="25.14 2.18 25.08 2.35 24.96 2.47 24.79 2.51 24.74 2.51 24.57 2.47 24.45 2.35 24.41 2.18 24.41 2.13 24.45 1.96 24.57 1.84 24.74 1.8 24.79 1.8 24.96 1.84 25.08 1.96 25.14 2.18 25.14 2.47 25.08 2.74 24.96 2.9 24.79 2.96 24.69 2.96 24.51 2.9 24.45 2.8"/><polygon class="a" points="25.86 1.8 25.69 1.84 25.57 2.02 25.51 2.29 25.51 2.47 25.57 2.74 25.69 2.9 25.86 2.96 25.96 2.96 26.14 2.9 26.24 2.74 26.3 2.47 26.3 2.29 26.24 2.02 26.14 1.84 25.96 1.8 25.86 1.8"/><polygon class="a" points="26.75 2.86 26.69 2.9 26.75 2.96 26.8 2.9 26.75 2.86"/><polyline class="a" points="27.75 1.8 27.2 2.57 28.02 2.57"/><line class="a" x1="27.75" y1="1.8" x2="27.75" y2="2.96"/><polyline class="a" points="29.04 2.18 28.98 2.35 28.87 2.47 28.71 2.51 28.65 2.51 28.48 2.47 28.36 2.35 28.32 2.18 28.32 2.13 28.36 1.96 28.48 1.84 28.65 1.8 28.71 1.8 28.87 1.84 28.98 1.96 29.04 2.18 29.04 2.47 28.98 2.74 28.87 2.9 28.71 2.96 28.59 2.96 28.42 2.9 28.36 2.8"/><line class="a" x1="30.65" y1="2.18" x2="30.65" y2="2.96"/><polyline class="a" points="30.65 2.41 30.83 2.24 30.93 2.18 31.1 2.18 31.2 2.24 31.26 2.41 31.26 2.96"/><polyline class="a" points="31.26 2.41 31.44 2.24 31.55 2.18 31.71 2.18 31.83 2.24 31.89 2.41 31.89 2.96"/><polyline class="a" points="34.05 2.35 34.01 2.23 33.83 2.18 33.67 2.18 33.5 2.23 33.44 2.35 33.5 2.47 33.61 2.51 33.89 2.57 34.01 2.63 34.05 2.74 34.05 2.8 34.01 2.9 33.83 2.96 33.67 2.96 33.5 2.9 33.44 2.8"/><polygon class="a" points="34.5 2.86 34.44 2.9 34.5 2.96 34.56 2.9 34.5 2.86"/><line class="a" x1="35.01" y1="1.8" x2="35.01" y2="2.96"/><polygon class="a" points="35.5 2.86 35.46 2.9 35.5 2.96 35.56 2.9 35.5 2.86"/><line class="a" x1="36.01" y1="2.18" x2="36.01" y2="2.96"/><polyline class="a" points="36.01 2.41 36.18 2.24 36.29 2.18 36.46 2.18 36.56 2.24 36.62 2.41 36.62 2.96"/><polyline class="a" points="36.62 2.41 36.79 2.24 36.9 2.18 37.07 2.18 37.19 2.24 37.24 2.41 37.24 2.96"/><polygon class="a" points="37.74 2.86 37.68 2.9 37.74 2.96 37.8 2.9 37.74 2.86"/><polyline class="a" points="23.57 13.84 23.67 13.78 23.84 13.6 23.84 14.78"/><polygon class="a" points="24.79 13.6 24.63 13.66 24.57 13.78 24.57 13.89 24.63 13.99 24.73 14.05 24.96 14.11 25.12 14.17 25.24 14.27 25.3 14.39 25.3 14.56 25.24 14.66 25.18 14.72 25.02 14.78 24.79 14.78 24.63 14.72 24.57 14.66 24.51 14.56 24.51 14.39 24.57 14.27 24.68 14.17 24.84 14.11 25.06 14.05 25.18 13.99 25.24 13.89 25.24 13.78 25.18 13.66 25.02 13.6 24.79 13.6"/><polyline class="a" points="26.36 13.99 26.3 14.17 26.18 14.27 26.02 14.33 25.96 14.33 25.79 14.27 25.69 14.17 25.63 13.99 25.63 13.94 25.69 13.78 25.79 13.66 25.96 13.6 26.02 13.6 26.18 13.66 26.3 13.78 26.36 13.99 26.36 14.27 26.3 14.56 26.18 14.72 26.02 14.78 25.91 14.78 25.75 14.72 25.69 14.61"/><polygon class="a" points="26.85 14.66 26.8 14.72 26.85 14.78 26.91 14.72 26.85 14.66"/><polyline class="a" points="27.53 14.78 28.08 13.6 27.3 13.6"/><polyline class="a" points="29.14 13.99 29.09 14.17 28.98 14.27 28.81 14.33 28.75 14.33 28.59 14.27 28.48 14.17 28.42 13.99 28.42 13.94 28.48 13.78 28.59 13.66 28.75 13.6 28.81 13.6 28.98 13.66 29.09 13.78 29.14 13.99 29.14 14.27 29.09 14.56 28.98 14.72 28.81 14.78 28.69 14.78 28.53 14.72 28.48 14.61"/><line class="a" x1="30.75" y1="14" x2="30.75" y2="14.78"/><polyline class="a" points="30.75 14.23 30.93 14.05 31.04 13.99 31.2 13.99 31.32 14.05 31.38 14.23 31.38 14.78"/><polyline class="a" points="31.38 14.23 31.54 14.05 31.65 13.99 31.83 13.99 31.93 14.05 31.99 14.23 31.99 14.78"/><polyline class="a" points="34.17 14.17 34.11 14.05 33.95 13.99 33.77 13.99 33.61 14.05 33.56 14.17 33.61 14.27 33.72 14.33 33.99 14.39 34.11 14.45 34.17 14.56 34.17 14.61 34.11 14.72 33.95 14.78 33.77 14.78 33.61 14.72 33.56 14.61"/><rect class="a" x="34.57" y="14.68" width="0.08" height="0.08" transform="translate(-0.27 28.79) rotate(-45)"/><line class="a" x1="35.11" y1="13.6" x2="35.11" y2="14.78"/><rect class="a" x="35.58" y="14.68" width="0.08" height="0.08" transform="translate(0.02 29.5) rotate(-45)"/><line class="a" x1="36.11" y1="14" x2="36.11" y2="14.78"/><polyline class="a" points="36.11 14.23 36.28 14.05 36.4 13.99 36.56 13.99 36.68 14.05 36.73 14.23 36.73 14.78"/><polyline class="a" points="36.74 14.23 36.9 14.05 37.01 13.99 37.17 13.99 37.29 14.05 37.35 14.23 37.35 14.78"/><polygon class="a" points="37.85 14.66 37.8 14.72 37.85 14.78 37.9 14.72 37.85 14.66"/><polyline class="a" points="22.59 30.49 22.7 30.43 22.87 30.27 22.87 31.45"/><polygon class="a" points="23.81 30.27 23.65 30.33 23.6 30.43 23.6 30.55 23.65 30.66 23.76 30.72 23.99 30.78 24.15 30.82 24.26 30.94 24.32 31.05 24.32 31.21 24.26 31.33 24.21 31.39 24.05 31.45 23.81 31.45 23.65 31.39 23.6 31.33 23.54 31.21 23.54 31.05 23.6 30.94 23.7 30.82 23.87 30.78 24.09 30.72 24.21 30.66 24.26 30.55 24.26 30.43 24.21 30.33 24.05 30.27 23.81 30.27"/><polyline class="a" points="25.38 30.66 25.32 30.82 25.21 30.94 25.05 31 24.99 31 24.82 30.94 24.71 30.82 24.66 30.66 24.66 30.6 24.71 30.43 24.82 30.33 24.99 30.27 25.05 30.27 25.21 30.33 25.32 30.43 25.38 30.66 25.38 30.94 25.32 31.21 25.21 31.39 25.05 31.45 24.93 31.45 24.76 31.39 24.71 31.27"/><rect class="a" x="25.83" y="31.35" width="0.08" height="0.08" transform="translate(-14.62 27.49) rotate(-45)"/><polyline class="a" points="27.05 30.66 26.99 30.82 26.89 30.94 26.72 31 26.66 31 26.5 30.94 26.38 30.82 26.33 30.66 26.33 30.6 26.38 30.43 26.5 30.33 26.66 30.27 26.72 30.27 26.89 30.33 26.99 30.43 27.05 30.66 27.05 30.94 26.99 31.21 26.89 31.39 26.72 31.45 26.6 31.45 26.44 31.39 26.38 31.27"/><polygon class="a" points="27.72 30.27 27.56 30.33 27.5 30.43 27.5 30.55 27.56 30.66 27.66 30.72 27.89 30.78 28.05 30.82 28.17 30.94 28.23 31.05 28.23 31.21 28.17 31.33 28.11 31.39 27.95 31.45 27.72 31.45 27.56 31.39 27.5 31.33 27.44 31.21 27.44 31.05 27.5 30.94 27.6 30.82 27.78 30.78 28 30.72 28.11 30.66 28.17 30.55 28.17 30.43 28.11 30.33 27.95 30.27 27.72 30.27"/><line class="a" x1="29.78" y1="30.66" x2="29.78" y2="31.45"/><polyline class="a" points="29.78 30.88 29.95 30.72 30.07 30.66 30.23 30.66 30.35 30.72 30.41 30.88 30.41 31.45"/><polyline class="a" points="30.41 30.88 30.57 30.72 30.68 30.66 30.84 30.66 30.96 30.72 31.02 30.88 31.02 31.45"/><polyline class="a" points="33.19 30.82 33.13 30.72 32.96 30.66 32.8 30.66 32.63 30.72 32.58 30.82 32.63 30.94 32.74 31 33.02 31.05 33.13 31.11 33.19 31.21 33.19 31.27 33.13 31.39 32.96 31.45 32.8 31.45 32.63 31.39 32.58 31.27"/><polygon class="a" points="33.64 31.33 33.59 31.39 33.64 31.45 33.69 31.39 33.64 31.33"/><line class="a" x1="34.14" y1="30.27" x2="34.14" y2="31.45"/><rect class="a" x="34.6" y="31.35" width="0.08" height="0.08" transform="translate(-12.05 33.69) rotate(-45)"/><line class="a" x1="35.14" y1="30.66" x2="35.14" y2="31.45"/><polyline class="a" points="35.14 30.88 35.31 30.72 35.43 30.66 35.59 30.66 35.7 30.72 35.76 30.88 35.76 31.45"/><polyline class="a" points="35.76 30.88 35.92 30.72 36.04 30.66 36.2 30.66 36.31 30.72 36.37 30.88 36.37 31.45"/><polygon class="a" points="36.87 31.33 36.82 31.39 36.87 31.45 36.92 31.39 36.87 31.33"/><polyline class="a" points="22.65 41.16 22.77 41.12 22.94 40.94 22.94 42.12"/><polyline class="a" points="24.34 41.33 24.28 41.49 24.16 41.61 24 41.67 23.95 41.67 23.77 41.61 23.66 41.49 23.61 41.33 23.61 41.27 23.66 41.12 23.77 41 23.95 40.94 24 40.94 24.16 41 24.28 41.12 24.34 41.33 24.34 41.61 24.28 41.88 24.16 42.06 24 42.12 23.89 42.12 23.71 42.06 23.66 41.94"/><polyline class="a" points="24.89 41.16 25 41.12 25.16 40.94 25.16 42.12"/><rect class="a" x="25.91" y="42.02" width="0.08" height="0.08" transform="translate(-22.14 30.66) rotate(-45)"/><polygon class="a" points="26.73 40.94 26.56 41 26.46 41.16 26.4 41.45 26.4 41.61 26.46 41.88 26.56 42.06 26.73 42.12 26.85 42.12 27.01 42.06 27.13 41.88 27.18 41.61 27.18 41.45 27.13 41.16 27.01 41 26.85 40.94 26.73 40.94"/><polyline class="a" points="27.68 41.16 27.79 41.12 27.95 40.94 27.95 42.12"/><line class="a" x1="29.85" y1="41.33" x2="29.85" y2="42.12"/><polyline class="a" points="29.85 41.55 30.03 41.39 30.13 41.33 30.3 41.33 30.42 41.39 30.46 41.55 30.46 42.12"/><polyline class="a" points="30.46 41.55 30.64 41.39 30.75 41.33 30.91 41.33 31.03 41.39 31.09 41.55 31.09 42.12"/><polyline class="a" points="33.27 41.49 33.21 41.39 33.03 41.33 32.87 41.33 32.7 41.39 32.64 41.49 32.7 41.61 32.82 41.67 33.09 41.73 33.21 41.78 33.27 41.88 33.27 41.94 33.21 42.06 33.03 42.12 32.87 42.12 32.7 42.06 32.64 41.94"/><rect class="a" x="33.66" y="42.02" width="0.08" height="0.08" transform="translate(-19.87 36.15) rotate(-45)"/><line class="a" x1="34.21" y1="40.94" x2="34.21" y2="42.12"/><polygon class="a" points="34.7 42 34.66 42.06 34.7 42.12 34.76 42.06 34.7 42"/><line class="a" x1="35.21" y1="41.33" x2="35.21" y2="42.12"/><polyline class="a" points="35.21 41.55 35.38 41.39 35.49 41.33 35.66 41.33 35.76 41.39 35.82 41.55 35.82 42.12"/><polyline class="a" points="35.82 41.55 35.99 41.39 36.11 41.33 36.27 41.33 36.39 41.39 36.45 41.55 36.45 42.12"/><rect class="a" x="36.9" y="42.02" width="0.08" height="0.08" transform="translate(-18.92 38.43) rotate(-45)"/><polyline class="a" points="72.61 6.91 72.71 6.85 72.89 6.69 72.89 7.87"/><polyline class="a" points="74.28 7.08 74.22 7.24 74.11 7.36 73.95 7.42 73.89 7.42 73.71 7.36 73.61 7.24 73.55 7.08 73.55 7.03 73.61 6.85 73.71 6.75 73.89 6.69 73.95 6.69 74.11 6.75 74.22 6.85 74.28 7.08 74.28 7.36 74.22 7.64 74.11 7.81 73.95 7.87 73.83 7.87 73.67 7.81 73.61 7.69"/><polygon class="a" points="75.01 6.69 74.83 6.75 74.73 6.91 74.67 7.2 74.67 7.36 74.73 7.64 74.83 7.81 75.01 7.87 75.11 7.87 75.28 7.81 75.4 7.64 75.46 7.36 75.46 7.2 75.4 6.91 75.28 6.75 75.11 6.69 75.01 6.69"/><rect class="a" x="75.85" y="7.77" width="0.08" height="0.08" transform="translate(16.71 55.95) rotate(-45)"/><polygon class="a" points="76.62 6.69 76.46 6.75 76.4 6.85 76.4 6.97 76.46 7.08 76.56 7.14 76.79 7.2 76.95 7.24 77.07 7.36 77.13 7.48 77.13 7.64 77.07 7.75 77.01 7.81 76.85 7.87 76.62 7.87 76.46 7.81 76.4 7.75 76.34 7.64 76.34 7.48 76.4 7.36 76.52 7.24 76.67 7.2 76.89 7.14 77.01 7.08 77.07 6.97 77.07 6.85 77.01 6.75 76.85 6.69 76.62 6.69"/><polyline class="a" points="78.13 6.69 77.58 6.69 77.52 7.2 77.58 7.14 77.73 7.08 77.91 7.08 78.07 7.14 78.19 7.24 78.24 7.42 78.24 7.53 78.19 7.69 78.07 7.81 77.91 7.87 77.73 7.87 77.58 7.81 77.52 7.75 77.46 7.64"/><line class="a" x1="79.8" y1="7.08" x2="79.8" y2="7.87"/><polyline class="a" points="79.8 7.3 79.97 7.14 80.09 7.08 80.25 7.08 80.36 7.14 80.42 7.3 80.42 7.87"/><polyline class="a" points="80.42 7.3 80.58 7.14 80.7 7.08 80.86 7.08 80.97 7.14 81.03 7.3 81.03 7.87"/><polyline class="a" points="83.21 7.24 83.15 7.14 82.98 7.08 82.82 7.08 82.64 7.14 82.58 7.24 82.64 7.36 82.76 7.42 83.03 7.48 83.15 7.53 83.21 7.64 83.21 7.69 83.15 7.81 82.98 7.87 82.82 7.87 82.64 7.81 82.58 7.69"/><polygon class="a" points="83.66 7.75 83.6 7.81 83.66 7.87 83.7 7.81 83.66 7.75"/><line class="a" x1="84.15" y1="6.69" x2="84.15" y2="7.87"/><rect class="a" x="84.62" y="7.77" width="0.08" height="0.08" transform="translate(19.27 62.15) rotate(-45)"/><line class="a" x1="85.15" y1="7.08" x2="85.15" y2="7.87"/><polyline class="a" points="85.15 7.3 85.33 7.14 85.43 7.08 85.6 7.08 85.72 7.14 85.78 7.3 85.78 7.87"/><polyline class="a" points="85.78 7.3 85.94 7.14 86.05 7.08 86.22 7.08 86.33 7.14 86.39 7.3 86.39 7.87"/><polygon class="a" points="86.88 7.75 86.84 7.81 86.88 7.87 86.94 7.81 86.88 7.75"/><polyline class="a" points="73.38 19.18 73.5 19.12 73.66 18.96 73.66 20.12"/><polygon class="a" points="74.6 18.96 74.44 19.02 74.38 19.12 74.38 19.24 74.44 19.35 74.56 19.41 74.77 19.45 74.93 19.51 75.05 19.63 75.11 19.74 75.11 19.9 75.05 20.02 74.99 20.08 74.83 20.12 74.6 20.12 74.44 20.08 74.38 20.02 74.32 19.9 74.32 19.74 74.38 19.63 74.5 19.51 74.66 19.45 74.89 19.41 74.99 19.35 75.05 19.24 75.05 19.12 74.99 19.02 74.83 18.96 74.6 18.96"/><polyline class="a" points="76.17 19.35 76.11 19.51 75.99 19.63 75.83 19.69 75.78 19.69 75.61 19.63 75.5 19.51 75.44 19.35 75.44 19.29 75.5 19.12 75.61 19.02 75.78 18.96 75.83 18.96 75.99 19.02 76.11 19.12 76.17 19.35 76.17 19.63 76.11 19.9 75.99 20.08 75.83 20.12 75.72 20.12 75.56 20.08 75.5 19.96"/><polygon class="a" points="76.68 20.02 76.62 20.08 76.68 20.12 76.72 20.08 76.68 20.02"/><polyline class="a" points="77.84 19.12 77.78 19.02 77.62 18.96 77.5 18.96 77.34 19.02 77.23 19.18 77.17 19.45 77.17 19.74 77.23 19.96 77.34 20.08 77.5 20.12 77.56 20.12 77.73 20.08 77.84 19.96 77.89 19.79 77.89 19.74 77.84 19.57 77.73 19.45 77.56 19.41 77.5 19.41 77.34 19.45 77.23 19.57 77.17 19.74"/><polygon class="a" points="78.5 18.96 78.34 19.02 78.29 19.12 78.29 19.24 78.34 19.35 78.46 19.41 78.68 19.45 78.84 19.51 78.95 19.63 79.01 19.74 79.01 19.9 78.95 20.02 78.9 20.08 78.74 20.12 78.5 20.12 78.34 20.08 78.29 20.02 78.23 19.9 78.23 19.74 78.29 19.63 78.4 19.51 78.56 19.45 78.8 19.41 78.9 19.35 78.95 19.24 78.95 19.12 78.9 19.02 78.74 18.96 78.5 18.96"/><line class="a" x1="80.58" y1="19.35" x2="80.58" y2="20.12"/><polyline class="a" points="80.58 19.57 80.74 19.41 80.86 19.35 81.02 19.35 81.13 19.41 81.19 19.57 81.19 20.12"/><polyline class="a" points="81.19 19.57 81.35 19.41 81.47 19.35 81.64 19.35 81.74 19.41 81.8 19.57 81.8 20.12"/><polyline class="a" points="83.98 19.51 83.92 19.41 83.76 19.35 83.59 19.35 83.43 19.41 83.37 19.51 83.43 19.63 83.53 19.69 83.82 19.74 83.92 19.79 83.98 19.9 83.98 19.96 83.92 20.08 83.76 20.12 83.59 20.12 83.43 20.08 83.37 19.96"/><polygon class="a" points="84.43 20.02 84.37 20.08 84.43 20.12 84.49 20.08 84.43 20.02"/><line class="a" x1="84.92" y1="18.96" x2="84.92" y2="20.12"/><polygon class="a" points="85.43 20.02 85.37 20.08 85.43 20.12 85.49 20.08 85.43 20.02"/><line class="a" x1="85.94" y1="19.35" x2="85.94" y2="20.12"/><polyline class="a" points="85.94 19.57 86.1 19.41 86.21 19.35 86.37 19.35 86.49 19.41 86.55 19.57 86.55 20.12"/><polyline class="a" points="86.55 19.57 86.71 19.41 86.82 19.35 87 19.35 87.1 19.41 87.16 19.57 87.16 20.12"/><polygon class="a" points="87.67 20.02 87.61 20.08 87.67 20.12 87.72 20.08 87.67 20.02"/><polyline class="a" points="73.05 34.66 73.16 34.6 73.32 34.42 73.32 35.6"/><polygon class="a" points="74.28 34.42 74.11 34.48 74.05 34.6 74.05 34.71 74.11 34.81 74.22 34.87 74.44 34.93 74.61 34.99 74.72 35.09 74.77 35.21 74.77 35.38 74.72 35.48 74.66 35.54 74.5 35.6 74.28 35.6 74.11 35.54 74.05 35.48 73.99 35.38 73.99 35.21 74.05 35.09 74.16 34.99 74.32 34.93 74.56 34.87 74.66 34.81 74.72 34.71 74.72 34.6 74.66 34.48 74.5 34.42 74.28 34.42"/><polyline class="a" points="75.83 34.81 75.78 34.99 75.67 35.09 75.5 35.15 75.44 35.15 75.28 35.09 75.17 34.99 75.11 34.81 75.11 34.76 75.17 34.6 75.28 34.48 75.44 34.42 75.5 34.42 75.67 34.48 75.78 34.6 75.83 34.81 75.83 35.09 75.78 35.38 75.67 35.54 75.5 35.6 75.38 35.6 75.22 35.54 75.17 35.44"/><rect class="a" x="76.3" y="35.5" width="0.08" height="0.08" transform="translate(-2.77 64.39) rotate(-45)"/><polygon class="a" points="77.07 34.42 76.89 34.48 76.84 34.6 76.84 34.71 76.89 34.81 77.01 34.87 77.23 34.93 77.4 34.99 77.5 35.09 77.56 35.21 77.56 35.38 77.5 35.48 77.46 35.54 77.29 35.6 77.07 35.6 76.89 35.54 76.84 35.48 76.79 35.38 76.79 35.21 76.84 35.09 76.95 34.99 77.13 34.93 77.34 34.87 77.46 34.81 77.5 34.71 77.5 34.6 77.46 34.48 77.29 34.42 77.07 34.42"/><polyline class="a" points="78.62 34.6 78.56 34.48 78.4 34.42 78.29 34.42 78.13 34.48 78.01 34.66 77.95 34.93 77.95 35.21 78.01 35.44 78.13 35.54 78.29 35.6 78.34 35.6 78.52 35.54 78.62 35.44 78.68 35.27 78.68 35.21 78.62 35.05 78.52 34.93 78.34 34.87 78.29 34.87 78.13 34.93 78.01 35.05 77.95 35.21"/><line class="a" x1="80.25" y1="34.81" x2="80.25" y2="35.6"/><polyline class="a" points="80.25 35.05 80.41 34.87 80.52 34.81 80.7 34.81 80.8 34.87 80.86 35.05 80.86 35.6"/><polyline class="a" points="80.86 35.05 81.03 34.87 81.13 34.81 81.31 34.81 81.41 34.87 81.47 35.05 81.47 35.6"/><polyline class="a" points="83.64 34.99 83.59 34.87 83.43 34.81 83.25 34.81 83.09 34.87 83.03 34.99 83.09 35.09 83.19 35.15 83.48 35.21 83.59 35.27 83.64 35.38 83.64 35.44 83.59 35.54 83.43 35.6 83.25 35.6 83.09 35.54 83.03 35.44"/><rect class="a" x="84.05" y="35.5" width="0.08" height="0.08" transform="translate(-0.5 69.87) rotate(-45)"/><line class="a" x1="84.6" y1="34.42" x2="84.6" y2="35.6"/><rect class="a" x="85.06" y="35.5" width="0.08" height="0.08" transform="translate(-0.21 70.58) rotate(-45)"/><line class="a" x1="85.6" y1="34.81" x2="85.6" y2="35.6"/><polyline class="a" points="85.6 35.05 85.76 34.87 85.88 34.81 86.04 34.81 86.16 34.87 86.21 35.05 86.21 35.6"/><polyline class="a" points="86.21 35.05 86.39 34.87 86.49 34.81 86.66 34.81 86.77 34.87 86.82 35.05 86.82 35.6"/><rect class="a" x="87.29" y="35.5" width="0.08" height="0.08" transform="translate(0.45 72.16) rotate(-45)"/><polyline class="a" points="71.39 46.69 71.49 46.65 71.67 46.47 71.67 47.65"/><polyline class="a" points="73.06 46.86 73 47.02 72.9 47.14 72.73 47.2 72.67 47.2 72.51 47.14 72.39 47.02 72.33 46.86 72.33 46.81 72.39 46.65 72.51 46.53 72.67 46.47 72.73 46.47 72.9 46.53 73 46.65 73.06 46.86 73.06 47.14 73 47.42 72.9 47.59 72.73 47.65 72.61 47.65 72.45 47.59 72.39 47.47"/><polygon class="a" points="73.79 46.47 73.61 46.53 73.51 46.69 73.45 46.98 73.45 47.14 73.51 47.42 73.61 47.59 73.79 47.65 73.9 47.65 74.06 47.59 74.18 47.42 74.24 47.14 74.24 46.98 74.18 46.69 74.06 46.53 73.9 46.47 73.79 46.47"/><polygon class="a" points="74.69 47.53 74.63 47.59 74.69 47.65 74.73 47.59 74.69 47.53"/><polyline class="a" points="75.85 46.86 75.79 47.02 75.69 47.14 75.51 47.2 75.46 47.2 75.3 47.14 75.18 47.02 75.12 46.86 75.12 46.81 75.18 46.65 75.3 46.53 75.46 46.47 75.51 46.47 75.69 46.53 75.79 46.65 75.85 46.86 75.85 47.14 75.79 47.42 75.69 47.59 75.51 47.65 75.4 47.65 75.24 47.59 75.18 47.47"/><polyline class="a" points="76.81 46.47 76.24 47.26 77.08 47.26"/><line class="a" x1="76.81" y1="46.47" x2="76.81" y2="47.65"/><line class="a" x1="78.59" y1="46.86" x2="78.59" y2="47.65"/><polyline class="a" points="78.59 47.08 78.75 46.92 78.87 46.86 79.03 46.86 79.14 46.92 79.2 47.08 79.2 47.65"/><polyline class="a" points="79.2 47.08 79.36 46.92 79.48 46.86 79.65 46.86 79.75 46.92 79.81 47.08 79.81 47.65"/><polyline class="a" points="81.99 47.02 81.93 46.92 81.77 46.86 81.6 46.86 81.44 46.92 81.38 47.02 81.44 47.14 81.54 47.2 81.81 47.26 81.93 47.31 81.99 47.42 81.99 47.47 81.93 47.59 81.77 47.65 81.6 47.65 81.44 47.59 81.38 47.47"/><rect class="a" x="82.4" y="47.55" width="0.08" height="0.08" transform="translate(-9.51 72.23) rotate(-45)"/><line class="a" x1="82.93" y1="46.47" x2="82.93" y2="47.65"/><rect class="a" x="83.4" y="47.55" width="0.08" height="0.08" transform="translate(-9.21 72.93) rotate(-45)"/><line class="a" x1="83.93" y1="46.86" x2="83.93" y2="47.65"/><polyline class="a" points="83.94 47.08 84.11 46.92 84.22 46.86 84.39 46.86 84.5 46.92 84.56 47.08 84.56 47.65"/><polyline class="a" points="84.56 47.08 84.72 46.92 84.83 46.86 85.01 46.86 85.11 46.92 85.17 47.08 85.17 47.65"/><polygon class="a" points="85.68 47.53 85.62 47.59 85.68 47.65 85.72 47.59 85.68 47.53"/><polyline class="a" points="104.96 11.72 105.07 11.67 105.25 11.5 105.25 12.67"/><polyline class="a" points="106.64 11.89 106.58 12.05 106.47 12.17 106.31 12.22 106.25 12.22 106.08 12.17 105.97 12.05 105.92 11.89 105.92 11.83 105.97 11.67 106.08 11.56 106.25 11.5 106.31 11.5 106.47 11.56 106.58 11.67 106.64 11.89 106.64 12.17 106.58 12.44 106.47 12.62 106.31 12.67 106.19 12.67 106.02 12.62 105.97 12.5"/><polygon class="a" points="107.37 11.5 107.19 11.56 107.08 11.72 107.03 12.01 107.03 12.17 107.08 12.44 107.19 12.62 107.37 12.67 107.47 12.67 107.64 12.62 107.76 12.44 107.8 12.17 107.8 12.01 107.76 11.72 107.64 11.56 107.47 11.5 107.37 11.5"/><rect class="a" x="108.21" y="12.57" width="0.08" height="0.08" transform="translate(22.79 80.24) rotate(-45)"/><polyline class="a" points="108.92 12.67 109.49 11.5 108.7 11.5"/><polyline class="a" points="109.98 11.72 110.1 11.67 110.27 11.5 110.27 12.67"/><line class="a" x1="112.16" y1="11.89" x2="112.16" y2="12.67"/><polyline class="a" points="112.16 12.11 112.33 11.95 112.43 11.89 112.61 11.89 112.72 11.95 112.77 12.11 112.77 12.67"/><polyline class="a" points="112.77 12.11 112.94 11.95 113.06 11.89 113.22 11.89 113.33 11.95 113.39 12.11 113.39 12.67"/><polyline class="a" points="115.57 12.05 115.51 11.95 115.34 11.89 115.18 11.89 115 11.95 114.95 12.05 115 12.17 115.12 12.22 115.4 12.28 115.51 12.34 115.57 12.44 115.57 12.5 115.51 12.62 115.34 12.67 115.18 12.67 115 12.62 114.95 12.5"/><polygon class="a" points="116.01 12.56 115.96 12.62 116.01 12.67 116.06 12.62 116.01 12.56"/><line class="a" x1="116.51" y1="11.5" x2="116.51" y2="12.67"/><polygon class="a" points="117.02 12.56 116.96 12.62 117.02 12.67 117.07 12.62 117.02 12.56"/><line class="a" x1="117.52" y1="11.89" x2="117.52" y2="12.67"/><polyline class="a" points="117.52 12.11 117.69 11.95 117.79 11.89 117.97 11.89 118.08 11.95 118.13 12.11 118.13 12.67"/><polyline class="a" points="118.13 12.11 118.3 11.95 118.42 11.89 118.58 11.89 118.69 11.95 118.75 12.11 118.75 12.67"/><rect class="a" x="119.2" y="12.57" width="0.08" height="0.08" transform="translate(26 88.01) rotate(-45)"/><polyline class="a" points="105.63 24.07 105.74 24.01 105.92 23.84 105.92 25.02"/><polyline class="a" points="108.43 24.23 108.37 24.41 108.25 24.51 108.09 24.57 108.03 24.57 107.86 24.51 107.75 24.41 107.7 24.23 107.7 24.17 107.75 24.01 107.86 23.9 108.03 23.84 108.09 23.84 108.25 23.9 108.37 24.01 108.43 24.23 108.43 24.51 108.37 24.8 108.25 24.96 108.09 25.02 107.98 25.02 107.8 24.96 107.75 24.85"/><rect class="a" x="108.88" y="24.92" width="0.08" height="0.08" transform="translate(14.25 84.32) rotate(-45)"/><polyline class="a" points="110.04 23.84 109.49 23.84 109.43 24.35 109.49 24.29 109.65 24.23 109.82 24.23 109.98 24.29 110.1 24.41 110.16 24.57 110.16 24.68 110.1 24.86 109.98 24.96 109.82 25.02 109.65 25.02 109.49 24.96 109.43 24.9 109.37 24.8"/><polyline class="a" points="111.22 24.23 111.16 24.41 111.04 24.51 110.88 24.57 110.82 24.57 110.65 24.51 110.55 24.41 110.49 24.23 110.49 24.17 110.55 24.01 110.65 23.9 110.82 23.84 110.88 23.84 111.04 23.9 111.16 24.01 111.22 24.23 111.22 24.51 111.16 24.8 111.04 24.96 110.88 25.02 110.77 25.02 110.59 24.96 110.55 24.85"/><line class="a" x1="112.83" y1="24.23" x2="112.83" y2="25.01"/><polyline class="a" points="112.83 24.46 113 24.29 113.1 24.23 113.28 24.23 113.39 24.29 113.44 24.46 113.44 25.02"/><polyline class="a" points="113.44 24.46 113.61 24.29 113.73 24.23 113.89 24.23 114 24.29 114.06 24.46 114.06 25.02"/><polyline class="a" points="116.24 24.41 116.18 24.29 116.01 24.23 115.85 24.23 115.67 24.29 115.61 24.41 115.67 24.51 115.79 24.57 116.06 24.62 116.18 24.68 116.24 24.8 116.24 24.86 116.18 24.96 116.01 25.02 115.85 25.02 115.67 24.96 115.61 24.86"/><polygon class="a" points="116.67 24.9 116.63 24.96 116.67 25.01 116.73 24.96 116.67 24.9"/><line class="a" x1="117.18" y1="23.84" x2="117.18" y2="25.01"/><polygon class="a" points="117.69 24.9 117.63 24.96 117.69 25.01 117.73 24.96 117.69 24.9"/><line class="a" x1="118.18" y1="24.23" x2="118.18" y2="25.01"/><polyline class="a" points="118.18 24.46 118.36 24.29 118.46 24.23 118.63 24.23 118.75 24.29 118.79 24.46 118.79 25.02"/><polyline class="a" points="118.79 24.46 118.97 24.29 119.08 24.23 119.24 24.23 119.36 24.29 119.42 24.46 119.42 25.02"/><rect class="a" x="119.87" y="24.92" width="0.08" height="0.08" transform="translate(17.47 92.09) rotate(-45)"/><polyline class="a" points="105.29 40.08 105.41 40.03 105.58 39.85 105.58 41.03"/><polyline class="a" points="108.09 40.24 108.03 40.42 107.92 40.53 107.76 40.58 107.7 40.58 107.53 40.53 107.41 40.42 107.37 40.24 107.37 40.19 107.41 40.03 107.53 39.91 107.7 39.85 107.76 39.85 107.92 39.91 108.03 40.03 108.09 40.24 108.09 40.53 108.03 40.81 107.92 40.97 107.76 41.03 107.64 41.03 107.47 40.97 107.41 40.87"/><rect class="a" x="108.55" y="40.93" width="0.08" height="0.08" transform="translate(2.83 88.78) rotate(-45)"/><polyline class="a" points="109.25 41.03 109.82 39.85 109.04 39.85"/><line class="a" x1="112.49" y1="40.24" x2="112.49" y2="41.03"/><polyline class="a" points="112.49 40.48 112.67 40.3 112.77 40.24 112.94 40.24 113.06 40.3 113.1 40.48 113.1 41.03"/><polyline class="a" points="113.1 40.48 113.28 40.3 113.39 40.24 113.55 40.24 113.67 40.3 113.73 40.48 113.73 41.03"/><polyline class="a" points="115.9 40.42 115.85 40.3 115.67 40.24 115.51 40.24 115.34 40.3 115.28 40.42 115.34 40.53 115.45 40.58 115.73 40.64 115.85 40.69 115.9 40.81 115.9 40.87 115.85 40.97 115.67 41.03 115.51 41.03 115.34 40.97 115.28 40.87"/><polygon class="a" points="116.34 40.91 116.3 40.97 116.34 41.03 116.4 40.97 116.34 40.91"/><line class="a" x1="116.85" y1="39.85" x2="116.85" y2="41.03"/><polygon class="a" points="117.36 40.91 117.3 40.97 117.36 41.03 117.4 40.97 117.36 40.91"/><line class="a" x1="117.85" y1="40.24" x2="117.85" y2="41.03"/><polyline class="a" points="117.85 40.48 118.02 40.3 118.13 40.24 118.3 40.24 118.42 40.3 118.46 40.48 118.46 41.03"/><polyline class="a" points="118.46 40.48 118.63 40.3 118.75 40.24 118.91 40.24 119.03 40.3 119.08 40.48 119.08 41.03"/><rect class="a" x="119.54" y="40.93" width="0.08" height="0.08" transform="translate(6.05 96.55) rotate(-45)"/><polyline class="a" points="104.74 51.76 104.86 51.7 105.02 51.54 105.02 52.7"/><polyline class="a" points="106.41 51.93 106.36 52.09 106.25 52.21 106.08 52.27 106.02 52.27 105.86 52.21 105.74 52.09 105.68 51.93 105.68 51.87 105.74 51.7 105.86 51.6 106.02 51.54 106.08 51.54 106.25 51.6 106.36 51.7 106.41 51.93 106.41 52.21 106.36 52.48 106.25 52.66 106.08 52.7 105.97 52.7 105.8 52.66 105.74 52.54"/><polygon class="a" points="107.14 51.54 106.97 51.6 106.86 51.76 106.8 52.03 106.8 52.21 106.86 52.48 106.97 52.66 107.14 52.7 107.25 52.7 107.42 52.66 107.53 52.48 107.58 52.21 107.58 52.03 107.53 51.76 107.42 51.6 107.25 51.54 107.14 51.54"/><polygon class="a" points="108.03 52.6 107.98 52.66 108.03 52.7 108.09 52.66 108.03 52.6"/><polygon class="a" points="108.76 51.54 108.59 51.6 108.53 51.7 108.53 51.81 108.59 51.93 108.7 51.99 108.92 52.03 109.09 52.09 109.21 52.21 109.25 52.32 109.25 52.48 109.21 52.6 109.15 52.66 108.98 52.7 108.76 52.7 108.59 52.66 108.53 52.6 108.48 52.48 108.48 52.32 108.53 52.21 108.64 52.09 108.82 52.03 109.04 51.99 109.15 51.93 109.21 51.81 109.21 51.7 109.15 51.6 108.98 51.54 108.76 51.54"/><polyline class="a" points="109.76 51.76 109.88 51.7 110.04 51.54 110.04 52.7"/><line class="a" x1="111.94" y1="51.93" x2="111.94" y2="52.7"/><polyline class="a" points="111.94 52.15 112.1 51.99 112.22 51.93 112.39 51.93 112.49 51.99 112.55 52.15 112.55 52.7"/><polyline class="a" points="112.55 52.15 112.72 51.99 112.83 51.93 113 51.93 113.12 51.99 113.16 52.15 113.16 52.7"/><polyline class="a" points="115.34 52.09 115.28 51.99 115.12 51.93 114.95 51.93 114.79 51.99 114.73 52.09 114.79 52.21 114.9 52.27 115.18 52.32 115.28 52.37 115.34 52.48 115.34 52.54 115.28 52.66 115.12 52.7 114.95 52.7 114.79 52.66 114.73 52.54"/><polygon class="a" points="115.79 52.6 115.73 52.66 115.79 52.7 115.85 52.66 115.79 52.6"/><line class="a" x1="116.3" y1="51.54" x2="116.3" y2="52.7"/><polygon class="a" points="116.79 52.6 116.73 52.66 116.79 52.7 116.85 52.66 116.79 52.6"/><line class="a" x1="117.3" y1="51.93" x2="117.3" y2="52.7"/><polyline class="a" points="117.3 52.15 117.46 51.99 117.57 51.93 117.75 51.93 117.85 51.99 117.91 52.15 117.91 52.7"/><polyline class="a" points="117.91 52.15 118.08 51.99 118.18 51.93 118.36 51.93 118.47 51.99 118.52 52.15 118.52 52.7"/><polygon class="a" points="119.03 52.6 118.97 52.66 119.03 52.7 119.08 52.66 119.03 52.6"/><polyline class="a" points="151.55 13.72 151.65 13.66 151.82 13.49 151.82 14.66"/><polyline class="a" points="153.22 13.88 153.16 14.05 153.06 14.17 152.88 14.21 152.82 14.21 152.66 14.17 152.55 14.05 152.49 13.88 152.49 13.82 152.55 13.66 152.66 13.54 152.82 13.49 152.88 13.49 153.06 13.54 153.16 13.66 153.22 13.88 153.22 14.17 153.16 14.45 153.06 14.61 152.88 14.66 152.77 14.66 152.61 14.61 152.55 14.5"/><polygon class="a" points="153.94 13.49 153.78 13.54 153.67 13.72 153.61 13.99 153.61 14.17 153.67 14.45 153.78 14.61 153.94 14.66 154.06 14.66 154.22 14.61 154.33 14.45 154.39 14.17 154.39 13.99 154.33 13.72 154.22 13.54 154.06 13.49 153.94 13.49"/><polygon class="a" points="154.84 14.55 154.78 14.61 154.84 14.66 154.89 14.61 154.84 14.55"/><polyline class="a" points="155.84 13.49 155.28 14.27 156.12 14.27"/><line class="a" x1="155.84" y1="13.49" x2="155.84" y2="14.66"/><polyline class="a" points="157.12 13.66 157.06 13.54 156.9 13.49 156.79 13.49 156.63 13.54 156.51 13.72 156.45 13.99 156.45 14.27 156.51 14.5 156.63 14.61 156.79 14.66 156.84 14.66 157 14.61 157.12 14.5 157.18 14.33 157.18 14.27 157.12 14.11 157 13.99 156.84 13.94 156.79 13.94 156.63 13.99 156.51 14.11 156.45 14.27"/><line class="a" x1="158.75" y1="13.88" x2="158.75" y2="14.66"/><polyline class="a" points="158.75 14.11 158.91 13.94 159.02 13.88 159.18 13.88 159.3 13.94 159.36 14.11 159.36 14.66"/><polyline class="a" points="159.36 14.11 159.52 13.94 159.63 13.88 159.81 13.88 159.91 13.94 159.97 14.11 159.97 14.66"/><polyline class="a" points="162.15 14.05 162.09 13.94 161.93 13.88 161.75 13.88 161.59 13.94 161.53 14.05 161.59 14.17 161.69 14.21 161.97 14.27 162.09 14.33 162.15 14.45 162.15 14.5 162.09 14.61 161.93 14.66 161.75 14.66 161.59 14.61 161.53 14.5"/><rect class="a" x="162.55" y="14.56" width="0.08" height="0.08" transform="translate(37.3 119.25) rotate(-45)"/><line class="a" x1="163.09" y1="13.49" x2="163.09" y2="14.66"/><rect class="a" x="163.56" y="14.56" width="0.08" height="0.08" transform="translate(37.59 119.96) rotate(-45)"/><line class="a" x1="164.1" y1="13.88" x2="164.1" y2="14.66"/><polyline class="a" points="164.1 14.11 164.26 13.94 164.38 13.88 164.54 13.88 164.66 13.94 164.72 14.11 164.72 14.66"/><polyline class="a" points="164.71 14.11 164.87 13.94 164.99 13.88 165.16 13.88 165.27 13.94 165.32 14.11 165.32 14.66"/><polygon class="a" points="165.83 14.55 165.77 14.61 165.83 14.66 165.88 14.61 165.83 14.55"/><polyline class="a" points="151.31 26.29 151.43 26.23 151.6 26.07 151.6 27.24"/><polygon class="a" points="152.55 26.07 152.37 26.13 152.32 26.23 152.32 26.35 152.37 26.47 152.49 26.51 152.71 26.57 152.88 26.63 153 26.74 153.04 26.84 153.04 27.02 153 27.13 152.94 27.19 152.77 27.23 152.55 27.23 152.37 27.19 152.32 27.13 152.27 27.02 152.27 26.84 152.32 26.74 152.43 26.63 152.61 26.57 152.82 26.51 152.94 26.47 153 26.35 153 26.23 152.94 26.13 152.77 26.07 152.55 26.07"/><polyline class="a" points="154.1 26.47 154.06 26.63 153.94 26.74 153.77 26.8 153.72 26.8 153.55 26.74 153.43 26.63 153.39 26.47 153.39 26.41 153.43 26.23 153.55 26.13 153.72 26.07 153.77 26.07 153.94 26.13 154.06 26.23 154.1 26.47 154.1 26.74 154.06 27.02 153.94 27.19 153.77 27.23 153.67 27.23 153.49 27.19 153.43 27.08"/><polygon class="a" points="154.61 27.13 154.55 27.19 154.61 27.24 154.67 27.19 154.61 27.13"/><polyline class="a" points="155.61 26.07 155.06 26.84 155.89 26.84"/><line class="a" x1="155.61" y1="26.07" x2="155.61" y2="27.24"/><polyline class="a" points="156.9 26.47 156.84 26.63 156.73 26.74 156.57 26.8 156.51 26.8 156.34 26.74 156.24 26.63 156.18 26.47 156.18 26.41 156.24 26.23 156.34 26.13 156.51 26.07 156.57 26.07 156.73 26.13 156.84 26.23 156.9 26.47 156.9 26.74 156.84 27.02 156.73 27.19 156.57 27.23 156.45 27.23 156.28 27.19 156.24 27.08"/><line class="a" x1="158.52" y1="26.47" x2="158.52" y2="27.24"/><polyline class="a" points="158.51 26.68 158.69 26.51 158.79 26.47 158.97 26.47 159.08 26.51 159.13 26.68 159.13 27.24"/><polyline class="a" points="159.13 26.68 159.3 26.51 159.41 26.47 159.57 26.47 159.69 26.51 159.75 26.68 159.75 27.24"/><polyline class="a" points="161.93 26.63 161.87 26.51 161.69 26.47 161.53 26.47 161.36 26.51 161.3 26.63 161.36 26.74 161.48 26.8 161.75 26.84 161.87 26.9 161.93 27.02 161.93 27.08 161.87 27.19 161.69 27.24 161.53 27.24 161.36 27.19 161.3 27.08"/><polygon class="a" points="162.36 27.13 162.3 27.19 162.36 27.24 162.42 27.19 162.36 27.13"/><line class="a" x1="162.87" y1="26.07" x2="162.87" y2="27.24"/><polygon class="a" points="163.36 27.13 163.32 27.19 163.36 27.24 163.42 27.19 163.36 27.13"/><line class="a" x1="163.87" y1="26.47" x2="163.87" y2="27.24"/><polyline class="a" points="163.87 26.68 164.05 26.51 164.15 26.47 164.32 26.47 164.42 26.51 164.48 26.68 164.48 27.24"/><polyline class="a" points="164.48 26.68 164.66 26.51 164.77 26.47 164.93 26.47 165.05 26.51 165.11 26.68 165.11 27.24"/><polygon class="a" points="165.6 27.13 165.54 27.19 165.6 27.24 165.66 27.19 165.6 27.13"/><polyline class="a" points="151.66 42.23 151.76 42.19 151.94 42.02 151.94 43.19"/><polygon class="a" points="152.88 42.02 152.72 42.07 152.66 42.19 152.66 42.29 152.72 42.41 152.82 42.47 153.06 42.52 153.22 42.57 153.33 42.68 153.39 42.8 153.39 42.96 153.33 43.08 153.27 43.13 153.1 43.19 152.88 43.19 152.72 43.13 152.66 43.08 152.61 42.96 152.61 42.8 152.66 42.68 152.77 42.57 152.94 42.52 153.16 42.47 153.27 42.41 153.33 42.29 153.33 42.19 153.27 42.07 153.1 42.02 152.88 42.02"/><polyline class="a" points="154.45 42.41 154.39 42.57 154.28 42.68 154.12 42.74 154.06 42.74 153.88 42.68 153.78 42.57 153.72 42.41 153.72 42.35 153.78 42.19 153.88 42.07 154.06 42.02 154.12 42.02 154.28 42.07 154.39 42.19 154.45 42.41 154.45 42.68 154.39 42.96 154.28 43.13 154.12 43.19 154 43.19 153.83 43.13 153.78 43.02"/><rect class="a" x="154.9" y="43.09" width="0.08" height="0.08" transform="translate(14.88 122.19) rotate(-45)"/><polyline class="a" points="156.12 42.19 156.06 42.07 155.9 42.02 155.79 42.02 155.61 42.07 155.51 42.23 155.45 42.52 155.45 42.8 155.51 43.02 155.61 43.13 155.79 43.19 155.84 43.19 156 43.13 156.12 43.02 156.18 42.86 156.18 42.8 156.12 42.63 156 42.52 155.84 42.47 155.79 42.47 155.61 42.52 155.51 42.63 155.45 42.8"/><polygon class="a" points="156.79 42.02 156.63 42.07 156.57 42.19 156.57 42.29 156.63 42.41 156.73 42.47 156.96 42.52 157.12 42.57 157.24 42.68 157.29 42.8 157.29 42.96 157.24 43.08 157.18 43.13 157 43.19 156.79 43.19 156.63 43.13 156.57 43.08 156.51 42.96 156.51 42.8 156.57 42.68 156.67 42.57 156.84 42.52 157.06 42.47 157.18 42.41 157.24 42.29 157.24 42.19 157.18 42.07 157 42.02 156.79 42.02"/><line class="a" x1="158.85" y1="42.41" x2="158.85" y2="43.19"/><polyline class="a" points="158.85 42.63 159.02 42.47 159.14 42.41 159.3 42.41 159.41 42.47 159.47 42.63 159.47 43.19"/><polyline class="a" points="159.47 42.63 159.63 42.47 159.75 42.41 159.91 42.41 160.03 42.47 160.08 42.63 160.08 43.19"/><polyline class="a" points="162.26 42.57 162.2 42.47 162.03 42.41 161.87 42.41 161.69 42.47 161.64 42.57 161.69 42.68 161.81 42.74 162.09 42.8 162.2 42.86 162.26 42.96 162.26 43.02 162.2 43.13 162.03 43.19 161.87 43.19 161.69 43.13 161.64 43.02"/><polygon class="a" points="162.7 43.08 162.65 43.13 162.7 43.19 162.75 43.13 162.7 43.08"/><line class="a" x1="163.2" y1="42.02" x2="163.2" y2="43.19"/><rect class="a" x="163.67" y="43.09" width="0.08" height="0.08" transform="translate(17.44 128.39) rotate(-45)"/><line class="a" x1="164.21" y1="42.41" x2="164.21" y2="43.19"/><polyline class="a" points="164.21 42.63 164.38 42.47 164.48 42.41 164.66 42.41 164.77 42.47 164.83 42.63 164.83 43.19"/><polyline class="a" points="164.83 42.63 164.99 42.47 165.11 42.41 165.27 42.41 165.38 42.47 165.44 42.63 165.44 43.19"/><polygon class="a" points="165.93 43.08 165.89 43.13 165.93 43.19 165.99 43.13 165.93 43.08"/><polyline class="a" points="149.86 54.82 149.96 54.76 150.14 54.59 150.14 55.76"/><polyline class="a" points="151.53 54.98 151.47 55.15 151.36 55.26 151.2 55.31 151.14 55.31 150.98 55.26 150.86 55.15 150.81 54.98 150.81 54.92 150.86 54.76 150.98 54.65 151.14 54.59 151.2 54.59 151.36 54.65 151.47 54.76 151.53 54.98 151.53 55.26 151.47 55.55 151.36 55.71 151.2 55.76 151.08 55.76 150.92 55.71 150.86 55.6"/><polygon class="a" points="152.26 54.59 152.08 54.65 151.98 54.82 151.92 55.1 151.92 55.26 151.98 55.55 152.08 55.71 152.26 55.76 152.37 55.76 152.53 55.71 152.65 55.55 152.71 55.26 152.71 55.1 152.65 54.82 152.53 54.65 152.37 54.59 152.26 54.59"/><polygon class="a" points="153.14 55.65 153.1 55.71 153.14 55.76 153.2 55.71 153.14 55.65"/><polyline class="a" points="154.26 54.59 153.71 54.59 153.65 55.1 153.71 55.04 153.87 54.98 154.04 54.98 154.2 55.04 154.32 55.15 154.38 55.31 154.38 55.43 154.32 55.6 154.2 55.71 154.04 55.76 153.87 55.76 153.71 55.71 153.65 55.65 153.59 55.55"/><polygon class="a" points="154.99 54.59 154.83 54.65 154.77 54.76 154.77 54.88 154.83 54.98 154.93 55.04 155.16 55.1 155.32 55.15 155.44 55.26 155.5 55.37 155.5 55.55 155.44 55.65 155.38 55.71 155.22 55.76 154.99 55.76 154.83 55.71 154.77 55.65 154.71 55.55 154.71 55.37 154.77 55.26 154.88 55.15 155.04 55.1 155.26 55.04 155.38 54.98 155.44 54.88 155.44 54.76 155.38 54.65 155.22 54.59 154.99 54.59"/><line class="a" x1="157.05" y1="54.98" x2="157.05" y2="55.76"/><polyline class="a" points="157.05 55.21 157.22 55.04 157.34 54.98 157.5 54.98 157.62 55.04 157.67 55.21 157.67 55.77"/><polyline class="a" points="157.67 55.21 157.83 55.04 157.95 54.98 158.11 54.98 158.22 55.04 158.28 55.21 158.28 55.77"/><polyline class="a" points="160.46 55.15 160.4 55.04 160.24 54.98 160.07 54.98 159.9 55.04 159.85 55.15 159.9 55.26 160.01 55.31 160.29 55.37 160.4 55.43 160.46 55.55 160.46 55.6 160.4 55.71 160.24 55.76 160.07 55.76 159.9 55.71 159.85 55.6"/><polygon class="a" points="160.91 55.65 160.85 55.71 160.91 55.76 160.96 55.71 160.91 55.65"/><line class="a" x1="161.4" y1="54.59" x2="161.4" y2="55.76"/><rect class="a" x="161.87" y="55.66" width="0.08" height="0.08" transform="translate(8.03 130.8) rotate(-45)"/><line class="a" x1="162.41" y1="54.98" x2="162.41" y2="55.76"/><polyline class="a" points="162.41 55.21 162.58 55.04 162.7 54.98 162.86 54.98 162.97 55.04 163.03 55.21 163.03 55.77"/><polyline class="a" points="163.03 55.21 163.19 55.04 163.31 54.98 163.47 54.98 163.58 55.04 163.64 55.21 163.64 55.77"/><polygon class="a" points="164.15 55.65 164.09 55.71 164.15 55.76 164.19 55.71 164.15 55.65"/><polyline class="a" points="198.46 16 198.57 15.94 198.73 15.78 198.73 16.94"/><polyline class="a" points="200.13 16.17 200.08 16.33 199.97 16.45 199.79 16.51 199.75 16.51 199.57 16.45 199.46 16.33 199.4 16.17 199.4 16.11 199.46 15.94 199.57 15.84 199.75 15.78 199.79 15.78 199.97 15.84 200.08 15.94 200.13 16.17 200.13 16.45 200.08 16.73 199.97 16.9 199.79 16.94 199.69 16.94 199.51 16.9 199.46 16.78"/><polygon class="a" points="200.85 15.78 200.69 15.84 200.57 16 200.52 16.27 200.52 16.45 200.57 16.73 200.69 16.9 200.85 16.94 200.97 16.94 201.14 16.9 201.24 16.73 201.3 16.45 201.3 16.27 201.24 16 201.14 15.84 200.97 15.78 200.85 15.78"/><polygon class="a" points="201.75 16.84 201.69 16.9 201.75 16.94 201.81 16.9 201.75 16.84"/><polyline class="a" points="202.24 16.06 202.24 16 202.3 15.88 202.36 15.84 202.48 15.78 202.69 15.78 202.81 15.84 202.87 15.88 202.93 16 202.93 16.11 202.87 16.23 202.75 16.39 202.2 16.94 202.97 16.94"/><polyline class="a" points="204.03 15.94 203.99 15.84 203.81 15.78 203.7 15.78 203.54 15.84 203.42 16 203.36 16.27 203.36 16.57 203.42 16.78 203.54 16.9 203.7 16.94 203.75 16.94 203.93 16.9 204.03 16.78 204.09 16.61 204.09 16.57 204.03 16.39 203.93 16.27 203.75 16.23 203.7 16.23 203.54 16.27 203.42 16.39 203.36 16.57"/><line class="a" x1="205.66" y1="16.17" x2="205.66" y2="16.94"/><polyline class="a" points="205.66 16.39 205.82 16.23 205.93 16.17 206.11 16.17 206.21 16.23 206.27 16.39 206.27 16.94"/><polyline class="a" points="206.27 16.39 206.44 16.23 206.54 16.17 206.72 16.17 206.83 16.23 206.88 16.39 206.88 16.94"/><polyline class="a" points="209.05 16.33 209.01 16.23 208.84 16.17 208.66 16.17 208.5 16.23 208.44 16.33 208.5 16.45 208.62 16.51 208.89 16.57 209.01 16.61 209.05 16.73 209.05 16.78 209.01 16.9 208.84 16.94 208.66 16.94 208.5 16.9 208.44 16.78"/><polygon class="a" points="209.5 16.84 209.44 16.9 209.5 16.94 209.56 16.9 209.5 16.84"/><line class="a" x1="210.01" y1="15.78" x2="210.01" y2="16.94"/><polygon class="a" points="210.5 16.84 210.45 16.9 210.5 16.94 210.56 16.9 210.5 16.84"/><line class="a" x1="211.01" y1="16.17" x2="211.01" y2="16.94"/><polyline class="a" points="211.01 16.39 211.17 16.23 211.29 16.17 211.46 16.17 211.56 16.23 211.62 16.39 211.62 16.94"/><polyline class="a" points="211.62 16.39 211.8 16.23 211.9 16.17 212.07 16.17 212.19 16.23 212.23 16.39 212.23 16.94"/><polygon class="a" points="212.74 16.84 212.68 16.9 212.74 16.94 212.8 16.9 212.74 16.84"/><polyline class="a" points="198.24 28.77 198.34 28.72 198.51 28.54 198.51 29.72"/><polygon class="a" points="199.46 28.54 199.3 28.6 199.24 28.72 199.24 28.83 199.3 28.93 199.4 28.99 199.63 29.05 199.79 29.11 199.91 29.22 199.97 29.33 199.97 29.5 199.91 29.6 199.85 29.66 199.68 29.72 199.46 29.72 199.3 29.66 199.24 29.6 199.18 29.5 199.18 29.33 199.24 29.22 199.34 29.11 199.51 29.05 199.73 28.99 199.85 28.93 199.91 28.83 199.91 28.72 199.85 28.6 199.68 28.54 199.46 28.54"/><polyline class="a" points="201.03 28.93 200.97 29.11 200.85 29.22 200.69 29.27 200.63 29.27 200.46 29.22 200.36 29.11 200.3 28.93 200.3 28.89 200.36 28.72 200.46 28.6 200.63 28.54 200.69 28.54 200.85 28.6 200.97 28.72 201.03 28.93 201.03 29.22 200.97 29.5 200.85 29.66 200.69 29.72 200.57 29.72 200.4 29.66 200.36 29.56"/><rect class="a" x="201.48" y="29.62" width="0.08" height="0.08" transform="translate(38.04 151.17) rotate(-45)"/><polyline class="a" points="202.52 28.54 201.97 29.33 202.81 29.33"/><line class="a" x1="202.52" y1="28.54" x2="202.52" y2="29.72"/><polyline class="a" points="203.2 28.54 203.81 28.54 203.48 28.99 203.64 28.99 203.75 29.05 203.81 29.11 203.87 29.27 203.87 29.38 203.81 29.56 203.7 29.66 203.54 29.72 203.36 29.72 203.2 29.66 203.14 29.6 203.09 29.5"/><line class="a" x1="205.42" y1="28.93" x2="205.42" y2="29.72"/><polyline class="a" points="205.42 29.17 205.6 28.99 205.71 28.93 205.87 28.93 205.99 28.99 206.05 29.17 206.05 29.72"/><polyline class="a" points="206.05 29.17 206.21 28.99 206.32 28.93 206.48 28.93 206.6 28.99 206.66 29.17 206.66 29.72"/><polyline class="a" points="208.84 29.11 208.78 28.99 208.6 28.93 208.44 28.93 208.27 28.99 208.22 29.11 208.27 29.23 208.38 29.27 208.66 29.33 208.78 29.39 208.84 29.5 208.84 29.56 208.78 29.66 208.6 29.72 208.44 29.72 208.27 29.66 208.22 29.56"/><polygon class="a" points="209.29 29.6 209.23 29.66 209.29 29.72 209.33 29.66 209.29 29.6"/><line class="a" x1="209.78" y1="28.54" x2="209.78" y2="29.72"/><rect class="a" x="210.25" y="29.62" width="0.08" height="0.08" transform="translate(40.61 157.37) rotate(-45)"/><line class="a" x1="210.78" y1="28.93" x2="210.78" y2="29.72"/><polyline class="a" points="210.78 29.17 210.96 28.99 211.07 28.93 211.23 28.93 211.35 28.99 211.41 29.17 211.41 29.72"/><polyline class="a" points="211.41 29.17 211.56 28.99 211.68 28.93 211.84 28.93 211.96 28.99 212.01 29.17 212.01 29.72"/><polygon class="a" points="212.51 29.6 212.47 29.66 212.51 29.72 212.57 29.66 212.51 29.6"/><polyline class="a" points="198.28 44.69 198.38 44.63 198.56 44.47 198.56 45.65"/><polygon class="a" points="199.5 44.47 199.34 44.53 199.28 44.63 199.28 44.74 199.34 44.86 199.44 44.92 199.67 44.96 199.83 45.02 199.95 45.14 200.01 45.25 200.01 45.41 199.95 45.53 199.89 45.59 199.73 45.65 199.5 45.65 199.34 45.59 199.28 45.53 199.22 45.41 199.22 45.25 199.28 45.14 199.4 45.02 199.56 44.96 199.78 44.92 199.89 44.86 199.95 44.74 199.95 44.63 199.89 44.53 199.73 44.47 199.5 44.47"/><polyline class="a" points="201.07 44.86 201.01 45.02 200.89 45.14 200.73 45.2 200.68 45.2 200.5 45.14 200.4 45.02 200.34 44.86 200.34 44.8 200.4 44.63 200.5 44.53 200.68 44.47 200.73 44.47 200.89 44.53 201.01 44.63 201.07 44.86 201.07 45.14 201.01 45.41 200.89 45.59 200.73 45.65 200.62 45.65 200.46 45.59 200.4 45.47"/><polygon class="a" points="201.56 45.53 201.52 45.59 201.56 45.65 201.62 45.59 201.56 45.53"/><polyline class="a" points="202.74 44.63 202.68 44.53 202.52 44.47 202.4 44.47 202.24 44.53 202.13 44.69 202.07 44.96 202.07 45.25 202.13 45.47 202.24 45.59 202.4 45.65 202.46 45.65 202.62 45.59 202.74 45.47 202.8 45.31 202.8 45.25 202.74 45.08 202.62 44.96 202.46 44.92 202.4 44.92 202.24 44.96 202.13 45.08 202.07 45.25"/><polyline class="a" points="203.3 44.69 203.41 44.63 203.58 44.47 203.58 45.65"/><line class="a" x1="205.47" y1="44.86" x2="205.47" y2="45.64"/><polyline class="a" points="205.47 45.08 205.64 44.92 205.76 44.86 205.92 44.86 206.03 44.92 206.09 45.08 206.09 45.65"/><polyline class="a" points="206.09 45.08 206.25 44.92 206.37 44.86 206.54 44.86 206.64 44.92 206.7 45.08 206.7 45.65"/><polyline class="a" points="208.88 45.02 208.82 44.92 208.66 44.86 208.49 44.86 208.33 44.92 208.27 45.02 208.33 45.14 208.43 45.2 208.71 45.25 208.82 45.31 208.88 45.41 208.88 45.47 208.82 45.59 208.66 45.65 208.49 45.65 208.33 45.59 208.27 45.47"/><rect class="a" x="209.29" y="45.55" width="0.08" height="0.08" transform="translate(29.07 161.36) rotate(-45)"/><line class="a" x1="209.82" y1="44.47" x2="209.82" y2="45.64"/><rect class="a" x="210.29" y="45.55" width="0.08" height="0.08" transform="translate(29.36 162.07) rotate(-45)"/><line class="a" x1="210.82" y1="44.86" x2="210.82" y2="45.64"/><polyline class="a" points="210.82 45.08 211 44.92 211.11 44.86 211.27 44.86 211.39 44.92 211.45 45.08 211.45 45.65"/><polyline class="a" points="211.45 45.08 211.61 44.92 211.72 44.86 211.88 44.86 212 44.92 212.06 45.08 212.06 45.65"/><polygon class="a" points="212.57 45.53 212.51 45.59 212.57 45.65 212.61 45.59 212.57 45.53"/><polyline class="a" points="197.05 56.4 197.16 56.34 197.34 56.17 197.34 57.35"/><polyline class="a" points="198.73 56.56 198.67 56.74 198.56 56.84 198.4 56.9 198.34 56.9 198.16 56.84 198.06 56.74 198 56.56 198 56.51 198.06 56.34 198.16 56.23 198.34 56.17 198.4 56.17 198.56 56.23 198.67 56.34 198.73 56.56 198.73 56.84 198.67 57.13 198.56 57.29 198.4 57.35 198.28 57.35 198.11 57.29 198.06 57.19"/><polygon class="a" points="199.46 56.17 199.28 56.23 199.17 56.4 199.12 56.68 199.12 56.84 199.17 57.13 199.28 57.29 199.46 57.35 199.56 57.35 199.73 57.29 199.85 57.13 199.89 56.84 199.89 56.68 199.85 56.4 199.73 56.23 199.56 56.17 199.46 56.17"/><rect class="a" x="200.3" y="57.25" width="0.08" height="0.08" transform="translate(18.16 158.43) rotate(-45)"/><polyline class="a" points="200.91 56.17 201.52 56.17 201.18 56.62 201.34 56.62 201.46 56.68 201.52 56.74 201.58 56.9 201.58 57.01 201.52 57.19 201.4 57.29 201.24 57.35 201.07 57.35 200.91 57.29 200.85 57.23 200.79 57.13"/><polyline class="a" points="202.58 56.17 202.01 56.17 201.97 56.68 202.01 56.62 202.19 56.56 202.36 56.56 202.52 56.62 202.64 56.74 202.69 56.9 202.69 57.01 202.64 57.19 202.52 57.29 202.36 57.35 202.19 57.35 202.01 57.29 201.97 57.23 201.91 57.13"/><line class="a" x1="204.25" y1="56.56" x2="204.25" y2="57.35"/><polyline class="a" points="204.25 56.8 204.42 56.62 204.52 56.56 204.7 56.56 204.81 56.62 204.86 56.8 204.86 57.35"/><polyline class="a" points="204.86 56.8 205.03 56.62 205.15 56.56 205.31 56.56 205.42 56.62 205.48 56.8 205.48 57.35"/><polyline class="a" points="207.66 56.74 207.6 56.62 207.43 56.56 207.27 56.56 207.09 56.62 207.04 56.74 207.09 56.84 207.21 56.9 207.49 56.95 207.6 57.01 207.66 57.13 207.66 57.19 207.6 57.29 207.43 57.35 207.27 57.35 207.09 57.29 207.04 57.19"/><polygon class="a" points="208.09 57.23 208.05 57.29 208.09 57.35 208.15 57.29 208.09 57.23"/><line class="a" x1="208.6" y1="56.17" x2="208.6" y2="57.35"/><polygon class="a" points="209.11 57.23 209.05 57.29 209.11 57.35 209.16 57.29 209.11 57.23"/><line class="a" x1="209.6" y1="56.56" x2="209.6" y2="57.35"/><polyline class="a" points="209.6 56.8 209.78 56.62 209.88 56.56 210.06 56.56 210.17 56.62 210.22 56.8 210.22 57.35"/><polyline class="a" points="210.22 56.8 210.39 56.62 210.5 56.56 210.66 56.56 210.78 56.62 210.84 56.8 210.84 57.35"/><rect class="a" x="211.29" y="57.25" width="0.08" height="0.08" transform="translate(21.38 166.2) rotate(-45)"/><polyline class="a" points="240.22 15.33 240.34 15.27 240.51 15.11 240.51 16.27"/><polyline class="a" points="241.91 15.49 241.85 15.66 241.73 15.78 241.57 15.82 241.52 15.82 241.34 15.78 241.24 15.66 241.18 15.49 241.18 15.45 241.24 15.27 241.34 15.16 241.52 15.11 241.57 15.11 241.73 15.16 241.85 15.27 241.91 15.49 241.91 15.78 241.85 16.06 241.73 16.22 241.57 16.27 241.46 16.27 241.28 16.22 241.24 16.11"/><polygon class="a" points="242.63 15.11 242.46 15.16 242.36 15.33 242.3 15.61 242.3 15.78 242.36 16.06 242.46 16.22 242.63 16.27 242.74 16.27 242.91 16.22 243.03 16.06 243.07 15.78 243.07 15.61 243.03 15.33 242.91 15.16 242.74 15.11 242.63 15.11"/><polygon class="a" points="243.52 16.17 243.46 16.22 243.52 16.27 243.58 16.22 243.52 16.17"/><polyline class="a" points="245.31 16.27 245.87 15.11 245.09 15.11"/><line class="a" x1="247.42" y1="15.49" x2="247.42" y2="16.27"/><polyline class="a" points="247.43 15.72 247.6 15.55 247.7 15.49 247.88 15.49 247.99 15.55 248.05 15.72 248.05 16.27"/><polyline class="a" points="248.05 15.72 248.21 15.55 248.32 15.49 248.49 15.49 248.6 15.55 248.66 15.72 248.66 16.27"/><polyline class="a" points="250.84 15.66 250.78 15.55 250.6 15.49 250.44 15.49 250.27 15.55 250.21 15.66 250.27 15.78 250.39 15.82 250.66 15.88 250.78 15.94 250.84 16.06 250.84 16.11 250.78 16.22 250.6 16.27 250.44 16.27 250.27 16.22 250.21 16.11"/><polygon class="a" points="251.27 16.17 251.23 16.22 251.27 16.27 251.33 16.22 251.27 16.17"/><line class="a" x1="251.78" y1="15.11" x2="251.78" y2="16.27"/><polygon class="a" points="252.29 16.17 252.23 16.22 252.29 16.27 252.33 16.22 252.29 16.17"/><line class="a" x1="252.78" y1="15.49" x2="252.78" y2="16.27"/><polyline class="a" points="252.78 15.72 252.96 15.55 253.06 15.49 253.23 15.49 253.35 15.55 253.39 15.72 253.39 16.27"/><polyline class="a" points="253.39 15.72 253.57 15.55 253.68 15.49 253.84 15.49 253.96 15.55 254.02 15.72 254.02 16.27"/><polygon class="a" points="254.51 16.17 254.45 16.22 254.51 16.27 254.57 16.22 254.51 16.17"/><polyline class="a" points="242.3 26.7 242.42 26.64 242.58 26.48 242.58 27.64"/><polygon class="a" points="243.53 26.48 243.36 26.54 243.3 26.64 243.3 26.76 243.36 26.87 243.48 26.92 243.69 26.98 243.87 27.03 243.97 27.15 244.03 27.27 244.03 27.43 243.97 27.54 243.91 27.6 243.75 27.64 243.53 27.64 243.36 27.6 243.3 27.54 243.24 27.43 243.24 27.27 243.3 27.15 243.42 27.03 243.58 26.98 243.81 26.92 243.91 26.87 243.97 26.76 243.97 26.64 243.91 26.54 243.75 26.48 243.53 26.48"/><polyline class="a" points="245.09 26.87 245.03 27.03 244.93 27.15 244.75 27.21 244.7 27.21 244.54 27.15 244.42 27.03 244.36 26.87 244.36 26.82 244.42 26.64 244.54 26.54 244.7 26.48 244.75 26.48 244.93 26.54 245.03 26.64 245.09 26.87 245.09 27.15 245.03 27.43 244.93 27.6 244.75 27.64 244.64 27.64 244.48 27.6 244.42 27.48"/><polygon class="a" points="245.6 27.54 245.54 27.6 245.6 27.64 245.65 27.6 245.6 27.54"/><polyline class="a" points="246.15 26.48 246.76 26.48 246.42 26.92 246.6 26.92 246.71 26.98 246.76 27.03 246.81 27.21 246.81 27.31 246.76 27.48 246.66 27.6 246.48 27.64 246.32 27.64 246.15 27.6 246.09 27.54 246.03 27.43"/><polyline class="a" points="247.72 26.48 247.15 27.27 247.99 27.27"/><line class="a" x1="247.72" y1="26.48" x2="247.72" y2="27.64"/><line class="a" x1="249.5" y1="26.87" x2="249.5" y2="27.64"/><polyline class="a" points="249.5 27.09 249.66 26.92 249.78 26.87 249.94 26.87 250.05 26.92 250.11 27.09 250.11 27.64"/><polyline class="a" points="250.11 27.09 250.28 26.92 250.39 26.87 250.56 26.87 250.66 26.92 250.72 27.09 250.72 27.64"/><polyline class="a" points="252.9 27.03 252.84 26.92 252.68 26.87 252.51 26.87 252.35 26.92 252.29 27.03 252.35 27.15 252.45 27.21 252.74 27.27 252.84 27.31 252.9 27.43 252.9 27.48 252.84 27.6 252.68 27.64 252.51 27.64 252.35 27.6 252.29 27.48"/><polygon class="a" points="253.35 27.54 253.29 27.6 253.35 27.64 253.41 27.6 253.35 27.54"/><line class="a" x1="253.86" y1="26.48" x2="253.86" y2="27.64"/><polygon class="a" points="254.35 27.54 254.29 27.6 254.35 27.64 254.41 27.6 254.35 27.54"/><line class="a" x1="254.86" y1="26.87" x2="254.86" y2="27.64"/><polyline class="a" points="254.86 27.09 255.02 26.92 255.13 26.87 255.29 26.87 255.41 26.92 255.47 27.09 255.47 27.64"/><polyline class="a" points="255.47 27.09 255.63 26.92 255.74 26.87 255.92 26.87 256.02 26.92 256.08 27.09 256.08 27.64"/><polygon class="a" points="256.59 27.54 256.53 27.6 256.59 27.64 256.64 27.6 256.59 27.54"/><polyline class="a" points="243.56 41.74 243.68 41.7 243.84 41.52 243.84 42.7"/><polygon class="a" points="244.8 41.52 244.62 41.58 244.56 41.7 244.56 41.8 244.62 41.91 244.74 41.97 244.96 42.03 245.13 42.09 245.23 42.19 245.29 42.31 245.29 42.47 245.23 42.58 245.18 42.64 245.01 42.7 244.8 42.7 244.62 42.64 244.56 42.58 244.51 42.47 244.51 42.31 244.56 42.19 244.68 42.09 244.84 42.03 245.07 41.97 245.18 41.91 245.23 41.8 245.23 41.7 245.18 41.58 245.01 41.52 244.8 41.52"/><polyline class="a" points="246.35 41.91 246.29 42.09 246.19 42.19 246.02 42.25 245.96 42.25 245.8 42.19 245.68 42.09 245.63 41.91 245.63 41.86 245.68 41.7 245.8 41.58 245.96 41.52 246.02 41.52 246.19 41.58 246.29 41.7 246.35 41.91 246.35 42.19 246.29 42.47 246.19 42.64 246.02 42.7 245.9 42.7 245.74 42.64 245.68 42.52"/><rect class="a" x="246.82" y="42.6" width="0.08" height="0.08" transform="translate(42.14 187.03) rotate(-45)"/><polyline class="a" points="247.98 41.52 247.41 41.52 247.35 42.03 247.41 41.97 247.59 41.91 247.75 41.91 247.92 41.97 248.02 42.09 248.08 42.25 248.08 42.36 248.02 42.52 247.92 42.64 247.75 42.7 247.59 42.7 247.41 42.64 247.35 42.58 247.31 42.47"/><polyline class="a" points="248.53 41.52 249.14 41.52 248.8 41.97 248.98 41.97 249.09 42.03 249.14 42.09 249.2 42.25 249.2 42.36 249.14 42.52 249.04 42.64 248.86 42.7 248.7 42.7 248.53 42.64 248.47 42.58 248.41 42.47"/><line class="a" x1="250.76" y1="41.91" x2="250.76" y2="42.7"/><polyline class="a" points="250.76 42.13 250.92 41.97 251.04 41.91 251.21 41.91 251.32 41.97 251.37 42.13 251.37 42.7"/><polyline class="a" points="251.37 42.13 251.55 41.97 251.65 41.91 251.82 41.91 251.94 41.97 251.98 42.13 251.98 42.7"/><polyline class="a" points="254.16 42.09 254.1 41.97 253.94 41.91 253.77 41.91 253.61 41.97 253.55 42.09 253.61 42.19 253.73 42.25 254 42.31 254.1 42.36 254.16 42.47 254.16 42.52 254.1 42.64 253.94 42.7 253.77 42.7 253.61 42.64 253.55 42.52"/><rect class="a" x="254.57" y="42.6" width="0.08" height="0.08" transform="translate(44.41 192.51) rotate(-45)"/><line class="a" x1="255.12" y1="41.52" x2="255.12" y2="42.7"/><rect class="a" x="255.57" y="42.6" width="0.08" height="0.08" transform="translate(44.71 193.22) rotate(-45)"/><line class="a" x1="256.12" y1="41.91" x2="256.12" y2="42.7"/><polyline class="a" points="256.12 42.13 256.28 41.97 256.4 41.91 256.57 41.91 256.67 41.97 256.73 42.13 256.73 42.7"/><polyline class="a" points="256.73 42.13 256.9 41.97 257.01 41.91 257.18 41.91 257.28 41.97 257.34 42.13 257.34 42.7"/><rect class="a" x="257.81" y="42.6" width="0.08" height="0.08" transform="translate(45.36 194.8) rotate(-45)"/><polyline class="a" points="244.71 55.65 244.83 55.59 244.99 55.42 244.99 56.59"/><polyline class="a" points="246.38 55.81 246.34 55.98 246.22 56.08 246.05 56.14 246 56.14 245.83 56.08 245.71 55.98 245.67 55.81 245.67 55.75 245.71 55.59 245.83 55.47 246 55.42 246.05 55.42 246.22 55.47 246.34 55.59 246.38 55.81 246.38 56.08 246.34 56.37 246.22 56.53 246.05 56.59 245.94 56.59 245.77 56.53 245.71 56.43"/><polygon class="a" points="247.11 55.42 246.95 55.47 246.83 55.65 246.77 55.92 246.77 56.08 246.83 56.37 246.95 56.53 247.11 56.59 247.22 56.59 247.4 56.53 247.5 56.37 247.56 56.08 247.56 55.92 247.5 55.65 247.4 55.47 247.22 55.42 247.11 55.42"/><rect class="a" x="247.96" y="56.49" width="0.08" height="0.08" transform="translate(32.65 191.91) rotate(-45)"/><polyline class="a" points="249.18 55.59 249.12 55.47 248.95 55.42 248.85 55.42 248.67 55.47 248.56 55.65 248.51 55.92 248.51 56.2 248.56 56.43 248.67 56.53 248.85 56.59 248.89 56.59 249.07 56.53 249.18 56.43 249.23 56.26 249.23 56.2 249.18 56.04 249.07 55.92 248.89 55.87 248.85 55.87 248.67 55.92 248.56 56.04 248.51 56.2"/><polyline class="a" points="249.62 55.71 249.62 55.65 249.68 55.53 249.73 55.47 249.85 55.42 250.07 55.42 250.18 55.47 250.24 55.53 250.3 55.65 250.3 55.75 250.24 55.87 250.13 56.04 249.57 56.59 250.34 56.59"/><line class="a" x1="251.91" y1="55.81" x2="251.91" y2="56.59"/><polyline class="a" points="251.91 56.04 252.09 55.87 252.19 55.81 252.36 55.81 252.46 55.87 252.52 56.04 252.52 56.59"/><polyline class="a" points="252.52 56.04 252.69 55.87 252.8 55.81 252.97 55.81 253.09 55.87 253.15 56.04 253.15 56.59"/><polyline class="a" points="255.31 55.98 255.26 55.87 255.09 55.81 254.93 55.81 254.76 55.87 254.7 55.98 254.76 56.08 254.87 56.14 255.15 56.2 255.26 56.26 255.31 56.37 255.31 56.43 255.26 56.53 255.09 56.59 254.93 56.59 254.76 56.53 254.7 56.43"/><rect class="a" x="255.72" y="56.49" width="0.08" height="0.08" transform="translate(34.93 197.39) rotate(-45)"/><line class="a" x1="256.27" y1="55.42" x2="256.27" y2="56.59"/><rect class="a" x="256.72" y="56.49" width="0.08" height="0.08" transform="translate(35.22 198.1) rotate(-45)"/><line class="a" x1="257.27" y1="55.81" x2="257.27" y2="56.59"/><polyline class="a" points="257.27 56.04 257.43 55.87 257.54 55.81 257.72 55.81 257.82 55.87 257.88 56.04 257.88 56.59"/><polyline class="a" points="257.88 56.04 258.05 55.87 258.15 55.81 258.33 55.81 258.44 55.87 258.49 56.04 258.49 56.59"/><rect class="a" x="258.96" y="56.49" width="0.08" height="0.08" transform="translate(35.87 199.68) rotate(-45)"/><polyline class="a" points="297.19 15.11 297.3 15.05 297.47 14.89 297.47 16.07"/><polyline class="a" points="298.86 15.29 298.81 15.45 298.7 15.56 298.53 15.62 298.47 15.62 298.31 15.56 298.19 15.45 298.14 15.29 298.14 15.23 298.19 15.05 298.31 14.95 298.47 14.89 298.53 14.89 298.7 14.95 298.81 15.05 298.86 15.29 298.86 15.56 298.81 15.84 298.7 16.01 298.53 16.07 298.41 16.07 298.25 16.01 298.19 15.9"/><polygon class="a" points="299.59 14.89 299.42 14.95 299.31 15.11 299.25 15.4 299.25 15.56 299.31 15.84 299.42 16.01 299.59 16.07 299.7 16.07 299.87 16.01 299.98 15.84 300.04 15.56 300.04 15.4 299.98 15.11 299.87 14.95 299.7 14.89 299.59 14.89"/><polygon class="a" points="300.49 15.96 300.43 16.01 300.49 16.07 300.53 16.01 300.49 15.96"/><polygon class="a" points="301.26 14.89 301.1 14.95 300.98 15.11 300.93 15.4 300.93 15.56 300.98 15.84 301.1 16.01 301.26 16.07 301.38 16.07 301.55 16.01 301.65 15.84 301.71 15.56 301.71 15.4 301.65 15.11 301.55 14.95 301.38 14.89 301.26 14.89"/><polyline class="a" points="302.71 14.89 302.16 14.89 302.1 15.4 302.16 15.35 302.32 15.29 302.49 15.29 302.65 15.35 302.77 15.45 302.83 15.62 302.83 15.74 302.77 15.9 302.65 16.01 302.49 16.07 302.32 16.07 302.16 16.01 302.1 15.96 302.04 15.84"/><line class="a" x1="304.39" y1="15.29" x2="304.39" y2="16.07"/><polyline class="a" points="304.39 15.51 304.56 15.35 304.67 15.29 304.83 15.29 304.95 15.35 305 15.51 305 16.07"/><polyline class="a" points="305 15.51 305.16 15.35 305.28 15.29 305.45 15.29 305.56 15.35 305.61 15.51 305.61 16.07"/><polyline class="a" points="307.79 15.45 307.73 15.35 307.57 15.29 307.4 15.29 307.24 15.35 307.18 15.45 307.24 15.56 307.34 15.62 307.62 15.68 307.73 15.74 307.79 15.84 307.79 15.9 307.73 16.01 307.57 16.07 307.4 16.07 307.24 16.01 307.18 15.9"/><rect class="a" x="308.2" y="15.97" width="0.08" height="0.08" transform="translate(78.96 222.65) rotate(-45)"/><line class="a" x1="308.74" y1="14.9" x2="308.74" y2="16.07"/><rect class="a" x="309.2" y="15.97" width="0.08" height="0.08" transform="translate(79.25 223.36) rotate(-45)"/><line class="a" x1="309.74" y1="15.29" x2="309.74" y2="16.07"/><polyline class="a" points="309.74 15.51 309.91 15.35 310.03 15.29 310.19 15.29 310.3 15.35 310.36 15.51 310.36 16.07"/><polyline class="a" points="310.36 15.51 310.52 15.35 310.64 15.29 310.81 15.29 310.91 15.35 310.97 15.51 310.97 16.07"/><polygon class="a" points="311.48 15.96 311.42 16.01 311.48 16.07 311.52 16.01 311.48 15.96"/><polyline class="a" points="298.81 23.33 298.92 23.27 299.1 23.1 299.1 24.27"/><polygon class="a" points="300.04 23.1 299.87 23.16 299.81 23.27 299.81 23.37 299.87 23.49 299.98 23.55 300.2 23.61 300.37 23.66 300.49 23.77 300.53 23.88 300.53 24.06 300.49 24.16 300.43 24.22 300.26 24.27 300.04 24.27 299.87 24.22 299.81 24.16 299.76 24.06 299.76 23.88 299.81 23.77 299.92 23.66 300.1 23.61 300.31 23.55 300.43 23.49 300.49 23.37 300.49 23.27 300.43 23.16 300.26 23.1 300.04 23.1"/><polyline class="a" points="301.59 23.49 301.55 23.66 301.43 23.77 301.26 23.82 301.21 23.82 301.04 23.77 300.93 23.66 300.88 23.49 300.88 23.43 300.93 23.27 301.04 23.16 301.21 23.1 301.26 23.1 301.43 23.16 301.55 23.27 301.59 23.49 301.59 23.77 301.55 24.06 301.43 24.22 301.26 24.27 301.16 24.27 300.98 24.22 300.93 24.1"/><rect class="a" x="302.06" y="24.17" width="0.08" height="0.08" transform="translate(71.35 220.7) rotate(-45)"/><polyline class="a" points="302.61 23.37 302.61 23.33 302.65 23.21 302.71 23.16 302.83 23.1 303.05 23.1 303.16 23.16 303.22 23.21 303.28 23.33 303.28 23.43 303.22 23.55 303.1 23.72 302.55 24.27 303.33 24.27"/><polyline class="a" points="303.77 23.1 304.39 23.1 304.06 23.55 304.22 23.55 304.34 23.61 304.39 23.66 304.44 23.82 304.44 23.94 304.39 24.1 304.28 24.22 304.1 24.27 303.94 24.27 303.77 24.22 303.73 24.16 303.67 24.06"/><line class="a" x1="306.01" y1="23.49" x2="306.01" y2="24.27"/><polyline class="a" points="306.01 23.72 306.18 23.55 306.28 23.49 306.46 23.49 306.57 23.55 306.62 23.72 306.62 24.27"/><polyline class="a" points="306.62 23.72 306.79 23.55 306.91 23.49 307.07 23.49 307.18 23.55 307.24 23.72 307.24 24.27"/><polyline class="a" points="309.42 23.66 309.36 23.55 309.19 23.49 309.03 23.49 308.85 23.55 308.79 23.66 308.85 23.77 308.97 23.82 309.24 23.88 309.36 23.94 309.42 24.06 309.42 24.1 309.36 24.22 309.19 24.27 309.03 24.27 308.85 24.22 308.79 24.1"/><rect class="a" x="309.81" y="24.17" width="0.08" height="0.08" transform="translate(73.62 226.18) rotate(-45)"/><line class="a" x1="310.36" y1="23.1" x2="310.36" y2="24.27"/><polygon class="a" points="310.86 24.16 310.81 24.22 310.86 24.27 310.91 24.22 310.86 24.16"/><line class="a" x1="311.36" y1="23.49" x2="311.36" y2="24.27"/><polyline class="a" points="311.36 23.72 311.54 23.55 311.64 23.49 311.81 23.49 311.92 23.55 311.97 23.72 311.97 24.27"/><polyline class="a" points="311.97 23.72 312.15 23.55 312.26 23.49 312.42 23.49 312.54 23.55 312.6 23.72 312.6 24.27"/><rect class="a" x="313.05" y="24.17" width="0.08" height="0.08" transform="translate(74.57 228.47) rotate(-45)"/><polyline class="a" points="304.48 42.06 304.58 42 304.76 41.83 304.76 43"/><polygon class="a" points="305.7 41.83 305.54 41.88 305.48 42 305.48 42.1 305.54 42.22 305.64 42.28 305.88 42.34 306.04 42.39 306.15 42.49 306.21 42.61 306.21 42.78 306.15 42.89 306.09 42.95 305.93 43 305.7 43 305.54 42.95 305.48 42.89 305.43 42.78 305.43 42.61 305.48 42.49 305.6 42.39 305.76 42.34 305.98 42.28 306.09 42.22 306.15 42.1 306.15 42 306.09 41.88 305.93 41.83 305.7 41.83"/><polyline class="a" points="307.27 42.22 307.21 42.39 307.1 42.49 306.94 42.55 306.88 42.55 306.7 42.49 306.6 42.39 306.54 42.22 306.54 42.16 306.6 42 306.7 41.88 306.88 41.83 306.94 41.83 307.1 41.88 307.21 42 307.27 42.22 307.27 42.49 307.21 42.78 307.1 42.95 306.94 43 306.82 43 306.66 42.95 306.6 42.83"/><polygon class="a" points="307.76 42.89 307.72 42.94 307.76 43 307.82 42.94 307.76 42.89"/><polyline class="a" points="308.78 41.83 308.21 42.61 309.06 42.61"/><line class="a" x1="308.78" y1="41.83" x2="308.78" y2="43"/><polyline class="a" points="309.39 42.1 309.39 42.06 309.45 41.94 309.5 41.88 309.61 41.83 309.84 41.83 309.94 41.88 310 41.94 310.06 42.06 310.06 42.16 310 42.28 309.88 42.44 309.33 43 310.12 43"/><line class="a" x1="311.67" y1="42.22" x2="311.67" y2="43"/><polyline class="a" points="311.67 42.44 311.84 42.28 311.96 42.22 312.12 42.22 312.23 42.28 312.29 42.44 312.29 43"/><polyline class="a" points="312.29 42.44 312.45 42.28 312.57 42.22 312.73 42.22 312.85 42.28 312.9 42.44 312.9 43"/><polyline class="a" points="315.08 42.39 315.02 42.28 314.86 42.22 314.69 42.22 314.51 42.28 314.47 42.39 314.51 42.49 314.63 42.55 314.91 42.61 315.02 42.67 315.08 42.78 315.08 42.83 315.02 42.95 314.86 43 314.69 43 314.51 42.95 314.47 42.83"/><polygon class="a" points="315.53 42.89 315.47 42.94 315.53 43 315.57 42.94 315.53 42.89"/><line class="a" x1="316.02" y1="41.83" x2="316.02" y2="43"/><rect class="a" x="316.49" y="42.9" width="0.08" height="0.08" transform="translate(62.33 236.38) rotate(-45)"/><line class="a" x1="317.03" y1="42.22" x2="317.03" y2="43"/><polyline class="a" points="317.03 42.44 317.2 42.28 317.32 42.22 317.48 42.22 317.59 42.28 317.65 42.44 317.65 43"/><polyline class="a" points="317.65 42.44 317.81 42.28 317.93 42.22 318.09 42.22 318.2 42.28 318.26 42.44 318.26 43"/><polygon class="a" points="318.77 42.89 318.71 42.94 318.77 43 318.81 42.94 318.77 42.89"/><polyline class="a" points="307.95 50.49 308.05 50.44 308.23 50.26 308.23 51.44"/><polyline class="a" points="309.62 50.65 309.56 50.83 309.45 50.94 309.29 50.99 309.23 50.99 309.07 50.94 308.95 50.83 308.89 50.65 308.89 50.6 308.95 50.44 309.07 50.32 309.23 50.26 309.29 50.26 309.45 50.32 309.56 50.44 309.62 50.65 309.62 50.94 309.56 51.22 309.45 51.38 309.29 51.44 309.17 51.44 309.01 51.38 308.95 51.28"/><polygon class="a" points="310.35 50.26 310.17 50.32 310.07 50.49 310.01 50.77 310.01 50.94 310.07 51.22 310.17 51.38 310.35 51.44 310.46 51.44 310.62 51.38 310.74 51.22 310.8 50.94 310.8 50.77 310.74 50.49 310.62 50.32 310.46 50.26 310.35 50.26"/><polygon class="a" points="311.23 51.32 311.19 51.38 311.23 51.44 311.29 51.38 311.23 51.32"/><polyline class="a" points="312.25 50.26 311.68 51.05 312.52 51.05"/><line class="a" x1="312.25" y1="50.26" x2="312.25" y2="51.44"/><polyline class="a" points="312.92 50.26 313.53 50.26 313.19 50.71 313.37 50.71 313.47 50.77 313.53 50.83 313.58 50.99 313.58 51.1 313.53 51.28 313.41 51.38 313.25 51.44 313.08 51.44 312.92 51.38 312.86 51.32 312.8 51.22"/><line class="a" x1="315.14" y1="50.65" x2="315.14" y2="51.44"/><polyline class="a" points="315.14 50.89 315.31 50.71 315.43 50.65 315.59 50.65 315.7 50.71 315.76 50.89 315.76 51.44"/><polyline class="a" points="315.76 50.89 315.92 50.71 316.04 50.65 316.21 50.65 316.31 50.71 316.37 50.89 316.37 51.44"/><polyline class="a" points="318.55 50.83 318.49 50.71 318.33 50.65 318.16 50.65 317.98 50.71 317.94 50.83 317.98 50.94 318.1 50.99 318.38 51.05 318.49 51.1 318.55 51.22 318.55 51.28 318.49 51.38 318.33 51.44 318.16 51.44 317.98 51.38 317.94 51.28"/><rect class="a" x="318.96" y="51.34" width="0.08" height="0.08" transform="translate(57.09 240.6) rotate(-45)"/><line class="a" x1="319.49" y1="50.26" x2="319.49" y2="51.44"/><rect class="a" x="319.96" y="51.34" width="0.08" height="0.08" transform="translate(57.38 241.31) rotate(-45)"/><line class="a" x1="320.5" y1="50.65" x2="320.5" y2="51.44"/><polyline class="a" points="320.5 50.89 320.67 50.71 320.79 50.65 320.94 50.65 321.06 50.71 321.12 50.89 321.12 51.44"/><polyline class="a" points="321.12 50.89 321.28 50.71 321.4 50.65 321.56 50.65 321.67 50.71 321.73 50.89 321.73 51.44"/><polygon class="a" points="322.24 51.32 322.18 51.38 322.24 51.44 322.28 51.38 322.24 51.32"/><polyline class="a" points="38.7 3.57 22.87 3.57 17.5 8.04"/><polyline class="a" points="38.7 15.51 23.35 15.51 17.82 9.68"/><polyline class="a" points="37.48 32.16 22.01 32.16 16.61 35.73"/><polyline class="a" points="37.91 42.83 22.07 42.83 16.5 37.09"/><polyline class="a" points="87.75 8.49 72 8.49 69.68 11.18"/><polyline class="a" points="88.48 20.75 72.63 20.75 69.42 13.5"/><polyline class="a" points="88.1 36.37 72.29 36.37 68.3 39.66"/><polyline class="a" points="86.69 48.24 70.78 48.24 68.25 41.04"/><polyline class="a" points="120.53 41.7 104.51 41.7 99.89 46.31"/><polyline class="a" points="119.8 53.46 104.22 53.46 99.83 47.68"/><polyline class="a" points="119.94 13.26 104.16 13.26 100.54 17.93"/><polyline class="a" points="120.94 25.68 104.61 25.68 100.24 20.24"/><polyline class="a" points="167.15 15.46 151.21 15.46 146.71 19.55"/><polyline class="a" points="166.91 28.32 150.56 28.32 146.76 22.18"/><polyline class="a" points="166.86 43.73 150.72 43.73 146.25 48.22"/><polyline class="a" points="164.89 56.17 148.89 56.17 146.25 49.59"/><polyline class="a" points="213.48 17.49 197.74 17.49 193.05 23.49"/><polyline class="a" points="213.95 30.56 197.38 30.56 192.87 25.77"/><polyline class="a" points="213.25 46.34 197.16 46.34 191.4 51.8"/><polyline class="a" points="212.41 58.25 196.38 58.25 191.33 53.18"/><polyline class="a" points="255.26 16.86 239.76 16.86 238 21.85"/><polyline class="a" points="257.5 28.18 241.7 28.18 238.12 23.05"/><polyline class="a" points="258.53 43.41 242.84 43.41 238.41 49.13"/><polyline class="a" points="259.94 57.39 243.98 57.39 238.42 50.51"/><polyline class="a" points="312.55 16.86 297.11 16.86 294.65 21.25"/><polyline class="a" points="314.06 24.8 298.68 24.8 294.74 21.49"/><polyline class="a" points="319.75 43.92 304.02 43.92 301.32 47.43"/><polyline class="a" points="323.05 52.27 307.37 52.27 301.67 48.78"/><polyline class="a" points="36.98 24.77 36.98 23.43 37.56 23.43 37.75 23.49 37.82 23.55 37.88 23.68 37.88 23.87 37.82 24 37.75 24.07 37.56 24.13 36.98 24.13"/><polyline class="a" points="38.33 24.77 38.33 23.43 39.16 23.43"/><line class="a" x1="38.33" y1="24.07" x2="38.84" y2="24.07"/><line class="a" x1="38.33" y1="24.77" x2="39.16" y2="24.77"/><polyline class="a" points="39.55 24.77 39.55 23.43 40.44 24.77 40.44 23.43"/><polygon class="a" points="40.96 24.77 40.96 23.43 41.4 23.43 41.6 23.49 41.72 23.62 41.79 23.75 41.85 23.94 41.85 24.26 41.79 24.45 41.72 24.58 41.6 24.71 41.4 24.77 40.96 24.77"/><polyline class="a" points="42.3 24.77 42.3 23.43 43.12 23.43"/><line class="a" x1="42.3" y1="24.07" x2="42.8" y2="24.07"/><line class="a" x1="42.3" y1="24.77" x2="43.12" y2="24.77"/><polyline class="a" points="43.52 24.77 43.52 23.43 44.4 24.77 44.4 23.43"/><polyline class="a" points="44.85 24.77 45.75 23.43 44.85 23.43"/><line class="a" x1="44.85" y1="24.77" x2="45.75" y2="24.77"/><polyline class="a" points="46.01 24.77 46.52 23.43 47.03 24.77"/><line class="a" x1="46.2" y1="24.32" x2="46.84" y2="24.32"/><line class="a" x1="47.35" y1="24" x2="48.5" y2="24"/><line class="a" x1="47.35" y1="24.39" x2="48.5" y2="24.39"/><polyline class="a" points="49.13 23.68 49.27 23.62 49.45 23.43 49.45 24.77"/><line class="a" x1="51.38" y1="23.43" x2="50.22" y2="24.77"/><polygon class="a" points="51.12 24.32 50.99 24.39 50.93 24.51 50.93 24.64 51.06 24.77 51.18 24.77 51.31 24.71 51.38 24.58 51.38 24.45 51.25 24.32 51.12 24.32"/><polyline class="a" points="78.2 29.78 78.2 28.43 78.78 28.43 78.97 28.5 79.03 28.56 79.1 28.69 79.1 28.88 79.03 29.01 78.97 29.07 78.78 29.14 78.2 29.14"/><polyline class="a" points="79.55 29.78 79.55 28.43 80.38 28.43"/><line class="a" x1="79.55" y1="29.07" x2="80.06" y2="29.07"/><line class="a" x1="79.55" y1="29.78" x2="80.38" y2="29.78"/><polyline class="a" points="80.75 29.78 80.75 28.43 81.66 29.78 81.66 28.43"/><polygon class="a" points="82.16 29.78 82.16 28.43 82.61 28.43 82.8 28.5 82.93 28.61 83 28.75 83.06 28.93 83.06 29.25 83 29.46 82.93 29.59 82.8 29.7 82.61 29.78 82.16 29.78"/><polyline class="a" points="83.51 29.78 83.51 28.43 84.34 28.43"/><line class="a" x1="83.51" y1="29.07" x2="84.02" y2="29.07"/><line class="a" x1="83.51" y1="29.78" x2="84.34" y2="29.78"/><polyline class="a" points="84.72 29.78 84.72 28.43 85.62 29.78 85.62 28.43"/><polyline class="a" points="86.07 29.78 86.97 28.43 86.07 28.43"/><line class="a" x1="86.07" y1="29.78" x2="86.97" y2="29.78"/><polyline class="a" points="87.22 29.78 87.74 28.43 88.25 29.78"/><line class="a" x1="87.4" y1="29.33" x2="88.06" y2="29.33"/><line class="a" x1="88.57" y1="29.01" x2="89.71" y2="29.01"/><line class="a" x1="88.57" y1="29.38" x2="89.71" y2="29.38"/><polyline class="a" points="90.35 28.69 90.48 28.61 90.67 28.43 90.67 29.78"/><line class="a" x1="92.59" y1="28.43" x2="91.44" y2="29.78"/><polygon class="a" points="92.34 29.33 92.21 29.38 92.14 29.52 92.14 29.64 92.27 29.78 92.4 29.78 92.53 29.7 92.59 29.59 92.59 29.46 92.47 29.33 92.34 29.33"/><polyline class="a" points="117.44 33.77 117.44 32.42 118.02 32.42 118.21 32.48 118.27 32.55 118.34 32.68 118.34 32.87 118.27 33 118.21 33.06 118.02 33.13 117.44 33.13"/><polyline class="a" points="118.79 33.77 118.79 32.42 119.62 32.42"/><line class="a" x1="118.79" y1="33.06" x2="119.3" y2="33.06"/><line class="a" x1="118.79" y1="33.77" x2="119.62" y2="33.77"/><polyline class="a" points="120 33.77 120 32.42 120.9 33.77 120.9 32.42"/><polygon class="a" points="121.41 33.77 121.41 32.42 121.86 32.42 122.05 32.48 122.18 32.61 122.25 32.74 122.31 32.93 122.31 33.25 122.25 33.45 122.18 33.57 122.05 33.7 121.86 33.77 121.41 33.77"/><polyline class="a" points="122.76 33.77 122.76 32.42 123.58 32.42"/><line class="a" x1="122.76" y1="33.06" x2="123.26" y2="33.06"/><line class="a" x1="122.76" y1="33.77" x2="123.58" y2="33.77"/><polyline class="a" points="123.96 33.77 123.96 32.42 124.86 33.77 124.86 32.42"/><polyline class="a" points="125.31 33.77 126.21 32.42 125.31 32.42"/><line class="a" x1="125.31" y1="33.77" x2="126.21" y2="33.77"/><polyline class="a" points="126.46 33.77 126.98 32.42 127.49 33.77"/><line class="a" x1="126.65" y1="33.32" x2="127.3" y2="33.32"/><line class="a" x1="127.81" y1="33" x2="128.96" y2="33"/><line class="a" x1="127.81" y1="33.38" x2="128.96" y2="33.38"/><polyline class="a" points="129.59 32.68 129.72 32.61 129.91 32.42 129.91 33.77"/><line class="a" x1="131.83" y1="32.42" x2="130.68" y2="33.77"/><polyline class="a" points="131 32.42 131.13 32.55 131.13 32.68 131.06 32.8 130.94 32.87 130.81 32.87 130.68 32.74 130.68 32.61 130.74 32.48 130.87 32.42 131 32.42 131.13 32.48 131.32 32.55 131.51 32.55 131.71 32.48 131.83 32.42"/><polygon class="a" points="131.58 33.32 131.45 33.38 131.38 33.51 131.38 33.64 131.51 33.77 131.64 33.77 131.77 33.7 131.83 33.57 131.83 33.45 131.72 33.32 131.58 33.32"/><polyline class="a" points="163.16 37.65 163.16 36.31 163.73 36.31 163.92 36.37 163.99 36.42 164.05 36.56 164.05 36.74 163.99 36.88 163.92 36.95 163.73 37.01 163.16 37.01"/><polyline class="a" points="164.5 37.65 164.5 36.31 165.32 36.31"/><line class="a" x1="164.5" y1="36.95" x2="165" y2="36.95"/><line class="a" x1="164.5" y1="37.65" x2="165.32" y2="37.65"/><polyline class="a" points="165.72 37.65 165.72 36.31 166.6 37.65 166.6 36.31"/><polygon class="a" points="167.12 37.65 167.12 36.31 167.56 36.31 167.76 36.37 167.89 36.5 167.95 36.63 168.01 36.82 168.01 37.14 167.95 37.33 167.89 37.46 167.76 37.59 167.56 37.65 167.12 37.65"/><polyline class="a" points="168.46 37.65 168.46 36.31 169.29 36.31"/><line class="a" x1="168.46" y1="36.95" x2="168.97" y2="36.95"/><line class="a" x1="168.46" y1="37.65" x2="169.29" y2="37.65"/><polyline class="a" points="169.68 37.65 169.68 36.31 170.58 37.65 170.58 36.31"/><polyline class="a" points="171.01 37.65 171.91 36.31 171.01 36.31"/><line class="a" x1="171.02" y1="37.65" x2="171.92" y2="37.65"/><polyline class="a" points="172.18 37.65 172.69 36.31 173.19 37.65"/><line class="a" x1="172.37" y1="37.2" x2="173" y2="37.2"/><line class="a" x1="173.51" y1="36.88" x2="174.66" y2="36.88"/><line class="a" x1="173.51" y1="37.27" x2="174.66" y2="37.27"/><polyline class="a" points="175.31 36.56 175.43 36.5 175.63 36.31 175.63 37.65"/><line class="a" x1="177.55" y1="36.31" x2="176.39" y2="37.65"/><polygon class="a" points="177.29 37.2 177.16 37.27 177.1 37.38 177.1 37.51 177.23 37.65 177.34 37.65 177.48 37.59 177.55 37.46 177.55 37.33 177.42 37.2 177.29 37.2"/><polyline class="a" points="209.2 37.53 209.2 36.19 209.78 36.19 209.97 36.25 210.03 36.32 210.1 36.45 210.1 36.64 210.03 36.77 209.97 36.83 209.78 36.89 209.2 36.89"/><polyline class="a" points="210.53 37.53 210.53 36.19 211.38 36.19"/><line class="a" x1="210.53" y1="36.83" x2="211.06" y2="36.83"/><line class="a" x1="210.53" y1="37.53" x2="211.38" y2="37.53"/><polyline class="a" points="211.75 37.53 211.75 36.19 212.65 37.53 212.65 36.19"/><polygon class="a" points="213.16 37.53 213.16 36.19 213.61 36.19 213.8 36.25 213.93 36.38 213.99 36.51 214.06 36.7 214.06 37.02 213.99 37.21 213.93 37.34 213.8 37.47 213.61 37.53 213.16 37.53"/><polyline class="a" points="214.51 37.53 214.51 36.19 215.34 36.19"/><line class="a" x1="214.51" y1="36.83" x2="215.02" y2="36.83"/><line class="a" x1="214.51" y1="37.53" x2="215.34" y2="37.53"/><polyline class="a" points="215.72 37.53 215.72 36.19 216.62 37.53 216.62 36.19"/><polyline class="a" points="217.07 37.53 217.97 36.19 217.07 36.19"/><line class="a" x1="217.07" y1="37.53" x2="217.97" y2="37.53"/><polyline class="a" points="218.21 37.53 218.72 36.19 219.25 37.53"/><line class="a" x1="218.4" y1="37.09" x2="219.04" y2="37.09"/><line class="a" x1="219.56" y1="36.77" x2="220.71" y2="36.77"/><line class="a" x1="219.56" y1="37.15" x2="220.71" y2="37.15"/><polyline class="a" points="221.35 36.45 221.48 36.38 221.67 36.19 221.67 37.53"/><line class="a" x1="223.59" y1="36.19" x2="222.44" y2="37.53"/><polyline class="a" points="222.76 36.19 222.89 36.33 222.89 36.45 222.82 36.57 222.7 36.64 222.57 36.64 222.44 36.51 222.44 36.38 222.5 36.25 222.63 36.19 222.76 36.19 222.89 36.25 223.08 36.33 223.27 36.33 223.46 36.25 223.59 36.19"/><polygon class="a" points="223.34 37.09 223.21 37.15 223.14 37.28 223.14 37.41 223.27 37.53 223.4 37.53 223.53 37.47 223.59 37.34 223.59 37.21 223.46 37.09 223.34 37.09"/><polyline class="a" points="263 35.6 263 34.25 263.58 34.25 263.77 34.32 263.85 34.38 263.9 34.51 263.9 34.7 263.85 34.83 263.77 34.89 263.58 34.96 263 34.96"/><polyline class="a" points="264.35 35.6 264.35 34.25 265.18 34.25"/><line class="a" x1="264.35" y1="34.89" x2="264.86" y2="34.89"/><line class="a" x1="264.35" y1="35.6" x2="265.18" y2="35.6"/><polyline class="a" points="265.56 35.6 265.56 34.25 266.46 35.6 266.46 34.25"/><polygon class="a" points="266.97 35.6 266.97 34.25 267.42 34.25 267.61 34.32 267.74 34.45 267.81 34.57 267.87 34.77 267.87 35.09 267.81 35.28 267.74 35.41 267.61 35.52 267.42 35.6 266.97 35.6"/><polyline class="a" points="268.32 35.6 268.32 34.25 269.14 34.25"/><line class="a" x1="268.32" y1="34.89" x2="268.82" y2="34.89"/><line class="a" x1="268.32" y1="35.6" x2="269.14" y2="35.6"/><polyline class="a" points="269.54 35.6 269.54 34.25 270.42 35.6 270.42 34.25"/><polyline class="a" points="270.87 35.6 271.77 34.25 270.87 34.25"/><line class="a" x1="270.87" y1="35.6" x2="271.77" y2="35.6"/><polyline class="a" points="272.02 35.6 272.54 34.25 273.05 35.6"/><line class="a" x1="272.22" y1="35.15" x2="272.86" y2="35.15"/><line class="a" x1="273.37" y1="34.83" x2="274.52" y2="34.83"/><line class="a" x1="273.37" y1="35.21" x2="274.52" y2="35.21"/><polyline class="a" points="275.15 34.51 275.29 34.45 275.47 34.25 275.47 35.6"/><line class="a" x1="277.39" y1="34.25" x2="276.24" y2="35.6"/><polygon class="a" points="277.14 35.15 277.01 35.21 276.95 35.34 276.95 35.47 277.07 35.6 277.2 35.6 277.33 35.52 277.39 35.41 277.39 35.28 277.27 35.15 277.14 35.15"/></svg>