<svg xmlns="http://www.w3.org/2000/svg" viewBox="0 0 628.44 204.7"><defs><style>.a,.b,.c,.d,.e{fill:none;stroke-linecap:round;stroke-linejoin:round;stroke-width:0.84px;}.a{stroke:#000;}.b{stroke:red;}.c{stroke:#ffbf00;}.d{stroke:#00b800;}.e{stroke:#00bfff;}</style></defs><title>Tavola disegno 3</title><polyline class="a" points="72.86 128.82 73.36 128.58 74.07 127.91 74.07 132.63"/><line class="a" x1="73.46" y1="139.38" x2="73.46" y2="153.98"/><line class="a" x1="7.53" y1="121.16" x2="623.21" y2="121.16"/><line class="a" x1="73.46" y1="139.38" x2="623.21" y2="139.38"/><line class="a" x1="73.46" y1="153.98" x2="623.21" y2="153.98"/><line class="a" x1="73.46" y1="175.8" x2="623.21" y2="175.8"/><polyline class="a" points="73.46 197.68 623.21 197.68 623.21 121.16"/><line class="a" x1="106.88" y1="139.38" x2="106.88" y2="153.98"/><line class="a" x1="128.26" y1="139.38" x2="128.26" y2="153.98"/><line class="a" x1="136.72" y1="139.38" x2="136.72" y2="153.98"/><line class="a" x1="144.44" y1="139.38" x2="144.44" y2="153.98"/><line class="a" x1="391.99" y1="139.38" x2="391.99" y2="153.98"/><line class="a" x1="466.09" y1="139.38" x2="466.09" y2="153.98"/><line class="a" x1="541.75" y1="139.38" x2="541.75" y2="153.98"/><line class="a" x1="608.9" y1="139.38" x2="608.9" y2="153.98"/><polyline class="a" points="86.22 144.44 88.18 144.44 87.12 145.83 87.68 145.83 88.03 146.03 88.18 146.17 88.38 146.7 88.38 147.04 88.18 147.57 87.83 147.91 87.27 148.1 86.77 148.1 86.22 147.91 86.01 147.76 85.86 147.38"/><polygon class="a" points="89.84 147.76 89.64 147.91 89.84 148.1 90 147.91 89.84 147.76"/><path class="a" d="M93.47,144.44H91.66l-.2,1.59.2-.19c3.14-1.2,2.66,3.62-.2,1.93l-.15-.39"/><polygon class="a" points="70.69 165.25 70.94 165.73 71.7 166.07 72.96 166.22 73.71 166.22 74.92 166.07 75.68 165.73 75.93 165.25 75.93 164.91 75.68 164.38 74.92 164.05 73.71 163.9 72.96 163.9 71.7 164.05 70.94 164.38 70.69 164.91 70.69 165.25"/><polyline class="a" points="72.1 195.27 71.85 194.93 71.09 194.45 76.34 194.45"/><polygon class="a" points="71.09 191.61 71.34 192.09 71.85 192.28 72.3 192.28 72.81 192.09 73.06 191.8 73.31 191.13 73.56 190.6 74.07 190.26 74.57 190.11 75.33 190.11 75.83 190.26 76.08 190.45 76.34 190.93 76.34 191.61 76.08 192.09 75.83 192.28 75.33 192.43 74.57 192.43 74.07 192.28 73.56 191.94 73.31 191.46 73.06 190.79 72.81 190.45 72.3 190.26 71.85 190.26 71.34 190.45 71.09 190.93 71.09 191.61"/><polyline class="a" points="72.81 186.93 73.56 187.13 74.07 187.42 74.32 187.95 74.32 188.09 74.07 188.62 73.56 188.96 72.81 189.1 72.56 189.1 71.85 188.96 71.34 188.62 71.09 188.09 71.09 187.95 71.34 187.42 71.85 187.13 72.81 186.93 74.07 186.93 75.33 187.13 76.08 187.42 76.34 187.95 76.34 188.28 76.08 188.76 75.58 188.96"/><polygon class="a" points="75.83 185.44 76.08 185.59 76.34 185.44 76.08 185.25 75.83 185.44"/><polygon class="a" points="71.09 183.08 71.34 183.61 72.1 183.95 73.31 184.09 74.07 184.09 75.33 183.95 76.08 183.61 76.34 183.08 76.34 182.74 76.08 182.26 75.33 181.92 74.07 181.78 73.31 181.78 72.1 181.92 71.34 182.26 71.09 182.74 71.09 183.08"/><polyline class="a" points="71.09 180.43 71.09 178.6 73.06 179.61 73.06 179.08 73.31 178.74 73.56 178.6 74.32 178.41 74.82 178.41 75.58 178.6 76.08 178.94 76.34 179.42 76.34 179.95 76.08 180.43 75.83 180.57 75.33 180.77"/><line class="a" x1="608.9" y1="49.52" x2="608.9" y2="121.16"/><line class="a" x1="541.75" y1="48.65" x2="541.75" y2="121.16"/><line class="a" x1="466.09" y1="47.35" x2="466.09" y2="121.16"/><line class="a" x1="391.99" y1="46.43" x2="391.99" y2="121.16"/><line class="b" x1="136.77" y1="29.81" x2="136.77" y2="29.76"/><line class="b" x1="137.58" y1="30.63" x2="137.73" y2="30.48"/><line class="b" x1="138.34" y1="31.5" x2="138.69" y2="31.16"/><line class="b" x1="139.14" y1="32.36" x2="139.65" y2="31.88"/><line class="b" x1="139.95" y1="33.18" x2="140.61" y2="32.56"/><line class="b" x1="140.76" y1="34.05" x2="141.56" y2="33.23"/><line class="b" x1="141.56" y1="34.87" x2="142.52" y2="33.95"/><line class="b" x1="142.32" y1="35.74" x2="143.48" y2="34.63"/><polyline class="b" points="143.13 36.6 144.44 35.35 144.44 35.3"/><line class="b" x1="143.93" y1="37.42" x2="146.15" y2="35.3"/><line class="b" x1="145.24" y1="37.81" x2="147.86" y2="35.3"/><line class="b" x1="147.76" y1="36.99" x2="149.58" y2="35.25"/><line class="b" x1="150.28" y1="36.22" x2="151.24" y2="35.25"/><line class="b" x1="151.7" y1="36.46" x2="152.96" y2="35.25"/><line class="b" x1="152.96" y1="36.89" x2="154.67" y2="35.21"/><line class="b" x1="154.17" y1="37.33" x2="156.38" y2="35.21"/><line class="b" x1="155.43" y1="37.71" x2="158.05" y2="35.21"/><line class="b" x1="157.09" y1="37.76" x2="159.76" y2="35.16"/><line class="b" x1="158.85" y1="37.66" x2="161.47" y2="35.16"/><line class="b" x1="160.62" y1="37.61" x2="161.07" y2="37.18"/><polyline class="b" points="144.74 37.95 150.64 36.07 155.68 37.81"/><line class="c" x1="164.65" y1="27.3" x2="167.02" y2="24.99"/><line class="c" x1="163.74" y1="29.76" x2="168.38" y2="25.33"/><line class="c" x1="162.84" y1="32.22" x2="169.74" y2="25.66"/><line class="c" x1="161.98" y1="34.68" x2="171.1" y2="25.95"/><line class="c" x1="163.19" y1="35.16" x2="172.26" y2="26.44"/><line class="c" x1="164.85" y1="35.11" x2="173.02" y2="27.3"/><line class="c" x1="166.57" y1="35.11" x2="173.82" y2="28.22"/><line class="c" x1="168.28" y1="35.11" x2="174.58" y2="29.09"/><line class="c" x1="169.99" y1="35.06" x2="175.34" y2="29.95"/><line class="c" x1="171.66" y1="35.06" x2="176.09" y2="30.82"/><line class="c" x1="173.37" y1="35.06" x2="177.1" y2="31.5"/><line class="c" x1="175.09" y1="35.01" x2="178.21" y2="32.03"/><line class="c" x1="176.8" y1="35.01" x2="179.32" y2="32.6"/><line class="c" x1="178.46" y1="35.01" x2="180.43" y2="33.13"/><line class="c" x1="180.18" y1="34.96" x2="181.54" y2="33.71"/><line class="c" x1="181.89" y1="34.96" x2="182.6" y2="34.24"/><line class="c" x1="183.55" y1="34.96" x2="183.7" y2="34.82"/><line class="c" x1="176.35" y1="31.11" x2="184.01" y2="34.96"/><line class="b" x1="184.91" y1="35.3" x2="185.27" y2="34.92"/><line class="b" x1="186.17" y1="35.69" x2="186.98" y2="34.92"/><line class="b" x1="187.43" y1="36.07" x2="188.7" y2="34.92"/><line class="b" x1="188.7" y1="36.51" x2="190.36" y2="34.87"/><line class="b" x1="189.96" y1="36.89" x2="192.07" y2="34.87"/><line class="b" x1="191.27" y1="37.28" x2="193.79" y2="34.87"/><line class="b" x1="192.53" y1="37.66" x2="195.5" y2="34.82"/><line class="b" x1="193.79" y1="38.1" x2="197.16" y2="34.82"/><line class="b" x1="194.9" y1="38.63" x2="198.88" y2="34.82"/><line class="b" x1="195.95" y1="39.2" x2="200.59" y2="34.77"/><line class="b" x1="197.06" y1="39.78" x2="202.31" y2="34.77"/><line class="b" x1="198.17" y1="40.31" x2="203.97" y2="34.77"/><line class="b" x1="199.28" y1="40.89" x2="205.68" y2="34.72"/><line class="b" x1="200.34" y1="41.42" x2="207.4" y2="34.72"/><line class="b" x1="201.45" y1="42" x2="209.11" y2="34.72"/><line class="b" x1="202.66" y1="42.43" x2="210.77" y2="34.67"/><line class="b" x1="204.37" y1="42.43" x2="212.49" y2="34.67"/><line class="b" x1="206.09" y1="42.38" x2="214.2" y2="34.68"/><line class="b" x1="207.8" y1="42.34" x2="215.86" y2="34.63"/><line class="b" x1="209.51" y1="42.34" x2="217.58" y2="34.63"/><line class="b" x1="211.28" y1="42.29" x2="219.29" y2="34.63"/><line class="b" x1="212.99" y1="42.29" x2="221.01" y2="34.58"/><line class="b" x1="214.71" y1="42.24" x2="222.67" y2="34.58"/><line class="b" x1="216.37" y1="42.24" x2="224.38" y2="34.58"/><line class="b" x1="218.03" y1="42.29" x2="226.1" y2="34.53"/><line class="b" x1="219.65" y1="42.29" x2="227.81" y2="34.53"/><line class="b" x1="221.31" y1="42.34" x2="229.48" y2="34.53"/><line class="b" x1="222.97" y1="42.34" x2="231.19" y2="34.48"/><line class="b" x1="224.64" y1="42.38" x2="232.9" y2="34.48"/><line class="b" x1="226.3" y1="42.43" x2="234.62" y2="34.48"/><polyline class="b" points="227.96 42.43 234.77 35.93 236.28 34.43"/><polyline class="b" points="229.63 42.48 235.98 36.36 237.99 34.43"/><polyline class="b" points="231.24 42.48 237.19 36.84 239.71 34.43"/><line class="b" x1="232.9" y1="42.53" x2="241.42" y2="34.39"/><polyline class="b" points="234.57 42.53 239.56 37.81 243.09 34.39"/><polyline class="b" points="236.23 42.58 240.72 38.24 244.8 34.39"/><line class="b" x1="237.89" y1="42.58" x2="246.51" y2="34.34"/><polyline class="b" points="239.56 42.63 243.14 39.2 248.18 34.34"/><line class="b" x1="241.17" y1="42.67" x2="249.89" y2="34.34"/><polyline class="b" points="242.83 42.67 245.5 40.12 251.6 34.34"/><line class="b" x1="244.5" y1="42.72" x2="253.32" y2="34.29"/><line class="b" x1="246.16" y1="42.72" x2="254.98" y2="34.29"/><line class="b" x1="247.77" y1="42.82" x2="256.7" y2="34.29"/><line class="b" x1="249.39" y1="42.87" x2="258.41" y2="34.24"/><polyline class="b" points="251.05 42.91 251.45 42.48 260.12 34.24"/><line class="b" x1="252.66" y1="42.96" x2="261.79" y2="34.24"/><line class="b" x1="254.28" y1="43.01" x2="263.5" y2="34.19"/><line class="b" x1="255.94" y1="43.06" x2="265.21" y2="34.19"/><line class="b" x1="257.55" y1="43.11" x2="266.93" y2="34.19"/><line class="b" x1="259.17" y1="43.16" x2="268.59" y2="34.14"/><line class="b" x1="260.83" y1="43.2" x2="270.31" y2="34.14"/><line class="b" x1="262.44" y1="43.25" x2="272.02" y2="34.14"/><line class="b" x1="264.06" y1="43.35" x2="273.73" y2="34.1"/><line class="b" x1="265.72" y1="43.4" x2="275.4" y2="34.1"/><line class="b" x1="267.33" y1="43.44" x2="277.11" y2="34.1"/><line class="b" x1="268.94" y1="43.49" x2="278.82" y2="34.05"/><line class="b" x1="270.56" y1="43.54" x2="280.54" y2="34.05"/><line class="b" x1="272.22" y1="43.59" x2="282.2" y2="34.05"/><line class="b" x1="273.83" y1="43.64" x2="283.92" y2="34"/><line class="b" x1="275.45" y1="43.69" x2="285.63" y2="34"/><line class="b" x1="277.11" y1="43.73" x2="287.29" y2="34"/><line class="b" x1="278.72" y1="43.83" x2="289.01" y2="33.95"/><line class="b" x1="280.34" y1="43.88" x2="290.72" y2="33.95"/><line class="b" x1="281.95" y1="43.93" x2="292.44" y2="33.95"/><line class="b" x1="283.56" y1="44.02" x2="294.1" y2="33.9"/><line class="b" x1="285.18" y1="44.07" x2="295.81" y2="33.9"/><line class="b" x1="286.79" y1="44.17" x2="297.53" y2="33.9"/><line class="b" x1="288.4" y1="44.22" x2="299.24" y2="33.86"/><line class="b" x1="290.02" y1="44.26" x2="300.9" y2="33.86"/><line class="b" x1="291.63" y1="44.36" x2="302.62" y2="33.86"/><line class="b" x1="293.24" y1="44.41" x2="304.33" y2="33.81"/><line class="b" x1="294.85" y1="44.46" x2="306.05" y2="33.81"/><line class="b" x1="296.47" y1="44.55" x2="307.71" y2="33.81"/><line class="b" x1="298.08" y1="44.6" x2="309.42" y2="33.76"/><line class="b" x1="299.69" y1="44.7" x2="311.14" y2="33.76"/><line class="b" x1="301.31" y1="44.75" x2="312.85" y2="33.76"/><line class="b" x1="302.92" y1="44.79" x2="314.51" y2="33.71"/><line class="b" x1="304.53" y1="44.89" x2="316.23" y2="33.71"/><line class="b" x1="306.15" y1="44.94" x2="317.94" y2="33.71"/><line class="b" x1="307.76" y1="45.03" x2="324.5" y2="28.99"/><line class="b" x1="309.37" y1="45.08" x2="329.79" y2="25.57"/><polyline class="b" points="310.99 45.13 329.28 27.64 331.5 25.57"/><line class="b" x1="312.65" y1="45.18" x2="333.17" y2="25.57"/><line class="b" x1="314.31" y1="45.18" x2="334.83" y2="25.57"/><line class="b" x1="315.98" y1="45.23" x2="336.54" y2="25.57"/><line class="b" x1="317.64" y1="45.23" x2="338.21" y2="25.57"/><polyline class="b" points="319.3 45.27 329.28 35.69 339.92 25.57"/><line class="b" x1="320.97" y1="45.28" x2="341.58" y2="25.57"/><polyline class="b" points="322.68 45.27 329.28 38.91 342.74 26.05"/><line class="b" x1="324.34" y1="45.28" x2="343.65" y2="26.82"/><polyline class="b" points="326.06 45.27 329.28 42.14 344.56 27.54"/><polyline class="b" points="327.72 45.27 329.28 43.73 345.46 28.27"/><line class="b" x1="329.28" y1="45.37" x2="346.37" y2="29.04"/><line class="b" x1="330.9" y1="45.42" x2="347.28" y2="29.76"/><line class="b" x1="332.56" y1="45.47" x2="348.19" y2="30.53"/><line class="b" x1="334.22" y1="45.47" x2="349.09" y2="31.25"/><line class="b" x1="335.89" y1="45.52" x2="350" y2="32.02"/><line class="b" x1="337.55" y1="45.52" x2="350.91" y2="32.75"/><line class="b" x1="339.21" y1="45.52" x2="351.82" y2="33.47"/><line class="b" x1="340.88" y1="45.56" x2="352.72" y2="34.24"/><line class="b" x1="342.54" y1="45.56" x2="353.63" y2="34.96"/><line class="b" x1="344.2" y1="45.61" x2="354.54" y2="35.73"/><line class="b" x1="345.82" y1="45.66" x2="355.45" y2="36.46"/><line class="b" x1="347.48" y1="45.66" x2="356.35" y2="37.23"/><line class="b" x1="349.14" y1="45.71" x2="357.26" y2="37.95"/><line class="b" x1="350.81" y1="45.71" x2="358.17" y2="38.72"/><line class="b" x1="352.47" y1="45.76" x2="359.07" y2="39.44"/><line class="b" x1="354.13" y1="45.76" x2="359.98" y2="40.17"/><line class="b" x1="355.75" y1="45.81" x2="360.89" y2="40.94"/><line class="b" x1="357.41" y1="45.85" x2="361.8" y2="41.66"/><line class="b" x1="359.07" y1="45.85" x2="362.65" y2="42.43"/><line class="b" x1="360.74" y1="45.9" x2="363.56" y2="43.16"/><line class="b" x1="362.4" y1="45.9" x2="364.47" y2="43.93"/><line class="b" x1="364.07" y1="45.95" x2="365.38" y2="44.65"/><line class="b" x1="365.68" y1="45.95" x2="366.28" y2="45.42"/><polyline class="b" points="187.28 36.02 193.79 38.1 202.36 42.48 215.11 42.24 245.41 42.72 277.21 43.73 311.34 45.18"/><line class="b" x1="317.99" y1="45.18" x2="350.35" y2="45.71"/><path class="a" d="M367,46l25,.43c59.75.41,119.45,1.94,179.2,2.7l37.71.39"/><line class="a" x1="73.46" y1="121.16" x2="73.46" y2="39.01"/><line class="a" x1="144.44" y1="121.16" x2="144.44" y2="35.3"/><line class="a" x1="136.72" y1="121.16" x2="136.72" y2="29.76"/><line class="a" x1="128.26" y1="121.16" x2="128.26" y2="27.79"/><line class="a" x1="106.88" y1="121.16" x2="106.88" y2="33.71"/><polyline class="a" points="73.46 39.01 87.78 37.18 106.88 33.71 128.26 27.79 136.72 29.76"/><polyline class="b" points="136.72 29.76 144.44 37.95 144.74 37.95"/><polyline class="b" points="155.68 37.81 160.92 37.57 161.78 35.16"/><polyline class="c" points="165.31 25.52 167.02 24.99 172.06 26.2 176.34 31.11"/><polyline class="a" points="105.02 129.07 105.02 128.82 105.27 128.39 105.52 128.15 105.98 127.91 106.93 127.91 107.39 128.15 107.64 128.39 107.84 128.82 107.84 129.26 107.64 129.74 107.14 130.41 104.82 132.63 108.09 132.63"/><polyline class="a" points="126.59 127.91 129.21 127.91 127.8 129.74 128.51 129.74 128.96 129.93 129.21 130.17 129.41 130.85 129.41 131.28 129.21 131.96 128.71 132.44 128 132.63 127.3 132.63 126.59 132.44 126.39 132.2 126.14 131.76"/><polyline class="a" points="136.82 127.91 134.51 131.09 138.03 131.09"/><line class="a" x1="136.83" y1="127.91" x2="136.83" y2="132.63"/><polyline class="a" points="145.14 127.91 142.82 127.91 142.57 129.93 142.82 129.74 143.53 129.5 144.24 129.5 144.94 129.74 145.4 130.17 145.65 130.85 145.65 131.28 145.4 131.96 144.94 132.44 144.24 132.63 143.53 132.63 142.82 132.44 142.57 132.2 142.32 131.76"/><polyline class="a" points="387.91 128.82 388.36 128.58 389.07 127.91 389.07 132.63"/><polyline class="a" points="392.39 127.91 394.96 127.91 393.55 129.74 394.26 129.74 394.71 129.93 394.96 130.17 395.22 130.85 395.22 131.28 394.96 131.96 394.51 132.44 393.81 132.63 393.1 132.63 392.39 132.44 392.14 132.2 391.89 131.76"/><polyline class="a" points="461.91 128.82 462.36 128.58 463.07 127.91 463.07 132.63"/><polyline class="a" points="468.26 127.91 465.89 131.09 469.42 131.09"/><line class="a" x1="468.26" y1="127.91" x2="468.26" y2="132.63"/><polyline class="a" points="537.67 128.82 538.12 128.58 538.83 127.91 538.83 132.63"/><polyline class="a" points="544.48 127.91 542.11 127.91 541.9 129.93 542.11 129.74 542.81 129.5 543.52 129.5 544.22 129.74 544.73 130.17 544.93 130.85 544.93 131.28 544.73 131.96 544.22 132.44 543.52 132.63 542.81 132.63 542.11 132.44 541.9 132.2 541.65 131.76"/><polyline class="a" points="604.81 128.82 605.27 128.58 605.97 127.91 605.97 132.63"/><polyline class="a" points="611.87 128.58 611.62 128.15 610.91 127.91 610.46 127.91 609.75 128.15 609.25 128.82 609.05 129.93 609.05 131.09 609.25 131.96 609.75 132.44 610.46 132.63 610.66 132.63 611.37 132.44 611.87 131.96 612.07 131.28 612.07 131.09 611.87 130.41 611.37 129.93 610.66 129.74 610.46 129.74 609.75 129.93 609.25 130.41 609.05 131.09"/><polyline class="a" points="113.44 145.3 113.44 145.16 113.64 144.77 113.84 144.63 114.19 144.44 114.9 144.44 115.25 144.63 115.45 144.77 115.65 145.16 115.65 145.5 115.45 145.83 115.1 146.36 113.28 148.1 115.81 148.1"/><polygon class="a" points="117.27 147.76 117.06 147.91 117.27 148.1 117.47 147.91 117.27 147.76"/><polyline class="a" points="118.88 145.3 118.88 145.16 119.08 144.77 119.28 144.63 119.64 144.44 120.34 144.44 120.69 144.63 120.9 144.77 121.1 145.16 121.1 145.5 120.9 145.83 120.54 146.36 118.73 148.1 121.25 148.1"/><polyline class="a" points="426.77 148.1 428.59 144.44 426.02 144.44"/><polygon class="a" points="430.05 147.76 429.85 147.91 430.05 148.1 430.2 147.91 430.05 147.76"/><polygon class="a" points="432.37 144.44 431.86 144.63 431.66 144.97 431.66 145.3 431.86 145.64 432.22 145.83 432.92 146.03 433.48 146.17 433.83 146.51 434.03 146.89 434.03 147.38 433.83 147.76 433.68 147.91 433.12 148.1 432.37 148.1 431.86 147.91 431.66 147.76 431.46 147.38 431.46 146.89 431.66 146.51 432.01 146.17 432.57 146.03 433.27 145.83 433.68 145.64 433.83 145.3 433.83 144.97 433.68 144.63 433.12 144.44 432.37 144.44"/><polyline class="a" points="502.03 148.1 503.85 144.44 501.33 144.44"/><polygon class="a" points="505.31 147.76 505.16 147.91 505.31 148.1 505.51 147.91 505.31 147.76"/><polyline class="a" points="509.14 145.64 508.94 146.17 508.58 146.51 508.03 146.7 507.83 146.7 507.32 146.51 506.92 146.17 506.77 145.64 506.77 145.5 506.92 144.97 507.32 144.63 507.83 144.44 508.03 144.44 508.58 144.63 508.94 144.97 509.14 145.64 509.14 146.51 508.94 147.38 508.58 147.91 508.03 148.1 507.68 148.1 507.12 147.91 506.92 147.57"/><polyline class="a" points="572.96 148.1 574.77 144.44 572.25 144.44"/><polygon class="a" points="576.23 147.76 576.03 147.91 576.23 148.1 576.38 147.91 576.23 147.76"/><polyline class="a" points="578.2 145.16 578.6 144.97 579.11 144.44 579.11 148.1"/><polyline class="a" points="104.11 168.38 104.11 166.55 106.13 167.56 106.13 167.08 106.38 166.75 106.63 166.55 107.39 166.41 107.89 166.41 108.65 166.55 109.1 166.89 109.35 167.42 109.35 167.9 109.1 168.38 108.9 168.58 108.39 168.72"/><polygon class="a" points="108.9 165.06 109.1 165.25 109.35 165.06 109.1 164.91 108.9 165.06"/><path class="a" d="M104.11,161.73v1.64l2.27.19-.25-.19c-1.67-2.86,5.12-2.51,2.77.19l-.5.14"/><path class="a" d="M125.48,166.75v1.64l2.22.19-.25-.19c-1.73-2.94,5.31-2.39,2.77.19l-.5.14"/><polygon class="a" points="130.22 165.06 130.47 165.25 130.73 165.06 130.47 164.91 130.22 165.06"/><polygon class="a" points="125.48 162.89 125.74 163.37 126.24 163.56 126.74 163.56 127.2 163.37 127.45 163.08 127.7 162.41 127.95 161.88 128.46 161.54 128.96 161.4 129.72 161.4 130.22 161.54 130.47 161.73 130.73 162.22 130.73 162.89 130.47 163.37 130.22 163.56 129.72 163.71 128.96 163.71 128.46 163.56 127.95 163.23 127.7 162.75 127.45 162.07 127.2 161.73 126.74 161.54 126.24 161.54 125.74 161.73 125.48 162.22 125.48 162.89"/><polyline class="a" points="134.71 166.65 134.2 166.79 133.95 167.32 133.95 167.66 134.2 168.14 134.96 168.48 136.17 168.67 137.43 168.67 138.44 168.48 138.94 168.14 139.19 167.66 139.19 167.47 138.94 166.99 138.44 166.65 137.68 166.5 137.43 166.5 136.67 166.65 136.17 166.99 135.97 167.47 135.97 167.66 136.17 168.14 136.67 168.48 137.43 168.67"/><polygon class="a" points="138.69 165.16 138.94 165.3 139.19 165.16 138.94 164.96 138.69 165.16"/><polyline class="a" points="134.71 161.64 134.2 161.83 133.95 162.31 133.95 162.65 134.2 163.13 134.96 163.47 136.17 163.66 137.43 163.66 138.44 163.47 138.94 163.13 139.19 162.65 139.19 162.46 138.94 161.97 138.44 161.64 137.68 161.49 137.43 161.49 136.67 161.64 136.17 161.97 135.97 162.46 135.97 162.65 136.17 163.13 136.67 163.47 137.43 163.66"/><polyline class="a" points="147.06 168.05 141.82 166.41 141.82 168.72"/><polygon class="a" points="146.55 165.06 146.81 165.25 147.06 165.06 146.81 164.91 146.55 165.06"/><path class="a" d="M141.82,161.73v1.64l2.27.19-.25-.19c-1.73-3,5.25-2.37,2.72.19l-.5.14"/><polyline class="a" points="389.22 170.17 389.22 168.34 391.23 169.3 391.23 168.82 391.49 168.48 391.74 168.34 392.5 168.14 393 168.14 393.7 168.34 394.21 168.67 394.46 169.15 394.46 169.64 394.21 170.17 393.96 170.31 393.5 170.5"/><polyline class="a" points="389.22 166.79 389.22 164.96 391.23 165.97 391.23 165.49 391.49 165.16 391.74 164.96 392.5 164.82 393 164.82 393.7 164.96 394.21 165.3 394.46 165.83 394.46 166.31 394.21 166.79 393.96 166.99 393.5 167.13"/><polygon class="a" points="393.96 163.47 394.21 163.66 394.46 163.47 394.21 163.32 393.96 163.47"/><polyline class="a" points="389.22 160.48 392.75 162.12 392.75 159.66"/><line class="a" x1="389.22" y1="160.48" x2="394.46" y2="160.48"/><polyline class="a" points="463.37 168.72 466.85 170.41 466.85 167.9"/><line class="a" x1="463.37" y1="168.72" x2="468.61" y2="168.72"/><polyline class="a" points="464.33 166.55 464.07 166.22 463.37 165.73 468.61 165.73"/><polygon class="a" points="468.11 163.37 468.36 163.56 468.61 163.37 468.36 163.23 468.11 163.37"/><polyline class="a" points="464.58 161.88 464.33 161.88 463.82 161.73 463.62 161.54 463.37 161.2 463.37 160.58 463.62 160.24 463.82 160.05 464.33 159.9 464.83 159.9 465.33 160.05 466.09 160.38 468.61 162.07 468.61 159.71"/><polyline class="a" points="538.98 168.72 542.46 170.41 542.46 167.9"/><line class="a" x1="538.98" y1="168.72" x2="544.22" y2="168.72"/><polyline class="a" points="540.74 164.91 541.5 165.06 541.95 165.4 542.21 165.88 542.21 166.07 541.95 166.55 541.5 166.89 540.74 167.08 540.49 167.08 539.74 166.89 539.23 166.55 538.98 166.07 538.98 165.88 539.23 165.4 539.74 165.06 540.74 164.91 541.95 164.91 543.21 165.06 543.97 165.4 544.22 165.88 544.22 166.22 543.97 166.75 543.47 166.89"/><polygon class="a" points="543.72 163.37 543.97 163.56 544.22 163.37 543.97 163.23 543.72 163.37"/><polyline class="a" points="540.24 161.88 539.99 161.88 539.48 161.73 539.23 161.54 538.98 161.2 538.98 160.58 539.23 160.24 539.48 160.05 539.99 159.9 540.49 159.9 541 160.05 541.7 160.38 544.22 162.07 544.22 159.71"/><path class="a" d="M606.12,168.38v1.69l2.27.19-.25-.19c-1.71-3,5.24-2.4,2.72.19l-.5.14"/><polyline class="a" points="607.38 166.89 607.13 166.89 606.63 166.75 606.38 166.55 606.12 166.22 606.12 165.59 606.38 165.25 606.63 165.06 607.13 164.91 607.64 164.91 608.14 165.06 608.9 165.4 611.37 167.08 611.37 164.72"/><polygon class="a" points="610.86 163.37 611.11 163.56 611.37 163.37 611.11 163.23 610.86 163.37"/><polyline class="a" points="607.38 161.88 607.13 161.88 606.63 161.73 606.38 161.54 606.12 161.2 606.12 160.58 606.38 160.24 606.63 160.05 607.13 159.9 607.64 159.9 608.14 160.05 608.9 160.38 611.37 162.07 611.37 159.71"/><polyline class="a" points="105.27 194.79 105.02 194.45 104.26 193.97 109.5 193.97"/><polygon class="a" points="104.26 191.13 104.51 191.61 105.02 191.8 105.52 191.8 106.03 191.61 106.28 191.27 106.53 190.6 106.78 190.11 107.29 189.78 107.79 189.63 108.5 189.63 109 189.78 109.25 189.92 109.5 190.45 109.5 191.13 109.25 191.61 109 191.8 108.5 191.94 107.79 191.94 107.29 191.8 106.78 191.46 106.53 190.93 106.28 190.26 106.03 189.92 105.52 189.78 105.02 189.78 104.51 189.92 104.26 190.45 104.26 191.13"/><polyline class="a" points="106.03 186.45 106.78 186.6 107.29 186.93 107.54 187.42 107.54 187.61 107.29 188.09 106.78 188.43 106.03 188.62 105.77 188.62 105.02 188.43 104.51 188.09 104.26 187.61 104.26 187.42 104.51 186.93 105.02 186.6 106.03 186.45 107.29 186.45 108.5 186.6 109.25 186.93 109.5 187.42 109.5 187.75 109.25 188.28 108.75 188.43"/><polygon class="a" points="109 184.91 109.25 185.1 109.5 184.91 109.25 184.77 109 184.91"/><polyline class="a" points="105.02 181.44 104.51 181.59 104.26 182.12 104.26 182.45 104.51 182.94 105.27 183.27 106.53 183.42 107.79 183.42 108.75 183.27 109.25 182.94 109.5 182.45 109.5 182.26 109.25 181.78 108.75 181.44 108.04 181.25 107.79 181.25 107.03 181.44 106.53 181.78 106.28 182.26 106.28 182.45 106.53 182.94 107.03 183.27 107.79 183.42"/><polyline class="a" points="105.27 179.75 105.02 179.42 104.26 178.94 109.5 178.94"/><polyline class="a" points="126.59 195.27 126.34 194.93 125.64 194.45 130.88 194.45"/><polyline class="a" points="127.35 190.26 128.1 190.45 128.61 190.79 128.86 191.27 128.86 191.46 128.61 191.94 128.1 192.28 127.35 192.43 127.1 192.43 126.34 192.28 125.89 191.94 125.64 191.46 125.64 191.27 125.89 190.79 126.34 190.45 127.35 190.26 128.61 190.26 129.87 190.45 130.63 190.79 130.88 191.27 130.88 191.61 130.63 192.09 130.12 192.28"/><polygon class="a" points="125.64 188.09 125.89 188.62 126.59 188.96 127.85 189.1 128.61 189.1 129.87 188.96 130.63 188.62 130.88 188.09 130.88 187.75 130.63 187.27 129.87 186.93 128.61 186.79 127.85 186.79 126.59 186.93 125.89 187.27 125.64 187.75 125.64 188.09"/><polygon class="a" points="130.37 185.44 130.63 185.59 130.88 185.44 130.63 185.25 130.37 185.44"/><polyline class="a" points="126.84 183.95 126.59 183.95 126.14 183.75 125.89 183.61 125.64 183.27 125.64 182.6 125.89 182.26 126.14 182.12 126.59 181.92 127.1 181.92 127.6 182.12 128.36 182.45 130.88 184.09 130.88 181.78"/><polyline class="a" points="126.34 178.6 125.89 178.74 125.64 179.27 125.64 179.61 125.89 180.09 126.59 180.43 127.85 180.57 129.11 180.57 130.12 180.43 130.63 180.09 130.88 179.61 130.88 179.42 130.63 178.94 130.12 178.6 129.37 178.41 129.11 178.41 128.36 178.6 127.85 178.94 127.6 179.42 127.6 179.61 127.85 180.09 128.36 180.43 129.11 180.57"/><polyline class="a" points="135.11 195.37 134.86 195.03 134.1 194.55 139.35 194.55"/><polyline class="a" points="135.82 190.35 136.57 190.55 137.08 190.84 137.33 191.37 137.33 191.51 137.08 192.04 136.57 192.38 135.82 192.52 135.62 192.52 134.86 192.38 134.36 192.04 134.1 191.51 134.1 191.37 134.36 190.84 134.86 190.55 135.82 190.35 137.08 190.35 138.34 190.55 139.09 190.84 139.35 191.37 139.35 191.7 139.09 192.19 138.59 192.38"/><polygon class="a" points="134.1 188.19 134.36 188.67 135.11 189.01 136.32 189.2 137.08 189.2 138.34 189.01 139.09 188.67 139.35 188.19 139.35 187.85 139.09 187.37 138.34 187.03 137.08 186.84 136.32 186.84 135.11 187.03 134.36 187.37 134.1 187.85 134.1 188.19"/><polygon class="a" points="138.84 185.54 139.09 185.68 139.35 185.54 139.09 185.34 138.84 185.54"/><polygon class="a" points="134.1 183.18 134.36 183.71 135.11 184 136.32 184.19 137.08 184.19 138.34 184 139.09 183.71 139.35 183.18 139.35 182.84 139.09 182.36 138.34 182.02 137.08 181.83 136.32 181.83 135.11 182.02 134.36 182.36 134.1 182.84 134.1 183.18"/><polyline class="a" points="134.1 179.18 137.58 180.86 137.58 178.36"/><line class="a" x1="134.1" y1="179.18" x2="139.35" y2="179.18"/><polyline class="a" points="142.82 195.27 142.57 194.93 141.82 194.45 147.06 194.45"/><polygon class="a" points="141.82 191.61 142.07 192.09 142.57 192.28 143.08 192.28 143.58 192.09 143.78 191.8 144.03 191.13 144.29 190.6 144.79 190.26 145.29 190.11 146.05 190.11 146.55 190.26 146.81 190.45 147.06 190.93 147.06 191.61 146.81 192.09 146.55 192.28 146.05 192.43 145.29 192.43 144.79 192.28 144.29 191.94 144.03 191.46 143.78 190.79 143.58 190.45 143.08 190.26 142.57 190.26 142.07 190.45 141.82 190.93 141.82 191.61"/><polyline class="a" points="143.58 186.93 144.29 187.13 144.79 187.42 145.04 187.95 145.04 188.09 144.79 188.62 144.29 188.96 143.58 189.1 143.33 189.1 142.57 188.96 142.07 188.62 141.82 188.09 141.82 187.95 142.07 187.42 142.57 187.13 143.58 186.93 144.79 186.93 146.05 187.13 146.81 187.42 147.06 187.95 147.06 188.28 146.81 188.76 146.3 188.96"/><polygon class="a" points="146.55 185.44 146.81 185.59 147.06 185.44 146.81 185.25 146.55 185.44"/><polyline class="a" points="141.82 182.45 145.29 184.09 145.29 181.59"/><line class="a" x1="141.82" y1="182.45" x2="147.06" y2="182.45"/><polyline class="a" points="141.82 180.43 141.82 178.6 143.78 179.61 143.78 179.08 144.03 178.74 144.29 178.6 145.04 178.41 145.55 178.41 146.3 178.6 146.81 178.94 147.06 179.42 147.06 179.95 146.81 180.43 146.55 180.57 146.05 180.77"/><polyline class="a" points="390.38 194.79 390.13 194.45 389.37 193.97 394.61 193.97"/><polygon class="a" points="389.37 191.13 389.62 191.61 390.13 191.8 390.63 191.8 391.13 191.61 391.39 191.27 391.64 190.6 391.89 190.11 392.39 189.78 392.9 189.63 393.6 189.63 394.11 189.78 394.36 189.92 394.61 190.45 394.61 191.13 394.36 191.61 394.11 191.8 393.6 191.94 392.9 191.94 392.39 191.8 391.89 191.46 391.64 190.93 391.39 190.26 391.13 189.92 390.63 189.78 390.13 189.78 389.62 189.92 389.37 190.45 389.37 191.13"/><path class="a" d="M389.37,187.75l.25.53.5.14h.5l.5-.14.25-.34.25-.67.25-.48.5-.34.5-.19h.71l.5.19.25.14.25.53v.63l-.25.53c-3.62,1.65-1.86-2.82-4.74-1.69l-.25.53Z"/><polygon class="a" points="394.11 184.91 394.36 185.1 394.61 184.91 394.36 184.77 394.11 184.91"/><polyline class="a" points="390.63 183.42 390.38 183.42 389.87 183.27 389.62 183.08 389.37 182.74 389.37 182.12 389.62 181.78 389.87 181.59 390.38 181.44 390.88 181.44 391.39 181.59 392.14 181.92 394.61 183.61 394.61 181.25"/><polyline class="a" points="390.38 179.75 390.13 179.42 389.37 178.94 394.61 178.94"/><polyline class="a" points="464.48 194.79 464.23 194.45 463.47 193.97 468.71 193.97"/><polygon class="a" points="463.47 191.13 463.72 191.61 464.23 191.8 464.73 191.8 465.23 191.61 465.49 191.27 465.74 190.6 465.99 190.11 466.49 189.78 467 189.63 467.75 189.63 468.21 189.78 468.46 189.92 468.71 190.45 468.71 191.13 468.46 191.61 468.21 191.8 467.75 191.94 467 191.94 466.49 191.8 465.99 191.46 465.74 190.93 465.49 190.26 465.23 189.92 464.73 189.78 464.23 189.78 463.72 189.92 463.47 190.45 463.47 191.13"/><path class="a" d="M463.47,187.75l.25.53.5.14h.5l.5-.14.25-.34.25-.67.25-.48.5-.34.5-.19h.76l.45.19.25.14.25.53v.63l-.25.53c-3.62,1.66-1.86-2.83-4.74-1.69l-.25.53Z"/><polygon class="a" points="468.21 184.91 468.46 185.1 468.71 184.91 468.46 184.77 468.21 184.91"/><polyline class="a" points="464.48 183.08 464.23 182.74 463.47 182.26 468.71 182.26"/><polyline class="a" points="464.48 179.75 464.23 179.42 463.47 178.94 468.71 178.94"/><polyline class="a" points="540.14 195.27 539.89 194.93 539.13 194.45 544.37 194.45"/><polygon class="a" points="539.13 191.61 539.38 192.09 539.89 192.28 540.39 192.28 540.9 192.09 541.1 191.8 541.35 191.13 541.6 190.6 542.11 190.26 542.61 190.11 543.37 190.11 543.87 190.26 544.12 190.45 544.37 190.93 544.37 191.61 544.12 192.09 543.87 192.28 543.37 192.43 542.61 192.43 542.11 192.28 541.6 191.94 541.35 191.46 541.1 190.79 540.9 190.45 540.39 190.26 539.89 190.26 539.38 190.45 539.13 190.93 539.13 191.61"/><polyline class="a" points="544.37 188.43 539.13 186.79 539.13 189.1"/><polygon class="a" points="543.87 185.44 544.12 185.59 544.37 185.44 544.12 185.25 543.87 185.44"/><polyline class="a" points="540.9 181.92 541.6 182.12 542.11 182.45 542.36 182.94 542.36 183.08 542.11 183.61 541.6 183.95 540.9 184.09 540.64 184.09 539.89 183.95 539.38 183.61 539.13 183.08 539.13 182.94 539.38 182.45 539.89 182.12 540.9 181.92 542.11 181.92 543.37 182.12 544.12 182.45 544.37 182.94 544.37 183.27 544.12 183.75 543.62 183.95"/><polyline class="a" points="544.37 180.09 539.13 178.41 539.13 180.77"/><polyline class="a" points="607.28 195.27 607.03 194.93 606.27 194.45 611.52 194.45"/><polygon class="a" points="606.27 191.61 606.53 192.09 607.03 192.28 607.53 192.28 608.04 192.09 608.29 191.8 608.54 191.13 608.79 190.6 609.3 190.26 609.75 190.11 610.51 190.11 611.01 190.26 611.26 190.45 611.52 190.93 611.52 191.61 611.26 192.09 611.01 192.28 610.51 192.43 609.75 192.43 609.3 192.28 608.79 191.94 608.54 191.46 608.29 190.79 608.04 190.45 607.53 190.26 607.03 190.26 606.53 190.45 606.27 190.93 606.27 191.61"/><polyline class="a" points="611.52 188.43 606.27 186.79 606.27 189.1"/><polygon class="a" points="611.01 185.44 611.26 185.59 611.52 185.44 611.26 185.25 611.01 185.44"/><polygon class="a" points="606.27 183.27 606.53 183.75 607.03 183.95 607.53 183.95 608.04 183.75 608.29 183.42 608.54 182.74 608.79 182.26 609.3 181.92 609.75 181.78 610.51 181.78 611.01 181.92 611.26 182.12 611.52 182.6 611.52 183.27 611.26 183.75 611.01 183.95 610.51 184.09 609.75 184.09 609.3 183.95 608.79 183.61 608.54 183.08 608.29 182.45 608.04 182.12 607.53 181.92 607.03 181.92 606.53 182.12 606.27 182.6 606.27 183.27"/><polyline class="a" points="611.52 180.09 606.27 178.41 606.27 180.77"/><line class="a" x1="144.44" y1="35.3" x2="317.99" y2="33.71"/><polyline class="a" points="342.14 25.57 329.28 25.57 317.99 33.71"/><line class="a" x1="342.14" y1="25.57" x2="367.04" y2="46"/><polygon class="a" points="11.61 163.37 11.61 159.71 12.87 159.71 13.43 159.85 13.83 160.24 13.98 160.58 14.18 161.11 14.18 161.97 13.98 162.5 13.83 162.84 13.43 163.18 12.87 163.37 11.61 163.37"/><line class="a" x1="15.44" y1="159.71" x2="15.44" y2="163.37"/><path class="a" d="M19.28,160.24l-.35-.39-.55-.14c-1-.16-2.42.38-1.26,1.4l.35.14,1.11.39.35.14.15.19.2.34v.53l-.35.34-.55.19h-.71l-.55-.19-.4-.34"/><line class="a" x1="21.29" y1="159.71" x2="21.29" y2="163.37"/><line class="a" x1="20.03" y1="159.71" x2="22.55" y2="159.71"/><polygon class="a" points="23.66 163.03 23.46 163.18 23.66 163.37 23.86 163.18 23.66 163.03"/><polyline class="a" points="29.16 163.37 29.16 159.71 30.77 159.71 31.32 159.85 31.52 160.05 31.68 160.38 31.68 160.91 31.52 161.25 31.32 161.44 30.77 161.64 29.16 161.64"/><polyline class="a" points="32.94 163.37 32.94 159.71 34.6 159.71 35.15 159.85 35.35 160.05 35.51 160.38 35.51 160.72 35.35 161.11 35.15 161.25 34.6 161.44 32.94 161.44"/><line class="a" x1="34.25" y1="161.45" x2="35.51" y2="163.37"/><path class="a" d="M37.72,159.71l-.4.14-.35.39c-.67.89-.52,2.76.76,3.13h.71l.35-.19a2.15,2.15,0,0,0,0-3.32l-.35-.14Z"/><path class="a" d="M43.37,160.58l-.2-.34-.35-.39c-1.24-.59-1.91.21-2.22,1.25V162l.2.53a1.33,1.33,0,0,0,2.37.34l.2-.34V162h-.91"/><polyline class="a" points="44.63 163.37 44.63 159.71 46.29 159.71 46.85 159.85 47 160.05 47.2 160.38 47.2 160.72 47 161.11 46.85 161.25 46.29 161.44 44.63 161.44"/><line class="a" x1="45.89" y1="161.45" x2="47.2" y2="163.37"/><polyline class="a" points="48.46 163.37 48.46 159.71 50.83 159.71"/><line class="a" x1="48.46" y1="161.45" x2="49.92" y2="161.45"/><line class="a" x1="48.46" y1="163.37" x2="50.83" y2="163.37"/><path class="a" d="M54.31,160.24l-.35-.39-.55-.14c-1.05-.15-2.34.28-1.31,1.4l.4.14,1.06.39.4.14.15.19.2.34v.53l-.35.34-.55.19h-.76l-.55-.19-.35-.34"/><polyline class="a" points="57.94 160.24 57.59 159.85 57.03 159.71 56.33 159.71 55.77 159.85 55.42 160.24 55.42 160.58 55.57 160.91 55.77 161.11 56.12 161.25 57.23 161.64 57.59 161.78 57.79 161.97 57.94 162.31 57.94 162.84 57.59 163.18 57.03 163.37 56.33 163.37 55.77 163.18 55.42 162.84"/><line class="a" x1="59.25" y1="159.71" x2="59.25" y2="163.37"/><polyline class="a" points="60.16 159.71 61.62 163.37 63.08 159.71"/><polyline class="a" points="63.43 163.37 64.89 159.71 66.36 163.37"/><line class="a" x1="63.99" y1="162.12" x2="65.8" y2="162.12"/><path class="a" d="M12.87,165.78l-.35.39a3.64,3.64,0,0,0,0,4.87l.35.34"/><line class="a" x1="14.18" y1="167.71" x2="14.18" y2="170.17"/><polyline class="a" points="14.18 168.43 14.74 167.9 15.09 167.71 15.65 167.71 16 167.9 16.2 168.43 16.2 170.17"/><polyline class="a" points="16.2 168.43 16.7 167.9 17.11 167.71 17.66 167.71 18.02 167.9 18.17 168.43 18.17 170.17"/><path class="a" d="M19.48,165.78l.35.39a3.64,3.64,0,0,1,0,4.87l-.35.34"/><polygon class="a" points="11.61 144.29 11.61 140.63 12.87 140.63 13.43 140.82 13.83 141.16 13.98 141.5 14.18 142.03 14.18 142.9 13.98 143.43 13.83 143.76 13.43 144.1 12.87 144.29 11.61 144.29"/><line class="a" x1="15.44" y1="140.63" x2="15.44" y2="144.29"/><path class="a" d="M19.28,141.16l-.35-.34-.55-.19c-.93-.15-2.44.42-1.26,1.4l.35.19,1.11.34.35.14.15.19.2.34v.53l-.35.34-.55.19h-.71l-.55-.19-.4-.34"/><line class="a" x1="21.29" y1="140.63" x2="21.29" y2="144.29"/><line class="a" x1="20.03" y1="140.63" x2="22.55" y2="140.63"/><polygon class="a" points="23.66 143.96 23.46 144.1 23.66 144.29 23.86 144.1 23.66 143.96"/><polyline class="a" points="29.16 144.29 29.16 140.63 30.77 140.63 31.32 140.82 31.52 140.97 31.68 141.35 31.68 141.84 31.52 142.22 31.32 142.37 30.77 142.56 29.16 142.56"/><polyline class="a" points="32.43 144.29 33.89 140.63 35.36 144.29"/><line class="a" x1="32.93" y1="143.09" x2="34.8" y2="143.09"/><polyline class="a" points="36.26 144.29 36.26 140.63 37.87 140.63 38.43 140.82 38.63 140.97 38.78 141.35 38.78 141.69 38.63 142.03 38.43 142.22 37.87 142.36 36.26 142.36"/><line class="a" x1="37.52" y1="142.36" x2="38.78" y2="144.29"/><polyline class="a" points="39.89 144.29 42.46 140.63 39.89 140.63"/><line class="a" x1="39.89" y1="144.29" x2="42.46" y2="144.29"/><line class="a" x1="43.72" y1="140.63" x2="43.72" y2="144.29"/><polyline class="a" points="44.63 144.29 46.09 140.63 47.55 144.29"/><line class="a" x1="45.18" y1="143.09" x2="47" y2="143.09"/><polyline class="a" points="48.46 140.63 48.46 144.29 50.68 144.29"/><polyline class="a" points="51.59 144.29 51.59 140.63 53.95 140.63"/><line class="a" x1="51.59" y1="142.36" x2="53.05" y2="142.36"/><line class="a" x1="51.59" y1="144.29" x2="53.95" y2="144.29"/><path class="a" d="M12.87,146.75l-.35.34a3.64,3.64,0,0,0,0,4.87l.35.34"/><line class="a" x1="14.18" y1="148.63" x2="14.18" y2="151.09"/><polyline class="a" points="14.18 149.35 14.74 148.82 15.09 148.63 15.64 148.63 16 148.82 16.2 149.35 16.2 151.09"/><polyline class="a" points="16.2 149.35 16.7 148.82 17.11 148.63 17.66 148.63 18.01 148.82 18.16 149.35 18.16 151.09"/><path class="a" d="M19.48,146.75l.35.34a3.64,3.64,0,0,1,0,4.87l-.35.34"/><polyline class="a" points="11.61 129.02 13.07 132.68 14.54 129.02"/><polyline class="a" points="15.44 132.68 15.44 129.02 17.81 129.02"/><line class="a" x1="15.44" y1="130.75" x2="16.9" y2="130.75"/><line class="a" x1="15.44" y1="132.68" x2="17.81" y2="132.68"/><polyline class="a" points="18.92 132.68 18.92 129.02 20.53 129.02 21.09 129.16 21.29 129.35 21.49 129.69 21.49 130.03 21.29 130.41 21.09 130.56 20.53 130.75 18.92 130.75"/><line class="a" x1="20.18" y1="130.75" x2="21.49" y2="132.68"/><line class="a" x1="23.46" y1="129.02" x2="23.46" y2="132.68"/><line class="a" x1="22.2" y1="129.02" x2="24.77" y2="129.02"/><line class="a" x1="25.68" y1="129.02" x2="25.68" y2="132.68"/><path class="a" d="M29.66,129.89l-.15-.39-.35-.34-.4-.14H28l-.35.14-.4.34-.15.39-.2.53v.87c.25,1,1.12,1.88,2.22,1.2l.35-.34.15-.39"/><line class="a" x1="30.97" y1="129.02" x2="30.97" y2="132.68"/><path class="a" d="M12.72,181.68l-.35.14-.4.39a2.11,2.11,0,0,0,.76,3.13h.71l.4-.19a2.24,2.24,0,0,0,0-3.32l-.4-.14Z"/><line class="a" x1="13.28" y1="184.62" x2="14.33" y2="185.68"/><polyline class="a" points="15.8 181.68 15.8 184.28 16 184.81 16.35 185.15 16.91 185.34 17.26 185.34 17.81 185.15 18.16 184.81 18.37 184.28 18.37 181.68"/><path class="a" d="M20.74,181.68l-.35.14-.35.39a2.06,2.06,0,0,0,.71,3.13h.76l.35-.19.35-.34.2-.34.15-.53v-.87l-.15-.53-.2-.34-.35-.39-.35-.14Z"/><line class="a" x1="24.57" y1="181.68" x2="24.57" y2="185.34"/><line class="a" x1="23.31" y1="181.68" x2="25.83" y2="181.68"/><polyline class="a" points="26.23 185.34 27.69 181.68 29.15 185.34"/><line class="a" x1="26.73" y1="184.09" x2="28.6" y2="184.09"/><line class="a" x1="34.6" y1="181.68" x2="34.6" y2="185.34"/><line class="a" x1="33.34" y1="181.68" x2="35.86" y2="181.68"/><polyline class="a" points="36.77 185.34 36.77 181.68 39.19 181.68"/><line class="a" x1="36.77" y1="183.42" x2="38.23" y2="183.42"/><line class="a" x1="36.77" y1="185.34" x2="39.19" y2="185.34"/><polyline class="a" points="40.24 185.34 40.24 181.68 41.91 181.68 42.46 181.83 42.61 182.02 42.81 182.36 42.81 182.69 42.61 183.08 42.46 183.22 41.91 183.42 40.24 183.42"/><line class="a" x1="41.55" y1="183.42" x2="42.81" y2="185.34"/><polyline class="a" points="44.08 185.34 44.08 181.68 45.74 181.68 46.29 181.83 46.44 182.02 46.65 182.36 46.65 182.69 46.44 183.08 46.29 183.22 45.74 183.42 44.08 183.42"/><line class="a" x1="45.39" y1="183.42" x2="46.65" y2="185.34"/><polyline class="a" points="47.91 185.34 47.91 181.68 50.27 181.68"/><line class="a" x1="47.91" y1="183.42" x2="49.37" y2="183.42"/><line class="a" x1="47.91" y1="185.34" x2="50.28" y2="185.34"/><polyline class="a" points="51.38 185.34 51.38 181.68 53.95 185.34 53.95 181.68"/><path class="a" d="M56.32,181.68l-.4.14-.35.39c-.64,1-.52,2.68.76,3.13H57l.35-.19a2.15,2.15,0,0,0,0-3.32l-.35-.14Z"/><path class="a" d="M12.87,187.75l-.35.39a3.65,3.65,0,0,0,0,4.87l.35.34"/><line class="a" x1="14.18" y1="189.68" x2="14.18" y2="192.14"/><polyline class="a" points="14.18 190.4 14.74 189.87 15.09 189.68 15.64 189.68 16 189.87 16.2 190.4 16.2 192.14"/><polyline class="a" points="16.2 190.4 16.7 189.87 17.11 189.68 17.66 189.68 18.01 189.87 18.16 190.4 18.16 192.14"/><polyline class="a" points="25.32 190.21 25.12 189.87 24.57 189.68 24.01 189.68 23.46 189.87 23.31 190.21 23.46 190.55 23.86 190.74 24.77 190.93 25.12 191.08 25.32 191.41 25.32 191.61 25.12 191.94 24.57 192.14 24.01 192.14 23.46 191.94 23.31 191.61"/><polygon class="a" points="26.73 191.8 26.58 191.94 26.73 192.14 26.94 191.94 26.73 191.8"/><line class="a" x1="28.4" y1="188.48" x2="28.4" y2="192.14"/><polygon class="a" points="30.06 191.8 29.86 191.94 30.06 192.14 30.21 191.94 30.06 191.8"/><line class="a" x1="31.67" y1="189.68" x2="31.67" y2="192.14"/><polyline class="a" points="31.68 190.4 32.23 189.87 32.58 189.68 33.14 189.68 33.49 189.87 33.69 190.4 33.69 192.14"/><polyline class="a" points="33.69 190.4 34.25 189.87 34.6 189.68 35.15 189.68 35.51 189.87 35.71 190.4 35.71 192.14"/><polygon class="a" points="37.32 191.8 37.17 191.94 37.32 192.14 37.52 191.94 37.32 191.8"/><path class="a" d="M38.78,187.75l.4.39a3.65,3.65,0,0,1,0,4.87l-.4.34"/><line class="c" x1="184.26" y1="35.06" x2="184.26" y2="35.01"/><line class="b" x1="350.35" y1="45.71" x2="367.04" y2="46"/><line class="a" x1="329.28" y1="25.57" x2="329.28" y2="121.16"/><line class="a" x1="342.14" y1="25.57" x2="342.14" y2="121.16"/><line class="a" x1="367.04" y1="46" x2="367.04" y2="121.16"/><polyline class="a" points="174.28 128.58 174.08 128.15 173.37 127.91 172.87 127.91 172.16 128.15 171.71 128.82 171.46 129.93 171.46 131.09 171.71 131.96 172.16 132.44 172.87 132.63 173.12 132.63 173.82 132.44 174.28 131.96 174.53 131.28 174.53 131.09 174.28 130.41 173.82 129.93 173.12 129.74 172.87 129.74 172.16 129.93 171.71 130.41 171.46 131.09"/><polyline class="a" points="221.51 132.63 223.83 127.91 220.55 127.91"/><path class="a" d="M273.48,127.91l-.71.24-.2.43v.48l.2.43.5.24.91.19.71.24.5.43.2.48v.67l-.2.43-.25.24-.71.19h-1l-.71-.19c-2.3-3.4,4.07-1.69,2.37-4.29l-.71-.24Z"/><polyline class="a" points="319.55 129.5 319.3 130.17 318.85 130.61 318.14 130.85 317.89 130.85 317.19 130.61 316.73 130.17 316.48 129.5 316.48 129.26 316.73 128.58 317.19 128.15 317.89 127.91 318.14 127.91 318.85 128.15 319.3 128.58 319.55 129.5 319.55 130.61 319.3 131.76 318.85 132.44 318.14 132.63 317.64 132.63 316.93 132.44 316.73 131.96"/><polyline class="a" points="325.65 128.82 326.11 128.58 326.81 127.91 326.81 132.63"/><polygon class="a" points="331.05 127.91 330.34 128.15 329.89 128.82 329.64 129.93 329.64 130.61 329.89 131.76 330.34 132.44 331.05 132.63 331.55 132.63 332.26 132.44 332.71 131.76 332.91 130.61 332.91 129.93 332.71 128.82 332.26 128.15 331.55 127.91 331.05 127.91"/><polyline class="a" points="339.21 128.82 339.67 128.58 340.37 127.91 340.37 132.63"/><polyline class="a" points="343.9 128.82 344.4 128.58 345.11 127.91 345.11 132.63"/><polyline class="a" points="363.36 128.82 363.86 128.58 364.57 127.91 364.57 132.63"/><polyline class="a" points="367.59 129.07 367.59 128.82 367.85 128.39 368.1 128.15 368.55 127.91 369.51 127.91 369.96 128.15 370.21 128.39 370.42 128.82 370.42 129.26 370.21 129.74 369.71 130.41 367.39 132.63 370.67 132.63"/><line class="a" x1="173.32" y1="139.38" x2="173.32" y2="153.98"/><line class="a" x1="222.22" y1="139.38" x2="222.22" y2="153.98"/><line class="a" x1="273.99" y1="139.38" x2="273.99" y2="153.98"/><line class="a" x1="317.99" y1="139.38" x2="317.99" y2="153.98"/><line class="a" x1="329.28" y1="139.38" x2="329.28" y2="153.98"/><line class="a" x1="342.14" y1="139.38" x2="342.14" y2="153.98"/><line class="a" x1="367.04" y1="139.38" x2="367.04" y2="153.98"/><polygon class="a" points="130.42 149.21 130.63 149.74 131.18 150.07 132.09 150.27 132.64 150.27 133.55 150.07 134.05 149.74 134.25 149.21 134.25 148.87 134.05 148.34 133.55 148 132.64 147.81 132.09 147.81 131.18 148 130.63 148.34 130.42 148.87 130.42 149.21"/><polygon class="a" points="133.9 146.46 134.05 146.6 134.25 146.46 134.05 146.27 133.9 146.46"/><polyline class="a" points="131.73 142.8 132.24 142.99 132.64 143.33 132.79 143.86 132.79 144 132.64 144.53 132.24 144.87 131.73 145.06 131.53 145.06 130.98 144.87 130.63 144.53 130.42 144 130.42 143.86 130.63 143.33 130.98 142.99 131.73 142.8 132.64 142.8 133.55 142.99 134.05 143.33 134.25 143.86 134.25 144.19 134.05 144.72 133.7 144.87"/><polygon class="a" points="138.34 149.35 138.54 149.88 139.09 150.22 140 150.41 140.56 150.41 141.46 150.22 141.97 149.88 142.17 149.35 142.17 149.01 141.97 148.48 141.46 148.15 140.56 147.95 140 147.95 139.09 148.15 138.54 148.48 138.34 149.01 138.34 149.35"/><polygon class="a" points="141.82 146.6 141.97 146.75 142.17 146.6 141.97 146.41 141.82 146.6"/><polygon class="a" points="138.34 144.34 138.54 144.87 138.89 145.01 139.25 145.01 139.65 144.87 139.8 144.49 140 143.81 140.15 143.28 140.56 142.94 140.91 142.75 141.46 142.75 141.82 142.94 141.97 143.13 142.17 143.62 142.17 144.34 141.97 144.87 141.82 145.01 141.46 145.21 140.91 145.21 140.56 145.01 140.15 144.68 140 144.15 139.8 143.47 139.65 143.13 139.25 142.94 138.89 142.94 138.54 143.13 138.34 143.62 138.34 144.34"/><polyline class="a" points="157.34 144.44 159.36 144.44 158.25 145.83 158.8 145.83 159.16 146.03 159.36 146.17 159.51 146.7 159.51 147.04 159.36 147.57 158.95 147.91 158.45 148.1 157.9 148.1 157.34 147.91 157.14 147.76 156.99 147.38"/><path class="a" d="M245.91,144.44h-1.81l-.2,1.59.2-.19c3.14-1.23,2.65,3.64-.2,1.93l-.2-.39"/><polygon class="a" points="247.72 147.76 247.52 147.91 247.72 148.1 247.87 147.91 247.72 147.76"/><polyline class="a" points="250.95 144.44 249.13 146.89 251.86 146.89"/><line class="a" x1="250.95" y1="144.44" x2="250.95" y2="148.1"/><path class="a" d="M195.55,144.44h-1.81l-.2,1.59.2-.19c3.17-1.2,2.7,3.62-.2,1.93l-.15-.39"/><polygon class="a" points="197.37 147.76 197.16 147.91 197.37 148.1 197.57 147.91 197.37 147.76"/><polyline class="a" points="199.38 145.16 199.74 144.97 200.29 144.44 200.29 148.1"/><polyline class="a" points="294.6 144.44 292.79 146.89 295.51 146.89"/><line class="a" x1="294.6" y1="144.44" x2="294.6" y2="148.1"/><polygon class="a" points="296.77 147.76 296.62 147.91 296.77 148.1 296.97 147.91 296.77 147.76"/><polyline class="a" points="300.6 144.97 300.4 144.63 299.85 144.44 299.49 144.44 298.94 144.63 298.58 145.16 298.43 146.03 298.43 146.89 298.58 147.57 298.94 147.91 299.49 148.1 299.69 148.1 300.25 147.91 300.6 147.57 300.75 147.04 300.75 146.89 300.6 146.36 300.25 146.03 299.69 145.83 299.49 145.83 298.94 146.03 298.58 146.36 298.43 146.89"/><polyline class="a" points="320.11 145.16 320.46 144.97 321.02 144.44 321.02 148.1"/><polygon class="a" points="323.54 147.76 323.38 147.91 323.54 148.1 323.74 147.91 323.54 147.76"/><polyline class="a" points="325.2 145.3 325.2 145.16 325.35 144.77 325.55 144.63 325.91 144.44 326.61 144.44 327.01 144.63 327.17 144.77 327.37 145.16 327.37 145.5 327.17 145.83 326.81 146.36 325 148.1 327.52 148.1"/><polyline class="a" points="331.55 145.16 331.9 144.97 332.46 144.44 332.46 148.1"/><polygon class="a" points="334.98 147.76 334.83 147.91 334.98 148.1 335.18 147.91 334.98 147.76"/><polyline class="a" points="338.26 144.44 336.44 146.89 339.16 146.89"/><line class="a" x1="338.26" y1="144.44" x2="338.26" y2="148.1"/><polyline class="a" points="350.61 145.3 350.61 145.16 350.81 144.77 350.96 144.63 351.31 144.44 352.07 144.44 352.42 144.63 352.62 144.77 352.77 145.16 352.77 145.5 352.62 145.83 352.22 146.36 350.4 148.1 352.98 148.1"/><polygon class="a" points="354.44 147.76 354.24 147.91 354.44 148.1 354.59 147.91 354.44 147.76"/><polyline class="a" points="358.22 144.97 358.07 144.63 357.51 144.44 357.16 144.44 356.6 144.63 356.25 145.16 356.05 146.03 356.05 146.89 356.25 147.57 356.6 147.91 357.16 148.1 357.31 148.1 357.86 147.91 358.22 147.57 358.42 147.04 358.42 146.89 358.22 146.36 357.86 146.03 357.31 145.83 357.16 145.83 356.6 146.03 356.25 146.36 356.05 146.89"/><polyline class="a" points="375.2 145.3 375.2 145.16 375.41 144.77 375.61 144.63 375.96 144.44 376.67 144.44 377.02 144.63 377.22 144.77 377.37 145.16 377.37 145.5 377.22 145.83 376.87 146.36 375.05 148.1 377.57 148.1"/><polygon class="a" points="379.04 147.76 378.83 147.91 379.04 148.1 379.19 147.91 379.04 147.76"/><polyline class="a" points="382.82 144.97 382.67 144.63 382.11 144.44 381.76 144.44 381.2 144.63 380.85 145.16 380.65 146.03 380.65 146.89 380.85 147.57 381.2 147.91 381.76 148.1 381.91 148.1 382.46 147.91 382.82 147.57 383.02 147.04 383.02 146.89 382.82 146.36 382.46 146.03 381.91 145.83 381.76 145.83 381.2 146.03 380.85 146.36 380.65 146.89"/><polyline class="a" points="171.66 195.27 171.46 194.93 170.7 194.45 175.94 194.45"/><polygon class="a" points="170.7 191.61 170.95 192.09 171.46 192.28 171.91 192.28 172.41 192.09 172.66 191.8 172.92 191.13 173.17 190.6 173.67 190.26 174.18 190.11 174.93 190.11 175.44 190.26 175.69 190.45 175.94 190.93 175.94 191.61 175.69 192.09 175.44 192.28 174.93 192.43 174.18 192.43 173.67 192.28 173.17 191.94 172.92 191.46 172.66 190.79 172.41 190.45 171.91 190.26 171.46 190.26 170.95 190.45 170.7 190.93 170.7 191.61"/><polyline class="a" points="172.41 186.93 173.17 187.13 173.67 187.42 173.93 187.95 173.93 188.09 173.67 188.62 173.17 188.96 172.41 189.1 172.16 189.1 171.46 188.96 170.95 188.62 170.7 188.09 170.7 187.95 170.95 187.42 171.46 187.13 172.41 186.93 173.67 186.93 174.93 187.13 175.69 187.42 175.94 187.95 175.94 188.28 175.69 188.76 175.19 188.96"/><polygon class="a" points="175.44 185.44 175.69 185.59 175.94 185.44 175.69 185.25 175.44 185.44"/><polyline class="a" points="170.7 182.45 174.18 184.09 174.18 181.59"/><line class="a" x1="170.7" y1="182.45" x2="175.94" y2="182.45"/><polyline class="a" points="171.46 178.6 170.95 178.74 170.7 179.27 170.7 179.61 170.95 180.09 171.66 180.43 172.92 180.57 174.18 180.57 175.19 180.43 175.69 180.09 175.94 179.61 175.94 179.42 175.69 178.94 175.19 178.6 174.43 178.41 174.18 178.41 173.42 178.6 172.92 178.94 172.67 179.42 172.67 179.61 172.92 180.09 173.42 180.43 174.18 180.57"/><polyline class="a" points="220.55 194.79 220.3 194.45 219.59 193.97 224.84 193.97"/><polygon class="a" points="219.59 191.13 219.85 191.61 220.3 191.8 220.81 191.8 221.31 191.61 221.56 191.27 221.81 190.6 222.06 190.11 222.57 189.78 223.07 189.63 223.83 189.63 224.33 189.78 224.59 189.92 224.84 190.45 224.84 191.13 224.59 191.61 224.33 191.8 223.83 191.94 223.07 191.94 222.57 191.8 222.06 191.46 221.81 190.93 221.56 190.26 221.31 189.92 220.81 189.78 220.3 189.78 219.85 189.92 219.59 190.45 219.59 191.13"/><polyline class="a" points="221.31 186.45 222.06 186.6 222.57 186.93 222.82 187.42 222.82 187.61 222.57 188.09 222.06 188.43 221.31 188.62 221.06 188.62 220.3 188.43 219.85 188.09 219.59 187.61 219.59 187.42 219.85 186.93 220.3 186.6 221.31 186.45 222.57 186.45 223.83 186.6 224.59 186.93 224.84 187.42 224.84 187.75 224.59 188.28 224.08 188.43"/><polygon class="a" points="224.33 184.91 224.59 185.1 224.84 184.91 224.59 184.77 224.33 184.91"/><polyline class="a" points="219.59 181.59 219.59 183.27 221.81 183.42 221.56 183.27 221.31 182.74 221.31 182.26 221.56 181.78 222.06 181.44 222.82 181.25 223.32 181.25 224.08 181.44 224.59 181.78 224.84 182.26 224.84 182.74 224.59 183.27 224.33 183.42 223.83 183.61"/><polyline class="a" points="220.55 179.75 220.3 179.42 219.59 178.94 224.84 178.94"/><polyline class="a" points="272.37 194.93 272.12 194.59 271.36 194.11 276.61 194.11"/><polygon class="a" points="271.36 191.27 271.62 191.75 272.12 191.94 272.63 191.94 273.08 191.75 273.33 191.46 273.58 190.79 273.83 190.26 274.34 189.92 274.84 189.78 275.6 189.78 276.1 189.92 276.36 190.11 276.61 190.6 276.61 191.27 276.36 191.75 276.1 191.94 275.6 192.09 274.84 192.09 274.34 191.94 273.83 191.61 273.58 191.13 273.33 190.45 273.08 190.11 272.63 189.92 272.12 189.92 271.62 190.11 271.36 190.6 271.36 191.27"/><polyline class="a" points="273.08 186.6 273.83 186.79 274.34 187.08 274.59 187.61 274.59 187.75 274.34 188.28 273.83 188.62 273.08 188.76 272.88 188.76 272.12 188.62 271.62 188.28 271.36 187.75 271.36 187.61 271.62 187.08 272.12 186.79 273.08 186.6 274.34 186.6 275.6 186.79 276.36 187.08 276.61 187.61 276.61 187.95 276.36 188.43 275.85 188.62"/><polygon class="a" points="276.1 185.1 276.36 185.25 276.61 185.1 276.36 184.91 276.1 185.1"/><path class="a" d="M271.36,181.78v1.64l2.22.19-.25-.19c-1.74-2.94,5.33-2.39,2.77.19l-.5.14"/><polyline class="a" points="272.12 178.26 271.62 178.41 271.36 178.94 271.36 179.27 271.62 179.75 272.37 180.09 273.58 180.24 274.84 180.24 275.85 180.09 276.36 179.75 276.61 179.27 276.61 179.08 276.36 178.6 275.85 178.26 275.1 178.07 274.84 178.07 274.09 178.26 273.58 178.6 273.33 179.08 273.33 179.27 273.58 179.75 274.09 180.09 274.84 180.24"/><polyline class="a" points="316.38 194.79 316.13 194.45 315.37 193.92 320.61 193.92"/><path class="a" d="M315.37,191.08l.25.53.5.14h.5l.5-.14.25-.34.25-.67.25-.48.5-.34.5-.19h.76l.45.19.25.14.25.53v.63l-.25.53c-3.62,1.66-1.86-2.83-4.74-1.69l-.25.53Z"/><polyline class="a" points="317.13 186.4 317.89 186.6 318.39 186.93 318.65 187.42 318.65 187.61 318.39 188.09 317.89 188.43 317.13 188.57 316.88 188.57 316.13 188.43 315.62 188.09 315.37 187.61 315.37 187.42 315.62 186.93 316.13 186.6 317.13 186.4 318.39 186.4 319.65 186.6 320.36 186.93 320.61 187.42 320.61 187.75 320.36 188.24 319.91 188.43"/><polygon class="a" points="320.11 184.91 320.36 185.1 320.61 184.91 320.36 184.77 320.11 184.91"/><polyline class="a" points="316.13 181.39 315.62 181.59 315.37 182.07 315.37 182.41 315.62 182.94 316.38 183.27 317.64 183.42 318.9 183.42 319.91 183.27 320.36 182.94 320.61 182.41 320.61 182.26 320.36 181.73 319.91 181.39 319.15 181.25 318.9 181.25 318.14 181.39 317.64 181.73 317.39 182.26 317.39 182.41 317.64 182.94 318.14 183.27 318.9 183.42"/><polyline class="a" points="316.38 179.75 316.13 179.42 315.37 178.89 320.61 178.89"/><polyline class="a" points="327.67 195.27 327.42 194.93 326.66 194.45 331.9 194.45"/><polyline class="a" points="328.43 190.26 329.18 190.45 329.69 190.79 329.94 191.27 329.94 191.46 329.69 191.94 329.18 192.28 328.43 192.43 328.17 192.43 327.42 192.28 326.91 191.94 326.66 191.46 326.66 191.27 326.91 190.79 327.42 190.45 328.43 190.26 329.69 190.26 330.9 190.45 331.65 190.79 331.9 191.27 331.9 191.61 331.65 192.09 331.15 192.28"/><polygon class="a" points="326.66 188.09 326.91 188.62 327.67 188.96 328.93 189.1 329.69 189.1 330.9 188.96 331.65 188.62 331.9 188.09 331.9 187.75 331.65 187.27 330.9 186.93 329.69 186.79 328.93 186.79 327.67 186.93 326.91 187.27 326.66 187.75 326.66 188.09"/><polygon class="a" points="331.4 185.44 331.65 185.59 331.9 185.44 331.65 185.25 331.4 185.44"/><path class="a" d="M326.66,183.75v-1.83l2,1v-.48c.87-1.6,4.73-.24,2.72,1.49l-.5.14"/><polyline class="a" points="326.66 178.74 326.66 180.43 328.93 180.57 328.68 180.43 328.43 179.95 328.43 179.42 328.68 178.94 329.18 178.6 329.94 178.41 330.39 178.41 331.15 178.6 331.65 178.94 331.9 179.42 331.9 179.95 331.65 180.43 331.4 180.57 330.9 180.77"/><polyline class="a" points="340.52 195.27 340.27 194.93 339.52 194.45 344.76 194.45"/><polyline class="a" points="341.28 190.26 342.04 190.45 342.54 190.79 342.79 191.27 342.79 191.46 342.54 191.94 342.04 192.28 341.28 192.43 341.03 192.43 340.27 192.28 339.77 191.94 339.52 191.46 339.52 191.27 339.77 190.79 340.27 190.45 341.28 190.26 342.54 190.26 343.8 190.45 344.51 190.79 344.76 191.27 344.76 191.61 344.51 192.09 344.05 192.28"/><polygon class="a" points="339.52 188.09 339.77 188.62 340.52 188.96 341.78 189.1 342.54 189.1 343.8 188.96 344.51 188.62 344.76 188.09 344.76 187.75 344.51 187.27 343.8 186.93 342.54 186.79 341.78 186.79 340.52 186.93 339.77 187.27 339.52 187.75 339.52 188.09"/><polygon class="a" points="344.25 185.44 344.51 185.59 344.76 185.44 344.51 185.25 344.25 185.44"/><path class="a" d="M339.52,183.75v-1.83l2,1v-.48c.84-1.57,4.73-.33,2.72,1.49l-.45.14"/><polyline class="a" points="339.52 178.74 339.52 180.43 341.78 180.57 341.53 180.43 341.28 179.95 341.28 179.42 341.53 178.94 342.04 178.6 342.79 178.41 343.3 178.41 344.05 178.6 344.51 178.94 344.76 179.42 344.76 179.95 344.51 180.43 344.25 180.57 343.8 180.77"/><polyline class="a" points="365.38 194.93 365.17 194.59 364.42 194.06 369.66 194.06"/><path class="a" d="M364.42,191.27l.25.48.5.14h.45l.5-.14.25-.34.25-.67.25-.48.5-.34.5-.19h.76l.5.19.25.14.25.53v.67l-.25.48c-3.77,1.64-1.87-2.8-4.74-1.69l-.25.53Z"/><path class="a" d="M364.42,187.9l.25.53.5.14h.45l.5-.14.25-.34.25-.67.25-.48.5-.34.5-.19h.76l.5.19.25.14.25.48v.67l-.25.53c-3.7,1.65-1.91-2.8-4.74-1.69l-.25.48Z"/><polygon class="a" points="369.16 185.06 369.41 185.25 369.66 185.06 369.41 184.91 369.16 185.06"/><polyline class="a" points="365.63 183.56 365.38 183.56 364.92 183.42 364.67 183.22 364.42 182.89 364.42 182.26 364.67 181.92 364.92 181.73 365.38 181.59 365.88 181.59 366.38 181.73 367.14 182.07 369.66 183.75 369.66 181.39"/><polyline class="a" points="365.17 178.21 364.67 178.41 364.42 178.89 364.42 179.22 364.67 179.75 365.38 180.04 366.64 180.24 367.9 180.24 368.9 180.04 369.41 179.75 369.66 179.22 369.66 179.08 369.41 178.55 368.9 178.21 368.15 178.07 367.9 178.07 367.14 178.21 366.64 178.55 366.38 179.08 366.38 179.22 366.64 179.75 367.14 180.04 367.9 180.24"/><polyline class="a" points="171.66 170.17 171.46 169.83 170.7 169.3 175.94 169.3"/><polygon class="a" points="170.7 166.31 170.95 166.79 171.66 167.13 172.92 167.32 173.67 167.32 174.93 167.13 175.69 166.79 175.94 166.31 175.94 165.97 175.69 165.49 174.93 165.16 173.67 164.96 172.92 164.96 171.66 165.16 170.95 165.49 170.7 165.97 170.7 166.31"/><polygon class="a" points="175.44 163.66 175.69 163.81 175.94 163.66 175.69 163.47 175.44 163.66"/><polyline class="a" points="170.7 160.29 170.7 161.97 172.92 162.12 172.67 161.97 172.41 161.49 172.41 160.96 172.67 160.48 173.17 160.14 173.93 159.95 174.43 159.95 175.19 160.14 175.69 160.48 175.94 160.96 175.94 161.49 175.69 161.97 175.44 162.12 174.93 162.31"/><polyline class="a" points="220.55 170.17 220.3 169.83 219.6 169.3 224.84 169.3"/><polyline class="a" points="219.6 165.3 219.6 166.99 221.81 167.13 221.56 166.99 221.31 166.5 221.31 165.97 221.56 165.49 222.07 165.16 222.82 164.96 223.33 164.96 224.08 165.16 224.59 165.49 224.84 165.97 224.84 166.5 224.59 166.99 224.33 167.13 223.83 167.32"/><polygon class="a" points="224.33 163.66 224.59 163.81 224.84 163.66 224.59 163.47 224.33 163.66"/><polyline class="a" points="220.3 160.14 219.85 160.29 219.6 160.82 219.6 161.16 219.85 161.64 220.55 161.97 221.81 162.12 223.07 162.12 224.08 161.97 224.59 161.64 224.84 161.16 224.84 160.96 224.59 160.48 224.08 160.14 223.33 159.95 223.07 159.95 222.32 160.14 221.81 160.48 221.56 160.96 221.56 161.16 221.81 161.64 222.32 161.97 223.07 162.12"/><polyline class="a" points="272.63 167.23 272.37 167.23 271.87 167.08 271.62 166.89 271.37 166.55 271.37 165.88 271.62 165.59 271.87 165.4 272.37 165.25 272.88 165.25 273.33 165.4 274.09 165.73 276.61 167.42 276.61 165.06"/><polyline class="a" points="272.37 163.56 272.12 163.23 271.37 162.75 276.61 162.75"/><polyline class="a" points="316.63 170.26 316.38 170.26 315.88 170.07 315.62 169.93 315.42 169.59 315.42 168.91 315.62 168.58 315.88 168.38 316.38 168.24 316.88 168.24 317.39 168.38 318.14 168.72 320.61 170.41 320.61 168.05"/><polyline class="a" points="315.42 165.06 315.42 166.75 317.64 166.89 317.39 166.75 317.13 166.22 317.13 165.73 317.39 165.25 317.89 164.91 318.65 164.72 319.15 164.72 319.91 164.91 320.41 165.25 320.61 165.73 320.61 166.22 320.41 166.75 320.16 166.89 319.65 167.08"/><polygon class="a" points="320.16 163.37 320.41 163.56 320.61 163.37 320.41 163.23 320.16 163.37"/><polyline class="a" points="320.61 161.4 315.42 159.71 315.42 162.07"/><polyline class="a" points="327.92 170.17 327.67 170.17 327.17 169.97 326.91 169.83 326.66 169.49 326.66 168.82 326.91 168.48 327.17 168.34 327.67 168.14 328.17 168.14 328.68 168.34 329.44 168.67 331.9 170.31 331.9 168"/><polyline class="a" points="327.42 164.82 326.91 164.96 326.66 165.49 326.66 165.83 326.91 166.31 327.67 166.65 328.93 166.79 330.19 166.79 331.15 166.65 331.65 166.31 331.9 165.83 331.9 165.64 331.65 165.16 331.15 164.82 330.44 164.63 330.19 164.63 329.44 164.82 328.93 165.16 328.68 165.64 328.68 165.83 328.93 166.31 329.44 166.65 330.19 166.79"/><polygon class="a" points="331.4 163.32 331.65 163.47 331.9 163.32 331.65 163.13 331.4 163.32"/><polyline class="a" points="328.43 159.81 329.18 159.95 329.69 160.29 329.94 160.82 329.94 160.96 329.69 161.49 329.18 161.83 328.43 161.97 328.17 161.97 327.42 161.83 326.91 161.49 326.66 160.96 326.66 160.82 326.91 160.29 327.42 159.95 328.43 159.81 329.69 159.81 330.9 159.95 331.65 160.29 331.9 160.82 331.9 161.16 331.65 161.64 331.15 161.83"/><polyline class="a" points="340.78 170.26 340.52 170.26 340.02 170.07 339.77 169.93 339.52 169.59 339.52 168.91 339.77 168.58 340.02 168.38 340.52 168.24 341.03 168.24 341.53 168.38 342.29 168.72 344.76 170.41 344.76 168.05"/><polygon class="a" points="339.52 166.22 339.77 166.75 340.27 166.89 340.78 166.89 341.28 166.75 341.53 166.41 341.78 165.73 342.04 165.25 342.54 164.91 343.05 164.72 343.8 164.72 344.31 164.91 344.51 165.06 344.76 165.59 344.76 166.22 344.51 166.75 344.31 166.89 343.8 167.08 343.05 167.08 342.54 166.89 342.04 166.55 341.78 166.07 341.53 165.4 341.28 165.06 340.78 164.91 340.27 164.91 339.77 165.06 339.52 165.59 339.52 166.22"/><polygon class="a" points="344.31 163.37 344.51 163.56 344.76 163.37 344.51 163.23 344.31 163.37"/><polyline class="a" points="340.78 161.88 340.52 161.88 340.02 161.73 339.77 161.54 339.52 161.2 339.52 160.58 339.77 160.24 340.02 160.05 340.52 159.9 341.03 159.9 341.53 160.05 342.29 160.38 344.76 162.07 344.76 159.71"/><polyline class="a" points="364.42 170.07 364.42 168.24 366.38 169.25 366.38 168.72 366.64 168.38 366.89 168.24 367.64 168.05 368.15 168.05 368.9 168.24 369.41 168.58 369.66 169.06 369.66 169.59 369.41 170.07 369.16 170.26 368.65 170.41"/><polygon class="a" points="364.42 166.07 364.67 166.55 365.43 166.89 366.64 167.08 367.39 167.08 368.65 166.89 369.41 166.55 369.66 166.07 369.66 165.73 369.41 165.25 368.65 164.91 367.39 164.72 366.64 164.72 365.43 164.91 364.67 165.25 364.42 165.73 364.42 166.07"/><polygon class="a" points="369.16 163.37 369.41 163.56 369.66 163.37 369.41 163.23 369.16 163.37"/><path class="a" d="M364.42,161.2l.25.53.5.14h.45l.5-.14.25-.34.25-.67.25-.48.5-.34.5-.19h.76l.5.19.25.14.25.53v.63l-.25.53c-3.7,1.65-1.91-2.8-4.74-1.69l-.25.53Z"/><polyline class="a" points="162.38 7.4 162.13 7.16 161.73 7.02 161.17 7.02 160.77 7.16 160.52 7.4 160.52 7.64 160.62 7.93 160.77 8.03 161.02 8.17 161.83 8.41 162.13 8.56 162.23 8.66 162.38 8.95 162.38 9.33 162.13 9.57 161.73 9.72 161.17 9.72 160.77 9.57 160.52 9.33"/><path class="a" d="M165.2,7.64l-.15-.24-.25-.24L164.5,7H164l-.25.14-.3.24-.1.24-.15.39v.63c.16.78.81,1.42,1.61.92l.25-.24L165.2,9"/><polyline class="a" points="165.71 9.72 166.82 7.02 167.88 9.72"/><line class="a" x1="166.11" y1="8.8" x2="167.47" y2="8.8"/><polyline class="a" points="168.13 7.02 169.19 9.72 170.3 7.02"/><path class="a" d="M171.61,7l-.25.14-.25.24a1.54,1.54,0,0,0,.5,2.31h.55l.25-.14a1.54,1.54,0,0,0,0-2.41L172.16,7Z"/><line class="a" x1="173.87" y1="8.17" x2="176.29" y2="8.17"/><line class="a" x1="173.87" y1="8.95" x2="176.29" y2="8.95"/><polyline class="a" points="177.66 7.55 177.91 7.4 178.31 7.02 178.31 9.72"/><polygon class="a" points="180.18 9.43 180.07 9.57 180.18 9.72 180.33 9.57 180.18 9.43"/><polyline class="a" points="182.6 7.02 181.24 8.8 183.25 8.8"/><line class="a" x1="182.6" y1="7.02" x2="182.6" y2="9.72"/><path class="a" d="M184.21,7h1.46l-.81,1h.4c1.44.71-.12,2.43-1.21,1.4l-.1-.24"/><line class="a" x1="189.55" y1="7.93" x2="189.55" y2="9.72"/><polyline class="a" points="189.55 8.41 189.96 8.03 190.21 7.93 190.61 7.93 190.91 8.03 191.01 8.41 191.01 9.72"/><polyline class="a" points="191.01 8.41 191.42 8.03 191.72 7.93 192.12 7.93 192.38 8.03 192.48 8.41 192.48 9.72"/><line class="a" x1="195.05" y1="7.93" x2="195.05" y2="10.58"/><line class="a" x1="253.17" y1="20.32" x2="254.12" y2="21.71"/><line class="a" x1="255.03" y1="19.02" x2="255.03" y2="21.71"/><polyline class="a" points="256.14 21.71 256.14 19.02 257.3 19.02 257.7 19.16 257.86 19.3 258.01 19.55 258.01 19.93 257.86 20.17 257.7 20.32 257.3 20.41 256.14 20.41"/><polygon class="a" points="259.62 19.02 259.32 19.16 259.06 19.4 258.91 19.64 258.81 20.03 258.81 20.7 258.91 21.09 259.06 21.33 259.32 21.57 259.62 21.71 260.12 21.71 260.43 21.57 260.68 21.33 260.83 21.09 260.93 20.7 260.93 20.03 260.83 19.64 260.68 19.4 260.43 19.16 260.12 19.02 259.62 19.02"/><polyline class="a" points="261.89 21.71 261.89 19.02 263.1 19.02 263.5 19.16 263.6 19.3 263.75 19.55 263.75 19.79 263.6 20.03 263.5 20.17 263.1 20.32 261.89 20.32"/><line class="a" x1="262.79" y1="20.32" x2="263.75" y2="21.71"/><line class="a" x1="265.21" y1="19.02" x2="265.21" y2="21.71"/><line class="a" x1="264.31" y1="19.02" x2="266.17" y2="19.02"/><path class="a" d="M267.48,19l-.25.14-.25.24a1.52,1.52,0,0,0,.5,2.31H268l.25-.14a1.54,1.54,0,0,0,0-2.41L268,19Z"/><line class="a" x1="269.75" y1="20.17" x2="272.17" y2="20.17"/><line class="a" x1="269.75" y1="20.94" x2="272.17" y2="20.94"/><polyline class="a" points="273.23 19.64 273.23 19.55 273.38 19.3 273.53 19.16 273.78 19.02 274.34 19.02 274.59 19.16 274.74 19.3 274.84 19.55 274.84 19.79 274.74 20.03 274.44 20.41 273.13 21.71 274.99 21.71"/><polygon class="a" points="276.61 19.02 276.2 19.16 275.95 19.55 275.8 20.17 275.8 20.56 275.95 21.18 276.2 21.57 276.61 21.71 276.86 21.71 277.26 21.57 277.51 21.18 277.67 20.56 277.67 20.17 277.51 19.55 277.26 19.16 276.86 19.02 276.61 19.02"/><polygon class="a" points="278.72 21.47 278.62 21.57 278.72 21.71 278.88 21.57 278.72 21.47"/><polygon class="a" points="280.49 19.02 280.08 19.16 279.93 19.4 279.93 19.64 280.08 19.93 280.34 20.03 280.89 20.17 281.29 20.32 281.55 20.56 281.7 20.8 281.7 21.18 281.55 21.47 281.39 21.57 281.04 21.71 280.49 21.71 280.08 21.57 279.93 21.47 279.83 21.18 279.83 20.8 279.93 20.56 280.24 20.32 280.64 20.17 281.14 20.03 281.39 19.93 281.55 19.64 281.55 19.4 281.39 19.16 281.04 19.02 280.49 19.02"/><polyline class="a" points="282.61 19.64 282.61 19.55 282.76 19.3 282.91 19.16 283.16 19.02 283.71 19.02 283.97 19.16 284.12 19.3 284.22 19.55 284.22 19.79 284.12 20.03 283.81 20.41 282.5 21.71 284.37 21.71"/><line class="a" x1="288.1" y1="19.93" x2="288.1" y2="21.71"/><polyline class="a" points="288.1 20.41 288.5 20.03 288.81 19.93 289.16 19.93 289.46 20.03 289.56 20.41 289.56 21.71"/><polyline class="a" points="289.56 20.41 289.96 20.03 290.27 19.93 290.67 19.93 290.92 20.03 291.07 20.41 291.07 21.71"/><line class="a" x1="293.59" y1="19.93" x2="293.59" y2="22.63"/><path class="a" d="M293.59,20.32l-.25-.29c-1.84-.77-1.73,2.4,0,1.54l.25-.24"/><polyline class="c" points="197.42 10.54 157.95 10.54 169.54 25.62"/><polyline class="b" points="248.23 22.68 296.87 22.68 297.98 33.86"/><line class="a" x1="136.72" y1="29.76" x2="144.44" y2="35.3"/><polyline class="b" points="187.28 36.02 184.26 35.06 184.01 34.96"/><line class="c" x1="165.31" y1="25.52" x2="161.78" y2="35.16"/><line class="b" x1="311.34" y1="45.18" x2="317.99" y2="45.18"/><polyline class="a" points="91.61 15.35 91.61 12.66 92.82 12.66 93.22 12.8 93.32 12.95 93.47 13.19 93.47 13.43 93.32 13.72 93.22 13.81 92.82 13.96 91.61 13.96"/><line class="a" x1="92.52" y1="13.96" x2="93.47" y2="15.35"/><line class="a" x1="94.43" y1="12.66" x2="94.43" y2="15.35"/><polyline class="a" points="95.49 15.35 95.49 12.66 96.7 12.66 97.1 12.8 97.2 12.95 97.36 13.19 97.36 13.57 97.2 13.81 97.1 13.96 96.7 14.1 95.49 14.1"/><path class="a" d="M99,12.66l-.3.14-.25.24c-.43.78-.39,2,.55,2.31h.5l.3-.14L100,15l.15-.24.1-.39v-.63l-.1-.39L100,13l-.25-.24-.3-.14Z"/><polyline class="a" points="101.24 15.35 101.24 12.66 102.45 12.66 102.85 12.8 102.95 12.95 103.1 13.19 103.1 13.43 102.95 13.72 102.85 13.81 102.45 13.96 101.24 13.96"/><line class="a" x1="102.19" y1="13.96" x2="103.1" y2="15.35"/><line class="a" x1="104.56" y1="12.66" x2="104.56" y2="15.35"/><line class="a" x1="103.66" y1="12.66" x2="105.52" y2="12.66"/><path class="a" d="M106.83,12.66l-.25.14-.25.24a1.59,1.59,0,0,0,.5,2.31h.55l.25-.14a1.55,1.55,0,0,0,0-2.41l-.25-.14Z"/><line class="a" x1="109.15" y1="13.81" x2="111.52" y2="13.81"/><line class="a" x1="109.15" y1="14.58" x2="111.52" y2="14.58"/><polygon class="a" points="113.28 12.66 112.88 12.8 112.63 13.19 112.48 13.81 112.48 14.2 112.63 14.82 112.88 15.21 113.28 15.35 113.54 15.35 113.94 15.21 114.24 14.82 114.34 14.2 114.34 13.81 114.24 13.19 113.94 12.8 113.54 12.66 113.28 12.66"/><polygon class="a" points="115.4 15.11 115.3 15.21 115.4 15.35 115.55 15.21 115.4 15.11"/><path class="a" d="M118.12,12.66h-1.36l-.15,1.16.15-.1c2.32-.89,2,2.62-.15,1.4l-.1-.29"/><polyline class="a" points="119.59 13.19 119.84 13.04 120.24 12.66 120.24 15.35"/><line class="a" x1="124.78" y1="13.57" x2="124.78" y2="15.35"/><polyline class="a" points="124.78 14.1 125.18 13.72 125.48 13.57 125.89 13.57 126.14 13.72 126.29 14.1 126.29 15.35"/><polyline class="a" points="126.29 14.1 126.64 13.72 126.94 13.57 127.35 13.57 127.6 13.72 127.75 14.1 127.75 15.35"/><line class="a" x1="130.27" y1="13.57" x2="130.27" y2="16.27"/><path class="a" d="M130.27,14l-.25-.24c-1.78-.87-1.78,2.36,0,1.49l.25-.24"/><polyline class="b" points="88.28 17.09 136.32 17.09 148.67 35.25"/><polyline class="a" points="144.44 121.16 173.02 121.16 173.02 35.01"/><line class="a" x1="222.22" y1="121.16" x2="222.22" y2="34.58"/><line class="a" x1="273.99" y1="121.16" x2="273.99" y2="34.1"/><line class="a" x1="317.99" y1="121.16" x2="317.99" y2="121.12"/><line class="a" x1="317.99" y1="121.16" x2="317.99" y2="33.71"/><polyline class="a" points="202.61 30.43 202.61 27.74 203.82 27.74 204.22 27.88 204.37 27.98 204.52 28.27 204.52 28.65 204.37 28.89 204.22 29.04 203.82 29.13 202.61 29.13"/><polyline class="a" points="205.43 30.43 205.43 27.74 207.19 27.74"/><line class="a" x1="205.43" y1="29.04" x2="206.54" y2="29.04"/><line class="a" x1="205.43" y1="30.44" x2="207.19" y2="30.44"/><polyline class="a" points="208 30.43 208 27.74 209.87 30.43 209.87 27.74"/><polygon class="a" points="210.93 30.43 210.93 27.74 211.88 27.74 212.29 27.88 212.54 28.12 212.69 28.36 212.79 28.75 212.79 29.38 212.69 29.76 212.54 30.05 212.29 30.29 211.88 30.43 210.93 30.43"/><polyline class="a" points="213.75 30.43 213.75 27.74 215.46 27.74"/><line class="a" x1="213.75" y1="29.04" x2="214.81" y2="29.04"/><line class="a" x1="213.75" y1="30.44" x2="215.46" y2="30.44"/><polyline class="a" points="216.27 30.43 216.27 27.74 218.18 30.43 218.18 27.74"/><polyline class="a" points="219.09 30.43 220.96 27.74 219.09 27.74"/><line class="a" x1="219.09" y1="30.44" x2="220.96" y2="30.44"/><polyline class="a" points="221.51 30.43 222.57 27.74 223.63 30.43"/><line class="a" x1="221.91" y1="29.52" x2="223.22" y2="29.52"/><line class="a" x1="224.33" y1="28.89" x2="226.7" y2="28.89"/><line class="a" x1="224.33" y1="29.66" x2="226.7" y2="29.66"/><polyline class="a" points="228.06 28.27 228.32 28.12 228.72 27.74 228.72 30.43"/><line class="a" x1="232.75" y1="27.74" x2="230.33" y2="30.43"/><path class="a" d="M231,27.74l.3.24v.29l-.15.24-.25.14h-.25l-.3-.29v-.24l.15-.24c.59-.46.61.22,1.61.1l.4-.1.25-.14"/><polygon class="a" points="232.2 29.52 231.94 29.66 231.79 29.91 231.79 30.15 232.1 30.43 232.35 30.43 232.6 30.29 232.75 30.05 232.75 29.76 232.5 29.52 232.2 29.52"/><line class="a" x1="21.19" y1="115.62" x2="30.41" y2="115.62"/><polygon class="a" points="39.64 115.62 30.41 121.11 30.41 115.62 39.64 115.62"/><line class="a" x1="38.13" y1="116.49" x2="39.08" y2="115.62"/><line class="a" x1="30.92" y1="120.83" x2="36.36" y2="115.62"/><line class="a" x1="30.41" y1="118.71" x2="33.69" y2="115.62"/><line class="a" x1="30.41" y1="116.15" x2="30.97" y2="115.62"/><line class="a" x1="34.75" y1="118.51" x2="31.72" y2="115.62"/><line class="a" x1="33.09" y1="119.53" x2="30.41" y2="116.92"/><line class="a" x1="31.42" y1="120.49" x2="30.41" y2="119.53"/><line class="a" x1="36.41" y1="117.55" x2="34.4" y2="115.62"/><line class="a" x1="38.08" y1="116.54" x2="37.07" y2="115.62"/><line class="a" x1="21.19" y1="115.62" x2="30.41" y2="121.12"/><path class="a" d="M12.32,107.77l-.4.19-.45.39c-.71,1.13-.63,3.06.86,3.57h.81l.45-.19a2.51,2.51,0,0,0,0-3.76l-.45-.19Z"/><line class="a" x1="12.92" y1="111.14" x2="14.18" y2="112.35"/><line class="a" x1="15.85" y1="109.17" x2="15.85" y2="111.91"/><polyline class="a" points="15.85 110.32 16.05 109.74 16.45 109.36 16.85 109.17 17.51 109.17"/><polygon class="a" points="18.32 107.96 18.52 108.15 18.72 107.96 18.52 107.77 18.32 107.96"/><line class="a" x1="18.52" y1="109.36" x2="18.52" y2="111.91"/><polyline class="a" points="21.44 107.77 21.04 107.77 20.58 107.96 20.38 108.54 20.38 111.91"/><line class="a" x1="19.78" y1="109.17" x2="21.24" y2="109.17"/><polygon class="a" points="22.9 109.17 22.7 109.36 22.9 109.55 23.1 109.36 22.9 109.17"/><polygon class="a" points="22.9 111.53 22.7 111.72 22.9 111.91 23.1 111.72 22.9 111.53"/><polyline class="a" points="29.51 108.54 29.91 108.35 30.56 107.77 30.56 111.91"/><polygon class="a" points="34.09 107.77 33.44 107.96 33.24 108.35 33.24 108.78 33.44 109.17 33.89 109.36 34.7 109.55 35.3 109.74 35.76 110.13 35.96 110.56 35.96 111.14 35.76 111.53 35.55 111.72 34.9 111.91 34.09 111.91 33.44 111.72 33.24 111.53 33.03 111.14 33.03 110.56 33.24 110.13 33.69 109.74 34.3 109.55 35.1 109.36 35.55 109.17 35.76 108.78 35.76 108.35 35.55 107.96 34.9 107.77 34.09 107.77"/><polygon class="a" points="38.43 107.77 37.82 107.96 37.42 108.54 37.17 109.55 37.17 110.13 37.42 111.14 37.82 111.72 38.43 111.91 38.83 111.91 39.49 111.72 39.89 111.14 40.09 110.13 40.09 109.55 39.89 108.54 39.49 107.96 38.83 107.77 38.43 107.77"/><line class="a" x1="45.89" y1="109.17" x2="45.89" y2="111.91"/><polyline class="a" points="45.89 109.94 46.54 109.36 46.95 109.17 47.55 109.17 47.95 109.36 48.16 109.94 48.16 111.91"/><polyline class="a" points="48.16 109.94 48.81 109.36 49.22 109.17 49.82 109.17 50.27 109.36 50.48 109.94 50.48 111.91"/><polyline class="a" points="58.54 109.74 58.34 109.36 57.73 109.17 57.08 109.17 56.47 109.36 56.27 109.74 56.47 110.13 56.88 110.32 57.94 110.56 58.34 110.76 58.54 111.14 58.54 111.33 58.34 111.72 57.73 111.91 57.08 111.91 56.47 111.72 56.27 111.33"/><polygon class="a" points="60.2 111.53 60 111.72 60.2 111.91 60.41 111.72 60.2 111.53"/><line class="a" x1="62.07" y1="107.77" x2="62.07" y2="111.91"/><polygon class="a" points="63.93 111.53 63.73 111.72 63.93 111.91 64.14 111.72 63.93 111.53"/><line class="a" x1="65.8" y1="109.17" x2="65.8" y2="111.91"/><polyline class="a" points="65.8 109.94 66.4 109.36 66.86 109.17 67.46 109.17 67.87 109.36 68.07 109.94 68.07 111.91"/><polyline class="a" points="68.07 109.94 68.72 109.36 69.13 109.17 69.73 109.17 70.14 109.36 70.39 109.94 70.39 111.91"/><polygon class="a" points="72.25 111.53 72 111.72 72.25 111.91 72.45 111.72 72.25 111.53"/><line class="d" x1="126.24" y1="29.71" x2="130.27" y2="25.86"/><line class="d" x1="130.27" y1="29.71" x2="126.24" y2="25.86"/><line class="d" x1="327.27" y1="27.5" x2="331.3" y2="23.64"/><line class="d" x1="331.3" y1="27.5" x2="327.27" y2="23.64"/><line class="e" x1="142.42" y1="37.28" x2="146.45" y2="33.37"/><line class="e" x1="146.45" y1="37.28" x2="142.42" y2="33.37"/><line class="e" x1="315.98" y1="35.64" x2="320.06" y2="31.74"/><line class="e" x1="320.06" y1="35.64" x2="315.98" y2="31.74"/></svg>