<svg xmlns="http://www.w3.org/2000/svg" viewBox="0 0 657.41 204.7"><defs><style>.a,.b,.c,.d,.e{fill:none;stroke-linecap:round;stroke-linejoin:round;stroke-width:0.84px;}.a{stroke:#000;}.b{stroke:red;}.c{stroke:#ffbf00;}.d{stroke:#00b800;}.e{stroke:#00bfff;}</style></defs><title>Tavola disegno 4</title><polyline class="a" points="74.48 128.97 74.98 128.73 75.69 128.05 75.69 132.78"/><line class="a" x1="75.08" y1="139.52" x2="75.08" y2="154.12"/><line class="a" x1="9.15" y1="121.31" x2="650.59" y2="121.31"/><line class="a" x1="75.08" y1="139.52" x2="650.59" y2="139.52"/><line class="a" x1="75.08" y1="154.12" x2="650.59" y2="154.12"/><line class="a" x1="75.08" y1="175.95" x2="650.59" y2="175.95"/><polyline class="a" points="75.08 197.82 650.59 197.82 650.59 121.31"/><line class="a" x1="95.19" y1="139.52" x2="95.19" y2="154.12"/><line class="a" x1="118.58" y1="139.52" x2="118.58" y2="154.12"/><line class="a" x1="140.81" y1="139.52" x2="140.81" y2="154.12"/><line class="a" x1="161.73" y1="139.52" x2="161.73" y2="154.12"/><line class="a" x1="383.53" y1="139.52" x2="383.53" y2="154.12"/><line class="a" x1="469.07" y1="139.52" x2="469.07" y2="154.12"/><line class="a" x1="558.29" y1="139.52" x2="558.29" y2="154.12"/><polyline class="a" points="81.28 145.45 81.28 145.3 81.48 144.92 81.64 144.77 82.04 144.58 82.74 144.58 83.1 144.77 83.3 144.92 83.45 145.3 83.45 145.64 83.3 145.98 82.95 146.51 81.13 148.24 83.65 148.24"/><polygon class="a" points="85.11 147.91 84.91 148.05 85.11 148.24 85.26 148.05 85.11 147.91"/><polyline class="a" points="87.08 145.3 87.48 145.11 87.99 144.58 87.99 148.24"/><polygon class="a" points="72.31 165.4 72.56 165.88 73.32 166.22 74.53 166.36 75.28 166.36 76.54 166.22 77.3 165.88 77.55 165.4 77.55 165.06 77.3 164.53 76.54 164.19 75.28 164.05 74.53 164.05 73.32 164.19 72.56 164.53 72.31 165.06 72.31 165.4"/><line class="a" x1="75.08" y1="121.31" x2="75.08" y2="36.6"/><line class="a" x1="636.32" y1="121.31" x2="636.32" y2="49.23"/><line class="a" x1="605.07" y1="121.31" x2="605.07" y2="48.12"/><line class="a" x1="558.29" y1="121.31" x2="558.29" y2="47.35"/><line class="a" x1="469.07" y1="121.31" x2="469.07" y2="45.81"/><line class="a" x1="383.53" y1="121.31" x2="383.53" y2="43.78"/><line class="b" x1="141.72" y1="26.53" x2="141.77" y2="26.48"/><line class="b" x1="142.83" y1="27.11" x2="142.93" y2="27.01"/><line class="b" x1="143.89" y1="27.64" x2="144.09" y2="27.5"/><line class="b" x1="145" y1="28.22" x2="145.25" y2="27.98"/><line class="b" x1="146.11" y1="28.75" x2="146.41" y2="28.46"/><line class="b" x1="147.22" y1="29.33" x2="147.62" y2="28.94"/><line class="b" x1="148.32" y1="29.86" x2="148.78" y2="29.47"/><line class="b" x1="149.43" y1="30.43" x2="149.94" y2="29.95"/><line class="b" x1="150.54" y1="31.01" x2="151.1" y2="30.43"/><line class="b" x1="151.65" y1="31.54" x2="152.26" y2="30.92"/><line class="b" x1="152.76" y1="32.12" x2="153.47" y2="31.45"/><line class="b" x1="153.82" y1="32.65" x2="154.63" y2="31.93"/><line class="b" x1="154.93" y1="33.23" x2="155.79" y2="32.41"/><line class="b" x1="156.04" y1="33.76" x2="156.94" y2="32.89"/><line class="b" x1="157.15" y1="34.34" x2="158.1" y2="33.37"/><line class="b" x1="158.26" y1="34.87" x2="159.26" y2="33.9"/><line class="b" x1="159.41" y1="35.35" x2="160.47" y2="34.39"/><line class="b" x1="160.73" y1="35.74" x2="161.63" y2="34.87"/><line class="b" x1="162.09" y1="36.02" x2="163.25" y2="34.92"/><line class="b" x1="163.95" y1="35.83" x2="164.96" y2="34.92"/><line class="b" x1="165.87" y1="35.69" x2="166.67" y2="34.87"/><line class="b" x1="167.73" y1="35.49" x2="168.39" y2="34.87"/><line class="b" x1="169.6" y1="35.3" x2="170.05" y2="34.87"/><line class="b" x1="171.46" y1="35.11" x2="171.76" y2="34.82"/><line class="b" x1="173.33" y1="34.96" x2="173.48" y2="34.82"/><line class="b" x1="214.16" y1="34.53" x2="214.31" y2="34.43"/><line class="b" x1="215.47" y1="34.92" x2="215.97" y2="34.39"/><line class="b" x1="216.78" y1="35.25" x2="217.69" y2="34.39"/><line class="b" x1="218.09" y1="35.64" x2="219.4" y2="34.39"/><line class="b" x1="219.4" y1="36.02" x2="221.11" y2="34.34"/><line class="b" x1="220.66" y1="36.36" x2="222.78" y2="34.34"/><line class="b" x1="221.97" y1="36.75" x2="224.49" y2="34.34"/><line class="b" x1="223.28" y1="37.08" x2="226.2" y2="34.29"/><line class="b" x1="224.59" y1="37.47" x2="227.92" y2="34.29"/><line class="b" x1="225.9" y1="37.81" x2="229.58" y2="34.29"/><line class="b" x1="227.16" y1="38.19" x2="231.3" y2="34.24"/><line class="b" x1="228.47" y1="38.58" x2="233.01" y2="34.24"/><line class="b" x1="229.78" y1="38.91" x2="234.72" y2="34.24"/><line class="b" x1="231.3" y1="39.11" x2="236.39" y2="34.19"/><line class="b" x1="233.01" y1="39.11" x2="238.1" y2="34.19"/><line class="b" x1="234.67" y1="39.06" x2="239.81" y2="34.19"/><line class="b" x1="236.39" y1="39.06" x2="241.53" y2="34.14"/><line class="b" x1="238.05" y1="39.06" x2="243.19" y2="34.14"/><line class="b" x1="239.76" y1="39.06" x2="244.91" y2="34.14"/><line class="b" x1="241.48" y1="39.06" x2="246.62" y2="34.1"/><line class="b" x1="243.14" y1="39.01" x2="248.33" y2="34.1"/><line class="b" x1="244.86" y1="39.01" x2="250" y2="34.1"/><line class="b" x1="246.57" y1="39.01" x2="251.71" y2="34.05"/><line class="b" x1="248.23" y1="39.01" x2="253.42" y2="34.05"/><line class="b" x1="249.95" y1="38.96" x2="255.14" y2="34.05"/><line class="b" x1="251.61" y1="38.96" x2="256.8" y2="34"/><line class="b" x1="253.32" y1="38.96" x2="258.52" y2="34"/><line class="b" x1="255.04" y1="38.96" x2="260.23" y2="34"/><line class="b" x1="256.7" y1="38.96" x2="261.94" y2="33.95"/><line class="b" x1="258.42" y1="38.91" x2="263.61" y2="33.95"/><line class="b" x1="260.13" y1="38.91" x2="265.32" y2="33.95"/><line class="b" x1="261.79" y1="38.91" x2="267.03" y2="33.9"/><line class="b" x1="263.51" y1="38.91" x2="268.75" y2="33.9"/><line class="b" x1="265.17" y1="38.91" x2="270.41" y2="33.9"/><line class="b" x1="266.78" y1="38.96" x2="272.13" y2="33.86"/><line class="b" x1="268.4" y1="39.06" x2="273.84" y2="33.86"/><line class="b" x1="269.96" y1="39.16" x2="275.55" y2="33.86"/><line class="b" x1="271.57" y1="39.2" x2="277.22" y2="33.81"/><line class="b" x1="273.18" y1="39.3" x2="278.93" y2="33.81"/><line class="b" x1="274.75" y1="39.4" x2="280.64" y2="33.81"/><line class="b" x1="276.36" y1="39.49" x2="282.36" y2="33.76"/><line class="b" x1="277.97" y1="39.54" x2="284.02" y2="33.76"/><line class="b" x1="279.54" y1="39.64" x2="285.74" y2="33.71"/><line class="b" x1="281.15" y1="39.73" x2="287.45" y2="33.71"/><line class="b" x1="282.76" y1="39.83" x2="289.16" y2="33.71"/><line class="b" x1="284.32" y1="39.88" x2="290.83" y2="33.66"/><line class="b" x1="285.94" y1="39.97" x2="292.54" y2="33.66"/><line class="b" x1="287.55" y1="40.07" x2="294.26" y2="33.66"/><line class="b" x1="289.16" y1="40.12" x2="295.97" y2="33.61"/><line class="b" x1="290.73" y1="40.22" x2="297.63" y2="33.61"/><line class="b" x1="292.34" y1="40.31" x2="299.35" y2="33.61"/><line class="b" x1="293.95" y1="40.41" x2="301.06" y2="33.57"/><line class="b" x1="295.52" y1="40.46" x2="302.72" y2="33.57"/><line class="b" x1="297.13" y1="40.55" x2="304.44" y2="33.57"/><line class="b" x1="298.74" y1="40.65" x2="306.15" y2="33.52"/><line class="b" x1="300.3" y1="40.7" x2="307.87" y2="33.52"/><line class="b" x1="301.92" y1="40.79" x2="309.53" y2="33.52"/><line class="b" x1="303.53" y1="40.89" x2="311.24" y2="33.47"/><line class="b" x1="305.09" y1="40.99" x2="312.96" y2="33.47"/><line class="b" x1="306.71" y1="41.03" x2="314.67" y2="33.47"/><line class="b" x1="308.32" y1="41.13" x2="316.33" y2="33.42"/><line class="b" x1="309.93" y1="41.18" x2="318.05" y2="33.42"/><line class="b" x1="311.54" y1="41.28" x2="319.76" y2="33.42"/><line class="b" x1="313.11" y1="41.37" x2="321.48" y2="33.37"/><line class="b" x1="314.72" y1="41.42" x2="323.14" y2="33.37"/><line class="b" x1="316.33" y1="41.52" x2="324.85" y2="33.37"/><line class="b" x1="317.95" y1="41.61" x2="326.57" y2="33.33"/><line class="b" x1="319.51" y1="41.66" x2="328.28" y2="33.33"/><line class="b" x1="321.12" y1="41.76" x2="329.94" y2="33.33"/><line class="b" x1="322.74" y1="41.85" x2="331.66" y2="33.28"/><line class="b" x1="324.35" y1="41.9" x2="333.37" y2="33.28"/><line class="b" x1="325.91" y1="42" x2="335.09" y2="33.28"/><line class="b" x1="327.52" y1="42.05" x2="336.75" y2="33.23"/><line class="b" x1="329.14" y1="42.14" x2="338.46" y2="33.23"/><line class="b" x1="330.75" y1="42.24" x2="340.18" y2="33.23"/><line class="b" x1="332.36" y1="42.29" x2="341.84" y2="33.23"/><line class="b" x1="350.41" y1="25.04" x2="341.84" y2="33.23"/><line class="b" x1="333.93" y1="42.38" x2="341.84" y2="34.87"/><line class="b" x1="352.12" y1="25.04" x2="341.84" y2="34.87"/><line class="b" x1="335.54" y1="42.48" x2="341.84" y2="36.46"/><line class="b" x1="353.79" y1="25.04" x2="341.84" y2="36.46"/><line class="b" x1="337.15" y1="42.53" x2="341.84" y2="38.1"/><line class="b" x1="355.5" y1="25.04" x2="341.84" y2="38.1"/><line class="b" x1="338.76" y1="42.62" x2="341.84" y2="39.69"/><line class="b" x1="357.16" y1="25.04" x2="341.84" y2="39.69"/><line class="b" x1="340.33" y1="42.72" x2="341.84" y2="41.28"/><line class="b" x1="357.67" y1="26.15" x2="358.17" y2="25.66"/><line class="b" x1="341.84" y1="41.28" x2="357.67" y2="26.15"/><line class="b" x1="341.94" y1="42.77" x2="348.8" y2="36.26"/><polyline class="b" points="358.88 26.58 357.67 27.74 348.8 36.27"/><line class="b" x1="343.55" y1="42.87" x2="348.8" y2="37.85"/><polyline class="b" points="359.58 27.5 357.67 29.33 348.8 37.85"/><line class="b" x1="345.17" y1="42.91" x2="348.8" y2="39.49"/><polyline class="b" points="360.34 28.46 357.67 30.96 348.8 39.49"/><line class="b" x1="346.78" y1="43.01" x2="348.8" y2="41.08"/><polyline class="b" points="361.05 29.38 357.67 32.55 348.8 41.08"/><line class="b" x1="348.44" y1="43.01" x2="348.8" y2="42.67"/><line class="b" x1="361.75" y1="30.29" x2="348.8" y2="42.67"/><line class="b" x1="350.06" y1="43.06" x2="362.46" y2="31.21"/><polyline class="b" points="351.72 43.11 357.67 37.37 363.16 32.17"/><line class="b" x1="353.38" y1="43.11" x2="363.87" y2="33.08"/><line class="b" x1="355" y1="43.15" x2="364.57" y2="34"/><line class="b" x1="356.66" y1="43.2" x2="365.33" y2="34.92"/><line class="b" x1="358.32" y1="43.25" x2="366.04" y2="35.88"/><line class="b" x1="359.94" y1="43.25" x2="366.74" y2="36.79"/><line class="b" x1="361.6" y1="43.3" x2="367.45" y2="37.71"/><line class="b" x1="363.26" y1="43.35" x2="368.15" y2="38.63"/><line class="b" x1="364.88" y1="43.4" x2="368.86" y2="39.59"/><line class="b" x1="366.54" y1="43.4" x2="369.61" y2="40.5"/><line class="b" x1="368.2" y1="43.44" x2="370.32" y2="41.42"/><line class="b" x1="369.82" y1="43.49" x2="371.03" y2="42.34"/><line class="b" x1="371.48" y1="43.54" x2="371.73" y2="43.3"/><line class="a" x1="161.73" y1="121.31" x2="161.73" y2="34.92"/><line class="a" x1="140.81" y1="121.31" x2="140.81" y2="26.1"/><line class="a" x1="118.58" y1="121.31" x2="118.58" y2="30.53"/><polyline class="a" points="95.19 121.31 95.19 33.09 75.08 36.6"/><polyline class="a" points="95.19 33.09 110.32 31.5 118.58 30.53 140.81 26.1"/><polyline class="b" points="140.81 26.1 158.91 35.2 161.73 36.07"/><line class="c" x1="175.19" y1="34.82" x2="175.19" y2="34.77"/><line class="c" x1="176.86" y1="34.77" x2="177.06" y2="34.58"/><line class="c" x1="178.57" y1="34.77" x2="178.92" y2="34.43"/><line class="c" x1="180.28" y1="34.77" x2="180.84" y2="34.24"/><line class="c" x1="182" y1="34.72" x2="186.43" y2="30.48"/><line class="c" x1="183.66" y1="34.72" x2="190.72" y2="27.98"/><line class="c" x1="185.37" y1="34.72" x2="192.03" y2="28.32"/><line class="c" x1="187.09" y1="34.68" x2="193.34" y2="28.7"/><line class="c" x1="188.8" y1="34.68" x2="194.65" y2="29.09"/><line class="c" x1="190.47" y1="34.63" x2="195.96" y2="29.42"/><line class="c" x1="192.18" y1="34.63" x2="197.22" y2="29.81"/><line class="c" x1="193.89" y1="34.63" x2="198.53" y2="30.15"/><line class="c" x1="195.61" y1="34.58" x2="199.84" y2="30.53"/><line class="c" x1="197.27" y1="34.58" x2="201.15" y2="30.92"/><line class="c" x1="198.98" y1="34.58" x2="202.46" y2="31.25"/><line class="c" x1="200.7" y1="34.53" x2="203.77" y2="31.64"/><line class="c" x1="202.41" y1="34.53" x2="205.03" y2="31.98"/><line class="c" x1="204.08" y1="34.53" x2="206.34" y2="32.36"/><line class="c" x1="205.79" y1="34.48" x2="207.65" y2="32.7"/><line class="c" x1="207.5" y1="34.48" x2="208.96" y2="33.09"/><line class="c" x1="209.22" y1="34.48" x2="210.28" y2="33.47"/><line class="c" x1="210.88" y1="34.43" x2="211.59" y2="33.81"/><line class="c" x1="212.59" y1="34.43" x2="212.85" y2="34.19"/><polyline class="c" points="174.89 34.82 180.79 34.24 190.31 27.88 213.75 34.43"/><polyline class="b" points="230.44 39.11 265.02 38.87 303.78 40.89 345.77 42.96 371.93 43.54"/><polyline class="a" points="383.53 43.78 429.25 44.75 469.07 45.81 512.32 46.53 558.29 47.35 605.07 48.12 636.32 49.23"/><polyline class="a" points="93.83 129.21 93.83 128.97 94.09 128.54 94.34 128.29 94.79 128.05 95.75 128.05 96.2 128.29 96.45 128.54 96.66 128.97 96.66 129.4 96.45 129.88 95.95 130.56 93.63 132.78 96.91 132.78"/><polyline class="a" points="117.53 128.05 120.1 128.05 118.69 129.88 119.39 129.88 119.89 130.08 120.1 130.32 120.35 130.99 120.35 131.43 120.1 132.1 119.64 132.58 118.94 132.78 118.23 132.78 117.53 132.58 117.27 132.34 117.07 131.91"/><polyline class="a" points="141.47 128.05 139.15 131.23 142.68 131.23"/><line class="a" x1="141.47" y1="128.05" x2="141.47" y2="132.78"/><polyline class="a" points="379.95 128.97 380.45 128.73 381.16 128.05 381.16 132.78"/><polyline class="a" points="384.44 128.05 387.01 128.05 385.6 129.88 386.3 129.88 386.81 130.08 387.01 130.32 387.26 130.99 387.26 131.43 387.01 132.1 386.55 132.58 385.85 132.78 385.14 132.78 384.44 132.58 384.18 132.34 383.98 131.91"/><polyline class="a" points="465.39 128.97 465.84 128.73 466.55 128.05 466.55 132.78"/><polyline class="a" points="471.74 128.05 469.37 131.23 472.9 131.23"/><line class="a" x1="471.74" y1="128.05" x2="471.74" y2="132.78"/><polyline class="a" points="554.76 128.97 555.22 128.73 555.92 128.05 555.92 132.78"/><polyline class="a" points="561.57 128.05 559.25 128.05 559 130.08 559.25 129.88 559.96 129.64 560.66 129.64 561.37 129.88 561.82 130.32 562.07 130.99 562.07 131.43 561.82 132.1 561.37 132.58 560.66 132.78 559.96 132.78 559.25 132.58 559 132.34 558.75 131.91"/><polyline class="a" points="601.54 128.97 602 128.73 602.7 128.05 602.7 132.78"/><polyline class="a" points="608.6 128.73 608.35 128.29 607.64 128.05 607.19 128.05 606.48 128.29 605.98 128.97 605.78 130.08 605.78 131.23 605.98 132.1 606.48 132.58 607.19 132.78 607.39 132.78 608.1 132.58 608.6 132.1 608.8 131.43 608.8 131.23 608.6 130.56 608.1 130.08 607.39 129.88 607.19 129.88 606.48 130.08 605.98 130.56 605.78 131.23"/><polyline class="a" points="632.79 128.97 633.25 128.73 633.96 128.05 633.96 132.78"/><polyline class="a" points="637.74 132.78 640.05 128.05 636.78 128.05"/><line class="a" x1="605.07" y1="139.52" x2="605.07" y2="154.12"/><line class="a" x1="636.32" y1="139.52" x2="636.32" y2="154.12"/><polyline class="a" points="102.45 145.45 102.45 145.3 102.66 144.92 102.86 144.77 103.21 144.58 103.92 144.58 104.27 144.77 104.47 144.92 104.67 145.3 104.67 145.64 104.47 145.98 104.12 146.51 102.3 148.24 104.82 148.24"/><polygon class="a" points="106.28 147.91 106.08 148.05 106.28 148.24 106.49 148.05 106.28 147.91"/><path class="a" d="M109.91,144.58H108.1l-.2,1.59.2-.19c3.17-1.2,2.7,3.62-.2,1.93l-.15-.39"/><polyline class="a" points="125.24 145.45 125.24 145.3 125.44 144.92 125.59 144.77 125.99 144.58 126.7 144.58 127.05 144.77 127.25 144.92 127.41 145.3 127.41 145.64 127.25 145.98 126.9 146.51 125.09 148.24 127.61 148.24"/><polygon class="a" points="129.07 147.91 128.87 148.05 129.07 148.24 129.22 148.05 129.07 147.91"/><polyline class="a" points="130.88 144.58 132.85 144.58 131.79 145.98 132.34 145.98 132.7 146.17 132.85 146.31 133.05 146.84 133.05 147.18 132.85 147.71 132.5 148.05 131.94 148.24 131.44 148.24 130.88 148.05 130.68 147.91 130.53 147.52"/><polyline class="a" points="424.11 145.78 423.95 146.32 423.6 146.65 423.05 146.84 422.85 146.84 422.29 146.65 421.94 146.32 421.79 145.78 421.79 145.64 421.94 145.11 422.29 144.77 422.85 144.58 423.05 144.58 423.6 144.77 423.95 145.11 424.11 145.78 424.11 146.65 423.95 147.52 423.6 148.05 423.05 148.24 422.69 148.24 422.14 148.05 421.94 147.71"/><polyline class="a" points="514.59 145.78 514.39 146.32 514.03 146.65 513.48 146.84 513.28 146.84 512.77 146.65 512.37 146.32 512.22 145.78 512.22 145.64 512.37 145.11 512.77 144.77 513.28 144.58 513.48 144.58 514.03 144.77 514.39 145.11 514.59 145.78 514.59 146.65 514.39 147.52 514.03 148.05 513.48 148.24 513.13 148.24 512.57 148.05 512.37 147.71"/><polygon class="a" points="516.2 147.91 516 148.05 516.2 148.24 516.4 148.05 516.2 147.91"/><polyline class="a" points="519.48 144.58 517.66 147.04 520.39 147.04"/><line class="a" x1="519.48" y1="144.58" x2="519.48" y2="148.24"/><polyline class="a" points="579.92 144.58 578.1 147.04 580.83 147.04"/><line class="a" x1="579.92" y1="144.58" x2="579.92" y2="148.24"/><polygon class="a" points="582.09 147.91 581.93 148.05 582.09 148.24 582.29 148.05 582.09 147.91"/><polyline class="a" points="585.92 145.78 585.71 146.32 585.36 146.65 584.81 146.84 584.66 146.84 584.1 146.65 583.75 146.32 583.55 145.78 583.55 145.64 583.75 145.11 584.1 144.77 584.66 144.58 584.81 144.58 585.36 144.77 585.71 145.11 585.92 145.78 585.92 146.65 585.71 147.52 585.36 148.05 584.81 148.24 584.45 148.24 583.9 148.05 583.75 147.71"/><polyline class="a" points="617.32 144.58 619.34 144.58 618.23 145.98 618.78 145.98 619.13 146.17 619.34 146.31 619.49 146.84 619.49 147.18 619.34 147.71 618.93 148.05 618.43 148.24 617.88 148.24 617.32 148.05 617.12 147.91 616.97 147.52"/><polygon class="a" points="620.95 147.91 620.75 148.05 620.95 148.24 621.15 148.05 620.95 147.91"/><polyline class="a" points="622.76 144.58 624.73 144.58 623.67 145.98 624.23 145.98 624.58 146.17 624.73 146.31 624.93 146.84 624.93 147.18 624.73 147.71 624.38 148.05 623.82 148.24 623.32 148.24 622.76 148.05 622.56 147.91 622.41 147.52"/><polyline class="a" points="93.63 168.19 93.38 168.19 92.93 168.05 92.67 167.9 92.42 167.56 92.42 166.89 92.67 166.55 92.93 166.36 93.38 166.22 93.88 166.22 94.39 166.36 95.14 166.7 97.67 168.38 97.67 166.02"/><polygon class="a" points="97.16 164.72 97.41 164.87 97.67 164.72 97.41 164.53 97.16 164.72"/><polyline class="a" points="93.38 162.89 93.18 162.55 92.42 162.02 97.67 162.02"/><polyline class="a" points="115.86 167.23 119.34 168.87 119.34 166.36"/><line class="a" x1="115.86" y1="167.23" x2="121.05" y2="167.23"/><polygon class="a" points="120.6 165.2 120.85 165.4 121.05 165.2 120.85 165.06 120.6 165.2"/><polyline class="a" points="116.57 161.69 116.06 161.88 115.86 162.36 115.86 162.7 116.06 163.23 116.82 163.52 118.08 163.71 119.34 163.71 120.35 163.52 120.85 163.23 121.05 162.7 121.05 162.55 120.85 162.02 120.35 161.69 119.59 161.54 119.34 161.54 118.58 161.69 118.08 162.02 117.83 162.55 117.83 162.7 118.08 163.23 118.58 163.52 119.34 163.71"/><polyline class="a" points="138.8 166.7 138.29 166.89 138.04 167.37 138.04 167.71 138.29 168.19 139.05 168.53 140.26 168.72 141.52 168.72 142.53 168.53 143.03 168.19 143.28 167.71 143.28 167.56 143.03 167.03 142.53 166.7 141.77 166.55 141.52 166.55 140.76 166.7 140.26 167.03 140.01 167.56 140.01 167.71 140.26 168.19 140.76 168.53 141.52 168.72"/><polygon class="a" points="142.78 165.2 143.03 165.4 143.28 165.2 143.03 165.06 142.78 165.2"/><polyline class="a" points="139.75 161.69 140.51 161.88 141.01 162.22 141.27 162.7 141.27 162.89 141.01 163.37 140.51 163.71 139.75 163.85 139.55 163.85 138.8 163.71 138.29 163.37 138.04 162.89 138.04 162.7 138.29 162.22 138.8 161.88 139.75 161.69 141.01 161.69 142.28 161.88 143.03 162.22 143.28 162.7 143.28 163.03 143.03 163.52 142.53 163.71"/><polyline class="a" points="161.18 166.22 161.94 166.36 162.44 166.7 162.64 167.23 162.64 167.37 162.44 167.9 161.94 168.19 161.18 168.38 160.93 168.38 160.17 168.19 159.67 167.9 159.41 167.37 159.41 167.23 159.67 166.7 160.17 166.36 161.18 166.22 162.44 166.22 163.65 166.36 164.41 166.7 164.66 167.23 164.66 167.56 164.41 168.05 163.9 168.19"/><polygon class="a" points="164.15 164.72 164.41 164.87 164.66 164.72 164.41 164.53 164.15 164.72"/><polyline class="a" points="160.42 162.89 160.17 162.55 159.41 162.02 164.66 162.02"/><polyline class="a" points="380.76 170.31 380.76 168.48 382.72 169.44 382.72 168.96 382.97 168.62 383.23 168.48 383.98 168.29 384.49 168.29 385.24 168.48 385.75 168.82 386 169.3 386 169.78 385.75 170.31 385.49 170.46 384.99 170.65"/><polyline class="a" points="382.02 167.13 381.76 167.13 381.26 166.94 381.01 166.79 380.76 166.46 380.76 165.78 381.01 165.44 381.26 165.3 381.76 165.11 382.27 165.11 382.72 165.3 383.48 165.64 386 167.28 386 164.96"/><polygon class="a" points="385.49 163.61 385.75 163.81 386 163.61 385.75 163.47 385.49 163.61"/><polyline class="a" points="380.76 160.63 384.23 162.26 384.23 159.81"/><line class="a" x1="380.76" y1="160.63" x2="386" y2="160.63"/><polyline class="a" points="466.3 168.96 469.78 170.65 469.78 168.14"/><line class="a" x1="466.3" y1="168.96" x2="471.54" y2="168.96"/><polyline class="a" points="467.31 166.79 467.05 166.46 466.3 165.97 471.54 165.97"/><polygon class="a" points="471.04 163.61 471.29 163.81 471.54 163.61 471.29 163.47 471.04 163.61"/><polyline class="a" points="466.3 160.63 469.78 162.26 469.78 159.81"/><line class="a" x1="466.3" y1="160.63" x2="471.54" y2="160.63"/><path class="a" d="M555.52,168.53v1.69l2.27.19-.25-.19c-1.67-2.92,5.12-2.5,2.77.19l-.5.14"/><polygon class="a" points="555.52 166.22 555.77 166.7 556.53 167.03 557.79 167.23 558.54 167.23 559.8 167.03 560.51 166.7 560.76 166.22 560.76 165.88 560.51 165.4 559.8 165.06 558.54 164.87 557.79 164.87 556.53 165.06 555.77 165.4 555.52 165.88 555.52 166.22"/><polygon class="a" points="560.31 163.52 560.51 163.71 560.76 163.52 560.51 163.37 560.31 163.52"/><polyline class="a" points="560.76 161.54 555.52 159.85 555.52 162.22"/><path class="a" d="M602.3,168.53v1.69l2.27.19-.25-.19c-1.71-3,5.24-2.4,2.72.19l-.5.14"/><polyline class="a" points="602.3 165.2 602.3 166.89 604.57 167.03 604.32 166.89 604.06 166.36 604.06 165.88 604.32 165.4 604.82 165.06 605.58 164.87 606.08 164.87 606.78 165.06 607.29 165.4 607.54 165.88 607.54 166.36 607.29 166.89 607.04 167.03 606.53 167.23"/><polygon class="a" points="607.04 163.52 607.29 163.71 607.54 163.52 607.29 163.37 607.04 163.52"/><polyline class="a" points="603.05 160.05 602.55 160.19 602.3 160.72 602.3 161.06 602.55 161.54 603.31 161.88 604.57 162.02 605.83 162.02 606.78 161.88 607.29 161.54 607.54 161.06 607.54 160.87 607.29 160.38 606.78 160.05 606.08 159.85 605.83 159.85 605.07 160.05 604.57 160.38 604.32 160.87 604.32 161.06 604.57 161.54 605.07 161.88 605.83 162.02"/><path class="a" d="M633.55,168.48v1.64l2.27.19-.25-.19c-1.72-2.94,5.25-2.38,2.72.19l-.5.14"/><path class="a" d="M633.55,166.31l.25.48.5.14h.5l.5-.14.25-.34.25-.67.25-.48.5-.34.45-.19h.76l.5.19.25.14.25.53v.67l-.25.48c-3.71,1.64-1.81-2.82-4.74-1.69l-.25.53Z"/><polygon class="a" points="638.29 163.47 638.54 163.61 638.79 163.47 638.54 163.28 638.29 163.47"/><polyline class="a" points="635.32 159.95 636.07 160.1 636.58 160.43 636.78 160.96 636.78 161.11 636.58 161.64 636.07 161.97 635.32 162.12 635.06 162.12 634.31 161.97 633.8 161.64 633.55 161.11 633.55 160.96 633.8 160.43 634.31 160.1 635.32 159.95 636.58 159.95 637.79 160.1 638.54 160.43 638.79 160.96 638.79 161.3 638.54 161.78 638.04 161.97"/><polyline class="a" points="73.32 195.03 73.07 194.69 72.31 194.21 77.55 194.21"/><polygon class="a" points="72.31 191.37 72.56 191.85 73.07 192.04 73.57 192.04 74.07 191.85 74.33 191.51 74.53 190.84 74.78 190.35 75.28 190.02 75.79 189.87 76.54 189.87 77.05 190.02 77.3 190.21 77.55 190.69 77.55 191.37 77.3 191.85 77.05 192.04 76.54 192.19 75.79 192.19 75.28 192.04 74.78 191.7 74.53 191.17 74.33 190.5 74.07 190.21 73.57 190.02 73.07 190.02 72.56 190.21 72.31 190.69 72.31 191.37"/><polyline class="a" points="74.07 186.69 74.78 186.84 75.28 187.18 75.54 187.71 75.54 187.85 75.28 188.33 74.78 188.67 74.07 188.86 73.82 188.86 73.07 188.67 72.56 188.33 72.31 187.85 72.31 187.71 72.56 187.18 73.07 186.84 74.07 186.69 75.28 186.69 76.54 186.84 77.3 187.18 77.55 187.71 77.55 187.99 77.3 188.52 76.8 188.67"/><polygon class="a" points="77.05 185.2 77.3 185.34 77.55 185.2 77.3 185.01 77.05 185.2"/><polyline class="a" points="72.31 183.51 72.31 181.68 74.33 182.69 74.33 182.16 74.53 181.83 74.78 181.68 75.54 181.49 76.04 181.49 76.8 181.68 77.3 182.02 77.55 182.5 77.55 183.03 77.3 183.51 77.05 183.66 76.54 183.85"/><polyline class="a" points="73.32 180 73.07 179.66 72.31 179.18 77.55 179.18"/><polyline class="a" points="93.68 195.46 93.43 195.13 92.67 194.59 97.92 194.59"/><path class="a" d="M92.67,191.75l.25.53.5.14h.5l.5-.14.25-.34.25-.67.25-.48.5-.34.5-.19h.71l.5.19.25.14.25.53v.63l-.25.53c-3.62,1.65-1.86-2.82-4.74-1.69l-.25.53Z"/><polyline class="a" points="94.44 187.08 95.19 187.27 95.7 187.61 95.95 188.09 95.95 188.28 95.7 188.76 95.19 189.1 94.44 189.25 94.19 189.25 93.43 189.1 92.93 188.76 92.67 188.28 92.67 188.09 92.93 187.61 93.43 187.27 94.44 187.08 95.7 187.08 96.91 187.27 97.67 187.61 97.92 188.09 97.92 188.43 97.67 188.96 97.16 189.1"/><polygon class="a" points="97.41 185.59 97.67 185.78 97.92 185.59 97.67 185.44 97.41 185.59"/><polyline class="a" points="93.43 182.12 92.93 182.26 92.67 182.74 92.67 183.08 92.93 183.61 93.68 183.95 94.94 184.09 96.2 184.09 97.16 183.95 97.67 183.61 97.92 183.08 97.92 182.94 97.67 182.41 97.16 182.12 96.4 181.92 96.2 181.92 95.45 182.12 94.94 182.41 94.69 182.94 94.69 183.08 94.94 183.61 95.45 183.95 96.2 184.09"/><polyline class="a" points="94.44 178.74 95.19 178.94 95.7 179.27 95.95 179.75 95.95 179.9 95.7 180.43 95.19 180.77 94.44 180.91 94.19 180.91 93.43 180.77 92.93 180.43 92.67 179.9 92.67 179.75 92.93 179.27 93.43 178.94 94.44 178.74 95.7 178.74 96.91 178.94 97.67 179.27 97.92 179.75 97.92 180.09 97.67 180.57 97.16 180.77"/><polyline class="a" points="117.12 195.51 116.87 195.17 116.11 194.69 121.36 194.69"/><path class="a" d="M116.11,191.85l.25.53.5.14h.5l.5-.14.25-.34.25-.67.25-.53.45-.34.5-.14h.76l.5.14.25.19.25.48v.67l-.25.53c-3.8,1.56-1.84-2.93-4.74-1.69l-.25.48Z"/><polyline class="a" points="117.88 187.18 118.63 187.37 119.09 187.71 119.34 188.19 119.34 188.33 119.09 188.86 118.63 189.2 117.88 189.34 117.63 189.34 116.87 189.2 116.37 188.86 116.11 188.33 116.11 188.19 116.37 187.71 116.87 187.37 117.88 187.18 119.09 187.18 120.35 187.37 121.1 187.71 121.36 188.19 121.36 188.52 121.1 189.01 120.6 189.2"/><polygon class="a" points="120.85 185.68 121.1 185.83 121.36 185.68 121.1 185.54 120.85 185.68"/><polyline class="a" points="117.88 182.16 118.63 182.36 119.09 182.69 119.34 183.18 119.34 183.32 119.09 183.85 118.63 184.19 117.88 184.33 117.63 184.33 116.87 184.19 116.37 183.85 116.11 183.32 116.11 183.18 116.37 182.69 116.87 182.36 117.88 182.16 119.09 182.16 120.35 182.36 121.1 182.69 121.36 183.18 121.36 183.51 121.1 184 120.6 184.19"/><polyline class="a" points="121.36 180.33 116.11 178.65 116.11 181.01"/><polyline class="a" points="139.3 195.51 139.05 195.17 138.29 194.69 143.54 194.69"/><polyline class="a" points="140.06 190.5 140.81 190.69 141.32 191.03 141.57 191.51 141.57 191.7 141.32 192.19 140.81 192.52 140.06 192.67 139.81 192.67 139.05 192.52 138.54 192.19 138.29 191.7 138.29 191.51 138.54 191.03 139.05 190.69 140.06 190.5 141.32 190.5 142.58 190.69 143.28 191.03 143.54 191.51 143.54 191.85 143.28 192.38 142.78 192.52"/><polygon class="a" points="138.29 188.33 138.54 188.86 139.3 189.2 140.56 189.34 141.32 189.34 142.58 189.2 143.28 188.86 143.54 188.33 143.54 187.99 143.28 187.51 142.58 187.18 141.32 187.03 140.56 187.03 139.3 187.18 138.54 187.51 138.29 187.99 138.29 188.33"/><polygon class="a" points="143.03 185.68 143.28 185.83 143.54 185.68 143.28 185.54 143.03 185.68"/><polyline class="a" points="138.29 182.69 141.82 184.33 141.82 181.83"/><line class="a" x1="138.29" y1="182.69" x2="143.54" y2="182.69"/><polyline class="a" points="139.05 178.84 138.54 178.98 138.29 179.51 138.29 179.85 138.54 180.33 139.3 180.67 140.56 180.86 141.82 180.86 142.78 180.67 143.28 180.33 143.54 179.85 143.54 179.66 143.28 179.18 142.78 178.84 142.07 178.65 141.82 178.65 141.07 178.84 140.56 179.18 140.31 179.66 140.31 179.85 140.56 180.33 141.07 180.67 141.82 180.86"/><polyline class="a" points="160.88 195.37 160.62 195.03 159.87 194.5 165.11 194.5"/><path class="a" d="M159.87,191.7l.25.48.5.14h.45l.5-.14.25-.34.25-.67.25-.48.5-.34.5-.19h.76l.5.19.25.14.25.53v.67l-.25.48c-3.7,1.65-1.91-2.8-4.74-1.69l-.25.53Z"/><polyline class="a" points="161.58 187.03 162.34 187.18 162.84 187.51 163.09 187.99 163.09 188.19 162.84 188.67 162.34 189.01 161.58 189.2 161.33 189.2 160.62 189.01 160.12 188.67 159.87 188.19 159.87 187.99 160.12 187.51 160.62 187.18 161.58 187.03 162.84 187.03 164.1 187.18 164.86 187.51 165.11 187.99 165.11 188.33 164.86 188.86 164.35 189.01"/><polygon class="a" points="164.61 185.49 164.86 185.68 165.11 185.49 164.86 185.34 164.61 185.49"/><polyline class="a" points="159.87 182.5 163.35 184.19 163.35 181.68"/><line class="a" x1="159.87" y1="182.5" x2="165.11" y2="182.5"/><polyline class="a" points="161.58 178.65 162.34 178.84 162.84 179.18 163.09 179.66 163.09 179.85 162.84 180.33 162.34 180.67 161.58 180.81 161.33 180.81 160.62 180.67 160.12 180.33 159.87 179.85 159.87 179.66 160.12 179.18 160.62 178.84 161.58 178.65 162.84 178.65 164.1 178.84 164.86 179.18 165.11 179.66 165.11 180 164.86 180.48 164.35 180.67"/><polyline class="a" points="382.02 195.51 381.76 195.17 381.01 194.69 386.25 194.69"/><path class="a" d="M381,191.85l.25.53.5.14h.5l.5-.14L383,192l.25-.67.25-.53.5-.34.5-.14h.76l.45.14.25.19.25.48v.67l-.25.53c-3.78,1.54-1.87-2.94-4.74-1.69l-.25.48Z"/><polygon class="a" points="381.01 188.52 381.26 189.01 381.76 189.2 382.27 189.2 382.77 189.01 383.02 188.67 383.28 187.99 383.53 187.51 384.03 187.18 384.54 187.03 385.29 187.03 385.75 187.18 386 187.37 386.25 187.85 386.25 188.52 386 189.01 385.75 189.2 385.29 189.34 384.54 189.34 384.03 189.2 383.53 188.86 383.28 188.33 383.02 187.71 382.77 187.37 382.27 187.18 381.76 187.18 381.26 187.37 381.01 187.85 381.01 188.52"/><polygon class="a" points="385.75 185.68 386 185.83 386.25 185.68 386 185.54 385.75 185.68"/><path class="a" d="M381,182.36V184l2.27.19L383,184c-1.72-2.94,5.25-2.38,2.72.19l-.45.14"/><polyline class="a" points="382.27 180.86 382.02 180.86 381.51 180.67 381.26 180.53 381.01 180.19 381.01 179.51 381.26 179.18 381.51 178.98 382.02 178.84 382.52 178.84 383.02 178.98 383.78 179.32 386.25 181.01 386.25 178.65"/><polyline class="a" points="467.56 193.87 467.31 193.53 466.55 193 471.79 193"/><path class="a" d="M466.55,190.21l.25.48.5.14h.5l.5-.14.25-.34.25-.67.25-.48.5-.34.5-.19h.71l.5.19.25.14.25.53v.67l-.25.48c-3.62,1.65-1.86-2.82-4.74-1.69l-.25.53Z"/><path class="a" d="M466.55,186.84l.25.53.5.14h.5l.5-.14.25-.34.25-.67.25-.53.5-.29.5-.19h.71l.5.19.25.14.25.48v.67l-.25.53c-3.62,1.65-1.86-2.82-4.74-1.69l-.25.48Z"/><polygon class="a" points="471.29 184 471.54 184.19 471.79 184 471.54 183.85 471.29 184"/><polyline class="a" points="466.55 182.36 466.55 180.53 468.57 181.49 468.57 181.01 468.82 180.67 469.07 180.53 469.83 180.33 470.33 180.33 471.04 180.53 471.54 180.86 471.79 181.34 471.79 181.83 471.54 182.36 471.29 182.5 470.78 182.69"/><polyline class="a" points="556.83 195.51 556.58 195.17 555.82 194.69 561.07 194.69"/><path class="a" d="M555.82,191.85l.25.53.5.14h.5l.5-.14.25-.34.25-.67.25-.53.45-.34.5-.14h.76l.5.14.25.19.25.48v.67l-.25.53c-3.8,1.56-1.84-2.93-4.74-1.69l-.25.48Z"/><polygon class="a" points="555.82 188.52 556.07 189.01 556.58 189.2 557.08 189.2 557.59 189.01 557.84 188.67 558.09 187.99 558.34 187.51 558.8 187.18 559.3 187.03 560.06 187.03 560.56 187.18 560.81 187.37 561.07 187.85 561.07 188.52 560.81 189.01 560.56 189.2 560.06 189.34 559.3 189.34 558.8 189.2 558.34 188.86 558.09 188.33 557.84 187.71 557.59 187.37 557.08 187.18 556.58 187.18 556.07 187.37 555.82 187.85 555.82 188.52"/><polygon class="a" points="560.56 185.68 560.81 185.83 561.07 185.68 560.81 185.54 560.56 185.68"/><polyline class="a" points="556.83 183.85 556.58 183.51 555.82 183.03 561.07 183.03"/><path class="a" d="M555.82,180.67v-1.83l2,1v-.53c.93-1.62,4.7-.13,2.72,1.54l-.5.14"/><polyline class="a" points="603.61 195.61 603.36 195.27 602.6 194.79 607.84 194.79"/><polygon class="a" points="602.6 191.94 602.85 192.43 603.36 192.62 603.86 192.62 604.37 192.43 604.57 192.09 604.82 191.46 605.07 190.93 605.58 190.6 606.08 190.45 606.84 190.45 607.34 190.6 607.59 190.79 607.84 191.27 607.84 191.94 607.59 192.43 607.34 192.62 606.84 192.76 606.08 192.76 605.58 192.62 605.07 192.28 604.82 191.75 604.57 191.13 604.37 190.79 603.86 190.6 603.36 190.6 602.85 190.79 602.6 191.27 602.6 191.94"/><path class="a" d="M602.6,188.62l.25.48.5.14h.5l.5-.14.2-.34.25-.67.25-.48.5-.34.5-.19h.76l.5.19.25.14.25.53v.67l-.25.48c-3.81,1.65-1.84-2.83-4.74-1.69l-.25.53Z"/><polygon class="a" points="607.34 185.78 607.59 185.92 607.84 185.78 607.59 185.59 607.34 185.78"/><polygon class="a" points="602.6 183.42 602.85 183.95 603.61 184.28 604.82 184.43 605.58 184.43 606.84 184.28 607.59 183.95 607.84 183.42 607.84 183.08 607.59 182.6 606.84 182.26 605.58 182.12 604.82 182.12 603.61 182.26 602.85 182.6 602.6 183.08 602.6 183.42"/><polyline class="a" points="602.6 179.42 606.08 181.1 606.08 178.6"/><line class="a" x1="602.6" y1="179.42" x2="607.84" y2="179.42"/><polyline class="a" points="634.81 195.51 634.61 195.17 633.85 194.69 639.1 194.69"/><path class="a" d="M633.85,191.85l.25.53.5.14h.45l.5-.14.25-.34.25-.67.25-.53.5-.34.5-.14h.76l.5.14.25.19.25.48v.67l-.25.53c-3.88,1.53-1.91-2.92-4.74-1.69l-.25.48Z"/><polyline class="a" points="639.1 188.67 633.85 187.03 633.85 189.34"/><polygon class="a" points="638.59 185.68 638.84 185.83 639.1 185.68 638.84 185.54 638.59 185.68"/><polyline class="a" points="635.57 182.16 636.32 182.36 636.83 182.69 637.08 183.18 637.08 183.32 636.83 183.85 636.32 184.19 635.57 184.33 635.32 184.33 634.61 184.19 634.11 183.85 633.85 183.32 633.85 183.18 634.11 182.69 634.61 182.36 635.57 182.16 636.83 182.16 638.09 182.36 638.84 182.69 639.1 183.18 639.1 183.51 638.84 184 638.34 184.19"/><polyline class="a" points="635.06 180.86 634.81 180.86 634.36 180.67 634.11 180.53 633.85 180.19 633.85 179.51 634.11 179.18 634.36 178.98 634.81 178.84 635.32 178.84 635.82 178.98 636.58 179.32 639.1 181.01 639.1 178.65"/><line class="a" x1="161.73" y1="34.92" x2="341.84" y2="33.18"/><polyline class="a" points="357.67 25.04 348.8 25.04 341.84 33.18"/><line class="a" x1="357.67" y1="25.04" x2="371.94" y2="43.54"/><polygon class="a" points="13.23 163.47 13.23 159.81 14.49 159.81 15.05 160 15.4 160.34 15.6 160.67 15.8 161.2 15.8 162.07 15.6 162.6 15.4 162.94 15.05 163.28 14.49 163.47 13.23 163.47"/><line class="a" x1="17.06" y1="159.81" x2="17.06" y2="163.47"/><path class="a" d="M20.89,160.34l-.35-.34-.55-.19c-.92-.14-2.38.31-1.31,1.4l.4.19,1.06.34.4.14.15.19.2.34v.53l-.35.34-.55.19h-.76l-.55-.19-.35-.34"/><line class="a" x1="22.91" y1="159.81" x2="22.91" y2="163.47"/><line class="a" x1="21.6" y1="159.81" x2="24.17" y2="159.81"/><polygon class="a" points="25.28 163.13 25.08 163.28 25.28 163.47 25.43 163.28 25.28 163.13"/><polyline class="a" points="30.72 163.47 30.72 159.81 32.39 159.81 32.94 160 33.09 160.14 33.29 160.48 33.29 161.01 33.09 161.4 32.94 161.54 32.39 161.73 30.72 161.73"/><polyline class="a" points="34.55 163.47 34.55 159.81 36.22 159.81 36.77 160 36.92 160.14 37.13 160.48 37.13 160.87 36.92 161.2 36.77 161.4 36.22 161.54 34.55 161.54"/><line class="a" x1="35.86" y1="161.54" x2="37.13" y2="163.47"/><path class="a" d="M39.29,159.81l-.35.19-.35.34c-.67.91-.52,2.68.71,3.13H40l.35-.19a2.08,2.08,0,0,0,0-3.28l-.35-.19Z"/><path class="a" d="M45,160.67l-.2-.34-.35-.34c-1.09-.71-2,.24-2.22,1.2v.87l.2.53a1.33,1.33,0,0,0,2.37.34l.2-.34v-.53H44"/><polyline class="a" points="46.25 163.47 46.25 159.81 47.86 159.81 48.42 160 48.62 160.14 48.82 160.48 48.82 160.87 48.62 161.2 48.42 161.4 47.86 161.54 46.25 161.54"/><line class="a" x1="47.51" y1="161.54" x2="48.82" y2="163.47"/><polyline class="a" points="50.08 163.47 50.08 159.81 52.45 159.81"/><line class="a" x1="50.08" y1="161.54" x2="51.54" y2="161.54"/><line class="a" x1="50.08" y1="163.47" x2="52.45" y2="163.47"/><path class="a" d="M55.93,160.34l-.4-.34-.5-.19c-.92-.14-2.38.31-1.31,1.4l.35.19,1.11.34.35.14.2.19.2.34v.53l-.4.34-.5.19h-.76l-.55-.19-.35-.34"/><polyline class="a" points="59.56 160.34 59.2 160 58.65 159.81 57.89 159.81 57.39 160 56.99 160.34 56.99 160.67 57.19 161.01 57.39 161.2 57.74 161.4 58.85 161.73 59.2 161.88 59.35 162.07 59.56 162.41 59.56 162.94 59.2 163.28 58.65 163.47 57.89 163.47 57.39 163.28 56.99 162.94"/><line class="a" x1="60.82" y1="159.81" x2="60.82" y2="163.47"/><polyline class="a" points="61.72 159.81 63.19 163.47 64.65 159.81"/><polyline class="a" points="65.05 163.47 66.51 159.81 67.97 163.47"/><line class="a" x1="65.56" y1="162.26" x2="67.42" y2="162.26"/><path class="a" d="M14.49,165.93l-.35.34a3.62,3.62,0,0,0,0,4.87l.35.34"/><line class="a" x1="15.8" y1="167.81" x2="15.8" y2="170.26"/><polyline class="a" points="15.8 168.53 16.31 168 16.71 167.81 17.21 167.81 17.62 168 17.77 168.53 17.77 170.26"/><polyline class="a" points="17.77 168.53 18.32 168 18.68 167.81 19.23 167.81 19.63 168 19.79 168.53 19.79 170.26"/><path class="a" d="M21,165.93l.4.34a3.64,3.64,0,0,1,0,4.87l-.4.34"/><polygon class="a" points="13.23 144.39 13.23 140.73 14.49 140.73 15.05 140.92 15.4 141.26 15.6 141.59 15.8 142.12 15.8 142.99 15.6 143.52 15.4 143.86 15.05 144.24 14.49 144.39 13.23 144.39"/><line class="a" x1="17.06" y1="140.73" x2="17.06" y2="144.39"/><path class="a" d="M20.89,141.26l-.35-.34-.55-.19h-.76l-.55.19-.35.34v.34l.2.39.15.14.4.19,1.06.34c1.32.48,1,2-.91,1.73l-.55-.14-.35-.39"/><line class="a" x1="22.91" y1="140.73" x2="22.91" y2="144.39"/><line class="a" x1="21.6" y1="140.73" x2="24.17" y2="140.73"/><polygon class="a" points="25.28 144.05 25.08 144.24 25.28 144.39 25.43 144.24 25.28 144.05"/><polyline class="a" points="30.72 144.39 30.72 140.73 32.39 140.73 32.94 140.92 33.09 141.06 33.29 141.45 33.29 141.98 33.09 142.32 32.94 142.46 32.39 142.65 30.72 142.65"/><polyline class="a" points="34 144.39 35.46 140.73 36.92 144.39"/><line class="a" x1="34.55" y1="143.18" x2="36.37" y2="143.18"/><polyline class="a" points="37.83 144.39 37.83 140.73 39.49 140.73 40.05 140.92 40.2 141.06 40.4 141.45 40.4 141.79 40.2 142.12 40.05 142.32 39.49 142.46 37.83 142.46"/><line class="a" x1="39.14" y1="142.46" x2="40.4" y2="144.39"/><polyline class="a" points="41.51 144.39 44.03 140.73 41.51 140.73"/><line class="a" x1="41.51" y1="144.39" x2="44.03" y2="144.39"/><line class="a" x1="45.34" y1="140.73" x2="45.34" y2="144.39"/><polyline class="a" points="46.25 144.39 47.71 140.73 49.17 144.39"/><line class="a" x1="46.8" y1="143.18" x2="48.62" y2="143.18"/><polyline class="a" points="50.08 140.73 50.08 144.39 52.25 144.39"/><polyline class="a" points="53.16 144.39 53.16 140.73 55.52 140.73"/><line class="a" x1="53.15" y1="142.46" x2="54.62" y2="142.46"/><line class="a" x1="53.15" y1="144.39" x2="55.52" y2="144.39"/><path class="a" d="M14.49,146.85l-.35.34a3.63,3.63,0,0,0,0,4.87l.35.39"/><line class="a" x1="15.8" y1="148.77" x2="15.8" y2="151.18"/><polyline class="a" points="15.8 149.45 16.31 148.92 16.71 148.77 17.21 148.77 17.62 148.92 17.77 149.45 17.77 151.18"/><polyline class="a" points="17.77 149.45 18.32 148.92 18.68 148.77 19.23 148.77 19.63 148.92 19.79 149.45 19.79 151.18"/><path class="a" d="M21,146.85l.4.34a3.66,3.66,0,0,1,0,4.87l-.4.39"/><polyline class="a" points="13.23 129.11 14.69 132.78 16.16 129.11"/><polyline class="a" points="17.06 132.78 17.06 129.11 19.43 129.11"/><line class="a" x1="17.06" y1="130.85" x2="18.52" y2="130.85"/><line class="a" x1="17.06" y1="132.78" x2="19.43" y2="132.78"/><polyline class="a" points="20.54 132.78 20.54 129.11 22.15 129.11 22.71 129.26 22.91 129.45 23.06 129.79 23.06 130.13 22.91 130.51 22.71 130.66 22.15 130.85 20.54 130.85"/><line class="a" x1="21.8" y1="130.85" x2="23.06" y2="132.78"/><line class="a" x1="25.08" y1="129.11" x2="25.08" y2="132.78"/><line class="a" x1="23.82" y1="129.11" x2="26.34" y2="129.11"/><line class="a" x1="27.3" y1="129.11" x2="27.3" y2="132.78"/><path class="a" d="M31.28,130l-.15-.34-.4-.39a1.37,1.37,0,0,0-2,.72l-.15.53v.87l.15.53.2.34.35.34.4.19h.71l.35-.19.4-.34.15-.34"/><line class="a" x1="32.54" y1="129.11" x2="32.54" y2="132.78"/><path class="a" d="M14.34,181.78l-.4.19-.35.34c-.67.89-.52,2.76.76,3.13H15l.35-.19a2.1,2.1,0,0,0,0-3.28l-.35-.19Z"/><line class="a" x1="14.84" y1="184.72" x2="15.95" y2="185.78"/><polyline class="a" points="17.42 181.78 17.42 184.38 17.62 184.91 17.97 185.25 18.52 185.44 18.88 185.44 19.43 185.25 19.79 184.91 19.99 184.38 19.99 181.78"/><path class="a" d="M22.36,181.78,22,182l-.4.34a2.11,2.11,0,0,0,.76,3.13h.71l.4-.19a2.18,2.18,0,0,0,0-3.28l-.4-.19Z"/><line class="a" x1="26.19" y1="181.78" x2="26.19" y2="185.44"/><line class="a" x1="24.88" y1="181.78" x2="27.45" y2="181.78"/><polyline class="a" points="27.8 185.44 29.26 181.78 30.72 185.44"/><line class="a" x1="28.35" y1="184.24" x2="30.17" y2="184.24"/><line class="a" x1="36.22" y1="181.78" x2="36.22" y2="185.44"/><line class="a" x1="34.96" y1="181.78" x2="37.48" y2="181.78"/><polyline class="a" points="38.39 185.44 38.39 181.78 40.76 181.78"/><line class="a" x1="38.39" y1="183.51" x2="39.85" y2="183.51"/><line class="a" x1="38.39" y1="185.44" x2="40.75" y2="185.44"/><polyline class="a" points="41.86 185.44 41.86 181.78 43.53 181.78 44.03 181.97 44.23 182.12 44.44 182.45 44.44 182.84 44.23 183.18 44.03 183.32 43.53 183.51 41.86 183.51"/><line class="a" x1="43.12" y1="183.51" x2="44.43" y2="185.44"/><polyline class="a" points="45.7 185.44 45.7 181.78 47.36 181.78 47.86 181.97 48.06 182.12 48.27 182.45 48.27 182.84 48.06 183.18 47.86 183.32 47.36 183.51 45.7 183.51"/><line class="a" x1="46.95" y1="183.51" x2="48.27" y2="185.44"/><polyline class="a" points="49.53 185.44 49.53 181.78 51.9 181.78"/><line class="a" x1="49.53" y1="183.51" x2="50.99" y2="183.51"/><line class="a" x1="49.53" y1="185.44" x2="51.89" y2="185.44"/><polyline class="a" points="53 185.44 53 181.78 55.52 185.44 55.52 181.78"/><path class="a" d="M57.89,181.78l-.35.19-.35.34c-.67.91-.52,2.68.71,3.13h.76l.35-.19A2.08,2.08,0,0,0,59,182l-.35-.19Z"/><path class="a" d="M14.49,187.9l-.35.34a3.62,3.62,0,0,0,0,4.87l.35.34"/><line class="a" x1="15.8" y1="189.78" x2="15.8" y2="192.23"/><polyline class="a" points="15.8 190.5 16.31 189.97 16.71 189.78 17.21 189.78 17.62 189.97 17.77 190.5 17.77 192.23"/><polyline class="a" points="17.77 190.5 18.32 189.97 18.68 189.78 19.23 189.78 19.63 189.97 19.79 190.5 19.79 192.23"/><polyline class="a" points="26.89 190.31 26.74 189.97 26.19 189.78 25.63 189.78 25.08 189.97 24.88 190.31 25.08 190.64 25.43 190.84 26.34 191.03 26.74 191.17 26.89 191.56 26.89 191.7 26.74 192.04 26.19 192.23 25.63 192.23 25.08 192.04 24.88 191.7"/><polygon class="a" points="28.35 191.9 28.2 192.04 28.35 192.23 28.56 192.04 28.35 191.9"/><line class="a" x1="30.02" y1="188.57" x2="30.02" y2="192.23"/><polygon class="a" points="31.63 191.9 31.48 192.04 31.63 192.23 31.83 192.04 31.63 191.9"/><line class="a" x1="33.29" y1="189.78" x2="33.29" y2="192.23"/><polyline class="a" points="33.29 190.5 33.85 189.97 34.2 189.78 34.76 189.78 35.11 189.97 35.31 190.5 35.31 192.23"/><polyline class="a" points="35.31 190.5 35.87 189.97 36.22 189.78 36.77 189.78 37.13 189.97 37.33 190.5 37.33 192.23"/><polygon class="a" points="38.94 191.9 38.79 192.04 38.94 192.23 39.14 192.04 38.94 191.9"/><path class="a" d="M40.4,187.9l.35.34a3.64,3.64,0,0,1,0,4.87l-.35.34"/><line class="b" x1="213.75" y1="34.43" x2="230.44" y2="39.11"/><line class="a" x1="371.93" y1="43.54" x2="383.53" y2="43.78"/><line class="a" x1="348.8" y1="25.04" x2="348.8" y2="121.31"/><line class="a" x1="357.67" y1="25.04" x2="357.67" y2="121.31"/><line class="a" x1="371.93" y1="43.54" x2="371.93" y2="121.31"/><line class="a" x1="298.94" y1="33.62" x2="298.89" y2="121.31"/><polyline class="a" points="191.63 128.73 191.37 128.29 190.67 128.05 190.21 128.05 189.51 128.29 189.05 128.97 188.8 130.08 188.8 131.24 189.05 132.1 189.51 132.58 190.21 132.78 190.47 132.78 191.17 132.58 191.63 132.1 191.88 131.43 191.88 131.24 191.63 130.56 191.17 130.08 190.47 129.88 190.21 129.88 189.51 130.08 189.05 130.56 188.8 131.24"/><polyline class="a" points="241.93 132.78 244.25 128.05 240.97 128.05"/><polygon class="a" points="298.44 128.05 297.73 128.29 297.48 128.73 297.48 129.21 297.73 129.64 298.19 129.88 299.15 130.08 299.85 130.32 300.31 130.75 300.56 131.24 300.56 131.91 300.31 132.34 300.05 132.58 299.35 132.78 298.44 132.78 297.73 132.58 297.48 132.34 297.23 131.91 297.23 131.24 297.48 130.75 297.94 130.32 298.64 130.08 299.6 129.88 300.05 129.64 300.31 129.21 300.31 128.73 300.05 128.29 299.35 128.05 298.44 128.05"/><polyline class="a" points="343.35 129.64 343.1 130.32 342.65 130.75 341.94 130.99 341.69 130.99 340.98 130.75 340.53 130.32 340.28 129.64 340.28 129.4 340.53 128.73 340.98 128.29 341.69 128.05 341.94 128.05 342.65 128.29 343.1 128.73 343.35 129.64 343.35 130.75 343.1 131.91 342.65 132.58 341.94 132.78 341.49 132.78 340.78 132.58 340.53 132.1"/><polyline class="a" points="345.62 128.97 346.07 128.73 346.78 128.05 346.78 132.78"/><polygon class="a" points="351.01 128.05 350.31 128.29 349.86 128.97 349.6 130.08 349.6 130.75 349.86 131.91 350.31 132.58 351.01 132.78 351.52 132.78 352.23 132.58 352.68 131.91 352.93 130.75 352.93 130.08 352.68 128.97 352.23 128.29 351.52 128.05 351.01 128.05"/><polyline class="a" points="355.35 128.97 355.85 128.73 356.56 128.05 356.56 132.78"/><polyline class="a" points="360.09 128.97 360.54 128.73 361.25 128.05 361.25 132.78"/><polyline class="a" points="368.25 128.97 368.76 128.73 369.46 128.05 369.46 132.78"/><polyline class="a" points="372.49 129.21 372.49 128.97 372.74 128.54 372.99 128.29 373.45 128.05 374.4 128.05 374.86 128.29 375.11 128.54 375.31 128.97 375.31 129.4 375.11 129.88 374.61 130.56 372.29 132.78 375.56 132.78"/><line class="a" x1="190.31" y1="139.52" x2="190.31" y2="154.12"/><line class="a" x1="242.64" y1="139.52" x2="242.64" y2="154.12"/><line class="a" x1="298.89" y1="139.52" x2="298.89" y2="154.12"/><line class="a" x1="341.84" y1="139.52" x2="341.84" y2="154.12"/><line class="a" x1="348.8" y1="139.52" x2="348.8" y2="154.12"/><line class="a" x1="357.67" y1="139.52" x2="357.67" y2="154.12"/><line class="a" x1="371.93" y1="139.52" x2="371.93" y2="154.12"/><polyline class="a" points="174.79 144.58 176.81 144.58 175.7 145.98 176.25 145.98 176.6 146.17 176.81 146.32 176.96 146.85 176.96 147.18 176.81 147.71 176.4 148.05 175.9 148.24 175.34 148.24 174.79 148.05 174.59 147.91 174.44 147.52"/><path class="a" d="M269.15,144.58h-1.81l-.2,1.59.2-.19c3.14-1.2,2.66,3.62-.2,1.93l-.15-.39"/><polygon class="a" points="270.97 147.91 270.77 148.05 270.97 148.24 271.12 148.05 270.97 147.91"/><polyline class="a" points="274.75 145.79 274.6 146.32 274.24 146.65 273.69 146.85 273.49 146.85 272.93 146.65 272.58 146.32 272.43 145.79 272.43 145.64 272.58 145.11 272.93 144.77 273.49 144.58 273.69 144.58 274.24 144.77 274.6 145.11 274.75 145.79 274.75 146.65 274.6 147.52 274.24 148.05 273.69 148.24 273.34 148.24 272.78 148.05 272.58 147.71"/><polyline class="a" points="212.95 144.58 211.13 144.58 210.98 146.17 211.13 145.98 211.69 145.79 212.24 145.79 212.8 145.98 213.15 146.32 213.35 146.85 213.35 147.18 213.15 147.71 212.8 148.05 212.24 148.24 211.69 148.24 211.13 148.05 210.98 147.91 210.78 147.52"/><polygon class="a" points="214.76 147.91 214.61 148.05 214.76 148.24 214.96 148.05 214.76 147.91"/><polyline class="a" points="218.39 144.58 216.58 144.58 216.43 146.17 216.58 145.98 217.13 145.79 217.69 145.79 218.24 145.98 218.59 146.32 218.79 146.85 218.79 147.18 218.59 147.71 218.24 148.05 217.69 148.24 217.13 148.24 216.58 148.05 216.43 147.91 216.22 147.52"/><polyline class="a" points="318.2 144.58 316.38 147.04 319.11 147.04"/><line class="a" x1="318.2" y1="144.58" x2="318.2" y2="148.24"/><polygon class="a" points="320.37 147.91 320.22 148.05 320.37 148.24 320.57 148.05 320.37 147.91"/><polyline class="a" points="324 144.58 322.18 144.58 322.03 146.17 322.18 145.98 322.74 145.79 323.29 145.79 323.85 145.98 324.2 146.32 324.4 146.85 324.4 147.18 324.2 147.71 323.85 148.05 323.29 148.24 322.74 148.24 322.18 148.05 322.03 147.91 321.83 147.52"/><polygon class="a" points="343.76 149.5 343.96 149.98 344.51 150.36 345.42 150.51 345.92 150.51 346.83 150.36 347.39 149.98 347.59 149.5 347.59 149.11 347.39 148.63 346.83 148.24 345.92 148.1 345.42 148.1 344.51 148.24 343.96 148.63 343.76 149.11 343.76 149.5"/><polygon class="a" points="347.24 146.7 347.39 146.89 347.59 146.7 347.39 146.51 347.24 146.7"/><polyline class="a" points="347.59 144.63 343.76 142.9 343.76 145.3"/><polygon class="a" points="351.67 149.59 351.87 150.12 352.38 150.46 353.28 150.65 353.84 150.65 354.75 150.46 355.3 150.12 355.5 149.59 355.5 149.25 355.3 148.72 354.75 148.39 353.84 148.19 353.28 148.19 352.38 148.39 351.87 148.72 351.67 149.25 351.67 149.59"/><polygon class="a" points="355.1 146.85 355.3 146.99 355.5 146.85 355.3 146.65 355.1 146.85"/><polyline class="a" points="352.93 143.18 353.49 143.38 353.84 143.71 354.04 144.24 354.04 144.39 353.84 144.92 353.49 145.26 352.93 145.45 352.78 145.45 352.23 145.26 351.87 144.92 351.67 144.39 351.67 144.24 351.87 143.71 352.23 143.38 352.93 143.18 353.84 143.18 354.75 143.38 355.3 143.71 355.5 144.24 355.5 144.58 355.3 145.11 354.95 145.26"/><polyline class="a" points="360.49 145.3 360.85 145.11 361.4 144.58 361.4 148.24"/><polygon class="a" points="363.92 147.91 363.72 148.05 363.92 148.24 364.12 148.05 363.92 147.91"/><path class="a" d="M367.55,144.58h-1.81l-.2,1.59.2-.19c3.17-1.2,2.7,3.62-.2,1.93l-.15-.39"/><polyline class="a" points="373.75 145.3 374.1 145.11 374.66 144.58 374.66 148.24"/><polygon class="a" points="377.18 147.91 377.03 148.05 377.18 148.24 377.38 148.05 377.18 147.91"/><polyline class="a" points="378.84 145.45 378.84 145.3 378.99 144.92 379.19 144.77 379.55 144.58 380.25 144.58 380.65 144.77 380.81 144.92 381.01 145.3 381.01 145.64 380.81 145.98 380.45 146.51 378.64 148.24 381.16 148.24"/><polyline class="a" points="188.7 169.78 188.45 169.44 187.69 168.96 192.94 168.96"/><polyline class="a" points="188.95 166.79 188.7 166.79 188.2 166.65 187.95 166.46 187.69 166.12 187.69 165.44 187.95 165.11 188.2 164.96 188.7 164.77 189.21 164.77 189.71 164.96 190.47 165.3 192.94 166.94 192.94 164.63"/><polygon class="a" points="192.43 163.28 192.68 163.47 192.94 163.28 192.68 163.13 192.43 163.28"/><polyline class="a" points="188.7 161.44 188.45 161.11 187.69 160.63 192.94 160.63"/><polyline class="a" points="241.03 170.31 240.77 169.97 240.02 169.44 245.26 169.44"/><polyline class="a" points="245.26 166.79 240.02 165.11 240.02 167.47"/><polygon class="a" points="244.75 163.81 245.01 163.95 245.26 163.81 245.01 163.61 244.75 163.81"/><polyline class="a" points="240.77 160.29 240.27 160.43 240.02 160.96 240.02 161.3 240.27 161.78 241.03 162.12 242.24 162.26 243.5 162.26 244.5 162.12 245.01 161.78 245.26 161.3 245.26 161.11 245.01 160.63 244.5 160.29 243.75 160.1 243.5 160.1 242.74 160.29 242.24 160.63 241.98 161.11 241.98 161.3 242.24 161.78 242.74 162.12 243.5 162.26"/><polyline class="a" points="297.53 170.41 297.28 170.41 296.78 170.22 296.52 170.07 296.27 169.73 296.27 169.06 296.52 168.72 296.78 168.53 297.28 168.38 297.78 168.38 298.29 168.53 298.99 168.87 301.51 170.55 301.51 168.19"/><polyline class="a" points="296.27 166.89 296.27 165.06 298.29 166.02 298.29 165.54 298.54 165.2 298.74 165.06 299.5 164.87 300 164.87 300.76 165.06 301.26 165.4 301.51 165.88 301.51 166.36 301.26 166.89 301.01 167.03 300.51 167.23"/><polygon class="a" points="301.01 163.52 301.26 163.71 301.51 163.52 301.26 163.37 301.01 163.52"/><polyline class="a" points="296.27 160.19 296.27 161.88 298.54 162.02 298.29 161.88 298.04 161.35 298.04 160.87 298.29 160.38 298.74 160.05 299.5 159.85 300 159.85 300.76 160.05 301.26 160.38 301.51 160.87 301.51 161.35 301.26 161.88 301.01 162.02 300.51 162.22"/><polyline class="a" points="340.48 167.9 340.23 167.9 339.72 167.71 339.47 167.56 339.22 167.23 339.22 166.55 339.47 166.22 339.72 166.02 340.23 165.88 340.68 165.88 341.19 166.02 341.94 166.36 344.46 168.05 344.46 165.73"/><path class="a" d="M339.22,163.85l.25.53.5.14h.5l.45-.14.25-.34.25-.67.25-.48.5-.34.5-.19h.76l.5.19.25.14.25.53v.63l-.25.53c-3.7,1.66-1.92-2.82-4.74-1.69l-.25.53Z"/><polyline class="a" points="347.44 170.41 347.18 170.41 346.68 170.22 346.43 170.07 346.18 169.73 346.18 169.06 346.43 168.72 346.68 168.53 347.18 168.38 347.64 168.38 348.14 168.53 348.9 168.87 351.42 170.55 351.42 168.19"/><path class="a" d="M346.18,166.36l.25.53.5.14h.5l.45-.14.25-.34.25-.67.25-.48.5-.34.5-.19h.76l.5.19.25.14.25.53v.63l-.25.53c-3.7,1.66-1.92-2.82-4.74-1.69l-.25.53Z"/><polygon class="a" points="350.92 163.52 351.17 163.71 351.42 163.52 351.17 163.37 350.92 163.52"/><polyline class="a" points="351.42 161.54 346.18 159.85 346.18 162.22"/><polyline class="a" points="356.31 170.41 356.06 170.41 355.55 170.22 355.35 170.07 355.1 169.73 355.1 169.06 355.35 168.72 355.55 168.53 356.06 168.38 356.56 168.38 357.06 168.53 357.82 168.87 360.29 170.55 360.29 168.19"/><polyline class="a" points="356.81 165.06 357.57 165.2 358.07 165.54 358.32 166.02 358.32 166.22 358.07 166.7 357.57 167.03 356.81 167.23 356.56 167.23 355.8 167.03 355.35 166.7 355.1 166.22 355.1 166.02 355.35 165.54 355.8 165.2 356.81 165.06 358.07 165.06 359.33 165.2 360.09 165.54 360.29 166.02 360.29 166.36 360.09 166.89 359.58 167.03"/><polygon class="a" points="359.84 163.52 360.09 163.71 360.29 163.52 360.09 163.37 359.84 163.52"/><polyline class="a" points="360.29 161.54 355.1 159.85 355.1 162.22"/><polyline class="a" points="369.31 170.22 369.31 168.38 371.28 169.4 371.28 168.87 371.53 168.53 371.78 168.38 372.54 168.19 373.04 168.19 373.8 168.38 374.3 168.72 374.56 169.2 374.56 169.73 374.3 170.22 374.05 170.41 373.55 170.55"/><polyline class="a" points="370.32 166.7 370.07 166.36 369.31 165.88 374.56 165.88"/><polygon class="a" points="374.05 163.52 374.3 163.71 374.56 163.52 374.3 163.37 374.05 163.52"/><polyline class="a" points="370.57 162.02 370.32 162.02 369.82 161.88 369.56 161.69 369.31 161.35 369.31 160.72 369.56 160.38 369.82 160.19 370.32 160.05 370.83 160.05 371.28 160.19 372.04 160.53 374.56 162.22 374.56 159.85"/><polyline class="a" points="188.7 195.51 188.45 195.17 187.69 194.69 192.94 194.69"/><path class="a" d="M187.69,191.85l.25.53.5.14h.5l.5-.14.25-.34.25-.67.25-.53.5-.34.5-.14H192l.45.14.25.19.25.48v.67l-.25.53c-3.78,1.54-1.87-2.94-4.74-1.69l-.25.48Z"/><polyline class="a" points="189.46 187.18 190.21 187.37 190.72 187.71 190.97 188.19 190.97 188.33 190.72 188.86 190.21 189.2 189.46 189.34 189.21 189.34 188.45 189.2 187.94 188.86 187.69 188.33 187.69 188.19 187.94 187.71 188.45 187.37 189.46 187.18 190.72 187.18 191.98 187.37 192.68 187.71 192.94 188.19 192.94 188.52 192.68 189.01 192.23 189.2"/><polygon class="a" points="192.43 185.68 192.68 185.83 192.94 185.68 192.68 185.54 192.43 185.68"/><path class="a" d="M187.69,182.36V184l2.27.19-.25-.19c-1.71-2.93,5.25-2.4,2.72.19l-.45.14"/><polyline class="a" points="188.95 180.86 188.7 180.86 188.2 180.67 187.94 180.53 187.69 180.19 187.69 179.51 187.94 179.18 188.2 178.98 188.7 178.84 189.21 178.84 189.71 178.98 190.47 179.32 192.94 181.01 192.94 178.65"/><polyline class="a" points="241.03 195.51 240.77 195.17 240.02 194.69 245.26 194.69"/><path class="a" d="M240,191.85l.25.53.5.14h.45l.5-.14L242,192l.25-.67.25-.53.5-.34.5-.14h.76l.5.14.25.19.25.48v.67l-.25.53c-3.88,1.53-1.91-2.92-4.74-1.69l-.25.48Z"/><polyline class="a" points="241.73 187.18 242.49 187.37 242.99 187.71 243.24 188.19 243.24 188.33 242.99 188.86 242.49 189.2 241.73 189.34 241.48 189.34 240.77 189.2 240.27 188.86 240.02 188.33 240.02 188.19 240.27 187.71 240.77 187.37 241.73 187.18 242.99 187.18 244.25 187.37 245.01 187.71 245.26 188.19 245.26 188.52 245.01 189.01 244.5 189.2"/><polygon class="a" points="244.75 185.68 245.01 185.83 245.26 185.68 245.01 185.54 244.75 185.68"/><path class="a" d="M240,182.36V184l2.22.19L242,184c-1.73-2.94,5.31-2.39,2.77.19l-.5.14"/><polygon class="a" points="240.02 180.19 240.27 180.67 240.77 180.86 241.23 180.86 241.73 180.67 241.98 180.33 242.24 179.66 242.49 179.18 242.99 178.84 243.5 178.65 244.25 178.65 244.75 178.84 245.01 178.98 245.26 179.51 245.26 180.19 245.01 180.67 244.75 180.86 244.25 181.01 243.5 181.01 242.99 180.86 242.49 180.53 242.24 180 241.98 179.32 241.73 178.98 241.23 178.84 240.77 178.84 240.27 178.98 240.02 179.51 240.02 180.19"/><polyline class="a" points="297.28 195.51 297.03 195.17 296.27 194.69 301.51 194.69"/><path class="a" d="M296.27,191.85l.25.53.5.14h.5l.5-.14.25-.34.25-.67.2-.53.5-.34.5-.14h.76l.5.14.25.19.25.48v.67l-.25.53c-4,1.51-1.74-2.93-4.74-1.69l-.25.48Z"/><polyline class="a" points="298.04 187.18 298.74 187.37 299.25 187.71 299.5 188.19 299.5 188.33 299.25 188.86 298.74 189.2 298.04 189.34 297.78 189.34 297.03 189.2 296.52 188.86 296.27 188.33 296.27 188.19 296.52 187.71 297.03 187.37 298.04 187.18 299.25 187.18 300.51 187.37 301.26 187.71 301.51 188.19 301.51 188.52 301.26 189.01 300.76 189.2"/><polygon class="a" points="301.01 185.68 301.26 185.83 301.51 185.68 301.26 185.54 301.01 185.68"/><polyline class="a" points="297.03 182.16 296.52 182.36 296.27 182.84 296.27 183.18 296.52 183.66 297.28 184 298.54 184.19 299.75 184.19 300.76 184 301.26 183.66 301.51 183.18 301.51 183.03 301.26 182.5 300.76 182.16 300 182.02 299.75 182.02 298.99 182.16 298.54 182.5 298.29 183.03 298.29 183.18 298.54 183.66 298.99 184 299.75 184.19"/><polyline class="a" points="296.27 180.67 296.27 178.84 298.29 179.85 298.29 179.32 298.54 178.98 298.74 178.84 299.5 178.65 300 178.65 300.76 178.84 301.26 179.18 301.51 179.66 301.51 180.19 301.26 180.67 301.01 180.86 300.51 181.01"/><polyline class="a" points="340.18 195.51 339.93 195.17 339.22 194.69 344.46 194.69"/><path class="a" d="M339.22,191.85l.25.53.45.14h.5l.5-.14.25-.34.25-.67.25-.53.5-.34.5-.14h.76l.5.14.25.19.25.48v.67l-.25.53c-3.87,1.54-1.93-2.93-4.74-1.69l-.25.48Z"/><polyline class="a" points="340.93 187.18 341.69 187.37 342.19 187.71 342.45 188.19 342.45 188.33 342.19 188.86 341.69 189.2 340.93 189.34 340.68 189.34 339.93 189.2 339.47 188.86 339.22 188.33 339.22 188.19 339.47 187.71 339.93 187.37 340.93 187.18 342.19 187.18 343.45 187.37 344.21 187.71 344.46 188.19 344.46 188.52 344.21 189.01 343.71 189.2"/><polygon class="a" points="343.96 185.68 344.21 185.83 344.46 185.68 344.21 185.54 343.96 185.68"/><polyline class="a" points="339.93 182.16 339.47 182.36 339.22 182.84 339.22 183.18 339.47 183.66 340.18 184 341.44 184.19 342.7 184.19 343.71 184 344.21 183.66 344.46 183.18 344.46 183.03 344.21 182.5 343.71 182.16 342.95 182.02 342.7 182.02 341.94 182.16 341.44 182.5 341.19 183.03 341.19 183.18 341.44 183.66 341.94 184 342.7 184.19"/><polygon class="a" points="339.22 180.19 339.47 180.67 339.93 180.86 340.43 180.86 340.93 180.67 341.19 180.33 341.44 179.66 341.69 179.18 342.19 178.84 342.7 178.65 343.45 178.65 343.96 178.84 344.21 178.98 344.46 179.51 344.46 180.19 344.21 180.67 343.96 180.86 343.45 181.01 342.7 181.01 342.19 180.86 341.69 180.53 341.44 180 341.19 179.32 340.93 178.98 340.43 178.84 339.93 178.84 339.47 178.98 339.22 179.51 339.22 180.19"/><polyline class="a" points="347.13 195.51 346.88 195.17 346.18 194.69 351.42 194.69"/><polyline class="a" points="347.89 190.5 348.65 190.69 349.15 191.03 349.4 191.51 349.4 191.7 349.15 192.19 348.65 192.52 347.89 192.67 347.64 192.67 346.88 192.52 346.43 192.19 346.18 191.7 346.18 191.51 346.43 191.03 346.88 190.69 347.89 190.5 349.15 190.5 350.41 190.69 351.17 191.03 351.42 191.51 351.42 191.85 351.17 192.38 350.66 192.52"/><polygon class="a" points="346.18 188.33 346.43 188.86 347.13 189.2 348.39 189.34 349.15 189.34 350.41 189.2 351.17 188.86 351.42 188.33 351.42 187.99 351.17 187.51 350.41 187.18 349.15 187.03 348.39 187.03 347.13 187.18 346.43 187.51 346.18 187.99 346.18 188.33"/><polygon class="a" points="350.91 185.68 351.17 185.83 351.42 185.68 351.17 185.54 350.91 185.68"/><path class="a" d="M346.18,182.36V184l2.22.19-.25-.19c-1.73-2.94,5.31-2.39,2.77.19l-.5.14"/><polygon class="a" points="346.18 180.19 346.43 180.67 346.88 180.86 347.39 180.86 347.89 180.67 348.14 180.33 348.39 179.66 348.65 179.18 349.15 178.84 349.65 178.65 350.41 178.65 350.91 178.84 351.17 178.98 351.42 179.51 351.42 180.19 351.17 180.67 350.91 180.86 350.41 181.01 349.65 181.01 349.15 180.86 348.65 180.53 348.39 180 348.14 179.32 347.89 178.98 347.39 178.84 346.88 178.84 346.43 178.98 346.18 179.51 346.18 180.19"/><polyline class="a" points="356.06 195.51 355.8 195.17 355.05 194.69 360.29 194.69"/><polyline class="a" points="356.81 190.5 357.57 190.69 358.07 191.03 358.32 191.51 358.32 191.7 358.07 192.19 357.57 192.52 356.81 192.67 356.56 192.67 355.8 192.52 355.3 192.19 355.05 191.7 355.05 191.51 355.3 191.03 355.8 190.69 356.81 190.5 358.07 190.5 359.33 190.69 360.04 191.03 360.29 191.51 360.29 191.85 360.04 192.38 359.58 192.52"/><polygon class="a" points="355.05 188.33 355.3 188.86 356.06 189.2 357.32 189.34 358.07 189.34 359.33 189.2 360.04 188.86 360.29 188.33 360.29 187.99 360.04 187.51 359.33 187.18 358.07 187.03 357.32 187.03 356.06 187.18 355.3 187.51 355.05 187.99 355.05 188.33"/><polygon class="a" points="359.79 185.68 360.04 185.83 360.29 185.68 360.04 185.54 359.79 185.68"/><path class="a" d="M355,182.36V184l2.27.19-.25-.19c-1.71-2.93,5.25-2.4,2.72.19l-.45.14"/><polygon class="a" points="355.05 180.19 355.3 180.67 355.8 180.86 356.31 180.86 356.81 180.67 357.06 180.33 357.32 179.66 357.57 179.18 358.07 178.84 358.58 178.65 359.33 178.65 359.79 178.84 360.04 178.98 360.29 179.51 360.29 180.19 360.04 180.67 359.79 180.86 359.33 181.01 358.58 181.01 358.07 180.86 357.57 180.53 357.32 180 357.06 179.32 356.81 178.98 356.31 178.84 355.8 178.84 355.3 178.98 355.05 179.51 355.05 180.19"/><polyline class="a" points="370.32 195.51 370.07 195.17 369.31 194.69 374.56 194.69"/><path class="a" d="M369.31,191.85l.25.53.5.14h.45l.5-.14.25-.34.25-.67.25-.53.5-.34.5-.14h.76l.5.14.25.19.25.48v.67l-.25.53c-3.88,1.53-1.91-2.92-4.74-1.69l-.25.48Z"/><polygon class="a" points="369.31 188.52 369.56 189.01 370.07 189.2 370.52 189.2 371.03 189.01 371.28 188.67 371.53 187.99 371.78 187.51 372.29 187.18 372.79 187.03 373.55 187.03 374.05 187.18 374.3 187.37 374.56 187.85 374.56 188.52 374.3 189.01 374.05 189.2 373.55 189.34 372.79 189.34 372.29 189.2 371.78 188.86 371.53 188.33 371.28 187.71 371.03 187.37 370.52 187.18 370.07 187.18 369.56 187.37 369.31 187.85 369.31 188.52"/><polygon class="a" points="374.05 185.68 374.3 185.83 374.56 185.68 374.3 185.54 374.05 185.68"/><path class="a" d="M369.31,182.36V184l2.22.19-.25-.19c-1.73-2.94,5.31-2.39,2.77.19l-.5.14"/><path class="a" d="M369.31,179v1.69l2.22.19-.25-.19c-1.72-3,5.3-2.41,2.77.19l-.5.14"/><polyline class="a" points="191.98 7.55 191.83 7.26 191.57 7.02 191.32 6.87 190.77 6.87 190.52 7.02 190.26 7.26 190.11 7.55 189.96 7.93 189.96 8.56 190.11 8.95 190.26 9.19 190.52 9.43 190.77 9.57 191.32 9.57 191.57 9.43 191.83 9.19 191.98 8.95"/><polyline class="a" points="192.53 9.57 193.59 6.87 194.65 9.57"/><line class="a" x1="192.94" y1="8.7" x2="194.25" y2="8.7"/><polyline class="a" points="194.9 6.87 196.01 9.57 197.07 6.87"/><path class="a" d="M198.43,6.87l-.3.14-.25.24c-.46.7-.41,2,.55,2.31h.5l.25-.14a1.55,1.55,0,0,0,0-2.41l-.25-.14Z"/><line class="a" x1="200.7" y1="8.03" x2="203.07" y2="8.03"/><line class="a" x1="200.7" y1="8.8" x2="203.07" y2="8.8"/><polyline class="a" points="204.43 7.4 204.68 7.26 205.08 6.87 205.08 9.57"/><polygon class="a" points="206.95 9.33 206.85 9.43 206.95 9.57 207.1 9.43 206.95 9.33"/><polyline class="a" points="208.31 6.87 209.77 6.87 208.97 7.93 209.37 7.93 209.67 8.03 209.77 8.17 209.92 8.56 209.92 8.8 209.77 9.19 209.52 9.43 209.12 9.57 208.71 9.57 208.31 9.43 208.16 9.33 208.06 9.09"/><polyline class="a" points="212.04 6.87 210.73 8.7 212.75 8.7"/><line class="a" x1="212.04" y1="6.87" x2="212.04" y2="9.57"/><line class="a" x1="216.32" y1="7.79" x2="216.32" y2="9.57"/><polyline class="a" points="216.32 8.32 216.73 7.93 217.03 7.79 217.43 7.79 217.69 7.93 217.84 8.32 217.84 9.57"/><polyline class="a" points="217.84 8.32 218.24 7.93 218.49 7.79 218.9 7.79 219.15 7.93 219.3 8.32 219.3 9.57"/><line class="a" x1="221.82" y1="7.79" x2="221.82" y2="10.49"/><path class="a" d="M221.82,8.17l-.25-.24c-1.78-.87-1.78,2.36,0,1.49l.25-.24"/><polyline class="a" points="282.01 22.1 282.01 19.4 283.22 19.4 283.62 19.55 283.72 19.64 283.87 19.93 283.87 20.17 283.72 20.41 283.62 20.56 283.22 20.7 282.01 20.7"/><line class="a" x1="282.96" y1="20.7" x2="283.87" y2="22.1"/><line class="a" x1="284.83" y1="19.4" x2="284.83" y2="22.1"/><polyline class="a" points="285.89 22.1 285.89 19.4 287.1 19.4 287.5 19.55 287.6 19.64 287.75 19.93 287.75 20.32 287.6 20.56 287.5 20.7 287.1 20.8 285.89 20.8"/><path class="a" d="M289.37,19.4l-.25.14-.3.24a1.57,1.57,0,0,0,.55,2.31h.55l.25-.14a1.53,1.53,0,0,0,0-2.41l-.25-.14Z"/><polyline class="a" points="291.63 22.1 291.63 19.4 292.84 19.4 293.25 19.55 293.4 19.64 293.5 19.93 293.5 20.17 293.4 20.41 293.25 20.56 292.84 20.7 291.63 20.7"/><line class="a" x1="292.59" y1="20.7" x2="293.5" y2="22.1"/><line class="a" x1="295.01" y1="19.4" x2="295.01" y2="22.1"/><line class="a" x1="294.05" y1="19.4" x2="295.92" y2="19.4"/><polygon class="a" points="297.28 19.4 296.98 19.55 296.73 19.79 296.57 20.03 296.47 20.41 296.47 21.09 296.57 21.47 296.73 21.71 296.98 21.95 297.28 22.1 297.78 22.1 298.09 21.95 298.34 21.71 298.49 21.47 298.59 21.09 298.59 20.41 298.49 20.03 298.34 19.79 298.09 19.55 297.78 19.4 297.28 19.4"/><line class="a" x1="299.55" y1="20.56" x2="301.97" y2="20.56"/><line class="a" x1="299.55" y1="21.33" x2="301.97" y2="21.33"/><polyline class="a" points="303.28 19.93 303.53 19.79 303.93 19.4 303.93 22.1"/><polyline class="a" points="305.85 19.4 307.31 19.4 306.5 20.41 306.91 20.41 307.16 20.56 307.31 20.7 307.46 21.09 307.46 21.33 307.31 21.71 307.06 21.95 306.66 22.1 306.25 22.1 305.85 21.95 305.7 21.81 305.55 21.57"/><polygon class="a" points="308.52 21.81 308.37 21.95 308.52 22.1 308.62 21.95 308.52 21.81"/><polyline class="a" points="311.34 19.79 311.19 19.55 310.79 19.4 310.54 19.4 310.13 19.55 309.83 19.93 309.73 20.56 309.73 21.18 309.83 21.71 310.13 21.95 310.54 22.1 310.64 22.1 311.04 21.95 311.34 21.71 311.44 21.33 311.44 21.18 311.34 20.8 311.04 20.56 310.64 20.41 310.54 20.41 310.13 20.56 309.83 20.8 309.73 21.18"/><polyline class="a" points="312.4 20.03 312.4 19.93 312.5 19.64 312.65 19.55 312.91 19.4 313.46 19.4 313.71 19.55 313.86 19.64 314.01 19.93 314.01 20.17 313.86 20.41 313.61 20.8 312.25 22.1 314.12 22.1"/><line class="a" x1="317.9" y1="20.32" x2="317.9" y2="22.1"/><polyline class="a" points="317.9 20.8 318.3 20.41 318.55 20.32 318.95 20.32 319.21 20.41 319.36 20.8 319.36 22.1"/><polyline class="a" points="319.36 20.8 319.76 20.41 320.01 20.32 320.42 20.32 320.67 20.41 320.82 20.8 320.82 22.1"/><line class="a" x1="323.39" y1="20.32" x2="323.39" y2="22.97"/><path class="a" d="M323.39,20.7l-.3-.29c-1.82-.74-1.68,2.38,0,1.54l.3-.24"/><polyline class="c" points="224.44 10.25 183.76 10.25 190.31 27.88"/><polyline class="b" points="278.93 22.97 325.51 22.97 325.66 33.37"/><line class="a" x1="140.81" y1="26.1" x2="161.73" y2="34.92"/><line class="b" x1="174.89" y1="34.82" x2="161.73" y2="36.07"/><polyline class="a" points="162.79 128.05 160.42 128.05 160.17 130.08 160.42 129.88 161.13 129.64 161.83 129.64 162.54 129.88 162.99 130.32 163.25 130.99 163.25 131.43 162.99 132.1 162.54 132.58 161.83 132.78 161.13 132.78 160.42 132.58 160.17 132.34 159.97 131.91"/><polyline class="a" points="147.22 145.45 147.22 145.3 147.42 144.92 147.57 144.77 147.92 144.58 148.68 144.58 149.03 144.77 149.23 144.92 149.38 145.3 149.38 145.64 149.23 145.98 148.83 146.51 147.01 148.24 149.59 148.24"/><polygon class="a" points="151.05 147.91 150.84 148.05 151.05 148.24 151.2 148.05 151.05 147.91"/><polyline class="a" points="152.66 145.45 152.66 145.3 152.86 144.92 153.01 144.77 153.37 144.58 154.12 144.58 154.47 144.77 154.68 144.92 154.83 145.3 154.83 145.64 154.68 145.98 154.27 146.51 152.46 148.24 155.03 148.24"/><line class="a" x1="75.08" y1="126.22" x2="75.08" y2="126.17"/><line class="a" x1="341.84" y1="121.31" x2="341.84" y2="121.26"/><polyline class="a" points="161.73 121.31 190.31 121.31 190.37 34.67"/><line class="a" x1="242.64" y1="121.31" x2="242.64" y2="34.15"/><line class="a" x1="341.84" y1="121.31" x2="341.84" y2="121.26"/><line class="a" x1="341.84" y1="121.31" x2="341.84" y2="33.18"/><polyline class="a" points="227.77 29.95 227.77 27.25 228.98 27.25 229.38 27.4 229.48 27.54 229.63 27.79 229.63 28.17 229.48 28.41 229.38 28.56 228.98 28.65 227.77 28.65"/><polyline class="a" points="230.59 29.95 230.59 27.25 232.3 27.25"/><line class="a" x1="230.59" y1="28.56" x2="231.65" y2="28.56"/><line class="a" x1="230.59" y1="29.95" x2="232.3" y2="29.95"/><polyline class="a" points="233.11 29.95 233.11 27.25 234.98 29.95 234.98 27.25"/><polygon class="a" points="236.03 29.95 236.03 27.25 236.99 27.25 237.4 27.4 237.65 27.64 237.8 27.93 237.95 28.27 237.95 28.94 237.8 29.33 237.65 29.57 237.4 29.81 236.99 29.95 236.03 29.95"/><polyline class="a" points="238.86 29.95 238.86 27.25 240.62 27.25"/><line class="a" x1="238.86" y1="28.56" x2="239.92" y2="28.56"/><line class="a" x1="238.86" y1="29.95" x2="240.62" y2="29.95"/><polyline class="a" points="241.43 29.95 241.43 27.25 243.29 29.95 243.29 27.25"/><polyline class="a" points="244.2 29.95 246.12 27.25 244.2 27.25"/><line class="a" x1="244.2" y1="29.95" x2="246.12" y2="29.95"/><polyline class="a" points="246.62 29.95 247.73 27.25 248.79 29.95"/><line class="a" x1="247.02" y1="29.04" x2="248.38" y2="29.04"/><line class="a" x1="249.44" y1="28.41" x2="251.86" y2="28.41"/><line class="a" x1="249.44" y1="29.18" x2="251.86" y2="29.18"/><polyline class="a" points="253.17 27.79 253.47 27.64 253.88 27.25 253.88 29.95"/><line class="a" x1="257.86" y1="27.25" x2="255.49" y2="29.95"/><path class="a" d="M256.15,27.25l.25.29v.24l-.15.24-.25.14h-.25l-.25-.24v-.29l.1-.24c.78-.48.58.27,1.61.14l.4-.14.25-.14"/><polygon class="a" points="257.36 29.04 257.05 29.18 256.95 29.42 256.95 29.71 257.21 29.95 257.46 29.95 257.76 29.81 257.86 29.57 257.86 29.33 257.61 29.04 257.36 29.04"/><line class="a" x1="22.81" y1="115.77" x2="32.03" y2="115.77"/><polygon class="a" points="41.26 115.77 32.03 121.26 32.03 115.77 41.26 115.77"/><line class="a" x1="39.74" y1="116.63" x2="40.7" y2="115.77"/><line class="a" x1="32.54" y1="120.97" x2="37.98" y2="115.77"/><line class="a" x1="32.03" y1="118.85" x2="35.31" y2="115.77"/><line class="a" x1="32.03" y1="116.3" x2="32.59" y2="115.77"/><line class="a" x1="36.37" y1="118.66" x2="33.29" y2="115.77"/><line class="a" x1="34.7" y1="119.67" x2="32.03" y2="117.07"/><line class="a" x1="33.04" y1="120.63" x2="32.03" y2="119.67"/><line class="a" x1="38.03" y1="117.69" x2="36.01" y2="115.77"/><line class="a" x1="39.69" y1="116.68" x2="38.69" y2="115.77"/><line class="a" x1="22.81" y1="115.77" x2="32.03" y2="121.26"/><path class="a" d="M13.94,107.91l-.45.19-.4.39c-.71,1.09-.63,3.12.86,3.57h.81l.4-.19.45-.39.2-.39.2-.63v-1l-.2-.58-.2-.43-.45-.39-.4-.19Z"/><line class="a" x1="14.54" y1="111.29" x2="15.8" y2="112.49"/><line class="a" x1="17.46" y1="109.31" x2="17.46" y2="112.06"/><polyline class="a" points="17.46 110.47 17.67 109.89 18.07 109.5 18.47 109.31 19.08 109.31"/><polygon class="a" points="19.93 108.11 20.14 108.3 20.34 108.11 20.14 107.91 19.93 108.11"/><line class="a" x1="20.14" y1="109.5" x2="20.14" y2="112.06"/><polyline class="a" points="23.06 107.91 22.61 107.91 22.2 108.11 22 108.68 22 112.06"/><line class="a" x1="21.4" y1="109.31" x2="22.86" y2="109.31"/><polygon class="a" points="24.47 109.31 24.27 109.5 24.47 109.7 24.72 109.5 24.47 109.31"/><polygon class="a" points="24.47 111.67 24.27 111.86 24.47 112.06 24.72 111.86 24.47 111.67"/><polyline class="a" points="31.13 108.68 31.53 108.49 32.18 107.91 32.18 112.06"/><polygon class="a" points="35.71 107.91 35.06 108.11 34.85 108.49 34.85 108.92 35.06 109.31 35.46 109.5 36.32 109.7 36.92 109.89 37.33 110.27 37.58 110.71 37.58 111.29 37.33 111.67 37.12 111.86 36.52 112.06 35.71 112.06 35.06 111.86 34.85 111.67 34.65 111.29 34.65 110.71 34.85 110.27 35.26 109.89 35.91 109.7 36.72 109.5 37.12 109.31 37.33 108.92 37.33 108.49 37.12 108.11 36.52 107.91 35.71 107.91"/><polygon class="a" points="40.05 107.91 39.44 108.11 38.99 108.68 38.79 109.7 38.79 110.27 38.99 111.29 39.44 111.86 40.05 112.06 40.45 112.06 41.05 111.86 41.51 111.29 41.71 110.27 41.71 109.7 41.51 108.68 41.05 108.11 40.45 107.91 40.05 107.91"/><line class="a" x1="47.51" y1="109.31" x2="47.51" y2="112.06"/><polyline class="a" points="47.51 110.08 48.11 109.5 48.57 109.31 49.17 109.31 49.57 109.5 49.78 110.08 49.78 112.06"/><polyline class="a" points="49.78 110.08 50.43 109.5 50.83 109.31 51.44 109.31 51.84 109.5 52.04 110.08 52.04 112.06"/><polyline class="a" points="60.16 109.89 59.96 109.5 59.3 109.31 58.7 109.31 58.09 109.5 57.89 109.89 58.09 110.27 58.5 110.47 59.55 110.71 59.96 110.9 60.16 111.29 60.16 111.48 59.96 111.86 59.3 112.06 58.7 112.06 58.09 111.86 57.89 111.48"/><polygon class="a" points="61.82 111.67 61.62 111.86 61.82 112.06 62.02 111.86 61.82 111.67"/><line class="a" x1="63.69" y1="107.91" x2="63.69" y2="112.06"/><polygon class="a" points="65.55 111.67 65.35 111.86 65.55 112.06 65.75 111.86 65.55 111.67"/><line class="a" x1="67.42" y1="109.31" x2="67.42" y2="112.06"/><polyline class="a" points="67.42 110.08 68.02 109.5 68.43 109.31 69.08 109.31 69.48 109.5 69.69 110.08 69.69 112.06"/><polyline class="a" points="69.69 110.08 70.29 109.5 70.75 109.31 71.35 109.31 71.75 109.5 71.95 110.08 71.95 112.06"/><polygon class="a" points="73.82 111.67 73.62 111.86 73.82 112.06 74.02 111.86 73.82 111.67"/><line class="d" x1="138.8" y1="28.03" x2="142.83" y2="24.17"/><line class="d" x1="142.83" y1="28.03" x2="138.8" y2="24.17"/><line class="d" x1="346.78" y1="26.97" x2="350.81" y2="23.11"/><line class="d" x1="350.81" y1="26.97" x2="346.78" y2="23.11"/><line class="e" x1="159.72" y1="36.84" x2="163.8" y2="32.99"/><line class="e" x1="163.8" y1="36.84" x2="159.72" y2="32.99"/><line class="e" x1="339.82" y1="35.11" x2="343.86" y2="31.25"/><line class="e" x1="343.86" y1="35.11" x2="339.82" y2="31.25"/></svg>